<?xml version="1.0" encoding="utf-8" standalone="no"?>
<!DOCTYPE svg PUBLIC "-//W3C//DTD SVG 1.1//EN"
  "http://www.w3.org/Graphics/SVG/1.1/DTD/svg11.dtd">
<!-- Created with matplotlib (https://matplotlib.org/) -->
<svg height="810pt" version="1.1" viewBox="0 0 720 810" width="720pt" xmlns="http://www.w3.org/2000/svg" xmlns:xlink="http://www.w3.org/1999/xlink">
 <metadata>
  <rdf:RDF xmlns:cc="http://creativecommons.org/ns#" xmlns:dc="http://purl.org/dc/elements/1.1/" xmlns:rdf="http://www.w3.org/1999/02/22-rdf-syntax-ns#">
   <cc:Work>
    <dc:type rdf:resource="http://purl.org/dc/dcmitype/StillImage"/>
    <dc:date>2020-11-23T13:48:42.300083</dc:date>
    <dc:format>image/svg+xml</dc:format>
    <dc:creator>
     <cc:Agent>
      <dc:title>Matplotlib v3.3.1, https://matplotlib.org/</dc:title>
     </cc:Agent>
    </dc:creator>
   </cc:Work>
  </rdf:RDF>
 </metadata>
 <defs>
  <style type="text/css">*{stroke-linecap:butt;stroke-linejoin:round;}</style>
 </defs>
 <g id="figure_1">
  <g id="patch_1">
   <path d="M 0 810 
L 720 810 
L 720 0 
L 0 0 
z
" style="fill:#ffffff;"/>
  </g>
  <g id="axes_1">
   <g id="patch_2">
    <path d="M 108 720.9 
L 698.4 720.9 
L 698.4 56.7 
L 108 56.7 
z
" style="fill:#ffffff;"/>
   </g>
   <g id="matplotlib.axis_1">
    <g id="xtick_1">
     <g id="line2d_1">
      <path clip-path="url(#pc366168586)" d="M 108 720.9 
L 108 56.7 
" style="fill:none;stroke:#e6e6e6;stroke-linecap:square;stroke-width:0.8;"/>
     </g>
     <g id="line2d_2">
      <defs>
       <path d="M 0 0 
L 0 -3.5 
" id="mc8ceae0bd5" style="stroke:#000000;stroke-width:0.8;"/>
      </defs>
      <g>
       <use style="stroke:#000000;stroke-width:0.8;" x="108" xlink:href="#mc8ceae0bd5" y="720.9"/>
      </g>
     </g>
     <g id="text_1">
      <!-- $\mathdefault{0}$ -->
      <g transform="translate(104.341881 734.777725)scale(0.15 -0.15)">
       <defs>
        <path d="M 42 31.640625 
C 42 37.75 41.90625 48.125 37.703125 56.109375 
C 34 63.109375 28.09375 65.59375 22.90625 65.59375 
C 18.09375 65.59375 12 63.40625 8.203125 56.203125 
C 4.203125 48.71875 3.796875 39.4375 3.796875 31.640625 
C 3.796875 25.953125 3.90625 17.28125 7 9.671875 
C 11.296875 -0.609375 19 -2 22.90625 -2 
C 27.5 -2 34.5 -0.109375 38.59375 9.375 
C 41.59375 16.28125 42 24.359375 42 31.640625 
z
M 22.90625 -0.40625 
C 16.5 -0.40625 12.703125 5.078125 11.296875 12.6875 
C 10.203125 18.5625 10.203125 27.15625 10.203125 32.75 
C 10.203125 40.4375 10.203125 46.828125 11.5 52.921875 
C 13.40625 61.390625 19 64 22.90625 64 
C 27 64 32.296875 61.296875 34.203125 53.125 
C 35.5 47.4375 35.59375 40.734375 35.59375 32.75 
C 35.59375 26.25 35.59375 18.265625 34.40625 12.375 
C 32.296875 1.484375 26.40625 -0.40625 22.90625 -0.40625 
z
" id="CMR17-48"/>
       </defs>
       <use transform="scale(0.996264)" xlink:href="#CMR17-48"/>
      </g>
     </g>
    </g>
    <g id="xtick_2">
     <g id="line2d_3">
      <path clip-path="url(#pc366168586)" d="M 189.546961 720.9 
L 189.546961 56.7 
" style="fill:none;stroke:#e6e6e6;stroke-linecap:square;stroke-width:0.8;"/>
     </g>
     <g id="line2d_4">
      <g>
       <use style="stroke:#000000;stroke-width:0.8;" x="189.546961" xlink:href="#mc8ceae0bd5" y="720.9"/>
      </g>
     </g>
     <g id="text_2">
      <!-- $\mathdefault{25}$ -->
      <g transform="translate(182.230724 734.777725)scale(0.15 -0.15)">
       <defs>
        <path d="M 41.703125 15.453125 
L 39.90625 15.453125 
C 38.90625 8.375 38.09375 7.171875 37.703125 6.5625 
C 37.203125 5.765625 30 5.765625 28.59375 5.765625 
L 9.40625 5.765625 
C 13 9.671875 20 16.75 28.5 24.953125 
C 34.59375 30.734375 41.703125 37.53125 41.703125 47.421875 
C 41.703125 59.21875 32.296875 66 21.796875 66 
C 10.796875 66 4.09375 56.3125 4.09375 47.34375 
C 4.09375 43.4375 7 42.9375 8.203125 42.9375 
C 9.203125 42.9375 12.203125 43.546875 12.203125 47.03125 
C 12.203125 50.109375 9.59375 51 8.203125 51 
C 7.59375 51 7 50.90625 6.59375 50.703125 
C 8.5 59.21875 14.296875 63.40625 20.40625 63.40625 
C 29.09375 63.40625 34.796875 56.515625 34.796875 47.421875 
C 34.796875 38.734375 29.703125 31.25 24 24.75 
L 4.09375 2.28125 
L 4.09375 0 
L 39.296875 0 
z
" id="CMR17-50"/>
        <path d="M 11.40625 57.6875 
C 12.40625 57.28125 16.5 56 20.703125 56 
C 30 56 35.09375 61.109375 38 64.0625 
C 38 64.953125 38 65.5 37.40625 65.5 
C 37.296875 65.5 37.09375 65.5 36.296875 65.046875 
C 32.796875 63.40625 28.703125 62.078125 23.703125 62.078125 
C 20.703125 62.078125 16.203125 62.484375 11.296875 64.671875 
C 10.203125 65.171875 10 65.171875 9.90625 65.171875 
C 9.40625 65.171875 9.296875 65.0625 9.296875 63.078125 
L 9.296875 34.421875 
C 9.296875 32.640625 9.296875 32.140625 10.296875 32.140625 
C 10.796875 32.140625 11 32.34375 11.5 33.03125 
C 14.703125 37.515625 19.09375 39.40625 24.09375 39.40625 
C 27.59375 39.40625 35.09375 37.21875 35.09375 20.140625 
C 35.09375 16.953125 35.09375 11.171875 32.09375 6.578125 
C 29.59375 2.484375 25.703125 0.390625 21.40625 0.390625 
C 14.796875 0.390625 8.09375 5 6.296875 12.71875 
C 6.703125 12.609375 7.5 12.421875 7.90625 12.421875 
C 9.203125 12.421875 11.703125 13.125 11.703125 16.21875 
C 11.703125 18.90625 9.796875 20 7.90625 20 
C 5.59375 20 4.09375 18.59375 4.09375 15.796875 
C 4.09375 7.09375 11 -2 21.59375 -2 
C 31.90625 -2 41.703125 6.875 41.703125 19.75 
C 41.703125 31.71875 33.90625 41 24.203125 41 
C 19.09375 41 14.796875 39.109375 11.40625 35.53125 
z
" id="CMR17-53"/>
       </defs>
       <use transform="scale(0.996264)" xlink:href="#CMR17-50"/>
       <use transform="translate(45.690477 0)scale(0.996264)" xlink:href="#CMR17-53"/>
      </g>
     </g>
    </g>
    <g id="xtick_3">
     <g id="line2d_5">
      <path clip-path="url(#pc366168586)" d="M 271.093923 720.9 
L 271.093923 56.7 
" style="fill:none;stroke:#e6e6e6;stroke-linecap:square;stroke-width:0.8;"/>
     </g>
     <g id="line2d_6">
      <g>
       <use style="stroke:#000000;stroke-width:0.8;" x="271.093923" xlink:href="#mc8ceae0bd5" y="720.9"/>
      </g>
     </g>
     <g id="text_3">
      <!-- $\mathdefault{50}$ -->
      <g transform="translate(263.777685 734.777725)scale(0.15 -0.15)">
       <use transform="scale(0.996264)" xlink:href="#CMR17-53"/>
       <use transform="translate(45.690477 0)scale(0.996264)" xlink:href="#CMR17-48"/>
      </g>
     </g>
    </g>
    <g id="xtick_4">
     <g id="line2d_7">
      <path clip-path="url(#pc366168586)" d="M 352.640884 720.9 
L 352.640884 56.7 
" style="fill:none;stroke:#e6e6e6;stroke-linecap:square;stroke-width:0.8;"/>
     </g>
     <g id="line2d_8">
      <g>
       <use style="stroke:#000000;stroke-width:0.8;" x="352.640884" xlink:href="#mc8ceae0bd5" y="720.9"/>
      </g>
     </g>
     <g id="text_4">
      <!-- $\mathdefault{75}$ -->
      <g transform="translate(345.324646 734.777725)scale(0.15 -0.15)">
       <defs>
        <path d="M 45.09375 61.578125 
L 45.09375 63.765625 
L 21.59375 63.765625 
C 9.90625 63.765625 9.703125 65.078125 9.296875 67 
L 7.5 67 
L 4.59375 48.34375 
L 6.40625 48.34375 
C 6.703125 50.234375 7.40625 55.3125 8.59375 57.203125 
C 9.203125 58 16.59375 58 18.296875 58 
L 40.296875 58 
L 29.203125 41.578125 
C 21.796875 30.53125 16.703125 15.609375 16.703125 2.578125 
C 16.703125 1.390625 16.703125 -2 20.296875 -2 
C 23.90625 -2 23.90625 1.390625 23.90625 2.671875 
L 23.90625 7.265625 
C 23.90625 23.5625 26.703125 34.3125 31.296875 41.1875 
z
" id="CMR17-55"/>
       </defs>
       <use transform="scale(0.996264)" xlink:href="#CMR17-55"/>
       <use transform="translate(45.690477 0)scale(0.996264)" xlink:href="#CMR17-53"/>
      </g>
     </g>
    </g>
    <g id="xtick_5">
     <g id="line2d_9">
      <path clip-path="url(#pc366168586)" d="M 434.187845 720.9 
L 434.187845 56.7 
" style="fill:none;stroke:#e6e6e6;stroke-linecap:square;stroke-width:0.8;"/>
     </g>
     <g id="line2d_10">
      <g>
       <use style="stroke:#000000;stroke-width:0.8;" x="434.187845" xlink:href="#mc8ceae0bd5" y="720.9"/>
      </g>
     </g>
     <g id="text_5">
      <!-- $\mathdefault{100}$ -->
      <g transform="translate(423.213489 734.777725)scale(0.15 -0.15)">
       <defs>
        <path d="M 26.59375 63.40625 
C 26.59375 65.5 26.5 65.5 25.09375 65.5 
C 21.203125 61.1875 15.296875 59.796875 9.703125 59.796875 
C 9.40625 59.796875 8.90625 59.796875 8.796875 59.5 
C 8.703125 59.296875 8.703125 59.09375 8.703125 57 
C 11.796875 57 17 57.59375 21 59.984375 
L 21 7.203125 
C 21 3.6875 20.796875 2.5 12.203125 2.5 
L 9.203125 2.5 
L 9.203125 0 
C 14 0 19 0 23.796875 0 
C 28.59375 0 33.59375 0 38.40625 0 
L 38.40625 2.5 
L 35.40625 2.5 
C 26.796875 2.5 26.59375 3.59375 26.59375 7.15625 
z
" id="CMR17-49"/>
       </defs>
       <use transform="scale(0.996264)" xlink:href="#CMR17-49"/>
       <use transform="translate(45.690477 0)scale(0.996264)" xlink:href="#CMR17-48"/>
       <use transform="translate(91.380954 0)scale(0.996264)" xlink:href="#CMR17-48"/>
      </g>
     </g>
    </g>
    <g id="xtick_6">
     <g id="line2d_11">
      <path clip-path="url(#pc366168586)" d="M 515.734807 720.9 
L 515.734807 56.7 
" style="fill:none;stroke:#e6e6e6;stroke-linecap:square;stroke-width:0.8;"/>
     </g>
     <g id="line2d_12">
      <g>
       <use style="stroke:#000000;stroke-width:0.8;" x="515.734807" xlink:href="#mc8ceae0bd5" y="720.9"/>
      </g>
     </g>
     <g id="text_6">
      <!-- $\mathdefault{125}$ -->
      <g transform="translate(504.76045 734.777725)scale(0.15 -0.15)">
       <use transform="scale(0.996264)" xlink:href="#CMR17-49"/>
       <use transform="translate(45.690477 0)scale(0.996264)" xlink:href="#CMR17-50"/>
       <use transform="translate(91.380954 0)scale(0.996264)" xlink:href="#CMR17-53"/>
      </g>
     </g>
    </g>
    <g id="xtick_7">
     <g id="line2d_13">
      <path clip-path="url(#pc366168586)" d="M 597.281768 720.9 
L 597.281768 56.7 
" style="fill:none;stroke:#e6e6e6;stroke-linecap:square;stroke-width:0.8;"/>
     </g>
     <g id="line2d_14">
      <g>
       <use style="stroke:#000000;stroke-width:0.8;" x="597.281768" xlink:href="#mc8ceae0bd5" y="720.9"/>
      </g>
     </g>
     <g id="text_7">
      <!-- $\mathdefault{150}$ -->
      <g transform="translate(586.307411 734.777725)scale(0.15 -0.15)">
       <use transform="scale(0.996264)" xlink:href="#CMR17-49"/>
       <use transform="translate(45.690477 0)scale(0.996264)" xlink:href="#CMR17-53"/>
       <use transform="translate(91.380954 0)scale(0.996264)" xlink:href="#CMR17-48"/>
      </g>
     </g>
    </g>
    <g id="xtick_8">
     <g id="line2d_15">
      <path clip-path="url(#pc366168586)" d="M 678.828729 720.9 
L 678.828729 56.7 
" style="fill:none;stroke:#e6e6e6;stroke-linecap:square;stroke-width:0.8;"/>
     </g>
     <g id="line2d_16">
      <g>
       <use style="stroke:#000000;stroke-width:0.8;" x="678.828729" xlink:href="#mc8ceae0bd5" y="720.9"/>
      </g>
     </g>
     <g id="text_8">
      <!-- $\mathdefault{175}$ -->
      <g transform="translate(667.854373 734.777725)scale(0.15 -0.15)">
       <use transform="scale(0.996264)" xlink:href="#CMR17-49"/>
       <use transform="translate(45.690477 0)scale(0.996264)" xlink:href="#CMR17-55"/>
       <use transform="translate(91.380954 0)scale(0.996264)" xlink:href="#CMR17-53"/>
      </g>
     </g>
    </g>
    <g id="text_9">
     <!-- $\theta(^{\circ})$ -->
     <g transform="translate(383.750923 760.340997)scale(0.25 -0.25)">
      <defs>
       <path d="M 44.296875 50 
C 44.296875 60.15625 41.09375 70 32.90625 70 
C 18.90625 70 4 40.859375 4 19 
C 4 14.421875 5 -1 15.5 -1 
C 29.09375 -1 44.296875 27.4375 44.296875 50 
z
M 14 36 
C 15.5 41.859375 17.59375 50.21875 21.59375 57.265625 
C 24.90625 63.234375 28.40625 68 32.796875 68 
C 36.09375 68 38.296875 65.21875 38.296875 55.6875 
C 38.296875 52.09375 38 47.140625 35.09375 36 
z
M 34.40625 33.015625 
C 31.90625 23.28125 29.796875 17 26.203125 10.734375 
C 23.296875 5.671875 19.796875 1 15.59375 1 
C 12.5 1 10 3.390625 10 13.21875 
C 10 19.6875 11.59375 26.453125 13.203125 33.015625 
z
" id="CMMI12-18"/>
       <path d="M 30.59375 -24.390625 
C 30.59375 -24.296875 30.59375 -24.09375 30.296875 -23.796875 
C 25.703125 -19.125 13.40625 -6.359375 13.40625 24.703125 
C 13.40625 55.765625 25.5 68.421875 30.40625 73.390625 
C 30.40625 73.5 30.59375 73.703125 30.59375 74 
C 30.59375 74.296875 30.296875 74.5 29.90625 74.5 
C 28.796875 74.5 20.296875 67.125 15.40625 56.15625 
C 10.40625 45.109375 9 34.359375 9 24.8125 
C 9 17.625 9.703125 5.484375 15.703125 -7.359375 
C 20.5 -17.734375 28.703125 -25 29.90625 -25 
C 30.40625 -25 30.59375 -24.796875 30.59375 -24.390625 
z
" id="CMR17-40"/>
       <path d="M 44.40625 25 
C 44.40625 35.578125 35.5 44.1875 25 44.1875 
C 14.203125 44.1875 5.5 35.375 5.5 25 
C 5.5 14.53125 14.203125 5.8125 25 5.8125 
C 35.5 5.8125 44.40625 14.421875 44.40625 25 
z
M 25 9.8125 
C 16.296875 9.8125 9.5 16.71875 9.5 25 
C 9.5 33.28125 16.40625 40.1875 25 40.1875 
C 33.296875 40.1875 40.40625 33.46875 40.40625 25 
C 40.40625 16.53125 33.296875 9.8125 25 9.8125 
z
" id="CMSY10-14"/>
       <path d="M 26.296875 24.703125 
C 26.296875 31.875 25.59375 44.015625 19.59375 56.859375 
C 14.796875 67.234375 6.59375 74.5 5.40625 74.5 
C 5.09375 74.5 4.703125 74.390625 4.703125 73.890625 
C 4.703125 73.703125 4.796875 73.59375 4.90625 73.390625 
C 9.703125 68.40625 21.90625 55.75 21.90625 24.75 
C 21.90625 -6.359375 9.796875 -19.015625 4.90625 -24.015625 
C 4.796875 -24.203125 4.703125 -24.3125 4.703125 -24.5 
C 4.703125 -25 5.09375 -25 5.40625 -25 
C 6.5 -25 15 -17.625 19.90625 -6.65625 
C 24.90625 4.390625 26.296875 15.140625 26.296875 24.703125 
z
" id="CMR17-41"/>
      </defs>
      <use transform="scale(0.996264)" xlink:href="#CMMI12-18"/>
      <use transform="translate(48.169508 0)scale(0.996264)" xlink:href="#CMR17-40"/>
      <use transform="translate(83.450276 36.153639)scale(0.697382)" xlink:href="#CMSY10-14"/>
      <use transform="translate(118.817618 0)scale(0.996264)" xlink:href="#CMR17-41"/>
     </g>
    </g>
   </g>
   <g id="matplotlib.axis_2">
    <g id="ytick_1">
     <g id="line2d_17">
      <path clip-path="url(#pc366168586)" d="M 108 666.534183 
L 698.4 666.534183 
" style="fill:none;stroke:#e6e6e6;stroke-linecap:square;stroke-width:0.8;"/>
     </g>
     <g id="line2d_18">
      <defs>
       <path d="M 0 0 
L 3.5 0 
" id="m471738c847" style="stroke:#000000;stroke-width:0.8;"/>
      </defs>
      <g>
       <use style="stroke:#000000;stroke-width:0.8;" x="108" xlink:href="#m471738c847" y="666.534183"/>
      </g>
     </g>
     <g id="text_10">
      <!-- $\mathdefault{0}$ -->
      <g transform="translate(97.183762 671.723045)scale(0.15 -0.15)">
       <use transform="scale(0.996264)" xlink:href="#CMR17-48"/>
      </g>
     </g>
    </g>
    <g id="ytick_2">
     <g id="line2d_19">
      <path clip-path="url(#pc366168586)" d="M 108 519.375666 
L 698.4 519.375666 
" style="fill:none;stroke:#e6e6e6;stroke-linecap:square;stroke-width:0.8;"/>
     </g>
     <g id="line2d_20">
      <g>
       <use style="stroke:#000000;stroke-width:0.8;" x="108" xlink:href="#m471738c847" y="519.375666"/>
      </g>
     </g>
     <g id="text_11">
      <!-- $\mathdefault{2}$ -->
      <g transform="translate(97.183762 524.564528)scale(0.15 -0.15)">
       <use transform="scale(0.996264)" xlink:href="#CMR17-50"/>
      </g>
     </g>
    </g>
    <g id="ytick_3">
     <g id="line2d_21">
      <path clip-path="url(#pc366168586)" d="M 108 372.217149 
L 698.4 372.217149 
" style="fill:none;stroke:#e6e6e6;stroke-linecap:square;stroke-width:0.8;"/>
     </g>
     <g id="line2d_22">
      <g>
       <use style="stroke:#000000;stroke-width:0.8;" x="108" xlink:href="#m471738c847" y="372.217149"/>
      </g>
     </g>
     <g id="text_12">
      <!-- $\mathdefault{4}$ -->
      <g transform="translate(97.183762 377.406011)scale(0.15 -0.15)">
       <defs>
        <path d="M 33.59375 64.40625 
C 33.59375 66.5 33.5 66.5 31.703125 66.5 
L 2 19.59375 
L 2 17 
L 27.796875 17 
L 27.796875 7.140625 
C 27.796875 3.5 27.59375 2.5 20.59375 2.5 
L 18.703125 2.5 
L 18.703125 0 
C 21.90625 0 27.296875 0 30.703125 0 
C 34.09375 0 39.5 0 42.703125 0 
L 42.703125 2.5 
L 40.796875 2.5 
C 33.796875 2.5 33.59375 3.5 33.59375 7.140625 
L 33.59375 17 
L 43.796875 17 
L 43.796875 19.59375 
L 33.59375 19.59375 
z
M 28.09375 57.859375 
L 28.09375 19.59375 
L 4 19.59375 
z
" id="CMR17-52"/>
       </defs>
       <use transform="scale(0.996264)" xlink:href="#CMR17-52"/>
      </g>
     </g>
    </g>
    <g id="ytick_4">
     <g id="line2d_23">
      <path clip-path="url(#pc366168586)" d="M 108 225.058632 
L 698.4 225.058632 
" style="fill:none;stroke:#e6e6e6;stroke-linecap:square;stroke-width:0.8;"/>
     </g>
     <g id="line2d_24">
      <g>
       <use style="stroke:#000000;stroke-width:0.8;" x="108" xlink:href="#m471738c847" y="225.058632"/>
      </g>
     </g>
     <g id="text_13">
      <!-- $\mathdefault{6}$ -->
      <g transform="translate(97.183762 230.247494)scale(0.15 -0.15)">
       <defs>
        <path d="M 10.59375 34 
C 10.59375 57.65625 21.796875 63 28.296875 63 
C 30.40625 63 35.5 62.640625 37.5 59 
C 35.90625 59 32.90625 59 32.90625 55.515625 
C 32.90625 52.828125 35.09375 51.921875 36.5 51.921875 
C 37.40625 51.921875 40.09375 52.3125 40.09375 55.625 
C 40.09375 61.78125 35.09375 65.296875 28.203125 65.296875 
C 16.296875 65.296875 3.796875 52.96875 3.796875 31 
C 3.796875 3.953125 15.09375 -2 23.09375 -2 
C 32.796875 -2 42 6.671875 42 20.046875 
C 42 32.515625 33.90625 41.59375 23.703125 41.59375 
C 17.59375 41.59375 13.09375 37.609375 10.59375 30.625 
z
M 23.09375 0.390625 
C 10.796875 0.390625 10.796875 18.75 10.796875 22.4375 
C 10.796875 29.625 14.203125 40 23.5 40 
C 25.203125 40 30.09375 40 33.40625 33.125 
C 35.203125 29.21875 35.203125 25.140625 35.203125 20.140625 
C 35.203125 14.75 35.203125 10.78125 33.09375 6.78125 
C 30.90625 2.671875 27.703125 0.390625 23.09375 0.390625 
z
" id="CMR17-54"/>
       </defs>
       <use transform="scale(0.996264)" xlink:href="#CMR17-54"/>
      </g>
     </g>
    </g>
    <g id="ytick_5">
     <g id="line2d_25">
      <path clip-path="url(#pc366168586)" d="M 108 77.900115 
L 698.4 77.900115 
" style="fill:none;stroke:#e6e6e6;stroke-linecap:square;stroke-width:0.8;"/>
     </g>
     <g id="line2d_26">
      <g>
       <use style="stroke:#000000;stroke-width:0.8;" x="108" xlink:href="#m471738c847" y="77.900115"/>
      </g>
     </g>
     <g id="text_14">
      <!-- $\mathdefault{8}$ -->
      <g transform="translate(97.183762 83.088978)scale(0.15 -0.15)">
       <defs>
        <path d="M 27.203125 35.375 
C 33.5 38.546875 39.90625 43.328125 39.90625 50.984375 
C 39.90625 60.015625 31.09375 65.296875 23 65.296875 
C 13.90625 65.296875 5.90625 58.734375 5.90625 49.6875 
C 5.90625 47.203125 6.5 42.921875 10.40625 39.140625 
C 11.40625 38.15625 15.59375 35.171875 18.296875 33.28125 
C 13.796875 30.984375 3.296875 25.53125 3.296875 14.59375 
C 3.296875 4.359375 13.09375 -2 22.796875 -2 
C 33.5 -2 42.5 5.65625 42.5 15.78125 
C 42.5 24.84375 36.40625 29.015625 32.40625 31.703125 
z
M 14.09375 44.09375 
C 13.296875 44.59375 9.296875 47.671875 9.296875 52.359375 
C 9.296875 58.421875 15.59375 63 22.796875 63 
C 30.703125 63 36.5 57.4375 36.5 50.96875 
C 36.5 41.703125 26.09375 36.421875 25.59375 36.421875 
C 25.5 36.421875 25.40625 36.421875 24.59375 37.03125 
z
M 32.5 23.734375 
C 34 22.640625 38.796875 19.375 38.796875 13.296875 
C 38.796875 5.953125 31.40625 0.390625 23 0.390625 
C 13.90625 0.390625 7 6.84375 7 14.6875 
C 7 22.546875 13.09375 29.09375 20 32.1875 
z
" id="CMR17-56"/>
       </defs>
       <use transform="scale(0.996264)" xlink:href="#CMR17-56"/>
      </g>
     </g>
    </g>
    <g id="text_15">
     <!-- $|f(\theta)|$ -->
     <g transform="translate(86.957112 417.899913)rotate(-90)scale(0.25 -0.25)">
      <defs>
       <path d="M 15.90625 71.40625 
C 15.90625 73.203125 15.90625 75 13.90625 75 
C 11.90625 75 11.90625 73.203125 11.90625 71.40625 
L 11.90625 -21.40625 
C 11.90625 -23.203125 11.90625 -25 13.90625 -25 
C 15.90625 -25 15.90625 -23.203125 15.90625 -21.40625 
z
" id="CMSY10-106"/>
       <path d="M 44.59375 40.09375 
C 46.59375 40.09375 47.40625 40.09375 47.40625 42 
C 47.40625 43 46.59375 43 44.796875 43 
L 36.703125 43 
C 38.59375 53.578125 40 60.890625 40.796875 64.171875 
C 41.40625 66.640625 43.5 69 46.09375 69 
C 48.203125 69 50.296875 68.09375 51.296875 67.15625 
C 47.40625 66.75 46.203125 63.78125 46.203125 62.015625 
C 46.203125 59.953125 47.703125 58.734375 49.59375 58.734375 
C 51.59375 58.734375 54.59375 60.46875 54.59375 64.359375 
C 54.59375 68.640625 50.40625 71 46 71 
C 41.703125 71 37.5 67.71875 35.5 63.71875 
C 33.703125 60.125 32.703125 56.421875 30.40625 43 
L 23.703125 43 
C 21.796875 43 20.796875 43 20.796875 41.203125 
C 20.796875 40.09375 21.40625 40.09375 23.40625 40.09375 
L 29.796875 40.09375 
C 28 30.875 23.90625 8.46875 21.59375 -2.140625 
C 19.90625 -10.765625 18.40625 -18 13.40625 -18 
C 13.09375 -18 10.203125 -18 8.40625 -16.109375 
C 13.5 -15.703125 13.5 -11.34375 13.5 -11.25 
C 13.5 -9.265625 12 -8.078125 10.09375 -8.078125 
C 8.09375 -8.078125 5.09375 -9.765625 5.09375 -13.546875 
C 5.09375 -17.8125 9.5 -20 13.40625 -20 
C 23.59375 -20 27.796875 -1.84375 28.90625 3.109375 
C 30.703125 10.75 35.59375 37.125 36.09375 40.09375 
z
" id="CMMI12-102"/>
      </defs>
      <use transform="scale(0.996264)" xlink:href="#CMSY10-106"/>
      <use transform="translate(27.674085 0)scale(0.996264)" xlink:href="#CMMI12-102"/>
      <use transform="translate(86.39439 0)scale(0.996264)" xlink:href="#CMR17-40"/>
      <use transform="translate(121.675157 0)scale(0.996264)" xlink:href="#CMMI12-18"/>
      <use transform="translate(169.844665 0)scale(0.996264)" xlink:href="#CMR17-41"/>
      <use transform="translate(205.125433 0)scale(0.996264)" xlink:href="#CMSY10-106"/>
     </g>
    </g>
   </g>
   <g id="line2d_27">
    <path clip-path="url(#pc366168586)" d="M 108 269.854767 
L 112.892818 269.98219 
L 117.785635 270.366737 
L 122.678453 271.015196 
L 127.571271 271.938686 
L 132.464088 273.152384 
L 137.356906 274.675135 
L 142.249724 276.528962 
L 145.511602 277.960846 
L 148.773481 279.558574 
L 152.035359 281.330224 
L 155.297238 283.284052 
L 158.559116 285.428383 
L 161.820994 287.771491 
L 165.082873 290.321485 
L 168.344751 293.086177 
L 171.60663 296.072963 
L 174.868508 299.288689 
L 178.130387 302.739521 
L 181.392265 306.430817 
L 184.654144 310.366996 
L 187.916022 314.551406 
L 191.177901 318.9862 
L 196.070718 326.109299 
L 200.963536 333.793935 
L 205.856354 342.028613 
L 210.749171 350.792931 
L 215.641989 360.056892 
L 220.534807 369.780322 
L 227.058564 383.370251 
L 233.58232 397.534738 
L 243.367956 419.443664 
L 256.41547 448.660605 
L 262.939227 462.661458 
L 267.832044 472.657264 
L 272.724862 482.084937 
L 275.98674 487.997966 
L 279.248619 493.577759 
L 282.510497 498.798208 
L 285.772376 503.638219 
L 289.034254 508.082701 
L 292.296133 512.12344 
L 295.558011 515.759777 
L 298.81989 518.998996 
L 302.081768 521.856374 
L 305.343646 524.354851 
L 308.605525 526.524317 
L 311.867403 528.400579 
L 315.129282 530.024069 
L 318.39116 531.438416 
L 323.283978 533.267094 
L 329.807735 535.395478 
L 337.962431 538.02562 
L 342.855249 539.798787 
L 347.748066 541.830624 
L 352.640884 544.185886 
L 355.902762 545.957191 
L 359.164641 547.897938 
L 364.057459 551.131289 
L 368.950276 554.74283 
L 373.843094 558.706257 
L 378.735912 562.978673 
L 385.259669 569.054241 
L 395.045304 578.616395 
L 403.2 586.535322 
L 408.092818 591.055153 
L 412.985635 595.272243 
L 416.247514 597.864513 
L 419.509392 600.248248 
L 422.771271 602.398199 
L 426.033149 604.293245 
L 429.295028 605.91754 
L 432.556906 607.26152 
L 435.818785 608.322613 
L 439.080663 609.105515 
L 442.342541 609.621936 
L 445.60442 609.88981 
L 448.866298 609.932073 
L 452.128177 609.775155 
L 455.390055 609.447388 
L 460.282873 608.698038 
L 465.175691 607.720923 
L 473.330387 605.79963 
L 499.425414 599.395379 
L 523.889503 593.668853 
L 532.044199 591.517717 
L 540.198895 589.135145 
L 548.353591 586.493408 
L 556.508287 583.595892 
L 564.662983 580.473491 
L 576.079558 575.824979 
L 608.698343 562.296621 
L 618.483978 558.598809 
L 626.638674 555.757976 
L 634.79337 553.173441 
L 641.317127 551.308941 
L 647.840884 549.637077 
L 654.364641 548.166563 
L 660.888398 546.904175 
L 667.412155 545.855079 
L 673.935912 545.023114 
L 680.459669 544.411031 
L 686.983425 544.020691 
L 693.507182 543.853211 
L 695.138122 543.84623 
L 695.138122 543.84623 
" style="fill:none;stroke:#fdbf6f;stroke-linecap:square;stroke-width:2;"/>
   </g>
   <g id="line2d_28">
    <path clip-path="url(#pc366168586)" d="M 108 231.258924 
L 111.261878 231.091189 
L 114.523757 230.591472 
L 117.785635 229.770224 
L 121.047514 228.644791 
L 124.309392 227.239307 
L 127.571271 225.584534 
L 130.833149 223.71766 
L 135.725967 220.616094 
L 150.40442 210.875202 
L 153.666298 209.033578 
L 156.928177 207.463608 
L 160.190055 206.240497 
L 163.451934 205.440118 
L 165.082873 205.222101 
L 166.713812 205.138014 
L 168.344751 205.197071 
L 169.975691 205.408333 
L 171.60663 205.780665 
L 173.237569 206.322701 
L 174.868508 207.042805 
L 176.499448 207.949034 
L 178.130387 209.049096 
L 179.761326 210.350316 
L 181.392265 211.859588 
L 183.023204 213.583346 
L 184.654144 215.527516 
L 186.285083 217.697482 
L 187.916022 220.098043 
L 189.546961 222.733383 
L 191.177901 225.607024 
L 192.80884 228.7218 
L 196.070718 235.682415 
L 199.332597 243.622777 
L 202.594475 252.537348 
L 205.856354 262.406718 
L 209.118232 273.197001 
L 212.38011 284.859469 
L 215.641989 297.330471 
L 218.903867 310.531671 
L 223.796685 331.496895 
L 228.689503 353.529172 
L 238.475138 399.094485 
L 244.998895 429.137601 
L 249.891713 450.786523 
L 254.78453 471.321767 
L 259.677348 490.562846 
L 264.570166 508.493645 
L 269.462983 525.269175 
L 274.355801 541.184457 
L 282.510497 566.754905 
L 290.665193 591.857506 
L 293.927072 601.417748 
L 297.18895 610.064165 
L 298.81989 613.774253 
L 300.450829 616.872536 
L 302.081768 619.177822 
L 303.712707 620.510318 
L 305.343646 620.728585 
L 306.974586 619.767895 
L 308.605525 617.658421 
L 310.236464 614.511607 
L 311.867403 610.485322 
L 313.498343 605.748694 
L 315.129282 600.459387 
L 318.39116 588.747351 
L 323.283978 569.797015 
L 328.176796 550.800306 
L 331.438674 538.753636 
L 334.700552 527.554183 
L 337.962431 517.456683 
L 339.59337 512.89143 
L 341.224309 508.682042 
L 342.855249 504.851265 
L 344.486188 501.419914 
L 346.117127 498.40686 
L 347.748066 495.828993 
L 349.379006 493.701196 
L 351.009945 492.03631 
L 352.640884 490.845103 
L 354.271823 490.136247 
L 355.902762 489.916297 
L 357.533702 490.189682 
L 359.164641 490.958696 
L 360.79558 492.22351 
L 362.426519 493.982181 
L 364.057459 496.230679 
L 365.688398 498.962917 
L 367.319337 502.170801 
L 368.950276 505.844272 
L 370.581215 509.971375 
L 372.212155 514.53832 
L 373.843094 519.529565 
L 375.474033 524.92789 
L 378.735912 536.869039 
L 381.99779 550.193788 
L 385.259669 564.712734 
L 388.521547 580.216765 
L 393.414365 604.808134 
L 401.569061 646.339478 
L 403.2 653.175894 
L 404.830939 656.443212 
L 406.461878 653.291025 
L 408.092818 646.663937 
L 412.985635 623.372365 
L 417.878453 600.542589 
L 421.140331 586.312638 
L 424.40221 573.080269 
L 427.664088 560.962822 
L 430.925967 550.04631 
L 434.187845 540.391344 
L 435.818785 536.049709 
L 437.449724 532.036194 
L 439.080663 528.352461 
L 440.711602 524.999045 
L 442.342541 521.975419 
L 443.973481 519.280057 
L 445.60442 516.910504 
L 447.235359 514.863441 
L 448.866298 513.134752 
L 450.497238 511.719593 
L 452.128177 510.612461 
L 453.759116 509.807258 
L 455.390055 509.297356 
L 457.020994 509.075665 
L 458.651934 509.134689 
L 460.282873 509.466589 
L 461.913812 510.063236 
L 463.544751 510.916265 
L 465.175691 512.017121 
L 466.80663 513.357106 
L 468.437569 514.927415 
L 470.068508 516.719175 
L 471.699448 518.723475 
L 473.330387 520.931387 
L 476.592265 525.922385 
L 479.854144 531.621108 
L 483.116022 537.956999 
L 486.377901 544.859845 
L 489.639779 552.259207 
L 494.532597 564.131494 
L 499.425414 576.700781 
L 512.472928 610.999209 
L 515.734807 618.820674 
L 517.365746 622.401023 
L 518.996685 625.667627 
L 520.627624 628.53142 
L 522.258564 630.890003 
L 523.889503 632.635892 
L 525.520442 633.673003 
L 527.151381 633.93893 
L 528.78232 633.423763 
L 530.41326 632.174183 
L 532.044199 630.279937 
L 533.675138 627.851261 
L 535.306077 624.998711 
L 538.567956 618.401084 
L 541.829834 611.086495 
L 558.139227 573.252791 
L 563.032044 562.933423 
L 566.293923 556.489987 
L 569.555801 550.425708 
L 572.81768 544.757932 
L 576.079558 539.497824 
L 579.341436 534.651273 
L 582.603315 530.219586 
L 585.865193 526.200045 
L 589.127072 522.586384 
L 592.38895 519.369213 
L 595.650829 516.53641 
L 598.912707 514.073479 
L 602.174586 511.963897 
L 605.436464 510.189436 
L 608.698343 508.730468 
L 611.960221 507.566261 
L 615.222099 506.675247 
L 618.483978 506.035282 
L 621.745856 505.623878 
L 625.007735 505.418426 
L 628.269613 505.396391 
L 633.162431 505.658629 
L 638.055249 506.210276 
L 642.948066 506.981235 
L 649.471823 508.236819 
L 670.674033 512.588774 
L 677.19779 513.619777 
L 683.721547 514.374239 
L 688.614365 514.731153 
L 693.507182 514.895696 
L 695.138122 514.906716 
L 695.138122 514.906716 
" style="fill:none;stroke:#bfe5a0;stroke-linecap:square;stroke-width:2;"/>
   </g>
   <g id="line2d_29">
    <path clip-path="url(#pc366168586)" d="M 108 208.134316 
L 109.630939 208.024198 
L 111.261878 207.694395 
L 112.892818 207.14655 
L 114.523757 206.383405 
L 116.154696 205.408796 
L 117.785635 204.227656 
L 119.416575 202.846009 
L 121.047514 201.270973 
L 122.678453 199.510756 
L 125.940331 195.473025 
L 129.20221 190.820076 
L 132.464088 185.65619 
L 135.725967 180.10228 
L 142.249724 168.387489 
L 147.142541 159.704198 
L 150.40442 154.299778 
L 153.666298 149.429056 
L 155.297238 147.257001 
L 156.928177 145.294926 
L 158.559116 143.568974 
L 160.190055 142.105421 
L 161.820994 140.930568 
L 163.451934 140.070629 
L 165.082873 139.551613 
L 166.713812 139.399198 
L 168.344751 139.638604 
L 169.975691 140.294456 
L 171.60663 141.390644 
L 173.237569 142.950179 
L 174.868508 144.995044 
L 176.499448 147.546045 
L 178.130387 150.622656 
L 179.761326 154.242864 
L 181.392265 158.423013 
L 183.023204 163.177648 
L 184.654144 168.519363 
L 186.285083 174.458645 
L 187.916022 181.003727 
L 189.546961 188.160443 
L 191.177901 195.932091 
L 192.80884 204.319295 
L 196.070718 222.928768 
L 199.332597 243.935873 
L 202.594475 267.237741 
L 205.856354 292.678881 
L 209.118232 320.048919 
L 212.38011 349.080467 
L 217.272928 395.009887 
L 230.320442 519.937765 
L 233.58232 547.587219 
L 235.21326 559.929951 
L 236.844199 570.861181 
L 238.475138 579.96763 
L 240.106077 586.787928 
L 241.737017 590.9063 
L 243.367956 592.106647 
L 244.998895 590.498581 
L 246.629834 586.499945 
L 248.260773 580.684137 
L 249.891713 573.617215 
L 253.153591 557.499032 
L 258.046409 532.377017 
L 261.308287 516.610204 
L 264.570166 502.189166 
L 267.832044 489.297567 
L 271.093923 478.000149 
L 272.724862 472.955746 
L 274.355801 468.316734 
L 275.98674 464.086597 
L 277.61768 460.27123 
L 279.248619 456.879635 
L 280.879558 453.924407 
L 282.510497 451.422011 
L 284.141436 449.392851 
L 285.772376 447.861143 
L 287.403315 446.854597 
L 289.034254 446.403924 
L 290.665193 446.542201 
L 292.296133 447.304099 
L 293.927072 448.725022 
L 295.558011 450.840162 
L 297.18895 453.683517 
L 298.81989 457.286884 
L 300.450829 461.678861 
L 302.081768 466.883868 
L 303.712707 472.921212 
L 305.343646 479.804214 
L 306.974586 487.539386 
L 308.605525 496.125689 
L 310.236464 505.553841 
L 311.867403 515.805657 
L 315.129282 538.658944 
L 318.39116 564.332034 
L 321.653039 592.242092 
L 326.545856 635.264304 
L 328.176796 646.628964 
L 329.807735 648.57181 
L 331.438674 638.903906 
L 333.069613 625.167986 
L 339.59337 566.853908 
L 342.855249 540.408174 
L 344.486188 528.380279 
L 346.117127 517.293171 
L 347.748066 507.242759 
L 349.379006 498.315682 
L 351.009945 490.589072 
L 352.640884 484.130111 
L 354.271823 478.995528 
L 355.902762 475.231103 
L 357.533702 472.871228 
L 359.164641 471.938546 
L 360.79558 472.443685 
L 362.426519 474.385107 
L 364.057459 477.749065 
L 365.688398 482.509683 
L 367.319337 488.629154 
L 368.950276 496.058055 
L 370.581215 504.73577 
L 372.212155 514.591023 
L 373.843094 525.542493 
L 375.474033 537.499506 
L 378.735912 564.024928 
L 381.99779 593.279287 
L 388.521547 654.913669 
L 390.152486 657.983065 
L 391.783425 643.884698 
L 396.676243 599.335392 
L 399.938122 572.343918 
L 401.569061 560.032539 
L 403.2 548.632516 
L 404.830939 538.222245 
L 406.461878 528.870097 
L 408.092818 520.634318 
L 409.723757 513.562886 
L 411.354696 507.693393 
L 412.985635 503.053006 
L 414.616575 499.658498 
L 416.247514 497.516375 
L 417.878453 496.623089 
L 419.509392 496.965332 
L 421.140331 498.520413 
L 422.771271 501.256709 
L 424.40221 505.134182 
L 426.033149 510.104948 
L 427.664088 516.113897 
L 429.295028 523.099348 
L 430.925967 530.993726 
L 432.556906 539.724239 
L 434.187845 549.21355 
L 437.449724 570.140024 
L 440.711602 593.082789 
L 448.866298 653.04743 
L 450.497238 658.440649 
L 452.128177 650.461306 
L 460.282873 595.023519 
L 463.544751 575.624949 
L 465.175691 566.825547 
L 466.80663 558.682492 
L 468.437569 551.230467 
L 470.068508 544.498636 
L 471.699448 538.51092 
L 473.330387 533.286212 
L 474.961326 528.838555 
L 476.592265 525.177322 
L 478.223204 522.307395 
L 479.854144 520.229339 
L 481.485083 518.939597 
L 483.116022 518.430679 
L 484.746961 518.691362 
L 486.377901 519.706889 
L 488.00884 521.459177 
L 489.639779 523.92702 
L 491.270718 527.086296 
L 492.901657 530.91017 
L 494.532597 535.369293 
L 496.163536 540.431997 
L 497.794475 546.064478 
L 499.425414 552.230965 
L 502.687293 566.013886 
L 505.949171 581.45973 
L 509.21105 598.218524 
L 514.103867 624.91733 
L 517.365746 642.747857 
L 518.996685 650.795495 
L 520.627624 655.97507 
L 522.258564 653.994752 
L 523.889503 646.987661 
L 527.151381 629.878089 
L 532.044199 604.027776 
L 535.306077 587.833772 
L 538.567956 572.842388 
L 541.829834 559.263765 
L 545.091713 547.257722 
L 546.722652 541.883068 
L 548.353591 536.943211 
L 549.98453 532.447254 
L 551.61547 528.402134 
L 553.246409 524.81269 
L 554.877348 521.681729 
L 556.508287 519.010101 
L 558.139227 516.796775 
L 559.770166 515.038918 
L 561.401105 513.731988 
L 563.032044 512.869818 
L 564.662983 512.444715 
L 566.293923 512.44756 
L 567.924862 512.867906 
L 569.555801 513.694084 
L 571.18674 514.913308 
L 572.81768 516.511783 
L 574.448619 518.474807 
L 576.079558 520.786881 
L 577.710497 523.431812 
L 579.341436 526.392819 
L 580.972376 529.652628 
L 584.234254 536.997708 
L 587.496133 545.322736 
L 590.758011 554.481462 
L 594.01989 564.328242 
L 598.912707 580.077198 
L 605.436464 602.191445 
L 615.222099 635.691965 
L 618.483978 646.365861 
L 620.114917 651.424712 
L 621.745856 656.053934 
L 623.376796 659.529632 
L 625.007735 659.948191 
L 626.638674 657.051489 
L 628.269613 652.908703 
L 636.424309 630.666467 
L 639.686188 622.339646 
L 642.948066 614.493024 
L 646.209945 607.153384 
L 649.471823 600.333521 
L 652.733702 594.037892 
L 655.99558 588.265308 
L 659.257459 583.010557 
L 662.519337 578.265561 
L 665.781215 574.0203 
L 669.043094 570.263585 
L 672.304972 566.98372 
L 675.566851 564.169084 
L 678.828729 561.808627 
L 682.090608 559.892292 
L 685.352486 558.411377 
L 688.614365 557.358816 
L 691.876243 556.729405 
L 695.138122 556.519959 
L 695.138122 556.519959 
" style="fill:none;stroke:#5e4fa2;stroke-linecap:square;stroke-width:2;"/>
   </g>
   <g id="line2d_30">
    <path clip-path="url(#pc366168586)" d="M 108 204.882826 
L 111.261878 204.968672 
L 114.523757 205.226532 
L 117.785635 205.657361 
L 121.047514 206.262744 
L 124.309392 207.04488 
L 127.571271 208.006568 
L 130.833149 209.151175 
L 134.095028 210.482615 
L 137.356906 212.0053 
L 140.618785 213.724106 
L 143.880663 215.644314 
L 147.142541 217.771551 
L 150.40442 220.111723 
L 153.666298 222.670936 
L 156.928177 225.455413 
L 160.190055 228.471391 
L 163.451934 231.725025 
L 166.713812 235.222269 
L 169.975691 238.968755 
L 173.237569 242.969662 
L 176.499448 247.229575 
L 179.761326 251.752341 
L 183.023204 256.540918 
L 187.916022 264.22601 
L 192.80884 272.514289 
L 197.701657 281.39943 
L 202.594475 290.866348 
L 207.487293 300.889883 
L 212.38011 311.433483 
L 217.272928 322.447928 
L 223.796685 337.755095 
L 231.951381 357.609627 
L 248.260773 397.726698 
L 253.153591 409.247457 
L 258.046409 420.232696 
L 261.308287 427.169404 
L 264.570166 433.734087 
L 267.832044 439.874688 
L 271.093923 445.542229 
L 274.355801 450.692543 
L 277.61768 455.288109 
L 280.879558 459.299888 
L 284.141436 462.709005 
L 285.772376 464.184787 
L 287.403315 465.508097 
L 289.034254 466.679957 
L 290.665193 467.702182 
L 292.296133 468.577374 
L 293.927072 469.308905 
L 295.558011 469.900883 
L 297.18895 470.358119 
L 298.81989 470.686077 
L 300.450829 470.89082 
L 303.712707 470.957528 
L 306.974586 470.616288 
L 310.236464 469.930466 
L 313.498343 468.966537 
L 316.760221 467.792005 
L 321.653039 465.780631 
L 331.438674 461.621112 
L 336.331492 459.836016 
L 339.59337 458.857323 
L 342.855249 458.089241 
L 346.117127 457.561135 
L 349.379006 457.297013 
L 352.640884 457.315745 
L 355.902762 457.631316 
L 359.164641 458.253117 
L 362.426519 459.186237 
L 365.688398 460.431775 
L 368.950276 461.987156 
L 372.212155 463.846445 
L 375.474033 466.000663 
L 378.735912 468.438102 
L 381.99779 471.144635 
L 385.259669 474.104023 
L 388.521547 477.298221 
L 393.414365 482.486664 
L 398.307182 488.088307 
L 403.2 494.028315 
L 409.723757 502.341982 
L 419.509392 515.290857 
L 432.556906 532.582059 
L 439.080663 540.926682 
L 445.60442 548.932912 
L 452.128177 556.534846 
L 457.020994 561.948866 
L 461.913812 567.111594 
L 466.80663 572.027997 
L 473.330387 578.222492 
L 479.854144 584.047719 
L 486.377901 589.562114 
L 494.532597 596.115995 
L 504.318232 603.644575 
L 518.996685 614.60753 
L 548.353591 636.225608 
L 556.508287 642.001218 
L 563.032044 646.36216 
L 567.924862 649.356314 
L 571.18674 651.144688 
L 574.448619 652.695443 
L 577.710497 653.927885 
L 580.972376 654.752221 
L 582.603315 654.986398 
L 584.234254 655.093502 
L 585.865193 655.072083 
L 587.496133 654.9251 
L 590.758011 654.285634 
L 594.01989 653.261416 
L 597.281768 651.951941 
L 602.174586 649.640105 
L 608.698343 646.221207 
L 626.638674 636.648837 
L 633.162431 633.432997 
L 639.686188 630.44835 
L 646.209945 627.72899 
L 652.733702 625.301208 
L 657.626519 623.684407 
L 662.519337 622.25061 
L 667.412155 621.005885 
L 672.304972 619.955294 
L 677.19779 619.102981 
L 682.090608 618.452226 
L 686.983425 618.00549 
L 691.876243 617.764444 
L 695.138122 617.718491 
L 695.138122 617.718491 
" style="fill:none;stroke:#fdbf6f;stroke-dasharray:7.4,3.2;stroke-dashoffset:0;stroke-width:2;"/>
   </g>
   <g id="line2d_31">
    <path clip-path="url(#pc366168586)" d="M 108 204.882826 
L 111.261878 204.671678 
L 114.523757 204.041727 
L 117.785635 203.003451 
L 121.047514 201.574293 
L 124.309392 199.77864 
L 127.571271 197.64777 
L 130.833149 195.219764 
L 134.095028 192.539384 
L 138.987845 188.159432 
L 153.666298 174.441907 
L 156.928177 171.749848 
L 160.190055 169.364112 
L 163.451934 167.370719 
L 165.082873 166.548243 
L 166.713812 165.856342 
L 168.344751 165.305761 
L 169.975691 164.907133 
L 171.60663 164.670938 
L 173.237569 164.607465 
L 174.868508 164.726764 
L 176.499448 165.038603 
L 178.130387 165.552424 
L 179.761326 166.277299 
L 181.392265 167.221881 
L 183.023204 168.39436 
L 184.654144 169.802416 
L 186.285083 171.453176 
L 187.916022 173.353166 
L 189.546961 175.508266 
L 191.177901 177.923667 
L 192.80884 180.60383 
L 194.439779 183.552441 
L 196.070718 186.772374 
L 197.701657 190.265655 
L 200.963536 198.07589 
L 204.225414 206.981056 
L 207.487293 216.963487 
L 210.749171 227.989286 
L 214.01105 240.007943 
L 217.272928 252.952296 
L 220.534807 266.738891 
L 223.796685 281.268808 
L 228.689503 304.206777 
L 235.21326 336.243027 
L 248.260773 401.113077 
L 253.153591 424.39519 
L 258.046409 446.64376 
L 262.939227 467.774952 
L 267.832044 487.893847 
L 274.355801 513.661803 
L 284.141436 552.214904 
L 289.034254 572.427183 
L 293.927072 593.60406 
L 302.081768 629.591523 
L 303.712707 635.926541 
L 305.343646 641.052424 
L 306.974586 643.953356 
L 308.605525 643.611765 
L 310.236464 640.041946 
L 311.867403 634.226845 
L 313.498343 627.107647 
L 316.760221 610.974983 
L 324.914917 567.780141 
L 329.807735 542.668229 
L 333.069613 526.943909 
L 336.331492 512.341803 
L 339.59337 499.101299 
L 342.855249 487.439714 
L 344.486188 482.26235 
L 346.117127 477.55002 
L 347.748066 473.322561 
L 349.379006 469.597922 
L 351.009945 466.392081 
L 352.640884 463.718972 
L 354.271823 461.590416 
L 355.902762 460.01607 
L 357.533702 459.003379 
L 359.164641 458.557544 
L 360.79558 458.681503 
L 362.426519 459.37592 
L 364.057459 460.639186 
L 365.688398 462.467437 
L 367.319337 464.854579 
L 368.950276 467.792326 
L 370.581215 471.270246 
L 372.212155 475.275825 
L 373.843094 479.794527 
L 375.474033 484.809881 
L 377.104972 490.303555 
L 378.735912 496.255456 
L 381.99779 509.445286 
L 385.259669 524.186888 
L 388.521547 540.265414 
L 391.783425 557.445588 
L 396.676243 584.712429 
L 404.830939 631.228646 
L 406.461878 639.827964 
L 408.092818 647.277081 
L 409.723757 651.796959 
L 411.354696 650.784135 
L 412.985635 645.149112 
L 414.616575 637.602955 
L 424.40221 588.633002 
L 427.664088 573.749879 
L 430.925967 560.018498 
L 434.187845 547.552343 
L 437.449724 536.429506 
L 440.711602 526.700832 
L 442.342541 522.368861 
L 443.973481 518.394325 
L 445.60442 514.777667 
L 447.235359 511.518258 
L 448.866298 508.614482 
L 450.497238 506.063805 
L 452.128177 503.862851 
L 453.759116 502.007476 
L 455.390055 500.492836 
L 457.020994 499.313456 
L 458.651934 498.463298 
L 460.282873 497.935826 
L 461.913812 497.724065 
L 463.544751 497.820665 
L 465.175691 498.217949 
L 466.80663 498.907973 
L 468.437569 499.882571 
L 470.068508 501.133399 
L 471.699448 502.651978 
L 473.330387 504.429729 
L 474.961326 506.458008 
L 476.592265 508.728133 
L 478.223204 511.231412 
L 481.485083 516.902724 
L 484.746961 523.402896 
L 488.00884 530.66372 
L 491.270718 538.618068 
L 494.532597 547.199987 
L 497.794475 556.344679 
L 502.687293 570.977745 
L 507.58011 586.522433 
L 512.472928 602.770498 
L 518.996685 625.169064 
L 528.78232 658.97524 
L 530.41326 663.26281 
L 532.044199 661.119636 
L 535.306077 650.470456 
L 543.460773 623.219151 
L 548.353591 607.555683 
L 553.246409 592.618403 
L 558.139227 578.525215 
L 563.032044 565.37005 
L 566.293923 557.157428 
L 569.555801 549.410022 
L 572.81768 542.139605 
L 576.079558 535.353874 
L 579.341436 529.056591 
L 582.603315 523.24775 
L 585.865193 517.923783 
L 589.127072 513.077785 
L 592.38895 508.699766 
L 595.650829 504.776921 
L 598.912707 501.293911 
L 602.174586 498.233155 
L 605.436464 495.57512 
L 608.698343 493.298617 
L 611.960221 491.38109 
L 615.222099 489.798898 
L 618.483978 488.527586 
L 621.745856 487.542146 
L 625.007735 486.817263 
L 628.269613 486.327543 
L 631.531492 486.047725 
L 634.79337 485.952879 
L 639.686188 486.104184 
L 644.579006 486.537414 
L 651.102762 487.42461 
L 660.888398 489.094609 
L 672.304972 491.015764 
L 678.828729 491.894663 
L 685.352486 492.520124 
L 690.245304 492.79348 
L 695.138122 492.88585 
L 695.138122 492.88585 
" style="fill:none;stroke:#bfe5a0;stroke-dasharray:7.4,3.2;stroke-dashoffset:0;stroke-width:2;"/>
   </g>
   <g id="line2d_32">
    <path clip-path="url(#pc366168586)" d="M 108 204.882826 
L 109.630939 204.755696 
L 111.261878 204.374841 
L 112.892818 203.741868 
L 114.523757 202.859457 
L 116.154696 201.731364 
L 117.785635 200.362428 
L 119.416575 198.758573 
L 121.047514 196.926816 
L 122.678453 194.875274 
L 124.309392 192.613168 
L 127.571271 187.499696 
L 130.833149 181.682414 
L 134.095028 175.275162 
L 137.356906 168.409457 
L 143.880663 153.914587 
L 148.773481 143.064959 
L 152.035359 136.207783 
L 155.297238 129.898371 
L 158.559116 124.358767 
L 160.190055 121.948754 
L 161.820994 119.816986 
L 163.451934 117.992343 
L 165.082873 116.503628 
L 166.713812 115.379441 
L 168.344751 114.648038 
L 169.975691 114.33719 
L 171.60663 114.474038 
L 173.237569 115.084935 
L 174.868508 116.195293 
L 176.499448 117.829418 
L 178.130387 120.01035 
L 179.761326 122.759694 
L 181.392265 126.097454 
L 183.023204 130.041865 
L 184.654144 134.609228 
L 186.285083 139.813749 
L 187.916022 145.66737 
L 189.546961 152.179625 
L 191.177901 159.357481 
L 192.80884 167.205202 
L 194.439779 175.724215 
L 196.070718 184.912987 
L 199.332597 205.278225 
L 202.594475 228.225589 
L 205.856354 253.626762 
L 209.118232 281.29902 
L 212.38011 311.004818 
L 215.641989 342.452206 
L 220.534807 392.118096 
L 233.58232 528.066172 
L 236.844199 559.154081 
L 238.475138 573.400112 
L 240.106077 586.317155 
L 241.737017 597.351268 
L 243.367956 605.732387 
L 244.998895 610.581219 
L 246.629834 611.31853 
L 248.260773 608.144678 
L 249.891713 601.965008 
L 251.522652 593.841233 
L 254.78453 574.856127 
L 259.677348 545.343353 
L 262.939227 526.865775 
L 266.201105 509.880912 
L 269.462983 494.535347 
L 272.724862 480.877086 
L 275.98674 468.932791 
L 277.61768 463.617725 
L 279.248619 458.754304 
L 280.879558 454.357525 
L 282.510497 450.446618 
L 284.141436 447.045109 
L 285.772376 444.180678 
L 287.403315 441.88482 
L 289.034254 440.192327 
L 290.665193 439.140625 
L 292.296133 438.768967 
L 293.927072 439.117536 
L 295.558011 440.226462 
L 297.18895 442.134801 
L 298.81989 444.87949 
L 300.450829 448.494303 
L 302.081768 453.008842 
L 303.712707 458.447564 
L 305.343646 464.828891 
L 306.974586 472.164378 
L 308.605525 480.457997 
L 310.236464 489.705506 
L 311.867403 499.893939 
L 313.498343 511.001212 
L 315.129282 522.995844 
L 318.39116 549.473404 
L 321.653039 578.883103 
L 324.914917 610.626938 
L 329.807735 660.215052 
L 331.438674 654.190449 
L 337.962431 587.358249 
L 341.224309 556.2991 
L 344.486188 528.192115 
L 346.117127 515.526412 
L 347.748066 503.923801 
L 349.379006 493.478582 
L 351.009945 484.276571 
L 352.640884 476.394173 
L 354.271823 469.897539 
L 355.902762 464.84181 
L 357.533702 461.270471 
L 359.164641 459.214815 
L 360.79558 458.69352 
L 362.426519 459.712356 
L 364.057459 462.264009 
L 365.688398 466.328024 
L 367.319337 471.87087 
L 368.950276 478.846094 
L 370.581215 487.194572 
L 372.212155 496.844793 
L 373.843094 507.713144 
L 375.474033 519.704075 
L 377.104972 532.709954 
L 380.366851 561.268955 
L 385.259669 607.996129 
L 386.890608 623.443306 
L 388.521547 637.315995 
L 390.152486 645.647506 
L 391.783425 641.940053 
L 393.414365 629.904415 
L 401.569061 557.867959 
L 403.2 545.136913 
L 404.830939 533.359672 
L 406.461878 522.630569 
L 408.092818 513.02834 
L 409.723757 504.618053 
L 411.354696 497.452075 
L 412.985635 491.570622 
L 414.616575 487.002115 
L 416.247514 483.763498 
L 417.878453 481.860549 
L 419.509392 481.288236 
L 421.140331 482.031135 
L 422.771271 484.063891 
L 424.40221 487.351764 
L 426.033149 491.851211 
L 427.664088 497.510537 
L 429.295028 504.270585 
L 430.925967 512.065461 
L 432.556906 520.823298 
L 434.187845 530.467031 
L 437.449724 552.082695 
L 440.711602 576.222052 
L 443.973481 602.161544 
L 450.497238 656.478667 
L 452.128177 662.727107 
L 457.020994 623.41299 
L 460.282873 598.908698 
L 463.544751 576.453966 
L 466.80663 556.478154 
L 468.437569 547.531344 
L 470.068508 539.327684 
L 471.699448 531.897528 
L 473.330387 525.266123 
L 474.961326 519.453687 
L 476.592265 514.475521 
L 478.223204 510.342127 
L 479.854144 507.059361 
L 481.485083 504.628586 
L 483.116022 503.046851 
L 484.746961 502.307075 
L 486.377901 502.398243 
L 488.00884 503.305608 
L 489.639779 505.010899 
L 491.270718 507.492536 
L 492.901657 510.725844 
L 494.532597 514.683279 
L 496.163536 519.334639 
L 497.794475 524.647294 
L 499.425414 530.5864 
L 501.056354 537.115124 
L 502.687293 544.194852 
L 505.949171 559.845253 
L 509.21105 577.200935 
L 512.472928 595.908709 
L 517.365746 625.692118 
L 522.258564 655.932975 
L 523.889503 662.077507 
L 525.520442 654.667247 
L 533.675138 605.883074 
L 536.937017 587.741044 
L 540.198895 570.860643 
L 543.460773 555.442719 
L 546.722652 541.649124 
L 548.353591 535.401885 
L 549.98453 529.60471 
L 551.61547 524.26759 
L 553.246409 519.398335 
L 554.877348 515.002624 
L 556.508287 511.084062 
L 558.139227 507.644242 
L 559.770166 504.682816 
L 561.401105 502.197569 
L 563.032044 500.184512 
L 564.662983 498.63796 
L 566.293923 497.550635 
L 567.924862 496.913759 
L 569.555801 496.717156 
L 571.18674 496.949359 
L 572.81768 497.59771 
L 574.448619 498.64847 
L 576.079558 500.086925 
L 577.710497 501.897489 
L 579.341436 504.063812 
L 580.972376 506.568876 
L 582.603315 509.395104 
L 584.234254 512.524446 
L 585.865193 515.938478 
L 589.127072 523.545548 
L 592.38895 532.06457 
L 595.650829 541.342742 
L 598.912707 551.228017 
L 603.805525 566.8664 
L 618.483978 614.8721 
L 621.745856 624.612086 
L 625.007735 633.340138 
L 626.638674 637.10975 
L 628.269613 640.304634 
L 629.900552 642.74628 
L 631.531492 644.248877 
L 633.162431 644.68645 
L 634.79337 644.066368 
L 636.424309 642.537668 
L 638.055249 640.321678 
L 639.686188 637.633889 
L 642.948066 631.483009 
L 651.102762 615.304123 
L 654.364641 609.239334 
L 657.626519 603.572211 
L 660.888398 598.347615 
L 664.150276 593.590029 
L 667.412155 589.311896 
L 670.674033 585.518301 
L 673.935912 582.209818 
L 677.19779 579.384349 
L 680.459669 577.038384 
L 683.721547 575.167897 
L 686.983425 573.768995 
L 688.614365 573.245326 
L 690.245304 572.838384 
L 691.876243 572.547905 
L 693.507182 572.373696 
L 695.138122 572.315639 
L 695.138122 572.315639 
" style="fill:none;stroke:#5e4fa2;stroke-dasharray:7.4,3.2;stroke-dashoffset:0;stroke-width:2;"/>
   </g>
   <g id="patch_3">
    <path d="M 108 720.9 
L 108 56.7 
" style="fill:none;stroke:#000000;stroke-linecap:square;stroke-linejoin:miter;stroke-width:0.8;"/>
   </g>
   <g id="patch_4">
    <path d="M 698.4 720.9 
L 698.4 56.7 
" style="fill:none;stroke:#000000;stroke-linecap:square;stroke-linejoin:miter;stroke-width:0.8;"/>
   </g>
   <g id="patch_5">
    <path d="M 108 720.9 
L 698.4 720.9 
" style="fill:none;stroke:#000000;stroke-linecap:square;stroke-linejoin:miter;stroke-width:0.8;"/>
   </g>
   <g id="patch_6">
    <path d="M 108 56.7 
L 698.4 56.7 
" style="fill:none;stroke:#000000;stroke-linecap:square;stroke-linejoin:miter;stroke-width:0.8;"/>
   </g>
   <g id="text_16">
    <!-- Scattering amplitudes for $ka=2.0$ -->
    <g transform="translate(266.614653 50.7)scale(0.2 -0.2)">
     <defs>
      <path d="M 43.703125 65.140625 
C 39.296875 67.71875 34.5 70 26.40625 70 
C 13.5 70 5.203125 60.609375 5.203125 51.03125 
C 5.203125 47.265625 6.296875 43.015625 10.203125 38.671875 
C 14.09375 34.3125 18.5 33.140625 24.09375 31.765625 
C 26.40625 31.15625 30.296875 30.0625 31 29.78125 
C 36.59375 27.609375 39.296875 22.5625 39.296875 17.8125 
C 39.296875 11.59375 34.40625 4.96875 25.703125 4.96875 
C 22.703125 4.96875 13.90625 4.96875 5.59375 12.796875 
L 4.203125 4.96875 
C 12.40625 -1 21.296875 -2 25.796875 -2 
C 38.09375 -2 46.90625 7.625 46.90625 18.53125 
C 46.90625 22.5 45.703125 27.546875 41.5 32.203125 
C 37.40625 36.671875 33.796875 37.65625 25.59375 39.828125 
C 20.90625 41.03125 17.90625 41.828125 15.40625 44.890625 
C 13.703125 47.078125 12.796875 49.15625 12.796875 51.828125 
C 12.796875 57.390625 17.59375 63.4375 26.40625 63.4375 
C 30.796875 63.4375 36.5 62.53125 42.296875 57.1875 
z
" id="CMSS17-83"/>
      <path d="M 38.5 39.703125 
C 38.5 40.390625 33.90625 42.40625 32.703125 42.796875 
C 29.40625 44 25.203125 44 24.09375 44 
C 11.09375 44 3.296875 32.703125 3.296875 21.296875 
C 3.296875 9.296875 12 -1 23.703125 -1 
C 30.40625 -1 35.203125 1.1875 39.09375 3.78125 
L 38.5 10.375 
C 34.203125 7.078125 29.203125 5.265625 23.796875 5.265625 
C 16 5.265625 10.90625 12.09375 10.90625 21.390625 
C 10.90625 28.609375 14.203125 37.71875 24.203125 37.71875 
C 29.703125 37.71875 32.796875 36.609375 37.40625 33.515625 
z
" id="CMSS17-99"/>
      <path d="M 37.59375 27.984375 
C 37.59375 37.375 30.90625 43.875 21.90625 43.875 
C 17.5 43.875 12.703125 43.078125 7.203125 39.890625 
L 7.796875 33.359375 
C 10.296875 35.125 14.59375 38 21.796875 38 
C 26.90625 38 30 34.0625 30 27.84375 
L 30 24 
C 14 24 4 19.34375 4 11.34375 
C 4 7.203125 6.5 -1 14.796875 -1 
C 16.296875 -1 24.40625 -1 30.203125 3.390625 
L 30.203125 -0.296875 
L 37.59375 -0.296875 
z
M 30 12.75 
C 30 10.953125 30 8.5625 27 6.78125 
C 24.40625 5.078125 21.09375 5.078125 19.703125 5.078125 
C 14.703125 5.078125 11.296875 7.984375 11.296875 11.625 
C 11.296875 18.921875 26.90625 18.921875 30 18.921875 
z
" id="CMSS17-97"/>
      <path d="M 16.703125 37 
L 29.703125 37 
L 29.703125 42.765625 
L 16.703125 42.765625 
L 16.703125 55 
L 9.59375 55 
L 9.59375 42.765625 
L 1.703125 42.765625 
L 1.703125 37 
L 9.40625 37 
L 9.40625 11.703125 
C 9.40625 6 10.703125 -1 17.296875 -1 
C 22.296875 -1 26.90625 0.390625 31.296875 2.6875 
L 29.703125 8.5625 
C 27.296875 6.46875 24.40625 5.265625 21.296875 5.265625 
C 16.90625 5.265625 16.703125 10.875 16.703125 13.375 
z
" id="CMSS17-116"/>
      <path d="M 39.09375 21.515625 
C 39.09375 24.84375 38.90625 31.296875 35.703125 36.640625 
C 32.203125 42.390625 26.5 44 22.203125 44 
C 11.796875 44 3 34.1875 3 21.484375 
C 3 9.09375 12.09375 -1 23.59375 -1 
C 28.09375 -1 33.59375 0.296875 38.59375 3.875 
C 38.59375 4.28125 38.40625 6.46875 38.296875 6.5625 
C 38.296875 6.765625 38 9.84375 38 10.25 
C 33.203125 6.359375 27.703125 5.078125 23.703125 5.078125 
C 17.296875 5.078125 10.40625 10.421875 10.09375 21.515625 
z
M 10.90625 27 
C 12.203125 32.5625 16.59375 37.828125 22.203125 37.828125 
C 23.703125 37.828125 30.703125 37.828125 32.5 27 
z
" id="CMSS17-101"/>
      <path d="M 14.90625 21.296875 
C 14.90625 30.703125 21.796875 37 30.59375 37 
L 30.59375 43.578125 
C 24.203125 43.578125 18.203125 40.390625 14.59375 35.203125 
L 14.59375 43.09375 
L 7.5 43.09375 
L 7.5 0 
L 14.90625 0 
z
" id="CMSS17-114"/>
      <path d="M 15.296875 65.359375 
L 6.90625 65.359375 
L 6.90625 57 
L 15.296875 57 
z
M 14.796875 42.796875 
L 7.40625 42.796875 
L 7.40625 0 
L 14.796875 0 
z
" id="CMSS17-105"/>
      <path d="M 40.90625 29.328125 
C 40.90625 35.671875 39.40625 44 28.09375 44 
C 21.703125 44 17.5 40.71875 14.703125 37.328125 
L 14.703125 43.09375 
L 7.40625 43.09375 
L 7.40625 0 
L 15 0 
L 15 24.359375 
C 15 30.6875 17.40625 37.9375 24.203125 37.9375 
C 33 37.9375 33.296875 32 33.296875 28.578125 
L 33.296875 0 
L 40.90625 0 
z
" id="CMSS17-110"/>
      <path d="M 44.5 43.875 
C 38.796875 43.875 33.90625 42.78125 29.90625 40.890625 
C 26.59375 43.390625 23.203125 43.875 20.90625 43.875 
C 12.203125 43.875 5.59375 36.703125 5.59375 28.34375 
C 5.59375 22.9375 8.59375 18.859375 8.796875 18.671875 
C 7 16.171875 6 13.484375 6 10.5 
C 6 7 7.40625 4.515625 8.5 3.125 
C 3.296875 -0.046875 2.59375 -4.90625 2.59375 -6.796875 
C 2.59375 -14.03125 11.703125 -20 23.40625 -20 
C 35.203125 -20 44.296875 -14.03125 44.296875 -6.6875 
C 44.296875 7 29 7 24.796875 7 
L 16.703125 7 
C 15.203125 7 11.203125 7 11.203125 12.359375 
C 11.203125 14.390625 12.09375 15.6875 12.203125 15.78125 
C 13.703125 14.6875 16.796875 13 20.90625 13 
C 29.203125 13 36.09375 19.96875 36.09375 28.546875 
C 36.09375 33.3125 33.90625 36.796875 33 38 
L 33.296875 38 
C 33.59375 38 37.796875 38 39.296875 38 
C 42.5 38 42.796875 37.953125 45.59375 37.796875 
z
M 20.90625 18.46875 
C 17.5 18.46875 12.703125 20.546875 12.703125 28.484375 
C 12.703125 37.109375 18.203125 38.5 20.796875 38.5 
C 24.203125 38.5 29 36.421875 29 28.484375 
C 29 19.859375 23.5 18.46875 20.90625 18.46875 
z
M 24.703125 -0.15625 
C 27.09375 -0.15625 37.203125 -0.15625 37.203125 -6.90625 
C 37.203125 -11.15625 31 -14.515625 23.5 -14.515625 
C 15.90625 -14.515625 9.703125 -11.25 9.703125 -6.796875 
C 9.703125 -6.296875 9.703125 -0.15625 16.59375 -0.15625 
z
" id="CMSS17-103"/>
      <path d="M 67 29.328125 
C 67 36.0625 65.296875 44 54.09375 44 
C 46.59375 44 42.09375 39.3125 40.09375 36.421875 
C 38.296875 41.71875 34.09375 44 28.09375 44 
C 21.296875 44 17 40.125 14.703125 37.328125 
L 14.703125 43.09375 
L 7.40625 43.09375 
L 7.40625 0 
L 15 0 
L 15 24.359375 
C 15 30.296875 17.203125 37.9375 24.296875 37.9375 
C 33.40625 37.9375 33.40625 31.5 33.40625 28.578125 
L 33.40625 0 
L 41 0 
L 41 24.359375 
C 41 30.296875 43.203125 37.9375 50.296875 37.9375 
C 59.40625 37.9375 59.40625 31.5 59.40625 28.578125 
L 59.40625 0 
L 67 0 
z
" id="CMSS17-109"/>
      <path d="M 15.09375 5.203125 
C 18.40625 2.015625 22.90625 -0.078125 27.703125 -0.078125 
C 37 -0.078125 45 9.421875 45 22.0625 
C 45 33.734375 39 44 30.40625 44 
C 25.40625 44 19.40625 42.21875 14.90625 38.625 
L 14.90625 43.203125 
L 7.5 43.203125 
L 7.5 -19 
L 15.09375 -19 
z
M 15.09375 32.8125 
C 15.90625 34 19.296875 37.734375 24.796875 37.734375 
C 31.796875 37.734375 37.40625 30.625 37.40625 22.0625 
C 37.40625 12.296875 30.59375 6 23.90625 6 
C 21.90625 6 19.796875 6.484375 17.796875 8.171875 
C 15.09375 10.53125 15.09375 12 15.09375 13.390625 
z
" id="CMSS17-112"/>
      <path d="M 14.796875 69 
L 7.40625 69 
L 7.40625 0 
L 14.796875 0 
z
" id="CMSS17-108"/>
      <path d="M 40.90625 42.796875 
L 33.296875 42.796875 
L 33.296875 15.1875 
C 33.296875 7.78125 27.90625 4.78125 22.203125 4.78125 
C 15.59375 4.78125 15 6.984375 15 11.078125 
L 15 42.796875 
L 7.40625 42.796875 
L 7.40625 10.59375 
C 7.40625 2.796875 10.09375 -1 17 -1 
C 20.40625 -1 28.09375 -0.203125 33.5 4.78125 
L 33.5 0 
L 40.90625 0 
z
" id="CMSS17-117"/>
      <path d="M 40.796875 69 
L 33.40625 69 
L 33.40625 38.09375 
C 30.296875 40.671875 25.203125 43.0625 19.59375 43.0625 
C 10.5 43.0625 3.296875 33.296875 3.296875 21.046875 
C 3.296875 8.78125 10.40625 -1 19.296875 -1 
C 26.203125 -1 30.796875 2.6875 33.203125 4.78125 
L 33.203125 -0.203125 
L 40.796875 -0.203125 
z
M 33.203125 13.0625 
C 33.203125 11.671875 33.203125 10.203125 30.09375 7.53125 
C 28.09375 5.859375 25.703125 5.078125 23.40625 5.078125 
C 18 5.078125 10.90625 9 10.90625 20.9375 
C 10.90625 33.34375 18.90625 37 24.40625 37 
C 28.09375 37 31.09375 35.21875 33.203125 32.265625 
z
" id="CMSS17-100"/>
      <path d="M 32.203125 41.046875 
C 26.296875 43.859375 21.703125 43.859375 18.703125 43.859375 
C 11.59375 43.859375 3.09375 41.375 3.09375 31.296875 
C 3.09375 21.234375 14.09375 19.03125 17.09375 18.421875 
C 21.703125 17.53125 26.796875 16.53125 26.796875 11.5625 
C 26.796875 5.265625 19.59375 5.265625 18.296875 5.265625 
C 14.296875 5.265625 8.796875 6.359375 3.796875 9.96875 
L 2.59375 3.28125 
C 8.296875 0 13.796875 -1 18.40625 -1 
C 30.703125 -1 33.796875 6.5 33.796875 12.203125 
C 33.796875 17.09375 31 20.390625 29.09375 21.890625 
C 25.796875 24.5 24.59375 24.796875 16.40625 26.5 
C 15 26.703125 10.09375 27.796875 10.09375 32.28125 
C 10.09375 38 16.40625 38 17.796875 38 
C 24.296875 38 28.296875 35.984375 31 34.5 
z
" id="CMSS17-115"/>
      <path d="M 16.796875 37 
L 26.90625 37 
L 26.90625 42.765625 
L 16.59375 42.765625 
L 16.59375 55.609375 
C 16.59375 62.71875 22 63.9375 25.09375 63.9375 
C 26.09375 63.9375 28.90625 63.9375 32.5 62.640625 
L 32.5 69.203125 
C 30.203125 69.703125 27.40625 70 25.203125 70 
C 15.90625 70 9.40625 62.390625 9.40625 52.484375 
L 9.40625 42.765625 
L 2.5 42.765625 
L 2.5 37 
L 9.40625 37 
L 9.40625 0 
L 16.796875 0 
z
" id="CMSS17-102"/>
      <path d="M 44.203125 21.1875 
C 44.203125 34 34.703125 44 23.5 44 
C 12 44 2.703125 33.703125 2.703125 21.1875 
C 2.703125 8.5 12.296875 -1 23.40625 -1 
C 34.796875 -1 44.203125 8.796875 44.203125 21.1875 
z
M 23.5 5.265625 
C 16.40625 5.265625 10.296875 11.078125 10.296875 22 
C 10.296875 33.609375 17.40625 37.921875 23.40625 37.921875 
C 29.90625 37.921875 36.59375 33.21875 36.59375 22 
C 36.59375 10.671875 30.09375 5.265625 23.5 5.265625 
z
" id="CMSS17-111"/>
      <path d="M 28.09375 66.515625 
C 28.203125 66.921875 28.40625 67.515625 28.40625 68 
C 28.40625 69 27.40625 69 27.203125 69 
C 27.09375 69 23.5 68.640625 21.703125 68.390625 
C 20 68.390625 18.5 68.09375 16.703125 68.09375 
C 14.296875 67.890625 13.59375 67.796875 13.59375 66 
C 13.59375 65 14.59375 65 15.59375 65 
C 20.703125 65 20.703125 64.109375 20.703125 63.125 
C 20.703125 62.734375 20.703125 62.53125 20.203125 60.75 
L 5.90625 3.875 
C 5.5 2.375 5.5 2.1875 5.5 1.578125 
C 5.5 -0.59375 7.203125 -1 8.203125 -1 
C 11 -1 11.59375 1.203125 12.40625 4.296875 
L 17.09375 22.953125 
C 24.296875 22.15625 28.59375 19.15625 28.59375 14.375 
C 28.59375 13.765625 28.59375 13.375 28.296875 11.875 
C 27.90625 10.375 27.90625 9.1875 27.90625 8.6875 
C 27.90625 2.890625 31.703125 -1 36.796875 -1 
C 41.40625 -1 43.796875 3.1875 44.59375 4.59375 
C 46.703125 8.28125 48 13.875 48 14.265625 
C 48 14.765625 47.59375 15.171875 47 15.171875 
C 46.09375 15.171875 46 14.765625 45.59375 13.171875 
C 44.203125 7.984375 42.09375 1 37 1 
C 35 1 33.703125 2 33.703125 5.78125 
C 33.703125 7.6875 34.09375 9.875 34.5 11.375 
C 34.90625 13.171875 34.90625 13.265625 34.90625 14.46875 
C 34.90625 20.359375 29.59375 23.65625 20.40625 24.84375 
C 24 27.046875 27.59375 30.9375 29 32.4375 
C 34.703125 38.8125 38.59375 42.015625 43.203125 42.015625 
C 45.5 42.015625 46.09375 41.40625 46.796875 40.8125 
C 43.09375 40.40625 41.703125 37.8125 41.703125 35.828125 
C 41.703125 33.421875 43.59375 32.625 45 32.625 
C 47.703125 32.625 50.09375 34.921875 50.09375 38.125 
C 50.09375 41.015625 47.796875 44 43.296875 44 
C 37.796875 44 33.296875 40.109375 26.203125 32.125 
C 25.203125 30.9375 21.5 27.140625 17.796875 25.75 
z
" id="CMMI12-107"/>
      <path d="M 30.09375 11.875 
C 29.59375 10.171875 29.59375 9.984375 28.203125 8.078125 
C 26 5.28125 21.59375 1 16.90625 1 
C 12.796875 1 10.5 4.6875 10.5 10.578125 
C 10.5 16.0625 13.59375 27.234375 15.5 31.4375 
C 18.90625 38.421875 23.59375 42.015625 27.5 42.015625 
C 34.09375 42.015625 35.40625 33.828125 35.40625 33.03125 
C 35.40625 32.9375 35.09375 31.625 35 31.4375 
z
M 36.5 37.421875 
C 35.40625 40.015625 32.703125 44 27.5 44 
C 16.203125 44 4 29.4375 4 14.671875 
C 4 4.796875 9.796875 -1 16.59375 -1 
C 22.09375 -1 26.796875 3.296875 29.59375 6.59375 
C 30.59375 0.703125 35.296875 -1 38.296875 -1 
C 41.296875 -1 43.703125 0.796875 45.5 4.390625 
C 47.09375 7.78125 48.5 13.875 48.5 14.265625 
C 48.5 14.765625 48.09375 15.171875 47.5 15.171875 
C 46.59375 15.171875 46.5 14.671875 46.09375 13.171875 
C 44.59375 7.28125 42.703125 1 38.59375 1 
C 35.703125 1 35.5 3.59375 35.5 5.59375 
C 35.5 7.890625 35.796875 8.984375 36.703125 12.875 
C 37.40625 15.375 37.90625 17.5625 38.703125 20.453125 
C 42.40625 35.421875 43.296875 39.015625 43.296875 39.609375 
C 43.296875 41.015625 42.203125 42.109375 40.703125 42.109375 
C 37.5 42.109375 36.703125 38.625 36.5 37.421875 
z
" id="CMMI12-97"/>
      <path d="M 64.296875 31.515625 
C 65.796875 31.515625 67.296875 31.515625 67.296875 33.203125 
C 67.296875 35 65.59375 35 63.90625 35 
L 8 35 
C 6.296875 35 4.59375 35 4.59375 33.203125 
C 4.59375 31.515625 6.09375 31.515625 7.59375 31.515625 
z
M 63.90625 14 
C 65.59375 14 67.296875 14 67.296875 15.796875 
C 67.296875 17.484375 65.796875 17.484375 64.296875 17.484375 
L 7.59375 17.484375 
C 6.09375 17.484375 4.59375 17.484375 4.59375 15.796875 
C 4.59375 14 6.296875 14 8 14 
z
" id="CMR17-61"/>
      <path d="M 18.40625 4.796875 
C 18.40625 7.6875 16 9.671875 13.59375 9.671875 
C 10.703125 9.671875 8.703125 7.28125 8.703125 4.890625 
C 8.703125 2 11.09375 0 13.5 0 
C 16.40625 0 18.40625 2.390625 18.40625 4.796875 
z
" id="CMMI12-58"/>
     </defs>
     <use transform="scale(0.996264)" xlink:href="#CMSS17-83"/>
     <use transform="translate(52.048516 0)scale(0.996264)" xlink:href="#CMSS17-99"/>
     <use transform="translate(93.687338 0)scale(0.996264)" xlink:href="#CMSS17-97"/>
     <use transform="translate(138.609259 0)scale(0.996264)" xlink:href="#CMSS17-116"/>
     <use transform="translate(172.440826 0)scale(0.996264)" xlink:href="#CMSS17-116"/>
     <use transform="translate(206.272392 0)scale(0.996264)" xlink:href="#CMSS17-101"/>
     <use transform="translate(247.911214 0)scale(0.996264)" xlink:href="#CMSS17-114"/>
     <use transform="translate(279.820987 0)scale(0.996264)" xlink:href="#CMSS17-105"/>
     <use transform="translate(302.00171 0)scale(0.996264)" xlink:href="#CMSS17-110"/>
     <use transform="translate(350.206653 0)scale(0.996264)" xlink:href="#CMSS17-103"/>
     <use transform="translate(428.279389 0)scale(0.996264)" xlink:href="#CMSS17-97"/>
     <use transform="translate(473.20131 0)scale(0.996264)" xlink:href="#CMSS17-109"/>
     <use transform="translate(547.430564 0)scale(0.996264)" xlink:href="#CMSS17-112"/>
     <use transform="translate(595.635507 0)scale(0.996264)" xlink:href="#CMSS17-108"/>
     <use transform="translate(617.816231 0)scale(0.996264)" xlink:href="#CMSS17-105"/>
     <use transform="translate(639.996954 0)scale(0.996264)" xlink:href="#CMSS17-116"/>
     <use transform="translate(673.82852 0)scale(0.996264)" xlink:href="#CMSS17-117"/>
     <use transform="translate(722.033463 0)scale(0.996264)" xlink:href="#CMSS17-100"/>
     <use transform="translate(770.238407 0)scale(0.996264)" xlink:href="#CMSS17-101"/>
     <use transform="translate(811.877229 0)scale(0.996264)" xlink:href="#CMSS17-115"/>
     <use transform="translate(879.019883 0)scale(0.996264)" xlink:href="#CMSS17-102"/>
     <use transform="translate(907.646542 0)scale(0.996264)" xlink:href="#CMSS17-111"/>
     <use transform="translate(951.887712 0)scale(0.996264)" xlink:href="#CMSS17-114"/>
     <use transform="translate(1015.026597 0)scale(0.996264)" xlink:href="#CMMI12-107"/>
     <use transform="translate(1069.105798 0)scale(0.996264)" xlink:href="#CMMI12-97"/>
     <use transform="translate(1147.987664 0)scale(0.996264)" xlink:href="#CMR17-61"/>
     <use transform="translate(1247.376461 0)scale(0.996264)" xlink:href="#CMR17-50"/>
     <use transform="translate(1293.066938 0)scale(0.996264)" xlink:href="#CMMI12-58"/>
     <use transform="translate(1320.164115 0)scale(0.996264)" xlink:href="#CMR17-48"/>
    </g>
   </g>
   <g id="legend_1">
    <g id="patch_7">
     <path d="M 553.753942 160.485009 
L 684.4 160.485009 
Q 688.4 160.485009 688.4 156.485009 
L 688.4 70.7 
Q 688.4 66.7 684.4 66.7 
L 553.753942 66.7 
Q 549.753942 66.7 549.753942 70.7 
L 549.753942 156.485009 
Q 549.753942 160.485009 553.753942 160.485009 
z
" style="fill:#ffffff;opacity:0.8;stroke:#cccccc;stroke-linejoin:miter;"/>
    </g>
    <g id="line2d_33">
     <path d="M 557.753942 82.896875 
L 597.753942 82.896875 
" style="fill:none;stroke:#fdbf6f;stroke-linecap:square;stroke-width:2;"/>
    </g>
    <g id="line2d_34"/>
    <g id="text_17">
     <!-- kd=4.0 -->
     <g transform="translate(613.753942 89.896875)scale(0.2 -0.2)">
      <defs>
       <path d="M 26.5 26.375 
L 42 42.796875 
L 32.40625 42.796875 
L 14.90625 24.28125 
L 14.90625 69 
L 7.5 69 
L 7.5 0 
L 14.796875 0 
L 14.796875 13.9375 
L 21.5 21 
L 35.59375 0 
L 44.09375 0 
z
" id="CMSS17-107"/>
       <path d="M 64.796875 31.515625 
C 66.296875 31.515625 67.796875 31.515625 67.796875 33.203125 
C 67.796875 35 66.09375 35 64.40625 35 
L 8.59375 35 
C 6.90625 35 5.203125 35 5.203125 33.203125 
C 5.203125 31.515625 6.703125 31.515625 8.203125 31.515625 
z
M 64.40625 14 
C 66.09375 14 67.796875 14 67.796875 15.796875 
C 67.796875 17.484375 66.296875 17.484375 64.796875 17.484375 
L 8.203125 17.484375 
C 6.703125 17.484375 5.203125 17.484375 5.203125 15.796875 
C 5.203125 14 6.90625 14 8.59375 14 
z
" id="CMSS17-61"/>
       <path d="M 35.203125 17 
L 44.296875 17 
L 44.296875 23.078125 
L 35.203125 23.078125 
L 35.203125 65.5 
L 26.40625 65.5 
L 2.59375 23.078125 
L 2.59375 17 
L 27.296875 17 
L 27.296875 0 
L 35.203125 0 
z
M 10.296875 23.078125 
C 16.09375 33.234375 27.59375 53.734375 27.59375 60.703125 
L 27.59375 23.078125 
z
" id="CMSS17-52"/>
       <path d="M 17 7.96875 
L 9 7.96875 
L 9 0 
L 17 0 
z
" id="CMSS17-46"/>
       <path d="M 43.09375 31.9375 
C 43.09375 37.578125 43 48.078125 38.90625 56.1875 
C 34.796875 64 28.203125 66.078125 23.5 66.078125 
C 16.703125 66.078125 10.90625 62.109375 7.90625 55.78125 
C 4.703125 49.15625 3.796875 42.328125 3.796875 31.9375 
C 3.796875 24.828125 4.09375 16.109375 7.703125 8.484375 
C 11.796875 0.078125 18.703125 -2 23.40625 -2 
C 29.59375 -2 35.59375 1.265625 39 8.09375 
C 42.5 15.21875 43.09375 23.03125 43.09375 31.9375 
z
M 23.40625 4.078125 
C 15.796875 4.078125 13.5 12.671875 12.796875 15.546875 
C 11.59375 20.46875 11.40625 25.21875 11.40625 33.03125 
C 11.40625 39.15625 11.40625 46.0625 13.296875 51.515625 
C 15.59375 57.828125 19.59375 60 23.40625 60 
C 30.796875 60 33.203125 52.6875 34 50.125 
C 35.5 44.890625 35.5 38.765625 35.5 33.03125 
C 35.5 23.84375 35.5 4.078125 23.40625 4.078125 
z
" id="CMSS17-48"/>
      </defs>
      <use transform="scale(0.996264)" xlink:href="#CMSS17-107"/>
      <use transform="translate(45.602489 0)scale(0.996264)" xlink:href="#CMSS17-100"/>
      <use transform="translate(93.807432 0)scale(0.996264)" xlink:href="#CMSS17-61"/>
      <use transform="translate(166.675367 0)scale(0.996264)" xlink:href="#CMSS17-52"/>
      <use transform="translate(213.518991 0)scale(0.996264)" xlink:href="#CMSS17-46"/>
      <use transform="translate(239.543196 0)scale(0.996264)" xlink:href="#CMSS17-48"/>
     </g>
    </g>
    <g id="line2d_35">
     <path d="M 557.753942 112.253125 
L 597.753942 112.253125 
" style="fill:none;stroke:#bfe5a0;stroke-linecap:square;stroke-width:2;"/>
    </g>
    <g id="line2d_36"/>
    <g id="text_18">
     <!-- kd=12.0 -->
     <g transform="translate(613.753942 119.253125)scale(0.2 -0.2)">
      <defs>
       <path d="M 28.40625 67 
L 26.5 67 
C 21.09375 61.5625 14.796875 60.78125 8.40625 60.78125 
L 8.40625 55 
C 11.296875 55 16 55 20.703125 57.296875 
L 20.703125 5.765625 
L 8.90625 5.765625 
L 8.90625 0 
L 40.203125 0 
L 40.203125 5.765625 
L 28.40625 5.765625 
z
" id="CMSS17-49"/>
       <path d="M 25.796875 21.203125 
C 28.59375 24.078125 32.796875 27.5625 35.703125 31.046875 
C 38.5 34.4375 42.203125 39.234375 42.203125 46.203125 
C 42.203125 57.140625 34.796875 67 22.203125 67 
C 12.296875 67 6.59375 60.828125 3.90625 51.15625 
L 7.796875 45.765625 
C 10 54.84375 13.09375 60.625 20.90625 60.625 
C 29.5 60.625 34.296875 53.640625 34.296875 45.96875 
C 34.296875 36.796875 27.296875 29.703125 22 24.421875 
C 16.09375 18.546875 10.296875 12.5625 4.703125 6.375 
L 4.703125 0 
L 42.203125 0 
L 42.203125 6.765625 
L 25.203125 6.765625 
C 24 6.765625 22.796875 6.765625 21.59375 6.765625 
L 11.59375 6.765625 
L 11.59375 6.859375 
z
" id="CMSS17-50"/>
      </defs>
      <use transform="scale(0.996264)" xlink:href="#CMSS17-107"/>
      <use transform="translate(45.602489 0)scale(0.996264)" xlink:href="#CMSS17-100"/>
      <use transform="translate(93.807432 0)scale(0.996264)" xlink:href="#CMSS17-61"/>
      <use transform="translate(166.675367 0)scale(0.996264)" xlink:href="#CMSS17-49"/>
      <use transform="translate(213.518991 0)scale(0.996264)" xlink:href="#CMSS17-50"/>
      <use transform="translate(260.362614 0)scale(0.996264)" xlink:href="#CMSS17-46"/>
      <use transform="translate(286.386819 0)scale(0.996264)" xlink:href="#CMSS17-48"/>
     </g>
    </g>
    <g id="line2d_37">
     <path d="M 557.753942 141.609375 
L 597.753942 141.609375 
" style="fill:none;stroke:#5e4fa2;stroke-linecap:square;stroke-width:2;"/>
    </g>
    <g id="line2d_38"/>
    <g id="text_19">
     <!-- kd=20.0 -->
     <g transform="translate(613.753942 148.609375)scale(0.2 -0.2)">
      <use transform="scale(0.996264)" xlink:href="#CMSS17-107"/>
      <use transform="translate(45.602489 0)scale(0.996264)" xlink:href="#CMSS17-100"/>
      <use transform="translate(93.807432 0)scale(0.996264)" xlink:href="#CMSS17-61"/>
      <use transform="translate(166.675367 0)scale(0.996264)" xlink:href="#CMSS17-50"/>
      <use transform="translate(213.518991 0)scale(0.996264)" xlink:href="#CMSS17-48"/>
      <use transform="translate(260.362614 0)scale(0.996264)" xlink:href="#CMSS17-46"/>
      <use transform="translate(286.386819 0)scale(0.996264)" xlink:href="#CMSS17-48"/>
     </g>
    </g>
   </g>
  </g>
 </g>
 <defs>
  <clipPath id="pc366168586">
   <rect height="664.2" width="590.4" x="108" y="56.7"/>
  </clipPath>
 </defs>
</svg>
