<?xml version="1.0" encoding="utf-8" standalone="no"?>
<!DOCTYPE svg PUBLIC "-//W3C//DTD SVG 1.1//EN"
  "http://www.w3.org/Graphics/SVG/1.1/DTD/svg11.dtd">
<!-- Created with matplotlib (https://matplotlib.org/) -->
<svg height="810pt" version="1.1" viewBox="0 0 720 810" width="720pt" xmlns="http://www.w3.org/2000/svg" xmlns:xlink="http://www.w3.org/1999/xlink">
 <metadata>
  <rdf:RDF xmlns:cc="http://creativecommons.org/ns#" xmlns:dc="http://purl.org/dc/elements/1.1/" xmlns:rdf="http://www.w3.org/1999/02/22-rdf-syntax-ns#">
   <cc:Work>
    <dc:type rdf:resource="http://purl.org/dc/dcmitype/StillImage"/>
    <dc:date>2020-11-24T15:14:06.539409</dc:date>
    <dc:format>image/svg+xml</dc:format>
    <dc:creator>
     <cc:Agent>
      <dc:title>Matplotlib v3.3.1, https://matplotlib.org/</dc:title>
     </cc:Agent>
    </dc:creator>
   </cc:Work>
  </rdf:RDF>
 </metadata>
 <defs>
  <style type="text/css">*{stroke-linecap:butt;stroke-linejoin:round;}</style>
 </defs>
 <g id="figure_1">
  <g id="patch_1">
   <path d="M 0 810 
L 720 810 
L 720 0 
L 0 0 
z
" style="fill:#ffffff;"/>
  </g>
  <g id="axes_1">
   <g id="patch_2">
    <path d="M 108 720.9 
L 698.4 720.9 
L 698.4 56.7 
L 108 56.7 
z
" style="fill:#ffffff;"/>
   </g>
   <g id="matplotlib.axis_1">
    <g id="xtick_1">
     <g id="line2d_1">
      <path clip-path="url(#pae0cdf7765)" d="M 108 720.9 
L 108 56.7 
" style="fill:none;stroke:#e6e6e6;stroke-linecap:square;stroke-width:0.8;"/>
     </g>
     <g id="line2d_2">
      <defs>
       <path d="M 0 0 
L 0 -3.5 
" id="mea3701138a" style="stroke:#000000;stroke-width:0.8;"/>
      </defs>
      <g>
       <use style="stroke:#000000;stroke-width:0.8;" x="108" xlink:href="#mea3701138a" y="720.9"/>
      </g>
     </g>
     <g id="text_1">
      <!-- $\mathdefault{0}$ -->
      <g transform="translate(104.341881 734.777725)scale(0.15 -0.15)">
       <defs>
        <path d="M 42 31.640625 
C 42 37.75 41.90625 48.125 37.703125 56.109375 
C 34 63.109375 28.09375 65.59375 22.90625 65.59375 
C 18.09375 65.59375 12 63.40625 8.203125 56.203125 
C 4.203125 48.71875 3.796875 39.4375 3.796875 31.640625 
C 3.796875 25.953125 3.90625 17.28125 7 9.671875 
C 11.296875 -0.609375 19 -2 22.90625 -2 
C 27.5 -2 34.5 -0.109375 38.59375 9.375 
C 41.59375 16.28125 42 24.359375 42 31.640625 
z
M 22.90625 -0.40625 
C 16.5 -0.40625 12.703125 5.078125 11.296875 12.6875 
C 10.203125 18.5625 10.203125 27.15625 10.203125 32.75 
C 10.203125 40.4375 10.203125 46.828125 11.5 52.921875 
C 13.40625 61.390625 19 64 22.90625 64 
C 27 64 32.296875 61.296875 34.203125 53.125 
C 35.5 47.4375 35.59375 40.734375 35.59375 32.75 
C 35.59375 26.25 35.59375 18.265625 34.40625 12.375 
C 32.296875 1.484375 26.40625 -0.40625 22.90625 -0.40625 
z
" id="CMR17-48"/>
       </defs>
       <use transform="scale(0.996264)" xlink:href="#CMR17-48"/>
      </g>
     </g>
    </g>
    <g id="xtick_2">
     <g id="line2d_3">
      <path clip-path="url(#pae0cdf7765)" d="M 173.6 720.9 
L 173.6 56.7 
" style="fill:none;stroke:#e6e6e6;stroke-linecap:square;stroke-width:0.8;"/>
     </g>
     <g id="line2d_4">
      <g>
       <use style="stroke:#000000;stroke-width:0.8;" x="173.6" xlink:href="#mea3701138a" y="720.9"/>
      </g>
     </g>
     <g id="text_2">
      <!-- $\mathdefault{20}$ -->
      <g transform="translate(166.283762 734.777725)scale(0.15 -0.15)">
       <defs>
        <path d="M 41.703125 15.453125 
L 39.90625 15.453125 
C 38.90625 8.375 38.09375 7.171875 37.703125 6.5625 
C 37.203125 5.765625 30 5.765625 28.59375 5.765625 
L 9.40625 5.765625 
C 13 9.671875 20 16.75 28.5 24.953125 
C 34.59375 30.734375 41.703125 37.53125 41.703125 47.421875 
C 41.703125 59.21875 32.296875 66 21.796875 66 
C 10.796875 66 4.09375 56.3125 4.09375 47.34375 
C 4.09375 43.4375 7 42.9375 8.203125 42.9375 
C 9.203125 42.9375 12.203125 43.546875 12.203125 47.03125 
C 12.203125 50.109375 9.59375 51 8.203125 51 
C 7.59375 51 7 50.90625 6.59375 50.703125 
C 8.5 59.21875 14.296875 63.40625 20.40625 63.40625 
C 29.09375 63.40625 34.796875 56.515625 34.796875 47.421875 
C 34.796875 38.734375 29.703125 31.25 24 24.75 
L 4.09375 2.28125 
L 4.09375 0 
L 39.296875 0 
z
" id="CMR17-50"/>
       </defs>
       <use transform="scale(0.996264)" xlink:href="#CMR17-50"/>
       <use transform="translate(45.690477 0)scale(0.996264)" xlink:href="#CMR17-48"/>
      </g>
     </g>
    </g>
    <g id="xtick_3">
     <g id="line2d_5">
      <path clip-path="url(#pae0cdf7765)" d="M 239.2 720.9 
L 239.2 56.7 
" style="fill:none;stroke:#e6e6e6;stroke-linecap:square;stroke-width:0.8;"/>
     </g>
     <g id="line2d_6">
      <g>
       <use style="stroke:#000000;stroke-width:0.8;" x="239.2" xlink:href="#mea3701138a" y="720.9"/>
      </g>
     </g>
     <g id="text_3">
      <!-- $\mathdefault{40}$ -->
      <g transform="translate(231.883762 734.777725)scale(0.15 -0.15)">
       <defs>
        <path d="M 33.59375 64.40625 
C 33.59375 66.5 33.5 66.5 31.703125 66.5 
L 2 19.59375 
L 2 17 
L 27.796875 17 
L 27.796875 7.140625 
C 27.796875 3.5 27.59375 2.5 20.59375 2.5 
L 18.703125 2.5 
L 18.703125 0 
C 21.90625 0 27.296875 0 30.703125 0 
C 34.09375 0 39.5 0 42.703125 0 
L 42.703125 2.5 
L 40.796875 2.5 
C 33.796875 2.5 33.59375 3.5 33.59375 7.140625 
L 33.59375 17 
L 43.796875 17 
L 43.796875 19.59375 
L 33.59375 19.59375 
z
M 28.09375 57.859375 
L 28.09375 19.59375 
L 4 19.59375 
z
" id="CMR17-52"/>
       </defs>
       <use transform="scale(0.996264)" xlink:href="#CMR17-52"/>
       <use transform="translate(45.690477 0)scale(0.996264)" xlink:href="#CMR17-48"/>
      </g>
     </g>
    </g>
    <g id="xtick_4">
     <g id="line2d_7">
      <path clip-path="url(#pae0cdf7765)" d="M 304.8 720.9 
L 304.8 56.7 
" style="fill:none;stroke:#e6e6e6;stroke-linecap:square;stroke-width:0.8;"/>
     </g>
     <g id="line2d_8">
      <g>
       <use style="stroke:#000000;stroke-width:0.8;" x="304.8" xlink:href="#mea3701138a" y="720.9"/>
      </g>
     </g>
     <g id="text_4">
      <!-- $\mathdefault{60}$ -->
      <g transform="translate(297.483762 734.777725)scale(0.15 -0.15)">
       <defs>
        <path d="M 10.59375 34 
C 10.59375 57.65625 21.796875 63 28.296875 63 
C 30.40625 63 35.5 62.640625 37.5 59 
C 35.90625 59 32.90625 59 32.90625 55.515625 
C 32.90625 52.828125 35.09375 51.921875 36.5 51.921875 
C 37.40625 51.921875 40.09375 52.3125 40.09375 55.625 
C 40.09375 61.78125 35.09375 65.296875 28.203125 65.296875 
C 16.296875 65.296875 3.796875 52.96875 3.796875 31 
C 3.796875 3.953125 15.09375 -2 23.09375 -2 
C 32.796875 -2 42 6.671875 42 20.046875 
C 42 32.515625 33.90625 41.59375 23.703125 41.59375 
C 17.59375 41.59375 13.09375 37.609375 10.59375 30.625 
z
M 23.09375 0.390625 
C 10.796875 0.390625 10.796875 18.75 10.796875 22.4375 
C 10.796875 29.625 14.203125 40 23.5 40 
C 25.203125 40 30.09375 40 33.40625 33.125 
C 35.203125 29.21875 35.203125 25.140625 35.203125 20.140625 
C 35.203125 14.75 35.203125 10.78125 33.09375 6.78125 
C 30.90625 2.671875 27.703125 0.390625 23.09375 0.390625 
z
" id="CMR17-54"/>
       </defs>
       <use transform="scale(0.996264)" xlink:href="#CMR17-54"/>
       <use transform="translate(45.690477 0)scale(0.996264)" xlink:href="#CMR17-48"/>
      </g>
     </g>
    </g>
    <g id="xtick_5">
     <g id="line2d_9">
      <path clip-path="url(#pae0cdf7765)" d="M 370.4 720.9 
L 370.4 56.7 
" style="fill:none;stroke:#e6e6e6;stroke-linecap:square;stroke-width:0.8;"/>
     </g>
     <g id="line2d_10">
      <g>
       <use style="stroke:#000000;stroke-width:0.8;" x="370.4" xlink:href="#mea3701138a" y="720.9"/>
      </g>
     </g>
     <g id="text_5">
      <!-- $\mathdefault{80}$ -->
      <g transform="translate(363.083762 734.777725)scale(0.15 -0.15)">
       <defs>
        <path d="M 27.203125 35.375 
C 33.5 38.546875 39.90625 43.328125 39.90625 50.984375 
C 39.90625 60.015625 31.09375 65.296875 23 65.296875 
C 13.90625 65.296875 5.90625 58.734375 5.90625 49.6875 
C 5.90625 47.203125 6.5 42.921875 10.40625 39.140625 
C 11.40625 38.15625 15.59375 35.171875 18.296875 33.28125 
C 13.796875 30.984375 3.296875 25.53125 3.296875 14.59375 
C 3.296875 4.359375 13.09375 -2 22.796875 -2 
C 33.5 -2 42.5 5.65625 42.5 15.78125 
C 42.5 24.84375 36.40625 29.015625 32.40625 31.703125 
z
M 14.09375 44.09375 
C 13.296875 44.59375 9.296875 47.671875 9.296875 52.359375 
C 9.296875 58.421875 15.59375 63 22.796875 63 
C 30.703125 63 36.5 57.4375 36.5 50.96875 
C 36.5 41.703125 26.09375 36.421875 25.59375 36.421875 
C 25.5 36.421875 25.40625 36.421875 24.59375 37.03125 
z
M 32.5 23.734375 
C 34 22.640625 38.796875 19.375 38.796875 13.296875 
C 38.796875 5.953125 31.40625 0.390625 23 0.390625 
C 13.90625 0.390625 7 6.84375 7 14.6875 
C 7 22.546875 13.09375 29.09375 20 32.1875 
z
" id="CMR17-56"/>
       </defs>
       <use transform="scale(0.996264)" xlink:href="#CMR17-56"/>
       <use transform="translate(45.690477 0)scale(0.996264)" xlink:href="#CMR17-48"/>
      </g>
     </g>
    </g>
    <g id="xtick_6">
     <g id="line2d_11">
      <path clip-path="url(#pae0cdf7765)" d="M 436 720.9 
L 436 56.7 
" style="fill:none;stroke:#e6e6e6;stroke-linecap:square;stroke-width:0.8;"/>
     </g>
     <g id="line2d_12">
      <g>
       <use style="stroke:#000000;stroke-width:0.8;" x="436" xlink:href="#mea3701138a" y="720.9"/>
      </g>
     </g>
     <g id="text_6">
      <!-- $\mathdefault{100}$ -->
      <g transform="translate(425.025643 734.777725)scale(0.15 -0.15)">
       <defs>
        <path d="M 26.59375 63.40625 
C 26.59375 65.5 26.5 65.5 25.09375 65.5 
C 21.203125 61.1875 15.296875 59.796875 9.703125 59.796875 
C 9.40625 59.796875 8.90625 59.796875 8.796875 59.5 
C 8.703125 59.296875 8.703125 59.09375 8.703125 57 
C 11.796875 57 17 57.59375 21 59.984375 
L 21 7.203125 
C 21 3.6875 20.796875 2.5 12.203125 2.5 
L 9.203125 2.5 
L 9.203125 0 
C 14 0 19 0 23.796875 0 
C 28.59375 0 33.59375 0 38.40625 0 
L 38.40625 2.5 
L 35.40625 2.5 
C 26.796875 2.5 26.59375 3.59375 26.59375 7.15625 
z
" id="CMR17-49"/>
       </defs>
       <use transform="scale(0.996264)" xlink:href="#CMR17-49"/>
       <use transform="translate(45.690477 0)scale(0.996264)" xlink:href="#CMR17-48"/>
       <use transform="translate(91.380954 0)scale(0.996264)" xlink:href="#CMR17-48"/>
      </g>
     </g>
    </g>
    <g id="xtick_7">
     <g id="line2d_13">
      <path clip-path="url(#pae0cdf7765)" d="M 501.6 720.9 
L 501.6 56.7 
" style="fill:none;stroke:#e6e6e6;stroke-linecap:square;stroke-width:0.8;"/>
     </g>
     <g id="line2d_14">
      <g>
       <use style="stroke:#000000;stroke-width:0.8;" x="501.6" xlink:href="#mea3701138a" y="720.9"/>
      </g>
     </g>
     <g id="text_7">
      <!-- $\mathdefault{120}$ -->
      <g transform="translate(490.625643 734.777725)scale(0.15 -0.15)">
       <use transform="scale(0.996264)" xlink:href="#CMR17-49"/>
       <use transform="translate(45.690477 0)scale(0.996264)" xlink:href="#CMR17-50"/>
       <use transform="translate(91.380954 0)scale(0.996264)" xlink:href="#CMR17-48"/>
      </g>
     </g>
    </g>
    <g id="xtick_8">
     <g id="line2d_15">
      <path clip-path="url(#pae0cdf7765)" d="M 567.2 720.9 
L 567.2 56.7 
" style="fill:none;stroke:#e6e6e6;stroke-linecap:square;stroke-width:0.8;"/>
     </g>
     <g id="line2d_16">
      <g>
       <use style="stroke:#000000;stroke-width:0.8;" x="567.2" xlink:href="#mea3701138a" y="720.9"/>
      </g>
     </g>
     <g id="text_8">
      <!-- $\mathdefault{140}$ -->
      <g transform="translate(556.225643 734.777725)scale(0.15 -0.15)">
       <use transform="scale(0.996264)" xlink:href="#CMR17-49"/>
       <use transform="translate(45.690477 0)scale(0.996264)" xlink:href="#CMR17-52"/>
       <use transform="translate(91.380954 0)scale(0.996264)" xlink:href="#CMR17-48"/>
      </g>
     </g>
    </g>
    <g id="xtick_9">
     <g id="line2d_17">
      <path clip-path="url(#pae0cdf7765)" d="M 632.8 720.9 
L 632.8 56.7 
" style="fill:none;stroke:#e6e6e6;stroke-linecap:square;stroke-width:0.8;"/>
     </g>
     <g id="line2d_18">
      <g>
       <use style="stroke:#000000;stroke-width:0.8;" x="632.8" xlink:href="#mea3701138a" y="720.9"/>
      </g>
     </g>
     <g id="text_9">
      <!-- $\mathdefault{160}$ -->
      <g transform="translate(621.825643 734.777725)scale(0.15 -0.15)">
       <use transform="scale(0.996264)" xlink:href="#CMR17-49"/>
       <use transform="translate(45.690477 0)scale(0.996264)" xlink:href="#CMR17-54"/>
       <use transform="translate(91.380954 0)scale(0.996264)" xlink:href="#CMR17-48"/>
      </g>
     </g>
    </g>
    <g id="xtick_10">
     <g id="line2d_19">
      <path clip-path="url(#pae0cdf7765)" d="M 698.4 720.9 
L 698.4 56.7 
" style="fill:none;stroke:#e6e6e6;stroke-linecap:square;stroke-width:0.8;"/>
     </g>
     <g id="line2d_20">
      <g>
       <use style="stroke:#000000;stroke-width:0.8;" x="698.4" xlink:href="#mea3701138a" y="720.9"/>
      </g>
     </g>
     <g id="text_10">
      <!-- $\mathdefault{180}$ -->
      <g transform="translate(687.425643 734.777725)scale(0.15 -0.15)">
       <use transform="scale(0.996264)" xlink:href="#CMR17-49"/>
       <use transform="translate(45.690477 0)scale(0.996264)" xlink:href="#CMR17-56"/>
       <use transform="translate(91.380954 0)scale(0.996264)" xlink:href="#CMR17-48"/>
      </g>
     </g>
    </g>
    <g id="text_11">
     <!-- $\theta(^{\circ})$ -->
     <g transform="translate(383.750923 760.340997)scale(0.25 -0.25)">
      <defs>
       <path d="M 44.296875 50 
C 44.296875 60.15625 41.09375 70 32.90625 70 
C 18.90625 70 4 40.859375 4 19 
C 4 14.421875 5 -1 15.5 -1 
C 29.09375 -1 44.296875 27.4375 44.296875 50 
z
M 14 36 
C 15.5 41.859375 17.59375 50.21875 21.59375 57.265625 
C 24.90625 63.234375 28.40625 68 32.796875 68 
C 36.09375 68 38.296875 65.21875 38.296875 55.6875 
C 38.296875 52.09375 38 47.140625 35.09375 36 
z
M 34.40625 33.015625 
C 31.90625 23.28125 29.796875 17 26.203125 10.734375 
C 23.296875 5.671875 19.796875 1 15.59375 1 
C 12.5 1 10 3.390625 10 13.21875 
C 10 19.6875 11.59375 26.453125 13.203125 33.015625 
z
" id="CMMI12-18"/>
       <path d="M 30.59375 -24.390625 
C 30.59375 -24.296875 30.59375 -24.09375 30.296875 -23.796875 
C 25.703125 -19.125 13.40625 -6.359375 13.40625 24.703125 
C 13.40625 55.765625 25.5 68.421875 30.40625 73.390625 
C 30.40625 73.5 30.59375 73.703125 30.59375 74 
C 30.59375 74.296875 30.296875 74.5 29.90625 74.5 
C 28.796875 74.5 20.296875 67.125 15.40625 56.15625 
C 10.40625 45.109375 9 34.359375 9 24.8125 
C 9 17.625 9.703125 5.484375 15.703125 -7.359375 
C 20.5 -17.734375 28.703125 -25 29.90625 -25 
C 30.40625 -25 30.59375 -24.796875 30.59375 -24.390625 
z
" id="CMR17-40"/>
       <path d="M 44.40625 25 
C 44.40625 35.578125 35.5 44.1875 25 44.1875 
C 14.203125 44.1875 5.5 35.375 5.5 25 
C 5.5 14.53125 14.203125 5.8125 25 5.8125 
C 35.5 5.8125 44.40625 14.421875 44.40625 25 
z
M 25 9.8125 
C 16.296875 9.8125 9.5 16.71875 9.5 25 
C 9.5 33.28125 16.40625 40.1875 25 40.1875 
C 33.296875 40.1875 40.40625 33.46875 40.40625 25 
C 40.40625 16.53125 33.296875 9.8125 25 9.8125 
z
" id="CMSY10-14"/>
       <path d="M 26.296875 24.703125 
C 26.296875 31.875 25.59375 44.015625 19.59375 56.859375 
C 14.796875 67.234375 6.59375 74.5 5.40625 74.5 
C 5.09375 74.5 4.703125 74.390625 4.703125 73.890625 
C 4.703125 73.703125 4.796875 73.59375 4.90625 73.390625 
C 9.703125 68.40625 21.90625 55.75 21.90625 24.75 
C 21.90625 -6.359375 9.796875 -19.015625 4.90625 -24.015625 
C 4.796875 -24.203125 4.703125 -24.3125 4.703125 -24.5 
C 4.703125 -25 5.09375 -25 5.40625 -25 
C 6.5 -25 15 -17.625 19.90625 -6.65625 
C 24.90625 4.390625 26.296875 15.140625 26.296875 24.703125 
z
" id="CMR17-41"/>
      </defs>
      <use transform="scale(0.996264)" xlink:href="#CMMI12-18"/>
      <use transform="translate(48.169508 0)scale(0.996264)" xlink:href="#CMR17-40"/>
      <use transform="translate(83.450276 36.153639)scale(0.697382)" xlink:href="#CMSY10-14"/>
      <use transform="translate(118.817618 0)scale(0.996264)" xlink:href="#CMR17-41"/>
     </g>
    </g>
   </g>
   <g id="matplotlib.axis_2">
    <g id="ytick_1">
     <g id="line2d_21">
      <path clip-path="url(#pae0cdf7765)" d="M 108 663.437113 
L 698.4 663.437113 
" style="fill:none;stroke:#e6e6e6;stroke-linecap:square;stroke-width:0.8;"/>
     </g>
     <g id="line2d_22">
      <defs>
       <path d="M 0 0 
L 3.5 0 
" id="m4d609e4fbe" style="stroke:#000000;stroke-width:0.8;"/>
      </defs>
      <g>
       <use style="stroke:#000000;stroke-width:0.8;" x="108" xlink:href="#m4d609e4fbe" y="663.437113"/>
      </g>
     </g>
     <g id="text_12">
      <!-- $\mathdefault{0}$ -->
      <g transform="translate(97.183762 668.625976)scale(0.15 -0.15)">
       <use transform="scale(0.996264)" xlink:href="#CMR17-48"/>
      </g>
     </g>
    </g>
    <g id="ytick_2">
     <g id="line2d_23">
      <path clip-path="url(#pae0cdf7765)" d="M 108 588.222863 
L 698.4 588.222863 
" style="fill:none;stroke:#e6e6e6;stroke-linecap:square;stroke-width:0.8;"/>
     </g>
     <g id="line2d_24">
      <g>
       <use style="stroke:#000000;stroke-width:0.8;" x="108" xlink:href="#m4d609e4fbe" y="588.222863"/>
      </g>
     </g>
     <g id="text_13">
      <!-- $\mathdefault{5}$ -->
      <g transform="translate(97.183762 593.411726)scale(0.15 -0.15)">
       <defs>
        <path d="M 11.40625 57.6875 
C 12.40625 57.28125 16.5 56 20.703125 56 
C 30 56 35.09375 61.109375 38 64.0625 
C 38 64.953125 38 65.5 37.40625 65.5 
C 37.296875 65.5 37.09375 65.5 36.296875 65.046875 
C 32.796875 63.40625 28.703125 62.078125 23.703125 62.078125 
C 20.703125 62.078125 16.203125 62.484375 11.296875 64.671875 
C 10.203125 65.171875 10 65.171875 9.90625 65.171875 
C 9.40625 65.171875 9.296875 65.0625 9.296875 63.078125 
L 9.296875 34.421875 
C 9.296875 32.640625 9.296875 32.140625 10.296875 32.140625 
C 10.796875 32.140625 11 32.34375 11.5 33.03125 
C 14.703125 37.515625 19.09375 39.40625 24.09375 39.40625 
C 27.59375 39.40625 35.09375 37.21875 35.09375 20.140625 
C 35.09375 16.953125 35.09375 11.171875 32.09375 6.578125 
C 29.59375 2.484375 25.703125 0.390625 21.40625 0.390625 
C 14.796875 0.390625 8.09375 5 6.296875 12.71875 
C 6.703125 12.609375 7.5 12.421875 7.90625 12.421875 
C 9.203125 12.421875 11.703125 13.125 11.703125 16.21875 
C 11.703125 18.90625 9.796875 20 7.90625 20 
C 5.59375 20 4.09375 18.59375 4.09375 15.796875 
C 4.09375 7.09375 11 -2 21.59375 -2 
C 31.90625 -2 41.703125 6.875 41.703125 19.75 
C 41.703125 31.71875 33.90625 41 24.203125 41 
C 19.09375 41 14.796875 39.109375 11.40625 35.53125 
z
" id="CMR17-53"/>
       </defs>
       <use transform="scale(0.996264)" xlink:href="#CMR17-53"/>
      </g>
     </g>
    </g>
    <g id="ytick_3">
     <g id="line2d_25">
      <path clip-path="url(#pae0cdf7765)" d="M 108 513.008613 
L 698.4 513.008613 
" style="fill:none;stroke:#e6e6e6;stroke-linecap:square;stroke-width:0.8;"/>
     </g>
     <g id="line2d_26">
      <g>
       <use style="stroke:#000000;stroke-width:0.8;" x="108" xlink:href="#m4d609e4fbe" y="513.008613"/>
      </g>
     </g>
     <g id="text_14">
      <!-- $\mathdefault{10}$ -->
      <g transform="translate(89.867524 518.197475)scale(0.15 -0.15)">
       <use transform="scale(0.996264)" xlink:href="#CMR17-49"/>
       <use transform="translate(45.690477 0)scale(0.996264)" xlink:href="#CMR17-48"/>
      </g>
     </g>
    </g>
    <g id="ytick_4">
     <g id="line2d_27">
      <path clip-path="url(#pae0cdf7765)" d="M 108 437.794363 
L 698.4 437.794363 
" style="fill:none;stroke:#e6e6e6;stroke-linecap:square;stroke-width:0.8;"/>
     </g>
     <g id="line2d_28">
      <g>
       <use style="stroke:#000000;stroke-width:0.8;" x="108" xlink:href="#m4d609e4fbe" y="437.794363"/>
      </g>
     </g>
     <g id="text_15">
      <!-- $\mathdefault{15}$ -->
      <g transform="translate(89.867524 442.983225)scale(0.15 -0.15)">
       <use transform="scale(0.996264)" xlink:href="#CMR17-49"/>
       <use transform="translate(45.690477 0)scale(0.996264)" xlink:href="#CMR17-53"/>
      </g>
     </g>
    </g>
    <g id="ytick_5">
     <g id="line2d_29">
      <path clip-path="url(#pae0cdf7765)" d="M 108 362.580113 
L 698.4 362.580113 
" style="fill:none;stroke:#e6e6e6;stroke-linecap:square;stroke-width:0.8;"/>
     </g>
     <g id="line2d_30">
      <g>
       <use style="stroke:#000000;stroke-width:0.8;" x="108" xlink:href="#m4d609e4fbe" y="362.580113"/>
      </g>
     </g>
     <g id="text_16">
      <!-- $\mathdefault{20}$ -->
      <g transform="translate(89.867524 367.768975)scale(0.15 -0.15)">
       <use transform="scale(0.996264)" xlink:href="#CMR17-50"/>
       <use transform="translate(45.690477 0)scale(0.996264)" xlink:href="#CMR17-48"/>
      </g>
     </g>
    </g>
    <g id="ytick_6">
     <g id="line2d_31">
      <path clip-path="url(#pae0cdf7765)" d="M 108 287.365862 
L 698.4 287.365862 
" style="fill:none;stroke:#e6e6e6;stroke-linecap:square;stroke-width:0.8;"/>
     </g>
     <g id="line2d_32">
      <g>
       <use style="stroke:#000000;stroke-width:0.8;" x="108" xlink:href="#m4d609e4fbe" y="287.365862"/>
      </g>
     </g>
     <g id="text_17">
      <!-- $\mathdefault{25}$ -->
      <g transform="translate(89.867524 292.554725)scale(0.15 -0.15)">
       <use transform="scale(0.996264)" xlink:href="#CMR17-50"/>
       <use transform="translate(45.690477 0)scale(0.996264)" xlink:href="#CMR17-53"/>
      </g>
     </g>
    </g>
    <g id="ytick_7">
     <g id="line2d_33">
      <path clip-path="url(#pae0cdf7765)" d="M 108 212.151612 
L 698.4 212.151612 
" style="fill:none;stroke:#e6e6e6;stroke-linecap:square;stroke-width:0.8;"/>
     </g>
     <g id="line2d_34">
      <g>
       <use style="stroke:#000000;stroke-width:0.8;" x="108" xlink:href="#m4d609e4fbe" y="212.151612"/>
      </g>
     </g>
     <g id="text_18">
      <!-- $\mathdefault{30}$ -->
      <g transform="translate(89.867524 217.340475)scale(0.15 -0.15)">
       <defs>
        <path d="M 22.09375 33.703125 
C 31 33.703125 34.90625 25.96875 34.90625 17.03125 
C 34.90625 5 28.5 0.390625 22.703125 0.390625 
C 17.40625 0.390625 8.796875 3.03125 6.09375 10.828125 
C 6.59375 10.625 7.09375 10.625 7.59375 10.625 
C 10 10.625 11.796875 12.21875 11.796875 14.8125 
C 11.796875 17.703125 9.59375 19 7.59375 19 
C 5.90625 19 3.296875 18.203125 3.296875 14.46875 
C 3.296875 5.234375 12.296875 -2 22.90625 -2 
C 34 -2 42.5 6.71875 42.5 16.953125 
C 42.5 26.671875 34.5 33.703125 25 34.796875 
C 32.59375 36.375 39.90625 43.0625 39.90625 52.015625 
C 39.90625 59.6875 32 65.296875 23 65.296875 
C 13.90625 65.296875 5.90625 59.828125 5.90625 52.015625 
C 5.90625 48.59375 8.5 48 9.796875 48 
C 11.90625 48 13.703125 49.296875 13.703125 51.890625 
C 13.703125 54.46875 11.90625 55.765625 9.796875 55.765625 
C 9.40625 55.765625 8.90625 55.765625 8.5 55.578125 
C 11.40625 61.859375 19.296875 63 22.796875 63 
C 26.296875 63 32.90625 61.328125 32.90625 51.875 
C 32.90625 49.109375 32.5 44.1875 29.09375 39.84375 
C 26.09375 36 22.703125 36 19.40625 35.6875 
C 18.90625 35.6875 16.59375 35.453125 16.203125 35.453125 
C 15.5 35.359375 15.09375 35.265625 15.09375 34.5 
C 15.09375 33.796875 15.203125 33.703125 17.203125 33.703125 
z
" id="CMR17-51"/>
       </defs>
       <use transform="scale(0.996264)" xlink:href="#CMR17-51"/>
       <use transform="translate(45.690477 0)scale(0.996264)" xlink:href="#CMR17-48"/>
      </g>
     </g>
    </g>
    <g id="ytick_8">
     <g id="line2d_35">
      <path clip-path="url(#pae0cdf7765)" d="M 108 136.937362 
L 698.4 136.937362 
" style="fill:none;stroke:#e6e6e6;stroke-linecap:square;stroke-width:0.8;"/>
     </g>
     <g id="line2d_36">
      <g>
       <use style="stroke:#000000;stroke-width:0.8;" x="108" xlink:href="#m4d609e4fbe" y="136.937362"/>
      </g>
     </g>
     <g id="text_19">
      <!-- $\mathdefault{35}$ -->
      <g transform="translate(89.867524 142.126224)scale(0.15 -0.15)">
       <use transform="scale(0.996264)" xlink:href="#CMR17-51"/>
       <use transform="translate(45.690477 0)scale(0.996264)" xlink:href="#CMR17-53"/>
      </g>
     </g>
    </g>
    <g id="ytick_9">
     <g id="line2d_37">
      <path clip-path="url(#pae0cdf7765)" d="M 108 61.723112 
L 698.4 61.723112 
" style="fill:none;stroke:#e6e6e6;stroke-linecap:square;stroke-width:0.8;"/>
     </g>
     <g id="line2d_38">
      <g>
       <use style="stroke:#000000;stroke-width:0.8;" x="108" xlink:href="#m4d609e4fbe" y="61.723112"/>
      </g>
     </g>
     <g id="text_20">
      <!-- $\mathdefault{40}$ -->
      <g transform="translate(89.867524 66.911974)scale(0.15 -0.15)">
       <use transform="scale(0.996264)" xlink:href="#CMR17-52"/>
       <use transform="translate(45.690477 0)scale(0.996264)" xlink:href="#CMR17-48"/>
      </g>
     </g>
    </g>
    <g id="text_21">
     <!-- $|f(\theta)|$ -->
     <g transform="translate(79.640874 417.899913)rotate(-90)scale(0.25 -0.25)">
      <defs>
       <path d="M 15.90625 71.40625 
C 15.90625 73.203125 15.90625 75 13.90625 75 
C 11.90625 75 11.90625 73.203125 11.90625 71.40625 
L 11.90625 -21.40625 
C 11.90625 -23.203125 11.90625 -25 13.90625 -25 
C 15.90625 -25 15.90625 -23.203125 15.90625 -21.40625 
z
" id="CMSY10-106"/>
       <path d="M 44.59375 40.09375 
C 46.59375 40.09375 47.40625 40.09375 47.40625 42 
C 47.40625 43 46.59375 43 44.796875 43 
L 36.703125 43 
C 38.59375 53.578125 40 60.890625 40.796875 64.171875 
C 41.40625 66.640625 43.5 69 46.09375 69 
C 48.203125 69 50.296875 68.09375 51.296875 67.15625 
C 47.40625 66.75 46.203125 63.78125 46.203125 62.015625 
C 46.203125 59.953125 47.703125 58.734375 49.59375 58.734375 
C 51.59375 58.734375 54.59375 60.46875 54.59375 64.359375 
C 54.59375 68.640625 50.40625 71 46 71 
C 41.703125 71 37.5 67.71875 35.5 63.71875 
C 33.703125 60.125 32.703125 56.421875 30.40625 43 
L 23.703125 43 
C 21.796875 43 20.796875 43 20.796875 41.203125 
C 20.796875 40.09375 21.40625 40.09375 23.40625 40.09375 
L 29.796875 40.09375 
C 28 30.875 23.90625 8.46875 21.59375 -2.140625 
C 19.90625 -10.765625 18.40625 -18 13.40625 -18 
C 13.09375 -18 10.203125 -18 8.40625 -16.109375 
C 13.5 -15.703125 13.5 -11.34375 13.5 -11.25 
C 13.5 -9.265625 12 -8.078125 10.09375 -8.078125 
C 8.09375 -8.078125 5.09375 -9.765625 5.09375 -13.546875 
C 5.09375 -17.8125 9.5 -20 13.40625 -20 
C 23.59375 -20 27.796875 -1.84375 28.90625 3.109375 
C 30.703125 10.75 35.59375 37.125 36.09375 40.09375 
z
" id="CMMI12-102"/>
      </defs>
      <use transform="scale(0.996264)" xlink:href="#CMSY10-106"/>
      <use transform="translate(27.674085 0)scale(0.996264)" xlink:href="#CMMI12-102"/>
      <use transform="translate(86.39439 0)scale(0.996264)" xlink:href="#CMR17-40"/>
      <use transform="translate(121.675157 0)scale(0.996264)" xlink:href="#CMMI12-18"/>
      <use transform="translate(169.844665 0)scale(0.996264)" xlink:href="#CMR17-41"/>
      <use transform="translate(205.125433 0)scale(0.996264)" xlink:href="#CMSY10-106"/>
     </g>
    </g>
   </g>
   <g id="line2d_39">
    <path clip-path="url(#pae0cdf7765)" d="M 108 114.33719 
L 109.64 114.517214 
L 111.28 115.05891 
L 112.92 115.967138 
L 114.56 117.249928 
L 116.2 118.918395 
L 117.84 120.986598 
L 119.48 123.471374 
L 121.12 126.392125 
L 122.76 129.770575 
L 124.4 133.630485 
L 126.04 137.997331 
L 127.68 142.897946 
L 129.32 148.36013 
L 130.96 154.412221 
L 132.6 161.082637 
L 134.24 168.399387 
L 135.88 176.389555 
L 137.52 185.078762 
L 139.16 194.490599 
L 140.8 204.646059 
L 142.44 215.56295 
L 145.72 239.73278 
L 149 267.056552 
L 152.28 297.503045 
L 155.56 330.937215 
L 158.84 367.107166 
L 162.12 405.63559 
L 167.04 466.710685 
L 178.52 611.967505 
L 181.8 650.33741 
L 183.44 658.432715 
L 186.72 624.906032 
L 188.36 609.671302 
L 190 595.566049 
L 191.64 582.659733 
L 193.28 571.009557 
L 194.92 560.659352 
L 196.56 551.63871 
L 198.2 543.962402 
L 199.84 537.630138 
L 201.48 532.6267 
L 203.12 528.922502 
L 204.76 526.4746 
L 206.4 525.228167 
L 208.04 525.118429 
L 209.68 526.073039 
L 211.32 528.014818 
L 212.96 530.86478 
L 214.6 534.545279 
L 216.24 538.983117 
L 217.88 544.112372 
L 219.52 549.876721 
L 221.16 556.231006 
L 222.8 563.141831 
L 224.44 570.587057 
L 227.72 587.037339 
L 231 605.540591 
L 234.28 626.034231 
L 237.56 648.293022 
L 239.2 659.939574 
L 240.84 655.062378 
L 245.76 619.364437 
L 249.04 597.101125 
L 250.68 586.982293 
L 252.32 577.799077 
L 253.96 569.74409 
L 255.6 563.00079 
L 257.24 557.737584 
L 258.88 554.102084 
L 260.52 552.215726 
L 262.16 552.168911 
L 263.8 554.016852 
L 265.44 557.776256 
L 267.08 563.422997 
L 268.72 570.89085 
L 270.36 580.071387 
L 272 590.815038 
L 273.64 602.933357 
L 276.92 630.367336 
L 280.2 660.243677 
L 281.84 651.530794 
L 285.12 622.584791 
L 286.76 609.35618 
L 288.4 597.343855 
L 290.04 586.808123 
L 291.68 577.977546 
L 293.32 571.043189 
L 294.96 566.153801 
L 296.6 563.41207 
L 298.24 562.872048 
L 299.88 564.537783 
L 301.52 568.36319 
L 303.16 574.253144 
L 304.8 582.065727 
L 306.44 591.615559 
L 308.08 602.678098 
L 309.72 614.994788 
L 313 642.222014 
L 314.64 656.500711 
L 316.28 656.090412 
L 319.56 628.83136 
L 321.2 616.491779 
L 322.84 605.406479 
L 324.48 595.838717 
L 326.12 588.01831 
L 327.76 582.136038 
L 329.4 578.338708 
L 331.04 576.724975 
L 332.68 577.342058 
L 334.32 580.183457 
L 335.96 585.187782 
L 337.6 592.238818 
L 339.24 601.166902 
L 340.88 611.751684 
L 342.52 623.726308 
L 347.44 662.124143 
L 350.72 634.20705 
L 352.36 621.235512 
L 354 609.42021 
L 355.64 599.10404 
L 357.28 590.592346 
L 358.92 584.142983 
L 360.56 579.957526 
L 362.2 578.173954 
L 363.84 578.861141 
L 365.48 582.015386 
L 367.12 587.559188 
L 368.76 595.342372 
L 370.4 605.145589 
L 372.04 616.686146 
L 373.68 629.626005 
L 376.96 658.136084 
L 378.6 654.023379 
L 381.88 625.887753 
L 383.52 613.323515 
L 385.16 602.284771 
L 386.8 593.108853 
L 388.44 586.07577 
L 390.08 581.399196 
L 391.72 579.219628 
L 393.36 579.59992 
L 395 582.52337 
L 396.64 587.894388 
L 398.28 595.541729 
L 399.92 605.224165 
L 401.56 616.638378 
L 403.2 629.428809 
L 406.48 657.524816 
L 408.12 654.90745 
L 411.4 627.422106 
L 413.04 615.20731 
L 414.68 604.508152 
L 416.32 595.639022 
L 417.96 588.856259 
L 419.6 584.350907 
L 421.24 582.243588 
L 422.88 582.581609 
L 424.52 585.338361 
L 426.16 590.414979 
L 427.8 597.644183 
L 429.44 606.796128 
L 431.08 617.586058 
L 432.72 629.6835 
L 436 656.313793 
L 437.64 656.819304 
L 440.92 630.483742 
L 442.56 618.647256 
L 444.2 608.154981 
L 445.84 599.298523 
L 447.48 592.319076 
L 449.12 587.40121 
L 450.76 584.668406 
L 452.4 584.180462 
L 454.04 585.93279 
L 455.68 589.857587 
L 457.32 595.826809 
L 458.96 603.656817 
L 460.6 613.114524 
L 462.24 623.924823 
L 465.52 648.344243 
L 467.16 661.272803 
L 468.8 652.661788 
L 472.08 628.123652 
L 473.72 617.16735 
L 475.36 607.467715 
L 477 599.26512 
L 478.64 592.756404 
L 480.28 588.090637 
L 481.92 585.366321 
L 483.56 584.630044 
L 485.2 585.876578 
L 486.84 589.050367 
L 488.48 594.04831 
L 490.12 600.723711 
L 491.76 608.89125 
L 493.4 618.332789 
L 495.04 628.803828 
L 499.96 663.17442 
L 503.24 639.793508 
L 504.88 628.873402 
L 506.52 618.788123 
L 508.16 609.748335 
L 509.8 601.935501 
L 511.44 595.498753 
L 513.08 590.552694 
L 514.72 587.176109 
L 516.36 585.411591 
L 518 585.266025 
L 519.64 586.711884 
L 521.28 589.689235 
L 522.92 594.108395 
L 524.56 599.853108 
L 526.2 606.784154 
L 527.84 614.743267 
L 529.48 623.557262 
L 532.76 643.007856 
L 536.04 663.26281 
L 539.32 643.008254 
L 542.6 624.471158 
L 544.24 616.215693 
L 545.88 608.798922 
L 547.52 602.319881 
L 549.16 596.857855 
L 550.8 592.472051 
L 552.44 589.201675 
L 554.08 587.066374 
L 555.72 586.067017 
L 557.36 586.186763 
L 559 587.392379 
L 560.64 589.635758 
L 562.28 592.855593 
L 563.92 596.97917 
L 565.56 601.924216 
L 567.2 607.60079 
L 568.84 613.913154 
L 572.12 628.044243 
L 575.4 643.503258 
L 578.68 659.490836 
L 580.32 659.426498 
L 583.6 644.010499 
L 586.88 629.745715 
L 588.52 623.199794 
L 590.16 617.111653 
L 591.8 611.521388 
L 593.44 606.461173 
L 595.08 601.95546 
L 596.72 598.02126 
L 598.36 594.668517 
L 600 591.900536 
L 601.64 589.714469 
L 603.28 588.101843 
L 604.92 587.049108 
L 606.56 586.538211 
L 608.2 586.547169 
L 609.84 587.050644 
L 611.48 588.02051 
L 613.12 589.42639 
L 614.76 591.236187 
L 616.4 593.416569 
L 618.04 595.933436 
L 619.68 598.752341 
L 622.96 605.159028 
L 626.24 612.367874 
L 629.52 620.125299 
L 637.72 640.464984 
L 642.64 652.420003 
L 645.92 660.004334 
L 647.56 663.229515 
L 650.84 656.296306 
L 654.12 649.86829 
L 657.4 643.977929 
L 660.68 638.640402 
L 663.96 633.856876 
L 667.24 629.617661 
L 670.52 625.905132 
L 673.8 622.696396 
L 677.08 619.965645 
L 680.36 617.686194 
L 683.64 615.832209 
L 686.92 614.380126 
L 690.2 613.309798 
L 693.48 612.605375 
L 696.76 612.255943 
L 698.4 612.212395 
L 698.4 612.212395 
" style="fill:none;stroke:#0000ff;stroke-dasharray:7.4,3.2;stroke-dashoffset:0;stroke-width:2;"/>
   </g>
   <g id="line2d_40">
    <path clip-path="url(#pae0cdf7765)" d="M 108 186.870362 
L 109.64 187.082767 
L 111.28 187.721172 
L 112.92 188.78913 
L 114.56 190.292504 
L 116.2 192.239379 
L 117.84 194.639943 
L 119.48 197.506327 
L 121.12 200.852417 
L 122.76 204.693627 
L 124.4 209.046642 
L 126.04 213.929126 
L 127.68 219.359402 
L 129.32 225.356095 
L 130.96 231.937753 
L 132.6 239.122435 
L 134.24 246.92728 
L 135.88 255.368049 
L 137.52 264.45865 
L 139.16 274.210646 
L 142.44 295.730342 
L 145.72 319.953576 
L 149 346.836887 
L 152.28 376.251187 
L 155.56 407.966965 
L 158.84 441.640292 
L 163.76 494.743821 
L 170.32 566.487742 
L 173.6 599.772129 
L 175.24 614.306571 
L 176.88 625.723069 
L 178.52 631.318103 
L 180.16 629.04865 
L 181.8 620.942894 
L 185.08 599.001428 
L 188.36 577.46138 
L 190 567.887993 
L 191.64 559.338038 
L 193.28 551.905147 
L 194.92 545.648323 
L 196.56 540.600485 
L 198.2 536.772891 
L 199.84 534.157706 
L 201.48 532.729783 
L 203.12 532.448184 
L 204.76 533.257728 
L 206.4 535.09074 
L 208.04 537.86907 
L 209.68 541.506426 
L 211.32 545.911012 
L 212.96 550.988419 
L 214.6 556.644676 
L 217.88 569.338257 
L 221.16 583.358205 
L 226.08 605.86923 
L 232.64 636.231444 
L 234.28 642.476151 
L 235.92 646.236805 
L 237.56 645.584562 
L 239.2 640.756756 
L 240.84 633.690475 
L 244.12 617.34895 
L 247.4 601.022536 
L 249.04 593.477562 
L 250.68 586.599891 
L 252.32 580.564395 
L 253.96 575.534325 
L 255.6 571.658745 
L 257.24 569.068714 
L 258.88 567.873026 
L 260.52 568.153936 
L 262.16 569.963122 
L 263.8 573.318012 
L 265.44 578.198419 
L 267.08 584.543186 
L 268.72 592.245977 
L 270.36 601.147914 
L 273.64 621.520858 
L 275.28 632.04358 
L 276.92 641.202967 
L 278.56 645.471625 
L 280.2 641.429705 
L 281.84 632.373361 
L 285.12 611.527169 
L 286.76 601.836964 
L 288.4 593.238869 
L 290.04 586.006185 
L 291.68 580.343396 
L 293.32 576.400687 
L 294.96 574.278545 
L 296.6 574.029069 
L 298.24 575.656402 
L 299.88 579.117175 
L 301.52 584.321231 
L 303.16 591.132338 
L 304.8 599.367939 
L 306.44 608.795212 
L 311.36 640.395123 
L 313 648.392452 
L 314.64 648.419975 
L 316.28 640.734812 
L 319.56 621.16951 
L 321.2 612.181896 
L 322.84 604.358042 
L 324.48 597.956525 
L 326.12 593.165007 
L 327.76 590.116849 
L 329.4 588.895977 
L 331.04 589.537966 
L 332.68 592.029957 
L 334.32 596.310295 
L 335.96 602.267951 
L 337.6 609.740948 
L 339.24 618.510849 
L 344.16 648.416616 
L 345.8 653.261956 
L 347.44 647.219691 
L 352.36 617.485423 
L 354 609.08729 
L 355.64 602.140312 
L 357.28 596.885506 
L 358.92 593.503569 
L 360.56 592.11575 
L 362.2 592.781811 
L 363.84 595.497801 
L 365.48 600.194467 
L 367.12 606.736094 
L 368.76 614.918073 
L 370.4 624.456905 
L 373.68 645.618047 
L 375.32 653.513776 
L 376.96 649.887622 
L 383.52 609.5586 
L 385.16 602.059037 
L 386.8 596.361655 
L 388.44 592.66164 
L 390.08 591.08399 
L 391.72 591.682365 
L 393.36 594.438002 
L 395 599.259439 
L 396.64 605.982507 
L 398.28 614.368055 
L 399.92 624.088643 
L 403.2 645.169136 
L 404.84 652.190171 
L 406.48 648.2423 
L 408.12 638.2616 
L 411.4 617.521132 
L 413.04 608.653541 
L 414.68 601.327874 
L 416.32 595.798869 
L 417.96 592.24463 
L 419.6 590.772015 
L 421.24 591.417802 
L 422.88 594.149289 
L 424.52 598.865188 
L 426.16 605.396254 
L 427.8 613.503003 
L 429.44 622.861984 
L 432.72 643.070461 
L 434.36 650.387423 
L 436 648.664149 
L 437.64 639.976823 
L 440.92 620.120118 
L 442.56 611.336968 
L 444.2 603.9083 
L 445.84 598.092187 
L 447.48 594.069104 
L 449.12 591.952903 
L 450.76 591.794388 
L 452.4 593.583106 
L 454.04 597.249072 
L 455.68 602.664623 
L 457.32 609.645545 
L 458.96 617.948428 
L 462.24 637.096636 
L 463.88 646.515227 
L 465.52 652.18663 
L 467.16 648.369916 
L 468.8 639.515055 
L 472.08 620.867606 
L 473.72 612.745361 
L 475.36 605.879454 
L 477 600.475319 
L 478.64 596.67628 
L 480.28 594.571626 
L 481.92 594.199792 
L 483.56 595.550434 
L 485.2 598.566629 
L 486.84 603.14751 
L 488.48 609.151125 
L 490.12 616.3967 
L 491.76 624.663784 
L 496.68 651.852557 
L 498.32 655.48221 
L 499.96 649.144504 
L 503.24 631.316323 
L 504.88 623.018366 
L 506.52 615.611046 
L 508.16 609.285672 
L 509.8 604.182891 
L 511.44 600.403431 
L 513.08 598.01163 
L 514.72 597.037147 
L 516.36 597.476433 
L 518 599.294453 
L 519.64 602.426779 
L 521.28 606.782 
L 522.92 612.244259 
L 524.56 618.675468 
L 526.2 625.916075 
L 529.48 642.03548 
L 531.12 650.26651 
L 532.76 656.761718 
L 534.4 654.608341 
L 536.04 647.060108 
L 539.32 631.12526 
L 540.96 623.801996 
L 542.6 617.15283 
L 544.24 611.292693 
L 545.88 606.309497 
L 547.52 602.268772 
L 549.16 599.215544 
L 550.8 597.175445 
L 552.44 596.155702 
L 554.08 596.146178 
L 555.72 597.120554 
L 557.36 599.037611 
L 559 601.842577 
L 560.64 605.468452 
L 562.28 609.83716 
L 563.92 614.860253 
L 565.56 620.438639 
L 568.84 632.790542 
L 572.12 645.53332 
L 573.76 650.921146 
L 575.4 653.491972 
L 577.04 651.280939 
L 578.68 646.14791 
L 585.24 622.130794 
L 586.88 616.733477 
L 588.52 611.762894 
L 590.16 607.261989 
L 591.8 603.261506 
L 593.44 599.782396 
L 595.08 596.837262 
L 596.72 594.431364 
L 598.36 592.56342 
L 600 591.226309 
L 601.64 590.407722 
L 603.28 590.090778 
L 604.92 590.254616 
L 606.56 590.874971 
L 608.2 591.924707 
L 609.84 593.374342 
L 611.48 595.192513 
L 613.12 597.346413 
L 614.76 599.802173 
L 616.4 602.525187 
L 619.68 608.632283 
L 622.96 615.383378 
L 632.8 636.438719 
L 634.44 639.556541 
L 636.08 642.361999 
L 637.72 644.728753 
L 639.36 646.50346 
L 641 647.533957 
L 642.64 647.731825 
L 644.28 647.13099 
L 645.92 645.877922 
L 647.56 644.161351 
L 650.84 639.97407 
L 659.04 628.895917 
L 662.32 624.915787 
L 665.6 621.323257 
L 668.88 618.136957 
L 672.16 615.355321 
L 675.44 612.965808 
L 678.72 610.950316 
L 682 609.288638 
L 685.28 607.960798 
L 688.56 606.948671 
L 691.84 606.237139 
L 695.12 605.814885 
L 698.4 605.674921 
L 698.4 605.674921 
" style="fill:none;stroke:#0000ff;stroke-linecap:square;stroke-width:2;"/>
   </g>
   <g id="line2d_41">
    <path clip-path="url(#pae0cdf7765)" d="M 108 114.33719 
L 109.64 114.517214 
L 111.28 115.05891 
L 112.92 115.967138 
L 114.56 117.249928 
L 116.2 118.918395 
L 117.84 120.986598 
L 119.48 123.471374 
L 121.12 126.392125 
L 122.76 129.770575 
L 124.4 133.630485 
L 126.04 137.997331 
L 127.68 142.897946 
L 129.32 148.36013 
L 130.96 154.412221 
L 132.6 161.082637 
L 134.24 168.399387 
L 135.88 176.389555 
L 137.52 185.078762 
L 139.16 194.490599 
L 140.8 204.646059 
L 142.44 215.56295 
L 145.72 239.73278 
L 149 267.056552 
L 152.28 297.503045 
L 155.56 330.937215 
L 158.84 367.107166 
L 162.12 405.63559 
L 167.04 466.710685 
L 178.52 611.967505 
L 181.8 650.33741 
L 183.44 658.432715 
L 186.72 624.906032 
L 188.36 609.671302 
L 190 595.566049 
L 191.64 582.659733 
L 193.28 571.009557 
L 194.92 560.659352 
L 196.56 551.63871 
L 198.2 543.962402 
L 199.84 537.630138 
L 201.48 532.6267 
L 203.12 528.922502 
L 204.76 526.4746 
L 206.4 525.228167 
L 208.04 525.118429 
L 209.68 526.073039 
L 211.32 528.014818 
L 212.96 530.86478 
L 214.6 534.545279 
L 216.24 538.983117 
L 217.88 544.112372 
L 219.52 549.876721 
L 221.16 556.231006 
L 222.8 563.141831 
L 224.44 570.587057 
L 227.72 587.037339 
L 231 605.540591 
L 234.28 626.034231 
L 237.56 648.293022 
L 239.2 659.939574 
L 240.84 655.062378 
L 245.76 619.364437 
L 249.04 597.101125 
L 250.68 586.982293 
L 252.32 577.799077 
L 253.96 569.74409 
L 255.6 563.00079 
L 257.24 557.737584 
L 258.88 554.102084 
L 260.52 552.215726 
L 262.16 552.168911 
L 263.8 554.016852 
L 265.44 557.776256 
L 267.08 563.422997 
L 268.72 570.89085 
L 270.36 580.071387 
L 272 590.815038 
L 273.64 602.933357 
L 276.92 630.367336 
L 280.2 660.243677 
L 281.84 651.530794 
L 285.12 622.584791 
L 286.76 609.35618 
L 288.4 597.343855 
L 290.04 586.808123 
L 291.68 577.977546 
L 293.32 571.043189 
L 294.96 566.153801 
L 296.6 563.41207 
L 298.24 562.872048 
L 299.88 564.537783 
L 301.52 568.36319 
L 303.16 574.253144 
L 304.8 582.065727 
L 306.44 591.615559 
L 308.08 602.678098 
L 309.72 614.994788 
L 313 642.222014 
L 314.64 656.500711 
L 316.28 656.090412 
L 319.56 628.83136 
L 321.2 616.491779 
L 322.84 605.406479 
L 324.48 595.838717 
L 326.12 588.01831 
L 327.76 582.136038 
L 329.4 578.338708 
L 331.04 576.724975 
L 332.68 577.342058 
L 334.32 580.183457 
L 335.96 585.187782 
L 337.6 592.238818 
L 339.24 601.166902 
L 340.88 611.751684 
L 342.52 623.726308 
L 347.44 662.124143 
L 350.72 634.20705 
L 352.36 621.235512 
L 354 609.42021 
L 355.64 599.10404 
L 357.28 590.592346 
L 358.92 584.142983 
L 360.56 579.957526 
L 362.2 578.173954 
L 363.84 578.861141 
L 365.48 582.015386 
L 367.12 587.559188 
L 368.76 595.342372 
L 370.4 605.145589 
L 372.04 616.686146 
L 373.68 629.626005 
L 376.96 658.136084 
L 378.6 654.023379 
L 381.88 625.887753 
L 383.52 613.323515 
L 385.16 602.284771 
L 386.8 593.108853 
L 388.44 586.07577 
L 390.08 581.399196 
L 391.72 579.219628 
L 393.36 579.59992 
L 395 582.52337 
L 396.64 587.894388 
L 398.28 595.541729 
L 399.92 605.224165 
L 401.56 616.638378 
L 403.2 629.428809 
L 406.48 657.524816 
L 408.12 654.90745 
L 411.4 627.422106 
L 413.04 615.20731 
L 414.68 604.508152 
L 416.32 595.639022 
L 417.96 588.856259 
L 419.6 584.350907 
L 421.24 582.243588 
L 422.88 582.581609 
L 424.52 585.338361 
L 426.16 590.414979 
L 427.8 597.644183 
L 429.44 606.796128 
L 431.08 617.586058 
L 432.72 629.6835 
L 436 656.313793 
L 437.64 656.819304 
L 440.92 630.483742 
L 442.56 618.647256 
L 444.2 608.154981 
L 445.84 599.298523 
L 447.48 592.319076 
L 449.12 587.40121 
L 450.76 584.668406 
L 452.4 584.180462 
L 454.04 585.93279 
L 455.68 589.857587 
L 457.32 595.826809 
L 458.96 603.656817 
L 460.6 613.114524 
L 462.24 623.924823 
L 465.52 648.344243 
L 467.16 661.272803 
L 468.8 652.661788 
L 472.08 628.123652 
L 473.72 617.16735 
L 475.36 607.467715 
L 477 599.26512 
L 478.64 592.756404 
L 480.28 588.090637 
L 481.92 585.366321 
L 483.56 584.630044 
L 485.2 585.876578 
L 486.84 589.050367 
L 488.48 594.04831 
L 490.12 600.723711 
L 491.76 608.89125 
L 493.4 618.332789 
L 495.04 628.803828 
L 499.96 663.17442 
L 503.24 639.793508 
L 504.88 628.873402 
L 506.52 618.788123 
L 508.16 609.748335 
L 509.8 601.935501 
L 511.44 595.498753 
L 513.08 590.552694 
L 514.72 587.176109 
L 516.36 585.411591 
L 518 585.266025 
L 519.64 586.711884 
L 521.28 589.689235 
L 522.92 594.108395 
L 524.56 599.853108 
L 526.2 606.784154 
L 527.84 614.743267 
L 529.48 623.557262 
L 532.76 643.007856 
L 536.04 663.26281 
L 539.32 643.008254 
L 542.6 624.471158 
L 544.24 616.215693 
L 545.88 608.798922 
L 547.52 602.319881 
L 549.16 596.857855 
L 550.8 592.472051 
L 552.44 589.201675 
L 554.08 587.066374 
L 555.72 586.067017 
L 557.36 586.186763 
L 559 587.392379 
L 560.64 589.635758 
L 562.28 592.855593 
L 563.92 596.97917 
L 565.56 601.924216 
L 567.2 607.60079 
L 568.84 613.913154 
L 572.12 628.044243 
L 575.4 643.503258 
L 578.68 659.490836 
L 580.32 659.426498 
L 583.6 644.010499 
L 586.88 629.745715 
L 588.52 623.199794 
L 590.16 617.111653 
L 591.8 611.521388 
L 593.44 606.461173 
L 595.08 601.95546 
L 596.72 598.02126 
L 598.36 594.668517 
L 600 591.900536 
L 601.64 589.714469 
L 603.28 588.101843 
L 604.92 587.049108 
L 606.56 586.538211 
L 608.2 586.547169 
L 609.84 587.050644 
L 611.48 588.02051 
L 613.12 589.42639 
L 614.76 591.236187 
L 616.4 593.416569 
L 618.04 595.933436 
L 619.68 598.752341 
L 622.96 605.159028 
L 626.24 612.367874 
L 629.52 620.125299 
L 637.72 640.464984 
L 642.64 652.420003 
L 645.92 660.004334 
L 647.56 663.229515 
L 650.84 656.296306 
L 654.12 649.86829 
L 657.4 643.977929 
L 660.68 638.640402 
L 663.96 633.856876 
L 667.24 629.617661 
L 670.52 625.905132 
L 673.8 622.696396 
L 677.08 619.965645 
L 680.36 617.686194 
L 683.64 615.832209 
L 686.92 614.380126 
L 690.2 613.309798 
L 693.48 612.605375 
L 696.76 612.255943 
L 698.4 612.212395 
L 698.4 612.212395 
" style="fill:none;stroke:#ff0000;stroke-dasharray:7.4,3.2;stroke-dashoffset:0;stroke-width:2;"/>
   </g>
   <g id="line2d_42">
    <path clip-path="url(#pae0cdf7765)" d="M 108 123.868298 
L 109.64 124.056125 
L 111.28 124.621211 
L 112.92 125.568351 
L 114.56 126.905476 
L 116.2 128.643554 
L 117.84 130.796457 
L 119.48 133.380791 
L 121.12 136.415683 
L 122.76 139.922536 
L 124.4 143.924742 
L 126.04 148.447361 
L 127.68 153.516758 
L 129.32 159.160215 
L 130.96 165.405498 
L 132.6 172.280399 
L 134.24 179.812244 
L 135.88 188.027377 
L 137.52 196.950618 
L 139.16 206.604703 
L 140.8 217.009706 
L 142.44 228.182453 
L 145.72 252.878726 
L 149 280.740963 
L 152.28 311.728026 
L 155.56 345.694151 
L 158.84 382.376064 
L 162.12 421.384639 
L 167.04 483.094148 
L 176.88 609.127494 
L 180.16 648.787984 
L 181.8 659.206484 
L 185.08 623.893057 
L 188.36 592.50216 
L 190 578.494791 
L 191.64 565.70791 
L 193.28 554.197499 
L 194.92 544.005901 
L 196.56 535.160954 
L 198.2 527.675434 
L 199.84 521.54684 
L 201.48 516.757568 
L 203.12 513.275529 
L 204.76 511.055218 
L 206.4 510.039273 
L 208.04 510.160502 
L 209.68 511.344358 
L 211.32 513.511784 
L 212.96 516.582336 
L 214.6 520.477418 
L 216.24 525.123444 
L 217.88 530.454679 
L 219.52 536.415506 
L 221.16 542.961856 
L 222.8 550.061551 
L 226.08 565.844778 
L 229.36 583.67456 
L 232.64 603.430195 
L 237.56 635.05223 
L 239.2 644.08749 
L 240.84 647.843148 
L 242.48 642.701499 
L 244.12 632.775103 
L 250.68 587.640957 
L 252.32 577.61936 
L 253.96 568.629293 
L 255.6 560.877177 
L 257.24 554.548656 
L 258.88 549.805713 
L 260.52 546.782713 
L 262.16 545.582284 
L 263.8 546.271536 
L 265.44 548.878911 
L 267.08 553.391887 
L 268.72 559.755654 
L 270.36 567.872848 
L 272 577.604336 
L 273.64 588.770948 
L 275.28 601.155756 
L 278.56 628.526872 
L 281.84 656.307825 
L 283.48 653.274454 
L 286.76 626.969256 
L 288.4 614.95534 
L 290.04 604.243346 
L 291.68 595.0773 
L 293.32 587.654178 
L 294.96 582.125825 
L 296.6 578.5971 
L 298.24 577.12374 
L 299.88 577.710781 
L 301.52 580.311657 
L 303.16 584.827761 
L 304.8 591.107747 
L 306.44 598.944908 
L 308.08 608.068323 
L 313 638.330087 
L 314.64 644.966816 
L 316.28 644.253665 
L 317.92 637.033326 
L 322.84 609.267502 
L 324.48 601.720431 
L 326.12 595.726475 
L 327.76 591.513577 
L 329.4 589.243576 
L 331.04 589.019273 
L 332.68 590.886345 
L 334.32 594.833712 
L 335.96 600.793808 
L 337.6 608.643406 
L 339.24 618.205195 
L 340.88 629.249654 
L 344.16 654.54148 
L 345.8 657.994923 
L 350.72 617.472706 
L 352.36 605.270388 
L 354 594.385236 
L 355.64 585.152704 
L 357.28 577.867431 
L 358.92 572.773717 
L 360.56 570.056729 
L 362.2 569.834935 
L 363.84 572.153993 
L 365.48 576.982034 
L 367.12 584.205755 
L 368.76 593.625426 
L 370.4 604.942849 
L 375.32 643.52373 
L 376.96 647.539865 
L 378.6 638.170689 
L 383.52 597.013203 
L 385.16 585.282019 
L 386.8 575.500318 
L 388.44 567.999343 
L 390.08 563.021287 
L 391.72 560.722322 
L 393.36 561.171918 
L 395 564.35205 
L 396.64 570.157307 
L 398.28 578.395543 
L 399.92 588.787109 
L 401.56 600.956509 
L 406.48 640.910005 
L 408.12 646.345592 
L 409.76 639.054244 
L 414.68 601.37811 
L 416.32 590.86347 
L 417.96 582.335201 
L 419.6 576.065111 
L 421.24 572.227869 
L 422.88 570.911546 
L 424.52 572.122495 
L 426.16 575.789417 
L 427.8 581.768296 
L 429.44 589.848737 
L 431.08 599.761785 
L 432.72 611.189039 
L 436 637.12405 
L 437.64 650.819196 
L 439.28 661.508498 
L 442.56 636.398399 
L 444.2 625.038496 
L 445.84 615.107747 
L 447.48 606.862617 
L 449.12 600.501521 
L 450.76 596.161474 
L 452.4 593.91509 
L 454.04 593.768846 
L 455.68 595.662499 
L 457.32 599.469043 
L 458.96 604.993748 
L 460.6 611.968779 
L 462.24 620.034274 
L 465.52 637.054465 
L 467.16 643.450954 
L 468.8 644.923362 
L 470.44 640.611755 
L 472.08 633.414888 
L 475.36 618.395789 
L 477 612.200346 
L 478.64 607.393166 
L 480.28 604.18524 
L 481.92 602.705427 
L 483.56 603.014837 
L 485.2 605.113737 
L 486.84 608.94572 
L 488.48 614.400472 
L 490.12 621.314183 
L 491.76 629.462318 
L 495.04 647.85599 
L 496.68 654.81172 
L 498.32 651.206011 
L 499.96 641.560435 
L 503.24 620.81553 
L 504.88 611.18368 
L 506.52 602.471737 
L 508.16 594.904766 
L 509.8 588.664421 
L 511.44 583.892694 
L 513.08 580.692379 
L 514.72 579.126913 
L 516.36 579.220415 
L 518 580.958134 
L 519.64 584.287223 
L 521.28 589.117509 
L 522.92 595.321498 
L 524.56 602.731941 
L 526.2 611.132864 
L 531.12 638.321602 
L 532.76 644.408144 
L 534.4 644.37022 
L 536.04 638.142812 
L 537.68 629.128943 
L 542.6 600.342947 
L 544.24 591.798198 
L 545.88 584.145769 
L 547.52 577.511603 
L 549.16 571.98666 
L 550.8 567.632702 
L 552.44 564.485546 
L 554.08 562.557329 
L 555.72 561.838435 
L 557.36 562.299338 
L 559 563.892483 
L 560.64 566.554204 
L 562.28 570.206665 
L 563.92 574.759762 
L 565.56 580.112874 
L 567.2 586.156337 
L 570.48 599.83512 
L 577.04 629.514613 
L 578.68 636.160298 
L 580.32 641.583546 
L 581.96 644.797248 
L 583.6 644.869508 
L 585.24 642.065884 
L 586.88 637.596666 
L 593.44 617.101166 
L 595.08 612.555944 
L 596.72 608.395762 
L 598.36 604.635786 
L 600 601.275527 
L 601.64 598.303271 
L 603.28 595.698991 
L 604.92 593.436499 
L 606.56 591.485158 
L 608.2 589.811369 
L 609.84 588.379898 
L 611.48 587.155087 
L 613.12 586.101962 
L 616.4 584.380112 
L 619.68 582.982514 
L 626.24 580.536003 
L 636.08 577.013874 
L 641 575.515403 
L 644.28 574.726255 
L 647.56 574.144238 
L 650.84 573.782994 
L 654.12 573.638374 
L 657.4 573.691031 
L 662.32 574.070837 
L 667.24 574.695576 
L 683.64 576.993085 
L 688.56 577.440014 
L 693.48 577.712675 
L 698.4 577.80402 
L 698.4 577.80402 
" style="fill:none;stroke:#ff0000;stroke-linecap:square;stroke-width:2;"/>
   </g>
   <g id="patch_3">
    <path d="M 108 720.9 
L 108 56.7 
" style="fill:none;stroke:#000000;stroke-linecap:square;stroke-linejoin:miter;stroke-width:0.8;"/>
   </g>
   <g id="patch_4">
    <path d="M 698.4 720.9 
L 698.4 56.7 
" style="fill:none;stroke:#000000;stroke-linecap:square;stroke-linejoin:miter;stroke-width:0.8;"/>
   </g>
   <g id="patch_5">
    <path d="M 108 720.9 
L 698.4 720.9 
" style="fill:none;stroke:#000000;stroke-linecap:square;stroke-linejoin:miter;stroke-width:0.8;"/>
   </g>
   <g id="patch_6">
    <path d="M 108 56.7 
L 698.4 56.7 
" style="fill:none;stroke:#000000;stroke-linecap:square;stroke-linejoin:miter;stroke-width:0.8;"/>
   </g>
   <g id="text_22">
    <!-- Scattering amplitudes for $ka=5.0$, $kd=40.0$ -->
    <g transform="translate(221.289422 50.7)scale(0.2 -0.2)">
     <defs>
      <path d="M 43.703125 65.140625 
C 39.296875 67.71875 34.5 70 26.40625 70 
C 13.5 70 5.203125 60.609375 5.203125 51.03125 
C 5.203125 47.265625 6.296875 43.015625 10.203125 38.671875 
C 14.09375 34.3125 18.5 33.140625 24.09375 31.765625 
C 26.40625 31.15625 30.296875 30.0625 31 29.78125 
C 36.59375 27.609375 39.296875 22.5625 39.296875 17.8125 
C 39.296875 11.59375 34.40625 4.96875 25.703125 4.96875 
C 22.703125 4.96875 13.90625 4.96875 5.59375 12.796875 
L 4.203125 4.96875 
C 12.40625 -1 21.296875 -2 25.796875 -2 
C 38.09375 -2 46.90625 7.625 46.90625 18.53125 
C 46.90625 22.5 45.703125 27.546875 41.5 32.203125 
C 37.40625 36.671875 33.796875 37.65625 25.59375 39.828125 
C 20.90625 41.03125 17.90625 41.828125 15.40625 44.890625 
C 13.703125 47.078125 12.796875 49.15625 12.796875 51.828125 
C 12.796875 57.390625 17.59375 63.4375 26.40625 63.4375 
C 30.796875 63.4375 36.5 62.53125 42.296875 57.1875 
z
" id="CMSS17-83"/>
      <path d="M 38.5 39.703125 
C 38.5 40.390625 33.90625 42.40625 32.703125 42.796875 
C 29.40625 44 25.203125 44 24.09375 44 
C 11.09375 44 3.296875 32.703125 3.296875 21.296875 
C 3.296875 9.296875 12 -1 23.703125 -1 
C 30.40625 -1 35.203125 1.1875 39.09375 3.78125 
L 38.5 10.375 
C 34.203125 7.078125 29.203125 5.265625 23.796875 5.265625 
C 16 5.265625 10.90625 12.09375 10.90625 21.390625 
C 10.90625 28.609375 14.203125 37.71875 24.203125 37.71875 
C 29.703125 37.71875 32.796875 36.609375 37.40625 33.515625 
z
" id="CMSS17-99"/>
      <path d="M 37.59375 27.984375 
C 37.59375 37.375 30.90625 43.875 21.90625 43.875 
C 17.5 43.875 12.703125 43.078125 7.203125 39.890625 
L 7.796875 33.359375 
C 10.296875 35.125 14.59375 38 21.796875 38 
C 26.90625 38 30 34.0625 30 27.84375 
L 30 24 
C 14 24 4 19.34375 4 11.34375 
C 4 7.203125 6.5 -1 14.796875 -1 
C 16.296875 -1 24.40625 -1 30.203125 3.390625 
L 30.203125 -0.296875 
L 37.59375 -0.296875 
z
M 30 12.75 
C 30 10.953125 30 8.5625 27 6.78125 
C 24.40625 5.078125 21.09375 5.078125 19.703125 5.078125 
C 14.703125 5.078125 11.296875 7.984375 11.296875 11.625 
C 11.296875 18.921875 26.90625 18.921875 30 18.921875 
z
" id="CMSS17-97"/>
      <path d="M 16.703125 37 
L 29.703125 37 
L 29.703125 42.765625 
L 16.703125 42.765625 
L 16.703125 55 
L 9.59375 55 
L 9.59375 42.765625 
L 1.703125 42.765625 
L 1.703125 37 
L 9.40625 37 
L 9.40625 11.703125 
C 9.40625 6 10.703125 -1 17.296875 -1 
C 22.296875 -1 26.90625 0.390625 31.296875 2.6875 
L 29.703125 8.5625 
C 27.296875 6.46875 24.40625 5.265625 21.296875 5.265625 
C 16.90625 5.265625 16.703125 10.875 16.703125 13.375 
z
" id="CMSS17-116"/>
      <path d="M 39.09375 21.515625 
C 39.09375 24.84375 38.90625 31.296875 35.703125 36.640625 
C 32.203125 42.390625 26.5 44 22.203125 44 
C 11.796875 44 3 34.1875 3 21.484375 
C 3 9.09375 12.09375 -1 23.59375 -1 
C 28.09375 -1 33.59375 0.296875 38.59375 3.875 
C 38.59375 4.28125 38.40625 6.46875 38.296875 6.5625 
C 38.296875 6.765625 38 9.84375 38 10.25 
C 33.203125 6.359375 27.703125 5.078125 23.703125 5.078125 
C 17.296875 5.078125 10.40625 10.421875 10.09375 21.515625 
z
M 10.90625 27 
C 12.203125 32.5625 16.59375 37.828125 22.203125 37.828125 
C 23.703125 37.828125 30.703125 37.828125 32.5 27 
z
" id="CMSS17-101"/>
      <path d="M 14.90625 21.296875 
C 14.90625 30.703125 21.796875 37 30.59375 37 
L 30.59375 43.578125 
C 24.203125 43.578125 18.203125 40.390625 14.59375 35.203125 
L 14.59375 43.09375 
L 7.5 43.09375 
L 7.5 0 
L 14.90625 0 
z
" id="CMSS17-114"/>
      <path d="M 15.296875 65.359375 
L 6.90625 65.359375 
L 6.90625 57 
L 15.296875 57 
z
M 14.796875 42.796875 
L 7.40625 42.796875 
L 7.40625 0 
L 14.796875 0 
z
" id="CMSS17-105"/>
      <path d="M 40.90625 29.328125 
C 40.90625 35.671875 39.40625 44 28.09375 44 
C 21.703125 44 17.5 40.71875 14.703125 37.328125 
L 14.703125 43.09375 
L 7.40625 43.09375 
L 7.40625 0 
L 15 0 
L 15 24.359375 
C 15 30.6875 17.40625 37.9375 24.203125 37.9375 
C 33 37.9375 33.296875 32 33.296875 28.578125 
L 33.296875 0 
L 40.90625 0 
z
" id="CMSS17-110"/>
      <path d="M 44.5 43.875 
C 38.796875 43.875 33.90625 42.78125 29.90625 40.890625 
C 26.59375 43.390625 23.203125 43.875 20.90625 43.875 
C 12.203125 43.875 5.59375 36.703125 5.59375 28.34375 
C 5.59375 22.9375 8.59375 18.859375 8.796875 18.671875 
C 7 16.171875 6 13.484375 6 10.5 
C 6 7 7.40625 4.515625 8.5 3.125 
C 3.296875 -0.046875 2.59375 -4.90625 2.59375 -6.796875 
C 2.59375 -14.03125 11.703125 -20 23.40625 -20 
C 35.203125 -20 44.296875 -14.03125 44.296875 -6.6875 
C 44.296875 7 29 7 24.796875 7 
L 16.703125 7 
C 15.203125 7 11.203125 7 11.203125 12.359375 
C 11.203125 14.390625 12.09375 15.6875 12.203125 15.78125 
C 13.703125 14.6875 16.796875 13 20.90625 13 
C 29.203125 13 36.09375 19.96875 36.09375 28.546875 
C 36.09375 33.3125 33.90625 36.796875 33 38 
L 33.296875 38 
C 33.59375 38 37.796875 38 39.296875 38 
C 42.5 38 42.796875 37.953125 45.59375 37.796875 
z
M 20.90625 18.46875 
C 17.5 18.46875 12.703125 20.546875 12.703125 28.484375 
C 12.703125 37.109375 18.203125 38.5 20.796875 38.5 
C 24.203125 38.5 29 36.421875 29 28.484375 
C 29 19.859375 23.5 18.46875 20.90625 18.46875 
z
M 24.703125 -0.15625 
C 27.09375 -0.15625 37.203125 -0.15625 37.203125 -6.90625 
C 37.203125 -11.15625 31 -14.515625 23.5 -14.515625 
C 15.90625 -14.515625 9.703125 -11.25 9.703125 -6.796875 
C 9.703125 -6.296875 9.703125 -0.15625 16.59375 -0.15625 
z
" id="CMSS17-103"/>
      <path d="M 67 29.328125 
C 67 36.0625 65.296875 44 54.09375 44 
C 46.59375 44 42.09375 39.3125 40.09375 36.421875 
C 38.296875 41.71875 34.09375 44 28.09375 44 
C 21.296875 44 17 40.125 14.703125 37.328125 
L 14.703125 43.09375 
L 7.40625 43.09375 
L 7.40625 0 
L 15 0 
L 15 24.359375 
C 15 30.296875 17.203125 37.9375 24.296875 37.9375 
C 33.40625 37.9375 33.40625 31.5 33.40625 28.578125 
L 33.40625 0 
L 41 0 
L 41 24.359375 
C 41 30.296875 43.203125 37.9375 50.296875 37.9375 
C 59.40625 37.9375 59.40625 31.5 59.40625 28.578125 
L 59.40625 0 
L 67 0 
z
" id="CMSS17-109"/>
      <path d="M 15.09375 5.203125 
C 18.40625 2.015625 22.90625 -0.078125 27.703125 -0.078125 
C 37 -0.078125 45 9.421875 45 22.0625 
C 45 33.734375 39 44 30.40625 44 
C 25.40625 44 19.40625 42.21875 14.90625 38.625 
L 14.90625 43.203125 
L 7.5 43.203125 
L 7.5 -19 
L 15.09375 -19 
z
M 15.09375 32.8125 
C 15.90625 34 19.296875 37.734375 24.796875 37.734375 
C 31.796875 37.734375 37.40625 30.625 37.40625 22.0625 
C 37.40625 12.296875 30.59375 6 23.90625 6 
C 21.90625 6 19.796875 6.484375 17.796875 8.171875 
C 15.09375 10.53125 15.09375 12 15.09375 13.390625 
z
" id="CMSS17-112"/>
      <path d="M 14.796875 69 
L 7.40625 69 
L 7.40625 0 
L 14.796875 0 
z
" id="CMSS17-108"/>
      <path d="M 40.90625 42.796875 
L 33.296875 42.796875 
L 33.296875 15.1875 
C 33.296875 7.78125 27.90625 4.78125 22.203125 4.78125 
C 15.59375 4.78125 15 6.984375 15 11.078125 
L 15 42.796875 
L 7.40625 42.796875 
L 7.40625 10.59375 
C 7.40625 2.796875 10.09375 -1 17 -1 
C 20.40625 -1 28.09375 -0.203125 33.5 4.78125 
L 33.5 0 
L 40.90625 0 
z
" id="CMSS17-117"/>
      <path d="M 40.796875 69 
L 33.40625 69 
L 33.40625 38.09375 
C 30.296875 40.671875 25.203125 43.0625 19.59375 43.0625 
C 10.5 43.0625 3.296875 33.296875 3.296875 21.046875 
C 3.296875 8.78125 10.40625 -1 19.296875 -1 
C 26.203125 -1 30.796875 2.6875 33.203125 4.78125 
L 33.203125 -0.203125 
L 40.796875 -0.203125 
z
M 33.203125 13.0625 
C 33.203125 11.671875 33.203125 10.203125 30.09375 7.53125 
C 28.09375 5.859375 25.703125 5.078125 23.40625 5.078125 
C 18 5.078125 10.90625 9 10.90625 20.9375 
C 10.90625 33.34375 18.90625 37 24.40625 37 
C 28.09375 37 31.09375 35.21875 33.203125 32.265625 
z
" id="CMSS17-100"/>
      <path d="M 32.203125 41.046875 
C 26.296875 43.859375 21.703125 43.859375 18.703125 43.859375 
C 11.59375 43.859375 3.09375 41.375 3.09375 31.296875 
C 3.09375 21.234375 14.09375 19.03125 17.09375 18.421875 
C 21.703125 17.53125 26.796875 16.53125 26.796875 11.5625 
C 26.796875 5.265625 19.59375 5.265625 18.296875 5.265625 
C 14.296875 5.265625 8.796875 6.359375 3.796875 9.96875 
L 2.59375 3.28125 
C 8.296875 0 13.796875 -1 18.40625 -1 
C 30.703125 -1 33.796875 6.5 33.796875 12.203125 
C 33.796875 17.09375 31 20.390625 29.09375 21.890625 
C 25.796875 24.5 24.59375 24.796875 16.40625 26.5 
C 15 26.703125 10.09375 27.796875 10.09375 32.28125 
C 10.09375 38 16.40625 38 17.796875 38 
C 24.296875 38 28.296875 35.984375 31 34.5 
z
" id="CMSS17-115"/>
      <path d="M 16.796875 37 
L 26.90625 37 
L 26.90625 42.765625 
L 16.59375 42.765625 
L 16.59375 55.609375 
C 16.59375 62.71875 22 63.9375 25.09375 63.9375 
C 26.09375 63.9375 28.90625 63.9375 32.5 62.640625 
L 32.5 69.203125 
C 30.203125 69.703125 27.40625 70 25.203125 70 
C 15.90625 70 9.40625 62.390625 9.40625 52.484375 
L 9.40625 42.765625 
L 2.5 42.765625 
L 2.5 37 
L 9.40625 37 
L 9.40625 0 
L 16.796875 0 
z
" id="CMSS17-102"/>
      <path d="M 44.203125 21.1875 
C 44.203125 34 34.703125 44 23.5 44 
C 12 44 2.703125 33.703125 2.703125 21.1875 
C 2.703125 8.5 12.296875 -1 23.40625 -1 
C 34.796875 -1 44.203125 8.796875 44.203125 21.1875 
z
M 23.5 5.265625 
C 16.40625 5.265625 10.296875 11.078125 10.296875 22 
C 10.296875 33.609375 17.40625 37.921875 23.40625 37.921875 
C 29.90625 37.921875 36.59375 33.21875 36.59375 22 
C 36.59375 10.671875 30.09375 5.265625 23.5 5.265625 
z
" id="CMSS17-111"/>
      <path d="M 28.09375 66.515625 
C 28.203125 66.921875 28.40625 67.515625 28.40625 68 
C 28.40625 69 27.40625 69 27.203125 69 
C 27.09375 69 23.5 68.640625 21.703125 68.390625 
C 20 68.390625 18.5 68.09375 16.703125 68.09375 
C 14.296875 67.890625 13.59375 67.796875 13.59375 66 
C 13.59375 65 14.59375 65 15.59375 65 
C 20.703125 65 20.703125 64.109375 20.703125 63.125 
C 20.703125 62.734375 20.703125 62.53125 20.203125 60.75 
L 5.90625 3.875 
C 5.5 2.375 5.5 2.1875 5.5 1.578125 
C 5.5 -0.59375 7.203125 -1 8.203125 -1 
C 11 -1 11.59375 1.203125 12.40625 4.296875 
L 17.09375 22.953125 
C 24.296875 22.15625 28.59375 19.15625 28.59375 14.375 
C 28.59375 13.765625 28.59375 13.375 28.296875 11.875 
C 27.90625 10.375 27.90625 9.1875 27.90625 8.6875 
C 27.90625 2.890625 31.703125 -1 36.796875 -1 
C 41.40625 -1 43.796875 3.1875 44.59375 4.59375 
C 46.703125 8.28125 48 13.875 48 14.265625 
C 48 14.765625 47.59375 15.171875 47 15.171875 
C 46.09375 15.171875 46 14.765625 45.59375 13.171875 
C 44.203125 7.984375 42.09375 1 37 1 
C 35 1 33.703125 2 33.703125 5.78125 
C 33.703125 7.6875 34.09375 9.875 34.5 11.375 
C 34.90625 13.171875 34.90625 13.265625 34.90625 14.46875 
C 34.90625 20.359375 29.59375 23.65625 20.40625 24.84375 
C 24 27.046875 27.59375 30.9375 29 32.4375 
C 34.703125 38.8125 38.59375 42.015625 43.203125 42.015625 
C 45.5 42.015625 46.09375 41.40625 46.796875 40.8125 
C 43.09375 40.40625 41.703125 37.8125 41.703125 35.828125 
C 41.703125 33.421875 43.59375 32.625 45 32.625 
C 47.703125 32.625 50.09375 34.921875 50.09375 38.125 
C 50.09375 41.015625 47.796875 44 43.296875 44 
C 37.796875 44 33.296875 40.109375 26.203125 32.125 
C 25.203125 30.9375 21.5 27.140625 17.796875 25.75 
z
" id="CMMI12-107"/>
      <path d="M 30.09375 11.875 
C 29.59375 10.171875 29.59375 9.984375 28.203125 8.078125 
C 26 5.28125 21.59375 1 16.90625 1 
C 12.796875 1 10.5 4.6875 10.5 10.578125 
C 10.5 16.0625 13.59375 27.234375 15.5 31.4375 
C 18.90625 38.421875 23.59375 42.015625 27.5 42.015625 
C 34.09375 42.015625 35.40625 33.828125 35.40625 33.03125 
C 35.40625 32.9375 35.09375 31.625 35 31.4375 
z
M 36.5 37.421875 
C 35.40625 40.015625 32.703125 44 27.5 44 
C 16.203125 44 4 29.4375 4 14.671875 
C 4 4.796875 9.796875 -1 16.59375 -1 
C 22.09375 -1 26.796875 3.296875 29.59375 6.59375 
C 30.59375 0.703125 35.296875 -1 38.296875 -1 
C 41.296875 -1 43.703125 0.796875 45.5 4.390625 
C 47.09375 7.78125 48.5 13.875 48.5 14.265625 
C 48.5 14.765625 48.09375 15.171875 47.5 15.171875 
C 46.59375 15.171875 46.5 14.671875 46.09375 13.171875 
C 44.59375 7.28125 42.703125 1 38.59375 1 
C 35.703125 1 35.5 3.59375 35.5 5.59375 
C 35.5 7.890625 35.796875 8.984375 36.703125 12.875 
C 37.40625 15.375 37.90625 17.5625 38.703125 20.453125 
C 42.40625 35.421875 43.296875 39.015625 43.296875 39.609375 
C 43.296875 41.015625 42.203125 42.109375 40.703125 42.109375 
C 37.5 42.109375 36.703125 38.625 36.5 37.421875 
z
" id="CMMI12-97"/>
      <path d="M 64.296875 31.515625 
C 65.796875 31.515625 67.296875 31.515625 67.296875 33.203125 
C 67.296875 35 65.59375 35 63.90625 35 
L 8 35 
C 6.296875 35 4.59375 35 4.59375 33.203125 
C 4.59375 31.515625 6.09375 31.515625 7.59375 31.515625 
z
M 63.90625 14 
C 65.59375 14 67.296875 14 67.296875 15.796875 
C 67.296875 17.484375 65.796875 17.484375 64.296875 17.484375 
L 7.59375 17.484375 
C 6.09375 17.484375 4.59375 17.484375 4.59375 15.796875 
C 4.59375 14 6.296875 14 8 14 
z
" id="CMR17-61"/>
      <path d="M 18.40625 4.796875 
C 18.40625 7.6875 16 9.671875 13.59375 9.671875 
C 10.703125 9.671875 8.703125 7.28125 8.703125 4.890625 
C 8.703125 2 11.09375 0 13.5 0 
C 16.40625 0 18.40625 2.390625 18.40625 4.796875 
z
" id="CMMI12-58"/>
      <path d="M 17 0.09375 
L 17 7.96875 
L 9 7.96875 
L 9 0 
L 11.5 0 
L 8.90625 -12.5 
L 12.90625 -12.5 
z
" id="CMSS17-44"/>
      <path d="M 50.296875 66.515625 
C 50.40625 66.90625 50.59375 67.5 50.59375 68 
C 50.59375 69 49.59375 69 49.40625 69 
C 49.296875 69 44.40625 68.5625 43.90625 68.4375 
C 42.203125 68.328125 40.703125 68.09375 38.90625 68.09375 
C 36.40625 67.890625 35.703125 67.796875 35.703125 66 
C 35.703125 65 36.5 65 37.90625 65 
C 42.796875 65 42.90625 64.109375 42.90625 63.125 
C 42.90625 62.53125 42.703125 61.75 42.59375 61.453125 
L 36.5 37.421875 
C 35.40625 40.015625 32.703125 44 27.5 44 
C 16.203125 44 4 29.4375 4 14.671875 
C 4 4.796875 9.796875 -1 16.59375 -1 
C 22.09375 -1 26.796875 3.296875 29.59375 6.59375 
C 30.59375 0.703125 35.296875 -1 38.296875 -1 
C 41.296875 -1 43.703125 0.796875 45.5 4.390625 
C 47.09375 7.78125 48.5 13.875 48.5 14.265625 
C 48.5 14.765625 48.09375 15.171875 47.5 15.171875 
C 46.59375 15.171875 46.5 14.671875 46.09375 13.171875 
C 44.59375 7.28125 42.703125 1 38.59375 1 
C 35.703125 1 35.5 3.578125 35.5 5.578125 
C 35.5 5.96875 35.5 8.046875 36.203125 10.84375 
z
M 30.09375 11.875 
C 29.59375 10.171875 29.59375 9.984375 28.203125 8.078125 
C 26 5.28125 21.59375 1 16.90625 1 
C 12.796875 1 10.5 4.6875 10.5 10.578125 
C 10.5 16.0625 13.59375 27.234375 15.5 31.4375 
C 18.90625 38.421875 23.59375 42.015625 27.5 42.015625 
C 34.09375 42.015625 35.40625 33.828125 35.40625 33.03125 
C 35.40625 32.9375 35.09375 31.625 35 31.4375 
z
" id="CMMI12-100"/>
     </defs>
     <use transform="scale(0.996264)" xlink:href="#CMSS17-83"/>
     <use transform="translate(52.048516 0)scale(0.996264)" xlink:href="#CMSS17-99"/>
     <use transform="translate(93.687338 0)scale(0.996264)" xlink:href="#CMSS17-97"/>
     <use transform="translate(138.609259 0)scale(0.996264)" xlink:href="#CMSS17-116"/>
     <use transform="translate(172.440826 0)scale(0.996264)" xlink:href="#CMSS17-116"/>
     <use transform="translate(206.272392 0)scale(0.996264)" xlink:href="#CMSS17-101"/>
     <use transform="translate(247.911214 0)scale(0.996264)" xlink:href="#CMSS17-114"/>
     <use transform="translate(279.820987 0)scale(0.996264)" xlink:href="#CMSS17-105"/>
     <use transform="translate(302.00171 0)scale(0.996264)" xlink:href="#CMSS17-110"/>
     <use transform="translate(350.206653 0)scale(0.996264)" xlink:href="#CMSS17-103"/>
     <use transform="translate(428.279389 0)scale(0.996264)" xlink:href="#CMSS17-97"/>
     <use transform="translate(473.20131 0)scale(0.996264)" xlink:href="#CMSS17-109"/>
     <use transform="translate(547.430564 0)scale(0.996264)" xlink:href="#CMSS17-112"/>
     <use transform="translate(595.635507 0)scale(0.996264)" xlink:href="#CMSS17-108"/>
     <use transform="translate(617.816231 0)scale(0.996264)" xlink:href="#CMSS17-105"/>
     <use transform="translate(639.996954 0)scale(0.996264)" xlink:href="#CMSS17-116"/>
     <use transform="translate(673.82852 0)scale(0.996264)" xlink:href="#CMSS17-117"/>
     <use transform="translate(722.033463 0)scale(0.996264)" xlink:href="#CMSS17-100"/>
     <use transform="translate(770.238407 0)scale(0.996264)" xlink:href="#CMSS17-101"/>
     <use transform="translate(811.877229 0)scale(0.996264)" xlink:href="#CMSS17-115"/>
     <use transform="translate(879.019883 0)scale(0.996264)" xlink:href="#CMSS17-102"/>
     <use transform="translate(907.646542 0)scale(0.996264)" xlink:href="#CMSS17-111"/>
     <use transform="translate(951.887712 0)scale(0.996264)" xlink:href="#CMSS17-114"/>
     <use transform="translate(1015.026597 0)scale(0.996264)" xlink:href="#CMMI12-107"/>
     <use transform="translate(1069.105798 0)scale(0.996264)" xlink:href="#CMMI12-97"/>
     <use transform="translate(1147.987664 0)scale(0.996264)" xlink:href="#CMR17-61"/>
     <use transform="translate(1247.376461 0)scale(0.996264)" xlink:href="#CMR17-53"/>
     <use transform="translate(1293.066938 0)scale(0.996264)" xlink:href="#CMMI12-58"/>
     <use transform="translate(1320.164115 0)scale(0.996264)" xlink:href="#CMR17-48"/>
     <use transform="translate(1365.854593 0)scale(0.996264)" xlink:href="#CMSS17-44"/>
     <use transform="translate(1423.10791 0)scale(0.996264)" xlink:href="#CMMI12-107"/>
     <use transform="translate(1477.187111 0)scale(0.996264)" xlink:href="#CMMI12-100"/>
     <use transform="translate(1555.550216 0)scale(0.996264)" xlink:href="#CMR17-61"/>
     <use transform="translate(1654.939013 0)scale(0.996264)" xlink:href="#CMR17-52"/>
     <use transform="translate(1700.629491 0)scale(0.996264)" xlink:href="#CMR17-48"/>
     <use transform="translate(1746.319968 0)scale(0.996264)" xlink:href="#CMMI12-58"/>
     <use transform="translate(1773.417145 0)scale(0.996264)" xlink:href="#CMR17-48"/>
    </g>
   </g>
   <g id="legend_1">
    <g id="patch_7">
     <path d="M 549.987533 209.635594 
L 684.4 209.635594 
Q 688.4 209.635594 688.4 205.635594 
L 688.4 70.7 
Q 688.4 66.7 684.4 66.7 
L 549.987533 66.7 
Q 545.987533 66.7 545.987533 70.7 
L 545.987533 205.635594 
Q 545.987533 209.635594 549.987533 209.635594 
z
" style="fill:#ffffff;opacity:0.8;stroke:#cccccc;stroke-linejoin:miter;"/>
    </g>
    <g id="line2d_43">
     <path d="M 553.987533 83.509641 
L 593.987533 83.509641 
" style="fill:none;stroke:#0000ff;stroke-dasharray:7.4,3.2;stroke-dashoffset:0;stroke-width:2;"/>
    </g>
    <g id="line2d_44"/>
    <g id="text_23">
     <!-- $f^{exact}_{uncoupled}$ -->
     <g transform="translate(609.987533 90.509641)scale(0.2 -0.2)">
      <defs>
       <path d="M 17.90625 23.109375 
C 20.59375 23.109375 27.40625 23.109375 32.203125 24.921875 
C 39.796875 27.859375 40.5 33.71875 40.5 35.53125 
C 40.5 39.96875 36.703125 44 30.09375 44 
C 19.59375 44 4.5 34.53125 4.5 16.765625 
C 4.5 6.28125 10.5 -1 19.59375 -1 
C 33.203125 -1 41.796875 9.515625 41.796875 10.8125 
C 41.796875 11.40625 41.203125 11.90625 40.796875 11.90625 
C 40.5 11.90625 40.40625 11.8125 39.5 10.921875 
C 33.09375 2.484375 23.59375 1 19.796875 1 
C 14.09375 1 11.09375 5.46875 11.09375 12.84375 
C 11.09375 14.234375 11.09375 16.734375 12.59375 23.109375 
z
M 13.09375 25 
C 17.40625 40.5 26.90625 42.015625 30.09375 42.015625 
C 34.5 42.015625 37.5 39.40625 37.5 35.578125 
C 37.5 25 21.5 25 17.296875 25 
z
" id="CMMI12-101"/>
       <path d="M 47.40625 40.71875 
C 44.203125 40.109375 43 37.71875 43 35.828125 
C 43 33.421875 44.90625 32.625 46.296875 32.625 
C 49.296875 32.625 51.40625 35.21875 51.40625 37.921875 
C 51.40625 42.109375 46.59375 44 42.40625 44 
C 36.296875 44 32.90625 38.015625 32 36.125 
C 29.703125 44 23.5 44 21.703125 44 
C 11.5 44 6.09375 30.9375 6.09375 28.734375 
C 6.09375 28.34375 6.5 27.84375 7.203125 27.84375 
C 8 27.84375 8.203125 28.4375 8.40625 28.84375 
C 11.796875 39.921875 18.5 42.015625 21.40625 42.015625 
C 25.90625 42.015625 26.796875 37.8125 26.796875 35.421875 
C 26.796875 33.234375 26.203125 30.9375 25 26.140625 
L 21.59375 12.46875 
C 20.09375 6.484375 17.203125 1 11.90625 1 
C 11.40625 1 8.90625 1 6.796875 2.296875 
C 10.40625 3 11.203125 5.984375 11.203125 7.1875 
C 11.203125 9.1875 9.703125 10.375 7.796875 10.375 
C 5.40625 10.375 2.796875 8.28125 2.796875 5.09375 
C 2.796875 0.890625 7.5 -1 11.796875 -1 
C 16.59375 -1 20 2.796875 22.09375 6.890625 
C 23.703125 1 28.703125 -1 32.40625 -1 
C 42.59375 -1 48 12.078125 48 14.265625 
C 48 14.765625 47.59375 15.171875 47 15.171875 
C 46.09375 15.171875 46 14.671875 45.703125 13.875 
C 43 5.09375 37.203125 1 32.703125 1 
C 29.203125 1 27.296875 3.59375 27.296875 7.6875 
C 27.296875 9.875 27.703125 11.46875 29.296875 18.0625 
L 32.796875 31.625 
C 34.296875 37.625 37.703125 42.015625 42.296875 42.015625 
C 42.5 42.015625 45.296875 42.015625 47.40625 40.71875 
z
" id="CMMI12-120"/>
       <path d="M 39.09375 37.984375 
C 37.203125 37.984375 36.296875 37.984375 34.90625 36.796875 
C 34.296875 36.296875 33.203125 34.796875 33.203125 33.203125 
C 33.203125 31.203125 34.703125 30 36.59375 30 
C 39 30 41.703125 31.9375 41.703125 35.8125 
C 41.703125 40.4375 37.09375 44 30.203125 44 
C 17.09375 44 4 29.734375 4 15.5625 
C 4 6.890625 9.40625 -1 19.59375 -1 
C 33.203125 -1 41.796875 9.71875 41.796875 11.03125 
C 41.796875 11.625 41.203125 12.125 40.796875 12.125 
C 40.5 12.125 40.40625 12.03125 39.5 11.140625 
C 33.09375 2.53125 23.59375 1 19.796875 1 
C 12.90625 1 10.703125 6.96875 10.703125 11.9375 
C 10.703125 15.4375 12.40625 25.078125 16 31.859375 
C 18.59375 36.53125 24 41.90625 30.296875 41.90625 
C 31.59375 41.90625 37.09375 41.90625 39.09375 37.984375 
z
" id="CMMI12-99"/>
       <path d="M 20.09375 40.09375 
L 29.296875 40.09375 
C 31.203125 40.09375 32.203125 40.09375 32.203125 41.890625 
C 32.203125 43 31.59375 43 29.59375 43 
L 20.796875 43 
L 24.5 57.6875 
C 24.90625 59.078125 24.90625 59.28125 24.90625 60 
C 24.90625 61.609375 23.59375 62.5 22.296875 62.5 
C 21.5 62.5 19.203125 62.203125 18.40625 58.984375 
L 14.5 43 
L 5.09375 43 
C 3.09375 43 2.203125 43 2.203125 41.09375 
C 2.203125 40.09375 2.90625 40.09375 4.796875 40.09375 
L 13.703125 40.09375 
L 7.09375 13.765625 
C 6.296875 10.28125 6 9.28125 6 7.984375 
C 6 3.296875 9.296875 -1 14.90625 -1 
C 25 -1 30.40625 13.5625 30.40625 14.25 
C 30.40625 14.859375 30 15.15625 29.40625 15.15625 
C 29.203125 15.15625 28.796875 15.15625 28.59375 14.75 
C 28.5 14.65625 28.40625 14.546875 27.703125 12.953125 
C 25.59375 7.984375 21 1 15.203125 1 
C 12.203125 1 12 3.5 12 5.6875 
C 12 5.78125 12 7.6875 12.296875 8.875 
z
" id="CMMI12-116"/>
       <path d="M 34.09375 5.78125 
C 35.40625 0.203125 40.203125 -1 42.59375 -1 
C 45.796875 -1 48.203125 1.09375 49.796875 4.484375 
C 51.5 8.078125 52.796875 13.96875 52.796875 14.265625 
C 52.796875 14.765625 52.40625 15.171875 51.796875 15.171875 
C 50.90625 15.171875 50.796875 14.671875 50.40625 13.171875 
C 48.59375 6.28125 46.796875 1 42.796875 1 
C 39.796875 1 39.796875 4.296875 39.796875 5.59375 
C 39.796875 7.890625 40.09375 8.875 41.09375 13.078125 
C 41.796875 15.765625 42.5 18.453125 43.09375 21.25 
L 47.203125 37.515625 
C 47.90625 40.015625 47.90625 40.21875 47.90625 40.515625 
C 47.90625 42.015625 46.703125 43.015625 45.203125 43.015625 
C 42.296875 43.015625 41.59375 40.515625 41 38.015625 
C 40 34.125 34.59375 12.671875 33.90625 9.1875 
C 33.796875 9.1875 29.90625 1 22.59375 1 
C 17.40625 1 16.40625 5.484375 16.40625 9.1875 
C 16.40625 14.875 19.203125 22.84375 21.796875 29.53125 
C 23 32.734375 23.5 34.03125 23.5 36.015625 
C 23.5 40.3125 20.40625 44 15.59375 44 
C 6.40625 44 2.703125 29.53125 2.703125 28.734375 
C 2.703125 28.34375 3.09375 27.84375 3.796875 27.84375 
C 4.703125 27.84375 4.796875 28.234375 5.203125 29.625 
C 7.59375 38.140625 11.5 41.90625 15.296875 41.90625 
C 16.296875 41.90625 17.90625 41.90625 17.90625 38.71875 
C 17.90625 36.125 16.796875 33.234375 15.296875 29.4375 
C 10.90625 17.5625 10.40625 13.765625 10.40625 10.78125 
C 10.40625 0.59375 18.09375 -1 22.203125 -1 
C 28.59375 -1 32.09375 3.390625 34.09375 5.78125 
z
" id="CMMI12-117"/>
       <path d="M 20.59375 29.234375 
C 20.796875 29.84375 23.296875 34.828125 27 38.015625 
C 29.59375 40.40625 33 42.015625 36.90625 42.015625 
C 40.90625 42.015625 42.296875 39.015625 42.296875 35.03125 
C 42.296875 29.34375 38.203125 17.96875 36.203125 12.578125 
C 35.296875 10.171875 34.796875 8.875 34.796875 7.078125 
C 34.796875 2.59375 37.90625 -1 42.703125 -1 
C 52 -1 55.5 13.671875 55.5 14.265625 
C 55.5 14.765625 55.09375 15.171875 54.5 15.171875 
C 53.59375 15.171875 53.5 14.875 53 13.171875 
C 50.703125 4.984375 46.90625 1 43 1 
C 42 1 40.40625 1 40.40625 4.203125 
C 40.40625 6.703125 41.5 9.703125 42.09375 11.09375 
C 44.09375 16.609375 48.296875 27.8125 48.296875 33.515625 
C 48.296875 39.5 44.796875 44 37.203125 44 
C 28.296875 44 23.59375 37.734375 21.796875 35.234375 
C 21.5 40.90625 17.40625 44 13 44 
C 9.796875 44 7.59375 42.109375 5.90625 38.71875 
C 4.09375 35.125 2.703125 29.140625 2.703125 28.734375 
C 2.703125 28.34375 3.09375 27.84375 3.796875 27.84375 
C 4.59375 27.84375 4.703125 27.9375 5.296875 30.234375 
C 6.90625 36.328125 8.703125 42.015625 12.703125 42.015625 
C 15 42.015625 15.796875 40.40625 15.796875 37.421875 
C 15.796875 35.21875 14.796875 31.328125 14.09375 28.234375 
L 11.296875 17.46875 
C 10.90625 15.5625 9.796875 11.078125 9.296875 9.28125 
C 8.59375 6.6875 7.5 2 7.5 1.5 
C 7.5 0.09375 8.59375 -1 10.09375 -1 
C 11.296875 -1 12.703125 -0.40625 13.5 1.09375 
C 13.703125 1.59375 14.59375 5.09375 15.09375 7.078125 
L 17.296875 16.0625 
z
" id="CMMI12-110"/>
       <path d="M 45.59375 27.4375 
C 45.59375 36.921875 39.40625 44 30.296875 44 
C 17.09375 44 4.09375 29.640625 4.09375 15.5625 
C 4.09375 6.09375 10.296875 -1 19.40625 -1 
C 32.703125 -1 45.59375 13.375 45.59375 27.4375 
z
M 19.5 1 
C 14.5 1 10.796875 4.984375 10.796875 11.96875 
C 10.796875 16.5625 13.203125 26.75 16 31.734375 
C 20.5 39.421875 26.09375 42.015625 30.203125 42.015625 
C 35.09375 42.015625 38.90625 38.015625 38.90625 31.03125 
C 38.90625 27.046875 36.796875 16.359375 33 10.28125 
C 28.90625 3.59375 23.40625 1 19.5 1 
z
" id="CMMI12-111"/>
       <path d="M 4.296875 -12.328125 
C 3.59375 -15.3125 3.203125 -16.109375 -0.90625 -16.109375 
C -2.09375 -16.109375 -3.09375 -16.109375 -3.09375 -18 
C -3.09375 -18.203125 -3 -19 -1.90625 -19 
C -0.59375 -19 0.796875 -19 2.09375 -19 
L 6.40625 -19 
C 8.5 -19 13.59375 -19 15.703125 -19 
C 16.296875 -19 17.5 -19 17.5 -17.203125 
C 17.5 -16.109375 16.796875 -16.109375 15.09375 -16.109375 
C 10.5 -16.109375 10.203125 -15.421875 10.203125 -14.640625 
C 10.203125 -13.453125 14.703125 3.421875 15.296875 5.6875 
C 16.40625 2.890625 19.09375 -1 24.296875 -1 
C 35.59375 -1 47.796875 13.671875 47.796875 28.34375 
C 47.796875 37.515625 42.59375 44 35.09375 44 
C 28.703125 44 23.296875 37.8125 22.203125 36.421875 
C 21.40625 41.40625 17.5 44 13.5 44 
C 10.59375 44 8.296875 42.609375 6.40625 38.8125 
C 4.59375 35.21875 3.203125 29.140625 3.203125 28.734375 
C 3.203125 28.34375 3.59375 27.84375 4.296875 27.84375 
C 5.09375 27.84375 5.203125 27.9375 5.796875 30.234375 
C 7.296875 36.125 9.203125 42.015625 13.203125 42.015625 
C 15.5 42.015625 16.296875 40.421875 16.296875 37.453125 
C 16.296875 35.078125 16 34.078125 15.59375 32.296875 
z
M 21.59375 31.140625 
C 22.296875 33.921875 25.09375 36.828125 26.703125 38.21875 
C 27.796875 39.21875 31.09375 42.015625 34.90625 42.015625 
C 39.296875 42.015625 41.296875 37.625 41.296875 32.4375 
C 41.296875 27.640625 38.5 16.359375 36 11.171875 
C 33.5 5.78125 28.90625 1 24.296875 1 
C 17.5 1 16.40625 9.578125 16.40625 9.984375 
C 16.40625 10.28125 16.59375 11.078125 16.703125 11.578125 
z
" id="CMMI12-112"/>
       <path d="M 25.40625 66.515625 
C 25.5 66.90625 25.703125 67.5 25.703125 68 
C 25.703125 69 24.703125 69 24.5 69 
C 24.40625 69 20.796875 68.640625 19 68.390625 
C 17.296875 68.390625 15.796875 68.09375 14 68.09375 
C 11.59375 67.890625 10.90625 67.796875 10.90625 66 
C 10.90625 65 11.90625 65 12.90625 65 
C 18 65 18 64.09375 18 63.109375 
C 18 62.71875 18 62.515625 17.5 60.734375 
L 5.09375 11.421875 
C 4.796875 10.328125 4.59375 9.53125 4.59375 7.953125 
C 4.59375 2.984375 8.296875 -1 13.40625 -1 
C 16.703125 -1 18.90625 1.1875 20.5 4.28125 
C 22.203125 7.546875 23.59375 13.8125 23.59375 14.203125 
C 23.59375 14.703125 23.203125 15.109375 22.59375 15.109375 
C 21.703125 15.109375 21.59375 14.609375 21.203125 13.125 
C 19.40625 6.265625 17.59375 1 13.59375 1 
C 10.59375 1 10.59375 4.171875 10.59375 5.578125 
C 10.59375 5.96875 10.59375 8.046875 11.296875 10.84375 
z
" id="CMMI12-108"/>
      </defs>
      <use transform="scale(0.996264)" xlink:href="#CMMI12-102"/>
      <use transform="translate(58.720305 36.153639)scale(0.697382)" xlink:href="#CMMI12-101"/>
      <use transform="translate(90.368561 36.153639)scale(0.697382)" xlink:href="#CMMI12-120"/>
      <use transform="translate(129.17222 36.153639)scale(0.697382)" xlink:href="#CMMI12-97"/>
      <use transform="translate(165.017567 36.153639)scale(0.697382)" xlink:href="#CMMI12-99"/>
      <use transform="translate(194.405698 36.153639)scale(0.697382)" xlink:href="#CMMI12-116"/>
      <use transform="translate(48.083238 -28.21539)scale(0.697382)" xlink:href="#CMMI12-117"/>
      <use transform="translate(86.947294 -28.21539)scale(0.697382)" xlink:href="#CMMI12-110"/>
      <use transform="translate(127.708137 -28.21539)scale(0.697382)" xlink:href="#CMMI12-99"/>
      <use transform="translate(157.096268 -28.21539)scale(0.697382)" xlink:href="#CMMI12-111"/>
      <use transform="translate(189.92283 -28.21539)scale(0.697382)" xlink:href="#CMMI12-117"/>
      <use transform="translate(228.786886 -28.21539)scale(0.697382)" xlink:href="#CMMI12-112"/>
      <use transform="translate(263.058392 -28.21539)scale(0.697382)" xlink:href="#CMMI12-108"/>
      <use transform="translate(284.932176 -28.21539)scale(0.697382)" xlink:href="#CMMI12-101"/>
      <use transform="translate(316.580432 -28.21539)scale(0.697382)" xlink:href="#CMMI12-100"/>
     </g>
    </g>
    <g id="line2d_45">
     <path d="M 553.987533 117.674364 
L 593.987533 117.674364 
" style="fill:none;stroke:#0000ff;stroke-linecap:square;stroke-width:2;"/>
    </g>
    <g id="line2d_46"/>
    <g id="text_24">
     <!-- $f^{exact}_{coupled}$ -->
     <g transform="translate(609.987533 124.674364)scale(0.2 -0.2)">
      <use transform="scale(0.996264)" xlink:href="#CMMI12-102"/>
      <use transform="translate(58.720305 36.153639)scale(0.697382)" xlink:href="#CMMI12-101"/>
      <use transform="translate(90.368561 36.153639)scale(0.697382)" xlink:href="#CMMI12-120"/>
      <use transform="translate(129.17222 36.153639)scale(0.697382)" xlink:href="#CMMI12-97"/>
      <use transform="translate(165.017567 36.153639)scale(0.697382)" xlink:href="#CMMI12-99"/>
      <use transform="translate(194.405698 36.153639)scale(0.697382)" xlink:href="#CMMI12-116"/>
      <use transform="translate(48.083238 -28.21539)scale(0.697382)" xlink:href="#CMMI12-99"/>
      <use transform="translate(77.471369 -28.21539)scale(0.697382)" xlink:href="#CMMI12-111"/>
      <use transform="translate(110.297931 -28.21539)scale(0.697382)" xlink:href="#CMMI12-117"/>
      <use transform="translate(149.161987 -28.21539)scale(0.697382)" xlink:href="#CMMI12-112"/>
      <use transform="translate(183.433493 -28.21539)scale(0.697382)" xlink:href="#CMMI12-108"/>
      <use transform="translate(205.307277 -28.21539)scale(0.697382)" xlink:href="#CMMI12-101"/>
      <use transform="translate(236.955533 -28.21539)scale(0.697382)" xlink:href="#CMMI12-100"/>
     </g>
    </g>
    <g id="line2d_47">
     <path d="M 553.987533 151.609844 
L 593.987533 151.609844 
" style="fill:none;stroke:#ff0000;stroke-dasharray:7.4,3.2;stroke-dashoffset:0;stroke-width:2;"/>
    </g>
    <g id="line2d_48"/>
    <g id="text_25">
     <!-- $f^{approx}_{uncoupled}$ -->
     <g transform="translate(609.987533 158.609844)scale(0.2 -0.2)">
      <defs>
       <path d="M 38.90625 40.8125 
C 35.796875 40.21875 34.203125 38.015625 34.203125 35.828125 
C 34.203125 33.421875 36.09375 32.625 37.5 32.625 
C 40.296875 32.625 42.59375 35.03125 42.59375 38.015625 
C 42.59375 41.21875 39.5 44 34.5 44 
C 30.5 44 25.90625 42.203125 21.703125 36.125 
C 21 41.40625 17 44 13 44 
C 9.09375 44 7.09375 41.015625 5.90625 38.8125 
C 4.203125 35.21875 2.703125 29.234375 2.703125 28.734375 
C 2.703125 28.34375 3.09375 27.84375 3.796875 27.84375 
C 4.59375 27.84375 4.703125 27.9375 5.296875 30.234375 
C 6.796875 36.21875 8.703125 42.015625 12.703125 42.015625 
C 15.09375 42.015625 15.796875 40.3125 15.796875 37.421875 
C 15.796875 35.21875 14.796875 31.328125 14.09375 28.234375 
L 11.296875 17.46875 
C 10.90625 15.5625 9.796875 11.078125 9.296875 9.28125 
C 8.59375 6.6875 7.5 2 7.5 1.5 
C 7.5 0.09375 8.59375 -1 10.09375 -1 
C 11.203125 -1 13.09375 -0.296875 13.703125 1.703125 
C 14 2.5 17.703125 17.5625 18.296875 19.859375 
C 18.796875 22.046875 19.40625 24.15625 19.90625 26.34375 
C 20.296875 27.734375 20.703125 29.34375 21 30.640625 
C 21.296875 31.53125 24 36.421875 26.5 38.625 
C 27.703125 39.71875 30.296875 42.015625 34.40625 42.015625 
C 36 42.015625 37.59375 41.71875 38.90625 40.8125 
z
" id="CMMI12-114"/>
      </defs>
      <use transform="scale(0.996264)" xlink:href="#CMMI12-102"/>
      <use transform="translate(58.720305 47.87587)scale(0.697382)" xlink:href="#CMMI12-97"/>
      <use transform="translate(94.565652 47.87587)scale(0.697382)" xlink:href="#CMMI12-112"/>
      <use transform="translate(128.837158 47.87587)scale(0.697382)" xlink:href="#CMMI12-112"/>
      <use transform="translate(163.108664 47.87587)scale(0.697382)" xlink:href="#CMMI12-114"/>
      <use transform="translate(195.777933 47.87587)scale(0.697382)" xlink:href="#CMMI12-111"/>
      <use transform="translate(228.604495 47.87587)scale(0.697382)" xlink:href="#CMMI12-120"/>
      <use transform="translate(48.083238 -30.0533)scale(0.697382)" xlink:href="#CMMI12-117"/>
      <use transform="translate(86.947294 -30.0533)scale(0.697382)" xlink:href="#CMMI12-110"/>
      <use transform="translate(127.708137 -30.0533)scale(0.697382)" xlink:href="#CMMI12-99"/>
      <use transform="translate(157.096268 -30.0533)scale(0.697382)" xlink:href="#CMMI12-111"/>
      <use transform="translate(189.92283 -30.0533)scale(0.697382)" xlink:href="#CMMI12-117"/>
      <use transform="translate(228.786886 -30.0533)scale(0.697382)" xlink:href="#CMMI12-112"/>
      <use transform="translate(263.058392 -30.0533)scale(0.697382)" xlink:href="#CMMI12-108"/>
      <use transform="translate(284.932176 -30.0533)scale(0.697382)" xlink:href="#CMMI12-101"/>
      <use transform="translate(316.580432 -30.0533)scale(0.697382)" xlink:href="#CMMI12-100"/>
     </g>
    </g>
    <g id="line2d_49">
     <path d="M 553.987533 185.912918 
L 593.987533 185.912918 
" style="fill:none;stroke:#ff0000;stroke-linecap:square;stroke-width:2;"/>
    </g>
    <g id="line2d_50"/>
    <g id="text_26">
     <!-- $f^{approx}_{coupled}$ -->
     <g transform="translate(609.987533 192.912918)scale(0.2 -0.2)">
      <use transform="scale(0.996264)" xlink:href="#CMMI12-102"/>
      <use transform="translate(58.720305 47.87587)scale(0.697382)" xlink:href="#CMMI12-97"/>
      <use transform="translate(94.565652 47.87587)scale(0.697382)" xlink:href="#CMMI12-112"/>
      <use transform="translate(128.837158 47.87587)scale(0.697382)" xlink:href="#CMMI12-112"/>
      <use transform="translate(163.108664 47.87587)scale(0.697382)" xlink:href="#CMMI12-114"/>
      <use transform="translate(195.777933 47.87587)scale(0.697382)" xlink:href="#CMMI12-111"/>
      <use transform="translate(228.604495 47.87587)scale(0.697382)" xlink:href="#CMMI12-120"/>
      <use transform="translate(48.083238 -30.0533)scale(0.697382)" xlink:href="#CMMI12-99"/>
      <use transform="translate(77.471369 -30.0533)scale(0.697382)" xlink:href="#CMMI12-111"/>
      <use transform="translate(110.297931 -30.0533)scale(0.697382)" xlink:href="#CMMI12-117"/>
      <use transform="translate(149.161987 -30.0533)scale(0.697382)" xlink:href="#CMMI12-112"/>
      <use transform="translate(183.433493 -30.0533)scale(0.697382)" xlink:href="#CMMI12-108"/>
      <use transform="translate(205.307277 -30.0533)scale(0.697382)" xlink:href="#CMMI12-101"/>
      <use transform="translate(236.955533 -30.0533)scale(0.697382)" xlink:href="#CMMI12-100"/>
     </g>
    </g>
   </g>
  </g>
 </g>
 <defs>
  <clipPath id="pae0cdf7765">
   <rect height="664.2" width="590.4" x="108" y="56.7"/>
  </clipPath>
 </defs>
</svg>
