<?xml version="1.0" encoding="utf-8" standalone="no"?>
<!DOCTYPE svg PUBLIC "-//W3C//DTD SVG 1.1//EN"
  "http://www.w3.org/Graphics/SVG/1.1/DTD/svg11.dtd">
<!-- Created with matplotlib (https://matplotlib.org/) -->
<svg height="810pt" version="1.1" viewBox="0 0 720 810" width="720pt" xmlns="http://www.w3.org/2000/svg" xmlns:xlink="http://www.w3.org/1999/xlink">
 <metadata>
  <rdf:RDF xmlns:cc="http://creativecommons.org/ns#" xmlns:dc="http://purl.org/dc/elements/1.1/" xmlns:rdf="http://www.w3.org/1999/02/22-rdf-syntax-ns#">
   <cc:Work>
    <dc:type rdf:resource="http://purl.org/dc/dcmitype/StillImage"/>
    <dc:date>2020-11-24T15:13:39.373063</dc:date>
    <dc:format>image/svg+xml</dc:format>
    <dc:creator>
     <cc:Agent>
      <dc:title>Matplotlib v3.3.1, https://matplotlib.org/</dc:title>
     </cc:Agent>
    </dc:creator>
   </cc:Work>
  </rdf:RDF>
 </metadata>
 <defs>
  <style type="text/css">*{stroke-linecap:butt;stroke-linejoin:round;}</style>
 </defs>
 <g id="figure_1">
  <g id="patch_1">
   <path d="M 0 810 
L 720 810 
L 720 0 
L 0 0 
z
" style="fill:#ffffff;"/>
  </g>
  <g id="axes_1">
   <g id="patch_2">
    <path d="M 108 720.9 
L 698.4 720.9 
L 698.4 56.7 
L 108 56.7 
z
" style="fill:#ffffff;"/>
   </g>
   <g id="matplotlib.axis_1">
    <g id="xtick_1">
     <g id="line2d_1">
      <path clip-path="url(#p54b97879db)" d="M 108 720.9 
L 108 56.7 
" style="fill:none;stroke:#e6e6e6;stroke-linecap:square;stroke-width:0.8;"/>
     </g>
     <g id="line2d_2">
      <defs>
       <path d="M 0 0 
L 0 -3.5 
" id="m76e9c71c0f" style="stroke:#000000;stroke-width:0.8;"/>
      </defs>
      <g>
       <use style="stroke:#000000;stroke-width:0.8;" x="108" xlink:href="#m76e9c71c0f" y="720.9"/>
      </g>
     </g>
     <g id="text_1">
      <!-- $\mathdefault{0}$ -->
      <g transform="translate(104.341881 734.777725)scale(0.15 -0.15)">
       <defs>
        <path d="M 42 31.640625 
C 42 37.75 41.90625 48.125 37.703125 56.109375 
C 34 63.109375 28.09375 65.59375 22.90625 65.59375 
C 18.09375 65.59375 12 63.40625 8.203125 56.203125 
C 4.203125 48.71875 3.796875 39.4375 3.796875 31.640625 
C 3.796875 25.953125 3.90625 17.28125 7 9.671875 
C 11.296875 -0.609375 19 -2 22.90625 -2 
C 27.5 -2 34.5 -0.109375 38.59375 9.375 
C 41.59375 16.28125 42 24.359375 42 31.640625 
z
M 22.90625 -0.40625 
C 16.5 -0.40625 12.703125 5.078125 11.296875 12.6875 
C 10.203125 18.5625 10.203125 27.15625 10.203125 32.75 
C 10.203125 40.4375 10.203125 46.828125 11.5 52.921875 
C 13.40625 61.390625 19 64 22.90625 64 
C 27 64 32.296875 61.296875 34.203125 53.125 
C 35.5 47.4375 35.59375 40.734375 35.59375 32.75 
C 35.59375 26.25 35.59375 18.265625 34.40625 12.375 
C 32.296875 1.484375 26.40625 -0.40625 22.90625 -0.40625 
z
" id="CMR17-48"/>
       </defs>
       <use transform="scale(0.996264)" xlink:href="#CMR17-48"/>
      </g>
     </g>
    </g>
    <g id="xtick_2">
     <g id="line2d_3">
      <path clip-path="url(#p54b97879db)" d="M 173.6 720.9 
L 173.6 56.7 
" style="fill:none;stroke:#e6e6e6;stroke-linecap:square;stroke-width:0.8;"/>
     </g>
     <g id="line2d_4">
      <g>
       <use style="stroke:#000000;stroke-width:0.8;" x="173.6" xlink:href="#m76e9c71c0f" y="720.9"/>
      </g>
     </g>
     <g id="text_2">
      <!-- $\mathdefault{20}$ -->
      <g transform="translate(166.283762 734.777725)scale(0.15 -0.15)">
       <defs>
        <path d="M 41.703125 15.453125 
L 39.90625 15.453125 
C 38.90625 8.375 38.09375 7.171875 37.703125 6.5625 
C 37.203125 5.765625 30 5.765625 28.59375 5.765625 
L 9.40625 5.765625 
C 13 9.671875 20 16.75 28.5 24.953125 
C 34.59375 30.734375 41.703125 37.53125 41.703125 47.421875 
C 41.703125 59.21875 32.296875 66 21.796875 66 
C 10.796875 66 4.09375 56.3125 4.09375 47.34375 
C 4.09375 43.4375 7 42.9375 8.203125 42.9375 
C 9.203125 42.9375 12.203125 43.546875 12.203125 47.03125 
C 12.203125 50.109375 9.59375 51 8.203125 51 
C 7.59375 51 7 50.90625 6.59375 50.703125 
C 8.5 59.21875 14.296875 63.40625 20.40625 63.40625 
C 29.09375 63.40625 34.796875 56.515625 34.796875 47.421875 
C 34.796875 38.734375 29.703125 31.25 24 24.75 
L 4.09375 2.28125 
L 4.09375 0 
L 39.296875 0 
z
" id="CMR17-50"/>
       </defs>
       <use transform="scale(0.996264)" xlink:href="#CMR17-50"/>
       <use transform="translate(45.690477 0)scale(0.996264)" xlink:href="#CMR17-48"/>
      </g>
     </g>
    </g>
    <g id="xtick_3">
     <g id="line2d_5">
      <path clip-path="url(#p54b97879db)" d="M 239.2 720.9 
L 239.2 56.7 
" style="fill:none;stroke:#e6e6e6;stroke-linecap:square;stroke-width:0.8;"/>
     </g>
     <g id="line2d_6">
      <g>
       <use style="stroke:#000000;stroke-width:0.8;" x="239.2" xlink:href="#m76e9c71c0f" y="720.9"/>
      </g>
     </g>
     <g id="text_3">
      <!-- $\mathdefault{40}$ -->
      <g transform="translate(231.883762 734.777725)scale(0.15 -0.15)">
       <defs>
        <path d="M 33.59375 64.40625 
C 33.59375 66.5 33.5 66.5 31.703125 66.5 
L 2 19.59375 
L 2 17 
L 27.796875 17 
L 27.796875 7.140625 
C 27.796875 3.5 27.59375 2.5 20.59375 2.5 
L 18.703125 2.5 
L 18.703125 0 
C 21.90625 0 27.296875 0 30.703125 0 
C 34.09375 0 39.5 0 42.703125 0 
L 42.703125 2.5 
L 40.796875 2.5 
C 33.796875 2.5 33.59375 3.5 33.59375 7.140625 
L 33.59375 17 
L 43.796875 17 
L 43.796875 19.59375 
L 33.59375 19.59375 
z
M 28.09375 57.859375 
L 28.09375 19.59375 
L 4 19.59375 
z
" id="CMR17-52"/>
       </defs>
       <use transform="scale(0.996264)" xlink:href="#CMR17-52"/>
       <use transform="translate(45.690477 0)scale(0.996264)" xlink:href="#CMR17-48"/>
      </g>
     </g>
    </g>
    <g id="xtick_4">
     <g id="line2d_7">
      <path clip-path="url(#p54b97879db)" d="M 304.8 720.9 
L 304.8 56.7 
" style="fill:none;stroke:#e6e6e6;stroke-linecap:square;stroke-width:0.8;"/>
     </g>
     <g id="line2d_8">
      <g>
       <use style="stroke:#000000;stroke-width:0.8;" x="304.8" xlink:href="#m76e9c71c0f" y="720.9"/>
      </g>
     </g>
     <g id="text_4">
      <!-- $\mathdefault{60}$ -->
      <g transform="translate(297.483762 734.777725)scale(0.15 -0.15)">
       <defs>
        <path d="M 10.59375 34 
C 10.59375 57.65625 21.796875 63 28.296875 63 
C 30.40625 63 35.5 62.640625 37.5 59 
C 35.90625 59 32.90625 59 32.90625 55.515625 
C 32.90625 52.828125 35.09375 51.921875 36.5 51.921875 
C 37.40625 51.921875 40.09375 52.3125 40.09375 55.625 
C 40.09375 61.78125 35.09375 65.296875 28.203125 65.296875 
C 16.296875 65.296875 3.796875 52.96875 3.796875 31 
C 3.796875 3.953125 15.09375 -2 23.09375 -2 
C 32.796875 -2 42 6.671875 42 20.046875 
C 42 32.515625 33.90625 41.59375 23.703125 41.59375 
C 17.59375 41.59375 13.09375 37.609375 10.59375 30.625 
z
M 23.09375 0.390625 
C 10.796875 0.390625 10.796875 18.75 10.796875 22.4375 
C 10.796875 29.625 14.203125 40 23.5 40 
C 25.203125 40 30.09375 40 33.40625 33.125 
C 35.203125 29.21875 35.203125 25.140625 35.203125 20.140625 
C 35.203125 14.75 35.203125 10.78125 33.09375 6.78125 
C 30.90625 2.671875 27.703125 0.390625 23.09375 0.390625 
z
" id="CMR17-54"/>
       </defs>
       <use transform="scale(0.996264)" xlink:href="#CMR17-54"/>
       <use transform="translate(45.690477 0)scale(0.996264)" xlink:href="#CMR17-48"/>
      </g>
     </g>
    </g>
    <g id="xtick_5">
     <g id="line2d_9">
      <path clip-path="url(#p54b97879db)" d="M 370.4 720.9 
L 370.4 56.7 
" style="fill:none;stroke:#e6e6e6;stroke-linecap:square;stroke-width:0.8;"/>
     </g>
     <g id="line2d_10">
      <g>
       <use style="stroke:#000000;stroke-width:0.8;" x="370.4" xlink:href="#m76e9c71c0f" y="720.9"/>
      </g>
     </g>
     <g id="text_5">
      <!-- $\mathdefault{80}$ -->
      <g transform="translate(363.083762 734.777725)scale(0.15 -0.15)">
       <defs>
        <path d="M 27.203125 35.375 
C 33.5 38.546875 39.90625 43.328125 39.90625 50.984375 
C 39.90625 60.015625 31.09375 65.296875 23 65.296875 
C 13.90625 65.296875 5.90625 58.734375 5.90625 49.6875 
C 5.90625 47.203125 6.5 42.921875 10.40625 39.140625 
C 11.40625 38.15625 15.59375 35.171875 18.296875 33.28125 
C 13.796875 30.984375 3.296875 25.53125 3.296875 14.59375 
C 3.296875 4.359375 13.09375 -2 22.796875 -2 
C 33.5 -2 42.5 5.65625 42.5 15.78125 
C 42.5 24.84375 36.40625 29.015625 32.40625 31.703125 
z
M 14.09375 44.09375 
C 13.296875 44.59375 9.296875 47.671875 9.296875 52.359375 
C 9.296875 58.421875 15.59375 63 22.796875 63 
C 30.703125 63 36.5 57.4375 36.5 50.96875 
C 36.5 41.703125 26.09375 36.421875 25.59375 36.421875 
C 25.5 36.421875 25.40625 36.421875 24.59375 37.03125 
z
M 32.5 23.734375 
C 34 22.640625 38.796875 19.375 38.796875 13.296875 
C 38.796875 5.953125 31.40625 0.390625 23 0.390625 
C 13.90625 0.390625 7 6.84375 7 14.6875 
C 7 22.546875 13.09375 29.09375 20 32.1875 
z
" id="CMR17-56"/>
       </defs>
       <use transform="scale(0.996264)" xlink:href="#CMR17-56"/>
       <use transform="translate(45.690477 0)scale(0.996264)" xlink:href="#CMR17-48"/>
      </g>
     </g>
    </g>
    <g id="xtick_6">
     <g id="line2d_11">
      <path clip-path="url(#p54b97879db)" d="M 436 720.9 
L 436 56.7 
" style="fill:none;stroke:#e6e6e6;stroke-linecap:square;stroke-width:0.8;"/>
     </g>
     <g id="line2d_12">
      <g>
       <use style="stroke:#000000;stroke-width:0.8;" x="436" xlink:href="#m76e9c71c0f" y="720.9"/>
      </g>
     </g>
     <g id="text_6">
      <!-- $\mathdefault{100}$ -->
      <g transform="translate(425.025643 734.777725)scale(0.15 -0.15)">
       <defs>
        <path d="M 26.59375 63.40625 
C 26.59375 65.5 26.5 65.5 25.09375 65.5 
C 21.203125 61.1875 15.296875 59.796875 9.703125 59.796875 
C 9.40625 59.796875 8.90625 59.796875 8.796875 59.5 
C 8.703125 59.296875 8.703125 59.09375 8.703125 57 
C 11.796875 57 17 57.59375 21 59.984375 
L 21 7.203125 
C 21 3.6875 20.796875 2.5 12.203125 2.5 
L 9.203125 2.5 
L 9.203125 0 
C 14 0 19 0 23.796875 0 
C 28.59375 0 33.59375 0 38.40625 0 
L 38.40625 2.5 
L 35.40625 2.5 
C 26.796875 2.5 26.59375 3.59375 26.59375 7.15625 
z
" id="CMR17-49"/>
       </defs>
       <use transform="scale(0.996264)" xlink:href="#CMR17-49"/>
       <use transform="translate(45.690477 0)scale(0.996264)" xlink:href="#CMR17-48"/>
       <use transform="translate(91.380954 0)scale(0.996264)" xlink:href="#CMR17-48"/>
      </g>
     </g>
    </g>
    <g id="xtick_7">
     <g id="line2d_13">
      <path clip-path="url(#p54b97879db)" d="M 501.6 720.9 
L 501.6 56.7 
" style="fill:none;stroke:#e6e6e6;stroke-linecap:square;stroke-width:0.8;"/>
     </g>
     <g id="line2d_14">
      <g>
       <use style="stroke:#000000;stroke-width:0.8;" x="501.6" xlink:href="#m76e9c71c0f" y="720.9"/>
      </g>
     </g>
     <g id="text_7">
      <!-- $\mathdefault{120}$ -->
      <g transform="translate(490.625643 734.777725)scale(0.15 -0.15)">
       <use transform="scale(0.996264)" xlink:href="#CMR17-49"/>
       <use transform="translate(45.690477 0)scale(0.996264)" xlink:href="#CMR17-50"/>
       <use transform="translate(91.380954 0)scale(0.996264)" xlink:href="#CMR17-48"/>
      </g>
     </g>
    </g>
    <g id="xtick_8">
     <g id="line2d_15">
      <path clip-path="url(#p54b97879db)" d="M 567.2 720.9 
L 567.2 56.7 
" style="fill:none;stroke:#e6e6e6;stroke-linecap:square;stroke-width:0.8;"/>
     </g>
     <g id="line2d_16">
      <g>
       <use style="stroke:#000000;stroke-width:0.8;" x="567.2" xlink:href="#m76e9c71c0f" y="720.9"/>
      </g>
     </g>
     <g id="text_8">
      <!-- $\mathdefault{140}$ -->
      <g transform="translate(556.225643 734.777725)scale(0.15 -0.15)">
       <use transform="scale(0.996264)" xlink:href="#CMR17-49"/>
       <use transform="translate(45.690477 0)scale(0.996264)" xlink:href="#CMR17-52"/>
       <use transform="translate(91.380954 0)scale(0.996264)" xlink:href="#CMR17-48"/>
      </g>
     </g>
    </g>
    <g id="xtick_9">
     <g id="line2d_17">
      <path clip-path="url(#p54b97879db)" d="M 632.8 720.9 
L 632.8 56.7 
" style="fill:none;stroke:#e6e6e6;stroke-linecap:square;stroke-width:0.8;"/>
     </g>
     <g id="line2d_18">
      <g>
       <use style="stroke:#000000;stroke-width:0.8;" x="632.8" xlink:href="#m76e9c71c0f" y="720.9"/>
      </g>
     </g>
     <g id="text_9">
      <!-- $\mathdefault{160}$ -->
      <g transform="translate(621.825643 734.777725)scale(0.15 -0.15)">
       <use transform="scale(0.996264)" xlink:href="#CMR17-49"/>
       <use transform="translate(45.690477 0)scale(0.996264)" xlink:href="#CMR17-54"/>
       <use transform="translate(91.380954 0)scale(0.996264)" xlink:href="#CMR17-48"/>
      </g>
     </g>
    </g>
    <g id="xtick_10">
     <g id="line2d_19">
      <path clip-path="url(#p54b97879db)" d="M 698.4 720.9 
L 698.4 56.7 
" style="fill:none;stroke:#e6e6e6;stroke-linecap:square;stroke-width:0.8;"/>
     </g>
     <g id="line2d_20">
      <g>
       <use style="stroke:#000000;stroke-width:0.8;" x="698.4" xlink:href="#m76e9c71c0f" y="720.9"/>
      </g>
     </g>
     <g id="text_10">
      <!-- $\mathdefault{180}$ -->
      <g transform="translate(687.425643 734.777725)scale(0.15 -0.15)">
       <use transform="scale(0.996264)" xlink:href="#CMR17-49"/>
       <use transform="translate(45.690477 0)scale(0.996264)" xlink:href="#CMR17-56"/>
       <use transform="translate(91.380954 0)scale(0.996264)" xlink:href="#CMR17-48"/>
      </g>
     </g>
    </g>
    <g id="text_11">
     <!-- $\theta(^{\circ})$ -->
     <g transform="translate(383.750923 760.340997)scale(0.25 -0.25)">
      <defs>
       <path d="M 44.296875 50 
C 44.296875 60.15625 41.09375 70 32.90625 70 
C 18.90625 70 4 40.859375 4 19 
C 4 14.421875 5 -1 15.5 -1 
C 29.09375 -1 44.296875 27.4375 44.296875 50 
z
M 14 36 
C 15.5 41.859375 17.59375 50.21875 21.59375 57.265625 
C 24.90625 63.234375 28.40625 68 32.796875 68 
C 36.09375 68 38.296875 65.21875 38.296875 55.6875 
C 38.296875 52.09375 38 47.140625 35.09375 36 
z
M 34.40625 33.015625 
C 31.90625 23.28125 29.796875 17 26.203125 10.734375 
C 23.296875 5.671875 19.796875 1 15.59375 1 
C 12.5 1 10 3.390625 10 13.21875 
C 10 19.6875 11.59375 26.453125 13.203125 33.015625 
z
" id="CMMI12-18"/>
       <path d="M 30.59375 -24.390625 
C 30.59375 -24.296875 30.59375 -24.09375 30.296875 -23.796875 
C 25.703125 -19.125 13.40625 -6.359375 13.40625 24.703125 
C 13.40625 55.765625 25.5 68.421875 30.40625 73.390625 
C 30.40625 73.5 30.59375 73.703125 30.59375 74 
C 30.59375 74.296875 30.296875 74.5 29.90625 74.5 
C 28.796875 74.5 20.296875 67.125 15.40625 56.15625 
C 10.40625 45.109375 9 34.359375 9 24.8125 
C 9 17.625 9.703125 5.484375 15.703125 -7.359375 
C 20.5 -17.734375 28.703125 -25 29.90625 -25 
C 30.40625 -25 30.59375 -24.796875 30.59375 -24.390625 
z
" id="CMR17-40"/>
       <path d="M 44.40625 25 
C 44.40625 35.578125 35.5 44.1875 25 44.1875 
C 14.203125 44.1875 5.5 35.375 5.5 25 
C 5.5 14.53125 14.203125 5.8125 25 5.8125 
C 35.5 5.8125 44.40625 14.421875 44.40625 25 
z
M 25 9.8125 
C 16.296875 9.8125 9.5 16.71875 9.5 25 
C 9.5 33.28125 16.40625 40.1875 25 40.1875 
C 33.296875 40.1875 40.40625 33.46875 40.40625 25 
C 40.40625 16.53125 33.296875 9.8125 25 9.8125 
z
" id="CMSY10-14"/>
       <path d="M 26.296875 24.703125 
C 26.296875 31.875 25.59375 44.015625 19.59375 56.859375 
C 14.796875 67.234375 6.59375 74.5 5.40625 74.5 
C 5.09375 74.5 4.703125 74.390625 4.703125 73.890625 
C 4.703125 73.703125 4.796875 73.59375 4.90625 73.390625 
C 9.703125 68.40625 21.90625 55.75 21.90625 24.75 
C 21.90625 -6.359375 9.796875 -19.015625 4.90625 -24.015625 
C 4.796875 -24.203125 4.703125 -24.3125 4.703125 -24.5 
C 4.703125 -25 5.09375 -25 5.40625 -25 
C 6.5 -25 15 -17.625 19.90625 -6.65625 
C 24.90625 4.390625 26.296875 15.140625 26.296875 24.703125 
z
" id="CMR17-41"/>
      </defs>
      <use transform="scale(0.996264)" xlink:href="#CMMI12-18"/>
      <use transform="translate(48.169508 0)scale(0.996264)" xlink:href="#CMR17-40"/>
      <use transform="translate(83.450276 36.153639)scale(0.697382)" xlink:href="#CMSY10-14"/>
      <use transform="translate(118.817618 0)scale(0.996264)" xlink:href="#CMR17-41"/>
     </g>
    </g>
   </g>
   <g id="matplotlib.axis_2">
    <g id="ytick_1">
     <g id="line2d_21">
      <path clip-path="url(#p54b97879db)" d="M 108 665.638145 
L 698.4 665.638145 
" style="fill:none;stroke:#e6e6e6;stroke-linecap:square;stroke-width:0.8;"/>
     </g>
     <g id="line2d_22">
      <defs>
       <path d="M 0 0 
L 3.5 0 
" id="mb734ac8b34" style="stroke:#000000;stroke-width:0.8;"/>
      </defs>
      <g>
       <use style="stroke:#000000;stroke-width:0.8;" x="108" xlink:href="#mb734ac8b34" y="665.638145"/>
      </g>
     </g>
     <g id="text_12">
      <!-- $\mathdefault{0.0}$ -->
      <g transform="translate(85.802948 670.827008)scale(0.15 -0.15)">
       <defs>
        <path d="M 18.40625 4.796875 
C 18.40625 7.6875 16 9.671875 13.59375 9.671875 
C 10.703125 9.671875 8.703125 7.28125 8.703125 4.890625 
C 8.703125 2 11.09375 0 13.5 0 
C 16.40625 0 18.40625 2.390625 18.40625 4.796875 
z
" id="CMMI12-58"/>
       </defs>
       <use transform="scale(0.996264)" xlink:href="#CMR17-48"/>
       <use transform="translate(45.690477 0)scale(0.996264)" xlink:href="#CMMI12-58"/>
       <use transform="translate(72.787654 0)scale(0.996264)" xlink:href="#CMR17-48"/>
      </g>
     </g>
    </g>
    <g id="ytick_2">
     <g id="line2d_23">
      <path clip-path="url(#p54b97879db)" d="M 108 570.097398 
L 698.4 570.097398 
" style="fill:none;stroke:#e6e6e6;stroke-linecap:square;stroke-width:0.8;"/>
     </g>
     <g id="line2d_24">
      <g>
       <use style="stroke:#000000;stroke-width:0.8;" x="108" xlink:href="#mb734ac8b34" y="570.097398"/>
      </g>
     </g>
     <g id="text_13">
      <!-- $\mathdefault{0.5}$ -->
      <g transform="translate(85.802948 575.28626)scale(0.15 -0.15)">
       <defs>
        <path d="M 11.40625 57.6875 
C 12.40625 57.28125 16.5 56 20.703125 56 
C 30 56 35.09375 61.109375 38 64.0625 
C 38 64.953125 38 65.5 37.40625 65.5 
C 37.296875 65.5 37.09375 65.5 36.296875 65.046875 
C 32.796875 63.40625 28.703125 62.078125 23.703125 62.078125 
C 20.703125 62.078125 16.203125 62.484375 11.296875 64.671875 
C 10.203125 65.171875 10 65.171875 9.90625 65.171875 
C 9.40625 65.171875 9.296875 65.0625 9.296875 63.078125 
L 9.296875 34.421875 
C 9.296875 32.640625 9.296875 32.140625 10.296875 32.140625 
C 10.796875 32.140625 11 32.34375 11.5 33.03125 
C 14.703125 37.515625 19.09375 39.40625 24.09375 39.40625 
C 27.59375 39.40625 35.09375 37.21875 35.09375 20.140625 
C 35.09375 16.953125 35.09375 11.171875 32.09375 6.578125 
C 29.59375 2.484375 25.703125 0.390625 21.40625 0.390625 
C 14.796875 0.390625 8.09375 5 6.296875 12.71875 
C 6.703125 12.609375 7.5 12.421875 7.90625 12.421875 
C 9.203125 12.421875 11.703125 13.125 11.703125 16.21875 
C 11.703125 18.90625 9.796875 20 7.90625 20 
C 5.59375 20 4.09375 18.59375 4.09375 15.796875 
C 4.09375 7.09375 11 -2 21.59375 -2 
C 31.90625 -2 41.703125 6.875 41.703125 19.75 
C 41.703125 31.71875 33.90625 41 24.203125 41 
C 19.09375 41 14.796875 39.109375 11.40625 35.53125 
z
" id="CMR17-53"/>
       </defs>
       <use transform="scale(0.996264)" xlink:href="#CMR17-48"/>
       <use transform="translate(45.690477 0)scale(0.996264)" xlink:href="#CMMI12-58"/>
       <use transform="translate(72.787654 0)scale(0.996264)" xlink:href="#CMR17-53"/>
      </g>
     </g>
    </g>
    <g id="ytick_3">
     <g id="line2d_25">
      <path clip-path="url(#p54b97879db)" d="M 108 474.556651 
L 698.4 474.556651 
" style="fill:none;stroke:#e6e6e6;stroke-linecap:square;stroke-width:0.8;"/>
     </g>
     <g id="line2d_26">
      <g>
       <use style="stroke:#000000;stroke-width:0.8;" x="108" xlink:href="#mb734ac8b34" y="474.556651"/>
      </g>
     </g>
     <g id="text_14">
      <!-- $\mathdefault{1.0}$ -->
      <g transform="translate(85.802948 479.745513)scale(0.15 -0.15)">
       <use transform="scale(0.996264)" xlink:href="#CMR17-49"/>
       <use transform="translate(45.690477 0)scale(0.996264)" xlink:href="#CMMI12-58"/>
       <use transform="translate(72.787654 0)scale(0.996264)" xlink:href="#CMR17-48"/>
      </g>
     </g>
    </g>
    <g id="ytick_4">
     <g id="line2d_27">
      <path clip-path="url(#p54b97879db)" d="M 108 379.015903 
L 698.4 379.015903 
" style="fill:none;stroke:#e6e6e6;stroke-linecap:square;stroke-width:0.8;"/>
     </g>
     <g id="line2d_28">
      <g>
       <use style="stroke:#000000;stroke-width:0.8;" x="108" xlink:href="#mb734ac8b34" y="379.015903"/>
      </g>
     </g>
     <g id="text_15">
      <!-- $\mathdefault{1.5}$ -->
      <g transform="translate(85.802948 384.204766)scale(0.15 -0.15)">
       <use transform="scale(0.996264)" xlink:href="#CMR17-49"/>
       <use transform="translate(45.690477 0)scale(0.996264)" xlink:href="#CMMI12-58"/>
       <use transform="translate(72.787654 0)scale(0.996264)" xlink:href="#CMR17-53"/>
      </g>
     </g>
    </g>
    <g id="ytick_5">
     <g id="line2d_29">
      <path clip-path="url(#p54b97879db)" d="M 108 283.475156 
L 698.4 283.475156 
" style="fill:none;stroke:#e6e6e6;stroke-linecap:square;stroke-width:0.8;"/>
     </g>
     <g id="line2d_30">
      <g>
       <use style="stroke:#000000;stroke-width:0.8;" x="108" xlink:href="#mb734ac8b34" y="283.475156"/>
      </g>
     </g>
     <g id="text_16">
      <!-- $\mathdefault{2.0}$ -->
      <g transform="translate(85.802948 288.664018)scale(0.15 -0.15)">
       <use transform="scale(0.996264)" xlink:href="#CMR17-50"/>
       <use transform="translate(45.690477 0)scale(0.996264)" xlink:href="#CMMI12-58"/>
       <use transform="translate(72.787654 0)scale(0.996264)" xlink:href="#CMR17-48"/>
      </g>
     </g>
    </g>
    <g id="ytick_6">
     <g id="line2d_31">
      <path clip-path="url(#p54b97879db)" d="M 108 187.934409 
L 698.4 187.934409 
" style="fill:none;stroke:#e6e6e6;stroke-linecap:square;stroke-width:0.8;"/>
     </g>
     <g id="line2d_32">
      <g>
       <use style="stroke:#000000;stroke-width:0.8;" x="108" xlink:href="#mb734ac8b34" y="187.934409"/>
      </g>
     </g>
     <g id="text_17">
      <!-- $\mathdefault{2.5}$ -->
      <g transform="translate(85.802948 193.123271)scale(0.15 -0.15)">
       <use transform="scale(0.996264)" xlink:href="#CMR17-50"/>
       <use transform="translate(45.690477 0)scale(0.996264)" xlink:href="#CMMI12-58"/>
       <use transform="translate(72.787654 0)scale(0.996264)" xlink:href="#CMR17-53"/>
      </g>
     </g>
    </g>
    <g id="ytick_7">
     <g id="line2d_33">
      <path clip-path="url(#p54b97879db)" d="M 108 92.393661 
L 698.4 92.393661 
" style="fill:none;stroke:#e6e6e6;stroke-linecap:square;stroke-width:0.8;"/>
     </g>
     <g id="line2d_34">
      <g>
       <use style="stroke:#000000;stroke-width:0.8;" x="108" xlink:href="#mb734ac8b34" y="92.393661"/>
      </g>
     </g>
     <g id="text_18">
      <!-- $\mathdefault{3.0}$ -->
      <g transform="translate(85.802948 97.582524)scale(0.15 -0.15)">
       <defs>
        <path d="M 22.09375 33.703125 
C 31 33.703125 34.90625 25.96875 34.90625 17.03125 
C 34.90625 5 28.5 0.390625 22.703125 0.390625 
C 17.40625 0.390625 8.796875 3.03125 6.09375 10.828125 
C 6.59375 10.625 7.09375 10.625 7.59375 10.625 
C 10 10.625 11.796875 12.21875 11.796875 14.8125 
C 11.796875 17.703125 9.59375 19 7.59375 19 
C 5.90625 19 3.296875 18.203125 3.296875 14.46875 
C 3.296875 5.234375 12.296875 -2 22.90625 -2 
C 34 -2 42.5 6.71875 42.5 16.953125 
C 42.5 26.671875 34.5 33.703125 25 34.796875 
C 32.59375 36.375 39.90625 43.0625 39.90625 52.015625 
C 39.90625 59.6875 32 65.296875 23 65.296875 
C 13.90625 65.296875 5.90625 59.828125 5.90625 52.015625 
C 5.90625 48.59375 8.5 48 9.796875 48 
C 11.90625 48 13.703125 49.296875 13.703125 51.890625 
C 13.703125 54.46875 11.90625 55.765625 9.796875 55.765625 
C 9.40625 55.765625 8.90625 55.765625 8.5 55.578125 
C 11.40625 61.859375 19.296875 63 22.796875 63 
C 26.296875 63 32.90625 61.328125 32.90625 51.875 
C 32.90625 49.109375 32.5 44.1875 29.09375 39.84375 
C 26.09375 36 22.703125 36 19.40625 35.6875 
C 18.90625 35.6875 16.59375 35.453125 16.203125 35.453125 
C 15.5 35.359375 15.09375 35.265625 15.09375 34.5 
C 15.09375 33.796875 15.203125 33.703125 17.203125 33.703125 
z
" id="CMR17-51"/>
       </defs>
       <use transform="scale(0.996264)" xlink:href="#CMR17-51"/>
       <use transform="translate(45.690477 0)scale(0.996264)" xlink:href="#CMMI12-58"/>
       <use transform="translate(72.787654 0)scale(0.996264)" xlink:href="#CMR17-48"/>
      </g>
     </g>
    </g>
    <g id="text_19">
     <!-- $|f(\theta)|$ -->
     <g transform="translate(75.576298 417.899913)rotate(-90)scale(0.25 -0.25)">
      <defs>
       <path d="M 15.90625 71.40625 
C 15.90625 73.203125 15.90625 75 13.90625 75 
C 11.90625 75 11.90625 73.203125 11.90625 71.40625 
L 11.90625 -21.40625 
C 11.90625 -23.203125 11.90625 -25 13.90625 -25 
C 15.90625 -25 15.90625 -23.203125 15.90625 -21.40625 
z
" id="CMSY10-106"/>
       <path d="M 44.59375 40.09375 
C 46.59375 40.09375 47.40625 40.09375 47.40625 42 
C 47.40625 43 46.59375 43 44.796875 43 
L 36.703125 43 
C 38.59375 53.578125 40 60.890625 40.796875 64.171875 
C 41.40625 66.640625 43.5 69 46.09375 69 
C 48.203125 69 50.296875 68.09375 51.296875 67.15625 
C 47.40625 66.75 46.203125 63.78125 46.203125 62.015625 
C 46.203125 59.953125 47.703125 58.734375 49.59375 58.734375 
C 51.59375 58.734375 54.59375 60.46875 54.59375 64.359375 
C 54.59375 68.640625 50.40625 71 46 71 
C 41.703125 71 37.5 67.71875 35.5 63.71875 
C 33.703125 60.125 32.703125 56.421875 30.40625 43 
L 23.703125 43 
C 21.796875 43 20.796875 43 20.796875 41.203125 
C 20.796875 40.09375 21.40625 40.09375 23.40625 40.09375 
L 29.796875 40.09375 
C 28 30.875 23.90625 8.46875 21.59375 -2.140625 
C 19.90625 -10.765625 18.40625 -18 13.40625 -18 
C 13.09375 -18 10.203125 -18 8.40625 -16.109375 
C 13.5 -15.703125 13.5 -11.34375 13.5 -11.25 
C 13.5 -9.265625 12 -8.078125 10.09375 -8.078125 
C 8.09375 -8.078125 5.09375 -9.765625 5.09375 -13.546875 
C 5.09375 -17.8125 9.5 -20 13.40625 -20 
C 23.59375 -20 27.796875 -1.84375 28.90625 3.109375 
C 30.703125 10.75 35.59375 37.125 36.09375 40.09375 
z
" id="CMMI12-102"/>
      </defs>
      <use transform="scale(0.996264)" xlink:href="#CMSY10-106"/>
      <use transform="translate(27.674085 0)scale(0.996264)" xlink:href="#CMMI12-102"/>
      <use transform="translate(86.39439 0)scale(0.996264)" xlink:href="#CMR17-40"/>
      <use transform="translate(121.675157 0)scale(0.996264)" xlink:href="#CMMI12-18"/>
      <use transform="translate(169.844665 0)scale(0.996264)" xlink:href="#CMR17-41"/>
      <use transform="translate(205.125433 0)scale(0.996264)" xlink:href="#CMSY10-106"/>
     </g>
    </g>
   </g>
   <g id="line2d_35">
    <path clip-path="url(#p54b97879db)" d="M 108 114.33719 
L 112.92 114.44731 
L 117.84 114.81628 
L 121.12 115.259949 
L 124.4 115.921386 
L 127.68 116.868266 
L 130.96 118.182614 
L 132.6 119.007031 
L 134.24 119.960327 
L 135.88 121.056555 
L 137.52 122.310549 
L 139.16 123.737891 
L 140.8 125.354883 
L 142.44 127.17851 
L 144.08 129.226399 
L 145.72 131.516774 
L 147.36 134.068413 
L 149 136.900587 
L 150.64 140.033011 
L 152.28 143.485775 
L 153.92 147.27928 
L 155.56 151.434165 
L 157.2 155.971224 
L 158.84 160.91133 
L 160.48 166.275338 
L 162.12 172.083991 
L 163.76 178.357821 
L 165.4 185.117037 
L 167.04 192.381417 
L 168.68 200.170184 
L 171.96 217.394254 
L 175.24 236.927095 
L 178.52 258.889171 
L 181.8 283.378864 
L 185.08 310.467552 
L 188.36 340.19454 
L 191.64 372.561949 
L 194.92 407.529675 
L 198.2 445.01057 
L 201.48 484.865999 
L 204.76 526.901949 
L 209.68 593.47535 
L 214.6 663.26281 
L 216.24 644.273526 
L 227.72 477.946735 
L 232.64 410.709884 
L 235.92 368.896189 
L 239.2 330.316605 
L 242.48 295.682338 
L 244.12 280.063558 
L 245.76 265.690474 
L 247.4 252.645158 
L 249.04 241.006558 
L 250.68 230.849901 
L 252.32 222.246094 
L 253.96 215.261113 
L 255.6 209.955402 
L 257.24 206.383277 
L 258.88 204.592339 
L 260.52 204.622907 
L 262.16 206.507474 
L 263.8 210.270187 
L 265.44 215.926365 
L 267.08 223.48205 
L 268.72 232.933609 
L 270.36 244.267379 
L 272 257.45937 
L 273.64 272.47503 
L 275.28 289.269071 
L 276.92 307.785365 
L 278.56 327.956913 
L 280.2 349.705894 
L 283.48 397.571591 
L 286.76 450.550298 
L 290.04 507.653505 
L 294.96 598.539906 
L 298.24 660.765036 
L 299.88 639.417126 
L 304.8 548.327313 
L 308.08 491.205765 
L 311.36 438.593076 
L 314.64 391.803069 
L 316.28 370.971818 
L 317.92 352.034697 
L 319.56 335.117199 
L 321.2 320.332893 
L 322.84 307.782384 
L 324.48 297.552351 
L 326.12 289.714677 
L 327.76 284.325679 
L 329.4 281.425446 
L 331.04 281.037294 
L 332.68 283.16735 
L 334.32 287.80426 
L 335.96 294.919044 
L 337.6 304.465084 
L 339.24 316.37826 
L 340.88 330.577232 
L 342.52 346.963868 
L 344.16 365.423812 
L 345.8 385.827205 
L 347.44 408.029533 
L 350.72 457.185717 
L 354 511.483726 
L 358.92 599.110352 
L 362.2 659.173468 
L 363.84 642.232456 
L 367.12 583.902058 
L 370.4 528.858342 
L 373.68 478.693004 
L 375.32 455.895978 
L 376.96 434.842467 
L 378.6 415.680184 
L 380.24 398.541729 
L 381.88 383.543541 
L 383.52 370.784985 
L 385.16 360.3476 
L 386.8 352.294486 
L 388.44 346.669866 
L 390.08 343.498801 
L 391.72 342.787081 
L 393.36 344.521273 
L 395 348.668941 
L 396.64 355.179029 
L 398.28 363.982403 
L 399.92 374.992541 
L 401.56 388.106372 
L 403.2 403.205254 
L 404.84 420.156075 
L 406.48 438.812467 
L 408.12 459.01613 
L 411.4 503.380946 
L 414.68 551.800829 
L 419.6 628.643989 
L 421.24 654.588686 
L 422.88 650.906435 
L 426.16 600.599199 
L 429.44 553.178216 
L 432.72 509.982719 
L 434.36 490.343337 
L 436 472.18513 
L 437.64 455.623429 
L 439.28 440.759633 
L 440.92 427.680667 
L 442.56 416.458572 
L 444.2 407.150222 
L 445.84 399.797186 
L 447.48 394.42571 
L 449.12 391.046835 
L 450.76 389.656633 
L 452.4 390.236563 
L 454.04 392.753942 
L 455.68 397.162514 
L 457.32 403.403124 
L 458.96 411.40447 
L 460.6 421.083946 
L 462.24 432.348541 
L 463.88 445.095809 
L 465.52 459.214877 
L 467.16 474.587503 
L 470.44 508.590085 
L 473.72 546.051557 
L 478.64 606.318678 
L 481.92 647.595251 
L 483.56 663.119738 
L 488.48 603.272949 
L 491.76 566.074096 
L 495.04 532.001734 
L 498.32 501.748746 
L 499.96 488.234831 
L 501.6 475.874884 
L 503.24 464.717116 
L 504.88 454.800936 
L 506.52 446.157011 
L 508.16 438.807385 
L 509.8 432.765658 
L 511.44 428.037217 
L 513.08 424.619518 
L 514.72 422.502412 
L 516.36 421.66851 
L 518 422.093585 
L 519.64 423.747001 
L 521.28 426.592174 
L 522.92 430.587047 
L 524.56 435.684581 
L 526.2 441.833265 
L 527.84 448.977622 
L 529.48 457.058725 
L 531.12 466.014712 
L 532.76 475.781289 
L 536.04 497.479868 
L 539.32 521.610127 
L 542.6 547.619247 
L 547.52 588.961815 
L 555.72 659.803063 
L 557.36 657.53897 
L 562.28 617.107203 
L 565.56 591.711951 
L 568.84 567.892103 
L 572.12 545.869606 
L 575.4 525.814791 
L 578.68 507.84847 
L 581.96 492.04489 
L 583.6 484.965486 
L 585.24 478.435388 
L 586.88 472.45249 
L 588.52 467.012544 
L 590.16 462.109303 
L 591.8 457.734667 
L 593.44 453.878835 
L 595.08 450.530447 
L 596.72 447.676733 
L 598.36 445.303653 
L 600 443.396043 
L 601.64 441.937742 
L 603.28 440.911736 
L 604.92 440.300278 
L 606.56 440.085012 
L 608.2 440.247092 
L 609.84 440.767295 
L 611.48 441.62612 
L 613.12 442.803894 
L 614.76 444.280861 
L 616.4 446.037269 
L 618.04 448.05345 
L 619.68 450.309895 
L 621.32 452.787319 
L 624.6 458.32945 
L 627.88 464.532231 
L 631.16 471.254935 
L 636.08 482.025922 
L 644.28 500.825632 
L 650.84 515.716037 
L 655.76 526.357301 
L 659.04 533.073168 
L 662.32 539.42016 
L 665.6 545.34991 
L 668.88 550.820839 
L 672.16 555.797551 
L 675.44 560.250227 
L 678.72 564.15405 
L 682 567.488675 
L 685.28 570.237749 
L 686.92 571.388579 
L 688.56 572.388485 
L 690.2 573.236369 
L 691.84 573.931315 
L 693.48 574.472585 
L 695.12 574.859609 
L 696.76 575.091984 
L 698.4 575.169469 
L 698.4 575.169469 
" style="fill:none;stroke:#0000ff;stroke-dasharray:7.4,3.2;stroke-dashoffset:0;stroke-width:2;"/>
   </g>
   <g id="line2d_36">
    <path clip-path="url(#p54b97879db)" d="M 108 133.206594 
L 112.92 133.344849 
L 116.2 133.605953 
L 119.48 134.034296 
L 122.76 134.673716 
L 126.04 135.582327 
L 129.32 136.832214 
L 132.6 138.509011 
L 134.24 139.537833 
L 135.88 140.711348 
L 137.52 142.0438 
L 139.16 143.550146 
L 140.8 145.246026 
L 142.44 147.147727 
L 144.08 149.272141 
L 145.72 151.636722 
L 147.36 154.259442 
L 149 157.158733 
L 150.64 160.353435 
L 152.28 163.862733 
L 153.92 167.706089 
L 155.56 171.903171 
L 157.2 176.473778 
L 158.84 181.437757 
L 160.48 186.81491 
L 162.12 192.624907 
L 163.76 198.887185 
L 165.4 205.620839 
L 167.04 212.844516 
L 170.32 228.833573 
L 173.6 246.989982 
L 176.88 267.434181 
L 180.16 290.266972 
L 183.44 315.564814 
L 186.72 343.374893 
L 190 373.710024 
L 193.28 406.543392 
L 196.56 441.802999 
L 199.84 479.365273 
L 203.12 519.045603 
L 208.04 581.908257 
L 212.96 645.642237 
L 214.6 652.591477 
L 216.24 634.30426 
L 221.16 566.721395 
L 227.72 476.443024 
L 232.64 412.361058 
L 235.92 372.643179 
L 239.2 336.130298 
L 242.48 303.507558 
L 244.12 288.864811 
L 245.76 275.442842 
L 247.4 263.319777 
L 249.04 252.57056 
L 250.68 243.266384 
L 252.32 235.474108 
L 253.96 229.255686 
L 255.6 224.667588 
L 257.24 221.760229 
L 258.88 220.577411 
L 260.52 221.15579 
L 262.16 223.52435 
L 263.8 227.703918 
L 265.44 233.706704 
L 267.08 241.535887 
L 268.72 251.185233 
L 270.36 262.638768 
L 272 275.870509 
L 273.64 290.84424 
L 275.28 307.513355 
L 276.92 325.820771 
L 278.56 345.698893 
L 281.84 389.844629 
L 285.12 439.202525 
L 288.4 492.863553 
L 293.32 579.01956 
L 296.6 637.811012 
L 298.24 656.389454 
L 299.88 631.126158 
L 304.8 544.59784 
L 308.08 490.204129 
L 311.36 440.289996 
L 313 417.417898 
L 314.64 396.135727 
L 316.28 376.582469 
L 317.92 358.887213 
L 319.56 343.168151 
L 321.2 329.53159 
L 322.84 318.071003 
L 324.48 308.866149 
L 326.12 301.982273 
L 327.76 297.4694 
L 329.4 295.361729 
L 331.04 295.677147 
L 332.68 298.41686 
L 334.32 303.565148 
L 335.96 311.089257 
L 337.6 320.939429 
L 339.24 333.049059 
L 340.88 347.335006 
L 342.52 363.698028 
L 344.16 382.02336 
L 345.8 402.181415 
L 347.44 424.028603 
L 350.72 472.151535 
L 354 524.998752 
L 358.92 609.624347 
L 360.56 638.169563 
L 362.2 658.887943 
L 363.84 634.124354 
L 368.76 552.089038 
L 372.04 502.041353 
L 373.68 479.032149 
L 375.32 457.593413 
L 376.96 437.878618 
L 378.6 420.026882 
L 380.24 404.16211 
L 381.88 390.39213 
L 383.52 378.807925 
L 385.16 369.482975 
L 386.8 362.472738 
L 388.44 357.814277 
L 390.08 355.526047 
L 391.72 355.607833 
L 393.36 358.040854 
L 395 362.788021 
L 396.64 369.794352 
L 398.28 378.987542 
L 399.92 390.278669 
L 401.56 403.563043 
L 403.2 418.72118 
L 404.84 435.619888 
L 406.48 454.113447 
L 409.76 495.247212 
L 413.04 540.75449 
L 417.96 613.902059 
L 419.6 638.662562 
L 421.24 660.266043 
L 422.88 641.849363 
L 427.8 571.226807 
L 431.08 528.24342 
L 432.72 508.504962 
L 434.36 490.118998 
L 436 473.206648 
L 437.64 457.87548 
L 439.28 444.219093 
L 440.92 432.316735 
L 442.56 422.232995 
L 444.2 414.017608 
L 445.84 407.705377 
L 447.48 403.316213 
L 449.12 400.855294 
L 450.76 400.313339 
L 452.4 401.667 
L 454.04 404.879352 
L 455.68 409.900486 
L 457.32 416.668188 
L 458.96 425.108708 
L 460.6 435.13759 
L 462.24 446.660575 
L 463.88 459.574541 
L 465.52 473.768497 
L 468.8 505.519083 
L 472.08 540.905002 
L 475.36 578.853504 
L 481.92 656.815548 
L 483.56 652.070688 
L 488.48 595.602925 
L 491.76 560.367004 
L 495.04 528.316673 
L 496.68 513.700434 
L 498.32 500.119184 
L 499.96 487.63366 
L 501.6 476.295833 
L 503.24 466.148931 
L 504.88 457.227509 
L 506.52 449.557553 
L 508.16 443.156642 
L 509.8 438.034154 
L 511.44 434.191517 
L 513.08 431.622512 
L 514.72 430.313614 
L 516.36 430.244364 
L 518 431.387779 
L 519.64 433.710789 
L 521.28 437.174693 
L 522.92 441.735635 
L 524.56 447.345093 
L 526.2 453.950378 
L 527.84 461.495131 
L 529.48 469.919829 
L 531.12 479.162278 
L 532.76 489.158098 
L 536.04 511.144212 
L 539.32 535.336733 
L 542.6 561.186321 
L 547.52 601.863511 
L 552.44 642.93798 
L 554.08 655.47137 
L 555.72 657.239487 
L 557.36 645.535423 
L 562.28 607.280613 
L 565.56 583.108316 
L 568.84 560.530201 
L 572.12 539.77649 
L 575.4 521.009315 
L 578.68 504.337126 
L 580.32 496.807479 
L 581.96 489.821103 
L 583.6 483.379066 
L 585.24 477.480082 
L 586.88 472.120662 
L 588.52 467.295258 
L 590.16 462.996417 
L 591.8 459.214927 
L 593.44 455.939968 
L 595.08 453.159256 
L 596.72 450.859192 
L 598.36 449.024999 
L 600 447.640868 
L 601.64 446.690083 
L 603.28 446.155159 
L 604.92 446.017963 
L 606.56 446.259832 
L 608.2 446.861693 
L 609.84 447.804164 
L 611.48 449.067658 
L 613.12 450.63248 
L 614.76 452.478912 
L 616.4 454.587301 
L 618.04 456.938129 
L 621.32 462.290133 
L 624.6 468.384031 
L 627.88 475.074942 
L 631.16 482.22536 
L 636.08 493.532598 
L 650.84 528.20064 
L 655.76 539.004585 
L 659.04 545.795427 
L 662.32 552.195073 
L 665.6 558.158788 
L 668.88 563.648442 
L 672.16 568.63189 
L 675.44 573.082353 
L 678.72 576.977835 
L 682 580.300565 
L 683.64 581.742624 
L 685.28 583.036487 
L 686.92 584.180902 
L 688.56 585.174794 
L 690.2 586.017256 
L 691.84 586.707536 
L 693.48 587.245032 
L 695.12 587.629282 
L 696.76 587.85996 
L 698.4 587.936875 
L 698.4 587.936875 
" style="fill:none;stroke:#0000ff;stroke-linecap:square;stroke-width:2;"/>
   </g>
   <g id="line2d_37">
    <path clip-path="url(#p54b97879db)" d="M 108 114.33719 
L 112.92 114.44731 
L 117.84 114.81628 
L 121.12 115.259949 
L 124.4 115.921386 
L 127.68 116.868266 
L 130.96 118.182614 
L 132.6 119.007031 
L 134.24 119.960327 
L 135.88 121.056555 
L 137.52 122.310549 
L 139.16 123.737891 
L 140.8 125.354883 
L 142.44 127.17851 
L 144.08 129.226399 
L 145.72 131.516774 
L 147.36 134.068413 
L 149 136.900587 
L 150.64 140.033011 
L 152.28 143.485775 
L 153.92 147.27928 
L 155.56 151.434165 
L 157.2 155.971224 
L 158.84 160.91133 
L 160.48 166.275338 
L 162.12 172.083991 
L 163.76 178.357821 
L 165.4 185.117037 
L 167.04 192.381417 
L 168.68 200.170184 
L 171.96 217.394254 
L 175.24 236.927095 
L 178.52 258.889171 
L 181.8 283.378864 
L 185.08 310.467552 
L 188.36 340.19454 
L 191.64 372.561949 
L 194.92 407.529675 
L 198.2 445.01057 
L 201.48 484.865999 
L 204.76 526.901949 
L 209.68 593.47535 
L 214.6 663.26281 
L 216.24 644.273526 
L 227.72 477.946735 
L 232.64 410.709884 
L 235.92 368.896189 
L 239.2 330.316605 
L 242.48 295.682338 
L 244.12 280.063558 
L 245.76 265.690474 
L 247.4 252.645158 
L 249.04 241.006558 
L 250.68 230.849901 
L 252.32 222.246094 
L 253.96 215.261113 
L 255.6 209.955402 
L 257.24 206.383277 
L 258.88 204.592339 
L 260.52 204.622907 
L 262.16 206.507474 
L 263.8 210.270187 
L 265.44 215.926365 
L 267.08 223.48205 
L 268.72 232.933609 
L 270.36 244.267379 
L 272 257.45937 
L 273.64 272.47503 
L 275.28 289.269071 
L 276.92 307.785365 
L 278.56 327.956913 
L 280.2 349.705894 
L 283.48 397.571591 
L 286.76 450.550298 
L 290.04 507.653505 
L 294.96 598.539906 
L 298.24 660.765036 
L 299.88 639.417126 
L 304.8 548.327313 
L 308.08 491.205765 
L 311.36 438.593076 
L 314.64 391.803069 
L 316.28 370.971818 
L 317.92 352.034697 
L 319.56 335.117199 
L 321.2 320.332893 
L 322.84 307.782384 
L 324.48 297.552351 
L 326.12 289.714677 
L 327.76 284.325679 
L 329.4 281.425446 
L 331.04 281.037294 
L 332.68 283.16735 
L 334.32 287.80426 
L 335.96 294.919044 
L 337.6 304.465084 
L 339.24 316.37826 
L 340.88 330.577232 
L 342.52 346.963868 
L 344.16 365.423812 
L 345.8 385.827205 
L 347.44 408.029533 
L 350.72 457.185717 
L 354 511.483726 
L 358.92 599.110352 
L 362.2 659.173468 
L 363.84 642.232456 
L 367.12 583.902058 
L 370.4 528.858342 
L 373.68 478.693004 
L 375.32 455.895978 
L 376.96 434.842467 
L 378.6 415.680184 
L 380.24 398.541729 
L 381.88 383.543541 
L 383.52 370.784985 
L 385.16 360.3476 
L 386.8 352.294486 
L 388.44 346.669866 
L 390.08 343.498801 
L 391.72 342.787081 
L 393.36 344.521273 
L 395 348.668941 
L 396.64 355.179029 
L 398.28 363.982403 
L 399.92 374.992541 
L 401.56 388.106372 
L 403.2 403.205254 
L 404.84 420.156075 
L 406.48 438.812467 
L 408.12 459.01613 
L 411.4 503.380946 
L 414.68 551.800829 
L 419.6 628.643989 
L 421.24 654.588686 
L 422.88 650.906435 
L 426.16 600.599199 
L 429.44 553.178216 
L 432.72 509.982719 
L 434.36 490.343337 
L 436 472.18513 
L 437.64 455.623429 
L 439.28 440.759633 
L 440.92 427.680667 
L 442.56 416.458572 
L 444.2 407.150222 
L 445.84 399.797186 
L 447.48 394.42571 
L 449.12 391.046835 
L 450.76 389.656633 
L 452.4 390.236563 
L 454.04 392.753942 
L 455.68 397.162514 
L 457.32 403.403124 
L 458.96 411.40447 
L 460.6 421.083946 
L 462.24 432.348541 
L 463.88 445.095809 
L 465.52 459.214877 
L 467.16 474.587503 
L 470.44 508.590085 
L 473.72 546.051557 
L 478.64 606.318678 
L 481.92 647.595251 
L 483.56 663.119738 
L 488.48 603.272949 
L 491.76 566.074096 
L 495.04 532.001734 
L 498.32 501.748746 
L 499.96 488.234831 
L 501.6 475.874884 
L 503.24 464.717116 
L 504.88 454.800936 
L 506.52 446.157011 
L 508.16 438.807385 
L 509.8 432.765658 
L 511.44 428.037217 
L 513.08 424.619518 
L 514.72 422.502412 
L 516.36 421.66851 
L 518 422.093585 
L 519.64 423.747001 
L 521.28 426.592174 
L 522.92 430.587047 
L 524.56 435.684581 
L 526.2 441.833265 
L 527.84 448.977622 
L 529.48 457.058725 
L 531.12 466.014712 
L 532.76 475.781289 
L 536.04 497.479868 
L 539.32 521.610127 
L 542.6 547.619247 
L 547.52 588.961815 
L 555.72 659.803063 
L 557.36 657.53897 
L 562.28 617.107203 
L 565.56 591.711951 
L 568.84 567.892103 
L 572.12 545.869606 
L 575.4 525.814791 
L 578.68 507.84847 
L 581.96 492.04489 
L 583.6 484.965486 
L 585.24 478.435388 
L 586.88 472.45249 
L 588.52 467.012544 
L 590.16 462.109303 
L 591.8 457.734667 
L 593.44 453.878835 
L 595.08 450.530447 
L 596.72 447.676733 
L 598.36 445.303653 
L 600 443.396043 
L 601.64 441.937742 
L 603.28 440.911736 
L 604.92 440.300278 
L 606.56 440.085012 
L 608.2 440.247092 
L 609.84 440.767295 
L 611.48 441.62612 
L 613.12 442.803894 
L 614.76 444.280861 
L 616.4 446.037269 
L 618.04 448.05345 
L 619.68 450.309895 
L 621.32 452.787319 
L 624.6 458.32945 
L 627.88 464.532231 
L 631.16 471.254935 
L 636.08 482.025922 
L 644.28 500.825632 
L 650.84 515.716037 
L 655.76 526.357301 
L 659.04 533.073168 
L 662.32 539.42016 
L 665.6 545.34991 
L 668.88 550.820839 
L 672.16 555.797551 
L 675.44 560.250227 
L 678.72 564.15405 
L 682 567.488675 
L 685.28 570.237749 
L 686.92 571.388579 
L 688.56 572.388485 
L 690.2 573.236369 
L 691.84 573.931315 
L 693.48 574.472585 
L 695.12 574.859609 
L 696.76 575.091984 
L 698.4 575.169469 
L 698.4 575.169469 
" style="fill:none;stroke:#ff0000;stroke-dasharray:7.4,3.2;stroke-dashoffset:0;stroke-width:2;"/>
   </g>
   <g id="line2d_38">
    <path clip-path="url(#p54b97879db)" d="M 108 121.074238 
L 112.92 121.198509 
L 117.84 121.60954 
L 121.12 122.096203 
L 124.4 122.811975 
L 127.68 123.823819 
L 130.96 125.212874 
L 132.6 126.077974 
L 134.24 127.073979 
L 135.88 128.214782 
L 137.52 129.515042 
L 139.16 130.990159 
L 140.8 132.65624 
L 142.44 134.53006 
L 144.08 136.629028 
L 145.72 138.971134 
L 147.36 141.574911 
L 149 144.459373 
L 150.64 147.643963 
L 152.28 151.148489 
L 153.92 154.993055 
L 155.56 159.197991 
L 157.2 163.783772 
L 158.84 168.770933 
L 160.48 174.179984 
L 162.12 180.031311 
L 163.76 186.345072 
L 165.4 193.141097 
L 167.04 200.438768 
L 170.32 216.613637 
L 173.6 235.011188 
L 176.88 255.757642 
L 180.16 278.959392 
L 183.44 304.698202 
L 186.72 333.026218 
L 190 363.960854 
L 193.28 397.479661 
L 196.56 433.515223 
L 199.84 471.950059 
L 203.12 512.611101 
L 208.04 577.235545 
L 212.96 644.755075 
L 214.6 658.735386 
L 216.24 638.170283 
L 231 430.018311 
L 234.28 387.644526 
L 237.56 348.182632 
L 240.84 312.339311 
L 242.48 295.99379 
L 244.12 280.813557 
L 245.76 266.882091 
L 247.4 254.280257 
L 249.04 243.085723 
L 250.68 233.37237 
L 252.32 225.209693 
L 253.96 218.662198 
L 255.6 213.788806 
L 257.24 210.642257 
L 258.88 209.268538 
L 260.52 209.706317 
L 262.16 211.986403 
L 263.8 216.13124 
L 265.44 222.154425 
L 267.08 230.060275 
L 268.72 239.84343 
L 270.36 251.488508 
L 272 264.969821 
L 273.64 280.251144 
L 275.28 297.28555 
L 276.92 316.015313 
L 278.56 336.371887 
L 281.84 381.637563 
L 285.12 432.321635 
L 288.4 487.501031 
L 291.68 546.100868 
L 296.6 637.595544 
L 298.24 660.429482 
L 301.52 600.946112 
L 304.8 541.485575 
L 308.08 485.24168 
L 311.36 433.622525 
L 313 409.959814 
L 314.64 387.934433 
L 316.28 367.69031 
L 317.92 349.361469 
L 319.56 333.070899 
L 321.2 318.929468 
L 322.84 307.034906 
L 324.48 297.470857 
L 326.12 290.306028 
L 327.76 285.593435 
L 329.4 283.369758 
L 331.04 283.65482 
L 332.68 286.451181 
L 334.32 291.743876 
L 335.96 299.500283 
L 337.6 309.670137 
L 339.24 322.185689 
L 340.88 336.962008 
L 342.52 353.89743 
L 344.16 372.874157 
L 345.8 393.758993 
L 347.44 416.404217 
L 350.72 466.3185 
L 354 521.186034 
L 358.92 609.270073 
L 360.56 639.312569 
L 362.2 661.731 
L 367.12 574.087271 
L 370.4 519.600095 
L 373.68 470.215827 
L 375.32 447.890117 
L 376.96 427.359114 
L 378.6 408.768082 
L 380.24 392.246823 
L 381.88 377.908648 
L 383.52 365.849488 
L 385.16 356.147154 
L 386.8 348.860747 
L 388.44 344.030241 
L 390.08 341.676226 
L 391.72 341.799819 
L 393.36 344.382747 
L 395 349.387593 
L 396.64 356.758207 
L 398.28 366.420282 
L 399.92 378.282073 
L 401.56 392.235272 
L 403.2 408.156014 
L 404.84 425.906001 
L 406.48 445.333751 
L 409.76 488.558775 
L 413.04 536.407886 
L 417.96 613.441972 
L 419.6 639.65965 
L 421.24 662.578745 
L 422.88 638.94556 
L 426.16 588.423699 
L 429.44 540.979236 
L 432.72 498.032489 
L 434.36 478.622049 
L 436 460.761858 
L 437.64 444.566026 
L 439.28 430.134237 
L 440.92 417.551247 
L 442.56 406.886507 
L 444.2 398.193908 
L 445.84 391.511665 
L 447.48 386.862326 
L 449.12 384.252915 
L 450.76 383.675192 
L 452.4 385.106041 
L 454.04 388.507962 
L 455.68 393.829674 
L 457.32 401.006807 
L 458.96 409.96269 
L 460.6 420.609199 
L 462.24 432.847689 
L 463.88 446.569954 
L 465.52 461.659234 
L 468.8 495.435044 
L 472.08 533.107073 
L 475.36 573.522874 
L 480.28 636.244011 
L 481.92 654.891999 
L 483.56 649.097417 
L 491.76 551.688522 
L 495.04 517.223748 
L 496.68 501.473278 
L 498.32 486.816526 
L 499.96 473.320497 
L 501.6 461.042648 
L 503.24 450.031023 
L 504.88 440.324351 
L 506.52 431.952189 
L 508.16 424.93509 
L 509.8 419.284823 
L 511.44 415.004634 
L 513.08 412.089559 
L 514.72 410.526775 
L 516.36 410.295985 
L 518 411.369844 
L 519.64 413.71441 
L 521.28 417.289619 
L 522.92 422.04978 
L 524.56 427.944079 
L 526.2 434.917099 
L 527.84 442.909335 
L 529.48 451.857705 
L 531.12 461.696058 
L 532.76 472.355653 
L 536.04 495.853322 
L 539.32 521.764844 
L 542.6 549.484126 
L 549.16 607.703129 
L 552.44 636.019425 
L 554.08 647.743462 
L 555.72 651.086888 
L 557.36 642.429453 
L 560.64 616.47659 
L 565.56 576.948118 
L 568.84 552.318303 
L 572.12 529.54034 
L 575.4 508.834202 
L 578.68 490.341398 
L 580.32 481.95277 
L 581.96 474.144331 
L 583.6 466.918699 
L 585.24 460.275818 
L 586.88 454.213141 
L 588.52 448.725811 
L 590.16 443.806825 
L 591.8 439.447212 
L 593.44 435.636189 
L 595.08 432.361332 
L 596.72 429.608728 
L 598.36 427.363136 
L 600 425.608132 
L 601.64 424.326261 
L 603.28 423.499176 
L 604.92 423.107773 
L 606.56 423.132323 
L 608.2 423.552598 
L 609.84 424.347982 
L 611.48 425.49759 
L 613.12 426.980368 
L 614.76 428.775193 
L 616.4 430.860959 
L 618.04 433.21667 
L 619.68 435.821508 
L 622.96 441.696629 
L 626.24 448.325944 
L 629.52 455.555836 
L 634.44 467.21092 
L 641 483.573195 
L 649.2 504.067054 
L 654.12 515.817535 
L 659.04 526.844401 
L 662.32 533.691318 
L 665.6 540.075205 
L 668.88 545.953475 
L 672.16 551.290363 
L 675.44 556.056283 
L 678.72 560.227184 
L 682 563.783915 
L 683.64 565.327168 
L 685.28 566.711603 
L 686.92 567.935932 
L 688.56 568.999064 
L 690.2 569.900086 
L 691.84 570.638255 
L 693.48 571.212978 
L 695.12 571.623808 
L 696.76 571.870429 
L 698.4 571.952657 
L 698.4 571.952657 
" style="fill:none;stroke:#ff0000;stroke-linecap:square;stroke-width:2;"/>
   </g>
   <g id="patch_3">
    <path d="M 108 720.9 
L 108 56.7 
" style="fill:none;stroke:#000000;stroke-linecap:square;stroke-linejoin:miter;stroke-width:0.8;"/>
   </g>
   <g id="patch_4">
    <path d="M 698.4 720.9 
L 698.4 56.7 
" style="fill:none;stroke:#000000;stroke-linecap:square;stroke-linejoin:miter;stroke-width:0.8;"/>
   </g>
   <g id="patch_5">
    <path d="M 108 720.9 
L 698.4 720.9 
" style="fill:none;stroke:#000000;stroke-linecap:square;stroke-linejoin:miter;stroke-width:0.8;"/>
   </g>
   <g id="patch_6">
    <path d="M 108 56.7 
L 698.4 56.7 
" style="fill:none;stroke:#000000;stroke-linecap:square;stroke-linejoin:miter;stroke-width:0.8;"/>
   </g>
   <g id="text_20">
    <!-- Scattering amplitudes for $ka=1.0$, $kd=20.0$ -->
    <g transform="translate(221.289422 50.7)scale(0.2 -0.2)">
     <defs>
      <path d="M 43.703125 65.140625 
C 39.296875 67.71875 34.5 70 26.40625 70 
C 13.5 70 5.203125 60.609375 5.203125 51.03125 
C 5.203125 47.265625 6.296875 43.015625 10.203125 38.671875 
C 14.09375 34.3125 18.5 33.140625 24.09375 31.765625 
C 26.40625 31.15625 30.296875 30.0625 31 29.78125 
C 36.59375 27.609375 39.296875 22.5625 39.296875 17.8125 
C 39.296875 11.59375 34.40625 4.96875 25.703125 4.96875 
C 22.703125 4.96875 13.90625 4.96875 5.59375 12.796875 
L 4.203125 4.96875 
C 12.40625 -1 21.296875 -2 25.796875 -2 
C 38.09375 -2 46.90625 7.625 46.90625 18.53125 
C 46.90625 22.5 45.703125 27.546875 41.5 32.203125 
C 37.40625 36.671875 33.796875 37.65625 25.59375 39.828125 
C 20.90625 41.03125 17.90625 41.828125 15.40625 44.890625 
C 13.703125 47.078125 12.796875 49.15625 12.796875 51.828125 
C 12.796875 57.390625 17.59375 63.4375 26.40625 63.4375 
C 30.796875 63.4375 36.5 62.53125 42.296875 57.1875 
z
" id="CMSS17-83"/>
      <path d="M 38.5 39.703125 
C 38.5 40.390625 33.90625 42.40625 32.703125 42.796875 
C 29.40625 44 25.203125 44 24.09375 44 
C 11.09375 44 3.296875 32.703125 3.296875 21.296875 
C 3.296875 9.296875 12 -1 23.703125 -1 
C 30.40625 -1 35.203125 1.1875 39.09375 3.78125 
L 38.5 10.375 
C 34.203125 7.078125 29.203125 5.265625 23.796875 5.265625 
C 16 5.265625 10.90625 12.09375 10.90625 21.390625 
C 10.90625 28.609375 14.203125 37.71875 24.203125 37.71875 
C 29.703125 37.71875 32.796875 36.609375 37.40625 33.515625 
z
" id="CMSS17-99"/>
      <path d="M 37.59375 27.984375 
C 37.59375 37.375 30.90625 43.875 21.90625 43.875 
C 17.5 43.875 12.703125 43.078125 7.203125 39.890625 
L 7.796875 33.359375 
C 10.296875 35.125 14.59375 38 21.796875 38 
C 26.90625 38 30 34.0625 30 27.84375 
L 30 24 
C 14 24 4 19.34375 4 11.34375 
C 4 7.203125 6.5 -1 14.796875 -1 
C 16.296875 -1 24.40625 -1 30.203125 3.390625 
L 30.203125 -0.296875 
L 37.59375 -0.296875 
z
M 30 12.75 
C 30 10.953125 30 8.5625 27 6.78125 
C 24.40625 5.078125 21.09375 5.078125 19.703125 5.078125 
C 14.703125 5.078125 11.296875 7.984375 11.296875 11.625 
C 11.296875 18.921875 26.90625 18.921875 30 18.921875 
z
" id="CMSS17-97"/>
      <path d="M 16.703125 37 
L 29.703125 37 
L 29.703125 42.765625 
L 16.703125 42.765625 
L 16.703125 55 
L 9.59375 55 
L 9.59375 42.765625 
L 1.703125 42.765625 
L 1.703125 37 
L 9.40625 37 
L 9.40625 11.703125 
C 9.40625 6 10.703125 -1 17.296875 -1 
C 22.296875 -1 26.90625 0.390625 31.296875 2.6875 
L 29.703125 8.5625 
C 27.296875 6.46875 24.40625 5.265625 21.296875 5.265625 
C 16.90625 5.265625 16.703125 10.875 16.703125 13.375 
z
" id="CMSS17-116"/>
      <path d="M 39.09375 21.515625 
C 39.09375 24.84375 38.90625 31.296875 35.703125 36.640625 
C 32.203125 42.390625 26.5 44 22.203125 44 
C 11.796875 44 3 34.1875 3 21.484375 
C 3 9.09375 12.09375 -1 23.59375 -1 
C 28.09375 -1 33.59375 0.296875 38.59375 3.875 
C 38.59375 4.28125 38.40625 6.46875 38.296875 6.5625 
C 38.296875 6.765625 38 9.84375 38 10.25 
C 33.203125 6.359375 27.703125 5.078125 23.703125 5.078125 
C 17.296875 5.078125 10.40625 10.421875 10.09375 21.515625 
z
M 10.90625 27 
C 12.203125 32.5625 16.59375 37.828125 22.203125 37.828125 
C 23.703125 37.828125 30.703125 37.828125 32.5 27 
z
" id="CMSS17-101"/>
      <path d="M 14.90625 21.296875 
C 14.90625 30.703125 21.796875 37 30.59375 37 
L 30.59375 43.578125 
C 24.203125 43.578125 18.203125 40.390625 14.59375 35.203125 
L 14.59375 43.09375 
L 7.5 43.09375 
L 7.5 0 
L 14.90625 0 
z
" id="CMSS17-114"/>
      <path d="M 15.296875 65.359375 
L 6.90625 65.359375 
L 6.90625 57 
L 15.296875 57 
z
M 14.796875 42.796875 
L 7.40625 42.796875 
L 7.40625 0 
L 14.796875 0 
z
" id="CMSS17-105"/>
      <path d="M 40.90625 29.328125 
C 40.90625 35.671875 39.40625 44 28.09375 44 
C 21.703125 44 17.5 40.71875 14.703125 37.328125 
L 14.703125 43.09375 
L 7.40625 43.09375 
L 7.40625 0 
L 15 0 
L 15 24.359375 
C 15 30.6875 17.40625 37.9375 24.203125 37.9375 
C 33 37.9375 33.296875 32 33.296875 28.578125 
L 33.296875 0 
L 40.90625 0 
z
" id="CMSS17-110"/>
      <path d="M 44.5 43.875 
C 38.796875 43.875 33.90625 42.78125 29.90625 40.890625 
C 26.59375 43.390625 23.203125 43.875 20.90625 43.875 
C 12.203125 43.875 5.59375 36.703125 5.59375 28.34375 
C 5.59375 22.9375 8.59375 18.859375 8.796875 18.671875 
C 7 16.171875 6 13.484375 6 10.5 
C 6 7 7.40625 4.515625 8.5 3.125 
C 3.296875 -0.046875 2.59375 -4.90625 2.59375 -6.796875 
C 2.59375 -14.03125 11.703125 -20 23.40625 -20 
C 35.203125 -20 44.296875 -14.03125 44.296875 -6.6875 
C 44.296875 7 29 7 24.796875 7 
L 16.703125 7 
C 15.203125 7 11.203125 7 11.203125 12.359375 
C 11.203125 14.390625 12.09375 15.6875 12.203125 15.78125 
C 13.703125 14.6875 16.796875 13 20.90625 13 
C 29.203125 13 36.09375 19.96875 36.09375 28.546875 
C 36.09375 33.3125 33.90625 36.796875 33 38 
L 33.296875 38 
C 33.59375 38 37.796875 38 39.296875 38 
C 42.5 38 42.796875 37.953125 45.59375 37.796875 
z
M 20.90625 18.46875 
C 17.5 18.46875 12.703125 20.546875 12.703125 28.484375 
C 12.703125 37.109375 18.203125 38.5 20.796875 38.5 
C 24.203125 38.5 29 36.421875 29 28.484375 
C 29 19.859375 23.5 18.46875 20.90625 18.46875 
z
M 24.703125 -0.15625 
C 27.09375 -0.15625 37.203125 -0.15625 37.203125 -6.90625 
C 37.203125 -11.15625 31 -14.515625 23.5 -14.515625 
C 15.90625 -14.515625 9.703125 -11.25 9.703125 -6.796875 
C 9.703125 -6.296875 9.703125 -0.15625 16.59375 -0.15625 
z
" id="CMSS17-103"/>
      <path d="M 67 29.328125 
C 67 36.0625 65.296875 44 54.09375 44 
C 46.59375 44 42.09375 39.3125 40.09375 36.421875 
C 38.296875 41.71875 34.09375 44 28.09375 44 
C 21.296875 44 17 40.125 14.703125 37.328125 
L 14.703125 43.09375 
L 7.40625 43.09375 
L 7.40625 0 
L 15 0 
L 15 24.359375 
C 15 30.296875 17.203125 37.9375 24.296875 37.9375 
C 33.40625 37.9375 33.40625 31.5 33.40625 28.578125 
L 33.40625 0 
L 41 0 
L 41 24.359375 
C 41 30.296875 43.203125 37.9375 50.296875 37.9375 
C 59.40625 37.9375 59.40625 31.5 59.40625 28.578125 
L 59.40625 0 
L 67 0 
z
" id="CMSS17-109"/>
      <path d="M 15.09375 5.203125 
C 18.40625 2.015625 22.90625 -0.078125 27.703125 -0.078125 
C 37 -0.078125 45 9.421875 45 22.0625 
C 45 33.734375 39 44 30.40625 44 
C 25.40625 44 19.40625 42.21875 14.90625 38.625 
L 14.90625 43.203125 
L 7.5 43.203125 
L 7.5 -19 
L 15.09375 -19 
z
M 15.09375 32.8125 
C 15.90625 34 19.296875 37.734375 24.796875 37.734375 
C 31.796875 37.734375 37.40625 30.625 37.40625 22.0625 
C 37.40625 12.296875 30.59375 6 23.90625 6 
C 21.90625 6 19.796875 6.484375 17.796875 8.171875 
C 15.09375 10.53125 15.09375 12 15.09375 13.390625 
z
" id="CMSS17-112"/>
      <path d="M 14.796875 69 
L 7.40625 69 
L 7.40625 0 
L 14.796875 0 
z
" id="CMSS17-108"/>
      <path d="M 40.90625 42.796875 
L 33.296875 42.796875 
L 33.296875 15.1875 
C 33.296875 7.78125 27.90625 4.78125 22.203125 4.78125 
C 15.59375 4.78125 15 6.984375 15 11.078125 
L 15 42.796875 
L 7.40625 42.796875 
L 7.40625 10.59375 
C 7.40625 2.796875 10.09375 -1 17 -1 
C 20.40625 -1 28.09375 -0.203125 33.5 4.78125 
L 33.5 0 
L 40.90625 0 
z
" id="CMSS17-117"/>
      <path d="M 40.796875 69 
L 33.40625 69 
L 33.40625 38.09375 
C 30.296875 40.671875 25.203125 43.0625 19.59375 43.0625 
C 10.5 43.0625 3.296875 33.296875 3.296875 21.046875 
C 3.296875 8.78125 10.40625 -1 19.296875 -1 
C 26.203125 -1 30.796875 2.6875 33.203125 4.78125 
L 33.203125 -0.203125 
L 40.796875 -0.203125 
z
M 33.203125 13.0625 
C 33.203125 11.671875 33.203125 10.203125 30.09375 7.53125 
C 28.09375 5.859375 25.703125 5.078125 23.40625 5.078125 
C 18 5.078125 10.90625 9 10.90625 20.9375 
C 10.90625 33.34375 18.90625 37 24.40625 37 
C 28.09375 37 31.09375 35.21875 33.203125 32.265625 
z
" id="CMSS17-100"/>
      <path d="M 32.203125 41.046875 
C 26.296875 43.859375 21.703125 43.859375 18.703125 43.859375 
C 11.59375 43.859375 3.09375 41.375 3.09375 31.296875 
C 3.09375 21.234375 14.09375 19.03125 17.09375 18.421875 
C 21.703125 17.53125 26.796875 16.53125 26.796875 11.5625 
C 26.796875 5.265625 19.59375 5.265625 18.296875 5.265625 
C 14.296875 5.265625 8.796875 6.359375 3.796875 9.96875 
L 2.59375 3.28125 
C 8.296875 0 13.796875 -1 18.40625 -1 
C 30.703125 -1 33.796875 6.5 33.796875 12.203125 
C 33.796875 17.09375 31 20.390625 29.09375 21.890625 
C 25.796875 24.5 24.59375 24.796875 16.40625 26.5 
C 15 26.703125 10.09375 27.796875 10.09375 32.28125 
C 10.09375 38 16.40625 38 17.796875 38 
C 24.296875 38 28.296875 35.984375 31 34.5 
z
" id="CMSS17-115"/>
      <path d="M 16.796875 37 
L 26.90625 37 
L 26.90625 42.765625 
L 16.59375 42.765625 
L 16.59375 55.609375 
C 16.59375 62.71875 22 63.9375 25.09375 63.9375 
C 26.09375 63.9375 28.90625 63.9375 32.5 62.640625 
L 32.5 69.203125 
C 30.203125 69.703125 27.40625 70 25.203125 70 
C 15.90625 70 9.40625 62.390625 9.40625 52.484375 
L 9.40625 42.765625 
L 2.5 42.765625 
L 2.5 37 
L 9.40625 37 
L 9.40625 0 
L 16.796875 0 
z
" id="CMSS17-102"/>
      <path d="M 44.203125 21.1875 
C 44.203125 34 34.703125 44 23.5 44 
C 12 44 2.703125 33.703125 2.703125 21.1875 
C 2.703125 8.5 12.296875 -1 23.40625 -1 
C 34.796875 -1 44.203125 8.796875 44.203125 21.1875 
z
M 23.5 5.265625 
C 16.40625 5.265625 10.296875 11.078125 10.296875 22 
C 10.296875 33.609375 17.40625 37.921875 23.40625 37.921875 
C 29.90625 37.921875 36.59375 33.21875 36.59375 22 
C 36.59375 10.671875 30.09375 5.265625 23.5 5.265625 
z
" id="CMSS17-111"/>
      <path d="M 28.09375 66.515625 
C 28.203125 66.921875 28.40625 67.515625 28.40625 68 
C 28.40625 69 27.40625 69 27.203125 69 
C 27.09375 69 23.5 68.640625 21.703125 68.390625 
C 20 68.390625 18.5 68.09375 16.703125 68.09375 
C 14.296875 67.890625 13.59375 67.796875 13.59375 66 
C 13.59375 65 14.59375 65 15.59375 65 
C 20.703125 65 20.703125 64.109375 20.703125 63.125 
C 20.703125 62.734375 20.703125 62.53125 20.203125 60.75 
L 5.90625 3.875 
C 5.5 2.375 5.5 2.1875 5.5 1.578125 
C 5.5 -0.59375 7.203125 -1 8.203125 -1 
C 11 -1 11.59375 1.203125 12.40625 4.296875 
L 17.09375 22.953125 
C 24.296875 22.15625 28.59375 19.15625 28.59375 14.375 
C 28.59375 13.765625 28.59375 13.375 28.296875 11.875 
C 27.90625 10.375 27.90625 9.1875 27.90625 8.6875 
C 27.90625 2.890625 31.703125 -1 36.796875 -1 
C 41.40625 -1 43.796875 3.1875 44.59375 4.59375 
C 46.703125 8.28125 48 13.875 48 14.265625 
C 48 14.765625 47.59375 15.171875 47 15.171875 
C 46.09375 15.171875 46 14.765625 45.59375 13.171875 
C 44.203125 7.984375 42.09375 1 37 1 
C 35 1 33.703125 2 33.703125 5.78125 
C 33.703125 7.6875 34.09375 9.875 34.5 11.375 
C 34.90625 13.171875 34.90625 13.265625 34.90625 14.46875 
C 34.90625 20.359375 29.59375 23.65625 20.40625 24.84375 
C 24 27.046875 27.59375 30.9375 29 32.4375 
C 34.703125 38.8125 38.59375 42.015625 43.203125 42.015625 
C 45.5 42.015625 46.09375 41.40625 46.796875 40.8125 
C 43.09375 40.40625 41.703125 37.8125 41.703125 35.828125 
C 41.703125 33.421875 43.59375 32.625 45 32.625 
C 47.703125 32.625 50.09375 34.921875 50.09375 38.125 
C 50.09375 41.015625 47.796875 44 43.296875 44 
C 37.796875 44 33.296875 40.109375 26.203125 32.125 
C 25.203125 30.9375 21.5 27.140625 17.796875 25.75 
z
" id="CMMI12-107"/>
      <path d="M 30.09375 11.875 
C 29.59375 10.171875 29.59375 9.984375 28.203125 8.078125 
C 26 5.28125 21.59375 1 16.90625 1 
C 12.796875 1 10.5 4.6875 10.5 10.578125 
C 10.5 16.0625 13.59375 27.234375 15.5 31.4375 
C 18.90625 38.421875 23.59375 42.015625 27.5 42.015625 
C 34.09375 42.015625 35.40625 33.828125 35.40625 33.03125 
C 35.40625 32.9375 35.09375 31.625 35 31.4375 
z
M 36.5 37.421875 
C 35.40625 40.015625 32.703125 44 27.5 44 
C 16.203125 44 4 29.4375 4 14.671875 
C 4 4.796875 9.796875 -1 16.59375 -1 
C 22.09375 -1 26.796875 3.296875 29.59375 6.59375 
C 30.59375 0.703125 35.296875 -1 38.296875 -1 
C 41.296875 -1 43.703125 0.796875 45.5 4.390625 
C 47.09375 7.78125 48.5 13.875 48.5 14.265625 
C 48.5 14.765625 48.09375 15.171875 47.5 15.171875 
C 46.59375 15.171875 46.5 14.671875 46.09375 13.171875 
C 44.59375 7.28125 42.703125 1 38.59375 1 
C 35.703125 1 35.5 3.59375 35.5 5.59375 
C 35.5 7.890625 35.796875 8.984375 36.703125 12.875 
C 37.40625 15.375 37.90625 17.5625 38.703125 20.453125 
C 42.40625 35.421875 43.296875 39.015625 43.296875 39.609375 
C 43.296875 41.015625 42.203125 42.109375 40.703125 42.109375 
C 37.5 42.109375 36.703125 38.625 36.5 37.421875 
z
" id="CMMI12-97"/>
      <path d="M 64.296875 31.515625 
C 65.796875 31.515625 67.296875 31.515625 67.296875 33.203125 
C 67.296875 35 65.59375 35 63.90625 35 
L 8 35 
C 6.296875 35 4.59375 35 4.59375 33.203125 
C 4.59375 31.515625 6.09375 31.515625 7.59375 31.515625 
z
M 63.90625 14 
C 65.59375 14 67.296875 14 67.296875 15.796875 
C 67.296875 17.484375 65.796875 17.484375 64.296875 17.484375 
L 7.59375 17.484375 
C 6.09375 17.484375 4.59375 17.484375 4.59375 15.796875 
C 4.59375 14 6.296875 14 8 14 
z
" id="CMR17-61"/>
      <path d="M 17 0.09375 
L 17 7.96875 
L 9 7.96875 
L 9 0 
L 11.5 0 
L 8.90625 -12.5 
L 12.90625 -12.5 
z
" id="CMSS17-44"/>
      <path d="M 50.296875 66.515625 
C 50.40625 66.90625 50.59375 67.5 50.59375 68 
C 50.59375 69 49.59375 69 49.40625 69 
C 49.296875 69 44.40625 68.5625 43.90625 68.4375 
C 42.203125 68.328125 40.703125 68.09375 38.90625 68.09375 
C 36.40625 67.890625 35.703125 67.796875 35.703125 66 
C 35.703125 65 36.5 65 37.90625 65 
C 42.796875 65 42.90625 64.109375 42.90625 63.125 
C 42.90625 62.53125 42.703125 61.75 42.59375 61.453125 
L 36.5 37.421875 
C 35.40625 40.015625 32.703125 44 27.5 44 
C 16.203125 44 4 29.4375 4 14.671875 
C 4 4.796875 9.796875 -1 16.59375 -1 
C 22.09375 -1 26.796875 3.296875 29.59375 6.59375 
C 30.59375 0.703125 35.296875 -1 38.296875 -1 
C 41.296875 -1 43.703125 0.796875 45.5 4.390625 
C 47.09375 7.78125 48.5 13.875 48.5 14.265625 
C 48.5 14.765625 48.09375 15.171875 47.5 15.171875 
C 46.59375 15.171875 46.5 14.671875 46.09375 13.171875 
C 44.59375 7.28125 42.703125 1 38.59375 1 
C 35.703125 1 35.5 3.578125 35.5 5.578125 
C 35.5 5.96875 35.5 8.046875 36.203125 10.84375 
z
M 30.09375 11.875 
C 29.59375 10.171875 29.59375 9.984375 28.203125 8.078125 
C 26 5.28125 21.59375 1 16.90625 1 
C 12.796875 1 10.5 4.6875 10.5 10.578125 
C 10.5 16.0625 13.59375 27.234375 15.5 31.4375 
C 18.90625 38.421875 23.59375 42.015625 27.5 42.015625 
C 34.09375 42.015625 35.40625 33.828125 35.40625 33.03125 
C 35.40625 32.9375 35.09375 31.625 35 31.4375 
z
" id="CMMI12-100"/>
     </defs>
     <use transform="scale(0.996264)" xlink:href="#CMSS17-83"/>
     <use transform="translate(52.048516 0)scale(0.996264)" xlink:href="#CMSS17-99"/>
     <use transform="translate(93.687338 0)scale(0.996264)" xlink:href="#CMSS17-97"/>
     <use transform="translate(138.609259 0)scale(0.996264)" xlink:href="#CMSS17-116"/>
     <use transform="translate(172.440826 0)scale(0.996264)" xlink:href="#CMSS17-116"/>
     <use transform="translate(206.272392 0)scale(0.996264)" xlink:href="#CMSS17-101"/>
     <use transform="translate(247.911214 0)scale(0.996264)" xlink:href="#CMSS17-114"/>
     <use transform="translate(279.820987 0)scale(0.996264)" xlink:href="#CMSS17-105"/>
     <use transform="translate(302.00171 0)scale(0.996264)" xlink:href="#CMSS17-110"/>
     <use transform="translate(350.206653 0)scale(0.996264)" xlink:href="#CMSS17-103"/>
     <use transform="translate(428.279389 0)scale(0.996264)" xlink:href="#CMSS17-97"/>
     <use transform="translate(473.20131 0)scale(0.996264)" xlink:href="#CMSS17-109"/>
     <use transform="translate(547.430564 0)scale(0.996264)" xlink:href="#CMSS17-112"/>
     <use transform="translate(595.635507 0)scale(0.996264)" xlink:href="#CMSS17-108"/>
     <use transform="translate(617.816231 0)scale(0.996264)" xlink:href="#CMSS17-105"/>
     <use transform="translate(639.996954 0)scale(0.996264)" xlink:href="#CMSS17-116"/>
     <use transform="translate(673.82852 0)scale(0.996264)" xlink:href="#CMSS17-117"/>
     <use transform="translate(722.033463 0)scale(0.996264)" xlink:href="#CMSS17-100"/>
     <use transform="translate(770.238407 0)scale(0.996264)" xlink:href="#CMSS17-101"/>
     <use transform="translate(811.877229 0)scale(0.996264)" xlink:href="#CMSS17-115"/>
     <use transform="translate(879.019883 0)scale(0.996264)" xlink:href="#CMSS17-102"/>
     <use transform="translate(907.646542 0)scale(0.996264)" xlink:href="#CMSS17-111"/>
     <use transform="translate(951.887712 0)scale(0.996264)" xlink:href="#CMSS17-114"/>
     <use transform="translate(1015.026597 0)scale(0.996264)" xlink:href="#CMMI12-107"/>
     <use transform="translate(1069.105798 0)scale(0.996264)" xlink:href="#CMMI12-97"/>
     <use transform="translate(1147.987664 0)scale(0.996264)" xlink:href="#CMR17-61"/>
     <use transform="translate(1247.376461 0)scale(0.996264)" xlink:href="#CMR17-49"/>
     <use transform="translate(1293.066938 0)scale(0.996264)" xlink:href="#CMMI12-58"/>
     <use transform="translate(1320.164115 0)scale(0.996264)" xlink:href="#CMR17-48"/>
     <use transform="translate(1365.854593 0)scale(0.996264)" xlink:href="#CMSS17-44"/>
     <use transform="translate(1423.10791 0)scale(0.996264)" xlink:href="#CMMI12-107"/>
     <use transform="translate(1477.187111 0)scale(0.996264)" xlink:href="#CMMI12-100"/>
     <use transform="translate(1555.550216 0)scale(0.996264)" xlink:href="#CMR17-61"/>
     <use transform="translate(1654.939013 0)scale(0.996264)" xlink:href="#CMR17-50"/>
     <use transform="translate(1700.629491 0)scale(0.996264)" xlink:href="#CMR17-48"/>
     <use transform="translate(1746.319968 0)scale(0.996264)" xlink:href="#CMMI12-58"/>
     <use transform="translate(1773.417145 0)scale(0.996264)" xlink:href="#CMR17-48"/>
    </g>
   </g>
   <g id="legend_1">
    <g id="patch_7">
     <path d="M 549.987533 209.635594 
L 684.4 209.635594 
Q 688.4 209.635594 688.4 205.635594 
L 688.4 70.7 
Q 688.4 66.7 684.4 66.7 
L 549.987533 66.7 
Q 545.987533 66.7 545.987533 70.7 
L 545.987533 205.635594 
Q 545.987533 209.635594 549.987533 209.635594 
z
" style="fill:#ffffff;opacity:0.8;stroke:#cccccc;stroke-linejoin:miter;"/>
    </g>
    <g id="line2d_39">
     <path d="M 553.987533 83.509641 
L 593.987533 83.509641 
" style="fill:none;stroke:#0000ff;stroke-dasharray:7.4,3.2;stroke-dashoffset:0;stroke-width:2;"/>
    </g>
    <g id="line2d_40"/>
    <g id="text_21">
     <!-- $f^{exact}_{uncoupled}$ -->
     <g transform="translate(609.987533 90.509641)scale(0.2 -0.2)">
      <defs>
       <path d="M 17.90625 23.109375 
C 20.59375 23.109375 27.40625 23.109375 32.203125 24.921875 
C 39.796875 27.859375 40.5 33.71875 40.5 35.53125 
C 40.5 39.96875 36.703125 44 30.09375 44 
C 19.59375 44 4.5 34.53125 4.5 16.765625 
C 4.5 6.28125 10.5 -1 19.59375 -1 
C 33.203125 -1 41.796875 9.515625 41.796875 10.8125 
C 41.796875 11.40625 41.203125 11.90625 40.796875 11.90625 
C 40.5 11.90625 40.40625 11.8125 39.5 10.921875 
C 33.09375 2.484375 23.59375 1 19.796875 1 
C 14.09375 1 11.09375 5.46875 11.09375 12.84375 
C 11.09375 14.234375 11.09375 16.734375 12.59375 23.109375 
z
M 13.09375 25 
C 17.40625 40.5 26.90625 42.015625 30.09375 42.015625 
C 34.5 42.015625 37.5 39.40625 37.5 35.578125 
C 37.5 25 21.5 25 17.296875 25 
z
" id="CMMI12-101"/>
       <path d="M 47.40625 40.71875 
C 44.203125 40.109375 43 37.71875 43 35.828125 
C 43 33.421875 44.90625 32.625 46.296875 32.625 
C 49.296875 32.625 51.40625 35.21875 51.40625 37.921875 
C 51.40625 42.109375 46.59375 44 42.40625 44 
C 36.296875 44 32.90625 38.015625 32 36.125 
C 29.703125 44 23.5 44 21.703125 44 
C 11.5 44 6.09375 30.9375 6.09375 28.734375 
C 6.09375 28.34375 6.5 27.84375 7.203125 27.84375 
C 8 27.84375 8.203125 28.4375 8.40625 28.84375 
C 11.796875 39.921875 18.5 42.015625 21.40625 42.015625 
C 25.90625 42.015625 26.796875 37.8125 26.796875 35.421875 
C 26.796875 33.234375 26.203125 30.9375 25 26.140625 
L 21.59375 12.46875 
C 20.09375 6.484375 17.203125 1 11.90625 1 
C 11.40625 1 8.90625 1 6.796875 2.296875 
C 10.40625 3 11.203125 5.984375 11.203125 7.1875 
C 11.203125 9.1875 9.703125 10.375 7.796875 10.375 
C 5.40625 10.375 2.796875 8.28125 2.796875 5.09375 
C 2.796875 0.890625 7.5 -1 11.796875 -1 
C 16.59375 -1 20 2.796875 22.09375 6.890625 
C 23.703125 1 28.703125 -1 32.40625 -1 
C 42.59375 -1 48 12.078125 48 14.265625 
C 48 14.765625 47.59375 15.171875 47 15.171875 
C 46.09375 15.171875 46 14.671875 45.703125 13.875 
C 43 5.09375 37.203125 1 32.703125 1 
C 29.203125 1 27.296875 3.59375 27.296875 7.6875 
C 27.296875 9.875 27.703125 11.46875 29.296875 18.0625 
L 32.796875 31.625 
C 34.296875 37.625 37.703125 42.015625 42.296875 42.015625 
C 42.5 42.015625 45.296875 42.015625 47.40625 40.71875 
z
" id="CMMI12-120"/>
       <path d="M 39.09375 37.984375 
C 37.203125 37.984375 36.296875 37.984375 34.90625 36.796875 
C 34.296875 36.296875 33.203125 34.796875 33.203125 33.203125 
C 33.203125 31.203125 34.703125 30 36.59375 30 
C 39 30 41.703125 31.9375 41.703125 35.8125 
C 41.703125 40.4375 37.09375 44 30.203125 44 
C 17.09375 44 4 29.734375 4 15.5625 
C 4 6.890625 9.40625 -1 19.59375 -1 
C 33.203125 -1 41.796875 9.71875 41.796875 11.03125 
C 41.796875 11.625 41.203125 12.125 40.796875 12.125 
C 40.5 12.125 40.40625 12.03125 39.5 11.140625 
C 33.09375 2.53125 23.59375 1 19.796875 1 
C 12.90625 1 10.703125 6.96875 10.703125 11.9375 
C 10.703125 15.4375 12.40625 25.078125 16 31.859375 
C 18.59375 36.53125 24 41.90625 30.296875 41.90625 
C 31.59375 41.90625 37.09375 41.90625 39.09375 37.984375 
z
" id="CMMI12-99"/>
       <path d="M 20.09375 40.09375 
L 29.296875 40.09375 
C 31.203125 40.09375 32.203125 40.09375 32.203125 41.890625 
C 32.203125 43 31.59375 43 29.59375 43 
L 20.796875 43 
L 24.5 57.6875 
C 24.90625 59.078125 24.90625 59.28125 24.90625 60 
C 24.90625 61.609375 23.59375 62.5 22.296875 62.5 
C 21.5 62.5 19.203125 62.203125 18.40625 58.984375 
L 14.5 43 
L 5.09375 43 
C 3.09375 43 2.203125 43 2.203125 41.09375 
C 2.203125 40.09375 2.90625 40.09375 4.796875 40.09375 
L 13.703125 40.09375 
L 7.09375 13.765625 
C 6.296875 10.28125 6 9.28125 6 7.984375 
C 6 3.296875 9.296875 -1 14.90625 -1 
C 25 -1 30.40625 13.5625 30.40625 14.25 
C 30.40625 14.859375 30 15.15625 29.40625 15.15625 
C 29.203125 15.15625 28.796875 15.15625 28.59375 14.75 
C 28.5 14.65625 28.40625 14.546875 27.703125 12.953125 
C 25.59375 7.984375 21 1 15.203125 1 
C 12.203125 1 12 3.5 12 5.6875 
C 12 5.78125 12 7.6875 12.296875 8.875 
z
" id="CMMI12-116"/>
       <path d="M 34.09375 5.78125 
C 35.40625 0.203125 40.203125 -1 42.59375 -1 
C 45.796875 -1 48.203125 1.09375 49.796875 4.484375 
C 51.5 8.078125 52.796875 13.96875 52.796875 14.265625 
C 52.796875 14.765625 52.40625 15.171875 51.796875 15.171875 
C 50.90625 15.171875 50.796875 14.671875 50.40625 13.171875 
C 48.59375 6.28125 46.796875 1 42.796875 1 
C 39.796875 1 39.796875 4.296875 39.796875 5.59375 
C 39.796875 7.890625 40.09375 8.875 41.09375 13.078125 
C 41.796875 15.765625 42.5 18.453125 43.09375 21.25 
L 47.203125 37.515625 
C 47.90625 40.015625 47.90625 40.21875 47.90625 40.515625 
C 47.90625 42.015625 46.703125 43.015625 45.203125 43.015625 
C 42.296875 43.015625 41.59375 40.515625 41 38.015625 
C 40 34.125 34.59375 12.671875 33.90625 9.1875 
C 33.796875 9.1875 29.90625 1 22.59375 1 
C 17.40625 1 16.40625 5.484375 16.40625 9.1875 
C 16.40625 14.875 19.203125 22.84375 21.796875 29.53125 
C 23 32.734375 23.5 34.03125 23.5 36.015625 
C 23.5 40.3125 20.40625 44 15.59375 44 
C 6.40625 44 2.703125 29.53125 2.703125 28.734375 
C 2.703125 28.34375 3.09375 27.84375 3.796875 27.84375 
C 4.703125 27.84375 4.796875 28.234375 5.203125 29.625 
C 7.59375 38.140625 11.5 41.90625 15.296875 41.90625 
C 16.296875 41.90625 17.90625 41.90625 17.90625 38.71875 
C 17.90625 36.125 16.796875 33.234375 15.296875 29.4375 
C 10.90625 17.5625 10.40625 13.765625 10.40625 10.78125 
C 10.40625 0.59375 18.09375 -1 22.203125 -1 
C 28.59375 -1 32.09375 3.390625 34.09375 5.78125 
z
" id="CMMI12-117"/>
       <path d="M 20.59375 29.234375 
C 20.796875 29.84375 23.296875 34.828125 27 38.015625 
C 29.59375 40.40625 33 42.015625 36.90625 42.015625 
C 40.90625 42.015625 42.296875 39.015625 42.296875 35.03125 
C 42.296875 29.34375 38.203125 17.96875 36.203125 12.578125 
C 35.296875 10.171875 34.796875 8.875 34.796875 7.078125 
C 34.796875 2.59375 37.90625 -1 42.703125 -1 
C 52 -1 55.5 13.671875 55.5 14.265625 
C 55.5 14.765625 55.09375 15.171875 54.5 15.171875 
C 53.59375 15.171875 53.5 14.875 53 13.171875 
C 50.703125 4.984375 46.90625 1 43 1 
C 42 1 40.40625 1 40.40625 4.203125 
C 40.40625 6.703125 41.5 9.703125 42.09375 11.09375 
C 44.09375 16.609375 48.296875 27.8125 48.296875 33.515625 
C 48.296875 39.5 44.796875 44 37.203125 44 
C 28.296875 44 23.59375 37.734375 21.796875 35.234375 
C 21.5 40.90625 17.40625 44 13 44 
C 9.796875 44 7.59375 42.109375 5.90625 38.71875 
C 4.09375 35.125 2.703125 29.140625 2.703125 28.734375 
C 2.703125 28.34375 3.09375 27.84375 3.796875 27.84375 
C 4.59375 27.84375 4.703125 27.9375 5.296875 30.234375 
C 6.90625 36.328125 8.703125 42.015625 12.703125 42.015625 
C 15 42.015625 15.796875 40.40625 15.796875 37.421875 
C 15.796875 35.21875 14.796875 31.328125 14.09375 28.234375 
L 11.296875 17.46875 
C 10.90625 15.5625 9.796875 11.078125 9.296875 9.28125 
C 8.59375 6.6875 7.5 2 7.5 1.5 
C 7.5 0.09375 8.59375 -1 10.09375 -1 
C 11.296875 -1 12.703125 -0.40625 13.5 1.09375 
C 13.703125 1.59375 14.59375 5.09375 15.09375 7.078125 
L 17.296875 16.0625 
z
" id="CMMI12-110"/>
       <path d="M 45.59375 27.4375 
C 45.59375 36.921875 39.40625 44 30.296875 44 
C 17.09375 44 4.09375 29.640625 4.09375 15.5625 
C 4.09375 6.09375 10.296875 -1 19.40625 -1 
C 32.703125 -1 45.59375 13.375 45.59375 27.4375 
z
M 19.5 1 
C 14.5 1 10.796875 4.984375 10.796875 11.96875 
C 10.796875 16.5625 13.203125 26.75 16 31.734375 
C 20.5 39.421875 26.09375 42.015625 30.203125 42.015625 
C 35.09375 42.015625 38.90625 38.015625 38.90625 31.03125 
C 38.90625 27.046875 36.796875 16.359375 33 10.28125 
C 28.90625 3.59375 23.40625 1 19.5 1 
z
" id="CMMI12-111"/>
       <path d="M 4.296875 -12.328125 
C 3.59375 -15.3125 3.203125 -16.109375 -0.90625 -16.109375 
C -2.09375 -16.109375 -3.09375 -16.109375 -3.09375 -18 
C -3.09375 -18.203125 -3 -19 -1.90625 -19 
C -0.59375 -19 0.796875 -19 2.09375 -19 
L 6.40625 -19 
C 8.5 -19 13.59375 -19 15.703125 -19 
C 16.296875 -19 17.5 -19 17.5 -17.203125 
C 17.5 -16.109375 16.796875 -16.109375 15.09375 -16.109375 
C 10.5 -16.109375 10.203125 -15.421875 10.203125 -14.640625 
C 10.203125 -13.453125 14.703125 3.421875 15.296875 5.6875 
C 16.40625 2.890625 19.09375 -1 24.296875 -1 
C 35.59375 -1 47.796875 13.671875 47.796875 28.34375 
C 47.796875 37.515625 42.59375 44 35.09375 44 
C 28.703125 44 23.296875 37.8125 22.203125 36.421875 
C 21.40625 41.40625 17.5 44 13.5 44 
C 10.59375 44 8.296875 42.609375 6.40625 38.8125 
C 4.59375 35.21875 3.203125 29.140625 3.203125 28.734375 
C 3.203125 28.34375 3.59375 27.84375 4.296875 27.84375 
C 5.09375 27.84375 5.203125 27.9375 5.796875 30.234375 
C 7.296875 36.125 9.203125 42.015625 13.203125 42.015625 
C 15.5 42.015625 16.296875 40.421875 16.296875 37.453125 
C 16.296875 35.078125 16 34.078125 15.59375 32.296875 
z
M 21.59375 31.140625 
C 22.296875 33.921875 25.09375 36.828125 26.703125 38.21875 
C 27.796875 39.21875 31.09375 42.015625 34.90625 42.015625 
C 39.296875 42.015625 41.296875 37.625 41.296875 32.4375 
C 41.296875 27.640625 38.5 16.359375 36 11.171875 
C 33.5 5.78125 28.90625 1 24.296875 1 
C 17.5 1 16.40625 9.578125 16.40625 9.984375 
C 16.40625 10.28125 16.59375 11.078125 16.703125 11.578125 
z
" id="CMMI12-112"/>
       <path d="M 25.40625 66.515625 
C 25.5 66.90625 25.703125 67.5 25.703125 68 
C 25.703125 69 24.703125 69 24.5 69 
C 24.40625 69 20.796875 68.640625 19 68.390625 
C 17.296875 68.390625 15.796875 68.09375 14 68.09375 
C 11.59375 67.890625 10.90625 67.796875 10.90625 66 
C 10.90625 65 11.90625 65 12.90625 65 
C 18 65 18 64.09375 18 63.109375 
C 18 62.71875 18 62.515625 17.5 60.734375 
L 5.09375 11.421875 
C 4.796875 10.328125 4.59375 9.53125 4.59375 7.953125 
C 4.59375 2.984375 8.296875 -1 13.40625 -1 
C 16.703125 -1 18.90625 1.1875 20.5 4.28125 
C 22.203125 7.546875 23.59375 13.8125 23.59375 14.203125 
C 23.59375 14.703125 23.203125 15.109375 22.59375 15.109375 
C 21.703125 15.109375 21.59375 14.609375 21.203125 13.125 
C 19.40625 6.265625 17.59375 1 13.59375 1 
C 10.59375 1 10.59375 4.171875 10.59375 5.578125 
C 10.59375 5.96875 10.59375 8.046875 11.296875 10.84375 
z
" id="CMMI12-108"/>
      </defs>
      <use transform="scale(0.996264)" xlink:href="#CMMI12-102"/>
      <use transform="translate(58.720305 36.153639)scale(0.697382)" xlink:href="#CMMI12-101"/>
      <use transform="translate(90.368561 36.153639)scale(0.697382)" xlink:href="#CMMI12-120"/>
      <use transform="translate(129.17222 36.153639)scale(0.697382)" xlink:href="#CMMI12-97"/>
      <use transform="translate(165.017567 36.153639)scale(0.697382)" xlink:href="#CMMI12-99"/>
      <use transform="translate(194.405698 36.153639)scale(0.697382)" xlink:href="#CMMI12-116"/>
      <use transform="translate(48.083238 -28.21539)scale(0.697382)" xlink:href="#CMMI12-117"/>
      <use transform="translate(86.947294 -28.21539)scale(0.697382)" xlink:href="#CMMI12-110"/>
      <use transform="translate(127.708137 -28.21539)scale(0.697382)" xlink:href="#CMMI12-99"/>
      <use transform="translate(157.096268 -28.21539)scale(0.697382)" xlink:href="#CMMI12-111"/>
      <use transform="translate(189.92283 -28.21539)scale(0.697382)" xlink:href="#CMMI12-117"/>
      <use transform="translate(228.786886 -28.21539)scale(0.697382)" xlink:href="#CMMI12-112"/>
      <use transform="translate(263.058392 -28.21539)scale(0.697382)" xlink:href="#CMMI12-108"/>
      <use transform="translate(284.932176 -28.21539)scale(0.697382)" xlink:href="#CMMI12-101"/>
      <use transform="translate(316.580432 -28.21539)scale(0.697382)" xlink:href="#CMMI12-100"/>
     </g>
    </g>
    <g id="line2d_41">
     <path d="M 553.987533 117.674364 
L 593.987533 117.674364 
" style="fill:none;stroke:#0000ff;stroke-linecap:square;stroke-width:2;"/>
    </g>
    <g id="line2d_42"/>
    <g id="text_22">
     <!-- $f^{exact}_{coupled}$ -->
     <g transform="translate(609.987533 124.674364)scale(0.2 -0.2)">
      <use transform="scale(0.996264)" xlink:href="#CMMI12-102"/>
      <use transform="translate(58.720305 36.153639)scale(0.697382)" xlink:href="#CMMI12-101"/>
      <use transform="translate(90.368561 36.153639)scale(0.697382)" xlink:href="#CMMI12-120"/>
      <use transform="translate(129.17222 36.153639)scale(0.697382)" xlink:href="#CMMI12-97"/>
      <use transform="translate(165.017567 36.153639)scale(0.697382)" xlink:href="#CMMI12-99"/>
      <use transform="translate(194.405698 36.153639)scale(0.697382)" xlink:href="#CMMI12-116"/>
      <use transform="translate(48.083238 -28.21539)scale(0.697382)" xlink:href="#CMMI12-99"/>
      <use transform="translate(77.471369 -28.21539)scale(0.697382)" xlink:href="#CMMI12-111"/>
      <use transform="translate(110.297931 -28.21539)scale(0.697382)" xlink:href="#CMMI12-117"/>
      <use transform="translate(149.161987 -28.21539)scale(0.697382)" xlink:href="#CMMI12-112"/>
      <use transform="translate(183.433493 -28.21539)scale(0.697382)" xlink:href="#CMMI12-108"/>
      <use transform="translate(205.307277 -28.21539)scale(0.697382)" xlink:href="#CMMI12-101"/>
      <use transform="translate(236.955533 -28.21539)scale(0.697382)" xlink:href="#CMMI12-100"/>
     </g>
    </g>
    <g id="line2d_43">
     <path d="M 553.987533 151.609844 
L 593.987533 151.609844 
" style="fill:none;stroke:#ff0000;stroke-dasharray:7.4,3.2;stroke-dashoffset:0;stroke-width:2;"/>
    </g>
    <g id="line2d_44"/>
    <g id="text_23">
     <!-- $f^{approx}_{uncoupled}$ -->
     <g transform="translate(609.987533 158.609844)scale(0.2 -0.2)">
      <defs>
       <path d="M 38.90625 40.8125 
C 35.796875 40.21875 34.203125 38.015625 34.203125 35.828125 
C 34.203125 33.421875 36.09375 32.625 37.5 32.625 
C 40.296875 32.625 42.59375 35.03125 42.59375 38.015625 
C 42.59375 41.21875 39.5 44 34.5 44 
C 30.5 44 25.90625 42.203125 21.703125 36.125 
C 21 41.40625 17 44 13 44 
C 9.09375 44 7.09375 41.015625 5.90625 38.8125 
C 4.203125 35.21875 2.703125 29.234375 2.703125 28.734375 
C 2.703125 28.34375 3.09375 27.84375 3.796875 27.84375 
C 4.59375 27.84375 4.703125 27.9375 5.296875 30.234375 
C 6.796875 36.21875 8.703125 42.015625 12.703125 42.015625 
C 15.09375 42.015625 15.796875 40.3125 15.796875 37.421875 
C 15.796875 35.21875 14.796875 31.328125 14.09375 28.234375 
L 11.296875 17.46875 
C 10.90625 15.5625 9.796875 11.078125 9.296875 9.28125 
C 8.59375 6.6875 7.5 2 7.5 1.5 
C 7.5 0.09375 8.59375 -1 10.09375 -1 
C 11.203125 -1 13.09375 -0.296875 13.703125 1.703125 
C 14 2.5 17.703125 17.5625 18.296875 19.859375 
C 18.796875 22.046875 19.40625 24.15625 19.90625 26.34375 
C 20.296875 27.734375 20.703125 29.34375 21 30.640625 
C 21.296875 31.53125 24 36.421875 26.5 38.625 
C 27.703125 39.71875 30.296875 42.015625 34.40625 42.015625 
C 36 42.015625 37.59375 41.71875 38.90625 40.8125 
z
" id="CMMI12-114"/>
      </defs>
      <use transform="scale(0.996264)" xlink:href="#CMMI12-102"/>
      <use transform="translate(58.720305 47.87587)scale(0.697382)" xlink:href="#CMMI12-97"/>
      <use transform="translate(94.565652 47.87587)scale(0.697382)" xlink:href="#CMMI12-112"/>
      <use transform="translate(128.837158 47.87587)scale(0.697382)" xlink:href="#CMMI12-112"/>
      <use transform="translate(163.108664 47.87587)scale(0.697382)" xlink:href="#CMMI12-114"/>
      <use transform="translate(195.777933 47.87587)scale(0.697382)" xlink:href="#CMMI12-111"/>
      <use transform="translate(228.604495 47.87587)scale(0.697382)" xlink:href="#CMMI12-120"/>
      <use transform="translate(48.083238 -30.0533)scale(0.697382)" xlink:href="#CMMI12-117"/>
      <use transform="translate(86.947294 -30.0533)scale(0.697382)" xlink:href="#CMMI12-110"/>
      <use transform="translate(127.708137 -30.0533)scale(0.697382)" xlink:href="#CMMI12-99"/>
      <use transform="translate(157.096268 -30.0533)scale(0.697382)" xlink:href="#CMMI12-111"/>
      <use transform="translate(189.92283 -30.0533)scale(0.697382)" xlink:href="#CMMI12-117"/>
      <use transform="translate(228.786886 -30.0533)scale(0.697382)" xlink:href="#CMMI12-112"/>
      <use transform="translate(263.058392 -30.0533)scale(0.697382)" xlink:href="#CMMI12-108"/>
      <use transform="translate(284.932176 -30.0533)scale(0.697382)" xlink:href="#CMMI12-101"/>
      <use transform="translate(316.580432 -30.0533)scale(0.697382)" xlink:href="#CMMI12-100"/>
     </g>
    </g>
    <g id="line2d_45">
     <path d="M 553.987533 185.912918 
L 593.987533 185.912918 
" style="fill:none;stroke:#ff0000;stroke-linecap:square;stroke-width:2;"/>
    </g>
    <g id="line2d_46"/>
    <g id="text_24">
     <!-- $f^{approx}_{coupled}$ -->
     <g transform="translate(609.987533 192.912918)scale(0.2 -0.2)">
      <use transform="scale(0.996264)" xlink:href="#CMMI12-102"/>
      <use transform="translate(58.720305 47.87587)scale(0.697382)" xlink:href="#CMMI12-97"/>
      <use transform="translate(94.565652 47.87587)scale(0.697382)" xlink:href="#CMMI12-112"/>
      <use transform="translate(128.837158 47.87587)scale(0.697382)" xlink:href="#CMMI12-112"/>
      <use transform="translate(163.108664 47.87587)scale(0.697382)" xlink:href="#CMMI12-114"/>
      <use transform="translate(195.777933 47.87587)scale(0.697382)" xlink:href="#CMMI12-111"/>
      <use transform="translate(228.604495 47.87587)scale(0.697382)" xlink:href="#CMMI12-120"/>
      <use transform="translate(48.083238 -30.0533)scale(0.697382)" xlink:href="#CMMI12-99"/>
      <use transform="translate(77.471369 -30.0533)scale(0.697382)" xlink:href="#CMMI12-111"/>
      <use transform="translate(110.297931 -30.0533)scale(0.697382)" xlink:href="#CMMI12-117"/>
      <use transform="translate(149.161987 -30.0533)scale(0.697382)" xlink:href="#CMMI12-112"/>
      <use transform="translate(183.433493 -30.0533)scale(0.697382)" xlink:href="#CMMI12-108"/>
      <use transform="translate(205.307277 -30.0533)scale(0.697382)" xlink:href="#CMMI12-101"/>
      <use transform="translate(236.955533 -30.0533)scale(0.697382)" xlink:href="#CMMI12-100"/>
     </g>
    </g>
   </g>
  </g>
 </g>
 <defs>
  <clipPath id="p54b97879db">
   <rect height="664.2" width="590.4" x="108" y="56.7"/>
  </clipPath>
 </defs>
</svg>
