<?xml version="1.0" encoding="utf-8" standalone="no"?>
<!DOCTYPE svg PUBLIC "-//W3C//DTD SVG 1.1//EN"
  "http://www.w3.org/Graphics/SVG/1.1/DTD/svg11.dtd">
<!-- Created with matplotlib (https://matplotlib.org/) -->
<svg height="810pt" version="1.1" viewBox="0 0 720 810" width="720pt" xmlns="http://www.w3.org/2000/svg" xmlns:xlink="http://www.w3.org/1999/xlink">
 <metadata>
  <rdf:RDF xmlns:cc="http://creativecommons.org/ns#" xmlns:dc="http://purl.org/dc/elements/1.1/" xmlns:rdf="http://www.w3.org/1999/02/22-rdf-syntax-ns#">
   <cc:Work>
    <dc:type rdf:resource="http://purl.org/dc/dcmitype/StillImage"/>
    <dc:date>2020-11-23T10:48:49.227632</dc:date>
    <dc:format>image/svg+xml</dc:format>
    <dc:creator>
     <cc:Agent>
      <dc:title>Matplotlib v3.3.1, https://matplotlib.org/</dc:title>
     </cc:Agent>
    </dc:creator>
   </cc:Work>
  </rdf:RDF>
 </metadata>
 <defs>
  <style type="text/css">*{stroke-linecap:butt;stroke-linejoin:round;}</style>
 </defs>
 <g id="figure_1">
  <g id="patch_1">
   <path d="M 0 810 
L 720 810 
L 720 0 
L 0 0 
z
" style="fill:#ffffff;"/>
  </g>
  <g id="axes_1">
   <g id="patch_2">
    <path d="M 108 720.9 
L 698.4 720.9 
L 698.4 56.7 
L 108 56.7 
z
" style="fill:#ffffff;"/>
   </g>
   <g id="matplotlib.axis_1">
    <g id="xtick_1">
     <g id="line2d_1">
      <path clip-path="url(#p5f0e65d4f2)" d="M 216.440816 720.9 
L 216.440816 56.7 
" style="fill:none;stroke:#e6e6e6;stroke-linecap:square;stroke-width:0.8;"/>
     </g>
     <g id="line2d_2">
      <defs>
       <path d="M 0 0 
L 0 -3.5 
" id="m64b217d5a1" style="stroke:#000000;stroke-width:0.8;"/>
      </defs>
      <g>
       <use style="stroke:#000000;stroke-width:0.8;" x="216.440816" xlink:href="#m64b217d5a1" y="720.9"/>
      </g>
     </g>
     <g id="text_1">
      <!-- $\mathdefault{10}$ -->
      <g transform="translate(209.124579 734.777725)scale(0.15 -0.15)">
       <defs>
        <path d="M 26.59375 63.40625 
C 26.59375 65.5 26.5 65.5 25.09375 65.5 
C 21.203125 61.1875 15.296875 59.796875 9.703125 59.796875 
C 9.40625 59.796875 8.90625 59.796875 8.796875 59.5 
C 8.703125 59.296875 8.703125 59.09375 8.703125 57 
C 11.796875 57 17 57.59375 21 59.984375 
L 21 7.203125 
C 21 3.6875 20.796875 2.5 12.203125 2.5 
L 9.203125 2.5 
L 9.203125 0 
C 14 0 19 0 23.796875 0 
C 28.59375 0 33.59375 0 38.40625 0 
L 38.40625 2.5 
L 35.40625 2.5 
C 26.796875 2.5 26.59375 3.59375 26.59375 7.15625 
z
" id="CMR17-49"/>
        <path d="M 42 31.640625 
C 42 37.75 41.90625 48.125 37.703125 56.109375 
C 34 63.109375 28.09375 65.59375 22.90625 65.59375 
C 18.09375 65.59375 12 63.40625 8.203125 56.203125 
C 4.203125 48.71875 3.796875 39.4375 3.796875 31.640625 
C 3.796875 25.953125 3.90625 17.28125 7 9.671875 
C 11.296875 -0.609375 19 -2 22.90625 -2 
C 27.5 -2 34.5 -0.109375 38.59375 9.375 
C 41.59375 16.28125 42 24.359375 42 31.640625 
z
M 22.90625 -0.40625 
C 16.5 -0.40625 12.703125 5.078125 11.296875 12.6875 
C 10.203125 18.5625 10.203125 27.15625 10.203125 32.75 
C 10.203125 40.4375 10.203125 46.828125 11.5 52.921875 
C 13.40625 61.390625 19 64 22.90625 64 
C 27 64 32.296875 61.296875 34.203125 53.125 
C 35.5 47.4375 35.59375 40.734375 35.59375 32.75 
C 35.59375 26.25 35.59375 18.265625 34.40625 12.375 
C 32.296875 1.484375 26.40625 -0.40625 22.90625 -0.40625 
z
" id="CMR17-48"/>
       </defs>
       <use transform="scale(0.996264)" xlink:href="#CMR17-49"/>
       <use transform="translate(45.690477 0)scale(0.996264)" xlink:href="#CMR17-48"/>
      </g>
     </g>
    </g>
    <g id="xtick_2">
     <g id="line2d_3">
      <path clip-path="url(#p5f0e65d4f2)" d="M 336.930612 720.9 
L 336.930612 56.7 
" style="fill:none;stroke:#e6e6e6;stroke-linecap:square;stroke-width:0.8;"/>
     </g>
     <g id="line2d_4">
      <g>
       <use style="stroke:#000000;stroke-width:0.8;" x="336.930612" xlink:href="#m64b217d5a1" y="720.9"/>
      </g>
     </g>
     <g id="text_2">
      <!-- $\mathdefault{20}$ -->
      <g transform="translate(329.614374 734.777725)scale(0.15 -0.15)">
       <defs>
        <path d="M 41.703125 15.453125 
L 39.90625 15.453125 
C 38.90625 8.375 38.09375 7.171875 37.703125 6.5625 
C 37.203125 5.765625 30 5.765625 28.59375 5.765625 
L 9.40625 5.765625 
C 13 9.671875 20 16.75 28.5 24.953125 
C 34.59375 30.734375 41.703125 37.53125 41.703125 47.421875 
C 41.703125 59.21875 32.296875 66 21.796875 66 
C 10.796875 66 4.09375 56.3125 4.09375 47.34375 
C 4.09375 43.4375 7 42.9375 8.203125 42.9375 
C 9.203125 42.9375 12.203125 43.546875 12.203125 47.03125 
C 12.203125 50.109375 9.59375 51 8.203125 51 
C 7.59375 51 7 50.90625 6.59375 50.703125 
C 8.5 59.21875 14.296875 63.40625 20.40625 63.40625 
C 29.09375 63.40625 34.796875 56.515625 34.796875 47.421875 
C 34.796875 38.734375 29.703125 31.25 24 24.75 
L 4.09375 2.28125 
L 4.09375 0 
L 39.296875 0 
z
" id="CMR17-50"/>
       </defs>
       <use transform="scale(0.996264)" xlink:href="#CMR17-50"/>
       <use transform="translate(45.690477 0)scale(0.996264)" xlink:href="#CMR17-48"/>
      </g>
     </g>
    </g>
    <g id="xtick_3">
     <g id="line2d_5">
      <path clip-path="url(#p5f0e65d4f2)" d="M 457.420408 720.9 
L 457.420408 56.7 
" style="fill:none;stroke:#e6e6e6;stroke-linecap:square;stroke-width:0.8;"/>
     </g>
     <g id="line2d_6">
      <g>
       <use style="stroke:#000000;stroke-width:0.8;" x="457.420408" xlink:href="#m64b217d5a1" y="720.9"/>
      </g>
     </g>
     <g id="text_3">
      <!-- $\mathdefault{30}$ -->
      <g transform="translate(450.10417 734.777725)scale(0.15 -0.15)">
       <defs>
        <path d="M 22.09375 33.703125 
C 31 33.703125 34.90625 25.96875 34.90625 17.03125 
C 34.90625 5 28.5 0.390625 22.703125 0.390625 
C 17.40625 0.390625 8.796875 3.03125 6.09375 10.828125 
C 6.59375 10.625 7.09375 10.625 7.59375 10.625 
C 10 10.625 11.796875 12.21875 11.796875 14.8125 
C 11.796875 17.703125 9.59375 19 7.59375 19 
C 5.90625 19 3.296875 18.203125 3.296875 14.46875 
C 3.296875 5.234375 12.296875 -2 22.90625 -2 
C 34 -2 42.5 6.71875 42.5 16.953125 
C 42.5 26.671875 34.5 33.703125 25 34.796875 
C 32.59375 36.375 39.90625 43.0625 39.90625 52.015625 
C 39.90625 59.6875 32 65.296875 23 65.296875 
C 13.90625 65.296875 5.90625 59.828125 5.90625 52.015625 
C 5.90625 48.59375 8.5 48 9.796875 48 
C 11.90625 48 13.703125 49.296875 13.703125 51.890625 
C 13.703125 54.46875 11.90625 55.765625 9.796875 55.765625 
C 9.40625 55.765625 8.90625 55.765625 8.5 55.578125 
C 11.40625 61.859375 19.296875 63 22.796875 63 
C 26.296875 63 32.90625 61.328125 32.90625 51.875 
C 32.90625 49.109375 32.5 44.1875 29.09375 39.84375 
C 26.09375 36 22.703125 36 19.40625 35.6875 
C 18.90625 35.6875 16.59375 35.453125 16.203125 35.453125 
C 15.5 35.359375 15.09375 35.265625 15.09375 34.5 
C 15.09375 33.796875 15.203125 33.703125 17.203125 33.703125 
z
" id="CMR17-51"/>
       </defs>
       <use transform="scale(0.996264)" xlink:href="#CMR17-51"/>
       <use transform="translate(45.690477 0)scale(0.996264)" xlink:href="#CMR17-48"/>
      </g>
     </g>
    </g>
    <g id="xtick_4">
     <g id="line2d_7">
      <path clip-path="url(#p5f0e65d4f2)" d="M 577.910204 720.9 
L 577.910204 56.7 
" style="fill:none;stroke:#e6e6e6;stroke-linecap:square;stroke-width:0.8;"/>
     </g>
     <g id="line2d_8">
      <g>
       <use style="stroke:#000000;stroke-width:0.8;" x="577.910204" xlink:href="#m64b217d5a1" y="720.9"/>
      </g>
     </g>
     <g id="text_4">
      <!-- $\mathdefault{40}$ -->
      <g transform="translate(570.593966 734.777725)scale(0.15 -0.15)">
       <defs>
        <path d="M 33.59375 64.40625 
C 33.59375 66.5 33.5 66.5 31.703125 66.5 
L 2 19.59375 
L 2 17 
L 27.796875 17 
L 27.796875 7.140625 
C 27.796875 3.5 27.59375 2.5 20.59375 2.5 
L 18.703125 2.5 
L 18.703125 0 
C 21.90625 0 27.296875 0 30.703125 0 
C 34.09375 0 39.5 0 42.703125 0 
L 42.703125 2.5 
L 40.796875 2.5 
C 33.796875 2.5 33.59375 3.5 33.59375 7.140625 
L 33.59375 17 
L 43.796875 17 
L 43.796875 19.59375 
L 33.59375 19.59375 
z
M 28.09375 57.859375 
L 28.09375 19.59375 
L 4 19.59375 
z
" id="CMR17-52"/>
       </defs>
       <use transform="scale(0.996264)" xlink:href="#CMR17-52"/>
       <use transform="translate(45.690477 0)scale(0.996264)" xlink:href="#CMR17-48"/>
      </g>
     </g>
    </g>
    <g id="xtick_5">
     <g id="line2d_9">
      <path clip-path="url(#p5f0e65d4f2)" d="M 698.4 720.9 
L 698.4 56.7 
" style="fill:none;stroke:#e6e6e6;stroke-linecap:square;stroke-width:0.8;"/>
     </g>
     <g id="line2d_10">
      <g>
       <use style="stroke:#000000;stroke-width:0.8;" x="698.4" xlink:href="#m64b217d5a1" y="720.9"/>
      </g>
     </g>
     <g id="text_5">
      <!-- $\mathdefault{50}$ -->
      <g transform="translate(691.083762 734.777725)scale(0.15 -0.15)">
       <defs>
        <path d="M 11.40625 57.6875 
C 12.40625 57.28125 16.5 56 20.703125 56 
C 30 56 35.09375 61.109375 38 64.0625 
C 38 64.953125 38 65.5 37.40625 65.5 
C 37.296875 65.5 37.09375 65.5 36.296875 65.046875 
C 32.796875 63.40625 28.703125 62.078125 23.703125 62.078125 
C 20.703125 62.078125 16.203125 62.484375 11.296875 64.671875 
C 10.203125 65.171875 10 65.171875 9.90625 65.171875 
C 9.40625 65.171875 9.296875 65.0625 9.296875 63.078125 
L 9.296875 34.421875 
C 9.296875 32.640625 9.296875 32.140625 10.296875 32.140625 
C 10.796875 32.140625 11 32.34375 11.5 33.03125 
C 14.703125 37.515625 19.09375 39.40625 24.09375 39.40625 
C 27.59375 39.40625 35.09375 37.21875 35.09375 20.140625 
C 35.09375 16.953125 35.09375 11.171875 32.09375 6.578125 
C 29.59375 2.484375 25.703125 0.390625 21.40625 0.390625 
C 14.796875 0.390625 8.09375 5 6.296875 12.71875 
C 6.703125 12.609375 7.5 12.421875 7.90625 12.421875 
C 9.203125 12.421875 11.703125 13.125 11.703125 16.21875 
C 11.703125 18.90625 9.796875 20 7.90625 20 
C 5.59375 20 4.09375 18.59375 4.09375 15.796875 
C 4.09375 7.09375 11 -2 21.59375 -2 
C 31.90625 -2 41.703125 6.875 41.703125 19.75 
C 41.703125 31.71875 33.90625 41 24.203125 41 
C 19.09375 41 14.796875 39.109375 11.40625 35.53125 
z
" id="CMR17-53"/>
       </defs>
       <use transform="scale(0.996264)" xlink:href="#CMR17-53"/>
       <use transform="translate(45.690477 0)scale(0.996264)" xlink:href="#CMR17-48"/>
      </g>
     </g>
    </g>
    <g id="text_6">
     <!-- $kd$ -->
     <g transform="translate(390.103976 758.979723)scale(0.25 -0.25)">
      <defs>
       <path d="M 28.09375 66.515625 
C 28.203125 66.921875 28.40625 67.515625 28.40625 68 
C 28.40625 69 27.40625 69 27.203125 69 
C 27.09375 69 23.5 68.640625 21.703125 68.390625 
C 20 68.390625 18.5 68.09375 16.703125 68.09375 
C 14.296875 67.890625 13.59375 67.796875 13.59375 66 
C 13.59375 65 14.59375 65 15.59375 65 
C 20.703125 65 20.703125 64.109375 20.703125 63.125 
C 20.703125 62.734375 20.703125 62.53125 20.203125 60.75 
L 5.90625 3.875 
C 5.5 2.375 5.5 2.1875 5.5 1.578125 
C 5.5 -0.59375 7.203125 -1 8.203125 -1 
C 11 -1 11.59375 1.203125 12.40625 4.296875 
L 17.09375 22.953125 
C 24.296875 22.15625 28.59375 19.15625 28.59375 14.375 
C 28.59375 13.765625 28.59375 13.375 28.296875 11.875 
C 27.90625 10.375 27.90625 9.1875 27.90625 8.6875 
C 27.90625 2.890625 31.703125 -1 36.796875 -1 
C 41.40625 -1 43.796875 3.1875 44.59375 4.59375 
C 46.703125 8.28125 48 13.875 48 14.265625 
C 48 14.765625 47.59375 15.171875 47 15.171875 
C 46.09375 15.171875 46 14.765625 45.59375 13.171875 
C 44.203125 7.984375 42.09375 1 37 1 
C 35 1 33.703125 2 33.703125 5.78125 
C 33.703125 7.6875 34.09375 9.875 34.5 11.375 
C 34.90625 13.171875 34.90625 13.265625 34.90625 14.46875 
C 34.90625 20.359375 29.59375 23.65625 20.40625 24.84375 
C 24 27.046875 27.59375 30.9375 29 32.4375 
C 34.703125 38.8125 38.59375 42.015625 43.203125 42.015625 
C 45.5 42.015625 46.09375 41.40625 46.796875 40.8125 
C 43.09375 40.40625 41.703125 37.8125 41.703125 35.828125 
C 41.703125 33.421875 43.59375 32.625 45 32.625 
C 47.703125 32.625 50.09375 34.921875 50.09375 38.125 
C 50.09375 41.015625 47.796875 44 43.296875 44 
C 37.796875 44 33.296875 40.109375 26.203125 32.125 
C 25.203125 30.9375 21.5 27.140625 17.796875 25.75 
z
" id="CMMI12-107"/>
       <path d="M 50.296875 66.515625 
C 50.40625 66.90625 50.59375 67.5 50.59375 68 
C 50.59375 69 49.59375 69 49.40625 69 
C 49.296875 69 44.40625 68.5625 43.90625 68.4375 
C 42.203125 68.328125 40.703125 68.09375 38.90625 68.09375 
C 36.40625 67.890625 35.703125 67.796875 35.703125 66 
C 35.703125 65 36.5 65 37.90625 65 
C 42.796875 65 42.90625 64.109375 42.90625 63.125 
C 42.90625 62.53125 42.703125 61.75 42.59375 61.453125 
L 36.5 37.421875 
C 35.40625 40.015625 32.703125 44 27.5 44 
C 16.203125 44 4 29.4375 4 14.671875 
C 4 4.796875 9.796875 -1 16.59375 -1 
C 22.09375 -1 26.796875 3.296875 29.59375 6.59375 
C 30.59375 0.703125 35.296875 -1 38.296875 -1 
C 41.296875 -1 43.703125 0.796875 45.5 4.390625 
C 47.09375 7.78125 48.5 13.875 48.5 14.265625 
C 48.5 14.765625 48.09375 15.171875 47.5 15.171875 
C 46.59375 15.171875 46.5 14.671875 46.09375 13.171875 
C 44.59375 7.28125 42.703125 1 38.59375 1 
C 35.703125 1 35.5 3.578125 35.5 5.578125 
C 35.5 5.96875 35.5 8.046875 36.203125 10.84375 
z
M 30.09375 11.875 
C 29.59375 10.171875 29.59375 9.984375 28.203125 8.078125 
C 26 5.28125 21.59375 1 16.90625 1 
C 12.796875 1 10.5 4.6875 10.5 10.578125 
C 10.5 16.0625 13.59375 27.234375 15.5 31.4375 
C 18.90625 38.421875 23.59375 42.015625 27.5 42.015625 
C 34.09375 42.015625 35.40625 33.828125 35.40625 33.03125 
C 35.40625 32.9375 35.09375 31.625 35 31.4375 
z
" id="CMMI12-100"/>
      </defs>
      <use transform="scale(0.996264)" xlink:href="#CMMI12-107"/>
      <use transform="translate(54.079201 0)scale(0.996264)" xlink:href="#CMMI12-100"/>
     </g>
    </g>
   </g>
   <g id="matplotlib.axis_2">
    <g id="ytick_1">
     <g id="line2d_11">
      <path clip-path="url(#p5f0e65d4f2)" d="M 108 720.9 
L 698.4 720.9 
" style="fill:none;stroke:#e6e6e6;stroke-linecap:square;stroke-width:0.8;"/>
     </g>
     <g id="line2d_12">
      <defs>
       <path d="M 0 0 
L 3.5 0 
" id="m27d2999fc0" style="stroke:#000000;stroke-width:0.8;"/>
      </defs>
      <g>
       <use style="stroke:#000000;stroke-width:0.8;" x="108" xlink:href="#m27d2999fc0" y="720.9"/>
      </g>
     </g>
     <g id="text_7">
      <!-- $\mathdefault{10^{-2}}$ -->
      <g transform="translate(76.501008 726.088862)scale(0.15 -0.15)">
       <defs>
        <path d="M 65.90625 23 
C 67.59375 23 69.40625 23 69.40625 25 
C 69.40625 27 67.59375 27 65.90625 27 
L 11.796875 27 
C 10.09375 27 8.296875 27 8.296875 25 
C 8.296875 23 10.09375 23 11.796875 23 
z
" id="CMSY10-0"/>
       </defs>
       <use transform="scale(0.996264)" xlink:href="#CMR17-49"/>
       <use transform="translate(45.690477 0)scale(0.996264)" xlink:href="#CMR17-48"/>
       <use transform="translate(91.380954 36.153639)scale(0.697382)" xlink:href="#CMSY10-0"/>
       <use transform="translate(145.621947 36.153639)scale(0.697382)" xlink:href="#CMR17-50"/>
      </g>
     </g>
    </g>
    <g id="ytick_2">
     <g id="line2d_13">
      <path clip-path="url(#p5f0e65d4f2)" d="M 108 588.06 
L 698.4 588.06 
" style="fill:none;stroke:#e6e6e6;stroke-linecap:square;stroke-width:0.8;"/>
     </g>
     <g id="line2d_14">
      <g>
       <use style="stroke:#000000;stroke-width:0.8;" x="108" xlink:href="#m27d2999fc0" y="588.06"/>
      </g>
     </g>
     <g id="text_8">
      <!-- $\mathdefault{10^{-1}}$ -->
      <g transform="translate(76.501008 593.248862)scale(0.15 -0.15)">
       <use transform="scale(0.996264)" xlink:href="#CMR17-49"/>
       <use transform="translate(45.690477 0)scale(0.996264)" xlink:href="#CMR17-48"/>
       <use transform="translate(91.380954 36.153639)scale(0.697382)" xlink:href="#CMSY10-0"/>
       <use transform="translate(145.621947 36.153639)scale(0.697382)" xlink:href="#CMR17-49"/>
      </g>
     </g>
    </g>
    <g id="ytick_3">
     <g id="line2d_15">
      <path clip-path="url(#p5f0e65d4f2)" d="M 108 455.22 
L 698.4 455.22 
" style="fill:none;stroke:#e6e6e6;stroke-linecap:square;stroke-width:0.8;"/>
     </g>
     <g id="line2d_16">
      <g>
       <use style="stroke:#000000;stroke-width:0.8;" x="108" xlink:href="#m27d2999fc0" y="455.22"/>
      </g>
     </g>
     <g id="text_9">
      <!-- $\mathdefault{10^{0}}$ -->
      <g transform="translate(84.637154 460.408862)scale(0.15 -0.15)">
       <use transform="scale(0.996264)" xlink:href="#CMR17-49"/>
       <use transform="translate(45.690477 0)scale(0.996264)" xlink:href="#CMR17-48"/>
       <use transform="translate(91.380954 36.153639)scale(0.697382)" xlink:href="#CMR17-48"/>
      </g>
     </g>
    </g>
    <g id="ytick_4">
     <g id="line2d_17">
      <path clip-path="url(#p5f0e65d4f2)" d="M 108 322.38 
L 698.4 322.38 
" style="fill:none;stroke:#e6e6e6;stroke-linecap:square;stroke-width:0.8;"/>
     </g>
     <g id="line2d_18">
      <g>
       <use style="stroke:#000000;stroke-width:0.8;" x="108" xlink:href="#m27d2999fc0" y="322.38"/>
      </g>
     </g>
     <g id="text_10">
      <!-- $\mathdefault{10^{1}}$ -->
      <g transform="translate(84.637154 327.568862)scale(0.15 -0.15)">
       <use transform="scale(0.996264)" xlink:href="#CMR17-49"/>
       <use transform="translate(45.690477 0)scale(0.996264)" xlink:href="#CMR17-48"/>
       <use transform="translate(91.380954 36.153639)scale(0.697382)" xlink:href="#CMR17-49"/>
      </g>
     </g>
    </g>
    <g id="ytick_5">
     <g id="line2d_19">
      <path clip-path="url(#p5f0e65d4f2)" d="M 108 189.54 
L 698.4 189.54 
" style="fill:none;stroke:#e6e6e6;stroke-linecap:square;stroke-width:0.8;"/>
     </g>
     <g id="line2d_20">
      <g>
       <use style="stroke:#000000;stroke-width:0.8;" x="108" xlink:href="#m27d2999fc0" y="189.54"/>
      </g>
     </g>
     <g id="text_11">
      <!-- $\mathdefault{10^{2}}$ -->
      <g transform="translate(84.637154 194.728862)scale(0.15 -0.15)">
       <use transform="scale(0.996264)" xlink:href="#CMR17-49"/>
       <use transform="translate(45.690477 0)scale(0.996264)" xlink:href="#CMR17-48"/>
       <use transform="translate(91.380954 36.153639)scale(0.697382)" xlink:href="#CMR17-50"/>
      </g>
     </g>
    </g>
    <g id="ytick_6">
     <g id="line2d_21">
      <path clip-path="url(#p5f0e65d4f2)" d="M 108 56.7 
L 698.4 56.7 
" style="fill:none;stroke:#e6e6e6;stroke-linecap:square;stroke-width:0.8;"/>
     </g>
     <g id="line2d_22">
      <g>
       <use style="stroke:#000000;stroke-width:0.8;" x="108" xlink:href="#m27d2999fc0" y="56.7"/>
      </g>
     </g>
     <g id="text_12">
      <!-- $\mathdefault{10^{3}}$ -->
      <g transform="translate(84.637154 61.888862)scale(0.15 -0.15)">
       <use transform="scale(0.996264)" xlink:href="#CMR17-49"/>
       <use transform="translate(45.690477 0)scale(0.996264)" xlink:href="#CMR17-48"/>
       <use transform="translate(91.380954 36.153639)scale(0.697382)" xlink:href="#CMR17-51"/>
      </g>
     </g>
    </g>
    <g id="ytick_7">
     <g id="line2d_23">
      <defs>
       <path d="M 0 0 
L -2 0 
" id="me2a4fefce5" style="stroke:#000000;stroke-width:0.6;"/>
      </defs>
      <g>
       <use style="stroke:#000000;stroke-width:0.6;" x="108" xlink:href="#me2a4fefce5" y="680.911175"/>
      </g>
     </g>
    </g>
    <g id="ytick_8">
     <g id="line2d_24">
      <g>
       <use style="stroke:#000000;stroke-width:0.6;" x="108" xlink:href="#me2a4fefce5" y="657.519213"/>
      </g>
     </g>
    </g>
    <g id="ytick_9">
     <g id="line2d_25">
      <g>
       <use style="stroke:#000000;stroke-width:0.6;" x="108" xlink:href="#me2a4fefce5" y="640.922351"/>
      </g>
     </g>
    </g>
    <g id="ytick_10">
     <g id="line2d_26">
      <g>
       <use style="stroke:#000000;stroke-width:0.6;" x="108" xlink:href="#me2a4fefce5" y="628.048825"/>
      </g>
     </g>
    </g>
    <g id="ytick_11">
     <g id="line2d_27">
      <g>
       <use style="stroke:#000000;stroke-width:0.6;" x="108" xlink:href="#me2a4fefce5" y="617.530388"/>
      </g>
     </g>
    </g>
    <g id="ytick_12">
     <g id="line2d_28">
      <g>
       <use style="stroke:#000000;stroke-width:0.6;" x="108" xlink:href="#me2a4fefce5" y="608.637176"/>
      </g>
     </g>
    </g>
    <g id="ytick_13">
     <g id="line2d_29">
      <g>
       <use style="stroke:#000000;stroke-width:0.6;" x="108" xlink:href="#me2a4fefce5" y="600.933526"/>
      </g>
     </g>
    </g>
    <g id="ytick_14">
     <g id="line2d_30">
      <g>
       <use style="stroke:#000000;stroke-width:0.6;" x="108" xlink:href="#me2a4fefce5" y="594.138425"/>
      </g>
     </g>
    </g>
    <g id="ytick_15">
     <g id="line2d_31">
      <g>
       <use style="stroke:#000000;stroke-width:0.6;" x="108" xlink:href="#me2a4fefce5" y="548.071175"/>
      </g>
     </g>
    </g>
    <g id="ytick_16">
     <g id="line2d_32">
      <g>
       <use style="stroke:#000000;stroke-width:0.6;" x="108" xlink:href="#me2a4fefce5" y="524.679213"/>
      </g>
     </g>
    </g>
    <g id="ytick_17">
     <g id="line2d_33">
      <g>
       <use style="stroke:#000000;stroke-width:0.6;" x="108" xlink:href="#me2a4fefce5" y="508.082351"/>
      </g>
     </g>
    </g>
    <g id="ytick_18">
     <g id="line2d_34">
      <g>
       <use style="stroke:#000000;stroke-width:0.6;" x="108" xlink:href="#me2a4fefce5" y="495.208825"/>
      </g>
     </g>
    </g>
    <g id="ytick_19">
     <g id="line2d_35">
      <g>
       <use style="stroke:#000000;stroke-width:0.6;" x="108" xlink:href="#me2a4fefce5" y="484.690388"/>
      </g>
     </g>
    </g>
    <g id="ytick_20">
     <g id="line2d_36">
      <g>
       <use style="stroke:#000000;stroke-width:0.6;" x="108" xlink:href="#me2a4fefce5" y="475.797176"/>
      </g>
     </g>
    </g>
    <g id="ytick_21">
     <g id="line2d_37">
      <g>
       <use style="stroke:#000000;stroke-width:0.6;" x="108" xlink:href="#me2a4fefce5" y="468.093526"/>
      </g>
     </g>
    </g>
    <g id="ytick_22">
     <g id="line2d_38">
      <g>
       <use style="stroke:#000000;stroke-width:0.6;" x="108" xlink:href="#me2a4fefce5" y="461.298425"/>
      </g>
     </g>
    </g>
    <g id="ytick_23">
     <g id="line2d_39">
      <g>
       <use style="stroke:#000000;stroke-width:0.6;" x="108" xlink:href="#me2a4fefce5" y="415.231175"/>
      </g>
     </g>
    </g>
    <g id="ytick_24">
     <g id="line2d_40">
      <g>
       <use style="stroke:#000000;stroke-width:0.6;" x="108" xlink:href="#me2a4fefce5" y="391.839213"/>
      </g>
     </g>
    </g>
    <g id="ytick_25">
     <g id="line2d_41">
      <g>
       <use style="stroke:#000000;stroke-width:0.6;" x="108" xlink:href="#me2a4fefce5" y="375.242351"/>
      </g>
     </g>
    </g>
    <g id="ytick_26">
     <g id="line2d_42">
      <g>
       <use style="stroke:#000000;stroke-width:0.6;" x="108" xlink:href="#me2a4fefce5" y="362.368825"/>
      </g>
     </g>
    </g>
    <g id="ytick_27">
     <g id="line2d_43">
      <g>
       <use style="stroke:#000000;stroke-width:0.6;" x="108" xlink:href="#me2a4fefce5" y="351.850388"/>
      </g>
     </g>
    </g>
    <g id="ytick_28">
     <g id="line2d_44">
      <g>
       <use style="stroke:#000000;stroke-width:0.6;" x="108" xlink:href="#me2a4fefce5" y="342.957176"/>
      </g>
     </g>
    </g>
    <g id="ytick_29">
     <g id="line2d_45">
      <g>
       <use style="stroke:#000000;stroke-width:0.6;" x="108" xlink:href="#me2a4fefce5" y="335.253526"/>
      </g>
     </g>
    </g>
    <g id="ytick_30">
     <g id="line2d_46">
      <g>
       <use style="stroke:#000000;stroke-width:0.6;" x="108" xlink:href="#me2a4fefce5" y="328.458425"/>
      </g>
     </g>
    </g>
    <g id="ytick_31">
     <g id="line2d_47">
      <g>
       <use style="stroke:#000000;stroke-width:0.6;" x="108" xlink:href="#me2a4fefce5" y="282.391175"/>
      </g>
     </g>
    </g>
    <g id="ytick_32">
     <g id="line2d_48">
      <g>
       <use style="stroke:#000000;stroke-width:0.6;" x="108" xlink:href="#me2a4fefce5" y="258.999213"/>
      </g>
     </g>
    </g>
    <g id="ytick_33">
     <g id="line2d_49">
      <g>
       <use style="stroke:#000000;stroke-width:0.6;" x="108" xlink:href="#me2a4fefce5" y="242.402351"/>
      </g>
     </g>
    </g>
    <g id="ytick_34">
     <g id="line2d_50">
      <g>
       <use style="stroke:#000000;stroke-width:0.6;" x="108" xlink:href="#me2a4fefce5" y="229.528825"/>
      </g>
     </g>
    </g>
    <g id="ytick_35">
     <g id="line2d_51">
      <g>
       <use style="stroke:#000000;stroke-width:0.6;" x="108" xlink:href="#me2a4fefce5" y="219.010388"/>
      </g>
     </g>
    </g>
    <g id="ytick_36">
     <g id="line2d_52">
      <g>
       <use style="stroke:#000000;stroke-width:0.6;" x="108" xlink:href="#me2a4fefce5" y="210.117176"/>
      </g>
     </g>
    </g>
    <g id="ytick_37">
     <g id="line2d_53">
      <g>
       <use style="stroke:#000000;stroke-width:0.6;" x="108" xlink:href="#me2a4fefce5" y="202.413526"/>
      </g>
     </g>
    </g>
    <g id="ytick_38">
     <g id="line2d_54">
      <g>
       <use style="stroke:#000000;stroke-width:0.6;" x="108" xlink:href="#me2a4fefce5" y="195.618425"/>
      </g>
     </g>
    </g>
    <g id="ytick_39">
     <g id="line2d_55">
      <g>
       <use style="stroke:#000000;stroke-width:0.6;" x="108" xlink:href="#me2a4fefce5" y="149.551175"/>
      </g>
     </g>
    </g>
    <g id="ytick_40">
     <g id="line2d_56">
      <g>
       <use style="stroke:#000000;stroke-width:0.6;" x="108" xlink:href="#me2a4fefce5" y="126.159213"/>
      </g>
     </g>
    </g>
    <g id="ytick_41">
     <g id="line2d_57">
      <g>
       <use style="stroke:#000000;stroke-width:0.6;" x="108" xlink:href="#me2a4fefce5" y="109.562351"/>
      </g>
     </g>
    </g>
    <g id="ytick_42">
     <g id="line2d_58">
      <g>
       <use style="stroke:#000000;stroke-width:0.6;" x="108" xlink:href="#me2a4fefce5" y="96.688825"/>
      </g>
     </g>
    </g>
    <g id="ytick_43">
     <g id="line2d_59">
      <g>
       <use style="stroke:#000000;stroke-width:0.6;" x="108" xlink:href="#me2a4fefce5" y="86.170388"/>
      </g>
     </g>
    </g>
    <g id="ytick_44">
     <g id="line2d_60">
      <g>
       <use style="stroke:#000000;stroke-width:0.6;" x="108" xlink:href="#me2a4fefce5" y="77.277176"/>
      </g>
     </g>
    </g>
    <g id="ytick_45">
     <g id="line2d_61">
      <g>
       <use style="stroke:#000000;stroke-width:0.6;" x="108" xlink:href="#me2a4fefce5" y="69.573526"/>
      </g>
     </g>
    </g>
    <g id="ytick_46">
     <g id="line2d_62">
      <g>
       <use style="stroke:#000000;stroke-width:0.6;" x="108" xlink:href="#me2a4fefce5" y="62.778425"/>
      </g>
     </g>
    </g>
    <g id="text_13">
     <!-- $h_l(kd)$ -->
     <g transform="translate(66.295199 420.71881)rotate(-90)scale(0.25 -0.25)">
      <defs>
       <path d="M 28.09375 66.515625 
C 28.203125 66.921875 28.40625 67.515625 28.40625 68 
C 28.40625 69 27.40625 69 27.203125 69 
C 27.09375 69 22.203125 68.5625 21.703125 68.4375 
C 20 68.328125 18.5 68.09375 16.703125 68.09375 
C 14.203125 67.890625 13.5 67.796875 13.5 66 
C 13.5 65 14.296875 65 15.703125 65 
C 20.59375 65 20.703125 64.109375 20.703125 63.125 
C 20.703125 62.53125 20.5 61.734375 20.40625 61.4375 
L 5.90625 3.875 
C 5.5 2.375 5.5 2.1875 5.5 1.578125 
C 5.5 -0.59375 7.203125 -1 8.203125 -1 
C 9.90625 -1 11.203125 0.296875 11.703125 1.390625 
L 16.203125 19.453125 
C 16.703125 21.65625 17.296875 23.75 17.796875 25.9375 
C 18.90625 30.140625 18.90625 30.234375 20.796875 33.125 
C 22.703125 36.015625 27.203125 42.015625 34.90625 42.015625 
C 38.90625 42.015625 40.296875 39.015625 40.296875 35.03125 
C 40.296875 29.4375 36.40625 18.5625 34.203125 12.578125 
C 33.296875 10.171875 32.796875 8.875 32.796875 7.078125 
C 32.796875 2.59375 35.90625 -1 40.703125 -1 
C 50 -1 53.5 13.671875 53.5 14.265625 
C 53.5 14.765625 53.09375 15.171875 52.5 15.171875 
C 51.59375 15.171875 51.5 14.875 51 13.171875 
C 48.703125 5.1875 45 1 41 1 
C 40 1 38.40625 1 38.40625 4.203125 
C 38.40625 6.8125 39.59375 10 40 11.09375 
C 41.796875 15.90625 46.296875 27.703125 46.296875 33.515625 
C 46.296875 39.5 42.796875 44 35.203125 44 
C 29.5 44 24.5 41.3125 20.40625 36.125 
z
" id="CMMI12-104"/>
       <path d="M 25.40625 66.515625 
C 25.5 66.90625 25.703125 67.5 25.703125 68 
C 25.703125 69 24.703125 69 24.5 69 
C 24.40625 69 20.796875 68.640625 19 68.390625 
C 17.296875 68.390625 15.796875 68.09375 14 68.09375 
C 11.59375 67.890625 10.90625 67.796875 10.90625 66 
C 10.90625 65 11.90625 65 12.90625 65 
C 18 65 18 64.09375 18 63.109375 
C 18 62.71875 18 62.515625 17.5 60.734375 
L 5.09375 11.421875 
C 4.796875 10.328125 4.59375 9.53125 4.59375 7.953125 
C 4.59375 2.984375 8.296875 -1 13.40625 -1 
C 16.703125 -1 18.90625 1.1875 20.5 4.28125 
C 22.203125 7.546875 23.59375 13.8125 23.59375 14.203125 
C 23.59375 14.703125 23.203125 15.109375 22.59375 15.109375 
C 21.703125 15.109375 21.59375 14.609375 21.203125 13.125 
C 19.40625 6.265625 17.59375 1 13.59375 1 
C 10.59375 1 10.59375 4.171875 10.59375 5.578125 
C 10.59375 5.96875 10.59375 8.046875 11.296875 10.84375 
z
" id="CMMI12-108"/>
       <path d="M 30.59375 -24.390625 
C 30.59375 -24.296875 30.59375 -24.09375 30.296875 -23.796875 
C 25.703125 -19.125 13.40625 -6.359375 13.40625 24.703125 
C 13.40625 55.765625 25.5 68.421875 30.40625 73.390625 
C 30.40625 73.5 30.59375 73.703125 30.59375 74 
C 30.59375 74.296875 30.296875 74.5 29.90625 74.5 
C 28.796875 74.5 20.296875 67.125 15.40625 56.15625 
C 10.40625 45.109375 9 34.359375 9 24.8125 
C 9 17.625 9.703125 5.484375 15.703125 -7.359375 
C 20.5 -17.734375 28.703125 -25 29.90625 -25 
C 30.40625 -25 30.59375 -24.796875 30.59375 -24.390625 
z
" id="CMR17-40"/>
       <path d="M 26.296875 24.703125 
C 26.296875 31.875 25.59375 44.015625 19.59375 56.859375 
C 14.796875 67.234375 6.59375 74.5 5.40625 74.5 
C 5.09375 74.5 4.703125 74.390625 4.703125 73.890625 
C 4.703125 73.703125 4.796875 73.59375 4.90625 73.390625 
C 9.703125 68.40625 21.90625 55.75 21.90625 24.75 
C 21.90625 -6.359375 9.796875 -19.015625 4.90625 -24.015625 
C 4.796875 -24.203125 4.703125 -24.3125 4.703125 -24.5 
C 4.703125 -25 5.09375 -25 5.40625 -25 
C 6.5 -25 15 -17.625 19.90625 -6.65625 
C 24.90625 4.390625 26.296875 15.140625 26.296875 24.703125 
z
" id="CMR17-41"/>
      </defs>
      <use transform="scale(0.996264)" xlink:href="#CMMI12-104"/>
      <use transform="translate(56.154624 -14.943915)scale(0.697382)" xlink:href="#CMMI12-108"/>
      <use transform="translate(78.52654 0)scale(0.996264)" xlink:href="#CMR17-40"/>
      <use transform="translate(113.807308 0)scale(0.996264)" xlink:href="#CMMI12-107"/>
      <use transform="translate(167.886508 0)scale(0.996264)" xlink:href="#CMMI12-100"/>
      <use transform="translate(218.575605 0)scale(0.996264)" xlink:href="#CMR17-41"/>
     </g>
    </g>
   </g>
   <g id="line2d_63">
    <path clip-path="url(#p5f0e65d4f2)" d="M 108 455.22 
L 109.974582 463.975226 
L 111.949164 471.57517 
L 113.923746 478.289482 
L 115.898328 484.303194 
L 117.87291 489.748797 
L 119.847492 494.724425 
L 121.822074 499.304792 
L 123.796656 503.548103 
L 125.771237 507.500581 
L 129.720401 514.675575 
L 133.669565 521.056123 
L 137.618729 526.800748 
L 141.567893 532.024799 
L 145.517057 536.814834 
L 149.466221 541.237472 
L 153.415385 545.345077 
L 157.364548 549.179562 
L 161.313712 552.774994 
L 167.237458 557.780005 
L 173.161204 562.385258 
L 179.08495 566.649917 
L 185.008696 570.620909 
L 190.932441 574.336086 
L 196.856187 577.826423 
L 204.754515 582.174202 
L 212.652843 586.21716 
L 220.551171 589.995253 
L 228.449498 593.541061 
L 238.322408 597.68724 
L 248.195318 601.555317 
L 258.068227 605.180266 
L 267.941137 608.59085 
L 279.788629 612.434027 
L 291.63612 616.037099 
L 303.483612 619.428312 
L 317.305686 623.148146 
L 331.127759 626.642594 
L 346.924415 630.393108 
L 362.72107 633.914615 
L 380.492308 637.635227 
L 398.263545 641.13036 
L 418.009365 644.780593 
L 437.755184 648.213549 
L 459.475585 651.767871 
L 483.170569 655.410811 
L 508.840134 659.113879 
L 534.509699 662.593527 
L 562.153846 666.120056 
L 591.772575 669.673593 
L 623.365886 673.237287 
L 656.933779 676.79702 
L 692.476254 680.341099 
L 698.4 680.911175 
L 698.4 680.911175 
" style="fill:none;stroke:#d0384e;stroke-linecap:square;stroke-width:2;"/>
   </g>
   <g id="line2d_64">
    <path clip-path="url(#p5f0e65d4f2)" d="M 108 56.732297 
L 109.974582 108.104573 
L 111.949164 152.360473 
L 113.923746 191.113456 
L 115.898328 225.468237 
L 117.87291 256.213023 
L 119.847492 283.9284 
L 121.822074 309.052787 
L 123.796656 331.923776 
L 125.771237 352.805432 
L 127.745819 371.907118 
L 129.720401 389.397095 
L 131.694983 405.412835 
L 133.669565 420.069189 
L 135.644147 433.465047 
L 137.618729 445.688769 
L 139.593311 456.822444 
L 141.567893 466.944965 
L 143.542475 476.133886 
L 145.517057 484.466158 
L 147.491639 492.017949 
L 149.466221 498.863836 
L 151.440803 505.075705 
L 153.415385 510.721635 
L 155.389967 515.864984 
L 157.364548 520.563763 
L 159.33913 524.870339 
L 161.313712 528.83142 
L 163.288294 532.488269 
L 165.262876 535.877064 
L 169.21204 541.97253 
L 173.161204 547.323379 
L 177.110368 552.083857 
L 181.059532 556.369803 
L 185.008696 560.268777 
L 188.95786 563.84763 
L 192.907023 567.158018 
L 196.856187 570.24037 
L 202.779933 574.504696 
L 208.703679 578.409782 
L 214.627425 582.017084 
L 220.551171 585.373171 
L 226.474916 588.514133 
L 234.373244 592.415939 
L 242.271572 596.038288 
L 250.1699 599.421829 
L 258.068227 602.598539 
L 267.941137 606.317196 
L 277.814047 609.792501 
L 287.686957 613.056226 
L 299.534448 616.729224 
L 311.38194 620.17013 
L 325.204013 623.929369 
L 339.026087 627.448741 
L 354.822742 631.215154 
L 370.619398 634.743078 
L 388.390635 638.46308 
L 406.161873 641.951945 
L 425.907692 645.59083 
L 445.653512 649.00948 
L 467.373913 652.546018 
L 491.068896 656.168258 
L 516.738462 659.848322 
L 542.408027 663.305016 
L 570.052174 666.807345 
L 599.670903 670.335869 
L 631.264214 673.874127 
L 664.832107 677.408336 
L 698.4 680.737161 
L 698.4 680.737161 
" style="fill:none;stroke:#ee6445;stroke-linecap:square;stroke-width:2;"/>
   </g>
   <g id="line2d_65">
    <path clip-path="url(#p5f0e65d4f2)" d="M 134.04375 -1 
L 137.618729 52.969426 
L 141.567893 106.666825 
L 145.517057 155.211081 
L 149.466221 199.322766 
L 153.415385 239.563298 
L 157.364548 276.376003 
L 161.313712 310.113879 
L 165.262876 341.058653 
L 169.21204 369.434055 
L 173.161204 395.415468 
L 177.110368 419.137856 
L 181.059532 440.703838 
L 185.008696 460.19362 
L 188.95786 477.677677 
L 190.932441 485.690534 
L 192.907023 493.231435 
L 194.881605 500.312868 
L 196.856187 506.94912 
L 198.830769 513.156384 
L 200.805351 518.952718 
L 202.779933 524.357867 
L 204.754515 529.392969 
L 206.729097 534.080182 
L 208.703679 538.442259 
L 210.678261 542.502123 
L 212.652843 546.282462 
L 214.627425 549.805375 
L 216.602007 553.092084 
L 220.551171 559.036127 
L 224.500334 564.260109 
L 228.449498 568.887953 
L 232.398662 573.022626 
L 236.347826 576.748319 
L 240.29699 580.133219 
L 244.246154 583.232323 
L 248.195318 586.08997 
L 252.144482 588.741988 
L 258.068227 592.396577 
L 263.991973 595.729441 
L 269.915719 598.798003 
L 275.839465 601.645919 
L 283.737793 605.15714 
L 291.63612 608.39605 
L 299.534448 611.407844 
L 309.407358 614.904879 
L 319.280268 618.151344 
L 329.153177 621.185694 
L 341.000669 624.58831 
L 352.848161 627.767799 
L 366.670234 631.235987 
L 380.492308 634.480457 
L 396.288963 637.952569 
L 412.085619 641.20661 
L 429.856856 644.641326 
L 449.602676 648.213794 
L 469.348495 651.562936 
L 491.068896 655.022137 
L 514.76388 658.561031 
L 540.433445 662.153537 
L 566.10301 665.526401 
L 593.747157 668.943084 
L 623.365886 672.38531 
L 654.959197 675.837616 
L 688.52709 679.287042 
L 698.4 680.262614 
L 698.4 680.262614 
" style="fill:none;stroke:#fa9b58;stroke-linecap:square;stroke-width:2;"/>
   </g>
   <g id="line2d_66">
    <path clip-path="url(#p5f0e65d4f2)" d="M 170.363217 -1 
L 173.161204 30.086073 
L 177.110368 71.576056 
L 181.059532 110.616723 
L 185.008696 147.400362 
L 188.95786 182.092648 
L 192.907023 214.836825 
L 196.856187 245.756968 
L 200.805351 274.960547 
L 204.754515 302.540384 
L 208.703679 328.57613 
L 212.652843 353.135316 
L 216.602007 376.274057 
L 220.551171 398.037529 
L 224.500334 418.460383 
L 228.449498 437.567367 
L 232.398662 455.374509 
L 236.347826 471.891301 
L 240.29699 487.124204 
L 244.246154 501.081544 
L 248.195318 513.779346 
L 252.144482 525.247077 
L 256.093645 535.531873 
L 260.042809 544.700016 
L 263.991973 552.835107 
L 267.941137 560.033453 
L 271.890301 566.3979 
L 275.839465 572.031628 
L 279.788629 577.033009 
L 283.737793 581.492119 
L 287.686957 585.488886 
L 291.63612 589.092581 
L 295.585284 592.362224 
L 299.534448 595.347515 
L 303.483612 598.089999 
L 307.432776 600.624264 
L 313.356522 604.096816 
L 319.280268 607.242033 
L 325.204013 610.119124 
L 331.127759 612.773661 
L 339.026087 616.026997 
L 346.924415 619.01085 
L 354.822742 621.77267 
L 364.695652 624.966593 
L 374.568562 627.921841 
L 386.416054 631.207588 
L 398.263545 634.256146 
L 412.085619 637.562705 
L 425.907692 640.64224 
L 441.704348 643.926896 
L 459.475585 647.368275 
L 477.246823 650.580905 
L 496.992642 653.921143 
L 518.713043 657.355849 
L 542.408027 660.856869 
L 566.10301 664.136297 
L 591.772575 667.472029 
L 619.416722 670.844327 
L 649.035452 674.236502 
L 680.628763 677.634548 
L 698.4 679.456632 
L 698.4 679.456632 
" style="fill:none;stroke:#fece7c;stroke-linecap:square;stroke-width:2;"/>
   </g>
   <g id="line2d_67">
    <path clip-path="url(#p5f0e65d4f2)" d="M 211.252856 -1 
L 214.627425 29.660379 
L 218.576589 64.065241 
L 222.525753 97.007592 
L 226.474916 128.560418 
L 230.42408 158.789412 
L 234.373244 187.753717 
L 238.322408 215.506558 
L 242.271572 242.09575 
L 246.220736 267.564112 
L 250.1699 291.949785 
L 254.119064 315.286462 
L 258.068227 337.603521 
L 262.017391 358.926072 
L 265.966555 379.274915 
L 269.915719 398.66644 
L 273.864883 417.112487 
L 277.814047 434.620259 
L 281.763211 451.192384 
L 285.712375 466.827285 
L 289.661538 481.520047 
L 293.610702 495.263959 
L 297.559866 508.052814 
L 301.50903 519.883898 
L 305.458194 530.761362 
L 309.407358 540.699407 
L 313.356522 549.724609 
L 317.305686 557.876801 
L 321.254849 565.208223 
L 325.204013 571.781109 
L 329.153177 577.664244 
L 333.102341 582.929182 
L 337.051505 587.646771 
L 341.000669 591.88441 
L 344.949833 595.704186 
L 348.898997 599.161874 
L 352.848161 602.30661 
L 356.797324 605.181055 
L 360.746488 607.82187 
L 364.695652 610.260332 
L 370.619398 613.595611 
L 376.543144 616.607663 
L 382.46689 619.353639 
L 388.390635 621.878292 
L 396.288963 624.960082 
L 404.187291 627.774562 
L 412.085619 630.36975 
L 421.958528 633.360081 
L 431.831438 636.11773 
L 443.67893 639.174997 
L 455.526421 642.004896 
L 469.348495 645.068822 
L 485.145151 648.310579 
L 500.941806 651.321614 
L 518.713043 654.478206 
L 538.458863 657.744023 
L 560.179264 661.088806 
L 581.899666 664.213278 
L 605.594649 667.406894 
L 631.264214 670.64875 
L 658.908361 673.921253 
L 688.52709 677.209664 
L 698.4 678.260914 
L 698.4 678.260914 
" style="fill:none;stroke:#fff1a8;stroke-linecap:square;stroke-width:2;"/>
   </g>
   <g id="line2d_68">
    <path clip-path="url(#p5f0e65d4f2)" d="M 255.042092 -1 
L 260.042809 38.284488 
L 265.966555 82.630849 
L 271.890301 124.763059 
L 277.814047 164.790095 
L 283.737793 202.807938 
L 289.661538 238.900738 
L 295.585284 273.141679 
L 301.50903 305.593529 
L 307.432776 336.308848 
L 313.356522 365.329815 
L 317.305686 383.751711 
L 321.254849 401.441022 
L 325.204013 418.401574 
L 329.153177 434.634523 
L 333.102341 450.138244 
L 337.051505 464.908348 
L 341.000669 478.937897 
L 344.949833 492.217925 
L 348.898997 504.738374 
L 352.848161 516.489489 
L 356.797324 527.463668 
L 360.746488 537.657621 
L 364.695652 547.074571 
L 368.644816 555.72614 
L 372.59398 563.633527 
L 376.543144 570.827714 
L 380.492308 577.348616 
L 384.441472 583.243316 
L 388.390635 588.563726 
L 392.339799 593.364058 
L 396.288963 597.698478 
L 400.238127 601.619182 
L 404.187291 605.175008 
L 408.136455 608.410586 
L 412.085619 611.365948 
L 416.034783 614.076487 
L 419.983946 616.573154 
L 425.907692 619.974882 
L 431.831438 623.030556 
L 437.755184 625.800419 
L 443.67893 628.33239 
L 449.602676 630.664653 
L 457.501003 633.515611 
L 465.399331 636.12174 
L 475.272241 639.099456 
L 485.145151 641.823621 
L 496.992642 644.822001 
L 508.840134 647.579598 
L 522.662207 650.54882 
L 536.484281 653.297879 
L 552.280936 656.21675 
L 570.052174 659.264203 
L 589.797993 662.406491 
L 611.518395 665.616257 
L 635.213378 668.871395 
L 660.882943 672.154021 
L 688.52709 675.449628 
L 698.4 676.573637 
L 698.4 676.573637 
" style="fill:none;stroke:#f4faad;stroke-linecap:square;stroke-width:2;"/>
   </g>
   <g id="line2d_69">
    <path clip-path="url(#p5f0e65d4f2)" d="M 300.84805 -1 
L 305.458194 31.679637 
L 311.38194 72.081306 
L 317.305686 110.791472 
L 323.229431 147.872446 
L 329.153177 183.380101 
L 335.076923 217.364269 
L 341.000669 249.869032 
L 346.924415 280.932898 
L 352.848161 310.588829 
L 358.771906 338.86413 
L 364.695652 365.780116 
L 370.619398 391.351567 
L 376.543144 415.585931 
L 382.46689 438.482342 
L 386.416054 452.998709 
L 390.365217 466.910718 
L 394.314381 480.211058 
L 398.263545 492.890735 
L 402.212709 504.939523 
L 406.161873 516.34669 
L 410.111037 527.102058 
L 414.060201 537.197345 
L 418.009365 546.627718 
L 421.958528 555.39337 
L 425.907692 563.50091 
L 429.856856 570.9643 
L 433.80602 577.805176 
L 437.755184 584.052449 
L 441.704348 589.741244 
L 445.653512 594.911359 
L 449.602676 599.60547 
L 453.551839 603.867342 
L 457.501003 607.740235 
L 461.450167 611.26564 
L 465.399331 614.482375 
L 469.348495 617.426037 
L 473.297659 620.128749 
L 477.246823 622.619139 
L 483.170569 626.01103 
L 489.094314 629.053721 
L 495.01806 631.806043 
L 500.941806 634.315545 
L 506.865552 636.620612 
L 514.76388 639.428791 
L 522.662207 641.985964 
L 530.560535 644.336385 
L 540.433445 647.034993 
L 550.306355 649.514294 
L 562.153846 652.25295 
L 575.97592 655.182504 
L 589.797993 657.879407 
L 605.594649 660.729101 
L 623.365886 663.691663 
L 643.111706 666.735384 
L 664.832107 669.835307 
L 688.52709 672.971795 
L 698.4 674.213456 
L 698.4 674.213456 
" style="fill:none;stroke:#d1ed9c;stroke-linecap:square;stroke-width:2;"/>
   </g>
   <g id="line2d_70">
    <path clip-path="url(#p5f0e65d4f2)" d="M 348.151364 -1 
L 352.848161 29.610519 
L 358.771906 66.942853 
L 364.695652 102.918941 
L 370.619398 137.577286 
L 376.543144 170.952775 
L 382.46689 203.076822 
L 388.390635 233.977471 
L 394.314381 263.679438 
L 400.238127 292.204093 
L 406.161873 319.569357 
L 412.085619 345.789511 
L 418.009365 370.874867 
L 423.93311 394.831295 
L 429.856856 417.659587 
L 435.780602 439.35468 
L 441.704348 459.904842 
L 445.653512 472.959796 
L 449.602676 485.490143 
L 453.551839 497.487099 
L 457.501003 508.940828 
L 461.450167 519.84091 
L 465.399331 530.177043 
L 469.348495 539.939953 
L 473.297659 549.12251 
L 477.246823 557.720921 
L 481.195987 565.735898 
L 485.145151 573.17362 
L 489.094314 580.046332 
L 493.043478 586.372473 
L 496.992642 592.176295 
L 500.941806 597.487014 
L 504.89097 602.337626 
L 508.840134 606.763547 
L 512.789298 610.801249 
L 516.738462 614.487027 
L 520.687625 617.85599 
L 524.636789 620.941312 
L 528.585953 623.773741 
L 532.535117 626.381332 
L 536.484281 628.78937 
L 542.408027 632.075905 
L 548.331773 635.029076 
L 554.255518 637.70287 
L 560.179264 640.141508 
L 566.10301 642.381108 
L 574.001338 645.107827 
L 581.899666 647.588165 
L 591.772575 650.406525 
L 601.645485 652.969804 
L 613.492977 655.774625 
L 625.340468 658.339725 
L 639.162542 661.087479 
L 654.959197 663.966331 
L 670.755853 666.618672 
L 688.52709 669.381292 
L 698.4 670.829963 
L 698.4 670.829963 
" style="fill:none;stroke:#97d5a4;stroke-linecap:square;stroke-width:2;"/>
   </g>
   <g id="line2d_71">
    <path clip-path="url(#p5f0e65d4f2)" d="M 396.614293 -1 
L 402.212709 32.942085 
L 408.136455 67.727147 
L 414.060201 101.387455 
L 419.983946 133.948006 
L 425.907692 165.431564 
L 431.831438 195.858715 
L 437.755184 225.247887 
L 443.67893 253.615349 
L 449.602676 280.975174 
L 455.526421 307.339147 
L 461.450167 332.71663 
L 467.373913 357.114347 
L 473.297659 380.536073 
L 479.221405 402.982223 
L 485.145151 424.449308 
L 491.068896 444.929307 
L 496.992642 464.408994 
L 502.916388 482.869409 
L 506.865552 494.598064 
L 510.814716 505.854108 
L 514.76388 516.628055 
L 518.713043 526.909994 
L 522.662207 536.690143 
L 526.611371 545.95956 
L 530.560535 554.711007 
L 534.509699 562.939892 
L 538.458863 570.6452 
L 542.408027 577.830294 
L 546.357191 584.503479 
L 550.306355 590.678229 
L 554.255518 596.373025 
L 558.204682 601.610834 
L 562.153846 606.418283 
L 566.10301 610.824632 
L 570.052174 614.860693 
L 574.001338 618.557782 
L 577.950502 621.946804 
L 581.899666 625.057518 
L 585.848829 627.917998 
L 589.797993 630.554287 
L 593.747157 632.990213 
L 599.670903 636.314973 
L 605.594649 639.300413 
L 611.518395 641.999751 
L 617.44214 644.457172 
L 623.365886 646.709176 
L 631.264214 649.443536 
L 639.162542 651.922787 
L 647.06087 654.191355 
L 656.933779 656.783002 
L 666.806689 659.151455 
L 678.654181 661.753784 
L 690.501672 664.142036 
L 698.4 665.634395 
L 698.4 665.634395 
" style="fill:none;stroke:#5cb7aa;stroke-linecap:square;stroke-width:2;"/>
   </g>
   <g id="line2d_72">
    <path clip-path="url(#p5f0e65d4f2)" d="M 446.009118 -1 
L 451.577258 30.827276 
L 457.501003 63.727063 
L 463.424749 95.664352 
L 469.348495 126.65637 
L 475.272241 156.71885 
L 481.195987 185.866051 
L 487.119732 214.110755 
L 493.043478 241.464254 
L 498.967224 267.936305 
L 504.89097 293.535071 
L 510.814716 318.267019 
L 516.738462 342.136778 
L 522.662207 365.146937 
L 528.585953 387.297779 
L 534.509699 408.586926 
L 540.433445 429.00889 
L 546.357191 448.554554 
L 552.280936 467.210614 
L 558.204682 484.959107 
L 564.128428 501.777208 
L 568.077592 512.459054 
L 572.026756 522.706349 
L 575.97592 532.509776 
L 579.925084 541.860111 
L 583.874247 550.748795 
L 587.823411 559.168616 
L 591.772575 567.114468 
L 595.721739 574.584112 
L 599.670903 581.57887 
L 603.620067 588.104142 
L 607.569231 594.169689 
L 611.518395 599.789624 
L 615.467559 604.982108 
L 619.416722 609.768781 
L 623.365886 614.174002 
L 627.31505 618.223981 
L 631.264214 621.945905 
L 635.213378 625.367117 
L 639.162542 628.514423 
L 643.111706 631.413542 
L 647.06087 634.088704 
L 651.010033 636.562403 
L 656.933779 639.939799 
L 662.857525 642.971483 
L 668.781271 645.709909 
L 674.705017 648.199206 
L 680.628763 650.476233 
L 688.52709 653.234307 
L 696.425418 655.727692 
L 698.4 656.315306 
L 698.4 656.315306 
" style="fill:none;stroke:#3682ba;stroke-linecap:square;stroke-width:2;"/>
   </g>
   <g id="line2d_73">
    <path clip-path="url(#p5f0e65d4f2)" d="M 496.170104 -1 
L 502.916388 35.53919 
L 510.814716 76.902935 
L 518.713043 116.784078 
L 526.611371 155.209947 
L 534.509699 192.204538 
L 540.433445 219.023739 
L 546.357191 245.056936 
L 552.280936 270.310405 
L 558.204682 294.789215 
L 564.128428 318.497145 
L 570.052174 341.436557 
L 575.97592 363.608244 
L 581.899666 385.011213 
L 587.823411 405.642408 
L 593.747157 425.496373 
L 599.670903 444.564826 
L 605.594649 462.836207 
L 611.518395 480.295223 
L 617.44214 496.922522 
L 623.365886 512.694673 
L 629.289632 527.584708 
L 633.238796 537.006976 
L 637.18796 546.015568 
L 641.137124 554.602309 
L 645.086288 562.760087 
L 649.035452 570.483467 
L 652.984615 577.769334 
L 656.933779 584.617488 
L 660.882943 591.031128 
L 664.832107 597.017162 
L 668.781271 602.586298 
L 672.730435 607.75289 
L 676.679599 612.534568 
L 680.628763 616.951672 
L 684.577926 621.026573 
L 688.52709 624.782942 
L 692.476254 628.245034 
L 696.425418 631.437042 
L 698.4 632.939171 
L 698.4 632.939171 
" style="fill:none;stroke:#5e4fa2;stroke-linecap:square;stroke-width:2;"/>
   </g>
   <g id="line2d_74">
    <path clip-path="url(#p5f0e65d4f2)" d="M 108 455.22 
L 109.974582 463.975226 
L 111.949164 471.57517 
L 113.923746 478.289482 
L 115.898328 484.303194 
L 117.87291 489.748797 
L 119.847492 494.724425 
L 121.822074 499.304792 
L 123.796656 503.548103 
L 125.771237 507.500581 
L 129.720401 514.675575 
L 133.669565 521.056123 
L 137.618729 526.800748 
L 141.567893 532.024799 
L 145.517057 536.814834 
L 149.466221 541.237472 
L 153.415385 545.345077 
L 157.364548 549.179562 
L 161.313712 552.774994 
L 167.237458 557.780005 
L 173.161204 562.385258 
L 179.08495 566.649917 
L 185.008696 570.620909 
L 190.932441 574.336086 
L 196.856187 577.826423 
L 204.754515 582.174202 
L 212.652843 586.21716 
L 220.551171 589.995253 
L 228.449498 593.541061 
L 238.322408 597.68724 
L 248.195318 601.555317 
L 258.068227 605.180266 
L 267.941137 608.59085 
L 279.788629 612.434027 
L 291.63612 616.037099 
L 303.483612 619.428312 
L 317.305686 623.148146 
L 331.127759 626.642594 
L 346.924415 630.393108 
L 362.72107 633.914615 
L 380.492308 637.635227 
L 398.263545 641.13036 
L 418.009365 644.780593 
L 437.755184 648.213549 
L 459.475585 651.767871 
L 483.170569 655.410811 
L 508.840134 659.113879 
L 534.509699 662.593527 
L 562.153846 666.120056 
L 591.772575 669.673593 
L 623.365886 673.237287 
L 656.933779 676.79702 
L 692.476254 680.341099 
L 698.4 680.911175 
L 698.4 680.911175 
" style="fill:none;stroke:#d0384e;stroke-dasharray:7.4,3.2;stroke-dashoffset:0;stroke-width:2;"/>
   </g>
   <g id="line2d_75">
    <path clip-path="url(#p5f0e65d4f2)" d="M 108 455.22 
L 109.974582 463.975226 
L 111.949164 471.57517 
L 113.923746 478.289482 
L 115.898328 484.303194 
L 117.87291 489.748797 
L 119.847492 494.724425 
L 121.822074 499.304792 
L 123.796656 503.548103 
L 125.771237 507.500581 
L 129.720401 514.675575 
L 133.669565 521.056123 
L 137.618729 526.800748 
L 141.567893 532.024799 
L 145.517057 536.814834 
L 149.466221 541.237472 
L 153.415385 545.345077 
L 157.364548 549.179562 
L 161.313712 552.774994 
L 167.237458 557.780005 
L 173.161204 562.385258 
L 179.08495 566.649917 
L 185.008696 570.620909 
L 190.932441 574.336086 
L 196.856187 577.826423 
L 204.754515 582.174202 
L 212.652843 586.21716 
L 220.551171 589.995253 
L 228.449498 593.541061 
L 238.322408 597.68724 
L 248.195318 601.555317 
L 258.068227 605.180266 
L 267.941137 608.59085 
L 279.788629 612.434027 
L 291.63612 616.037099 
L 303.483612 619.428312 
L 317.305686 623.148146 
L 331.127759 626.642594 
L 346.924415 630.393108 
L 362.72107 633.914615 
L 380.492308 637.635227 
L 398.263545 641.13036 
L 418.009365 644.780593 
L 437.755184 648.213549 
L 459.475585 651.767871 
L 483.170569 655.410811 
L 508.840134 659.113879 
L 534.509699 662.593527 
L 562.153846 666.120056 
L 591.772575 669.673593 
L 623.365886 673.237287 
L 656.933779 676.79702 
L 692.476254 680.341099 
L 698.4 680.911175 
L 698.4 680.911175 
" style="fill:none;stroke:#ee6445;stroke-dasharray:7.4,3.2;stroke-dashoffset:0;stroke-width:2;"/>
   </g>
   <g id="line2d_76">
    <path clip-path="url(#p5f0e65d4f2)" d="M 108 455.22 
L 109.974582 463.975226 
L 111.949164 471.57517 
L 113.923746 478.289482 
L 115.898328 484.303194 
L 117.87291 489.748797 
L 119.847492 494.724425 
L 121.822074 499.304792 
L 123.796656 503.548103 
L 125.771237 507.500581 
L 129.720401 514.675575 
L 133.669565 521.056123 
L 137.618729 526.800748 
L 141.567893 532.024799 
L 145.517057 536.814834 
L 149.466221 541.237472 
L 153.415385 545.345077 
L 157.364548 549.179562 
L 161.313712 552.774994 
L 167.237458 557.780005 
L 173.161204 562.385258 
L 179.08495 566.649917 
L 185.008696 570.620909 
L 190.932441 574.336086 
L 196.856187 577.826423 
L 204.754515 582.174202 
L 212.652843 586.21716 
L 220.551171 589.995253 
L 228.449498 593.541061 
L 238.322408 597.68724 
L 248.195318 601.555317 
L 258.068227 605.180266 
L 267.941137 608.59085 
L 279.788629 612.434027 
L 291.63612 616.037099 
L 303.483612 619.428312 
L 317.305686 623.148146 
L 331.127759 626.642594 
L 346.924415 630.393108 
L 362.72107 633.914615 
L 380.492308 637.635227 
L 398.263545 641.13036 
L 418.009365 644.780593 
L 437.755184 648.213549 
L 459.475585 651.767871 
L 483.170569 655.410811 
L 508.840134 659.113879 
L 534.509699 662.593527 
L 562.153846 666.120056 
L 591.772575 669.673593 
L 623.365886 673.237287 
L 656.933779 676.79702 
L 692.476254 680.341099 
L 698.4 680.911175 
L 698.4 680.911175 
" style="fill:none;stroke:#fa9b58;stroke-dasharray:7.4,3.2;stroke-dashoffset:0;stroke-width:2;"/>
   </g>
   <g id="line2d_77">
    <path clip-path="url(#p5f0e65d4f2)" d="M 108 455.22 
L 109.974582 463.975226 
L 111.949164 471.57517 
L 113.923746 478.289482 
L 115.898328 484.303194 
L 117.87291 489.748797 
L 119.847492 494.724425 
L 121.822074 499.304792 
L 123.796656 503.548103 
L 125.771237 507.500581 
L 129.720401 514.675575 
L 133.669565 521.056123 
L 137.618729 526.800748 
L 141.567893 532.024799 
L 145.517057 536.814834 
L 149.466221 541.237472 
L 153.415385 545.345077 
L 157.364548 549.179562 
L 161.313712 552.774994 
L 167.237458 557.780005 
L 173.161204 562.385258 
L 179.08495 566.649917 
L 185.008696 570.620909 
L 190.932441 574.336086 
L 196.856187 577.826423 
L 204.754515 582.174202 
L 212.652843 586.21716 
L 220.551171 589.995253 
L 228.449498 593.541061 
L 238.322408 597.68724 
L 248.195318 601.555317 
L 258.068227 605.180266 
L 267.941137 608.59085 
L 279.788629 612.434027 
L 291.63612 616.037099 
L 303.483612 619.428312 
L 317.305686 623.148146 
L 331.127759 626.642594 
L 346.924415 630.393108 
L 362.72107 633.914615 
L 380.492308 637.635227 
L 398.263545 641.13036 
L 418.009365 644.780593 
L 437.755184 648.213549 
L 459.475585 651.767871 
L 483.170569 655.410811 
L 508.840134 659.113879 
L 534.509699 662.593527 
L 562.153846 666.120056 
L 591.772575 669.673593 
L 623.365886 673.237287 
L 656.933779 676.79702 
L 692.476254 680.341099 
L 698.4 680.911175 
L 698.4 680.911175 
" style="fill:none;stroke:#fece7c;stroke-dasharray:7.4,3.2;stroke-dashoffset:0;stroke-width:2;"/>
   </g>
   <g id="line2d_78">
    <path clip-path="url(#p5f0e65d4f2)" d="M 108 455.22 
L 109.974582 463.975226 
L 111.949164 471.57517 
L 113.923746 478.289482 
L 115.898328 484.303194 
L 117.87291 489.748797 
L 119.847492 494.724425 
L 121.822074 499.304792 
L 123.796656 503.548103 
L 125.771237 507.500581 
L 129.720401 514.675575 
L 133.669565 521.056123 
L 137.618729 526.800748 
L 141.567893 532.024799 
L 145.517057 536.814834 
L 149.466221 541.237472 
L 153.415385 545.345077 
L 157.364548 549.179562 
L 161.313712 552.774994 
L 167.237458 557.780005 
L 173.161204 562.385258 
L 179.08495 566.649917 
L 185.008696 570.620909 
L 190.932441 574.336086 
L 196.856187 577.826423 
L 204.754515 582.174202 
L 212.652843 586.21716 
L 220.551171 589.995253 
L 228.449498 593.541061 
L 238.322408 597.68724 
L 248.195318 601.555317 
L 258.068227 605.180266 
L 267.941137 608.59085 
L 279.788629 612.434027 
L 291.63612 616.037099 
L 303.483612 619.428312 
L 317.305686 623.148146 
L 331.127759 626.642594 
L 346.924415 630.393108 
L 362.72107 633.914615 
L 380.492308 637.635227 
L 398.263545 641.13036 
L 418.009365 644.780593 
L 437.755184 648.213549 
L 459.475585 651.767871 
L 483.170569 655.410811 
L 508.840134 659.113879 
L 534.509699 662.593527 
L 562.153846 666.120056 
L 591.772575 669.673593 
L 623.365886 673.237287 
L 656.933779 676.79702 
L 692.476254 680.341099 
L 698.4 680.911175 
L 698.4 680.911175 
" style="fill:none;stroke:#fff1a8;stroke-dasharray:7.4,3.2;stroke-dashoffset:0;stroke-width:2;"/>
   </g>
   <g id="line2d_79">
    <path clip-path="url(#p5f0e65d4f2)" d="M 108 455.22 
L 109.974582 463.975226 
L 111.949164 471.57517 
L 113.923746 478.289482 
L 115.898328 484.303194 
L 117.87291 489.748797 
L 119.847492 494.724425 
L 121.822074 499.304792 
L 123.796656 503.548103 
L 125.771237 507.500581 
L 129.720401 514.675575 
L 133.669565 521.056123 
L 137.618729 526.800748 
L 141.567893 532.024799 
L 145.517057 536.814834 
L 149.466221 541.237472 
L 153.415385 545.345077 
L 157.364548 549.179562 
L 161.313712 552.774994 
L 167.237458 557.780005 
L 173.161204 562.385258 
L 179.08495 566.649917 
L 185.008696 570.620909 
L 190.932441 574.336086 
L 196.856187 577.826423 
L 204.754515 582.174202 
L 212.652843 586.21716 
L 220.551171 589.995253 
L 228.449498 593.541061 
L 238.322408 597.68724 
L 248.195318 601.555317 
L 258.068227 605.180266 
L 267.941137 608.59085 
L 279.788629 612.434027 
L 291.63612 616.037099 
L 303.483612 619.428312 
L 317.305686 623.148146 
L 331.127759 626.642594 
L 346.924415 630.393108 
L 362.72107 633.914615 
L 380.492308 637.635227 
L 398.263545 641.13036 
L 418.009365 644.780593 
L 437.755184 648.213549 
L 459.475585 651.767871 
L 483.170569 655.410811 
L 508.840134 659.113879 
L 534.509699 662.593527 
L 562.153846 666.120056 
L 591.772575 669.673593 
L 623.365886 673.237287 
L 656.933779 676.79702 
L 692.476254 680.341099 
L 698.4 680.911175 
L 698.4 680.911175 
" style="fill:none;stroke:#f4faad;stroke-dasharray:7.4,3.2;stroke-dashoffset:0;stroke-width:2;"/>
   </g>
   <g id="line2d_80">
    <path clip-path="url(#p5f0e65d4f2)" d="M 108 455.22 
L 109.974582 463.975226 
L 111.949164 471.57517 
L 113.923746 478.289482 
L 115.898328 484.303194 
L 117.87291 489.748797 
L 119.847492 494.724425 
L 121.822074 499.304792 
L 123.796656 503.548103 
L 125.771237 507.500581 
L 129.720401 514.675575 
L 133.669565 521.056123 
L 137.618729 526.800748 
L 141.567893 532.024799 
L 145.517057 536.814834 
L 149.466221 541.237472 
L 153.415385 545.345077 
L 157.364548 549.179562 
L 161.313712 552.774994 
L 167.237458 557.780005 
L 173.161204 562.385258 
L 179.08495 566.649917 
L 185.008696 570.620909 
L 190.932441 574.336086 
L 196.856187 577.826423 
L 204.754515 582.174202 
L 212.652843 586.21716 
L 220.551171 589.995253 
L 228.449498 593.541061 
L 238.322408 597.68724 
L 248.195318 601.555317 
L 258.068227 605.180266 
L 267.941137 608.59085 
L 279.788629 612.434027 
L 291.63612 616.037099 
L 303.483612 619.428312 
L 317.305686 623.148146 
L 331.127759 626.642594 
L 346.924415 630.393108 
L 362.72107 633.914615 
L 380.492308 637.635227 
L 398.263545 641.13036 
L 418.009365 644.780593 
L 437.755184 648.213549 
L 459.475585 651.767871 
L 483.170569 655.410811 
L 508.840134 659.113879 
L 534.509699 662.593527 
L 562.153846 666.120056 
L 591.772575 669.673593 
L 623.365886 673.237287 
L 656.933779 676.79702 
L 692.476254 680.341099 
L 698.4 680.911175 
L 698.4 680.911175 
" style="fill:none;stroke:#d1ed9c;stroke-dasharray:7.4,3.2;stroke-dashoffset:0;stroke-width:2;"/>
   </g>
   <g id="line2d_81">
    <path clip-path="url(#p5f0e65d4f2)" d="M 108 455.22 
L 109.974582 463.975226 
L 111.949164 471.57517 
L 113.923746 478.289482 
L 115.898328 484.303194 
L 117.87291 489.748797 
L 119.847492 494.724425 
L 121.822074 499.304792 
L 123.796656 503.548103 
L 125.771237 507.500581 
L 129.720401 514.675575 
L 133.669565 521.056123 
L 137.618729 526.800748 
L 141.567893 532.024799 
L 145.517057 536.814834 
L 149.466221 541.237472 
L 153.415385 545.345077 
L 157.364548 549.179562 
L 161.313712 552.774994 
L 167.237458 557.780005 
L 173.161204 562.385258 
L 179.08495 566.649917 
L 185.008696 570.620909 
L 190.932441 574.336086 
L 196.856187 577.826423 
L 204.754515 582.174202 
L 212.652843 586.21716 
L 220.551171 589.995253 
L 228.449498 593.541061 
L 238.322408 597.68724 
L 248.195318 601.555317 
L 258.068227 605.180266 
L 267.941137 608.59085 
L 279.788629 612.434027 
L 291.63612 616.037099 
L 303.483612 619.428312 
L 317.305686 623.148146 
L 331.127759 626.642594 
L 346.924415 630.393108 
L 362.72107 633.914615 
L 380.492308 637.635227 
L 398.263545 641.13036 
L 418.009365 644.780593 
L 437.755184 648.213549 
L 459.475585 651.767871 
L 483.170569 655.410811 
L 508.840134 659.113879 
L 534.509699 662.593527 
L 562.153846 666.120056 
L 591.772575 669.673593 
L 623.365886 673.237287 
L 656.933779 676.79702 
L 692.476254 680.341099 
L 698.4 680.911175 
L 698.4 680.911175 
" style="fill:none;stroke:#97d5a4;stroke-dasharray:7.4,3.2;stroke-dashoffset:0;stroke-width:2;"/>
   </g>
   <g id="line2d_82">
    <path clip-path="url(#p5f0e65d4f2)" d="M 108 455.22 
L 109.974582 463.975226 
L 111.949164 471.57517 
L 113.923746 478.289482 
L 115.898328 484.303194 
L 117.87291 489.748797 
L 119.847492 494.724425 
L 121.822074 499.304792 
L 123.796656 503.548103 
L 125.771237 507.500581 
L 129.720401 514.675575 
L 133.669565 521.056123 
L 137.618729 526.800748 
L 141.567893 532.024799 
L 145.517057 536.814834 
L 149.466221 541.237472 
L 153.415385 545.345077 
L 157.364548 549.179562 
L 161.313712 552.774994 
L 167.237458 557.780005 
L 173.161204 562.385258 
L 179.08495 566.649917 
L 185.008696 570.620909 
L 190.932441 574.336086 
L 196.856187 577.826423 
L 204.754515 582.174202 
L 212.652843 586.21716 
L 220.551171 589.995253 
L 228.449498 593.541061 
L 238.322408 597.68724 
L 248.195318 601.555317 
L 258.068227 605.180266 
L 267.941137 608.59085 
L 279.788629 612.434027 
L 291.63612 616.037099 
L 303.483612 619.428312 
L 317.305686 623.148146 
L 331.127759 626.642594 
L 346.924415 630.393108 
L 362.72107 633.914615 
L 380.492308 637.635227 
L 398.263545 641.13036 
L 418.009365 644.780593 
L 437.755184 648.213549 
L 459.475585 651.767871 
L 483.170569 655.410811 
L 508.840134 659.113879 
L 534.509699 662.593527 
L 562.153846 666.120056 
L 591.772575 669.673593 
L 623.365886 673.237287 
L 656.933779 676.79702 
L 692.476254 680.341099 
L 698.4 680.911175 
L 698.4 680.911175 
" style="fill:none;stroke:#5cb7aa;stroke-dasharray:7.4,3.2;stroke-dashoffset:0;stroke-width:2;"/>
   </g>
   <g id="line2d_83">
    <path clip-path="url(#p5f0e65d4f2)" d="M 108 455.22 
L 109.974582 463.975226 
L 111.949164 471.57517 
L 113.923746 478.289482 
L 115.898328 484.303194 
L 117.87291 489.748797 
L 119.847492 494.724425 
L 121.822074 499.304792 
L 123.796656 503.548103 
L 125.771237 507.500581 
L 129.720401 514.675575 
L 133.669565 521.056123 
L 137.618729 526.800748 
L 141.567893 532.024799 
L 145.517057 536.814834 
L 149.466221 541.237472 
L 153.415385 545.345077 
L 157.364548 549.179562 
L 161.313712 552.774994 
L 167.237458 557.780005 
L 173.161204 562.385258 
L 179.08495 566.649917 
L 185.008696 570.620909 
L 190.932441 574.336086 
L 196.856187 577.826423 
L 204.754515 582.174202 
L 212.652843 586.21716 
L 220.551171 589.995253 
L 228.449498 593.541061 
L 238.322408 597.68724 
L 248.195318 601.555317 
L 258.068227 605.180266 
L 267.941137 608.59085 
L 279.788629 612.434027 
L 291.63612 616.037099 
L 303.483612 619.428312 
L 317.305686 623.148146 
L 331.127759 626.642594 
L 346.924415 630.393108 
L 362.72107 633.914615 
L 380.492308 637.635227 
L 398.263545 641.13036 
L 418.009365 644.780593 
L 437.755184 648.213549 
L 459.475585 651.767871 
L 483.170569 655.410811 
L 508.840134 659.113879 
L 534.509699 662.593527 
L 562.153846 666.120056 
L 591.772575 669.673593 
L 623.365886 673.237287 
L 656.933779 676.79702 
L 692.476254 680.341099 
L 698.4 680.911175 
L 698.4 680.911175 
" style="fill:none;stroke:#3682ba;stroke-dasharray:7.4,3.2;stroke-dashoffset:0;stroke-width:2;"/>
   </g>
   <g id="line2d_84">
    <path clip-path="url(#p5f0e65d4f2)" d="M 108 455.22 
L 109.974582 463.975226 
L 111.949164 471.57517 
L 113.923746 478.289482 
L 115.898328 484.303194 
L 117.87291 489.748797 
L 119.847492 494.724425 
L 121.822074 499.304792 
L 123.796656 503.548103 
L 125.771237 507.500581 
L 129.720401 514.675575 
L 133.669565 521.056123 
L 137.618729 526.800748 
L 141.567893 532.024799 
L 145.517057 536.814834 
L 149.466221 541.237472 
L 153.415385 545.345077 
L 157.364548 549.179562 
L 161.313712 552.774994 
L 167.237458 557.780005 
L 173.161204 562.385258 
L 179.08495 566.649917 
L 185.008696 570.620909 
L 190.932441 574.336086 
L 196.856187 577.826423 
L 204.754515 582.174202 
L 212.652843 586.21716 
L 220.551171 589.995253 
L 228.449498 593.541061 
L 238.322408 597.68724 
L 248.195318 601.555317 
L 258.068227 605.180266 
L 267.941137 608.59085 
L 279.788629 612.434027 
L 291.63612 616.037099 
L 303.483612 619.428312 
L 317.305686 623.148146 
L 331.127759 626.642594 
L 346.924415 630.393108 
L 362.72107 633.914615 
L 380.492308 637.635227 
L 398.263545 641.13036 
L 418.009365 644.780593 
L 437.755184 648.213549 
L 459.475585 651.767871 
L 483.170569 655.410811 
L 508.840134 659.113879 
L 534.509699 662.593527 
L 562.153846 666.120056 
L 591.772575 669.673593 
L 623.365886 673.237287 
L 656.933779 676.79702 
L 692.476254 680.341099 
L 698.4 680.911175 
L 698.4 680.911175 
" style="fill:none;stroke:#5e4fa2;stroke-dasharray:7.4,3.2;stroke-dashoffset:0;stroke-width:2;"/>
   </g>
   <g id="patch_3">
    <path d="M 108 720.9 
L 108 56.7 
" style="fill:none;stroke:#000000;stroke-linecap:square;stroke-linejoin:miter;stroke-width:0.8;"/>
   </g>
   <g id="patch_4">
    <path d="M 698.4 720.9 
L 698.4 56.7 
" style="fill:none;stroke:#000000;stroke-linecap:square;stroke-linejoin:miter;stroke-width:0.8;"/>
   </g>
   <g id="patch_5">
    <path d="M 108 720.9 
L 698.4 720.9 
" style="fill:none;stroke:#000000;stroke-linecap:square;stroke-linejoin:miter;stroke-width:0.8;"/>
   </g>
   <g id="patch_6">
    <path d="M 108 56.7 
L 698.4 56.7 
" style="fill:none;stroke:#000000;stroke-linecap:square;stroke-linejoin:miter;stroke-width:0.8;"/>
   </g>
   <g id="legend_1">
    <g id="patch_7">
     <path d="M 570.461689 395.335009 
L 684.4 395.335009 
Q 688.4 395.335009 688.4 391.335009 
L 688.4 70.7 
Q 688.4 66.7 684.4 66.7 
L 570.461689 66.7 
Q 566.461689 66.7 566.461689 70.7 
L 566.461689 391.335009 
Q 566.461689 395.335009 570.461689 395.335009 
z
" style="fill:#ffffff;opacity:0.8;stroke:#cccccc;stroke-linejoin:miter;"/>
    </g>
    <g id="line2d_85">
     <path d="M 574.461689 82.896875 
L 614.461689 82.896875 
" style="fill:none;stroke:#d0384e;stroke-linecap:square;stroke-width:2;"/>
    </g>
    <g id="line2d_86"/>
    <g id="text_14">
     <!-- $l=0$ -->
     <g transform="translate(630.461689 89.896875)scale(0.2 -0.2)">
      <defs>
       <path d="M 64.296875 31.515625 
C 65.796875 31.515625 67.296875 31.515625 67.296875 33.203125 
C 67.296875 35 65.59375 35 63.90625 35 
L 8 35 
C 6.296875 35 4.59375 35 4.59375 33.203125 
C 4.59375 31.515625 6.09375 31.515625 7.59375 31.515625 
z
M 63.90625 14 
C 65.59375 14 67.296875 14 67.296875 15.796875 
C 67.296875 17.484375 65.796875 17.484375 64.296875 17.484375 
L 7.59375 17.484375 
C 6.09375 17.484375 4.59375 17.484375 4.59375 15.796875 
C 4.59375 14 6.296875 14 8 14 
z
" id="CMR17-61"/>
      </defs>
      <use transform="scale(0.996264)" xlink:href="#CMMI12-108"/>
      <use transform="translate(58.922413 0)scale(0.996264)" xlink:href="#CMR17-61"/>
      <use transform="translate(158.31121 0)scale(0.996264)" xlink:href="#CMR17-48"/>
     </g>
    </g>
    <g id="line2d_87">
     <path d="M 574.461689 112.253125 
L 614.461689 112.253125 
" style="fill:none;stroke:#ee6445;stroke-linecap:square;stroke-width:2;"/>
    </g>
    <g id="line2d_88"/>
    <g id="text_15">
     <!-- $l=5$ -->
     <g transform="translate(630.461689 119.253125)scale(0.2 -0.2)">
      <use transform="scale(0.996264)" xlink:href="#CMMI12-108"/>
      <use transform="translate(58.922413 0)scale(0.996264)" xlink:href="#CMR17-61"/>
      <use transform="translate(158.31121 0)scale(0.996264)" xlink:href="#CMR17-53"/>
     </g>
    </g>
    <g id="line2d_89">
     <path d="M 574.461689 141.609375 
L 614.461689 141.609375 
" style="fill:none;stroke:#fa9b58;stroke-linecap:square;stroke-width:2;"/>
    </g>
    <g id="line2d_90"/>
    <g id="text_16">
     <!-- $l=10$ -->
     <g transform="translate(630.461689 148.609375)scale(0.2 -0.2)">
      <use transform="scale(0.996264)" xlink:href="#CMMI12-108"/>
      <use transform="translate(58.922413 0)scale(0.996264)" xlink:href="#CMR17-61"/>
      <use transform="translate(158.31121 0)scale(0.996264)" xlink:href="#CMR17-49"/>
      <use transform="translate(204.001687 0)scale(0.996264)" xlink:href="#CMR17-48"/>
     </g>
    </g>
    <g id="line2d_91">
     <path d="M 574.461689 170.965625 
L 614.461689 170.965625 
" style="fill:none;stroke:#fece7c;stroke-linecap:square;stroke-width:2;"/>
    </g>
    <g id="line2d_92"/>
    <g id="text_17">
     <!-- $l=15$ -->
     <g transform="translate(630.461689 177.965625)scale(0.2 -0.2)">
      <use transform="scale(0.996264)" xlink:href="#CMMI12-108"/>
      <use transform="translate(58.922413 0)scale(0.996264)" xlink:href="#CMR17-61"/>
      <use transform="translate(158.31121 0)scale(0.996264)" xlink:href="#CMR17-49"/>
      <use transform="translate(204.001687 0)scale(0.996264)" xlink:href="#CMR17-53"/>
     </g>
    </g>
    <g id="line2d_93">
     <path d="M 574.461689 200.321875 
L 614.461689 200.321875 
" style="fill:none;stroke:#fff1a8;stroke-linecap:square;stroke-width:2;"/>
    </g>
    <g id="line2d_94"/>
    <g id="text_18">
     <!-- $l=20$ -->
     <g transform="translate(630.461689 207.321875)scale(0.2 -0.2)">
      <use transform="scale(0.996264)" xlink:href="#CMMI12-108"/>
      <use transform="translate(58.922413 0)scale(0.996264)" xlink:href="#CMR17-61"/>
      <use transform="translate(158.31121 0)scale(0.996264)" xlink:href="#CMR17-50"/>
      <use transform="translate(204.001687 0)scale(0.996264)" xlink:href="#CMR17-48"/>
     </g>
    </g>
    <g id="line2d_95">
     <path d="M 574.461689 229.678125 
L 614.461689 229.678125 
" style="fill:none;stroke:#f4faad;stroke-linecap:square;stroke-width:2;"/>
    </g>
    <g id="line2d_96"/>
    <g id="text_19">
     <!-- $l=25$ -->
     <g transform="translate(630.461689 236.678125)scale(0.2 -0.2)">
      <use transform="scale(0.996264)" xlink:href="#CMMI12-108"/>
      <use transform="translate(58.922413 0)scale(0.996264)" xlink:href="#CMR17-61"/>
      <use transform="translate(158.31121 0)scale(0.996264)" xlink:href="#CMR17-50"/>
      <use transform="translate(204.001687 0)scale(0.996264)" xlink:href="#CMR17-53"/>
     </g>
    </g>
    <g id="line2d_97">
     <path d="M 574.461689 259.034375 
L 614.461689 259.034375 
" style="fill:none;stroke:#d1ed9c;stroke-linecap:square;stroke-width:2;"/>
    </g>
    <g id="line2d_98"/>
    <g id="text_20">
     <!-- $l=30$ -->
     <g transform="translate(630.461689 266.034375)scale(0.2 -0.2)">
      <use transform="scale(0.996264)" xlink:href="#CMMI12-108"/>
      <use transform="translate(58.922413 0)scale(0.996264)" xlink:href="#CMR17-61"/>
      <use transform="translate(158.31121 0)scale(0.996264)" xlink:href="#CMR17-51"/>
      <use transform="translate(204.001687 0)scale(0.996264)" xlink:href="#CMR17-48"/>
     </g>
    </g>
    <g id="line2d_99">
     <path d="M 574.461689 288.390625 
L 614.461689 288.390625 
" style="fill:none;stroke:#97d5a4;stroke-linecap:square;stroke-width:2;"/>
    </g>
    <g id="line2d_100"/>
    <g id="text_21">
     <!-- $l=35$ -->
     <g transform="translate(630.461689 295.390625)scale(0.2 -0.2)">
      <use transform="scale(0.996264)" xlink:href="#CMMI12-108"/>
      <use transform="translate(58.922413 0)scale(0.996264)" xlink:href="#CMR17-61"/>
      <use transform="translate(158.31121 0)scale(0.996264)" xlink:href="#CMR17-51"/>
      <use transform="translate(204.001687 0)scale(0.996264)" xlink:href="#CMR17-53"/>
     </g>
    </g>
    <g id="line2d_101">
     <path d="M 574.461689 317.746875 
L 614.461689 317.746875 
" style="fill:none;stroke:#5cb7aa;stroke-linecap:square;stroke-width:2;"/>
    </g>
    <g id="line2d_102"/>
    <g id="text_22">
     <!-- $l=40$ -->
     <g transform="translate(630.461689 324.746875)scale(0.2 -0.2)">
      <use transform="scale(0.996264)" xlink:href="#CMMI12-108"/>
      <use transform="translate(58.922413 0)scale(0.996264)" xlink:href="#CMR17-61"/>
      <use transform="translate(158.31121 0)scale(0.996264)" xlink:href="#CMR17-52"/>
      <use transform="translate(204.001687 0)scale(0.996264)" xlink:href="#CMR17-48"/>
     </g>
    </g>
    <g id="line2d_103">
     <path d="M 574.461689 347.103125 
L 614.461689 347.103125 
" style="fill:none;stroke:#3682ba;stroke-linecap:square;stroke-width:2;"/>
    </g>
    <g id="line2d_104"/>
    <g id="text_23">
     <!-- $l=45$ -->
     <g transform="translate(630.461689 354.103125)scale(0.2 -0.2)">
      <use transform="scale(0.996264)" xlink:href="#CMMI12-108"/>
      <use transform="translate(58.922413 0)scale(0.996264)" xlink:href="#CMR17-61"/>
      <use transform="translate(158.31121 0)scale(0.996264)" xlink:href="#CMR17-52"/>
      <use transform="translate(204.001687 0)scale(0.996264)" xlink:href="#CMR17-53"/>
     </g>
    </g>
    <g id="line2d_105">
     <path d="M 574.461689 376.459375 
L 614.461689 376.459375 
" style="fill:none;stroke:#5e4fa2;stroke-linecap:square;stroke-width:2;"/>
    </g>
    <g id="line2d_106"/>
    <g id="text_24">
     <!-- $l=50$ -->
     <g transform="translate(630.461689 383.459375)scale(0.2 -0.2)">
      <use transform="scale(0.996264)" xlink:href="#CMMI12-108"/>
      <use transform="translate(58.922413 0)scale(0.996264)" xlink:href="#CMR17-61"/>
      <use transform="translate(158.31121 0)scale(0.996264)" xlink:href="#CMR17-53"/>
      <use transform="translate(204.001687 0)scale(0.996264)" xlink:href="#CMR17-48"/>
     </g>
    </g>
   </g>
  </g>
 </g>
 <defs>
  <clipPath id="p5f0e65d4f2">
   <rect height="664.2" width="590.4" x="108" y="56.7"/>
  </clipPath>
 </defs>
</svg>
