<?xml version="1.0" encoding="utf-8" standalone="no"?>
<!DOCTYPE svg PUBLIC "-//W3C//DTD SVG 1.1//EN"
  "http://www.w3.org/Graphics/SVG/1.1/DTD/svg11.dtd">
<!-- Created with matplotlib (https://matplotlib.org/) -->
<svg height="810pt" version="1.1" viewBox="0 0 720 810" width="720pt" xmlns="http://www.w3.org/2000/svg" xmlns:xlink="http://www.w3.org/1999/xlink">
 <metadata>
  <rdf:RDF xmlns:cc="http://creativecommons.org/ns#" xmlns:dc="http://purl.org/dc/elements/1.1/" xmlns:rdf="http://www.w3.org/1999/02/22-rdf-syntax-ns#">
   <cc:Work>
    <dc:type rdf:resource="http://purl.org/dc/dcmitype/StillImage"/>
    <dc:date>2020-11-23T13:48:47.989259</dc:date>
    <dc:format>image/svg+xml</dc:format>
    <dc:creator>
     <cc:Agent>
      <dc:title>Matplotlib v3.3.1, https://matplotlib.org/</dc:title>
     </cc:Agent>
    </dc:creator>
   </cc:Work>
  </rdf:RDF>
 </metadata>
 <defs>
  <style type="text/css">*{stroke-linecap:butt;stroke-linejoin:round;}</style>
 </defs>
 <g id="figure_1">
  <g id="patch_1">
   <path d="M 0 810 
L 720 810 
L 720 0 
L 0 0 
z
" style="fill:#ffffff;"/>
  </g>
  <g id="axes_1">
   <g id="patch_2">
    <path d="M 108 720.9 
L 698.4 720.9 
L 698.4 56.7 
L 108 56.7 
z
" style="fill:#ffffff;"/>
   </g>
   <g id="matplotlib.axis_1">
    <g id="xtick_1">
     <g id="line2d_1">
      <path clip-path="url(#p7a44a228ed)" d="M 108 720.9 
L 108 56.7 
" style="fill:none;stroke:#e6e6e6;stroke-linecap:square;stroke-width:0.8;"/>
     </g>
     <g id="line2d_2">
      <defs>
       <path d="M 0 0 
L 0 -3.5 
" id="m3af6c2bf36" style="stroke:#000000;stroke-width:0.8;"/>
      </defs>
      <g>
       <use style="stroke:#000000;stroke-width:0.8;" x="108" xlink:href="#m3af6c2bf36" y="720.9"/>
      </g>
     </g>
     <g id="text_1">
      <!-- $\mathdefault{0}$ -->
      <g transform="translate(104.341881 734.777725)scale(0.15 -0.15)">
       <defs>
        <path d="M 42 31.640625 
C 42 37.75 41.90625 48.125 37.703125 56.109375 
C 34 63.109375 28.09375 65.59375 22.90625 65.59375 
C 18.09375 65.59375 12 63.40625 8.203125 56.203125 
C 4.203125 48.71875 3.796875 39.4375 3.796875 31.640625 
C 3.796875 25.953125 3.90625 17.28125 7 9.671875 
C 11.296875 -0.609375 19 -2 22.90625 -2 
C 27.5 -2 34.5 -0.109375 38.59375 9.375 
C 41.59375 16.28125 42 24.359375 42 31.640625 
z
M 22.90625 -0.40625 
C 16.5 -0.40625 12.703125 5.078125 11.296875 12.6875 
C 10.203125 18.5625 10.203125 27.15625 10.203125 32.75 
C 10.203125 40.4375 10.203125 46.828125 11.5 52.921875 
C 13.40625 61.390625 19 64 22.90625 64 
C 27 64 32.296875 61.296875 34.203125 53.125 
C 35.5 47.4375 35.59375 40.734375 35.59375 32.75 
C 35.59375 26.25 35.59375 18.265625 34.40625 12.375 
C 32.296875 1.484375 26.40625 -0.40625 22.90625 -0.40625 
z
" id="CMR17-48"/>
       </defs>
       <use transform="scale(0.996264)" xlink:href="#CMR17-48"/>
      </g>
     </g>
    </g>
    <g id="xtick_2">
     <g id="line2d_3">
      <path clip-path="url(#p7a44a228ed)" d="M 189.546961 720.9 
L 189.546961 56.7 
" style="fill:none;stroke:#e6e6e6;stroke-linecap:square;stroke-width:0.8;"/>
     </g>
     <g id="line2d_4">
      <g>
       <use style="stroke:#000000;stroke-width:0.8;" x="189.546961" xlink:href="#m3af6c2bf36" y="720.9"/>
      </g>
     </g>
     <g id="text_2">
      <!-- $\mathdefault{25}$ -->
      <g transform="translate(182.230724 734.777725)scale(0.15 -0.15)">
       <defs>
        <path d="M 41.703125 15.453125 
L 39.90625 15.453125 
C 38.90625 8.375 38.09375 7.171875 37.703125 6.5625 
C 37.203125 5.765625 30 5.765625 28.59375 5.765625 
L 9.40625 5.765625 
C 13 9.671875 20 16.75 28.5 24.953125 
C 34.59375 30.734375 41.703125 37.53125 41.703125 47.421875 
C 41.703125 59.21875 32.296875 66 21.796875 66 
C 10.796875 66 4.09375 56.3125 4.09375 47.34375 
C 4.09375 43.4375 7 42.9375 8.203125 42.9375 
C 9.203125 42.9375 12.203125 43.546875 12.203125 47.03125 
C 12.203125 50.109375 9.59375 51 8.203125 51 
C 7.59375 51 7 50.90625 6.59375 50.703125 
C 8.5 59.21875 14.296875 63.40625 20.40625 63.40625 
C 29.09375 63.40625 34.796875 56.515625 34.796875 47.421875 
C 34.796875 38.734375 29.703125 31.25 24 24.75 
L 4.09375 2.28125 
L 4.09375 0 
L 39.296875 0 
z
" id="CMR17-50"/>
        <path d="M 11.40625 57.6875 
C 12.40625 57.28125 16.5 56 20.703125 56 
C 30 56 35.09375 61.109375 38 64.0625 
C 38 64.953125 38 65.5 37.40625 65.5 
C 37.296875 65.5 37.09375 65.5 36.296875 65.046875 
C 32.796875 63.40625 28.703125 62.078125 23.703125 62.078125 
C 20.703125 62.078125 16.203125 62.484375 11.296875 64.671875 
C 10.203125 65.171875 10 65.171875 9.90625 65.171875 
C 9.40625 65.171875 9.296875 65.0625 9.296875 63.078125 
L 9.296875 34.421875 
C 9.296875 32.640625 9.296875 32.140625 10.296875 32.140625 
C 10.796875 32.140625 11 32.34375 11.5 33.03125 
C 14.703125 37.515625 19.09375 39.40625 24.09375 39.40625 
C 27.59375 39.40625 35.09375 37.21875 35.09375 20.140625 
C 35.09375 16.953125 35.09375 11.171875 32.09375 6.578125 
C 29.59375 2.484375 25.703125 0.390625 21.40625 0.390625 
C 14.796875 0.390625 8.09375 5 6.296875 12.71875 
C 6.703125 12.609375 7.5 12.421875 7.90625 12.421875 
C 9.203125 12.421875 11.703125 13.125 11.703125 16.21875 
C 11.703125 18.90625 9.796875 20 7.90625 20 
C 5.59375 20 4.09375 18.59375 4.09375 15.796875 
C 4.09375 7.09375 11 -2 21.59375 -2 
C 31.90625 -2 41.703125 6.875 41.703125 19.75 
C 41.703125 31.71875 33.90625 41 24.203125 41 
C 19.09375 41 14.796875 39.109375 11.40625 35.53125 
z
" id="CMR17-53"/>
       </defs>
       <use transform="scale(0.996264)" xlink:href="#CMR17-50"/>
       <use transform="translate(45.690477 0)scale(0.996264)" xlink:href="#CMR17-53"/>
      </g>
     </g>
    </g>
    <g id="xtick_3">
     <g id="line2d_5">
      <path clip-path="url(#p7a44a228ed)" d="M 271.093923 720.9 
L 271.093923 56.7 
" style="fill:none;stroke:#e6e6e6;stroke-linecap:square;stroke-width:0.8;"/>
     </g>
     <g id="line2d_6">
      <g>
       <use style="stroke:#000000;stroke-width:0.8;" x="271.093923" xlink:href="#m3af6c2bf36" y="720.9"/>
      </g>
     </g>
     <g id="text_3">
      <!-- $\mathdefault{50}$ -->
      <g transform="translate(263.777685 734.777725)scale(0.15 -0.15)">
       <use transform="scale(0.996264)" xlink:href="#CMR17-53"/>
       <use transform="translate(45.690477 0)scale(0.996264)" xlink:href="#CMR17-48"/>
      </g>
     </g>
    </g>
    <g id="xtick_4">
     <g id="line2d_7">
      <path clip-path="url(#p7a44a228ed)" d="M 352.640884 720.9 
L 352.640884 56.7 
" style="fill:none;stroke:#e6e6e6;stroke-linecap:square;stroke-width:0.8;"/>
     </g>
     <g id="line2d_8">
      <g>
       <use style="stroke:#000000;stroke-width:0.8;" x="352.640884" xlink:href="#m3af6c2bf36" y="720.9"/>
      </g>
     </g>
     <g id="text_4">
      <!-- $\mathdefault{75}$ -->
      <g transform="translate(345.324646 734.777725)scale(0.15 -0.15)">
       <defs>
        <path d="M 45.09375 61.578125 
L 45.09375 63.765625 
L 21.59375 63.765625 
C 9.90625 63.765625 9.703125 65.078125 9.296875 67 
L 7.5 67 
L 4.59375 48.34375 
L 6.40625 48.34375 
C 6.703125 50.234375 7.40625 55.3125 8.59375 57.203125 
C 9.203125 58 16.59375 58 18.296875 58 
L 40.296875 58 
L 29.203125 41.578125 
C 21.796875 30.53125 16.703125 15.609375 16.703125 2.578125 
C 16.703125 1.390625 16.703125 -2 20.296875 -2 
C 23.90625 -2 23.90625 1.390625 23.90625 2.671875 
L 23.90625 7.265625 
C 23.90625 23.5625 26.703125 34.3125 31.296875 41.1875 
z
" id="CMR17-55"/>
       </defs>
       <use transform="scale(0.996264)" xlink:href="#CMR17-55"/>
       <use transform="translate(45.690477 0)scale(0.996264)" xlink:href="#CMR17-53"/>
      </g>
     </g>
    </g>
    <g id="xtick_5">
     <g id="line2d_9">
      <path clip-path="url(#p7a44a228ed)" d="M 434.187845 720.9 
L 434.187845 56.7 
" style="fill:none;stroke:#e6e6e6;stroke-linecap:square;stroke-width:0.8;"/>
     </g>
     <g id="line2d_10">
      <g>
       <use style="stroke:#000000;stroke-width:0.8;" x="434.187845" xlink:href="#m3af6c2bf36" y="720.9"/>
      </g>
     </g>
     <g id="text_5">
      <!-- $\mathdefault{100}$ -->
      <g transform="translate(423.213489 734.777725)scale(0.15 -0.15)">
       <defs>
        <path d="M 26.59375 63.40625 
C 26.59375 65.5 26.5 65.5 25.09375 65.5 
C 21.203125 61.1875 15.296875 59.796875 9.703125 59.796875 
C 9.40625 59.796875 8.90625 59.796875 8.796875 59.5 
C 8.703125 59.296875 8.703125 59.09375 8.703125 57 
C 11.796875 57 17 57.59375 21 59.984375 
L 21 7.203125 
C 21 3.6875 20.796875 2.5 12.203125 2.5 
L 9.203125 2.5 
L 9.203125 0 
C 14 0 19 0 23.796875 0 
C 28.59375 0 33.59375 0 38.40625 0 
L 38.40625 2.5 
L 35.40625 2.5 
C 26.796875 2.5 26.59375 3.59375 26.59375 7.15625 
z
" id="CMR17-49"/>
       </defs>
       <use transform="scale(0.996264)" xlink:href="#CMR17-49"/>
       <use transform="translate(45.690477 0)scale(0.996264)" xlink:href="#CMR17-48"/>
       <use transform="translate(91.380954 0)scale(0.996264)" xlink:href="#CMR17-48"/>
      </g>
     </g>
    </g>
    <g id="xtick_6">
     <g id="line2d_11">
      <path clip-path="url(#p7a44a228ed)" d="M 515.734807 720.9 
L 515.734807 56.7 
" style="fill:none;stroke:#e6e6e6;stroke-linecap:square;stroke-width:0.8;"/>
     </g>
     <g id="line2d_12">
      <g>
       <use style="stroke:#000000;stroke-width:0.8;" x="515.734807" xlink:href="#m3af6c2bf36" y="720.9"/>
      </g>
     </g>
     <g id="text_6">
      <!-- $\mathdefault{125}$ -->
      <g transform="translate(504.76045 734.777725)scale(0.15 -0.15)">
       <use transform="scale(0.996264)" xlink:href="#CMR17-49"/>
       <use transform="translate(45.690477 0)scale(0.996264)" xlink:href="#CMR17-50"/>
       <use transform="translate(91.380954 0)scale(0.996264)" xlink:href="#CMR17-53"/>
      </g>
     </g>
    </g>
    <g id="xtick_7">
     <g id="line2d_13">
      <path clip-path="url(#p7a44a228ed)" d="M 597.281768 720.9 
L 597.281768 56.7 
" style="fill:none;stroke:#e6e6e6;stroke-linecap:square;stroke-width:0.8;"/>
     </g>
     <g id="line2d_14">
      <g>
       <use style="stroke:#000000;stroke-width:0.8;" x="597.281768" xlink:href="#m3af6c2bf36" y="720.9"/>
      </g>
     </g>
     <g id="text_7">
      <!-- $\mathdefault{150}$ -->
      <g transform="translate(586.307411 734.777725)scale(0.15 -0.15)">
       <use transform="scale(0.996264)" xlink:href="#CMR17-49"/>
       <use transform="translate(45.690477 0)scale(0.996264)" xlink:href="#CMR17-53"/>
       <use transform="translate(91.380954 0)scale(0.996264)" xlink:href="#CMR17-48"/>
      </g>
     </g>
    </g>
    <g id="xtick_8">
     <g id="line2d_15">
      <path clip-path="url(#p7a44a228ed)" d="M 678.828729 720.9 
L 678.828729 56.7 
" style="fill:none;stroke:#e6e6e6;stroke-linecap:square;stroke-width:0.8;"/>
     </g>
     <g id="line2d_16">
      <g>
       <use style="stroke:#000000;stroke-width:0.8;" x="678.828729" xlink:href="#m3af6c2bf36" y="720.9"/>
      </g>
     </g>
     <g id="text_8">
      <!-- $\mathdefault{175}$ -->
      <g transform="translate(667.854373 734.777725)scale(0.15 -0.15)">
       <use transform="scale(0.996264)" xlink:href="#CMR17-49"/>
       <use transform="translate(45.690477 0)scale(0.996264)" xlink:href="#CMR17-55"/>
       <use transform="translate(91.380954 0)scale(0.996264)" xlink:href="#CMR17-53"/>
      </g>
     </g>
    </g>
    <g id="text_9">
     <!-- $\theta(^{\circ})$ -->
     <g transform="translate(383.750923 760.340997)scale(0.25 -0.25)">
      <defs>
       <path d="M 44.296875 50 
C 44.296875 60.15625 41.09375 70 32.90625 70 
C 18.90625 70 4 40.859375 4 19 
C 4 14.421875 5 -1 15.5 -1 
C 29.09375 -1 44.296875 27.4375 44.296875 50 
z
M 14 36 
C 15.5 41.859375 17.59375 50.21875 21.59375 57.265625 
C 24.90625 63.234375 28.40625 68 32.796875 68 
C 36.09375 68 38.296875 65.21875 38.296875 55.6875 
C 38.296875 52.09375 38 47.140625 35.09375 36 
z
M 34.40625 33.015625 
C 31.90625 23.28125 29.796875 17 26.203125 10.734375 
C 23.296875 5.671875 19.796875 1 15.59375 1 
C 12.5 1 10 3.390625 10 13.21875 
C 10 19.6875 11.59375 26.453125 13.203125 33.015625 
z
" id="CMMI12-18"/>
       <path d="M 30.59375 -24.390625 
C 30.59375 -24.296875 30.59375 -24.09375 30.296875 -23.796875 
C 25.703125 -19.125 13.40625 -6.359375 13.40625 24.703125 
C 13.40625 55.765625 25.5 68.421875 30.40625 73.390625 
C 30.40625 73.5 30.59375 73.703125 30.59375 74 
C 30.59375 74.296875 30.296875 74.5 29.90625 74.5 
C 28.796875 74.5 20.296875 67.125 15.40625 56.15625 
C 10.40625 45.109375 9 34.359375 9 24.8125 
C 9 17.625 9.703125 5.484375 15.703125 -7.359375 
C 20.5 -17.734375 28.703125 -25 29.90625 -25 
C 30.40625 -25 30.59375 -24.796875 30.59375 -24.390625 
z
" id="CMR17-40"/>
       <path d="M 44.40625 25 
C 44.40625 35.578125 35.5 44.1875 25 44.1875 
C 14.203125 44.1875 5.5 35.375 5.5 25 
C 5.5 14.53125 14.203125 5.8125 25 5.8125 
C 35.5 5.8125 44.40625 14.421875 44.40625 25 
z
M 25 9.8125 
C 16.296875 9.8125 9.5 16.71875 9.5 25 
C 9.5 33.28125 16.40625 40.1875 25 40.1875 
C 33.296875 40.1875 40.40625 33.46875 40.40625 25 
C 40.40625 16.53125 33.296875 9.8125 25 9.8125 
z
" id="CMSY10-14"/>
       <path d="M 26.296875 24.703125 
C 26.296875 31.875 25.59375 44.015625 19.59375 56.859375 
C 14.796875 67.234375 6.59375 74.5 5.40625 74.5 
C 5.09375 74.5 4.703125 74.390625 4.703125 73.890625 
C 4.703125 73.703125 4.796875 73.59375 4.90625 73.390625 
C 9.703125 68.40625 21.90625 55.75 21.90625 24.75 
C 21.90625 -6.359375 9.796875 -19.015625 4.90625 -24.015625 
C 4.796875 -24.203125 4.703125 -24.3125 4.703125 -24.5 
C 4.703125 -25 5.09375 -25 5.40625 -25 
C 6.5 -25 15 -17.625 19.90625 -6.65625 
C 24.90625 4.390625 26.296875 15.140625 26.296875 24.703125 
z
" id="CMR17-41"/>
      </defs>
      <use transform="scale(0.996264)" xlink:href="#CMMI12-18"/>
      <use transform="translate(48.169508 0)scale(0.996264)" xlink:href="#CMR17-40"/>
      <use transform="translate(83.450276 36.153639)scale(0.697382)" xlink:href="#CMSY10-14"/>
      <use transform="translate(118.817618 0)scale(0.996264)" xlink:href="#CMR17-41"/>
     </g>
    </g>
   </g>
   <g id="matplotlib.axis_2">
    <g id="ytick_1">
     <g id="line2d_17">
      <path clip-path="url(#p7a44a228ed)" d="M 108 664.053741 
L 698.4 664.053741 
" style="fill:none;stroke:#e6e6e6;stroke-linecap:square;stroke-width:0.8;"/>
     </g>
     <g id="line2d_18">
      <defs>
       <path d="M 0 0 
L 3.5 0 
" id="mb0f5ba01a3" style="stroke:#000000;stroke-width:0.8;"/>
      </defs>
      <g>
       <use style="stroke:#000000;stroke-width:0.8;" x="108" xlink:href="#mb0f5ba01a3" y="664.053741"/>
      </g>
     </g>
     <g id="text_10">
      <!-- $\mathdefault{0}$ -->
      <g transform="translate(97.183762 669.242603)scale(0.15 -0.15)">
       <use transform="scale(0.996264)" xlink:href="#CMR17-48"/>
      </g>
     </g>
    </g>
    <g id="ytick_2">
     <g id="line2d_19">
      <path clip-path="url(#p7a44a228ed)" d="M 108 573.162202 
L 698.4 573.162202 
" style="fill:none;stroke:#e6e6e6;stroke-linecap:square;stroke-width:0.8;"/>
     </g>
     <g id="line2d_20">
      <g>
       <use style="stroke:#000000;stroke-width:0.8;" x="108" xlink:href="#mb0f5ba01a3" y="573.162202"/>
      </g>
     </g>
     <g id="text_11">
      <!-- $\mathdefault{5}$ -->
      <g transform="translate(97.183762 578.351064)scale(0.15 -0.15)">
       <use transform="scale(0.996264)" xlink:href="#CMR17-53"/>
      </g>
     </g>
    </g>
    <g id="ytick_3">
     <g id="line2d_21">
      <path clip-path="url(#p7a44a228ed)" d="M 108 482.270663 
L 698.4 482.270663 
" style="fill:none;stroke:#e6e6e6;stroke-linecap:square;stroke-width:0.8;"/>
     </g>
     <g id="line2d_22">
      <g>
       <use style="stroke:#000000;stroke-width:0.8;" x="108" xlink:href="#mb0f5ba01a3" y="482.270663"/>
      </g>
     </g>
     <g id="text_12">
      <!-- $\mathdefault{10}$ -->
      <g transform="translate(89.867524 487.459525)scale(0.15 -0.15)">
       <use transform="scale(0.996264)" xlink:href="#CMR17-49"/>
       <use transform="translate(45.690477 0)scale(0.996264)" xlink:href="#CMR17-48"/>
      </g>
     </g>
    </g>
    <g id="ytick_4">
     <g id="line2d_23">
      <path clip-path="url(#p7a44a228ed)" d="M 108 391.379123 
L 698.4 391.379123 
" style="fill:none;stroke:#e6e6e6;stroke-linecap:square;stroke-width:0.8;"/>
     </g>
     <g id="line2d_24">
      <g>
       <use style="stroke:#000000;stroke-width:0.8;" x="108" xlink:href="#mb0f5ba01a3" y="391.379123"/>
      </g>
     </g>
     <g id="text_13">
      <!-- $\mathdefault{15}$ -->
      <g transform="translate(89.867524 396.567986)scale(0.15 -0.15)">
       <use transform="scale(0.996264)" xlink:href="#CMR17-49"/>
       <use transform="translate(45.690477 0)scale(0.996264)" xlink:href="#CMR17-53"/>
      </g>
     </g>
    </g>
    <g id="ytick_5">
     <g id="line2d_25">
      <path clip-path="url(#p7a44a228ed)" d="M 108 300.487584 
L 698.4 300.487584 
" style="fill:none;stroke:#e6e6e6;stroke-linecap:square;stroke-width:0.8;"/>
     </g>
     <g id="line2d_26">
      <g>
       <use style="stroke:#000000;stroke-width:0.8;" x="108" xlink:href="#mb0f5ba01a3" y="300.487584"/>
      </g>
     </g>
     <g id="text_14">
      <!-- $\mathdefault{20}$ -->
      <g transform="translate(89.867524 305.676447)scale(0.15 -0.15)">
       <use transform="scale(0.996264)" xlink:href="#CMR17-50"/>
       <use transform="translate(45.690477 0)scale(0.996264)" xlink:href="#CMR17-48"/>
      </g>
     </g>
    </g>
    <g id="ytick_6">
     <g id="line2d_27">
      <path clip-path="url(#p7a44a228ed)" d="M 108 209.596045 
L 698.4 209.596045 
" style="fill:none;stroke:#e6e6e6;stroke-linecap:square;stroke-width:0.8;"/>
     </g>
     <g id="line2d_28">
      <g>
       <use style="stroke:#000000;stroke-width:0.8;" x="108" xlink:href="#mb0f5ba01a3" y="209.596045"/>
      </g>
     </g>
     <g id="text_15">
      <!-- $\mathdefault{25}$ -->
      <g transform="translate(89.867524 214.784908)scale(0.15 -0.15)">
       <use transform="scale(0.996264)" xlink:href="#CMR17-50"/>
       <use transform="translate(45.690477 0)scale(0.996264)" xlink:href="#CMR17-53"/>
      </g>
     </g>
    </g>
    <g id="ytick_7">
     <g id="line2d_29">
      <path clip-path="url(#p7a44a228ed)" d="M 108 118.704506 
L 698.4 118.704506 
" style="fill:none;stroke:#e6e6e6;stroke-linecap:square;stroke-width:0.8;"/>
     </g>
     <g id="line2d_30">
      <g>
       <use style="stroke:#000000;stroke-width:0.8;" x="108" xlink:href="#mb0f5ba01a3" y="118.704506"/>
      </g>
     </g>
     <g id="text_16">
      <!-- $\mathdefault{30}$ -->
      <g transform="translate(89.867524 123.893368)scale(0.15 -0.15)">
       <defs>
        <path d="M 22.09375 33.703125 
C 31 33.703125 34.90625 25.96875 34.90625 17.03125 
C 34.90625 5 28.5 0.390625 22.703125 0.390625 
C 17.40625 0.390625 8.796875 3.03125 6.09375 10.828125 
C 6.59375 10.625 7.09375 10.625 7.59375 10.625 
C 10 10.625 11.796875 12.21875 11.796875 14.8125 
C 11.796875 17.703125 9.59375 19 7.59375 19 
C 5.90625 19 3.296875 18.203125 3.296875 14.46875 
C 3.296875 5.234375 12.296875 -2 22.90625 -2 
C 34 -2 42.5 6.71875 42.5 16.953125 
C 42.5 26.671875 34.5 33.703125 25 34.796875 
C 32.59375 36.375 39.90625 43.0625 39.90625 52.015625 
C 39.90625 59.6875 32 65.296875 23 65.296875 
C 13.90625 65.296875 5.90625 59.828125 5.90625 52.015625 
C 5.90625 48.59375 8.5 48 9.796875 48 
C 11.90625 48 13.703125 49.296875 13.703125 51.890625 
C 13.703125 54.46875 11.90625 55.765625 9.796875 55.765625 
C 9.40625 55.765625 8.90625 55.765625 8.5 55.578125 
C 11.40625 61.859375 19.296875 63 22.796875 63 
C 26.296875 63 32.90625 61.328125 32.90625 51.875 
C 32.90625 49.109375 32.5 44.1875 29.09375 39.84375 
C 26.09375 36 22.703125 36 19.40625 35.6875 
C 18.90625 35.6875 16.59375 35.453125 16.203125 35.453125 
C 15.5 35.359375 15.09375 35.265625 15.09375 34.5 
C 15.09375 33.796875 15.203125 33.703125 17.203125 33.703125 
z
" id="CMR17-51"/>
       </defs>
       <use transform="scale(0.996264)" xlink:href="#CMR17-51"/>
       <use transform="translate(45.690477 0)scale(0.996264)" xlink:href="#CMR17-48"/>
      </g>
     </g>
    </g>
    <g id="text_17">
     <!-- $|f(\theta)|$ -->
     <g transform="translate(79.640874 417.899913)rotate(-90)scale(0.25 -0.25)">
      <defs>
       <path d="M 15.90625 71.40625 
C 15.90625 73.203125 15.90625 75 13.90625 75 
C 11.90625 75 11.90625 73.203125 11.90625 71.40625 
L 11.90625 -21.40625 
C 11.90625 -23.203125 11.90625 -25 13.90625 -25 
C 15.90625 -25 15.90625 -23.203125 15.90625 -21.40625 
z
" id="CMSY10-106"/>
       <path d="M 44.59375 40.09375 
C 46.59375 40.09375 47.40625 40.09375 47.40625 42 
C 47.40625 43 46.59375 43 44.796875 43 
L 36.703125 43 
C 38.59375 53.578125 40 60.890625 40.796875 64.171875 
C 41.40625 66.640625 43.5 69 46.09375 69 
C 48.203125 69 50.296875 68.09375 51.296875 67.15625 
C 47.40625 66.75 46.203125 63.78125 46.203125 62.015625 
C 46.203125 59.953125 47.703125 58.734375 49.59375 58.734375 
C 51.59375 58.734375 54.59375 60.46875 54.59375 64.359375 
C 54.59375 68.640625 50.40625 71 46 71 
C 41.703125 71 37.5 67.71875 35.5 63.71875 
C 33.703125 60.125 32.703125 56.421875 30.40625 43 
L 23.703125 43 
C 21.796875 43 20.796875 43 20.796875 41.203125 
C 20.796875 40.09375 21.40625 40.09375 23.40625 40.09375 
L 29.796875 40.09375 
C 28 30.875 23.90625 8.46875 21.59375 -2.140625 
C 19.90625 -10.765625 18.40625 -18 13.40625 -18 
C 13.09375 -18 10.203125 -18 8.40625 -16.109375 
C 13.5 -15.703125 13.5 -11.34375 13.5 -11.25 
C 13.5 -9.265625 12 -8.078125 10.09375 -8.078125 
C 8.09375 -8.078125 5.09375 -9.765625 5.09375 -13.546875 
C 5.09375 -17.8125 9.5 -20 13.40625 -20 
C 23.59375 -20 27.796875 -1.84375 28.90625 3.109375 
C 30.703125 10.75 35.59375 37.125 36.09375 40.09375 
z
" id="CMMI12-102"/>
      </defs>
      <use transform="scale(0.996264)" xlink:href="#CMSY10-106"/>
      <use transform="translate(27.674085 0)scale(0.996264)" xlink:href="#CMMI12-102"/>
      <use transform="translate(86.39439 0)scale(0.996264)" xlink:href="#CMR17-40"/>
      <use transform="translate(121.675157 0)scale(0.996264)" xlink:href="#CMMI12-18"/>
      <use transform="translate(169.844665 0)scale(0.996264)" xlink:href="#CMR17-41"/>
      <use transform="translate(205.125433 0)scale(0.996264)" xlink:href="#CMSY10-106"/>
     </g>
    </g>
   </g>
   <g id="line2d_31">
    <path clip-path="url(#p7a44a228ed)" d="M 108 253.003905 
L 109.630939 253.115687 
L 111.261878 253.451132 
L 112.892818 254.010539 
L 114.523757 254.794398 
L 116.154696 255.803385 
L 117.785635 257.038343 
L 119.416575 258.500275 
L 121.047514 260.190316 
L 122.678453 262.109717 
L 124.309392 264.259813 
L 125.940331 266.642 
L 127.571271 269.257699 
L 129.20221 272.108322 
L 132.464088 278.51973 
L 135.725967 285.8859 
L 138.987845 294.213778 
L 142.249724 303.506119 
L 145.511602 313.759935 
L 148.773481 324.964906 
L 152.035359 337.101767 
L 155.297238 350.140695 
L 158.559116 364.039724 
L 161.820994 378.743187 
L 166.713812 402.147025 
L 171.60663 426.885334 
L 178.130387 461.219514 
L 186.285083 504.390003 
L 191.177901 529.033788 
L 194.439779 544.282965 
L 197.701657 558.10563 
L 199.332597 564.329001 
L 200.963536 570.004364 
L 202.594475 575.063177 
L 204.225414 579.440197 
L 205.856354 583.079163 
L 207.487293 585.939708 
L 209.118232 588.004349 
L 210.749171 589.283799 
L 212.38011 589.818811 
L 214.01105 589.677643 
L 215.641989 588.949676 
L 217.272928 587.736906 
L 218.903867 586.145396 
L 220.534807 584.27827 
L 223.796685 580.088331 
L 228.689503 573.77031 
L 231.951381 570.149156 
L 233.58232 568.619453 
L 235.21326 567.306311 
L 236.844199 566.224505 
L 238.475138 565.383884 
L 240.106077 564.789951 
L 241.737017 564.444345 
L 243.367956 564.345256 
L 244.998895 564.487783 
L 246.629834 564.864246 
L 248.260773 565.464466 
L 249.891713 566.276023 
L 251.522652 567.284498 
L 253.153591 568.473716 
L 256.41547 571.322278 
L 259.677348 574.666195 
L 264.570166 580.243101 
L 271.093923 587.855875 
L 274.355801 591.416546 
L 277.61768 594.681879 
L 280.879558 597.609363 
L 284.141436 600.206033 
L 287.403315 602.523996 
L 292.296133 605.670534 
L 298.81989 609.780478 
L 303.712707 613.151559 
L 308.605525 616.871655 
L 316.760221 623.293412 
L 320.022099 625.519211 
L 321.653039 626.455967 
L 323.283978 627.237272 
L 324.914917 627.836308 
L 326.545856 628.229874 
L 328.176796 628.400346 
L 329.807735 628.337322 
L 331.438674 628.03864 
L 333.069613 627.51053 
L 334.700552 626.766889 
L 336.331492 625.827848 
L 337.962431 624.717966 
L 341.224309 622.095125 
L 344.486188 619.119003 
L 354.271823 609.920472 
L 357.533702 607.204578 
L 360.79558 604.8023 
L 364.057459 602.757541 
L 367.319337 601.094833 
L 370.581215 599.823616 
L 373.843094 598.942044 
L 377.104972 598.440309 
L 380.366851 598.303424 
L 383.628729 598.513407 
L 386.890608 599.050806 
L 390.152486 599.895525 
L 393.414365 601.026975 
L 396.676243 602.423602 
L 399.938122 604.061896 
L 403.2 605.915021 
L 408.092818 609.026302 
L 414.616575 613.571134 
L 421.140331 618.152018 
L 424.40221 620.276421 
L 427.664088 622.180945 
L 430.925967 623.783382 
L 434.187845 625.010941 
L 437.449724 625.810333 
L 439.080663 626.040482 
L 440.711602 626.156961 
L 443.973481 626.059884 
L 447.235359 625.560308 
L 450.497238 624.723977 
L 453.759116 623.630307 
L 458.651934 621.68638 
L 470.068508 616.924042 
L 474.961326 615.161112 
L 479.854144 613.683961 
L 484.746961 612.52036 
L 489.639779 611.672917 
L 494.532597 611.129577 
L 499.425414 610.871605 
L 504.318232 610.878794 
L 509.21105 611.132033 
L 514.103867 611.613603 
L 518.996685 612.305823 
L 523.889503 613.188725 
L 530.41326 614.618584 
L 538.567956 616.695367 
L 553.246409 620.535062 
L 558.139227 621.604385 
L 563.032044 622.456759 
L 567.924862 623.034201 
L 572.81768 623.293572 
L 576.079558 623.277415 
L 579.341436 623.107773 
L 584.234254 622.573361 
L 589.127072 621.728237 
L 594.01989 620.61451 
L 598.912707 619.283518 
L 605.436464 617.265325 
L 615.222099 613.964411 
L 628.269613 609.570743 
L 636.424309 607.051702 
L 642.948066 605.230644 
L 649.471823 603.608618 
L 655.99558 602.199242 
L 662.519337 601.00895 
L 669.043094 600.039376 
L 675.566851 599.289322 
L 682.090608 598.75631 
L 688.614365 598.43776 
L 695.138122 598.331802 
L 695.138122 598.331802 
" style="fill:none;stroke:#fdbf6f;stroke-linecap:square;stroke-width:2;"/>
   </g>
   <g id="line2d_32">
    <path clip-path="url(#p7a44a228ed)" d="M 108 174.32166 
L 117.785635 174.418803 
L 121.047514 174.721109 
L 122.678453 174.999417 
L 124.309392 175.393758 
L 125.940331 175.930318 
L 127.571271 176.637205 
L 129.20221 177.544198 
L 130.833149 178.682471 
L 132.464088 180.084292 
L 134.095028 181.782707 
L 135.725967 183.811186 
L 137.356906 186.203262 
L 138.987845 188.992147 
L 140.618785 192.21032 
L 142.249724 195.889113 
L 143.880663 200.05827 
L 145.511602 204.745505 
L 147.142541 209.976042 
L 148.773481 215.772157 
L 150.40442 222.152716 
L 152.035359 229.132716 
L 153.666298 236.722836 
L 155.297238 244.928996 
L 156.928177 253.751941 
L 160.190055 273.222946 
L 163.451934 295.024084 
L 166.713812 318.939219 
L 169.975691 344.641442 
L 174.868508 385.553427 
L 183.023204 454.963667 
L 186.285083 481.055723 
L 189.546961 505.07726 
L 192.80884 526.416032 
L 194.439779 535.955273 
L 196.070718 544.721099 
L 197.701657 552.7349 
L 199.332597 560.049873 
L 200.963536 566.750183 
L 204.225414 578.77041 
L 212.38011 606.966974 
L 215.641989 619.488313 
L 218.903867 632.286461 
L 220.534807 637.844904 
L 222.165746 641.520434 
L 223.796685 641.830378 
L 225.427624 638.300799 
L 227.058564 631.999607 
L 228.689503 624.172837 
L 236.844199 581.190413 
L 238.475138 573.600468 
L 240.106077 566.721133 
L 241.737017 560.673089 
L 243.367956 555.561954 
L 244.998895 551.477905 
L 246.629834 548.494898 
L 248.260773 546.66978 
L 249.891713 546.041456 
L 251.522652 546.630197 
L 253.153591 548.437158 
L 254.78453 551.444094 
L 256.41547 555.613281 
L 258.046409 560.887553 
L 259.677348 567.190329 
L 261.308287 574.425357 
L 262.939227 582.475653 
L 266.201105 600.428656 
L 271.093923 628.410318 
L 272.724862 635.978153 
L 274.355801 640.503075 
L 275.98674 640.224577 
L 277.61768 635.510086 
L 279.248619 628.385178 
L 284.141436 604.353828 
L 285.772376 596.996221 
L 287.403315 590.291372 
L 289.034254 584.336739 
L 290.665193 579.199428 
L 292.296133 574.925076 
L 293.927072 571.543029 
L 295.558011 569.069732 
L 297.18895 567.51116 
L 298.81989 566.864646 
L 300.450829 567.120245 
L 302.081768 568.261674 
L 303.712707 570.266816 
L 305.343646 573.107753 
L 306.974586 576.750289 
L 308.605525 581.152868 
L 310.236464 586.26474 
L 311.867403 592.023081 
L 313.498343 598.34842 
L 316.760221 612.247448 
L 320.022099 626.498069 
L 321.653039 632.783444 
L 323.283978 637.441135 
L 324.914917 639.290658 
L 326.545856 637.667975 
L 328.176796 633.20129 
L 329.807735 627.095992 
L 334.700552 606.687986 
L 336.331492 600.504376 
L 337.962431 594.997934 
L 339.59337 590.309925 
L 341.224309 586.551334 
L 342.855249 583.807999 
L 344.486188 582.142859 
L 346.117127 581.596851 
L 347.748066 582.189199 
L 349.379006 583.917458 
L 351.009945 586.757458 
L 352.640884 590.663104 
L 354.271823 595.565829 
L 355.902762 601.373159 
L 357.533702 607.965193 
L 360.79558 622.824583 
L 364.057459 637.837967 
L 365.688398 643.527914 
L 367.319337 645.658135 
L 368.950276 643.030953 
L 370.581215 637.144611 
L 377.104972 608.108178 
L 378.735912 601.932353 
L 380.366851 596.60147 
L 381.99779 592.231614 
L 383.628729 588.913182 
L 385.259669 586.714149 
L 386.890608 585.681336 
L 388.521547 585.840739 
L 390.152486 587.197412 
L 391.783425 589.735087 
L 393.414365 593.41556 
L 395.045304 598.177657 
L 396.676243 603.935268 
L 398.307182 610.573181 
L 401.569061 625.811747 
L 404.830939 641.384353 
L 406.461878 646.846152 
L 408.092818 647.446157 
L 409.723757 642.67065 
L 411.354696 635.221706 
L 416.247514 610.819281 
L 417.878453 603.6009 
L 419.509392 597.219345 
L 421.140331 591.817671 
L 422.771271 587.508093 
L 424.40221 584.375933 
L 426.033149 582.480983 
L 427.664088 581.85788 
L 429.295028 582.516161 
L 430.925967 584.440256 
L 432.556906 587.589478 
L 434.187845 591.897879 
L 435.818785 597.273586 
L 437.449724 603.596749 
L 439.080663 610.714142 
L 445.60442 641.185753 
L 447.235359 645.246906 
L 448.866298 644.435984 
L 450.497238 639.299519 
L 452.128177 632.091092 
L 457.020994 609.061608 
L 458.651934 602.308291 
L 460.282873 596.344183 
L 461.913812 591.282359 
L 463.544751 587.205298 
L 465.175691 584.170274 
L 466.80663 582.21219 
L 468.437569 581.345312 
L 470.068508 581.564537 
L 471.699448 582.846485 
L 473.330387 585.150493 
L 474.961326 588.419514 
L 476.592265 592.58081 
L 478.223204 597.546202 
L 479.854144 603.211416 
L 483.116022 616.125022 
L 488.00884 636.400945 
L 489.639779 641.720917 
L 491.270718 644.709794 
L 492.901657 644.266379 
L 494.532597 640.719524 
L 496.163536 635.409844 
L 502.687293 611.68696 
L 504.318232 606.60145 
L 505.949171 602.104043 
L 507.58011 598.256637 
L 509.21105 595.102984 
L 510.841989 592.672307 
L 512.472928 590.981485 
L 514.103867 590.036502 
L 515.734807 589.833537 
L 517.365746 590.359843 
L 518.996685 591.594526 
L 520.627624 593.50924 
L 522.258564 596.068826 
L 523.889503 599.231865 
L 525.520442 602.95112 
L 527.151381 607.17377 
L 528.78232 611.841299 
L 532.044199 622.242609 
L 538.567956 644.432993 
L 540.198895 648.85154 
L 541.829834 651.291579 
L 543.460773 650.611592 
L 545.091713 647.253063 
L 546.722652 642.541331 
L 554.877348 616.664629 
L 556.508287 612.094285 
L 558.139227 607.862333 
L 559.770166 603.998375 
L 561.401105 600.525272 
L 563.032044 597.460348 
L 564.662983 594.816148 
L 566.293923 592.60095 
L 567.924862 590.819162 
L 569.555801 589.471629 
L 571.18674 588.555914 
L 572.81768 588.06655 
L 574.448619 587.995272 
L 576.079558 588.331251 
L 577.710497 589.061303 
L 579.341436 590.170101 
L 580.972376 591.640368 
L 582.603315 593.453055 
L 584.234254 595.5875 
L 585.865193 598.021556 
L 587.496133 600.731682 
L 590.758011 606.879119 
L 594.01989 613.812572 
L 598.912707 625.124509 
L 603.805525 636.434828 
L 605.436464 639.843242 
L 607.067403 642.831139 
L 608.698343 645.165531 
L 610.329282 646.567068 
L 611.960221 646.809388 
L 613.59116 645.864466 
L 615.222099 643.9281 
L 616.853039 641.287697 
L 618.483978 638.197318 
L 621.745856 631.338303 
L 629.900552 613.757983 
L 633.162431 607.217747 
L 636.424309 601.111884 
L 639.686188 595.480457 
L 642.948066 590.340553 
L 646.209945 585.693445 
L 649.471823 581.529084 
L 652.733702 577.829229 
L 655.99558 574.569839 
L 659.257459 571.722987 
L 662.519337 569.258449 
L 665.781215 567.145039 
L 669.043094 565.351733 
L 672.304972 563.848624 
L 675.566851 562.607708 
L 678.828729 561.603547 
L 682.090608 560.813801 
L 685.352486 560.219654 
L 688.614365 559.80615 
L 691.876243 559.562435 
L 695.138122 559.481931 
L 695.138122 559.481931 
" style="fill:none;stroke:#bfe5a0;stroke-linecap:square;stroke-width:2;"/>
   </g>
   <g id="line2d_33">
    <path clip-path="url(#p7a44a228ed)" d="M 108 160.103137 
L 109.630939 159.930972 
L 111.261878 159.418638 
L 112.892818 158.578598 
L 114.523757 157.431549 
L 116.154696 156.00631 
L 117.785635 154.339665 
L 121.047514 150.467764 
L 127.571271 142.267483 
L 129.20221 140.550028 
L 130.833149 139.133595 
L 132.464088 138.109293 
L 134.095028 137.570938 
L 135.725967 137.614047 
L 137.356906 138.334741 
L 138.987845 139.828546 
L 140.618785 142.189105 
L 142.249724 145.506791 
L 143.880663 149.867253 
L 145.511602 155.349883 
L 147.142541 162.026236 
L 148.773481 169.95841 
L 150.40442 179.197424 
L 152.035359 189.781592 
L 153.666298 201.734952 
L 155.297238 215.065759 
L 156.928177 229.765078 
L 158.559116 245.805525 
L 160.190055 263.140167 
L 163.451934 301.401411 
L 166.713812 343.75405 
L 171.60663 412.363885 
L 176.499448 482.218672 
L 179.761326 525.990416 
L 181.392265 546.017969 
L 183.023204 564.202103 
L 184.654144 579.945346 
L 186.285083 592.508736 
L 187.916022 601.109604 
L 189.546961 605.277598 
L 191.177901 605.329071 
L 192.80884 602.365486 
L 194.439779 597.692626 
L 199.332597 581.671318 
L 202.594475 572.15769 
L 207.487293 559.090796 
L 210.749171 550.555983 
L 212.38011 546.534603 
L 214.01105 542.929151 
L 215.641989 539.994505 
L 217.272928 538.013575 
L 218.903867 537.275505 
L 220.534807 538.055426 
L 222.165746 540.596804 
L 223.796685 545.09671 
L 225.427624 551.694017 
L 227.058564 560.460433 
L 228.689503 571.394259 
L 230.320442 584.416798 
L 231.951381 599.371259 
L 233.58232 616.023629 
L 236.844199 653.044213 
L 238.475138 654.950899 
L 243.367956 597.087153 
L 244.998895 579.769166 
L 246.629834 564.280994 
L 248.260773 551.070625 
L 249.891713 540.533266 
L 251.522652 532.996974 
L 253.153591 528.70993 
L 254.78453 527.830023 
L 256.41547 530.417237 
L 258.046409 536.42916 
L 259.677348 545.719777 
L 261.308287 558.04138 
L 262.939227 573.048858 
L 264.570166 590.303915 
L 267.832044 629.24406 
L 269.462983 648.629097 
L 271.093923 651.66189 
L 275.98674 596.99629 
L 277.61768 581.462838 
L 279.248619 568.464703 
L 280.879558 558.363322 
L 282.510497 551.417925 
L 284.141436 547.786194 
L 285.772376 547.523705 
L 287.403315 550.584802 
L 289.034254 556.825341 
L 290.665193 566.00677 
L 292.296133 577.800018 
L 293.927072 591.785119 
L 297.18895 624.015007 
L 298.81989 640.069158 
L 300.450829 649.482427 
L 302.081768 641.163443 
L 305.343646 610.99725 
L 306.974586 597.316413 
L 308.605525 585.775381 
L 310.236464 576.846918 
L 311.867403 570.87507 
L 313.498343 568.093199 
L 315.129282 568.623621 
L 316.760221 572.473156 
L 318.39116 579.528919 
L 320.022099 589.555434 
L 321.653039 602.191359 
L 323.283978 616.935617 
L 326.545856 648.897679 
L 328.176796 652.529729 
L 329.807735 637.9997 
L 331.438674 621.888406 
L 333.069613 607.016808 
L 334.700552 594.29006 
L 336.331492 584.319805 
L 337.962431 577.561167 
L 339.59337 574.324239 
L 341.224309 574.767528 
L 342.855249 578.891015 
L 344.486188 586.532874 
L 346.117127 597.369431 
L 347.748066 610.912092 
L 351.009945 642.839857 
L 352.640884 654.062864 
L 354.271823 643.492891 
L 357.533702 611.412982 
L 359.164641 597.717555 
L 360.79558 586.739118 
L 362.426519 579.004389 
L 364.057459 574.873823 
L 365.688398 574.540781 
L 367.319337 578.026447 
L 368.950276 585.176985 
L 370.581215 595.662119 
L 372.212155 608.965762 
L 375.474033 640.318483 
L 377.104972 651.025081 
L 378.735912 642.341042 
L 381.99779 610.552244 
L 383.628729 596.630789 
L 385.259669 585.430932 
L 386.890608 577.542561 
L 388.521547 573.366293 
L 390.152486 573.120655 
L 391.783425 576.838355 
L 393.414365 584.363138 
L 395.045304 595.347823 
L 396.676243 609.243739 
L 399.938122 641.715739 
L 401.569061 651.274194 
L 403.2 640.282888 
L 406.461878 607.562559 
L 408.092818 593.687143 
L 409.723757 582.795691 
L 411.354696 575.460568 
L 412.985635 572.052137 
L 414.616575 572.742865 
L 416.247514 577.505433 
L 417.878453 586.114119 
L 419.509392 598.149485 
L 421.140331 612.996411 
L 424.40221 646.724847 
L 426.033149 652.426332 
L 427.664088 637.5492 
L 429.295028 620.537472 
L 430.925967 604.982246 
L 432.556906 591.940093 
L 434.187845 582.080535 
L 435.818785 575.861362 
L 437.449724 573.549391 
L 439.080663 575.221663 
L 440.711602 580.767824 
L 442.342541 589.897684 
L 443.973481 602.152674 
L 445.60442 616.912417 
L 448.866298 649.819891 
L 450.497238 653.380318 
L 455.390055 607.38014 
L 457.020994 595.238785 
L 458.651934 586.042675 
L 460.282873 580.156893 
L 461.913812 577.785884 
L 463.544751 578.975841 
L 465.175691 583.619156 
L 466.80663 591.463094 
L 468.437569 602.121671 
L 470.068508 615.085787 
L 473.330387 645.016988 
L 474.961326 656.286973 
L 476.592265 646.623344 
L 479.854144 617.810291 
L 481.485083 605.531186 
L 483.116022 595.508815 
L 484.746961 588.107252 
L 486.377901 583.56427 
L 488.00884 581.997511 
L 489.639779 583.407833 
L 491.270718 587.684426 
L 492.901657 594.612228 
L 494.532597 603.880435 
L 496.163536 615.087879 
L 501.056354 652.990103 
L 502.687293 651.926032 
L 507.58011 614.900765 
L 509.21105 604.422165 
L 510.841989 595.812613 
L 512.472928 589.328649 
L 514.103867 585.138385 
L 515.734807 583.327674 
L 517.365746 583.90372 
L 518.996685 586.799028 
L 520.627624 591.87618 
L 522.258564 598.932851 
L 523.889503 607.705154 
L 525.520442 617.863706 
L 528.78232 640.380783 
L 530.41326 650.171198 
L 532.044199 651.349687 
L 533.675138 642.482594 
L 536.937017 620.338366 
L 538.567956 610.155721 
L 540.198895 601.161962 
L 541.829834 593.598392 
L 543.460773 587.635227 
L 545.091713 583.386507 
L 546.722652 580.916089 
L 548.353591 580.241224 
L 549.98453 581.335672 
L 551.61547 584.132913 
L 553.246409 588.529514 
L 554.877348 594.388354 
L 556.508287 601.541054 
L 558.139227 609.787973 
L 561.401105 628.548448 
L 563.032044 638.287661 
L 564.662983 647.023594 
L 566.293923 651.323427 
L 567.924862 647.175477 
L 569.555801 638.6377 
L 572.81768 619.795954 
L 574.448619 610.946781 
L 576.079558 602.838071 
L 577.710497 595.617966 
L 579.341436 589.391484 
L 580.972376 584.232439 
L 582.603315 580.188841 
L 584.234254 577.285995 
L 585.865193 575.528762 
L 587.496133 574.903525 
L 589.127072 575.380091 
L 590.758011 576.913593 
L 592.38895 579.446415 
L 594.01989 582.91011 
L 595.650829 587.227294 
L 597.281768 592.313463 
L 598.912707 598.078677 
L 600.543646 604.429032 
L 603.805525 618.495631 
L 610.329282 648.946931 
L 611.960221 655.480425 
L 613.59116 657.215024 
L 615.222099 652.113651 
L 621.745856 624.931133 
L 625.007735 612.860953 
L 626.638674 607.408887 
L 628.269613 602.370195 
L 629.900552 597.754169 
L 631.531492 593.564274 
L 633.162431 589.798966 
L 634.79337 586.452373 
L 636.424309 583.514877 
L 638.055249 580.973647 
L 639.686188 578.813136 
L 641.317127 577.015545 
L 642.948066 575.561249 
L 644.579006 574.429202 
L 646.209945 573.597304 
L 647.840884 573.042733 
L 649.471823 572.742255 
L 651.102762 572.672492 
L 652.733702 572.810165 
L 654.364641 573.132302 
L 655.99558 573.616421 
L 657.626519 574.240681 
L 660.888398 575.826207 
L 664.150276 577.73122 
L 670.674033 581.950376 
L 675.566851 585.025289 
L 678.828729 586.863294 
L 682.090608 588.45188 
L 685.352486 589.738811 
L 688.614365 590.684958 
L 691.876243 591.263231 
L 695.138122 591.457734 
L 695.138122 591.457734 
" style="fill:none;stroke:#5e4fa2;stroke-linecap:square;stroke-width:2;"/>
   </g>
   <g id="line2d_34">
    <path clip-path="url(#p7a44a228ed)" d="M 108 166.349663 
L 109.630939 166.466077 
L 111.261878 166.815468 
L 112.892818 167.398285 
L 114.523757 168.215266 
L 116.154696 169.267433 
L 117.785635 170.556076 
L 119.416575 172.082736 
L 121.047514 173.849181 
L 122.678453 175.857388 
L 124.309392 178.109504 
L 125.940331 180.607821 
L 127.571271 183.354739 
L 129.20221 186.352723 
L 130.833149 189.60426 
L 134.095028 196.877788 
L 137.356906 205.193863 
L 140.618785 214.56812 
L 143.880663 225.011399 
L 147.142541 236.527703 
L 150.40442 249.112054 
L 153.666298 262.74824 
L 156.928177 277.406507 
L 160.190055 293.041189 
L 163.451934 309.58828 
L 168.344751 335.927757 
L 173.237569 363.735478 
L 181.392265 411.831042 
L 187.916022 449.798365 
L 191.177901 467.76723 
L 194.439779 484.541616 
L 197.701657 499.673525 
L 199.332597 506.475717 
L 200.963536 512.69047 
L 202.594475 518.263156 
L 204.225414 523.145869 
L 205.856354 527.300793 
L 207.487293 530.703625 
L 209.118232 533.346567 
L 210.749171 535.240347 
L 212.38011 536.414813 
L 214.01105 536.917891 
L 215.641989 536.813009 
L 217.272928 536.1754 
L 218.903867 535.087872 
L 220.534807 533.636627 
L 222.165746 531.907588 
L 225.427624 527.941771 
L 230.320442 521.783289 
L 233.58232 518.193608 
L 235.21326 516.679367 
L 236.844199 515.392967 
L 238.475138 514.357833 
L 240.106077 513.592244 
L 241.737017 513.109777 
L 243.367956 512.919733 
L 244.998895 513.027522 
L 246.629834 513.435019 
L 248.260773 514.140896 
L 249.891713 515.140933 
L 251.522652 516.428304 
L 253.153591 517.993859 
L 254.78453 519.826383 
L 256.41547 521.912859 
L 258.046409 524.238719 
L 259.677348 526.788087 
L 262.939227 532.488789 
L 266.201105 538.871118 
L 269.462983 545.785826 
L 274.355801 556.836635 
L 295.558011 605.972119 
L 318.39116 657.018898 
L 320.022099 660.767089 
L 321.653039 663.26281 
L 324.914917 655.871323 
L 334.700552 633.277713 
L 339.59337 622.471558 
L 344.486188 612.270164 
L 347.748066 605.893571 
L 351.009945 599.906408 
L 354.271823 594.341098 
L 357.533702 589.220931 
L 360.79558 584.561019 
L 364.057459 580.369895 
L 367.319337 576.651561 
L 370.581215 573.407736 
L 373.843094 570.64005 
L 377.104972 568.351942 
L 380.366851 566.550038 
L 381.99779 565.834549 
L 383.628729 565.244879 
L 385.259669 564.782957 
L 386.890608 564.45092 
L 388.521547 564.251074 
L 390.152486 564.185847 
L 391.783425 564.257743 
L 393.414365 564.469279 
L 395.045304 564.822927 
L 396.676243 565.32105 
L 398.307182 565.965836 
L 399.938122 566.759236 
L 401.569061 567.702904 
L 403.2 568.798137 
L 404.830939 570.045823 
L 406.461878 571.446394 
L 409.723757 574.70539 
L 412.985635 578.568041 
L 416.247514 583.018044 
L 419.509392 588.029593 
L 422.771271 593.567573 
L 426.033149 599.588154 
L 429.295028 606.039756 
L 434.187845 616.396776 
L 439.080663 627.375504 
L 447.235359 646.421888 
L 452.128177 657.861602 
L 453.759116 661.455464 
L 455.390055 662.023893 
L 458.651934 654.962676 
L 463.544751 644.214359 
L 468.437569 634.009657 
L 473.330387 624.494571 
L 476.592265 618.580627 
L 479.854144 613.033076 
L 483.116022 607.865221 
L 486.377901 603.085431 
L 489.639779 598.697685 
L 492.901657 594.702101 
L 496.163536 591.095453 
L 499.425414 587.871653 
L 502.687293 585.022203 
L 505.949171 582.536617 
L 509.21105 580.402789 
L 512.472928 578.60734 
L 515.734807 577.135921 
L 518.996685 575.97349 
L 522.258564 575.104553 
L 525.520442 574.513396 
L 528.78232 574.184272 
L 532.044199 574.101588 
L 535.306077 574.250049 
L 538.567956 574.614792 
L 541.829834 575.18149 
L 545.091713 575.936423 
L 548.353591 576.866537 
L 553.246409 578.563286 
L 558.139227 580.587569 
L 563.032044 582.90359 
L 567.924862 585.478203 
L 572.81768 588.280279 
L 579.341436 592.318781 
L 585.865193 596.639506 
L 594.01989 602.331067 
L 608.698343 612.960009 
L 620.114917 621.100151 
L 626.638674 625.522554 
L 633.162431 629.682417 
L 638.055249 632.586334 
L 642.948066 635.273733 
L 647.840884 637.719669 
L 652.733702 639.903535 
L 657.626519 641.81057 
L 662.519337 643.433486 
L 667.412155 644.773813 
L 672.304972 645.842315 
L 677.19779 646.657854 
L 682.090608 647.244438 
L 686.983425 647.626837 
L 691.876243 647.825768 
L 695.138122 647.863078 
L 695.138122 647.863078 
" style="fill:none;stroke:#fdbf6f;stroke-dasharray:7.4,3.2;stroke-dashoffset:0;stroke-width:2;"/>
   </g>
   <g id="line2d_35">
    <path clip-path="url(#p7a44a228ed)" d="M 108 166.349663 
L 109.630939 166.272538 
L 111.261878 166.04305 
L 112.892818 165.666844 
L 114.523757 165.153297 
L 117.785635 163.770009 
L 121.047514 162.040296 
L 127.571271 158.395254 
L 129.20221 157.639503 
L 130.833149 157.022472 
L 132.464088 156.585886 
L 134.095028 156.372917 
L 135.725967 156.427814 
L 137.356906 156.795489 
L 138.987845 157.521086 
L 140.618785 158.649516 
L 142.249724 160.224967 
L 143.880663 162.290395 
L 145.511602 164.886987 
L 147.142541 168.053618 
L 148.773481 171.826286 
L 150.40442 176.237542 
L 152.035359 181.315916 
L 153.666298 187.085351 
L 155.297238 193.564635 
L 156.928177 200.766859 
L 158.559116 208.69889 
L 160.190055 217.36088 
L 161.820994 226.745809 
L 165.082873 247.618182 
L 168.344751 271.102571 
L 171.60663 296.851898 
L 174.868508 324.384157 
L 181.392265 382.248235 
L 186.285083 425.090908 
L 189.546961 451.887094 
L 192.80884 476.467132 
L 196.070718 498.409356 
L 199.332597 517.674389 
L 202.594475 534.681881 
L 207.487293 557.86157 
L 210.749171 573.335694 
L 214.01105 589.967069 
L 217.272928 608.347816 
L 220.534807 628.434774 
L 222.165746 638.665944 
L 223.796685 647.784377 
L 225.427624 651.310873 
L 227.058564 644.96561 
L 228.689503 634.252314 
L 238.475138 563.303843 
L 240.106077 553.059847 
L 241.737017 543.699619 
L 243.367956 535.353818 
L 244.998895 528.140177 
L 246.629834 522.161865 
L 248.260773 517.505886 
L 249.891713 514.241643 
L 251.522652 512.419764 
L 253.153591 512.071231 
L 254.78453 513.206856 
L 256.41547 515.817131 
L 258.046409 519.872443 
L 259.677348 525.323668 
L 261.308287 532.103133 
L 262.939227 540.125908 
L 264.570166 549.291411 
L 266.201105 559.485261 
L 267.832044 570.581347 
L 271.093923 594.930144 
L 275.98674 634.617416 
L 277.61768 648.020217 
L 279.248619 660.313441 
L 280.879558 652.838659 
L 284.141436 627.980443 
L 287.403315 605.296427 
L 289.034254 595.087924 
L 290.665193 585.752194 
L 292.296133 577.362993 
L 293.927072 569.984491 
L 295.558011 563.672014 
L 297.18895 558.472597 
L 298.81989 554.425373 
L 300.450829 551.56178 
L 302.081768 549.905559 
L 303.712707 549.47252 
L 305.343646 550.270079 
L 306.974586 552.2966 
L 308.605525 555.540562 
L 310.236464 559.979629 
L 311.867403 565.579685 
L 313.498343 572.293914 
L 315.129282 580.06202 
L 316.760221 588.809645 
L 318.39116 598.448076 
L 321.653039 619.971394 
L 324.914917 643.646705 
L 326.545856 655.931303 
L 328.176796 659.803649 
L 331.438674 635.462662 
L 334.700552 612.781587 
L 336.331492 602.474175 
L 337.962431 593.060565 
L 339.59337 584.680745 
L 341.224309 577.460432 
L 342.855249 571.508678 
L 344.486188 566.915803 
L 346.117127 563.751705 
L 347.748066 562.064562 
L 349.379006 561.879984 
L 351.009945 563.200581 
L 352.640884 566.005969 
L 354.271823 570.25319 
L 355.902762 575.877499 
L 357.533702 582.793502 
L 359.164641 590.896559 
L 360.79558 600.064389 
L 362.426519 610.158701 
L 365.688398 632.499265 
L 368.950276 656.313837 
L 370.581215 658.34084 
L 375.474033 623.212794 
L 377.104972 612.333769 
L 378.735912 602.227233 
L 380.366851 593.049126 
L 381.99779 584.941131 
L 383.628729 578.029669 
L 385.259669 572.424323 
L 386.890608 568.216196 
L 388.521547 565.476344 
L 390.152486 564.254395 
L 391.783425 564.577387 
L 393.414365 566.44889 
L 395.045304 569.84845 
L 396.676243 574.731394 
L 398.307182 581.029025 
L 399.938122 588.649241 
L 401.569061 597.477578 
L 403.2 607.378698 
L 404.830939 618.198292 
L 408.092818 641.894813 
L 409.723757 654.388903 
L 411.354696 661.030466 
L 414.616575 636.062222 
L 417.878453 612.889117 
L 419.509392 602.466179 
L 421.140331 593.053204 
L 422.771271 584.804885 
L 424.40221 577.855711 
L 426.033149 572.317539 
L 427.664088 568.277615 
L 429.295028 565.797091 
L 430.925967 564.910059 
L 432.556906 565.623134 
L 434.187845 567.915572 
L 435.818785 571.739922 
L 437.449724 577.023191 
L 439.080663 583.668474 
L 440.711602 591.55701 
L 442.342541 600.55059 
L 443.973481 610.494219 
L 447.235359 632.543688 
L 450.497238 656.165697 
L 452.128177 659.488141 
L 457.020994 625.244262 
L 458.651934 614.855051 
L 460.282873 605.268391 
L 461.913812 596.616299 
L 463.544751 589.012757 
L 465.175691 582.552833 
L 466.80663 577.311917 
L 468.437569 573.345254 
L 470.068508 570.687789 
L 471.699448 569.354356 
L 473.330387 569.340168 
L 474.961326 570.62161 
L 476.592265 573.157279 
L 478.223204 576.889266 
L 479.854144 581.744616 
L 481.485083 587.636942 
L 483.116022 594.468141 
L 484.746961 602.130144 
L 486.377901 610.506616 
L 489.639779 628.904147 
L 494.532597 658.205956 
L 496.163536 658.358581 
L 501.056354 630.141092 
L 504.318232 613.120424 
L 505.949171 605.519281 
L 507.58011 598.62398 
L 509.21105 592.494888 
L 510.841989 587.181296 
L 512.472928 582.721559 
L 514.103867 579.143262 
L 515.734807 576.46347 
L 517.365746 574.689068 
L 518.996685 573.817199 
L 520.627624 573.835777 
L 522.258564 574.724079 
L 523.889503 576.453405 
L 525.520442 578.987774 
L 527.151381 582.284668 
L 528.78232 586.295791 
L 530.41326 590.967842 
L 532.044199 596.243265 
L 533.675138 602.060987 
L 536.937017 615.065263 
L 540.198895 629.442201 
L 546.722652 659.030475 
L 548.353591 658.371302 
L 551.61547 644.066655 
L 554.877348 629.689223 
L 558.139227 616.359668 
L 561.401105 604.435027 
L 563.032044 599.079414 
L 564.662983 594.161069 
L 566.293923 589.699117 
L 567.924862 585.708546 
L 569.555801 582.200378 
L 571.18674 579.181841 
L 572.81768 576.656544 
L 574.448619 574.624672 
L 576.079558 573.083181 
L 577.710497 572.026014 
L 579.341436 571.444311 
L 580.972376 571.326643 
L 582.603315 571.659237 
L 584.234254 572.426207 
L 585.865193 573.609792 
L 587.496133 575.19058 
L 589.127072 577.14774 
L 590.758011 579.459244 
L 592.38895 582.102082 
L 594.01989 585.05247 
L 595.650829 588.286046 
L 598.912707 595.503509 
L 602.174586 603.554602 
L 605.436464 612.240104 
L 610.329282 626.028978 
L 618.483978 649.231952 
L 620.114917 653.423005 
L 621.745856 656.858743 
L 623.376796 658.181733 
L 625.007735 656.357788 
L 626.638674 652.931397 
L 636.424309 629.630781 
L 639.686188 622.578507 
L 642.948066 616.047908 
L 646.209945 610.057986 
L 649.471823 604.611499 
L 652.733702 599.700052 
L 655.99558 595.307195 
L 659.257459 591.410704 
L 662.519337 587.984449 
L 665.781215 584.999982 
L 669.043094 582.427907 
L 672.304972 580.239074 
L 675.566851 578.405591 
L 678.828729 576.901686 
L 682.090608 575.704425 
L 685.352486 574.794292 
L 688.614365 574.155653 
L 691.876243 573.777099 
L 695.138122 573.651691 
L 695.138122 573.651691 
" style="fill:none;stroke:#bfe5a0;stroke-dasharray:7.4,3.2;stroke-dashoffset:0;stroke-width:2;"/>
   </g>
   <g id="line2d_36">
    <path clip-path="url(#p7a44a228ed)" d="M 108 166.349663 
L 109.630939 166.07907 
L 111.261878 165.271763 
L 112.892818 163.941139 
L 114.523757 162.109485 
L 116.154696 159.80791 
L 117.785635 157.07624 
L 119.416575 153.96288 
L 121.047514 150.524622 
L 124.309392 142.940953 
L 130.833149 127.232006 
L 132.464088 123.743712 
L 134.095028 120.641056 
L 135.725967 118.035469 
L 137.356906 116.040335 
L 138.987845 114.769756 
L 140.618785 114.33719 
L 142.249724 114.853981 
L 143.880663 116.427781 
L 145.511602 119.160888 
L 147.142541 123.148495 
L 148.773481 128.47689 
L 150.40442 135.221617 
L 152.035359 143.445631 
L 153.666298 153.197474 
L 155.297238 164.509522 
L 156.928177 177.396315 
L 158.559116 191.853046 
L 160.190055 207.854232 
L 161.820994 225.352614 
L 163.451934 244.278354 
L 166.713812 286.01711 
L 169.975691 332.051357 
L 174.868508 406.074031 
L 179.761326 480.752833 
L 183.023204 527.499453 
L 184.654144 549.103236 
L 186.285083 569.077912 
L 187.916022 586.988359 
L 189.546961 602.228414 
L 191.177901 613.910434 
L 192.80884 620.919461 
L 194.439779 622.610968 
L 196.070718 619.776945 
L 197.701657 614.164099 
L 199.332597 607.222086 
L 202.594475 592.042498 
L 209.118232 560.312039 
L 212.38011 544.731327 
L 214.01105 537.608669 
L 215.641989 531.303781 
L 217.272928 526.131087 
L 218.903867 522.409801 
L 220.534807 520.445317 
L 222.165746 520.512095 
L 223.796685 522.838331 
L 225.427624 527.592442 
L 227.058564 534.871215 
L 228.689503 544.689092 
L 230.320442 556.96718 
L 231.951381 571.517956 
L 233.58232 588.013056 
L 236.844199 623.96015 
L 238.475138 638.512557 
L 240.106077 638.608644 
L 241.737017 623.614211 
L 246.629834 566.452493 
L 248.260773 549.954565 
L 249.891713 535.965126 
L 251.522652 524.959376 
L 253.153591 517.308624 
L 254.78453 513.28007 
L 256.41547 513.032206 
L 258.046409 516.610554 
L 259.677348 523.945655 
L 261.308287 534.854103 
L 262.939227 549.042793 
L 264.570166 566.115939 
L 266.201105 585.582997 
L 269.462983 629.221961 
L 271.093923 651.044394 
L 272.724862 649.614277 
L 275.98674 607.363599 
L 277.61768 588.19094 
L 279.248619 571.409552 
L 280.879558 557.500708 
L 282.510497 546.839465 
L 284.141436 539.697399 
L 285.772376 536.240115 
L 287.403315 536.525611 
L 289.034254 540.504847 
L 290.665193 548.024749 
L 292.296133 558.833525 
L 293.927072 572.588 
L 295.558011 588.862606 
L 297.18895 607.159272 
L 300.450829 647.477273 
L 302.081768 658.959218 
L 305.343646 619.500967 
L 306.974586 601.691703 
L 308.605525 586.099553 
L 310.236464 573.247125 
L 311.867403 563.576139 
L 313.498343 557.432312 
L 315.129282 555.050386 
L 316.760221 556.541463 
L 318.39116 561.883761 
L 320.022099 570.917716 
L 321.653039 583.346111 
L 323.283978 598.739731 
L 324.914917 616.548778 
L 328.176796 656.718911 
L 329.807735 650.550312 
L 333.069613 611.395035 
L 334.700552 594.64064 
L 336.331492 580.705681 
L 337.962431 570.167702 
L 339.59337 563.471131 
L 341.224309 560.905899 
L 342.855249 562.592515 
L 344.486188 568.474426 
L 346.117127 578.318167 
L 347.748066 591.721365 
L 349.379006 608.12819 
L 351.009945 626.850832 
L 352.640884 647.087932 
L 354.271823 659.842127 
L 357.533702 619.646005 
L 359.164641 601.938314 
L 360.79558 586.910975 
L 362.426519 575.208498 
L 364.057459 567.33353 
L 365.688398 563.625632 
L 367.319337 564.246445 
L 368.950276 569.172219 
L 370.581215 578.194031 
L 372.212155 590.925542 
L 373.843094 606.817365 
L 375.474033 625.174308 
L 377.104972 645.143749 
L 378.735912 660.485179 
L 381.99779 621.168372 
L 383.628729 603.277437 
L 385.259669 588.04577 
L 386.890608 576.164251 
L 388.521547 568.174428 
L 390.152486 564.446974 
L 391.783425 565.164426 
L 393.414365 570.311356 
L 395.045304 579.673066 
L 396.676243 592.843208 
L 398.307182 609.24019 
L 399.938122 628.131559 
L 401.569061 648.66216 
L 403.2 658.132588 
L 406.461878 617.371068 
L 408.092818 599.699503 
L 409.723757 584.960765 
L 411.354696 573.835359 
L 412.985635 566.837454 
L 414.616575 564.290251 
L 416.247514 566.310297 
L 417.878453 572.801673 
L 419.509392 583.460359 
L 421.140331 597.788481 
L 422.771271 615.11718 
L 426.033149 655.335761 
L 427.664088 651.27811 
L 429.295028 630.811987 
L 430.925967 611.848292 
L 432.556906 595.293353 
L 434.187845 581.891089 
L 435.818785 572.229595 
L 437.449724 566.719334 
L 439.080663 565.577226 
L 440.711602 568.819603 
L 442.342541 576.264556 
L 443.973481 587.543421 
L 445.60442 602.120515 
L 447.235359 619.319453 
L 450.497238 658.225618 
L 452.128177 649.406015 
L 453.759116 630.042731 
L 455.390055 612.216074 
L 457.020994 596.694204 
L 458.651934 584.107333 
L 460.282873 574.945519 
L 461.913812 569.543697 
L 463.544751 568.072173 
L 465.175691 570.534201 
L 466.80663 576.770715 
L 468.437569 586.471747 
L 470.068508 599.193749 
L 471.699448 614.381725 
L 474.961326 649.52731 
L 476.592265 659.90313 
L 479.854144 624.508112 
L 481.485083 608.909394 
L 483.116022 595.50086 
L 484.746961 584.74078 
L 486.377901 576.975965 
L 488.00884 572.43325 
L 489.639779 571.215659 
L 491.270718 573.303323 
L 492.901657 578.558843 
L 494.532597 586.736609 
L 496.163536 597.495293 
L 497.794475 610.412294 
L 499.425414 624.996964 
L 502.687293 656.52406 
L 504.318232 653.688014 
L 507.58011 623.042385 
L 509.21105 609.431884 
L 510.841989 597.615199 
L 512.472928 587.926403 
L 514.103867 580.617678 
L 515.734807 575.858557 
L 517.365746 573.735517 
L 518.996685 574.253554 
L 520.627624 577.33995 
L 522.258564 582.850048 
L 523.889503 590.574687 
L 525.520442 600.248767 
L 527.151381 611.560014 
L 528.78232 624.155446 
L 532.044199 651.414985 
L 533.675138 659.216767 
L 535.306077 646.930945 
L 538.567956 620.78498 
L 540.198895 609.153845 
L 541.829834 598.888891 
L 543.460773 590.205615 
L 545.091713 583.269077 
L 546.722652 578.195428 
L 548.353591 575.052814 
L 549.98453 573.862861 
L 551.61547 574.602984 
L 553.246409 577.209513 
L 554.877348 581.58153 
L 556.508287 587.585274 
L 558.139227 595.058962 
L 559.770166 603.817846 
L 561.401105 613.659288 
L 564.662983 635.716743 
L 567.924862 659.200052 
L 569.555801 656.327547 
L 572.81768 633.351454 
L 576.079558 612.521316 
L 577.710497 603.335471 
L 579.341436 595.131064 
L 580.972376 588.001242 
L 582.603315 582.016921 
L 584.234254 577.22725 
L 585.865193 573.660345 
L 587.496133 571.324344 
L 589.127072 570.20871 
L 590.758011 570.28576 
L 592.38895 571.512373 
L 594.01989 573.831808 
L 595.650829 577.175607 
L 597.281768 581.465514 
L 598.912707 586.615379 
L 600.543646 592.532993 
L 602.174586 599.121789 
L 605.436464 613.913492 
L 608.698343 630.175126 
L 613.59116 654.995565 
L 615.222099 659.324885 
L 616.853039 653.66559 
L 623.376796 623.074084 
L 626.638674 609.508433 
L 628.269613 603.34098 
L 629.900552 597.611198 
L 631.531492 592.330892 
L 633.162431 587.50596 
L 634.79337 583.137041 
L 636.424309 579.220106 
L 638.055249 575.746992 
L 639.686188 572.705921 
L 641.317127 570.081994 
L 642.948066 567.85766 
L 644.579006 566.013168 
L 646.209945 564.526986 
L 647.840884 563.376202 
L 649.471823 562.536885 
L 651.102762 561.984422 
L 652.733702 561.693826 
L 654.364641 561.640006 
L 655.99558 561.798008 
L 657.626519 562.143236 
L 659.257459 562.651626 
L 662.519337 564.065242 
L 665.781215 565.862414 
L 670.674033 568.931471 
L 677.19779 573.021908 
L 680.459669 574.825039 
L 683.721547 576.35722 
L 686.983425 577.557846 
L 690.245304 578.38247 
L 693.507182 578.801979 
L 695.138122 578.854753 
L 695.138122 578.854753 
" style="fill:none;stroke:#5e4fa2;stroke-dasharray:7.4,3.2;stroke-dashoffset:0;stroke-width:2;"/>
   </g>
   <g id="patch_3">
    <path d="M 108 720.9 
L 108 56.7 
" style="fill:none;stroke:#000000;stroke-linecap:square;stroke-linejoin:miter;stroke-width:0.8;"/>
   </g>
   <g id="patch_4">
    <path d="M 698.4 720.9 
L 698.4 56.7 
" style="fill:none;stroke:#000000;stroke-linecap:square;stroke-linejoin:miter;stroke-width:0.8;"/>
   </g>
   <g id="patch_5">
    <path d="M 108 720.9 
L 698.4 720.9 
" style="fill:none;stroke:#000000;stroke-linecap:square;stroke-linejoin:miter;stroke-width:0.8;"/>
   </g>
   <g id="patch_6">
    <path d="M 108 56.7 
L 698.4 56.7 
" style="fill:none;stroke:#000000;stroke-linecap:square;stroke-linejoin:miter;stroke-width:0.8;"/>
   </g>
   <g id="text_18">
    <!-- Scattering amplitudes for $ka=5.0$ -->
    <g transform="translate(266.614653 50.7)scale(0.2 -0.2)">
     <defs>
      <path d="M 43.703125 65.140625 
C 39.296875 67.71875 34.5 70 26.40625 70 
C 13.5 70 5.203125 60.609375 5.203125 51.03125 
C 5.203125 47.265625 6.296875 43.015625 10.203125 38.671875 
C 14.09375 34.3125 18.5 33.140625 24.09375 31.765625 
C 26.40625 31.15625 30.296875 30.0625 31 29.78125 
C 36.59375 27.609375 39.296875 22.5625 39.296875 17.8125 
C 39.296875 11.59375 34.40625 4.96875 25.703125 4.96875 
C 22.703125 4.96875 13.90625 4.96875 5.59375 12.796875 
L 4.203125 4.96875 
C 12.40625 -1 21.296875 -2 25.796875 -2 
C 38.09375 -2 46.90625 7.625 46.90625 18.53125 
C 46.90625 22.5 45.703125 27.546875 41.5 32.203125 
C 37.40625 36.671875 33.796875 37.65625 25.59375 39.828125 
C 20.90625 41.03125 17.90625 41.828125 15.40625 44.890625 
C 13.703125 47.078125 12.796875 49.15625 12.796875 51.828125 
C 12.796875 57.390625 17.59375 63.4375 26.40625 63.4375 
C 30.796875 63.4375 36.5 62.53125 42.296875 57.1875 
z
" id="CMSS17-83"/>
      <path d="M 38.5 39.703125 
C 38.5 40.390625 33.90625 42.40625 32.703125 42.796875 
C 29.40625 44 25.203125 44 24.09375 44 
C 11.09375 44 3.296875 32.703125 3.296875 21.296875 
C 3.296875 9.296875 12 -1 23.703125 -1 
C 30.40625 -1 35.203125 1.1875 39.09375 3.78125 
L 38.5 10.375 
C 34.203125 7.078125 29.203125 5.265625 23.796875 5.265625 
C 16 5.265625 10.90625 12.09375 10.90625 21.390625 
C 10.90625 28.609375 14.203125 37.71875 24.203125 37.71875 
C 29.703125 37.71875 32.796875 36.609375 37.40625 33.515625 
z
" id="CMSS17-99"/>
      <path d="M 37.59375 27.984375 
C 37.59375 37.375 30.90625 43.875 21.90625 43.875 
C 17.5 43.875 12.703125 43.078125 7.203125 39.890625 
L 7.796875 33.359375 
C 10.296875 35.125 14.59375 38 21.796875 38 
C 26.90625 38 30 34.0625 30 27.84375 
L 30 24 
C 14 24 4 19.34375 4 11.34375 
C 4 7.203125 6.5 -1 14.796875 -1 
C 16.296875 -1 24.40625 -1 30.203125 3.390625 
L 30.203125 -0.296875 
L 37.59375 -0.296875 
z
M 30 12.75 
C 30 10.953125 30 8.5625 27 6.78125 
C 24.40625 5.078125 21.09375 5.078125 19.703125 5.078125 
C 14.703125 5.078125 11.296875 7.984375 11.296875 11.625 
C 11.296875 18.921875 26.90625 18.921875 30 18.921875 
z
" id="CMSS17-97"/>
      <path d="M 16.703125 37 
L 29.703125 37 
L 29.703125 42.765625 
L 16.703125 42.765625 
L 16.703125 55 
L 9.59375 55 
L 9.59375 42.765625 
L 1.703125 42.765625 
L 1.703125 37 
L 9.40625 37 
L 9.40625 11.703125 
C 9.40625 6 10.703125 -1 17.296875 -1 
C 22.296875 -1 26.90625 0.390625 31.296875 2.6875 
L 29.703125 8.5625 
C 27.296875 6.46875 24.40625 5.265625 21.296875 5.265625 
C 16.90625 5.265625 16.703125 10.875 16.703125 13.375 
z
" id="CMSS17-116"/>
      <path d="M 39.09375 21.515625 
C 39.09375 24.84375 38.90625 31.296875 35.703125 36.640625 
C 32.203125 42.390625 26.5 44 22.203125 44 
C 11.796875 44 3 34.1875 3 21.484375 
C 3 9.09375 12.09375 -1 23.59375 -1 
C 28.09375 -1 33.59375 0.296875 38.59375 3.875 
C 38.59375 4.28125 38.40625 6.46875 38.296875 6.5625 
C 38.296875 6.765625 38 9.84375 38 10.25 
C 33.203125 6.359375 27.703125 5.078125 23.703125 5.078125 
C 17.296875 5.078125 10.40625 10.421875 10.09375 21.515625 
z
M 10.90625 27 
C 12.203125 32.5625 16.59375 37.828125 22.203125 37.828125 
C 23.703125 37.828125 30.703125 37.828125 32.5 27 
z
" id="CMSS17-101"/>
      <path d="M 14.90625 21.296875 
C 14.90625 30.703125 21.796875 37 30.59375 37 
L 30.59375 43.578125 
C 24.203125 43.578125 18.203125 40.390625 14.59375 35.203125 
L 14.59375 43.09375 
L 7.5 43.09375 
L 7.5 0 
L 14.90625 0 
z
" id="CMSS17-114"/>
      <path d="M 15.296875 65.359375 
L 6.90625 65.359375 
L 6.90625 57 
L 15.296875 57 
z
M 14.796875 42.796875 
L 7.40625 42.796875 
L 7.40625 0 
L 14.796875 0 
z
" id="CMSS17-105"/>
      <path d="M 40.90625 29.328125 
C 40.90625 35.671875 39.40625 44 28.09375 44 
C 21.703125 44 17.5 40.71875 14.703125 37.328125 
L 14.703125 43.09375 
L 7.40625 43.09375 
L 7.40625 0 
L 15 0 
L 15 24.359375 
C 15 30.6875 17.40625 37.9375 24.203125 37.9375 
C 33 37.9375 33.296875 32 33.296875 28.578125 
L 33.296875 0 
L 40.90625 0 
z
" id="CMSS17-110"/>
      <path d="M 44.5 43.875 
C 38.796875 43.875 33.90625 42.78125 29.90625 40.890625 
C 26.59375 43.390625 23.203125 43.875 20.90625 43.875 
C 12.203125 43.875 5.59375 36.703125 5.59375 28.34375 
C 5.59375 22.9375 8.59375 18.859375 8.796875 18.671875 
C 7 16.171875 6 13.484375 6 10.5 
C 6 7 7.40625 4.515625 8.5 3.125 
C 3.296875 -0.046875 2.59375 -4.90625 2.59375 -6.796875 
C 2.59375 -14.03125 11.703125 -20 23.40625 -20 
C 35.203125 -20 44.296875 -14.03125 44.296875 -6.6875 
C 44.296875 7 29 7 24.796875 7 
L 16.703125 7 
C 15.203125 7 11.203125 7 11.203125 12.359375 
C 11.203125 14.390625 12.09375 15.6875 12.203125 15.78125 
C 13.703125 14.6875 16.796875 13 20.90625 13 
C 29.203125 13 36.09375 19.96875 36.09375 28.546875 
C 36.09375 33.3125 33.90625 36.796875 33 38 
L 33.296875 38 
C 33.59375 38 37.796875 38 39.296875 38 
C 42.5 38 42.796875 37.953125 45.59375 37.796875 
z
M 20.90625 18.46875 
C 17.5 18.46875 12.703125 20.546875 12.703125 28.484375 
C 12.703125 37.109375 18.203125 38.5 20.796875 38.5 
C 24.203125 38.5 29 36.421875 29 28.484375 
C 29 19.859375 23.5 18.46875 20.90625 18.46875 
z
M 24.703125 -0.15625 
C 27.09375 -0.15625 37.203125 -0.15625 37.203125 -6.90625 
C 37.203125 -11.15625 31 -14.515625 23.5 -14.515625 
C 15.90625 -14.515625 9.703125 -11.25 9.703125 -6.796875 
C 9.703125 -6.296875 9.703125 -0.15625 16.59375 -0.15625 
z
" id="CMSS17-103"/>
      <path d="M 67 29.328125 
C 67 36.0625 65.296875 44 54.09375 44 
C 46.59375 44 42.09375 39.3125 40.09375 36.421875 
C 38.296875 41.71875 34.09375 44 28.09375 44 
C 21.296875 44 17 40.125 14.703125 37.328125 
L 14.703125 43.09375 
L 7.40625 43.09375 
L 7.40625 0 
L 15 0 
L 15 24.359375 
C 15 30.296875 17.203125 37.9375 24.296875 37.9375 
C 33.40625 37.9375 33.40625 31.5 33.40625 28.578125 
L 33.40625 0 
L 41 0 
L 41 24.359375 
C 41 30.296875 43.203125 37.9375 50.296875 37.9375 
C 59.40625 37.9375 59.40625 31.5 59.40625 28.578125 
L 59.40625 0 
L 67 0 
z
" id="CMSS17-109"/>
      <path d="M 15.09375 5.203125 
C 18.40625 2.015625 22.90625 -0.078125 27.703125 -0.078125 
C 37 -0.078125 45 9.421875 45 22.0625 
C 45 33.734375 39 44 30.40625 44 
C 25.40625 44 19.40625 42.21875 14.90625 38.625 
L 14.90625 43.203125 
L 7.5 43.203125 
L 7.5 -19 
L 15.09375 -19 
z
M 15.09375 32.8125 
C 15.90625 34 19.296875 37.734375 24.796875 37.734375 
C 31.796875 37.734375 37.40625 30.625 37.40625 22.0625 
C 37.40625 12.296875 30.59375 6 23.90625 6 
C 21.90625 6 19.796875 6.484375 17.796875 8.171875 
C 15.09375 10.53125 15.09375 12 15.09375 13.390625 
z
" id="CMSS17-112"/>
      <path d="M 14.796875 69 
L 7.40625 69 
L 7.40625 0 
L 14.796875 0 
z
" id="CMSS17-108"/>
      <path d="M 40.90625 42.796875 
L 33.296875 42.796875 
L 33.296875 15.1875 
C 33.296875 7.78125 27.90625 4.78125 22.203125 4.78125 
C 15.59375 4.78125 15 6.984375 15 11.078125 
L 15 42.796875 
L 7.40625 42.796875 
L 7.40625 10.59375 
C 7.40625 2.796875 10.09375 -1 17 -1 
C 20.40625 -1 28.09375 -0.203125 33.5 4.78125 
L 33.5 0 
L 40.90625 0 
z
" id="CMSS17-117"/>
      <path d="M 40.796875 69 
L 33.40625 69 
L 33.40625 38.09375 
C 30.296875 40.671875 25.203125 43.0625 19.59375 43.0625 
C 10.5 43.0625 3.296875 33.296875 3.296875 21.046875 
C 3.296875 8.78125 10.40625 -1 19.296875 -1 
C 26.203125 -1 30.796875 2.6875 33.203125 4.78125 
L 33.203125 -0.203125 
L 40.796875 -0.203125 
z
M 33.203125 13.0625 
C 33.203125 11.671875 33.203125 10.203125 30.09375 7.53125 
C 28.09375 5.859375 25.703125 5.078125 23.40625 5.078125 
C 18 5.078125 10.90625 9 10.90625 20.9375 
C 10.90625 33.34375 18.90625 37 24.40625 37 
C 28.09375 37 31.09375 35.21875 33.203125 32.265625 
z
" id="CMSS17-100"/>
      <path d="M 32.203125 41.046875 
C 26.296875 43.859375 21.703125 43.859375 18.703125 43.859375 
C 11.59375 43.859375 3.09375 41.375 3.09375 31.296875 
C 3.09375 21.234375 14.09375 19.03125 17.09375 18.421875 
C 21.703125 17.53125 26.796875 16.53125 26.796875 11.5625 
C 26.796875 5.265625 19.59375 5.265625 18.296875 5.265625 
C 14.296875 5.265625 8.796875 6.359375 3.796875 9.96875 
L 2.59375 3.28125 
C 8.296875 0 13.796875 -1 18.40625 -1 
C 30.703125 -1 33.796875 6.5 33.796875 12.203125 
C 33.796875 17.09375 31 20.390625 29.09375 21.890625 
C 25.796875 24.5 24.59375 24.796875 16.40625 26.5 
C 15 26.703125 10.09375 27.796875 10.09375 32.28125 
C 10.09375 38 16.40625 38 17.796875 38 
C 24.296875 38 28.296875 35.984375 31 34.5 
z
" id="CMSS17-115"/>
      <path d="M 16.796875 37 
L 26.90625 37 
L 26.90625 42.765625 
L 16.59375 42.765625 
L 16.59375 55.609375 
C 16.59375 62.71875 22 63.9375 25.09375 63.9375 
C 26.09375 63.9375 28.90625 63.9375 32.5 62.640625 
L 32.5 69.203125 
C 30.203125 69.703125 27.40625 70 25.203125 70 
C 15.90625 70 9.40625 62.390625 9.40625 52.484375 
L 9.40625 42.765625 
L 2.5 42.765625 
L 2.5 37 
L 9.40625 37 
L 9.40625 0 
L 16.796875 0 
z
" id="CMSS17-102"/>
      <path d="M 44.203125 21.1875 
C 44.203125 34 34.703125 44 23.5 44 
C 12 44 2.703125 33.703125 2.703125 21.1875 
C 2.703125 8.5 12.296875 -1 23.40625 -1 
C 34.796875 -1 44.203125 8.796875 44.203125 21.1875 
z
M 23.5 5.265625 
C 16.40625 5.265625 10.296875 11.078125 10.296875 22 
C 10.296875 33.609375 17.40625 37.921875 23.40625 37.921875 
C 29.90625 37.921875 36.59375 33.21875 36.59375 22 
C 36.59375 10.671875 30.09375 5.265625 23.5 5.265625 
z
" id="CMSS17-111"/>
      <path d="M 28.09375 66.515625 
C 28.203125 66.921875 28.40625 67.515625 28.40625 68 
C 28.40625 69 27.40625 69 27.203125 69 
C 27.09375 69 23.5 68.640625 21.703125 68.390625 
C 20 68.390625 18.5 68.09375 16.703125 68.09375 
C 14.296875 67.890625 13.59375 67.796875 13.59375 66 
C 13.59375 65 14.59375 65 15.59375 65 
C 20.703125 65 20.703125 64.109375 20.703125 63.125 
C 20.703125 62.734375 20.703125 62.53125 20.203125 60.75 
L 5.90625 3.875 
C 5.5 2.375 5.5 2.1875 5.5 1.578125 
C 5.5 -0.59375 7.203125 -1 8.203125 -1 
C 11 -1 11.59375 1.203125 12.40625 4.296875 
L 17.09375 22.953125 
C 24.296875 22.15625 28.59375 19.15625 28.59375 14.375 
C 28.59375 13.765625 28.59375 13.375 28.296875 11.875 
C 27.90625 10.375 27.90625 9.1875 27.90625 8.6875 
C 27.90625 2.890625 31.703125 -1 36.796875 -1 
C 41.40625 -1 43.796875 3.1875 44.59375 4.59375 
C 46.703125 8.28125 48 13.875 48 14.265625 
C 48 14.765625 47.59375 15.171875 47 15.171875 
C 46.09375 15.171875 46 14.765625 45.59375 13.171875 
C 44.203125 7.984375 42.09375 1 37 1 
C 35 1 33.703125 2 33.703125 5.78125 
C 33.703125 7.6875 34.09375 9.875 34.5 11.375 
C 34.90625 13.171875 34.90625 13.265625 34.90625 14.46875 
C 34.90625 20.359375 29.59375 23.65625 20.40625 24.84375 
C 24 27.046875 27.59375 30.9375 29 32.4375 
C 34.703125 38.8125 38.59375 42.015625 43.203125 42.015625 
C 45.5 42.015625 46.09375 41.40625 46.796875 40.8125 
C 43.09375 40.40625 41.703125 37.8125 41.703125 35.828125 
C 41.703125 33.421875 43.59375 32.625 45 32.625 
C 47.703125 32.625 50.09375 34.921875 50.09375 38.125 
C 50.09375 41.015625 47.796875 44 43.296875 44 
C 37.796875 44 33.296875 40.109375 26.203125 32.125 
C 25.203125 30.9375 21.5 27.140625 17.796875 25.75 
z
" id="CMMI12-107"/>
      <path d="M 30.09375 11.875 
C 29.59375 10.171875 29.59375 9.984375 28.203125 8.078125 
C 26 5.28125 21.59375 1 16.90625 1 
C 12.796875 1 10.5 4.6875 10.5 10.578125 
C 10.5 16.0625 13.59375 27.234375 15.5 31.4375 
C 18.90625 38.421875 23.59375 42.015625 27.5 42.015625 
C 34.09375 42.015625 35.40625 33.828125 35.40625 33.03125 
C 35.40625 32.9375 35.09375 31.625 35 31.4375 
z
M 36.5 37.421875 
C 35.40625 40.015625 32.703125 44 27.5 44 
C 16.203125 44 4 29.4375 4 14.671875 
C 4 4.796875 9.796875 -1 16.59375 -1 
C 22.09375 -1 26.796875 3.296875 29.59375 6.59375 
C 30.59375 0.703125 35.296875 -1 38.296875 -1 
C 41.296875 -1 43.703125 0.796875 45.5 4.390625 
C 47.09375 7.78125 48.5 13.875 48.5 14.265625 
C 48.5 14.765625 48.09375 15.171875 47.5 15.171875 
C 46.59375 15.171875 46.5 14.671875 46.09375 13.171875 
C 44.59375 7.28125 42.703125 1 38.59375 1 
C 35.703125 1 35.5 3.59375 35.5 5.59375 
C 35.5 7.890625 35.796875 8.984375 36.703125 12.875 
C 37.40625 15.375 37.90625 17.5625 38.703125 20.453125 
C 42.40625 35.421875 43.296875 39.015625 43.296875 39.609375 
C 43.296875 41.015625 42.203125 42.109375 40.703125 42.109375 
C 37.5 42.109375 36.703125 38.625 36.5 37.421875 
z
" id="CMMI12-97"/>
      <path d="M 64.296875 31.515625 
C 65.796875 31.515625 67.296875 31.515625 67.296875 33.203125 
C 67.296875 35 65.59375 35 63.90625 35 
L 8 35 
C 6.296875 35 4.59375 35 4.59375 33.203125 
C 4.59375 31.515625 6.09375 31.515625 7.59375 31.515625 
z
M 63.90625 14 
C 65.59375 14 67.296875 14 67.296875 15.796875 
C 67.296875 17.484375 65.796875 17.484375 64.296875 17.484375 
L 7.59375 17.484375 
C 6.09375 17.484375 4.59375 17.484375 4.59375 15.796875 
C 4.59375 14 6.296875 14 8 14 
z
" id="CMR17-61"/>
      <path d="M 18.40625 4.796875 
C 18.40625 7.6875 16 9.671875 13.59375 9.671875 
C 10.703125 9.671875 8.703125 7.28125 8.703125 4.890625 
C 8.703125 2 11.09375 0 13.5 0 
C 16.40625 0 18.40625 2.390625 18.40625 4.796875 
z
" id="CMMI12-58"/>
     </defs>
     <use transform="scale(0.996264)" xlink:href="#CMSS17-83"/>
     <use transform="translate(52.048516 0)scale(0.996264)" xlink:href="#CMSS17-99"/>
     <use transform="translate(93.687338 0)scale(0.996264)" xlink:href="#CMSS17-97"/>
     <use transform="translate(138.609259 0)scale(0.996264)" xlink:href="#CMSS17-116"/>
     <use transform="translate(172.440826 0)scale(0.996264)" xlink:href="#CMSS17-116"/>
     <use transform="translate(206.272392 0)scale(0.996264)" xlink:href="#CMSS17-101"/>
     <use transform="translate(247.911214 0)scale(0.996264)" xlink:href="#CMSS17-114"/>
     <use transform="translate(279.820987 0)scale(0.996264)" xlink:href="#CMSS17-105"/>
     <use transform="translate(302.00171 0)scale(0.996264)" xlink:href="#CMSS17-110"/>
     <use transform="translate(350.206653 0)scale(0.996264)" xlink:href="#CMSS17-103"/>
     <use transform="translate(428.279389 0)scale(0.996264)" xlink:href="#CMSS17-97"/>
     <use transform="translate(473.20131 0)scale(0.996264)" xlink:href="#CMSS17-109"/>
     <use transform="translate(547.430564 0)scale(0.996264)" xlink:href="#CMSS17-112"/>
     <use transform="translate(595.635507 0)scale(0.996264)" xlink:href="#CMSS17-108"/>
     <use transform="translate(617.816231 0)scale(0.996264)" xlink:href="#CMSS17-105"/>
     <use transform="translate(639.996954 0)scale(0.996264)" xlink:href="#CMSS17-116"/>
     <use transform="translate(673.82852 0)scale(0.996264)" xlink:href="#CMSS17-117"/>
     <use transform="translate(722.033463 0)scale(0.996264)" xlink:href="#CMSS17-100"/>
     <use transform="translate(770.238407 0)scale(0.996264)" xlink:href="#CMSS17-101"/>
     <use transform="translate(811.877229 0)scale(0.996264)" xlink:href="#CMSS17-115"/>
     <use transform="translate(879.019883 0)scale(0.996264)" xlink:href="#CMSS17-102"/>
     <use transform="translate(907.646542 0)scale(0.996264)" xlink:href="#CMSS17-111"/>
     <use transform="translate(951.887712 0)scale(0.996264)" xlink:href="#CMSS17-114"/>
     <use transform="translate(1015.026597 0)scale(0.996264)" xlink:href="#CMMI12-107"/>
     <use transform="translate(1069.105798 0)scale(0.996264)" xlink:href="#CMMI12-97"/>
     <use transform="translate(1147.987664 0)scale(0.996264)" xlink:href="#CMR17-61"/>
     <use transform="translate(1247.376461 0)scale(0.996264)" xlink:href="#CMR17-53"/>
     <use transform="translate(1293.066938 0)scale(0.996264)" xlink:href="#CMMI12-58"/>
     <use transform="translate(1320.164115 0)scale(0.996264)" xlink:href="#CMR17-48"/>
    </g>
   </g>
   <g id="legend_1">
    <g id="patch_7">
     <path d="M 553.753942 160.485009 
L 684.4 160.485009 
Q 688.4 160.485009 688.4 156.485009 
L 688.4 70.7 
Q 688.4 66.7 684.4 66.7 
L 553.753942 66.7 
Q 549.753942 66.7 549.753942 70.7 
L 549.753942 156.485009 
Q 549.753942 160.485009 553.753942 160.485009 
z
" style="fill:#ffffff;opacity:0.8;stroke:#cccccc;stroke-linejoin:miter;"/>
    </g>
    <g id="line2d_37">
     <path d="M 557.753942 82.896875 
L 597.753942 82.896875 
" style="fill:none;stroke:#fdbf6f;stroke-linecap:square;stroke-width:2;"/>
    </g>
    <g id="line2d_38"/>
    <g id="text_19">
     <!-- kd=10.0 -->
     <g transform="translate(613.753942 89.896875)scale(0.2 -0.2)">
      <defs>
       <path d="M 26.5 26.375 
L 42 42.796875 
L 32.40625 42.796875 
L 14.90625 24.28125 
L 14.90625 69 
L 7.5 69 
L 7.5 0 
L 14.796875 0 
L 14.796875 13.9375 
L 21.5 21 
L 35.59375 0 
L 44.09375 0 
z
" id="CMSS17-107"/>
       <path d="M 64.796875 31.515625 
C 66.296875 31.515625 67.796875 31.515625 67.796875 33.203125 
C 67.796875 35 66.09375 35 64.40625 35 
L 8.59375 35 
C 6.90625 35 5.203125 35 5.203125 33.203125 
C 5.203125 31.515625 6.703125 31.515625 8.203125 31.515625 
z
M 64.40625 14 
C 66.09375 14 67.796875 14 67.796875 15.796875 
C 67.796875 17.484375 66.296875 17.484375 64.796875 17.484375 
L 8.203125 17.484375 
C 6.703125 17.484375 5.203125 17.484375 5.203125 15.796875 
C 5.203125 14 6.90625 14 8.59375 14 
z
" id="CMSS17-61"/>
       <path d="M 28.40625 67 
L 26.5 67 
C 21.09375 61.5625 14.796875 60.78125 8.40625 60.78125 
L 8.40625 55 
C 11.296875 55 16 55 20.703125 57.296875 
L 20.703125 5.765625 
L 8.90625 5.765625 
L 8.90625 0 
L 40.203125 0 
L 40.203125 5.765625 
L 28.40625 5.765625 
z
" id="CMSS17-49"/>
       <path d="M 43.09375 31.9375 
C 43.09375 37.578125 43 48.078125 38.90625 56.1875 
C 34.796875 64 28.203125 66.078125 23.5 66.078125 
C 16.703125 66.078125 10.90625 62.109375 7.90625 55.78125 
C 4.703125 49.15625 3.796875 42.328125 3.796875 31.9375 
C 3.796875 24.828125 4.09375 16.109375 7.703125 8.484375 
C 11.796875 0.078125 18.703125 -2 23.40625 -2 
C 29.59375 -2 35.59375 1.265625 39 8.09375 
C 42.5 15.21875 43.09375 23.03125 43.09375 31.9375 
z
M 23.40625 4.078125 
C 15.796875 4.078125 13.5 12.671875 12.796875 15.546875 
C 11.59375 20.46875 11.40625 25.21875 11.40625 33.03125 
C 11.40625 39.15625 11.40625 46.0625 13.296875 51.515625 
C 15.59375 57.828125 19.59375 60 23.40625 60 
C 30.796875 60 33.203125 52.6875 34 50.125 
C 35.5 44.890625 35.5 38.765625 35.5 33.03125 
C 35.5 23.84375 35.5 4.078125 23.40625 4.078125 
z
" id="CMSS17-48"/>
       <path d="M 17 7.96875 
L 9 7.96875 
L 9 0 
L 17 0 
z
" id="CMSS17-46"/>
      </defs>
      <use transform="scale(0.996264)" xlink:href="#CMSS17-107"/>
      <use transform="translate(45.602489 0)scale(0.996264)" xlink:href="#CMSS17-100"/>
      <use transform="translate(93.807432 0)scale(0.996264)" xlink:href="#CMSS17-61"/>
      <use transform="translate(166.675367 0)scale(0.996264)" xlink:href="#CMSS17-49"/>
      <use transform="translate(213.518991 0)scale(0.996264)" xlink:href="#CMSS17-48"/>
      <use transform="translate(260.362614 0)scale(0.996264)" xlink:href="#CMSS17-46"/>
      <use transform="translate(286.386819 0)scale(0.996264)" xlink:href="#CMSS17-48"/>
     </g>
    </g>
    <g id="line2d_39">
     <path d="M 557.753942 112.253125 
L 597.753942 112.253125 
" style="fill:none;stroke:#bfe5a0;stroke-linecap:square;stroke-width:2;"/>
    </g>
    <g id="line2d_40"/>
    <g id="text_20">
     <!-- kd=30.0 -->
     <g transform="translate(613.753942 119.253125)scale(0.2 -0.2)">
      <defs>
       <path d="M 15.703125 31.640625 
L 22.5 31.640625 
C 31.90625 31.640625 34.59375 23.546875 34.59375 17.90625 
C 34.59375 10.203125 30.203125 4.171875 23 4.171875 
C 17.40625 4.171875 9.5 6.9375 5 14.25 
C 4.296875 10.796875 4.296875 10.59375 3.90625 8.21875 
C 8.59375 1.375 16.203125 -2 23.203125 -2 
C 34.59375 -2 43 7.390625 43 17.78125 
C 43 25.59375 37.5 32.140625 30 34.609375 
C 36 37.875 40.40625 44 40.40625 51.140625 
C 40.40625 59.453125 32.703125 66.078125 23.296875 66.078125 
C 14.703125 66.078125 8 60.8125 5.203125 55.15625 
C 5.90625 54.1875 7.703125 51.3125 8.59375 49.828125 
C 10.796875 55.65625 16.5 60 23.203125 60 
C 28.796875 60 32.5 56.359375 32.5 51.109375 
C 32.5 45.671875 29 39.734375 23.09375 38.359375 
C 22.703125 38.359375 16.5 37.765625 15.703125 37.671875 
z
" id="CMSS17-51"/>
      </defs>
      <use transform="scale(0.996264)" xlink:href="#CMSS17-107"/>
      <use transform="translate(45.602489 0)scale(0.996264)" xlink:href="#CMSS17-100"/>
      <use transform="translate(93.807432 0)scale(0.996264)" xlink:href="#CMSS17-61"/>
      <use transform="translate(166.675367 0)scale(0.996264)" xlink:href="#CMSS17-51"/>
      <use transform="translate(213.518991 0)scale(0.996264)" xlink:href="#CMSS17-48"/>
      <use transform="translate(260.362614 0)scale(0.996264)" xlink:href="#CMSS17-46"/>
      <use transform="translate(286.386819 0)scale(0.996264)" xlink:href="#CMSS17-48"/>
     </g>
    </g>
    <g id="line2d_41">
     <path d="M 557.753942 141.609375 
L 597.753942 141.609375 
" style="fill:none;stroke:#5e4fa2;stroke-linecap:square;stroke-width:2;"/>
    </g>
    <g id="line2d_42"/>
    <g id="text_21">
     <!-- kd=50.0 -->
     <g transform="translate(613.753942 148.609375)scale(0.2 -0.2)">
      <defs>
       <path d="M 14.59375 58.625 
L 39.09375 58.625 
L 39.09375 65 
L 7.296875 65 
L 7.296875 27.828125 
L 14 27.828125 
C 15.796875 31.96875 19.5 35 24.296875 35 
C 28.796875 35 33.796875 31.078125 33.796875 19.78125 
C 33.796875 7.703125 26.703125 4.171875 21.5 4.171875 
C 15.09375 4.171875 9.203125 8 6.59375 13.296875 
L 3.40625 7.796875 
C 8 0.765625 15.5 -2 21.5 -2 
C 33.09375 -2 42.203125 7.765625 42.203125 19.578125 
C 42.203125 31.71875 34.09375 41.078125 24.40625 41.078125 
C 20.90625 41.078125 17.5 39.890625 14.59375 37.484375 
z
" id="CMSS17-53"/>
      </defs>
      <use transform="scale(0.996264)" xlink:href="#CMSS17-107"/>
      <use transform="translate(45.602489 0)scale(0.996264)" xlink:href="#CMSS17-100"/>
      <use transform="translate(93.807432 0)scale(0.996264)" xlink:href="#CMSS17-61"/>
      <use transform="translate(166.675367 0)scale(0.996264)" xlink:href="#CMSS17-53"/>
      <use transform="translate(213.518991 0)scale(0.996264)" xlink:href="#CMSS17-48"/>
      <use transform="translate(260.362614 0)scale(0.996264)" xlink:href="#CMSS17-46"/>
      <use transform="translate(286.386819 0)scale(0.996264)" xlink:href="#CMSS17-48"/>
     </g>
    </g>
   </g>
  </g>
 </g>
 <defs>
  <clipPath id="p7a44a228ed">
   <rect height="664.2" width="590.4" x="108" y="56.7"/>
  </clipPath>
 </defs>
</svg>
