<?xml version="1.0" encoding="utf-8" standalone="no"?>
<!DOCTYPE svg PUBLIC "-//W3C//DTD SVG 1.1//EN"
  "http://www.w3.org/Graphics/SVG/1.1/DTD/svg11.dtd">
<!-- Created with matplotlib (https://matplotlib.org/) -->
<svg height="810pt" version="1.1" viewBox="0 0 720 810" width="720pt" xmlns="http://www.w3.org/2000/svg" xmlns:xlink="http://www.w3.org/1999/xlink">
 <metadata>
  <rdf:RDF xmlns:cc="http://creativecommons.org/ns#" xmlns:dc="http://purl.org/dc/elements/1.1/" xmlns:rdf="http://www.w3.org/1999/02/22-rdf-syntax-ns#">
   <cc:Work>
    <dc:type rdf:resource="http://purl.org/dc/dcmitype/StillImage"/>
    <dc:date>2020-11-23T13:48:54.499563</dc:date>
    <dc:format>image/svg+xml</dc:format>
    <dc:creator>
     <cc:Agent>
      <dc:title>Matplotlib v3.3.1, https://matplotlib.org/</dc:title>
     </cc:Agent>
    </dc:creator>
   </cc:Work>
  </rdf:RDF>
 </metadata>
 <defs>
  <style type="text/css">*{stroke-linecap:butt;stroke-linejoin:round;}</style>
 </defs>
 <g id="figure_1">
  <g id="patch_1">
   <path d="M 0 810 
L 720 810 
L 720 0 
L 0 0 
z
" style="fill:#ffffff;"/>
  </g>
  <g id="axes_1">
   <g id="patch_2">
    <path d="M 108 720.9 
L 698.4 720.9 
L 698.4 56.7 
L 108 56.7 
z
" style="fill:#ffffff;"/>
   </g>
   <g id="matplotlib.axis_1">
    <g id="xtick_1">
     <g id="line2d_1">
      <path clip-path="url(#pad1aa5fa4c)" d="M 108 720.9 
L 108 56.7 
" style="fill:none;stroke:#e6e6e6;stroke-linecap:square;stroke-width:0.8;"/>
     </g>
     <g id="line2d_2">
      <defs>
       <path d="M 0 0 
L 0 -3.5 
" id="m16ced39bd6" style="stroke:#000000;stroke-width:0.8;"/>
      </defs>
      <g>
       <use style="stroke:#000000;stroke-width:0.8;" x="108" xlink:href="#m16ced39bd6" y="720.9"/>
      </g>
     </g>
     <g id="text_1">
      <!-- $\mathdefault{0}$ -->
      <g transform="translate(104.341881 734.777725)scale(0.15 -0.15)">
       <defs>
        <path d="M 42 31.640625 
C 42 37.75 41.90625 48.125 37.703125 56.109375 
C 34 63.109375 28.09375 65.59375 22.90625 65.59375 
C 18.09375 65.59375 12 63.40625 8.203125 56.203125 
C 4.203125 48.71875 3.796875 39.4375 3.796875 31.640625 
C 3.796875 25.953125 3.90625 17.28125 7 9.671875 
C 11.296875 -0.609375 19 -2 22.90625 -2 
C 27.5 -2 34.5 -0.109375 38.59375 9.375 
C 41.59375 16.28125 42 24.359375 42 31.640625 
z
M 22.90625 -0.40625 
C 16.5 -0.40625 12.703125 5.078125 11.296875 12.6875 
C 10.203125 18.5625 10.203125 27.15625 10.203125 32.75 
C 10.203125 40.4375 10.203125 46.828125 11.5 52.921875 
C 13.40625 61.390625 19 64 22.90625 64 
C 27 64 32.296875 61.296875 34.203125 53.125 
C 35.5 47.4375 35.59375 40.734375 35.59375 32.75 
C 35.59375 26.25 35.59375 18.265625 34.40625 12.375 
C 32.296875 1.484375 26.40625 -0.40625 22.90625 -0.40625 
z
" id="CMR17-48"/>
       </defs>
       <use transform="scale(0.996264)" xlink:href="#CMR17-48"/>
      </g>
     </g>
    </g>
    <g id="xtick_2">
     <g id="line2d_3">
      <path clip-path="url(#pad1aa5fa4c)" d="M 189.546961 720.9 
L 189.546961 56.7 
" style="fill:none;stroke:#e6e6e6;stroke-linecap:square;stroke-width:0.8;"/>
     </g>
     <g id="line2d_4">
      <g>
       <use style="stroke:#000000;stroke-width:0.8;" x="189.546961" xlink:href="#m16ced39bd6" y="720.9"/>
      </g>
     </g>
     <g id="text_2">
      <!-- $\mathdefault{25}$ -->
      <g transform="translate(182.230724 734.777725)scale(0.15 -0.15)">
       <defs>
        <path d="M 41.703125 15.453125 
L 39.90625 15.453125 
C 38.90625 8.375 38.09375 7.171875 37.703125 6.5625 
C 37.203125 5.765625 30 5.765625 28.59375 5.765625 
L 9.40625 5.765625 
C 13 9.671875 20 16.75 28.5 24.953125 
C 34.59375 30.734375 41.703125 37.53125 41.703125 47.421875 
C 41.703125 59.21875 32.296875 66 21.796875 66 
C 10.796875 66 4.09375 56.3125 4.09375 47.34375 
C 4.09375 43.4375 7 42.9375 8.203125 42.9375 
C 9.203125 42.9375 12.203125 43.546875 12.203125 47.03125 
C 12.203125 50.109375 9.59375 51 8.203125 51 
C 7.59375 51 7 50.90625 6.59375 50.703125 
C 8.5 59.21875 14.296875 63.40625 20.40625 63.40625 
C 29.09375 63.40625 34.796875 56.515625 34.796875 47.421875 
C 34.796875 38.734375 29.703125 31.25 24 24.75 
L 4.09375 2.28125 
L 4.09375 0 
L 39.296875 0 
z
" id="CMR17-50"/>
        <path d="M 11.40625 57.6875 
C 12.40625 57.28125 16.5 56 20.703125 56 
C 30 56 35.09375 61.109375 38 64.0625 
C 38 64.953125 38 65.5 37.40625 65.5 
C 37.296875 65.5 37.09375 65.5 36.296875 65.046875 
C 32.796875 63.40625 28.703125 62.078125 23.703125 62.078125 
C 20.703125 62.078125 16.203125 62.484375 11.296875 64.671875 
C 10.203125 65.171875 10 65.171875 9.90625 65.171875 
C 9.40625 65.171875 9.296875 65.0625 9.296875 63.078125 
L 9.296875 34.421875 
C 9.296875 32.640625 9.296875 32.140625 10.296875 32.140625 
C 10.796875 32.140625 11 32.34375 11.5 33.03125 
C 14.703125 37.515625 19.09375 39.40625 24.09375 39.40625 
C 27.59375 39.40625 35.09375 37.21875 35.09375 20.140625 
C 35.09375 16.953125 35.09375 11.171875 32.09375 6.578125 
C 29.59375 2.484375 25.703125 0.390625 21.40625 0.390625 
C 14.796875 0.390625 8.09375 5 6.296875 12.71875 
C 6.703125 12.609375 7.5 12.421875 7.90625 12.421875 
C 9.203125 12.421875 11.703125 13.125 11.703125 16.21875 
C 11.703125 18.90625 9.796875 20 7.90625 20 
C 5.59375 20 4.09375 18.59375 4.09375 15.796875 
C 4.09375 7.09375 11 -2 21.59375 -2 
C 31.90625 -2 41.703125 6.875 41.703125 19.75 
C 41.703125 31.71875 33.90625 41 24.203125 41 
C 19.09375 41 14.796875 39.109375 11.40625 35.53125 
z
" id="CMR17-53"/>
       </defs>
       <use transform="scale(0.996264)" xlink:href="#CMR17-50"/>
       <use transform="translate(45.690477 0)scale(0.996264)" xlink:href="#CMR17-53"/>
      </g>
     </g>
    </g>
    <g id="xtick_3">
     <g id="line2d_5">
      <path clip-path="url(#pad1aa5fa4c)" d="M 271.093923 720.9 
L 271.093923 56.7 
" style="fill:none;stroke:#e6e6e6;stroke-linecap:square;stroke-width:0.8;"/>
     </g>
     <g id="line2d_6">
      <g>
       <use style="stroke:#000000;stroke-width:0.8;" x="271.093923" xlink:href="#m16ced39bd6" y="720.9"/>
      </g>
     </g>
     <g id="text_3">
      <!-- $\mathdefault{50}$ -->
      <g transform="translate(263.777685 734.777725)scale(0.15 -0.15)">
       <use transform="scale(0.996264)" xlink:href="#CMR17-53"/>
       <use transform="translate(45.690477 0)scale(0.996264)" xlink:href="#CMR17-48"/>
      </g>
     </g>
    </g>
    <g id="xtick_4">
     <g id="line2d_7">
      <path clip-path="url(#pad1aa5fa4c)" d="M 352.640884 720.9 
L 352.640884 56.7 
" style="fill:none;stroke:#e6e6e6;stroke-linecap:square;stroke-width:0.8;"/>
     </g>
     <g id="line2d_8">
      <g>
       <use style="stroke:#000000;stroke-width:0.8;" x="352.640884" xlink:href="#m16ced39bd6" y="720.9"/>
      </g>
     </g>
     <g id="text_4">
      <!-- $\mathdefault{75}$ -->
      <g transform="translate(345.324646 734.777725)scale(0.15 -0.15)">
       <defs>
        <path d="M 45.09375 61.578125 
L 45.09375 63.765625 
L 21.59375 63.765625 
C 9.90625 63.765625 9.703125 65.078125 9.296875 67 
L 7.5 67 
L 4.59375 48.34375 
L 6.40625 48.34375 
C 6.703125 50.234375 7.40625 55.3125 8.59375 57.203125 
C 9.203125 58 16.59375 58 18.296875 58 
L 40.296875 58 
L 29.203125 41.578125 
C 21.796875 30.53125 16.703125 15.609375 16.703125 2.578125 
C 16.703125 1.390625 16.703125 -2 20.296875 -2 
C 23.90625 -2 23.90625 1.390625 23.90625 2.671875 
L 23.90625 7.265625 
C 23.90625 23.5625 26.703125 34.3125 31.296875 41.1875 
z
" id="CMR17-55"/>
       </defs>
       <use transform="scale(0.996264)" xlink:href="#CMR17-55"/>
       <use transform="translate(45.690477 0)scale(0.996264)" xlink:href="#CMR17-53"/>
      </g>
     </g>
    </g>
    <g id="xtick_5">
     <g id="line2d_9">
      <path clip-path="url(#pad1aa5fa4c)" d="M 434.187845 720.9 
L 434.187845 56.7 
" style="fill:none;stroke:#e6e6e6;stroke-linecap:square;stroke-width:0.8;"/>
     </g>
     <g id="line2d_10">
      <g>
       <use style="stroke:#000000;stroke-width:0.8;" x="434.187845" xlink:href="#m16ced39bd6" y="720.9"/>
      </g>
     </g>
     <g id="text_5">
      <!-- $\mathdefault{100}$ -->
      <g transform="translate(423.213489 734.777725)scale(0.15 -0.15)">
       <defs>
        <path d="M 26.59375 63.40625 
C 26.59375 65.5 26.5 65.5 25.09375 65.5 
C 21.203125 61.1875 15.296875 59.796875 9.703125 59.796875 
C 9.40625 59.796875 8.90625 59.796875 8.796875 59.5 
C 8.703125 59.296875 8.703125 59.09375 8.703125 57 
C 11.796875 57 17 57.59375 21 59.984375 
L 21 7.203125 
C 21 3.6875 20.796875 2.5 12.203125 2.5 
L 9.203125 2.5 
L 9.203125 0 
C 14 0 19 0 23.796875 0 
C 28.59375 0 33.59375 0 38.40625 0 
L 38.40625 2.5 
L 35.40625 2.5 
C 26.796875 2.5 26.59375 3.59375 26.59375 7.15625 
z
" id="CMR17-49"/>
       </defs>
       <use transform="scale(0.996264)" xlink:href="#CMR17-49"/>
       <use transform="translate(45.690477 0)scale(0.996264)" xlink:href="#CMR17-48"/>
       <use transform="translate(91.380954 0)scale(0.996264)" xlink:href="#CMR17-48"/>
      </g>
     </g>
    </g>
    <g id="xtick_6">
     <g id="line2d_11">
      <path clip-path="url(#pad1aa5fa4c)" d="M 515.734807 720.9 
L 515.734807 56.7 
" style="fill:none;stroke:#e6e6e6;stroke-linecap:square;stroke-width:0.8;"/>
     </g>
     <g id="line2d_12">
      <g>
       <use style="stroke:#000000;stroke-width:0.8;" x="515.734807" xlink:href="#m16ced39bd6" y="720.9"/>
      </g>
     </g>
     <g id="text_6">
      <!-- $\mathdefault{125}$ -->
      <g transform="translate(504.76045 734.777725)scale(0.15 -0.15)">
       <use transform="scale(0.996264)" xlink:href="#CMR17-49"/>
       <use transform="translate(45.690477 0)scale(0.996264)" xlink:href="#CMR17-50"/>
       <use transform="translate(91.380954 0)scale(0.996264)" xlink:href="#CMR17-53"/>
      </g>
     </g>
    </g>
    <g id="xtick_7">
     <g id="line2d_13">
      <path clip-path="url(#pad1aa5fa4c)" d="M 597.281768 720.9 
L 597.281768 56.7 
" style="fill:none;stroke:#e6e6e6;stroke-linecap:square;stroke-width:0.8;"/>
     </g>
     <g id="line2d_14">
      <g>
       <use style="stroke:#000000;stroke-width:0.8;" x="597.281768" xlink:href="#m16ced39bd6" y="720.9"/>
      </g>
     </g>
     <g id="text_7">
      <!-- $\mathdefault{150}$ -->
      <g transform="translate(586.307411 734.777725)scale(0.15 -0.15)">
       <use transform="scale(0.996264)" xlink:href="#CMR17-49"/>
       <use transform="translate(45.690477 0)scale(0.996264)" xlink:href="#CMR17-53"/>
       <use transform="translate(91.380954 0)scale(0.996264)" xlink:href="#CMR17-48"/>
      </g>
     </g>
    </g>
    <g id="xtick_8">
     <g id="line2d_15">
      <path clip-path="url(#pad1aa5fa4c)" d="M 678.828729 720.9 
L 678.828729 56.7 
" style="fill:none;stroke:#e6e6e6;stroke-linecap:square;stroke-width:0.8;"/>
     </g>
     <g id="line2d_16">
      <g>
       <use style="stroke:#000000;stroke-width:0.8;" x="678.828729" xlink:href="#m16ced39bd6" y="720.9"/>
      </g>
     </g>
     <g id="text_8">
      <!-- $\mathdefault{175}$ -->
      <g transform="translate(667.854373 734.777725)scale(0.15 -0.15)">
       <use transform="scale(0.996264)" xlink:href="#CMR17-49"/>
       <use transform="translate(45.690477 0)scale(0.996264)" xlink:href="#CMR17-55"/>
       <use transform="translate(91.380954 0)scale(0.996264)" xlink:href="#CMR17-53"/>
      </g>
     </g>
    </g>
    <g id="text_9">
     <!-- $\theta(^{\circ})$ -->
     <g transform="translate(383.750923 760.340997)scale(0.25 -0.25)">
      <defs>
       <path d="M 44.296875 50 
C 44.296875 60.15625 41.09375 70 32.90625 70 
C 18.90625 70 4 40.859375 4 19 
C 4 14.421875 5 -1 15.5 -1 
C 29.09375 -1 44.296875 27.4375 44.296875 50 
z
M 14 36 
C 15.5 41.859375 17.59375 50.21875 21.59375 57.265625 
C 24.90625 63.234375 28.40625 68 32.796875 68 
C 36.09375 68 38.296875 65.21875 38.296875 55.6875 
C 38.296875 52.09375 38 47.140625 35.09375 36 
z
M 34.40625 33.015625 
C 31.90625 23.28125 29.796875 17 26.203125 10.734375 
C 23.296875 5.671875 19.796875 1 15.59375 1 
C 12.5 1 10 3.390625 10 13.21875 
C 10 19.6875 11.59375 26.453125 13.203125 33.015625 
z
" id="CMMI12-18"/>
       <path d="M 30.59375 -24.390625 
C 30.59375 -24.296875 30.59375 -24.09375 30.296875 -23.796875 
C 25.703125 -19.125 13.40625 -6.359375 13.40625 24.703125 
C 13.40625 55.765625 25.5 68.421875 30.40625 73.390625 
C 30.40625 73.5 30.59375 73.703125 30.59375 74 
C 30.59375 74.296875 30.296875 74.5 29.90625 74.5 
C 28.796875 74.5 20.296875 67.125 15.40625 56.15625 
C 10.40625 45.109375 9 34.359375 9 24.8125 
C 9 17.625 9.703125 5.484375 15.703125 -7.359375 
C 20.5 -17.734375 28.703125 -25 29.90625 -25 
C 30.40625 -25 30.59375 -24.796875 30.59375 -24.390625 
z
" id="CMR17-40"/>
       <path d="M 44.40625 25 
C 44.40625 35.578125 35.5 44.1875 25 44.1875 
C 14.203125 44.1875 5.5 35.375 5.5 25 
C 5.5 14.53125 14.203125 5.8125 25 5.8125 
C 35.5 5.8125 44.40625 14.421875 44.40625 25 
z
M 25 9.8125 
C 16.296875 9.8125 9.5 16.71875 9.5 25 
C 9.5 33.28125 16.40625 40.1875 25 40.1875 
C 33.296875 40.1875 40.40625 33.46875 40.40625 25 
C 40.40625 16.53125 33.296875 9.8125 25 9.8125 
z
" id="CMSY10-14"/>
       <path d="M 26.296875 24.703125 
C 26.296875 31.875 25.59375 44.015625 19.59375 56.859375 
C 14.796875 67.234375 6.59375 74.5 5.40625 74.5 
C 5.09375 74.5 4.703125 74.390625 4.703125 73.890625 
C 4.703125 73.703125 4.796875 73.59375 4.90625 73.390625 
C 9.703125 68.40625 21.90625 55.75 21.90625 24.75 
C 21.90625 -6.359375 9.796875 -19.015625 4.90625 -24.015625 
C 4.796875 -24.203125 4.703125 -24.3125 4.703125 -24.5 
C 4.703125 -25 5.09375 -25 5.40625 -25 
C 6.5 -25 15 -17.625 19.90625 -6.65625 
C 24.90625 4.390625 26.296875 15.140625 26.296875 24.703125 
z
" id="CMR17-41"/>
      </defs>
      <use transform="scale(0.996264)" xlink:href="#CMMI12-18"/>
      <use transform="translate(48.169508 0)scale(0.996264)" xlink:href="#CMR17-40"/>
      <use transform="translate(83.450276 36.153639)scale(0.697382)" xlink:href="#CMSY10-14"/>
      <use transform="translate(118.817618 0)scale(0.996264)" xlink:href="#CMR17-41"/>
     </g>
    </g>
   </g>
   <g id="matplotlib.axis_2">
    <g id="ytick_1">
     <g id="line2d_17">
      <path clip-path="url(#pad1aa5fa4c)" d="M 108 663.609294 
L 698.4 663.609294 
" style="fill:none;stroke:#e6e6e6;stroke-linecap:square;stroke-width:0.8;"/>
     </g>
     <g id="line2d_18">
      <defs>
       <path d="M 0 0 
L 3.5 0 
" id="m1d0f9a2faf" style="stroke:#000000;stroke-width:0.8;"/>
      </defs>
      <g>
       <use style="stroke:#000000;stroke-width:0.8;" x="108" xlink:href="#m1d0f9a2faf" y="663.609294"/>
      </g>
     </g>
     <g id="text_10">
      <!-- $\mathdefault{0}$ -->
      <g transform="translate(97.183762 668.798156)scale(0.15 -0.15)">
       <use transform="scale(0.996264)" xlink:href="#CMR17-48"/>
      </g>
     </g>
    </g>
    <g id="ytick_2">
     <g id="line2d_19">
      <path clip-path="url(#pad1aa5fa4c)" d="M 108 547.972443 
L 698.4 547.972443 
" style="fill:none;stroke:#e6e6e6;stroke-linecap:square;stroke-width:0.8;"/>
     </g>
     <g id="line2d_20">
      <g>
       <use style="stroke:#000000;stroke-width:0.8;" x="108" xlink:href="#m1d0f9a2faf" y="547.972443"/>
      </g>
     </g>
     <g id="text_11">
      <!-- $\mathdefault{20}$ -->
      <g transform="translate(89.867524 553.161305)scale(0.15 -0.15)">
       <use transform="scale(0.996264)" xlink:href="#CMR17-50"/>
       <use transform="translate(45.690477 0)scale(0.996264)" xlink:href="#CMR17-48"/>
      </g>
     </g>
    </g>
    <g id="ytick_3">
     <g id="line2d_21">
      <path clip-path="url(#pad1aa5fa4c)" d="M 108 432.335591 
L 698.4 432.335591 
" style="fill:none;stroke:#e6e6e6;stroke-linecap:square;stroke-width:0.8;"/>
     </g>
     <g id="line2d_22">
      <g>
       <use style="stroke:#000000;stroke-width:0.8;" x="108" xlink:href="#m1d0f9a2faf" y="432.335591"/>
      </g>
     </g>
     <g id="text_12">
      <!-- $\mathdefault{40}$ -->
      <g transform="translate(89.867524 437.524454)scale(0.15 -0.15)">
       <defs>
        <path d="M 33.59375 64.40625 
C 33.59375 66.5 33.5 66.5 31.703125 66.5 
L 2 19.59375 
L 2 17 
L 27.796875 17 
L 27.796875 7.140625 
C 27.796875 3.5 27.59375 2.5 20.59375 2.5 
L 18.703125 2.5 
L 18.703125 0 
C 21.90625 0 27.296875 0 30.703125 0 
C 34.09375 0 39.5 0 42.703125 0 
L 42.703125 2.5 
L 40.796875 2.5 
C 33.796875 2.5 33.59375 3.5 33.59375 7.140625 
L 33.59375 17 
L 43.796875 17 
L 43.796875 19.59375 
L 33.59375 19.59375 
z
M 28.09375 57.859375 
L 28.09375 19.59375 
L 4 19.59375 
z
" id="CMR17-52"/>
       </defs>
       <use transform="scale(0.996264)" xlink:href="#CMR17-52"/>
       <use transform="translate(45.690477 0)scale(0.996264)" xlink:href="#CMR17-48"/>
      </g>
     </g>
    </g>
    <g id="ytick_4">
     <g id="line2d_23">
      <path clip-path="url(#pad1aa5fa4c)" d="M 108 316.69874 
L 698.4 316.69874 
" style="fill:none;stroke:#e6e6e6;stroke-linecap:square;stroke-width:0.8;"/>
     </g>
     <g id="line2d_24">
      <g>
       <use style="stroke:#000000;stroke-width:0.8;" x="108" xlink:href="#m1d0f9a2faf" y="316.69874"/>
      </g>
     </g>
     <g id="text_13">
      <!-- $\mathdefault{60}$ -->
      <g transform="translate(89.867524 321.887603)scale(0.15 -0.15)">
       <defs>
        <path d="M 10.59375 34 
C 10.59375 57.65625 21.796875 63 28.296875 63 
C 30.40625 63 35.5 62.640625 37.5 59 
C 35.90625 59 32.90625 59 32.90625 55.515625 
C 32.90625 52.828125 35.09375 51.921875 36.5 51.921875 
C 37.40625 51.921875 40.09375 52.3125 40.09375 55.625 
C 40.09375 61.78125 35.09375 65.296875 28.203125 65.296875 
C 16.296875 65.296875 3.796875 52.96875 3.796875 31 
C 3.796875 3.953125 15.09375 -2 23.09375 -2 
C 32.796875 -2 42 6.671875 42 20.046875 
C 42 32.515625 33.90625 41.59375 23.703125 41.59375 
C 17.59375 41.59375 13.09375 37.609375 10.59375 30.625 
z
M 23.09375 0.390625 
C 10.796875 0.390625 10.796875 18.75 10.796875 22.4375 
C 10.796875 29.625 14.203125 40 23.5 40 
C 25.203125 40 30.09375 40 33.40625 33.125 
C 35.203125 29.21875 35.203125 25.140625 35.203125 20.140625 
C 35.203125 14.75 35.203125 10.78125 33.09375 6.78125 
C 30.90625 2.671875 27.703125 0.390625 23.09375 0.390625 
z
" id="CMR17-54"/>
       </defs>
       <use transform="scale(0.996264)" xlink:href="#CMR17-54"/>
       <use transform="translate(45.690477 0)scale(0.996264)" xlink:href="#CMR17-48"/>
      </g>
     </g>
    </g>
    <g id="ytick_5">
     <g id="line2d_25">
      <path clip-path="url(#pad1aa5fa4c)" d="M 108 201.061889 
L 698.4 201.061889 
" style="fill:none;stroke:#e6e6e6;stroke-linecap:square;stroke-width:0.8;"/>
     </g>
     <g id="line2d_26">
      <g>
       <use style="stroke:#000000;stroke-width:0.8;" x="108" xlink:href="#m1d0f9a2faf" y="201.061889"/>
      </g>
     </g>
     <g id="text_14">
      <!-- $\mathdefault{80}$ -->
      <g transform="translate(89.867524 206.250751)scale(0.15 -0.15)">
       <defs>
        <path d="M 27.203125 35.375 
C 33.5 38.546875 39.90625 43.328125 39.90625 50.984375 
C 39.90625 60.015625 31.09375 65.296875 23 65.296875 
C 13.90625 65.296875 5.90625 58.734375 5.90625 49.6875 
C 5.90625 47.203125 6.5 42.921875 10.40625 39.140625 
C 11.40625 38.15625 15.59375 35.171875 18.296875 33.28125 
C 13.796875 30.984375 3.296875 25.53125 3.296875 14.59375 
C 3.296875 4.359375 13.09375 -2 22.796875 -2 
C 33.5 -2 42.5 5.65625 42.5 15.78125 
C 42.5 24.84375 36.40625 29.015625 32.40625 31.703125 
z
M 14.09375 44.09375 
C 13.296875 44.59375 9.296875 47.671875 9.296875 52.359375 
C 9.296875 58.421875 15.59375 63 22.796875 63 
C 30.703125 63 36.5 57.4375 36.5 50.96875 
C 36.5 41.703125 26.09375 36.421875 25.59375 36.421875 
C 25.5 36.421875 25.40625 36.421875 24.59375 37.03125 
z
M 32.5 23.734375 
C 34 22.640625 38.796875 19.375 38.796875 13.296875 
C 38.796875 5.953125 31.40625 0.390625 23 0.390625 
C 13.90625 0.390625 7 6.84375 7 14.6875 
C 7 22.546875 13.09375 29.09375 20 32.1875 
z
" id="CMR17-56"/>
       </defs>
       <use transform="scale(0.996264)" xlink:href="#CMR17-56"/>
       <use transform="translate(45.690477 0)scale(0.996264)" xlink:href="#CMR17-48"/>
      </g>
     </g>
    </g>
    <g id="ytick_6">
     <g id="line2d_27">
      <path clip-path="url(#pad1aa5fa4c)" d="M 108 85.425038 
L 698.4 85.425038 
" style="fill:none;stroke:#e6e6e6;stroke-linecap:square;stroke-width:0.8;"/>
     </g>
     <g id="line2d_28">
      <g>
       <use style="stroke:#000000;stroke-width:0.8;" x="108" xlink:href="#m1d0f9a2faf" y="85.425038"/>
      </g>
     </g>
     <g id="text_15">
      <!-- $\mathdefault{100}$ -->
      <g transform="translate(82.551287 90.6139)scale(0.15 -0.15)">
       <use transform="scale(0.996264)" xlink:href="#CMR17-49"/>
       <use transform="translate(45.690477 0)scale(0.996264)" xlink:href="#CMR17-48"/>
       <use transform="translate(91.380954 0)scale(0.996264)" xlink:href="#CMR17-48"/>
      </g>
     </g>
    </g>
    <g id="text_16">
     <!-- $|f(\theta)|$ -->
     <g transform="translate(72.324636 417.899913)rotate(-90)scale(0.25 -0.25)">
      <defs>
       <path d="M 15.90625 71.40625 
C 15.90625 73.203125 15.90625 75 13.90625 75 
C 11.90625 75 11.90625 73.203125 11.90625 71.40625 
L 11.90625 -21.40625 
C 11.90625 -23.203125 11.90625 -25 13.90625 -25 
C 15.90625 -25 15.90625 -23.203125 15.90625 -21.40625 
z
" id="CMSY10-106"/>
       <path d="M 44.59375 40.09375 
C 46.59375 40.09375 47.40625 40.09375 47.40625 42 
C 47.40625 43 46.59375 43 44.796875 43 
L 36.703125 43 
C 38.59375 53.578125 40 60.890625 40.796875 64.171875 
C 41.40625 66.640625 43.5 69 46.09375 69 
C 48.203125 69 50.296875 68.09375 51.296875 67.15625 
C 47.40625 66.75 46.203125 63.78125 46.203125 62.015625 
C 46.203125 59.953125 47.703125 58.734375 49.59375 58.734375 
C 51.59375 58.734375 54.59375 60.46875 54.59375 64.359375 
C 54.59375 68.640625 50.40625 71 46 71 
C 41.703125 71 37.5 67.71875 35.5 63.71875 
C 33.703125 60.125 32.703125 56.421875 30.40625 43 
L 23.703125 43 
C 21.796875 43 20.796875 43 20.796875 41.203125 
C 20.796875 40.09375 21.40625 40.09375 23.40625 40.09375 
L 29.796875 40.09375 
C 28 30.875 23.90625 8.46875 21.59375 -2.140625 
C 19.90625 -10.765625 18.40625 -18 13.40625 -18 
C 13.09375 -18 10.203125 -18 8.40625 -16.109375 
C 13.5 -15.703125 13.5 -11.34375 13.5 -11.25 
C 13.5 -9.265625 12 -8.078125 10.09375 -8.078125 
C 8.09375 -8.078125 5.09375 -9.765625 5.09375 -13.546875 
C 5.09375 -17.8125 9.5 -20 13.40625 -20 
C 23.59375 -20 27.796875 -1.84375 28.90625 3.109375 
C 30.703125 10.75 35.59375 37.125 36.09375 40.09375 
z
" id="CMMI12-102"/>
      </defs>
      <use transform="scale(0.996264)" xlink:href="#CMSY10-106"/>
      <use transform="translate(27.674085 0)scale(0.996264)" xlink:href="#CMMI12-102"/>
      <use transform="translate(86.39439 0)scale(0.996264)" xlink:href="#CMR17-40"/>
      <use transform="translate(121.675157 0)scale(0.996264)" xlink:href="#CMMI12-18"/>
      <use transform="translate(169.844665 0)scale(0.996264)" xlink:href="#CMR17-41"/>
      <use transform="translate(205.125433 0)scale(0.996264)" xlink:href="#CMSY10-106"/>
     </g>
    </g>
   </g>
   <g id="line2d_29">
    <path clip-path="url(#pad1aa5fa4c)" d="M 108 226.005558 
L 109.630939 226.492688 
L 111.261878 227.953064 
L 112.892818 230.383622 
L 114.523757 233.779199 
L 116.154696 238.132441 
L 117.785635 243.433676 
L 119.416575 249.67077 
L 121.047514 256.828939 
L 122.678453 264.890549 
L 124.309392 273.834895 
L 125.940331 283.637965 
L 127.571271 294.272195 
L 130.833149 317.904624 
L 134.095028 344.43126 
L 137.356906 373.478911 
L 140.618785 404.595056 
L 145.511602 453.942582 
L 153.666298 537.359546 
L 156.928177 568.229788 
L 158.559116 582.327305 
L 160.190055 595.04522 
L 161.820994 605.809465 
L 163.451934 613.828596 
L 165.082873 618.248978 
L 166.713812 618.686687 
L 168.344751 615.708112 
L 169.975691 610.506312 
L 176.499448 585.469755 
L 178.130387 580.353825 
L 179.761326 576.062362 
L 181.392265 572.659059 
L 183.023204 570.172968 
L 184.654144 568.606865 
L 186.285083 567.942331 
L 187.916022 568.142992 
L 189.546961 569.15675 
L 191.177901 570.91742 
L 192.80884 573.346057 
L 194.439779 576.352123 
L 196.070718 579.8346 
L 199.332597 587.779605 
L 204.225414 600.297776 
L 205.856354 604.12556 
L 207.487293 607.588569 
L 209.118232 610.599504 
L 210.749171 613.103783 
L 212.38011 615.088143 
L 214.01105 616.584212 
L 215.641989 617.664674 
L 217.272928 618.432286 
L 220.534807 619.49997 
L 223.796685 620.661697 
L 225.427624 621.477173 
L 227.058564 622.508208 
L 228.689503 623.769058 
L 230.320442 625.251289 
L 233.58232 628.742004 
L 238.475138 634.301285 
L 240.106077 635.878887 
L 241.737017 637.153693 
L 243.367956 638.045446 
L 244.998895 638.507871 
L 246.629834 638.539857 
L 248.260773 638.185397 
L 249.891713 637.521383 
L 251.522652 636.639223 
L 261.308287 630.623108 
L 266.201105 628.20982 
L 272.724862 625.033475 
L 279.248619 621.821485 
L 282.510497 620.60567 
L 284.141436 620.192179 
L 285.772376 619.938747 
L 287.403315 619.861474 
L 289.034254 619.969981 
L 290.665193 620.267042 
L 292.296133 620.748629 
L 293.927072 621.404351 
L 295.558011 622.218221 
L 298.81989 624.235084 
L 302.081768 626.604793 
L 311.867403 634.023775 
L 315.129282 636.209459 
L 318.39116 638.104845 
L 320.022099 638.89696 
L 321.653039 639.548294 
L 323.283978 640.02463 
L 324.914917 640.290346 
L 326.545856 640.313656 
L 328.176796 640.072628 
L 329.807735 639.560277 
L 331.438674 638.787045 
L 333.069613 637.779924 
L 334.700552 636.57887 
L 337.962431 633.790735 
L 342.855249 629.398172 
L 346.117127 626.8383 
L 347.748066 625.769256 
L 349.379006 624.872744 
L 351.009945 624.166287 
L 352.640884 623.662649 
L 354.271823 623.370197 
L 355.902762 623.293266 
L 357.533702 623.432508 
L 359.164641 623.785188 
L 360.79558 624.34542 
L 362.426519 625.104298 
L 364.057459 626.049911 
L 365.688398 627.167219 
L 368.950276 629.839176 
L 372.212155 632.921423 
L 377.104972 637.653658 
L 378.735912 639.048666 
L 380.366851 640.242042 
L 381.99779 641.162831 
L 383.628729 641.747819 
L 385.259669 641.953322 
L 386.890608 641.765725 
L 388.521547 641.205555 
L 390.152486 640.322782 
L 391.783425 639.185987 
L 395.045304 636.450133 
L 399.938122 632.177373 
L 403.2 629.782545 
L 404.830939 628.817474 
L 406.461878 628.033896 
L 408.092818 627.44437 
L 409.723757 627.05611 
L 411.354696 626.871352 
L 412.985635 626.887661 
L 414.616575 627.098197 
L 416.247514 627.491944 
L 417.878453 628.05392 
L 419.509392 628.765366 
L 422.771271 630.543886 
L 432.556906 636.529451 
L 434.187845 637.260032 
L 435.818785 637.829647 
L 437.449724 638.218597 
L 439.080663 638.41685 
L 440.711602 638.42507 
L 442.342541 638.254357 
L 443.973481 637.924698 
L 447.235359 636.897922 
L 452.128177 634.896349 
L 457.020994 632.985368 
L 460.282873 632.0139 
L 463.544751 631.383172 
L 466.80663 631.125496 
L 470.068508 631.233911 
L 473.330387 631.668145 
L 476.592265 632.360547 
L 481.485083 633.686457 
L 488.00884 635.459147 
L 491.270718 636.13829 
L 494.532597 636.592539 
L 497.794475 636.794278 
L 501.056354 636.746167 
L 504.318232 636.474572 
L 507.58011 636.020325 
L 512.472928 635.099675 
L 527.151381 632.078755 
L 532.044199 631.46365 
L 535.306077 631.262379 
L 538.567956 631.250201 
L 541.829834 631.433334 
L 545.091713 631.805755 
L 548.353591 632.34932 
L 553.246409 633.418726 
L 567.924862 637.012504 
L 571.18674 637.558115 
L 574.448619 637.91428 
L 577.710497 638.056498 
L 580.972376 637.977437 
L 584.234254 637.687833 
L 587.496133 637.214732 
L 592.38895 636.249285 
L 608.698343 632.698353 
L 613.59116 632.024396 
L 618.483978 631.658582 
L 623.376796 631.614603 
L 628.269613 631.876699 
L 633.162431 632.407042 
L 638.055249 633.153327 
L 644.579006 634.380707 
L 667.412155 638.936778 
L 673.935912 639.909245 
L 680.459669 640.63719 
L 686.983425 641.103798 
L 693.507182 641.304026 
L 695.138122 641.312369 
L 695.138122 641.312369 
" style="fill:none;stroke:#fdbf6f;stroke-linecap:square;stroke-width:2;"/>
   </g>
   <g id="line2d_30">
    <path clip-path="url(#pad1aa5fa4c)" d="M 108 150.155612 
L 109.630939 150.476543 
L 111.261878 151.44528 
L 112.892818 153.079493 
L 114.523757 155.40806 
L 116.154696 158.470221 
L 117.785635 162.3144 
L 119.416575 166.996697 
L 121.047514 172.579075 
L 122.678453 179.127248 
L 124.309392 186.708299 
L 125.940331 195.388055 
L 127.571271 205.228254 
L 129.20221 216.283549 
L 130.833149 228.598398 
L 132.464088 242.203901 
L 134.095028 257.11464 
L 135.725967 273.325607 
L 137.356906 290.809264 
L 140.618785 329.355803 
L 143.880663 371.987057 
L 148.773481 440.66147 
L 153.666298 508.845601 
L 155.297238 529.829037 
L 156.928177 549.176663 
L 158.559116 566.325183 
L 160.190055 580.65222 
L 161.820994 591.566533 
L 163.451934 598.738787 
L 165.082873 602.413469 
L 166.713812 603.500429 
L 168.344751 603.256492 
L 169.975691 602.848191 
L 171.60663 603.125825 
L 173.237569 604.604971 
L 174.868508 607.5222 
L 176.499448 611.88521 
L 178.130387 617.488628 
L 181.392265 630.200283 
L 183.023204 634.993879 
L 184.654144 636.256979 
L 186.285083 632.993506 
L 187.916022 626.379231 
L 192.80884 601.934695 
L 194.439779 595.109347 
L 196.070718 589.669261 
L 197.701657 585.822614 
L 199.332597 583.670087 
L 200.963536 583.214845 
L 202.594475 584.370071 
L 204.225414 586.967607 
L 205.856354 590.76958 
L 207.487293 595.484123 
L 210.749171 606.343486 
L 214.01105 617.05646 
L 215.641989 621.808439 
L 217.272928 626.051681 
L 218.903867 629.814723 
L 220.534807 633.146373 
L 222.165746 636.022337 
L 223.796685 638.249515 
L 225.427624 639.432348 
L 227.058564 639.113021 
L 228.689503 637.092921 
L 230.320442 633.621804 
L 231.951381 629.240412 
L 235.21326 620.020879 
L 236.844199 616.111522 
L 238.475138 613.123976 
L 240.106077 611.278366 
L 241.737017 610.698773 
L 243.367956 611.413742 
L 244.998895 613.358263 
L 246.629834 616.376889 
L 248.260773 620.225709 
L 251.522652 628.964387 
L 253.153591 632.844764 
L 254.78453 635.534515 
L 256.41547 636.418927 
L 258.046409 635.282975 
L 259.677348 632.470613 
L 261.308287 628.627109 
L 264.570166 620.265139 
L 266.201105 616.680941 
L 267.832044 613.984073 
L 269.462983 612.473112 
L 271.093923 612.391354 
L 272.724862 613.910753 
L 274.355801 617.108176 
L 275.98674 621.934761 
L 277.61768 628.16945 
L 280.879558 642.312932 
L 282.510497 646.748381 
L 284.141436 645.423045 
L 285.772376 639.340878 
L 289.034254 624.73412 
L 290.665193 619.0411 
L 292.296133 615.295591 
L 293.927072 613.822383 
L 295.558011 614.755782 
L 297.18895 618.047966 
L 298.81989 623.464544 
L 300.450829 630.557469 
L 302.081768 638.551002 
L 303.712707 645.873865 
L 305.343646 648.961901 
L 306.974586 645.092765 
L 310.236464 630.374353 
L 311.867403 624.078188 
L 313.498343 619.586124 
L 315.129282 617.246545 
L 316.760221 617.206326 
L 318.39116 619.435399 
L 320.022099 623.725331 
L 321.653039 629.660425 
L 324.914917 642.927841 
L 326.545856 646.27753 
L 328.176796 644.144284 
L 329.807735 638.23626 
L 331.438674 631.457763 
L 333.069613 625.41022 
L 334.700552 620.913159 
L 336.331492 618.413043 
L 337.962431 618.112525 
L 339.59337 620.003314 
L 341.224309 623.863717 
L 342.855249 629.224965 
L 344.486188 635.269307 
L 346.117127 640.587561 
L 347.748066 643.031012 
L 349.379006 641.173106 
L 351.009945 636.312307 
L 352.640884 630.644137 
L 354.271823 625.60323 
L 355.902762 621.976266 
L 357.533702 620.176188 
L 359.164641 620.365928 
L 360.79558 622.504227 
L 362.426519 626.354861 
L 364.057459 631.460892 
L 365.688398 637.050524 
L 367.319337 641.822425 
L 368.950276 643.877572 
L 370.581215 642.077584 
L 372.212155 637.628536 
L 373.843094 632.475954 
L 375.474033 627.935435 
L 377.104972 624.771836 
L 378.735912 623.422257 
L 380.366851 624.092632 
L 381.99779 626.78259 
L 383.628729 631.269676 
L 386.890608 643.026857 
L 388.521547 647.064351 
L 390.152486 646.268765 
L 391.783425 641.153387 
L 393.414365 634.667805 
L 395.045304 628.715492 
L 396.676243 624.29701 
L 398.307182 621.9796 
L 399.938122 622.050777 
L 401.569061 624.550624 
L 403.2 629.256558 
L 404.830939 635.607434 
L 406.461878 642.429404 
L 408.092818 647.108372 
L 409.723757 645.890467 
L 411.354696 639.632471 
L 412.985635 632.040634 
L 414.616575 625.20478 
L 416.247514 620.167668 
L 417.878453 617.511802 
L 419.509392 617.523385 
L 421.140331 620.228411 
L 422.771271 625.386993 
L 424.40221 632.440655 
L 426.033149 640.296887 
L 427.664088 646.527193 
L 429.295028 646.713034 
L 430.925967 640.612028 
L 432.556906 632.624025 
L 434.187845 625.306475 
L 435.818785 619.822767 
L 437.449724 616.788563 
L 439.080663 616.503976 
L 440.711602 619.012138 
L 442.342541 624.112699 
L 443.973481 631.347468 
L 447.235359 648.001226 
L 448.866298 650.915476 
L 450.497238 645.446719 
L 453.759116 629.370955 
L 455.390055 623.343735 
L 457.020994 619.664772 
L 458.651934 618.634351 
L 460.282873 620.320666 
L 461.913812 624.578407 
L 463.544751 631.049668 
L 466.80663 647.62589 
L 468.437569 653.106887 
L 470.068508 649.557411 
L 473.330387 633.178477 
L 474.961326 626.309819 
L 476.592265 621.414237 
L 478.223204 618.832261 
L 479.854144 618.703163 
L 481.485083 620.985173 
L 483.116022 625.459418 
L 484.746961 631.715401 
L 488.00884 646.207103 
L 489.639779 650.030916 
L 491.270718 647.124362 
L 492.901657 640.24423 
L 494.532597 632.794328 
L 496.163536 626.186909 
L 497.794475 621.074796 
L 499.425414 617.810591 
L 501.056354 616.564817 
L 502.687293 617.361488 
L 504.318232 620.091552 
L 505.949171 624.516302 
L 507.58011 630.254627 
L 510.841989 642.944419 
L 512.472928 647.08351 
L 514.103867 646.829742 
L 515.734807 642.54743 
L 518.996685 630.88802 
L 520.627624 625.916986 
L 522.258564 622.193898 
L 523.889503 619.940662 
L 525.520442 619.254314 
L 527.151381 620.134001 
L 528.78232 622.494556 
L 530.41326 626.17369 
L 532.044199 630.93177 
L 536.937017 647.320495 
L 538.567956 650.212191 
L 540.198895 649.207914 
L 541.829834 645.188377 
L 545.091713 635.078394 
L 546.722652 630.626754 
L 548.353591 627.035141 
L 549.98453 624.463937 
L 551.61547 622.998154 
L 553.246409 622.666222 
L 554.877348 623.449123 
L 556.508287 625.28533 
L 558.139227 628.072828 
L 559.770166 631.667015 
L 561.401105 635.870086 
L 564.662983 644.811195 
L 566.293923 648.321847 
L 567.924862 649.72524 
L 569.555801 648.257046 
L 571.18674 644.646575 
L 577.710497 626.466857 
L 579.341436 622.854965 
L 580.972376 619.921562 
L 582.603315 617.732617 
L 584.234254 616.325951 
L 585.865193 615.715435 
L 587.496133 615.893787 
L 589.127072 616.834722 
L 590.758011 618.494743 
L 592.38895 620.814577 
L 594.01989 623.720072 
L 595.650829 627.122105 
L 598.912707 634.968322 
L 602.174586 643.128874 
L 603.805525 646.642669 
L 605.436464 649.101673 
L 607.067403 649.854232 
L 608.698343 648.684439 
L 610.329282 646.090081 
L 611.960221 642.749794 
L 616.853039 632.079145 
L 618.483978 628.895077 
L 620.114917 626.037242 
L 621.745856 623.546759 
L 623.376796 621.449346 
L 625.007735 619.759266 
L 626.638674 618.48179 
L 628.269613 617.614873 
L 629.900552 617.150415 
L 631.531492 617.075279 
L 633.162431 617.372149 
L 634.79337 618.020292 
L 636.424309 618.996242 
L 638.055249 620.274423 
L 639.686188 621.827711 
L 641.317127 623.627952 
L 642.948066 625.646421 
L 646.209945 630.22273 
L 649.471823 635.329895 
L 654.364641 643.520802 
L 660.888398 654.428481 
L 664.150276 659.370232 
L 665.781215 661.264464 
L 667.412155 661.344091 
L 669.043094 659.683185 
L 673.935912 653.885009 
L 677.19779 650.499507 
L 680.459669 647.638551 
L 682.090608 646.415238 
L 683.721547 645.333066 
L 685.352486 644.393448 
L 686.983425 643.597347 
L 688.614365 642.945404 
L 690.245304 642.438031 
L 691.876243 642.075482 
L 693.507182 641.857904 
L 695.138122 641.785371 
L 695.138122 641.785371 
" style="fill:none;stroke:#bfe5a0;stroke-linecap:square;stroke-width:2;"/>
   </g>
   <g id="line2d_31">
    <path clip-path="url(#pad1aa5fa4c)" d="M 108 114.33719 
L 111.261878 114.526186 
L 112.892818 114.830811 
L 114.523757 115.383331 
L 116.154696 116.306177 
L 117.785635 117.751559 
L 119.416575 119.89751 
L 121.047514 122.943003 
L 122.678453 127.102136 
L 124.309392 132.597402 
L 125.940331 139.652087 
L 127.571271 148.481858 
L 129.20221 159.285673 
L 130.833149 172.236164 
L 132.464088 187.469716 
L 134.095028 205.07651 
L 135.725967 225.090856 
L 137.356906 247.482186 
L 138.987845 272.147119 
L 142.249724 327.483471 
L 145.511602 388.622556 
L 150.40442 482.496787 
L 152.035359 511.774619 
L 153.666298 538.79087 
L 155.297238 562.736239 
L 156.928177 582.822024 
L 158.559116 598.426428 
L 160.190055 609.419964 
L 161.820994 616.557371 
L 163.451934 621.416861 
L 168.344751 634.35762 
L 169.975691 636.145507 
L 171.60663 632.628782 
L 173.237569 623.71733 
L 174.868508 611.685127 
L 178.130387 586.259079 
L 179.761326 575.658341 
L 181.392265 567.847558 
L 183.023204 563.577653 
L 184.654144 563.357585 
L 186.285083 567.428684 
L 187.916022 575.742592 
L 189.546961 587.944427 
L 191.177901 603.345785 
L 194.439779 637.939467 
L 196.070718 646.046626 
L 197.701657 635.312663 
L 199.332597 619.142207 
L 200.963536 604.0837 
L 202.594475 591.91966 
L 204.225414 583.447079 
L 205.856354 579.016848 
L 207.487293 578.646301 
L 209.118232 582.074948 
L 210.749171 588.820823 
L 212.38011 598.241408 
L 214.01105 609.582476 
L 217.272928 634.184471 
L 218.903867 643.646666 
L 220.534807 644.804135 
L 222.165746 637.257578 
L 225.427624 617.658706 
L 227.058564 610.108756 
L 228.689503 605.375518 
L 230.320442 604.068127 
L 231.951381 606.533928 
L 233.58232 612.784302 
L 235.21326 622.387606 
L 236.844199 634.218294 
L 238.475138 645.220392 
L 240.106077 646.359076 
L 241.737017 635.949525 
L 243.367956 623.670401 
L 244.998895 613.427515 
L 246.629834 606.760161 
L 248.260773 604.410318 
L 249.891713 606.563819 
L 251.522652 612.892899 
L 253.153591 622.538928 
L 254.78453 633.894058 
L 256.41547 643.400483 
L 258.046409 643.68391 
L 259.677348 634.76407 
L 261.308287 624.186991 
L 262.939227 615.544972 
L 264.570166 610.409779 
L 266.201105 609.626446 
L 267.832044 613.539806 
L 269.462983 621.958057 
L 272.724862 646.600398 
L 274.355801 648.363057 
L 275.98674 635.788112 
L 277.61768 622.212527 
L 279.248619 612.16304 
L 280.879558 607.615403 
L 282.510497 609.554038 
L 284.141436 618.020615 
L 285.772376 631.982692 
L 287.403315 648.411306 
L 289.034254 649.891269 
L 290.665193 633.050297 
L 292.296133 617.586845 
L 293.927072 607.551528 
L 295.558011 604.706405 
L 297.18895 609.613204 
L 298.81989 621.617179 
L 300.450829 638.657353 
L 302.081768 653.350164 
L 303.712707 641.480144 
L 305.343646 624.086436 
L 306.974586 611.379267 
L 308.605525 605.827178 
L 310.236464 608.358606 
L 311.867403 618.579406 
L 313.498343 634.717653 
L 315.129282 651.992154 
L 316.760221 646.190069 
L 318.39116 628.768882 
L 320.022099 615.52722 
L 321.653039 609.399709 
L 323.283978 611.468595 
L 324.914917 621.388602 
L 328.176796 654.141731 
L 329.807735 645.51465 
L 331.438674 628.530535 
L 333.069613 616.531641 
L 334.700552 612.071128 
L 336.331492 615.950145 
L 337.962431 627.425565 
L 339.59337 644.002467 
L 341.224309 654.457804 
L 344.486188 624.132149 
L 346.117127 615.065539 
L 347.748066 613.971377 
L 349.379006 620.973679 
L 351.009945 634.493872 
L 352.640884 649.811329 
L 354.271823 647.126113 
L 355.902762 631.499438 
L 357.533702 619.262737 
L 359.164641 613.932364 
L 360.79558 616.55502 
L 362.426519 626.45729 
L 364.057459 640.871702 
L 365.688398 649.861767 
L 367.319337 638.960531 
L 368.950276 624.937401 
L 370.581215 615.963731 
L 372.212155 614.375618 
L 373.843094 620.519089 
L 375.474033 632.919879 
L 377.104972 646.797022 
L 378.735912 645.835324 
L 380.366851 631.664726 
L 381.99779 619.719971 
L 383.628729 614.380972 
L 385.259669 617.021382 
L 386.890608 627.148546 
L 388.521547 642.06435 
L 390.152486 650.864473 
L 391.783425 638.454288 
L 393.414365 624.182587 
L 395.045304 615.755085 
L 396.676243 615.41456 
L 398.307182 623.369905 
L 401.569061 652.860954 
L 403.2 644.412911 
L 404.830939 628.282757 
L 406.461878 617.381902 
L 408.092818 614.574773 
L 409.723757 620.563559 
L 411.354696 634.182402 
L 412.985635 651.657597 
L 414.616575 649.278892 
L 416.247514 631.624664 
L 417.878453 618.586582 
L 419.509392 613.525856 
L 421.140331 617.555516 
L 422.771271 629.942876 
L 424.40221 647.91693 
L 426.033149 653.618096 
L 427.664088 634.986092 
L 429.295028 619.801396 
L 430.925967 612.243451 
L 432.556906 613.872624 
L 434.187845 624.423602 
L 435.818785 641.761831 
L 437.449724 656.93775 
L 440.711602 622.592027 
L 442.342541 611.988137 
L 443.973481 610.334247 
L 445.60442 617.950898 
L 447.235359 633.37314 
L 448.866298 652.677288 
L 450.497238 648.08417 
L 452.128177 628.884147 
L 453.759116 614.825626 
L 455.390055 608.904275 
L 457.020994 612.16531 
L 458.651934 623.958427 
L 460.282873 641.939498 
L 461.913812 656.777722 
L 465.175691 622.638557 
L 466.80663 611.896321 
L 468.437569 609.531397 
L 470.068508 615.84244 
L 471.699448 629.618341 
L 473.330387 648.074529 
L 474.961326 654.383817 
L 476.592265 636.133071 
L 478.223204 620.97192 
L 479.854144 612.429039 
L 481.485083 611.819496 
L 483.116022 619.090327 
L 484.746961 632.905855 
L 486.377901 650.54983 
L 488.00884 653.848904 
L 489.639779 636.559369 
L 491.270718 622.4991 
L 492.901657 614.47501 
L 494.532597 613.60691 
L 496.163536 619.866166 
L 497.794475 632.141946 
L 499.425414 648.187847 
L 501.056354 656.2821 
L 502.687293 640.838037 
L 504.318232 626.613334 
L 505.949171 617.243837 
L 507.58011 614.014071 
L 509.21105 617.227259 
L 510.841989 626.269769 
L 514.103867 653.635568 
L 515.734807 649.81734 
L 517.365746 635.431044 
L 518.996685 623.387408 
L 520.627624 615.888141 
L 522.258564 613.834184 
L 523.889503 617.335311 
L 525.520442 625.770362 
L 528.78232 650.123192 
L 530.41326 650.531818 
L 533.675138 626.729215 
L 535.306077 618.186251 
L 536.937017 613.971703 
L 538.567956 614.455324 
L 540.198895 619.437059 
L 541.829834 628.186286 
L 545.091713 649.799766 
L 546.722652 649.76375 
L 549.98453 628.988302 
L 551.61547 620.726812 
L 553.246409 615.830506 
L 554.877348 614.718554 
L 556.508287 617.394736 
L 558.139227 623.503238 
L 559.770166 632.348904 
L 561.401105 642.785579 
L 563.032044 652.050474 
L 564.662983 651.202751 
L 567.924862 632.060784 
L 569.555801 624.104198 
L 571.18674 618.729399 
L 572.81768 616.318122 
L 574.448619 616.976847 
L 576.079558 620.578878 
L 577.710497 626.79202 
L 579.341436 635.095414 
L 582.603315 654.03319 
L 584.234254 654.907869 
L 585.865193 646.093745 
L 587.496133 636.607577 
L 589.127072 628.275226 
L 590.758011 621.713798 
L 592.38895 617.26682 
L 594.01989 615.1125 
L 595.650829 615.289965 
L 597.281768 617.714548 
L 598.912707 622.192688 
L 600.543646 628.436191 
L 602.174586 636.06831 
L 605.436464 653.019509 
L 607.067403 656.693825 
L 608.698343 650.295118 
L 611.960221 633.395275 
L 613.59116 625.964196 
L 615.222099 619.689288 
L 616.853039 614.744828 
L 618.483978 611.230451 
L 620.114917 609.184095 
L 621.745856 608.590353 
L 623.376796 609.388099 
L 625.007735 611.478164 
L 626.638674 614.731016 
L 628.269613 618.994101 
L 629.900552 624.098295 
L 631.531492 629.86245 
L 634.79337 642.574994 
L 636.424309 649.007099 
L 638.055249 654.699064 
L 639.686188 657.057231 
L 641.317127 653.660933 
L 647.840884 632.041554 
L 649.471823 627.421504 
L 651.102762 623.275728 
L 652.733702 619.614865 
L 654.364641 616.435073 
L 655.99558 613.721813 
L 657.626519 611.452512 
L 659.257459 609.598671 
L 660.888398 608.127612 
L 662.519337 607.003953 
L 664.150276 606.190865 
L 665.781215 605.651109 
L 667.412155 605.347887 
L 669.043094 605.245517 
L 670.674033 605.309955 
L 673.935912 605.813414 
L 677.19779 606.630197 
L 685.352486 608.901744 
L 688.614365 609.580894 
L 691.876243 610.013482 
L 695.138122 610.161785 
L 695.138122 610.161785 
" style="fill:none;stroke:#5e4fa2;stroke-linecap:square;stroke-width:2;"/>
   </g>
   <g id="line2d_32">
    <path clip-path="url(#pad1aa5fa4c)" d="M 108 128.183239 
L 109.630939 128.690694 
L 111.261878 130.212718 
L 112.892818 132.748261 
L 114.523757 136.295468 
L 116.154696 140.851524 
L 117.785635 146.412441 
L 119.416575 152.972792 
L 121.047514 160.525389 
L 122.678453 169.060923 
L 124.309392 178.567554 
L 125.940331 189.030478 
L 127.571271 200.431459 
L 129.20221 212.748348 
L 132.464088 240.018675 
L 135.725967 270.566861 
L 138.987845 304.023263 
L 142.249724 339.906518 
L 147.142541 396.902231 
L 155.297238 492.83524 
L 158.559116 527.577681 
L 160.190055 543.088727 
L 161.820994 556.794535 
L 163.451934 568.160563 
L 165.082873 576.616181 
L 166.713812 581.70289 
L 168.344751 583.295794 
L 169.975691 581.741988 
L 171.60663 577.76401 
L 173.237569 572.206853 
L 179.761326 546.948531 
L 181.392265 541.776638 
L 183.023204 537.453918 
L 184.654144 534.06277 
L 186.285083 531.645286 
L 187.916022 530.211631 
L 189.546961 529.745918 
L 191.177901 530.210535 
L 192.80884 531.54952 
L 194.439779 533.691417 
L 196.070718 536.551848 
L 197.701657 540.036003 
L 199.332597 544.041174 
L 202.594475 553.180445 
L 210.749171 577.721187 
L 214.01105 586.508406 
L 217.272928 594.302117 
L 220.534807 601.284858 
L 228.689503 617.958578 
L 231.951381 625.271834 
L 235.21326 633.121102 
L 243.367956 653.332326 
L 244.998895 656.733687 
L 246.629834 658.907127 
L 248.260773 658.448434 
L 249.891713 656.082284 
L 254.78453 647.580845 
L 258.046409 642.389171 
L 266.201105 629.909388 
L 269.462983 624.357802 
L 274.355801 615.358349 
L 277.61768 609.343337 
L 280.879558 603.808122 
L 282.510497 601.357652 
L 284.141436 599.185563 
L 285.772376 597.335373 
L 287.403315 595.843993 
L 289.034254 594.741122 
L 290.665193 594.048982 
L 292.296133 593.782349 
L 293.927072 593.948846 
L 295.558011 594.549458 
L 297.18895 595.579214 
L 298.81989 597.027997 
L 300.450829 598.88142 
L 302.081768 601.121725 
L 303.712707 603.728642 
L 305.343646 606.680167 
L 306.974586 609.953214 
L 308.605525 613.524107 
L 311.867403 621.463431 
L 315.129282 630.303749 
L 318.39116 639.839463 
L 324.914917 659.483337 
L 326.545856 660.268595 
L 328.176796 655.916315 
L 334.700552 636.531294 
L 337.962431 627.812342 
L 339.59337 623.844054 
L 341.224309 620.177459 
L 342.855249 616.838342 
L 344.486188 613.848282 
L 346.117127 611.224438 
L 347.748066 608.979428 
L 349.379006 607.121346 
L 351.009945 605.6539 
L 352.640884 604.576692 
L 354.271823 603.885609 
L 355.902762 603.573308 
L 357.533702 603.629777 
L 359.164641 604.042926 
L 360.79558 604.799192 
L 362.426519 605.884109 
L 364.057459 607.282821 
L 365.688398 608.980505 
L 367.319337 610.962693 
L 368.950276 613.215462 
L 370.581215 615.725503 
L 372.212155 618.480061 
L 375.474033 624.673345 
L 378.735912 631.695381 
L 381.99779 639.434316 
L 385.259669 647.742546 
L 388.521547 656.316117 
L 390.152486 660.132182 
L 391.783425 660.070687 
L 393.414365 656.16439 
L 401.569061 634.162594 
L 404.830939 626.134265 
L 408.092818 618.970856 
L 409.723757 615.786493 
L 411.354696 612.902713 
L 412.985635 610.343923 
L 414.616575 608.132391 
L 416.247514 606.288043 
L 417.878453 604.828265 
L 419.509392 603.767729 
L 421.140331 603.118223 
L 422.771271 602.888506 
L 424.40221 603.084173 
L 426.033149 603.707548 
L 427.664088 604.757595 
L 429.295028 606.229846 
L 430.925967 608.116363 
L 432.556906 610.405725 
L 434.187845 613.083034 
L 435.818785 616.129951 
L 437.449724 619.524752 
L 439.080663 623.242379 
L 442.342541 631.52927 
L 445.60442 640.720061 
L 450.497238 655.257455 
L 452.128177 659.334034 
L 453.759116 659.106082 
L 455.390055 654.923666 
L 461.913812 635.910684 
L 465.175691 627.317478 
L 468.437569 619.769763 
L 470.068508 616.452302 
L 471.699448 613.466132 
L 473.330387 610.827199 
L 474.961326 608.54806 
L 476.592265 606.637945 
L 478.223204 605.102836 
L 479.854144 603.945576 
L 481.485083 603.165999 
L 483.116022 602.761081 
L 484.746961 602.725113 
L 486.377901 603.049886 
L 488.00884 603.72489 
L 489.639779 604.737515 
L 491.270718 606.07326 
L 492.901657 607.715938 
L 494.532597 609.647886 
L 496.163536 611.85016 
L 497.794475 614.302739 
L 501.056354 619.874439 
L 504.318232 626.188181 
L 507.58011 633.063053 
L 512.472928 644.027078 
L 518.996685 658.74749 
L 520.627624 661.519345 
L 522.258564 660.134768 
L 532.044199 640.770694 
L 535.306077 635.128844 
L 538.567956 630.041986 
L 541.829834 625.532029 
L 545.091713 621.605074 
L 548.353591 618.255893 
L 551.61547 615.471632 
L 554.877348 613.234804 
L 556.508287 612.315502 
L 558.139227 611.525477 
L 559.770166 610.862074 
L 561.401105 610.32261 
L 563.032044 609.904377 
L 564.662983 609.604635 
L 566.293923 609.420604 
L 569.555801 609.388278 
L 572.81768 609.783834 
L 576.079558 610.582211 
L 579.341436 611.756607 
L 582.603315 613.278471 
L 585.865193 615.117739 
L 589.127072 617.243258 
L 592.38895 619.623302 
L 595.650829 622.2261 
L 600.543646 626.479476 
L 605.436464 631.060638 
L 611.960221 637.507992 
L 628.269613 653.850608 
L 631.531492 656.817755 
L 633.162431 658.165155 
L 634.79337 659.334004 
L 636.424309 660.171312 
L 638.055249 660.444524 
L 639.686188 660.059995 
L 641.317127 659.218575 
L 644.579006 656.997062 
L 652.733702 651.179919 
L 657.626519 648.049637 
L 662.519337 645.289442 
L 665.781215 643.666441 
L 669.043094 642.21995 
L 672.304972 640.950079 
L 675.566851 639.855703 
L 678.828729 638.934965 
L 682.090608 638.185679 
L 685.352486 637.605644 
L 688.614365 637.192896 
L 691.876243 636.945899 
L 695.138122 636.863678 
L 695.138122 636.863678 
" style="fill:none;stroke:#fdbf6f;stroke-dasharray:7.4,3.2;stroke-dashoffset:0;stroke-width:2;"/>
   </g>
   <g id="line2d_33">
    <path clip-path="url(#pad1aa5fa4c)" d="M 108 128.198511 
L 109.630939 128.296353 
L 111.261878 128.599535 
L 112.892818 129.136804 
L 114.523757 129.955356 
L 116.154696 131.119765 
L 117.785635 132.710475 
L 119.416575 134.821888 
L 121.047514 137.560025 
L 122.678453 141.039796 
L 124.309392 145.381896 
L 125.940331 150.709345 
L 127.571271 157.143729 
L 129.20221 164.80117 
L 130.833149 173.788096 
L 132.464088 184.196875 
L 134.095028 196.101381 
L 135.725967 209.552592 
L 137.356906 224.574288 
L 138.987845 241.158957 
L 140.618785 259.26399 
L 143.880663 299.669068 
L 147.142541 344.627686 
L 155.297238 462.634433 
L 156.928177 484.076036 
L 158.559116 503.68339 
L 160.190055 520.968212 
L 161.820994 535.526394 
L 163.451934 547.13812 
L 165.082873 555.87712 
L 166.713812 562.168782 
L 168.344751 566.738848 
L 171.60663 574.187519 
L 173.237569 578.618217 
L 174.868508 584.255068 
L 176.499448 591.391384 
L 178.130387 600.124833 
L 179.761326 610.364331 
L 184.654144 643.990453 
L 186.285083 646.270985 
L 187.916022 637.54817 
L 194.439779 586.953096 
L 196.070718 576.863027 
L 197.701657 568.593125 
L 199.332597 562.312431 
L 200.963536 558.098885 
L 202.594475 555.945672 
L 204.225414 555.770203 
L 205.856354 557.427165 
L 207.487293 560.725774 
L 209.118232 565.450403 
L 210.749171 571.382877 
L 212.38011 578.32385 
L 214.01105 586.110045 
L 215.641989 594.624038 
L 218.903867 613.583458 
L 222.165746 634.919977 
L 225.427624 657.935206 
L 227.058564 656.379897 
L 230.320442 632.753043 
L 231.951381 621.632222 
L 233.58232 611.509248 
L 235.21326 602.743362 
L 236.844199 595.660996 
L 238.475138 590.534202 
L 240.106077 587.56139 
L 241.737017 586.853121 
L 243.367956 588.42439 
L 244.998895 592.194051 
L 246.629834 597.991198 
L 248.260773 605.567348 
L 249.891713 614.61182 
L 253.153591 635.606756 
L 254.78453 646.532445 
L 256.41547 655.41263 
L 258.046409 652.764471 
L 262.939227 623.388636 
L 264.570166 614.917264 
L 266.201105 607.780429 
L 267.832044 602.262396 
L 269.462983 598.637079 
L 271.093923 597.155231 
L 272.724862 598.021656 
L 274.355801 601.368292 
L 275.98674 607.227907 
L 277.61768 615.512283 
L 279.248619 625.997308 
L 280.879558 638.312583 
L 282.510497 651.887277 
L 284.141436 659.608191 
L 287.403315 631.812007 
L 289.034254 619.150706 
L 290.665193 608.461931 
L 292.296133 600.337674 
L 293.927072 595.240994 
L 295.558011 593.479675 
L 297.18895 595.18641 
L 298.81989 600.30881 
L 300.450829 608.609915 
L 302.081768 619.678213 
L 303.712707 632.942374 
L 305.343646 647.655817 
L 306.974586 660.640102 
L 308.605525 647.790638 
L 310.236464 633.187623 
L 311.867403 620.119141 
L 313.498343 609.352154 
L 315.129282 601.483257 
L 316.760221 596.951847 
L 318.39116 596.020837 
L 320.022099 598.760268 
L 321.653039 605.038913 
L 323.283978 614.525465 
L 324.914917 626.69894 
L 326.545856 640.860089 
L 328.176796 655.994808 
L 329.807735 654.639559 
L 331.438674 639.697735 
L 333.069613 626.050859 
L 334.700552 614.669264 
L 336.331492 606.253757 
L 337.962431 601.313382 
L 339.59337 600.14178 
L 341.224309 602.798781 
L 342.855249 609.105959 
L 344.486188 618.657856 
L 346.117127 630.848428 
L 347.748066 644.910613 
L 349.379006 659.957983 
L 351.009945 652.116868 
L 352.640884 637.852629 
L 354.271823 625.303687 
L 355.902762 615.214165 
L 357.533702 608.1668 
L 359.164641 604.551739 
L 360.79558 604.547016 
L 362.426519 608.111942 
L 364.057459 614.992764 
L 365.688398 624.738166 
L 367.319337 636.716191 
L 368.950276 650.066779 
L 370.581215 659.870921 
L 372.212155 647.826443 
L 373.843094 634.848207 
L 375.474033 623.53631 
L 377.104972 614.667257 
L 378.735912 608.805563 
L 380.366851 606.326405 
L 381.99779 607.400065 
L 383.628729 611.980477 
L 385.259669 619.803855 
L 386.890608 630.397616 
L 388.521547 643.08955 
L 390.152486 656.828838 
L 391.783425 654.861348 
L 393.414365 641.004819 
L 395.045304 628.319412 
L 396.676243 617.805239 
L 398.307182 610.185718 
L 399.938122 605.988571 
L 401.569061 605.520277 
L 403.2 608.845064 
L 404.830939 615.777966 
L 406.461878 625.894043 
L 408.092818 638.553646 
L 409.723757 652.940982 
L 411.354696 659.070118 
L 412.985635 644.09613 
L 414.616575 630.302903 
L 416.247514 618.617887 
L 417.878453 609.826119 
L 419.509392 604.524831 
L 421.140331 603.082653 
L 422.771271 605.613633 
L 424.40221 611.968108 
L 426.033149 621.740809 
L 427.664088 634.293889 
L 429.295028 648.776382 
L 430.925967 661.501875 
L 434.187845 632.573877 
L 435.818785 620.015553 
L 437.449724 610.244433 
L 439.080663 603.904093 
L 440.711602 601.407323 
L 442.342541 602.912054 
L 443.973481 608.312276 
L 445.60442 617.245205 
L 447.235359 629.111216 
L 450.497238 657.626618 
L 452.128177 652.266648 
L 453.759116 637.631546 
L 455.390055 624.405314 
L 457.020994 613.59953 
L 458.651934 605.899873 
L 460.282873 601.766398 
L 461.913812 601.423703 
L 463.544751 604.854696 
L 465.175691 611.8073 
L 466.80663 621.813981 
L 468.437569 634.218244 
L 470.068508 648.167832 
L 471.699448 660.456834 
L 473.330387 648.694161 
L 474.961326 635.011071 
L 476.592265 622.959605 
L 478.223204 613.287328 
L 479.854144 606.521007 
L 481.485083 602.996874 
L 483.116022 602.855732 
L 484.746961 606.043894 
L 486.377901 612.323944 
L 488.00884 621.29496 
L 489.639779 632.420366 
L 492.901657 658.442969 
L 494.532597 654.981923 
L 496.163536 642.037206 
L 497.794475 630.298766 
L 499.425414 620.35911 
L 501.056354 612.675284 
L 502.687293 607.573247 
L 504.318232 605.239455 
L 505.949171 605.718414 
L 507.58011 608.917225 
L 509.21105 614.616621 
L 510.841989 622.487445 
L 512.472928 632.110983 
L 515.734807 654.592183 
L 517.365746 660.253543 
L 520.627624 638.159098 
L 522.258564 628.567662 
L 523.889503 620.540257 
L 525.520442 614.359135 
L 527.151381 610.216008 
L 528.78232 608.211046 
L 530.41326 608.354838 
L 532.044199 610.573658 
L 533.675138 614.717562 
L 535.306077 620.570446 
L 536.937017 627.860664 
L 538.567956 636.268739 
L 541.829834 654.702865 
L 543.460773 659.224185 
L 545.091713 651.313843 
L 548.353591 634.006268 
L 549.98453 626.59899 
L 551.61547 620.365489 
L 553.246409 615.464729 
L 554.877348 612.003118 
L 556.508287 610.038238 
L 558.139227 609.581586 
L 559.770166 610.601719 
L 561.401105 613.028053 
L 563.032044 616.755227 
L 564.662983 621.647808 
L 566.293923 627.544883 
L 567.924862 634.263492 
L 571.18674 649.291369 
L 572.81768 656.802853 
L 574.448619 659.118456 
L 576.079558 652.390532 
L 579.341436 637.63363 
L 580.972376 630.939456 
L 582.603315 624.931656 
L 584.234254 619.719167 
L 585.865193 615.383258 
L 587.496133 611.980806 
L 589.127072 609.545949 
L 590.758011 608.091517 
L 592.38895 607.610599 
L 594.01989 608.078326 
L 595.650829 609.453841 
L 597.281768 611.682432 
L 598.912707 614.697745 
L 600.543646 618.424031 
L 602.174586 622.778366 
L 603.805525 627.672808 
L 607.067403 638.717235 
L 610.329282 650.82694 
L 613.59116 663.26281 
L 615.222099 657.729061 
L 618.483978 645.835404 
L 621.745856 634.935263 
L 623.376796 629.971105 
L 625.007735 625.376009 
L 626.638674 621.174562 
L 628.269613 617.384296 
L 629.900552 614.01607 
L 631.531492 611.074522 
L 633.162431 608.558584 
L 634.79337 606.462027 
L 636.424309 604.774041 
L 638.055249 603.479823 
L 639.686188 602.561167 
L 641.317127 601.997044 
L 642.948066 601.764164 
L 644.579006 601.83751 
L 646.209945 602.190837 
L 647.840884 602.797138 
L 649.471823 603.629059 
L 651.102762 604.65928 
L 652.733702 605.860836 
L 655.99558 608.673561 
L 659.257459 611.868371 
L 672.304972 625.221874 
L 675.566851 628.094212 
L 678.828729 630.613038 
L 682.090608 632.727674 
L 685.352486 634.40213 
L 688.614365 635.612368 
L 690.245304 636.038502 
L 691.876243 636.343645 
L 693.507182 636.527026 
L 695.138122 636.588201 
L 695.138122 636.588201 
" style="fill:none;stroke:#bfe5a0;stroke-dasharray:7.4,3.2;stroke-dashoffset:0;stroke-width:2;"/>
   </g>
   <g id="line2d_34">
    <path clip-path="url(#pad1aa5fa4c)" d="M 108 128.185744 
L 109.630939 127.874299 
L 111.261878 126.963312 
L 112.892818 125.522418 
L 114.523757 123.666275 
L 119.416575 117.37705 
L 121.047514 115.812604 
L 122.678453 114.973429 
L 124.309392 115.165257 
L 125.940331 116.702685 
L 127.571271 119.899684 
L 129.20221 125.059127 
L 130.833149 132.461473 
L 132.464088 142.352814 
L 134.095028 154.932576 
L 135.725967 170.34123 
L 137.356906 188.648442 
L 138.987845 209.842166 
L 140.618785 233.819242 
L 142.249724 260.37811 
L 145.511602 319.919176 
L 153.666298 480.71396 
L 155.297238 509.316286 
L 156.928177 535.067197 
L 158.559116 557.493752 
L 160.190055 576.453333 
L 161.820994 592.273635 
L 163.451934 605.797135 
L 166.713812 630.805175 
L 169.975691 658.632328 
L 171.60663 649.226265 
L 174.868508 611.541029 
L 178.130387 574.163133 
L 179.761326 558.180411 
L 181.392265 545.350236 
L 183.023204 536.547258 
L 184.654144 532.454012 
L 186.285083 533.50465 
L 187.916022 539.844388 
L 189.546961 551.308033 
L 191.177901 567.419635 
L 192.80884 587.412802 
L 194.439779 610.263855 
L 196.070718 634.679498 
L 197.701657 657.060019 
L 199.332597 641.722153 
L 200.963536 619.756771 
L 202.594475 600.547856 
L 204.225414 585.111033 
L 205.856354 574.030823 
L 207.487293 567.592007 
L 209.118232 565.814851 
L 210.749171 568.499664 
L 212.38011 575.282712 
L 214.01105 585.692651 
L 215.641989 599.194108 
L 217.272928 615.207775 
L 220.534807 652.158125 
L 222.165746 655.500016 
L 223.796685 636.651842 
L 225.427624 619.371801 
L 227.058564 604.792366 
L 228.689503 593.986674 
L 230.320442 587.881339 
L 231.951381 587.136133 
L 233.58232 592.034397 
L 235.21326 602.40484 
L 236.844199 617.590199 
L 238.475138 636.47033 
L 240.106077 657.496039 
L 241.737017 648.040257 
L 243.367956 627.851609 
L 244.998895 610.716257 
L 246.629834 598.087631 
L 248.260773 590.994679 
L 249.891713 589.95804 
L 251.522652 594.955074 
L 253.153591 605.437816 
L 254.78453 620.382787 
L 258.046409 655.137924 
L 259.677348 646.084322 
L 261.308287 628.411605 
L 262.939227 613.279901 
L 264.570166 602.520509 
L 266.201105 597.292779 
L 267.832044 598.297426 
L 269.462983 605.706277 
L 271.093923 619.079123 
L 272.724862 637.318584 
L 274.355801 658.624647 
L 275.98674 646.101245 
L 277.61768 625.358694 
L 279.248619 608.69059 
L 280.879558 598.287179 
L 282.510497 595.6742 
L 284.141436 601.456948 
L 285.772376 615.164041 
L 287.403315 635.212165 
L 289.034254 658.201421 
L 290.665193 642.49778 
L 292.296133 620.213246 
L 293.927072 603.375639 
L 295.558011 594.466388 
L 297.18895 594.84472 
L 298.81989 604.583937 
L 300.450829 622.426639 
L 302.081768 645.853718 
L 303.712707 654.4364 
L 305.343646 630.030457 
L 306.974586 610.001803 
L 308.605525 597.585978 
L 310.236464 594.641877 
L 311.867403 601.650615 
L 313.498343 617.631452 
L 315.129282 640.230511 
L 316.760221 659.746506 
L 318.39116 635.219955 
L 320.022099 614.186923 
L 321.653039 600.734584 
L 323.283978 596.990445 
L 324.914917 603.576739 
L 326.545856 619.492917 
L 328.176796 642.208003 
L 329.807735 658.176725 
L 331.438674 633.587613 
L 333.069613 613.499661 
L 334.700552 601.650237 
L 336.331492 600.005572 
L 337.962431 608.834134 
L 339.59337 626.654297 
L 341.224309 650.44972 
L 342.855249 650.828616 
L 344.486188 627.386985 
L 346.117127 610.209058 
L 347.748066 602.187881 
L 349.379006 604.625053 
L 351.009945 617.031643 
L 352.640884 637.215499 
L 354.271823 661.3345 
L 357.533702 620.443324 
L 359.164641 607.551571 
L 360.79558 604.355716 
L 362.426519 611.319866 
L 364.057459 627.154857 
L 365.688398 648.934727 
L 367.319337 653.10123 
L 368.950276 631.030887 
L 370.581215 614.401483 
L 372.212155 606.332459 
L 373.843094 608.226282 
L 375.474033 619.737387 
L 377.104972 638.798452 
L 378.735912 659.861444 
L 381.99779 621.247302 
L 383.628729 609.106769 
L 385.259669 606.616887 
L 386.890608 614.284987 
L 388.521547 630.786566 
L 390.152486 653.039523 
L 391.783425 649.159857 
L 393.414365 627.343486 
L 395.045304 611.864322 
L 396.676243 605.687391 
L 398.307182 610.021087 
L 399.938122 624.155273 
L 401.569061 645.564368 
L 403.2 656.614593 
L 404.830939 632.954166 
L 406.461878 614.674831 
L 408.092818 605.251816 
L 409.723757 606.48081 
L 411.354696 618.206617 
L 412.985635 638.341199 
L 414.616575 663.232227 
L 416.247514 638.868857 
L 417.878453 618.146286 
L 419.509392 605.63588 
L 421.140331 603.667663 
L 422.771271 612.645496 
L 424.40221 630.964388 
L 426.033149 655.235895 
L 427.664088 645.822867 
L 429.295028 622.994043 
L 430.925967 607.413665 
L 432.556906 601.94043 
L 434.187845 607.576709 
L 435.818785 623.301025 
L 437.449724 646.202705 
L 439.080663 654.259523 
L 440.711602 629.94869 
L 442.342541 611.334721 
L 443.973481 601.945571 
L 445.60442 603.437605 
L 447.235359 615.503896 
L 448.866298 635.92683 
L 450.497238 659.51386 
L 452.128177 639.860889 
L 453.759116 618.447625 
L 455.390055 604.75563 
L 457.020994 601.155327 
L 458.651934 608.190962 
L 460.282873 624.555224 
L 461.913812 647.238295 
L 463.544751 653.453691 
L 465.175691 630.124039 
L 466.80663 612.047967 
L 468.437569 602.492581 
L 470.068508 602.94851 
L 471.699448 613.212924 
L 473.330387 631.472663 
L 474.961326 654.42321 
L 476.592265 647.575408 
L 478.223204 625.916074 
L 479.854144 610.186418 
L 481.485083 602.828096 
L 483.116022 604.843973 
L 484.746961 615.763779 
L 486.377901 633.7689 
L 488.00884 655.91924 
L 489.639779 647.845354 
L 491.270718 627.264404 
L 492.901657 612.133861 
L 494.532597 604.555154 
L 496.163536 605.456674 
L 497.794475 614.532458 
L 499.425414 630.338481 
L 501.056354 650.541984 
L 502.687293 654.928741 
L 504.318232 634.621951 
L 505.949171 618.427581 
L 507.58011 608.387539 
L 509.21105 605.662791 
L 510.841989 610.423718 
L 512.472928 621.87455 
L 514.103867 638.39727 
L 515.734807 657.702048 
L 517.365746 649.39716 
L 518.996685 631.531251 
L 520.627624 617.688377 
L 522.258564 609.408317 
L 523.889503 607.497801 
L 525.520442 611.993428 
L 527.151381 622.199533 
L 528.78232 636.794096 
L 530.41326 653.840097 
L 532.044199 654.276576 
L 533.675138 637.664919 
L 535.306077 623.687531 
L 536.937017 613.91745 
L 538.567956 609.235534 
L 540.198895 609.956351 
L 541.829834 615.844627 
L 543.460773 626.168941 
L 545.091713 639.771461 
L 546.722652 654.827549 
L 548.353591 654.140063 
L 549.98453 639.424521 
L 551.61547 626.479835 
L 553.246409 616.752479 
L 554.877348 611.015723 
L 556.508287 609.639617 
L 558.139227 612.612235 
L 559.770166 619.568641 
L 561.401105 629.836655 
L 564.662983 655.89951 
L 566.293923 654.515696 
L 567.924862 641.244083 
L 569.555801 629.149892 
L 571.18674 619.421257 
L 572.81768 612.698477 
L 574.448619 609.351975 
L 576.079558 609.503298 
L 577.710497 613.040114 
L 579.341436 619.641064 
L 580.972376 628.809365 
L 582.603315 639.906685 
L 584.234254 652.127941 
L 585.865193 660.196784 
L 590.758011 626.640663 
L 592.38895 618.173853 
L 594.01989 611.976971 
L 595.650829 608.270472 
L 597.281768 607.138833 
L 598.912707 608.539572 
L 600.543646 612.316941 
L 602.174586 618.21959 
L 603.805525 625.920908 
L 605.436464 635.040684 
L 608.698343 655.8738 
L 610.329282 660.442636 
L 613.59116 639.716604 
L 615.222099 630.516436 
L 616.853039 622.44887 
L 618.483978 615.707322 
L 620.114917 610.425924 
L 621.745856 606.681107 
L 623.376796 604.49519 
L 625.007735 603.841573 
L 626.638674 604.651075 
L 628.269613 606.819012 
L 629.900552 610.21257 
L 631.531492 614.678124 
L 633.162431 620.048125 
L 634.79337 626.147119 
L 638.055249 639.813911 
L 641.317127 654.079804 
L 642.948066 659.632855 
L 644.579006 656.728991 
L 649.471823 637.827364 
L 651.102762 632.145188 
L 652.733702 626.934708 
L 654.364641 622.222352 
L 655.99558 618.018142 
L 657.626519 614.319524 
L 659.257459 611.113889 
L 660.888398 608.380588 
L 662.519337 606.092685 
L 664.150276 604.21851 
L 665.781215 602.723047 
L 667.412155 601.56915 
L 669.043094 600.718604 
L 670.674033 600.133024 
L 672.304972 599.774609 
L 673.935912 599.606759 
L 675.566851 599.594558 
L 678.828729 599.908031 
L 683.721547 600.803927 
L 688.614365 601.685237 
L 691.876243 602.063769 
L 695.138122 602.196774 
L 695.138122 602.196774 
" style="fill:none;stroke:#5e4fa2;stroke-dasharray:7.4,3.2;stroke-dashoffset:0;stroke-width:2;"/>
   </g>
   <g id="patch_3">
    <path d="M 108 720.9 
L 108 56.7 
" style="fill:none;stroke:#000000;stroke-linecap:square;stroke-linejoin:miter;stroke-width:0.8;"/>
   </g>
   <g id="patch_4">
    <path d="M 698.4 720.9 
L 698.4 56.7 
" style="fill:none;stroke:#000000;stroke-linecap:square;stroke-linejoin:miter;stroke-width:0.8;"/>
   </g>
   <g id="patch_5">
    <path d="M 108 720.9 
L 698.4 720.9 
" style="fill:none;stroke:#000000;stroke-linecap:square;stroke-linejoin:miter;stroke-width:0.8;"/>
   </g>
   <g id="patch_6">
    <path d="M 108 56.7 
L 698.4 56.7 
" style="fill:none;stroke:#000000;stroke-linecap:square;stroke-linejoin:miter;stroke-width:0.8;"/>
   </g>
   <g id="text_17">
    <!-- Scattering amplitudes for $ka=10.0$ -->
    <g transform="translate(262.045606 50.7)scale(0.2 -0.2)">
     <defs>
      <path d="M 43.703125 65.140625 
C 39.296875 67.71875 34.5 70 26.40625 70 
C 13.5 70 5.203125 60.609375 5.203125 51.03125 
C 5.203125 47.265625 6.296875 43.015625 10.203125 38.671875 
C 14.09375 34.3125 18.5 33.140625 24.09375 31.765625 
C 26.40625 31.15625 30.296875 30.0625 31 29.78125 
C 36.59375 27.609375 39.296875 22.5625 39.296875 17.8125 
C 39.296875 11.59375 34.40625 4.96875 25.703125 4.96875 
C 22.703125 4.96875 13.90625 4.96875 5.59375 12.796875 
L 4.203125 4.96875 
C 12.40625 -1 21.296875 -2 25.796875 -2 
C 38.09375 -2 46.90625 7.625 46.90625 18.53125 
C 46.90625 22.5 45.703125 27.546875 41.5 32.203125 
C 37.40625 36.671875 33.796875 37.65625 25.59375 39.828125 
C 20.90625 41.03125 17.90625 41.828125 15.40625 44.890625 
C 13.703125 47.078125 12.796875 49.15625 12.796875 51.828125 
C 12.796875 57.390625 17.59375 63.4375 26.40625 63.4375 
C 30.796875 63.4375 36.5 62.53125 42.296875 57.1875 
z
" id="CMSS17-83"/>
      <path d="M 38.5 39.703125 
C 38.5 40.390625 33.90625 42.40625 32.703125 42.796875 
C 29.40625 44 25.203125 44 24.09375 44 
C 11.09375 44 3.296875 32.703125 3.296875 21.296875 
C 3.296875 9.296875 12 -1 23.703125 -1 
C 30.40625 -1 35.203125 1.1875 39.09375 3.78125 
L 38.5 10.375 
C 34.203125 7.078125 29.203125 5.265625 23.796875 5.265625 
C 16 5.265625 10.90625 12.09375 10.90625 21.390625 
C 10.90625 28.609375 14.203125 37.71875 24.203125 37.71875 
C 29.703125 37.71875 32.796875 36.609375 37.40625 33.515625 
z
" id="CMSS17-99"/>
      <path d="M 37.59375 27.984375 
C 37.59375 37.375 30.90625 43.875 21.90625 43.875 
C 17.5 43.875 12.703125 43.078125 7.203125 39.890625 
L 7.796875 33.359375 
C 10.296875 35.125 14.59375 38 21.796875 38 
C 26.90625 38 30 34.0625 30 27.84375 
L 30 24 
C 14 24 4 19.34375 4 11.34375 
C 4 7.203125 6.5 -1 14.796875 -1 
C 16.296875 -1 24.40625 -1 30.203125 3.390625 
L 30.203125 -0.296875 
L 37.59375 -0.296875 
z
M 30 12.75 
C 30 10.953125 30 8.5625 27 6.78125 
C 24.40625 5.078125 21.09375 5.078125 19.703125 5.078125 
C 14.703125 5.078125 11.296875 7.984375 11.296875 11.625 
C 11.296875 18.921875 26.90625 18.921875 30 18.921875 
z
" id="CMSS17-97"/>
      <path d="M 16.703125 37 
L 29.703125 37 
L 29.703125 42.765625 
L 16.703125 42.765625 
L 16.703125 55 
L 9.59375 55 
L 9.59375 42.765625 
L 1.703125 42.765625 
L 1.703125 37 
L 9.40625 37 
L 9.40625 11.703125 
C 9.40625 6 10.703125 -1 17.296875 -1 
C 22.296875 -1 26.90625 0.390625 31.296875 2.6875 
L 29.703125 8.5625 
C 27.296875 6.46875 24.40625 5.265625 21.296875 5.265625 
C 16.90625 5.265625 16.703125 10.875 16.703125 13.375 
z
" id="CMSS17-116"/>
      <path d="M 39.09375 21.515625 
C 39.09375 24.84375 38.90625 31.296875 35.703125 36.640625 
C 32.203125 42.390625 26.5 44 22.203125 44 
C 11.796875 44 3 34.1875 3 21.484375 
C 3 9.09375 12.09375 -1 23.59375 -1 
C 28.09375 -1 33.59375 0.296875 38.59375 3.875 
C 38.59375 4.28125 38.40625 6.46875 38.296875 6.5625 
C 38.296875 6.765625 38 9.84375 38 10.25 
C 33.203125 6.359375 27.703125 5.078125 23.703125 5.078125 
C 17.296875 5.078125 10.40625 10.421875 10.09375 21.515625 
z
M 10.90625 27 
C 12.203125 32.5625 16.59375 37.828125 22.203125 37.828125 
C 23.703125 37.828125 30.703125 37.828125 32.5 27 
z
" id="CMSS17-101"/>
      <path d="M 14.90625 21.296875 
C 14.90625 30.703125 21.796875 37 30.59375 37 
L 30.59375 43.578125 
C 24.203125 43.578125 18.203125 40.390625 14.59375 35.203125 
L 14.59375 43.09375 
L 7.5 43.09375 
L 7.5 0 
L 14.90625 0 
z
" id="CMSS17-114"/>
      <path d="M 15.296875 65.359375 
L 6.90625 65.359375 
L 6.90625 57 
L 15.296875 57 
z
M 14.796875 42.796875 
L 7.40625 42.796875 
L 7.40625 0 
L 14.796875 0 
z
" id="CMSS17-105"/>
      <path d="M 40.90625 29.328125 
C 40.90625 35.671875 39.40625 44 28.09375 44 
C 21.703125 44 17.5 40.71875 14.703125 37.328125 
L 14.703125 43.09375 
L 7.40625 43.09375 
L 7.40625 0 
L 15 0 
L 15 24.359375 
C 15 30.6875 17.40625 37.9375 24.203125 37.9375 
C 33 37.9375 33.296875 32 33.296875 28.578125 
L 33.296875 0 
L 40.90625 0 
z
" id="CMSS17-110"/>
      <path d="M 44.5 43.875 
C 38.796875 43.875 33.90625 42.78125 29.90625 40.890625 
C 26.59375 43.390625 23.203125 43.875 20.90625 43.875 
C 12.203125 43.875 5.59375 36.703125 5.59375 28.34375 
C 5.59375 22.9375 8.59375 18.859375 8.796875 18.671875 
C 7 16.171875 6 13.484375 6 10.5 
C 6 7 7.40625 4.515625 8.5 3.125 
C 3.296875 -0.046875 2.59375 -4.90625 2.59375 -6.796875 
C 2.59375 -14.03125 11.703125 -20 23.40625 -20 
C 35.203125 -20 44.296875 -14.03125 44.296875 -6.6875 
C 44.296875 7 29 7 24.796875 7 
L 16.703125 7 
C 15.203125 7 11.203125 7 11.203125 12.359375 
C 11.203125 14.390625 12.09375 15.6875 12.203125 15.78125 
C 13.703125 14.6875 16.796875 13 20.90625 13 
C 29.203125 13 36.09375 19.96875 36.09375 28.546875 
C 36.09375 33.3125 33.90625 36.796875 33 38 
L 33.296875 38 
C 33.59375 38 37.796875 38 39.296875 38 
C 42.5 38 42.796875 37.953125 45.59375 37.796875 
z
M 20.90625 18.46875 
C 17.5 18.46875 12.703125 20.546875 12.703125 28.484375 
C 12.703125 37.109375 18.203125 38.5 20.796875 38.5 
C 24.203125 38.5 29 36.421875 29 28.484375 
C 29 19.859375 23.5 18.46875 20.90625 18.46875 
z
M 24.703125 -0.15625 
C 27.09375 -0.15625 37.203125 -0.15625 37.203125 -6.90625 
C 37.203125 -11.15625 31 -14.515625 23.5 -14.515625 
C 15.90625 -14.515625 9.703125 -11.25 9.703125 -6.796875 
C 9.703125 -6.296875 9.703125 -0.15625 16.59375 -0.15625 
z
" id="CMSS17-103"/>
      <path d="M 67 29.328125 
C 67 36.0625 65.296875 44 54.09375 44 
C 46.59375 44 42.09375 39.3125 40.09375 36.421875 
C 38.296875 41.71875 34.09375 44 28.09375 44 
C 21.296875 44 17 40.125 14.703125 37.328125 
L 14.703125 43.09375 
L 7.40625 43.09375 
L 7.40625 0 
L 15 0 
L 15 24.359375 
C 15 30.296875 17.203125 37.9375 24.296875 37.9375 
C 33.40625 37.9375 33.40625 31.5 33.40625 28.578125 
L 33.40625 0 
L 41 0 
L 41 24.359375 
C 41 30.296875 43.203125 37.9375 50.296875 37.9375 
C 59.40625 37.9375 59.40625 31.5 59.40625 28.578125 
L 59.40625 0 
L 67 0 
z
" id="CMSS17-109"/>
      <path d="M 15.09375 5.203125 
C 18.40625 2.015625 22.90625 -0.078125 27.703125 -0.078125 
C 37 -0.078125 45 9.421875 45 22.0625 
C 45 33.734375 39 44 30.40625 44 
C 25.40625 44 19.40625 42.21875 14.90625 38.625 
L 14.90625 43.203125 
L 7.5 43.203125 
L 7.5 -19 
L 15.09375 -19 
z
M 15.09375 32.8125 
C 15.90625 34 19.296875 37.734375 24.796875 37.734375 
C 31.796875 37.734375 37.40625 30.625 37.40625 22.0625 
C 37.40625 12.296875 30.59375 6 23.90625 6 
C 21.90625 6 19.796875 6.484375 17.796875 8.171875 
C 15.09375 10.53125 15.09375 12 15.09375 13.390625 
z
" id="CMSS17-112"/>
      <path d="M 14.796875 69 
L 7.40625 69 
L 7.40625 0 
L 14.796875 0 
z
" id="CMSS17-108"/>
      <path d="M 40.90625 42.796875 
L 33.296875 42.796875 
L 33.296875 15.1875 
C 33.296875 7.78125 27.90625 4.78125 22.203125 4.78125 
C 15.59375 4.78125 15 6.984375 15 11.078125 
L 15 42.796875 
L 7.40625 42.796875 
L 7.40625 10.59375 
C 7.40625 2.796875 10.09375 -1 17 -1 
C 20.40625 -1 28.09375 -0.203125 33.5 4.78125 
L 33.5 0 
L 40.90625 0 
z
" id="CMSS17-117"/>
      <path d="M 40.796875 69 
L 33.40625 69 
L 33.40625 38.09375 
C 30.296875 40.671875 25.203125 43.0625 19.59375 43.0625 
C 10.5 43.0625 3.296875 33.296875 3.296875 21.046875 
C 3.296875 8.78125 10.40625 -1 19.296875 -1 
C 26.203125 -1 30.796875 2.6875 33.203125 4.78125 
L 33.203125 -0.203125 
L 40.796875 -0.203125 
z
M 33.203125 13.0625 
C 33.203125 11.671875 33.203125 10.203125 30.09375 7.53125 
C 28.09375 5.859375 25.703125 5.078125 23.40625 5.078125 
C 18 5.078125 10.90625 9 10.90625 20.9375 
C 10.90625 33.34375 18.90625 37 24.40625 37 
C 28.09375 37 31.09375 35.21875 33.203125 32.265625 
z
" id="CMSS17-100"/>
      <path d="M 32.203125 41.046875 
C 26.296875 43.859375 21.703125 43.859375 18.703125 43.859375 
C 11.59375 43.859375 3.09375 41.375 3.09375 31.296875 
C 3.09375 21.234375 14.09375 19.03125 17.09375 18.421875 
C 21.703125 17.53125 26.796875 16.53125 26.796875 11.5625 
C 26.796875 5.265625 19.59375 5.265625 18.296875 5.265625 
C 14.296875 5.265625 8.796875 6.359375 3.796875 9.96875 
L 2.59375 3.28125 
C 8.296875 0 13.796875 -1 18.40625 -1 
C 30.703125 -1 33.796875 6.5 33.796875 12.203125 
C 33.796875 17.09375 31 20.390625 29.09375 21.890625 
C 25.796875 24.5 24.59375 24.796875 16.40625 26.5 
C 15 26.703125 10.09375 27.796875 10.09375 32.28125 
C 10.09375 38 16.40625 38 17.796875 38 
C 24.296875 38 28.296875 35.984375 31 34.5 
z
" id="CMSS17-115"/>
      <path d="M 16.796875 37 
L 26.90625 37 
L 26.90625 42.765625 
L 16.59375 42.765625 
L 16.59375 55.609375 
C 16.59375 62.71875 22 63.9375 25.09375 63.9375 
C 26.09375 63.9375 28.90625 63.9375 32.5 62.640625 
L 32.5 69.203125 
C 30.203125 69.703125 27.40625 70 25.203125 70 
C 15.90625 70 9.40625 62.390625 9.40625 52.484375 
L 9.40625 42.765625 
L 2.5 42.765625 
L 2.5 37 
L 9.40625 37 
L 9.40625 0 
L 16.796875 0 
z
" id="CMSS17-102"/>
      <path d="M 44.203125 21.1875 
C 44.203125 34 34.703125 44 23.5 44 
C 12 44 2.703125 33.703125 2.703125 21.1875 
C 2.703125 8.5 12.296875 -1 23.40625 -1 
C 34.796875 -1 44.203125 8.796875 44.203125 21.1875 
z
M 23.5 5.265625 
C 16.40625 5.265625 10.296875 11.078125 10.296875 22 
C 10.296875 33.609375 17.40625 37.921875 23.40625 37.921875 
C 29.90625 37.921875 36.59375 33.21875 36.59375 22 
C 36.59375 10.671875 30.09375 5.265625 23.5 5.265625 
z
" id="CMSS17-111"/>
      <path d="M 28.09375 66.515625 
C 28.203125 66.921875 28.40625 67.515625 28.40625 68 
C 28.40625 69 27.40625 69 27.203125 69 
C 27.09375 69 23.5 68.640625 21.703125 68.390625 
C 20 68.390625 18.5 68.09375 16.703125 68.09375 
C 14.296875 67.890625 13.59375 67.796875 13.59375 66 
C 13.59375 65 14.59375 65 15.59375 65 
C 20.703125 65 20.703125 64.109375 20.703125 63.125 
C 20.703125 62.734375 20.703125 62.53125 20.203125 60.75 
L 5.90625 3.875 
C 5.5 2.375 5.5 2.1875 5.5 1.578125 
C 5.5 -0.59375 7.203125 -1 8.203125 -1 
C 11 -1 11.59375 1.203125 12.40625 4.296875 
L 17.09375 22.953125 
C 24.296875 22.15625 28.59375 19.15625 28.59375 14.375 
C 28.59375 13.765625 28.59375 13.375 28.296875 11.875 
C 27.90625 10.375 27.90625 9.1875 27.90625 8.6875 
C 27.90625 2.890625 31.703125 -1 36.796875 -1 
C 41.40625 -1 43.796875 3.1875 44.59375 4.59375 
C 46.703125 8.28125 48 13.875 48 14.265625 
C 48 14.765625 47.59375 15.171875 47 15.171875 
C 46.09375 15.171875 46 14.765625 45.59375 13.171875 
C 44.203125 7.984375 42.09375 1 37 1 
C 35 1 33.703125 2 33.703125 5.78125 
C 33.703125 7.6875 34.09375 9.875 34.5 11.375 
C 34.90625 13.171875 34.90625 13.265625 34.90625 14.46875 
C 34.90625 20.359375 29.59375 23.65625 20.40625 24.84375 
C 24 27.046875 27.59375 30.9375 29 32.4375 
C 34.703125 38.8125 38.59375 42.015625 43.203125 42.015625 
C 45.5 42.015625 46.09375 41.40625 46.796875 40.8125 
C 43.09375 40.40625 41.703125 37.8125 41.703125 35.828125 
C 41.703125 33.421875 43.59375 32.625 45 32.625 
C 47.703125 32.625 50.09375 34.921875 50.09375 38.125 
C 50.09375 41.015625 47.796875 44 43.296875 44 
C 37.796875 44 33.296875 40.109375 26.203125 32.125 
C 25.203125 30.9375 21.5 27.140625 17.796875 25.75 
z
" id="CMMI12-107"/>
      <path d="M 30.09375 11.875 
C 29.59375 10.171875 29.59375 9.984375 28.203125 8.078125 
C 26 5.28125 21.59375 1 16.90625 1 
C 12.796875 1 10.5 4.6875 10.5 10.578125 
C 10.5 16.0625 13.59375 27.234375 15.5 31.4375 
C 18.90625 38.421875 23.59375 42.015625 27.5 42.015625 
C 34.09375 42.015625 35.40625 33.828125 35.40625 33.03125 
C 35.40625 32.9375 35.09375 31.625 35 31.4375 
z
M 36.5 37.421875 
C 35.40625 40.015625 32.703125 44 27.5 44 
C 16.203125 44 4 29.4375 4 14.671875 
C 4 4.796875 9.796875 -1 16.59375 -1 
C 22.09375 -1 26.796875 3.296875 29.59375 6.59375 
C 30.59375 0.703125 35.296875 -1 38.296875 -1 
C 41.296875 -1 43.703125 0.796875 45.5 4.390625 
C 47.09375 7.78125 48.5 13.875 48.5 14.265625 
C 48.5 14.765625 48.09375 15.171875 47.5 15.171875 
C 46.59375 15.171875 46.5 14.671875 46.09375 13.171875 
C 44.59375 7.28125 42.703125 1 38.59375 1 
C 35.703125 1 35.5 3.59375 35.5 5.59375 
C 35.5 7.890625 35.796875 8.984375 36.703125 12.875 
C 37.40625 15.375 37.90625 17.5625 38.703125 20.453125 
C 42.40625 35.421875 43.296875 39.015625 43.296875 39.609375 
C 43.296875 41.015625 42.203125 42.109375 40.703125 42.109375 
C 37.5 42.109375 36.703125 38.625 36.5 37.421875 
z
" id="CMMI12-97"/>
      <path d="M 64.296875 31.515625 
C 65.796875 31.515625 67.296875 31.515625 67.296875 33.203125 
C 67.296875 35 65.59375 35 63.90625 35 
L 8 35 
C 6.296875 35 4.59375 35 4.59375 33.203125 
C 4.59375 31.515625 6.09375 31.515625 7.59375 31.515625 
z
M 63.90625 14 
C 65.59375 14 67.296875 14 67.296875 15.796875 
C 67.296875 17.484375 65.796875 17.484375 64.296875 17.484375 
L 7.59375 17.484375 
C 6.09375 17.484375 4.59375 17.484375 4.59375 15.796875 
C 4.59375 14 6.296875 14 8 14 
z
" id="CMR17-61"/>
      <path d="M 18.40625 4.796875 
C 18.40625 7.6875 16 9.671875 13.59375 9.671875 
C 10.703125 9.671875 8.703125 7.28125 8.703125 4.890625 
C 8.703125 2 11.09375 0 13.5 0 
C 16.40625 0 18.40625 2.390625 18.40625 4.796875 
z
" id="CMMI12-58"/>
     </defs>
     <use transform="scale(0.996264)" xlink:href="#CMSS17-83"/>
     <use transform="translate(52.048516 0)scale(0.996264)" xlink:href="#CMSS17-99"/>
     <use transform="translate(93.687338 0)scale(0.996264)" xlink:href="#CMSS17-97"/>
     <use transform="translate(138.609259 0)scale(0.996264)" xlink:href="#CMSS17-116"/>
     <use transform="translate(172.440826 0)scale(0.996264)" xlink:href="#CMSS17-116"/>
     <use transform="translate(206.272392 0)scale(0.996264)" xlink:href="#CMSS17-101"/>
     <use transform="translate(247.911214 0)scale(0.996264)" xlink:href="#CMSS17-114"/>
     <use transform="translate(279.820987 0)scale(0.996264)" xlink:href="#CMSS17-105"/>
     <use transform="translate(302.00171 0)scale(0.996264)" xlink:href="#CMSS17-110"/>
     <use transform="translate(350.206653 0)scale(0.996264)" xlink:href="#CMSS17-103"/>
     <use transform="translate(428.279389 0)scale(0.996264)" xlink:href="#CMSS17-97"/>
     <use transform="translate(473.20131 0)scale(0.996264)" xlink:href="#CMSS17-109"/>
     <use transform="translate(547.430564 0)scale(0.996264)" xlink:href="#CMSS17-112"/>
     <use transform="translate(595.635507 0)scale(0.996264)" xlink:href="#CMSS17-108"/>
     <use transform="translate(617.816231 0)scale(0.996264)" xlink:href="#CMSS17-105"/>
     <use transform="translate(639.996954 0)scale(0.996264)" xlink:href="#CMSS17-116"/>
     <use transform="translate(673.82852 0)scale(0.996264)" xlink:href="#CMSS17-117"/>
     <use transform="translate(722.033463 0)scale(0.996264)" xlink:href="#CMSS17-100"/>
     <use transform="translate(770.238407 0)scale(0.996264)" xlink:href="#CMSS17-101"/>
     <use transform="translate(811.877229 0)scale(0.996264)" xlink:href="#CMSS17-115"/>
     <use transform="translate(879.019883 0)scale(0.996264)" xlink:href="#CMSS17-102"/>
     <use transform="translate(907.646542 0)scale(0.996264)" xlink:href="#CMSS17-111"/>
     <use transform="translate(951.887712 0)scale(0.996264)" xlink:href="#CMSS17-114"/>
     <use transform="translate(1015.026597 0)scale(0.996264)" xlink:href="#CMMI12-107"/>
     <use transform="translate(1069.105798 0)scale(0.996264)" xlink:href="#CMMI12-97"/>
     <use transform="translate(1147.987664 0)scale(0.996264)" xlink:href="#CMR17-61"/>
     <use transform="translate(1247.376461 0)scale(0.996264)" xlink:href="#CMR17-49"/>
     <use transform="translate(1293.066938 0)scale(0.996264)" xlink:href="#CMR17-48"/>
     <use transform="translate(1338.757415 0)scale(0.996264)" xlink:href="#CMMI12-58"/>
     <use transform="translate(1365.854593 0)scale(0.996264)" xlink:href="#CMR17-48"/>
    </g>
   </g>
   <g id="legend_1">
    <g id="patch_7">
     <path d="M 544.38522 160.485009 
L 684.4 160.485009 
Q 688.4 160.485009 688.4 156.485009 
L 688.4 70.7 
Q 688.4 66.7 684.4 66.7 
L 544.38522 66.7 
Q 540.38522 66.7 540.38522 70.7 
L 540.38522 156.485009 
Q 540.38522 160.485009 544.38522 160.485009 
z
" style="fill:#ffffff;opacity:0.8;stroke:#cccccc;stroke-linejoin:miter;"/>
    </g>
    <g id="line2d_35">
     <path d="M 548.38522 82.896875 
L 588.38522 82.896875 
" style="fill:none;stroke:#fdbf6f;stroke-linecap:square;stroke-width:2;"/>
    </g>
    <g id="line2d_36"/>
    <g id="text_18">
     <!-- kd=20.0 -->
     <g transform="translate(604.38522 89.896875)scale(0.2 -0.2)">
      <defs>
       <path d="M 26.5 26.375 
L 42 42.796875 
L 32.40625 42.796875 
L 14.90625 24.28125 
L 14.90625 69 
L 7.5 69 
L 7.5 0 
L 14.796875 0 
L 14.796875 13.9375 
L 21.5 21 
L 35.59375 0 
L 44.09375 0 
z
" id="CMSS17-107"/>
       <path d="M 64.796875 31.515625 
C 66.296875 31.515625 67.796875 31.515625 67.796875 33.203125 
C 67.796875 35 66.09375 35 64.40625 35 
L 8.59375 35 
C 6.90625 35 5.203125 35 5.203125 33.203125 
C 5.203125 31.515625 6.703125 31.515625 8.203125 31.515625 
z
M 64.40625 14 
C 66.09375 14 67.796875 14 67.796875 15.796875 
C 67.796875 17.484375 66.296875 17.484375 64.796875 17.484375 
L 8.203125 17.484375 
C 6.703125 17.484375 5.203125 17.484375 5.203125 15.796875 
C 5.203125 14 6.90625 14 8.59375 14 
z
" id="CMSS17-61"/>
       <path d="M 25.796875 21.203125 
C 28.59375 24.078125 32.796875 27.5625 35.703125 31.046875 
C 38.5 34.4375 42.203125 39.234375 42.203125 46.203125 
C 42.203125 57.140625 34.796875 67 22.203125 67 
C 12.296875 67 6.59375 60.828125 3.90625 51.15625 
L 7.796875 45.765625 
C 10 54.84375 13.09375 60.625 20.90625 60.625 
C 29.5 60.625 34.296875 53.640625 34.296875 45.96875 
C 34.296875 36.796875 27.296875 29.703125 22 24.421875 
C 16.09375 18.546875 10.296875 12.5625 4.703125 6.375 
L 4.703125 0 
L 42.203125 0 
L 42.203125 6.765625 
L 25.203125 6.765625 
C 24 6.765625 22.796875 6.765625 21.59375 6.765625 
L 11.59375 6.765625 
L 11.59375 6.859375 
z
" id="CMSS17-50"/>
       <path d="M 43.09375 31.9375 
C 43.09375 37.578125 43 48.078125 38.90625 56.1875 
C 34.796875 64 28.203125 66.078125 23.5 66.078125 
C 16.703125 66.078125 10.90625 62.109375 7.90625 55.78125 
C 4.703125 49.15625 3.796875 42.328125 3.796875 31.9375 
C 3.796875 24.828125 4.09375 16.109375 7.703125 8.484375 
C 11.796875 0.078125 18.703125 -2 23.40625 -2 
C 29.59375 -2 35.59375 1.265625 39 8.09375 
C 42.5 15.21875 43.09375 23.03125 43.09375 31.9375 
z
M 23.40625 4.078125 
C 15.796875 4.078125 13.5 12.671875 12.796875 15.546875 
C 11.59375 20.46875 11.40625 25.21875 11.40625 33.03125 
C 11.40625 39.15625 11.40625 46.0625 13.296875 51.515625 
C 15.59375 57.828125 19.59375 60 23.40625 60 
C 30.796875 60 33.203125 52.6875 34 50.125 
C 35.5 44.890625 35.5 38.765625 35.5 33.03125 
C 35.5 23.84375 35.5 4.078125 23.40625 4.078125 
z
" id="CMSS17-48"/>
       <path d="M 17 7.96875 
L 9 7.96875 
L 9 0 
L 17 0 
z
" id="CMSS17-46"/>
      </defs>
      <use transform="scale(0.996264)" xlink:href="#CMSS17-107"/>
      <use transform="translate(45.602489 0)scale(0.996264)" xlink:href="#CMSS17-100"/>
      <use transform="translate(93.807432 0)scale(0.996264)" xlink:href="#CMSS17-61"/>
      <use transform="translate(166.675367 0)scale(0.996264)" xlink:href="#CMSS17-50"/>
      <use transform="translate(213.518991 0)scale(0.996264)" xlink:href="#CMSS17-48"/>
      <use transform="translate(260.362614 0)scale(0.996264)" xlink:href="#CMSS17-46"/>
      <use transform="translate(286.386819 0)scale(0.996264)" xlink:href="#CMSS17-48"/>
     </g>
    </g>
    <g id="line2d_37">
     <path d="M 548.38522 112.253125 
L 588.38522 112.253125 
" style="fill:none;stroke:#bfe5a0;stroke-linecap:square;stroke-width:2;"/>
    </g>
    <g id="line2d_38"/>
    <g id="text_19">
     <!-- kd=60.0 -->
     <g transform="translate(604.38522 119.253125)scale(0.2 -0.2)">
      <defs>
       <path d="M 39 64.078125 
C 34.796875 65.78125 31.796875 66.078125 29 66.078125 
C 16 66.078125 3.90625 52.625 3.90625 31.34375 
C 3.90625 4.140625 15.40625 -2 23.59375 -2 
C 28.09375 -2 32.59375 -0.609375 36.90625 4.375 
C 41.296875 9.640625 43 14.03125 43 21.703125 
C 43 34.046875 36.90625 45 27.796875 45 
C 21.203125 45 15.5 41.515625 12 37.125 
C 13 50.90625 19.59375 60 29.09375 60 
C 31.703125 60 35.09375 59.625 39 57.96875 
z
M 12.09375 21.390625 
C 12.09375 22.1875 12.09375 22.6875 12.203125 24.1875 
C 12.203125 31.953125 16.703125 38.921875 24 38.921875 
C 28.703125 38.921875 31.09375 36.4375 32.90625 33.359375 
C 35 29.46875 35.09375 25.78125 35.09375 21.6875 
C 35.09375 17.8125 35.09375 13.921875 32.796875 9.953125 
C 30.90625 6.859375 28.40625 4.171875 23.59375 4.171875 
C 14.09375 4.171875 12.5 17.40625 12.09375 21.390625 
z
" id="CMSS17-54"/>
      </defs>
      <use transform="scale(0.996264)" xlink:href="#CMSS17-107"/>
      <use transform="translate(45.602489 0)scale(0.996264)" xlink:href="#CMSS17-100"/>
      <use transform="translate(93.807432 0)scale(0.996264)" xlink:href="#CMSS17-61"/>
      <use transform="translate(166.675367 0)scale(0.996264)" xlink:href="#CMSS17-54"/>
      <use transform="translate(213.518991 0)scale(0.996264)" xlink:href="#CMSS17-48"/>
      <use transform="translate(260.362614 0)scale(0.996264)" xlink:href="#CMSS17-46"/>
      <use transform="translate(286.386819 0)scale(0.996264)" xlink:href="#CMSS17-48"/>
     </g>
    </g>
    <g id="line2d_39">
     <path d="M 548.38522 141.609375 
L 588.38522 141.609375 
" style="fill:none;stroke:#5e4fa2;stroke-linecap:square;stroke-width:2;"/>
    </g>
    <g id="line2d_40"/>
    <g id="text_20">
     <!-- kd=100.0 -->
     <g transform="translate(604.38522 148.609375)scale(0.2 -0.2)">
      <defs>
       <path d="M 28.40625 67 
L 26.5 67 
C 21.09375 61.5625 14.796875 60.78125 8.40625 60.78125 
L 8.40625 55 
C 11.296875 55 16 55 20.703125 57.296875 
L 20.703125 5.765625 
L 8.90625 5.765625 
L 8.90625 0 
L 40.203125 0 
L 40.203125 5.765625 
L 28.40625 5.765625 
z
" id="CMSS17-49"/>
      </defs>
      <use transform="scale(0.996264)" xlink:href="#CMSS17-107"/>
      <use transform="translate(45.602489 0)scale(0.996264)" xlink:href="#CMSS17-100"/>
      <use transform="translate(93.807432 0)scale(0.996264)" xlink:href="#CMSS17-61"/>
      <use transform="translate(166.675367 0)scale(0.996264)" xlink:href="#CMSS17-49"/>
      <use transform="translate(213.518991 0)scale(0.996264)" xlink:href="#CMSS17-48"/>
      <use transform="translate(260.362614 0)scale(0.996264)" xlink:href="#CMSS17-48"/>
      <use transform="translate(307.206238 0)scale(0.996264)" xlink:href="#CMSS17-46"/>
      <use transform="translate(333.230443 0)scale(0.996264)" xlink:href="#CMSS17-48"/>
     </g>
    </g>
   </g>
  </g>
 </g>
 <defs>
  <clipPath id="pad1aa5fa4c">
   <rect height="664.2" width="590.4" x="108" y="56.7"/>
  </clipPath>
 </defs>
</svg>
