<?xml version="1.0" encoding="utf-8" standalone="no"?>
<!DOCTYPE svg PUBLIC "-//W3C//DTD SVG 1.1//EN"
  "http://www.w3.org/Graphics/SVG/1.1/DTD/svg11.dtd">
<!-- Created with matplotlib (https://matplotlib.org/) -->
<svg height="810pt" version="1.1" viewBox="0 0 720 810" width="720pt" xmlns="http://www.w3.org/2000/svg" xmlns:xlink="http://www.w3.org/1999/xlink">
 <metadata>
  <rdf:RDF xmlns:cc="http://creativecommons.org/ns#" xmlns:dc="http://purl.org/dc/elements/1.1/" xmlns:rdf="http://www.w3.org/1999/02/22-rdf-syntax-ns#">
   <cc:Work>
    <dc:type rdf:resource="http://purl.org/dc/dcmitype/StillImage"/>
    <dc:date>2020-11-23T10:09:15.568313</dc:date>
    <dc:format>image/svg+xml</dc:format>
    <dc:creator>
     <cc:Agent>
      <dc:title>Matplotlib v3.3.1, https://matplotlib.org/</dc:title>
     </cc:Agent>
    </dc:creator>
   </cc:Work>
  </rdf:RDF>
 </metadata>
 <defs>
  <style type="text/css">*{stroke-linecap:butt;stroke-linejoin:round;}</style>
 </defs>
 <g id="figure_1">
  <g id="patch_1">
   <path d="M 0 810 
L 720 810 
L 720 0 
L 0 0 
z
" style="fill:#ffffff;"/>
  </g>
  <g id="axes_1">
   <g id="patch_2">
    <path d="M 108 720.9 
L 698.4 720.9 
L 698.4 56.7 
L 108 56.7 
z
" style="fill:#ffffff;"/>
   </g>
   <g id="matplotlib.axis_1">
    <g id="xtick_1">
     <g id="line2d_1">
      <path clip-path="url(#pa2990754cd)" d="M 166.45198 720.9 
L 166.45198 56.7 
" style="fill:none;stroke:#e6e6e6;stroke-linecap:square;stroke-width:0.8;"/>
     </g>
     <g id="line2d_2">
      <defs>
       <path d="M 0 0 
L 0 -3.5 
" id="m0a37bbc0e7" style="stroke:#000000;stroke-width:0.8;"/>
      </defs>
      <g>
       <use style="stroke:#000000;stroke-width:0.8;" x="166.45198" xlink:href="#m0a37bbc0e7" y="720.9"/>
      </g>
     </g>
     <g id="text_1">
      <!-- $\mathdefault{−20}$ -->
      <g transform="translate(153.324184 734.777725)scale(0.15 -0.15)">
       <defs>
        <path d="M 65.90625 23 
C 67.59375 23 69.40625 23 69.40625 25 
C 69.40625 27 67.59375 27 65.90625 27 
L 11.796875 27 
C 10.09375 27 8.296875 27 8.296875 25 
C 8.296875 23 10.09375 23 11.796875 23 
z
" id="CMSY10-0"/>
        <path d="M 41.703125 15.453125 
L 39.90625 15.453125 
C 38.90625 8.375 38.09375 7.171875 37.703125 6.5625 
C 37.203125 5.765625 30 5.765625 28.59375 5.765625 
L 9.40625 5.765625 
C 13 9.671875 20 16.75 28.5 24.953125 
C 34.59375 30.734375 41.703125 37.53125 41.703125 47.421875 
C 41.703125 59.21875 32.296875 66 21.796875 66 
C 10.796875 66 4.09375 56.3125 4.09375 47.34375 
C 4.09375 43.4375 7 42.9375 8.203125 42.9375 
C 9.203125 42.9375 12.203125 43.546875 12.203125 47.03125 
C 12.203125 50.109375 9.59375 51 8.203125 51 
C 7.59375 51 7 50.90625 6.59375 50.703125 
C 8.5 59.21875 14.296875 63.40625 20.40625 63.40625 
C 29.09375 63.40625 34.796875 56.515625 34.796875 47.421875 
C 34.796875 38.734375 29.703125 31.25 24 24.75 
L 4.09375 2.28125 
L 4.09375 0 
L 39.296875 0 
z
" id="CMR17-50"/>
        <path d="M 42 31.640625 
C 42 37.75 41.90625 48.125 37.703125 56.109375 
C 34 63.109375 28.09375 65.59375 22.90625 65.59375 
C 18.09375 65.59375 12 63.40625 8.203125 56.203125 
C 4.203125 48.71875 3.796875 39.4375 3.796875 31.640625 
C 3.796875 25.953125 3.90625 17.28125 7 9.671875 
C 11.296875 -0.609375 19 -2 22.90625 -2 
C 27.5 -2 34.5 -0.109375 38.59375 9.375 
C 41.59375 16.28125 42 24.359375 42 31.640625 
z
M 22.90625 -0.40625 
C 16.5 -0.40625 12.703125 5.078125 11.296875 12.6875 
C 10.203125 18.5625 10.203125 27.15625 10.203125 32.75 
C 10.203125 40.4375 10.203125 46.828125 11.5 52.921875 
C 13.40625 61.390625 19 64 22.90625 64 
C 27 64 32.296875 61.296875 34.203125 53.125 
C 35.5 47.4375 35.59375 40.734375 35.59375 32.75 
C 35.59375 26.25 35.59375 18.265625 34.40625 12.375 
C 32.296875 1.484375 26.40625 -0.40625 22.90625 -0.40625 
z
" id="CMR17-48"/>
       </defs>
       <use transform="scale(0.996264)" xlink:href="#CMSY10-0"/>
       <use transform="translate(77.487468 0)scale(0.996264)" xlink:href="#CMR17-50"/>
       <use transform="translate(123.177945 0)scale(0.996264)" xlink:href="#CMR17-48"/>
      </g>
     </g>
    </g>
    <g id="xtick_2">
     <g id="line2d_3">
      <path clip-path="url(#pa2990754cd)" d="M 286.63072 720.9 
L 286.63072 56.7 
" style="fill:none;stroke:#e6e6e6;stroke-linecap:square;stroke-width:0.8;"/>
     </g>
     <g id="line2d_4">
      <g>
       <use style="stroke:#000000;stroke-width:0.8;" x="286.63072" xlink:href="#m0a37bbc0e7" y="720.9"/>
      </g>
     </g>
     <g id="text_2">
      <!-- $\mathdefault{−15}$ -->
      <g transform="translate(273.502925 734.777725)scale(0.15 -0.15)">
       <defs>
        <path d="M 26.59375 63.40625 
C 26.59375 65.5 26.5 65.5 25.09375 65.5 
C 21.203125 61.1875 15.296875 59.796875 9.703125 59.796875 
C 9.40625 59.796875 8.90625 59.796875 8.796875 59.5 
C 8.703125 59.296875 8.703125 59.09375 8.703125 57 
C 11.796875 57 17 57.59375 21 59.984375 
L 21 7.203125 
C 21 3.6875 20.796875 2.5 12.203125 2.5 
L 9.203125 2.5 
L 9.203125 0 
C 14 0 19 0 23.796875 0 
C 28.59375 0 33.59375 0 38.40625 0 
L 38.40625 2.5 
L 35.40625 2.5 
C 26.796875 2.5 26.59375 3.59375 26.59375 7.15625 
z
" id="CMR17-49"/>
        <path d="M 11.40625 57.6875 
C 12.40625 57.28125 16.5 56 20.703125 56 
C 30 56 35.09375 61.109375 38 64.0625 
C 38 64.953125 38 65.5 37.40625 65.5 
C 37.296875 65.5 37.09375 65.5 36.296875 65.046875 
C 32.796875 63.40625 28.703125 62.078125 23.703125 62.078125 
C 20.703125 62.078125 16.203125 62.484375 11.296875 64.671875 
C 10.203125 65.171875 10 65.171875 9.90625 65.171875 
C 9.40625 65.171875 9.296875 65.0625 9.296875 63.078125 
L 9.296875 34.421875 
C 9.296875 32.640625 9.296875 32.140625 10.296875 32.140625 
C 10.796875 32.140625 11 32.34375 11.5 33.03125 
C 14.703125 37.515625 19.09375 39.40625 24.09375 39.40625 
C 27.59375 39.40625 35.09375 37.21875 35.09375 20.140625 
C 35.09375 16.953125 35.09375 11.171875 32.09375 6.578125 
C 29.59375 2.484375 25.703125 0.390625 21.40625 0.390625 
C 14.796875 0.390625 8.09375 5 6.296875 12.71875 
C 6.703125 12.609375 7.5 12.421875 7.90625 12.421875 
C 9.203125 12.421875 11.703125 13.125 11.703125 16.21875 
C 11.703125 18.90625 9.796875 20 7.90625 20 
C 5.59375 20 4.09375 18.59375 4.09375 15.796875 
C 4.09375 7.09375 11 -2 21.59375 -2 
C 31.90625 -2 41.703125 6.875 41.703125 19.75 
C 41.703125 31.71875 33.90625 41 24.203125 41 
C 19.09375 41 14.796875 39.109375 11.40625 35.53125 
z
" id="CMR17-53"/>
       </defs>
       <use transform="scale(0.996264)" xlink:href="#CMSY10-0"/>
       <use transform="translate(77.487468 0)scale(0.996264)" xlink:href="#CMR17-49"/>
       <use transform="translate(123.177945 0)scale(0.996264)" xlink:href="#CMR17-53"/>
      </g>
     </g>
    </g>
    <g id="xtick_3">
     <g id="line2d_5">
      <path clip-path="url(#pa2990754cd)" d="M 406.809461 720.9 
L 406.809461 56.7 
" style="fill:none;stroke:#e6e6e6;stroke-linecap:square;stroke-width:0.8;"/>
     </g>
     <g id="line2d_6">
      <g>
       <use style="stroke:#000000;stroke-width:0.8;" x="406.809461" xlink:href="#m0a37bbc0e7" y="720.9"/>
      </g>
     </g>
     <g id="text_3">
      <!-- $\mathdefault{−10}$ -->
      <g transform="translate(393.681665 734.777725)scale(0.15 -0.15)">
       <use transform="scale(0.996264)" xlink:href="#CMSY10-0"/>
       <use transform="translate(77.487468 0)scale(0.996264)" xlink:href="#CMR17-49"/>
       <use transform="translate(123.177945 0)scale(0.996264)" xlink:href="#CMR17-48"/>
      </g>
     </g>
    </g>
    <g id="xtick_4">
     <g id="line2d_7">
      <path clip-path="url(#pa2990754cd)" d="M 526.988202 720.9 
L 526.988202 56.7 
" style="fill:none;stroke:#e6e6e6;stroke-linecap:square;stroke-width:0.8;"/>
     </g>
     <g id="line2d_8">
      <g>
       <use style="stroke:#000000;stroke-width:0.8;" x="526.988202" xlink:href="#m0a37bbc0e7" y="720.9"/>
      </g>
     </g>
     <g id="text_4">
      <!-- $\mathdefault{−5}$ -->
      <g transform="translate(517.518525 734.777725)scale(0.15 -0.15)">
       <use transform="scale(0.996264)" xlink:href="#CMSY10-0"/>
       <use transform="translate(77.487468 0)scale(0.996264)" xlink:href="#CMR17-53"/>
      </g>
     </g>
    </g>
    <g id="xtick_5">
     <g id="line2d_9">
      <path clip-path="url(#pa2990754cd)" d="M 647.166942 720.9 
L 647.166942 56.7 
" style="fill:none;stroke:#e6e6e6;stroke-linecap:square;stroke-width:0.8;"/>
     </g>
     <g id="line2d_10">
      <g>
       <use style="stroke:#000000;stroke-width:0.8;" x="647.166942" xlink:href="#m0a37bbc0e7" y="720.9"/>
      </g>
     </g>
     <g id="text_5">
      <!-- $\mathdefault{0}$ -->
      <g transform="translate(643.508823 734.777725)scale(0.15 -0.15)">
       <use transform="scale(0.996264)" xlink:href="#CMR17-48"/>
      </g>
     </g>
    </g>
    <g id="text_6">
     <!-- $Re$ -->
     <g transform="translate(388.164639 758.979723)scale(0.25 -0.25)">
      <defs>
       <path d="M 36.796875 61.3125 
C 37.703125 65 38.09375 65 42 65 
L 49.203125 65 
C 57.796875 65 64.203125 62.421875 64.203125 54.671875 
C 64.203125 49.609375 61.59375 35 41.5 35 
L 30.203125 35 
z
M 50.703125 33.890625 
C 63.09375 36.578125 72.796875 44.546875 72.796875 53.09375 
C 72.796875 60.84375 64.90625 68 51 68 
L 23.90625 68 
C 21.90625 68 21 68 21 66.03125 
C 21 65 21.703125 65 23.59375 65 
C 29.59375 65 29.59375 64.25 29.59375 63.203125 
C 29.59375 63.015625 29.59375 62.40625 29.203125 60.921875 
L 15.703125 7.484375 
C 14.796875 4 14.59375 3 7.703125 3 
C 5.40625 3 4.703125 3 4.703125 1.109375 
C 4.703125 0.109375 5.796875 0.109375 6.09375 0.109375 
C 7.90625 0.109375 10 0.109375 11.90625 0.109375 
L 23.703125 0.109375 
C 25.5 0.109375 27.59375 0.109375 29.40625 0.109375 
C 30.203125 0.109375 31.296875 0.109375 31.296875 2 
C 31.296875 3 30.40625 3 28.90625 3 
C 22.796875 3 22.796875 3.796875 22.796875 4.78125 
C 22.796875 4.890625 22.796875 5.578125 23 6.359375 
L 29.703125 33 
L 41.703125 33 
C 51.203125 33 53 27.046875 53 23.78125 
C 53 22.296875 52 18.421875 51.296875 15.84375 
C 50.203125 11.296875 49.90625 10.1875 49.90625 8.3125 
C 49.90625 1.28125 55.703125 -2 62.40625 -2 
C 70.5 -2 74 7.828125 74 9.234375 
C 74 9.921875 73.5 10.21875 72.90625 10.21875 
C 72.09375 10.21875 71.90625 9.625 71.703125 8.828125 
C 69.296875 1.78125 65.203125 0 62.703125 0 
C 60.203125 0 58.59375 1.09375 58.59375 5.5625 
C 58.59375 7.953125 59.796875 17 59.90625 17.5 
C 60.40625 21.171875 60.40625 21.5625 60.40625 22.375 
C 60.40625 29.625 54.5 32.703125 50.703125 33.890625 
z
" id="CMMI12-82"/>
       <path d="M 17.90625 23.109375 
C 20.59375 23.109375 27.40625 23.109375 32.203125 24.921875 
C 39.796875 27.859375 40.5 33.71875 40.5 35.53125 
C 40.5 39.96875 36.703125 44 30.09375 44 
C 19.59375 44 4.5 34.53125 4.5 16.765625 
C 4.5 6.28125 10.5 -1 19.59375 -1 
C 33.203125 -1 41.796875 9.515625 41.796875 10.8125 
C 41.796875 11.40625 41.203125 11.90625 40.796875 11.90625 
C 40.5 11.90625 40.40625 11.8125 39.5 10.921875 
C 33.09375 2.484375 23.59375 1 19.796875 1 
C 14.09375 1 11.09375 5.46875 11.09375 12.84375 
C 11.09375 14.234375 11.09375 16.734375 12.59375 23.109375 
z
M 13.09375 25 
C 17.40625 40.5 26.90625 42.015625 30.09375 42.015625 
C 34.5 42.015625 37.5 39.40625 37.5 35.578125 
C 37.5 25 21.5 25 17.296875 25 
z
" id="CMMI12-101"/>
      </defs>
      <use transform="scale(0.996264)" xlink:href="#CMMI12-82"/>
      <use transform="translate(75.070962 0)scale(0.996264)" xlink:href="#CMMI12-101"/>
     </g>
    </g>
   </g>
   <g id="matplotlib.axis_2">
    <g id="ytick_1">
     <g id="line2d_11">
      <path clip-path="url(#pa2990754cd)" d="M 108 658.111559 
L 698.4 658.111559 
" style="fill:none;stroke:#e6e6e6;stroke-linecap:square;stroke-width:0.8;"/>
     </g>
     <g id="line2d_12">
      <defs>
       <path d="M 0 0 
L 3.5 0 
" id="m3021d2a650" style="stroke:#000000;stroke-width:0.8;"/>
      </defs>
      <g>
       <use style="stroke:#000000;stroke-width:0.8;" x="108" xlink:href="#m3021d2a650" y="658.111559"/>
      </g>
     </g>
     <g id="text_7">
      <!-- $\mathdefault{−10}$ -->
      <g transform="translate(78.244409 663.300422)scale(0.15 -0.15)">
       <use transform="scale(0.996264)" xlink:href="#CMSY10-0"/>
       <use transform="translate(77.487468 0)scale(0.996264)" xlink:href="#CMR17-49"/>
       <use transform="translate(123.177945 0)scale(0.996264)" xlink:href="#CMR17-48"/>
      </g>
     </g>
    </g>
    <g id="ytick_2">
     <g id="line2d_13">
      <path clip-path="url(#pa2990754cd)" d="M 108 516.499908 
L 698.4 516.499908 
" style="fill:none;stroke:#e6e6e6;stroke-linecap:square;stroke-width:0.8;"/>
     </g>
     <g id="line2d_14">
      <g>
       <use style="stroke:#000000;stroke-width:0.8;" x="108" xlink:href="#m3021d2a650" y="516.499908"/>
      </g>
     </g>
     <g id="text_8">
      <!-- $\mathdefault{−5}$ -->
      <g transform="translate(85.560647 521.68877)scale(0.15 -0.15)">
       <use transform="scale(0.996264)" xlink:href="#CMSY10-0"/>
       <use transform="translate(77.487468 0)scale(0.996264)" xlink:href="#CMR17-53"/>
      </g>
     </g>
    </g>
    <g id="ytick_3">
     <g id="line2d_15">
      <path clip-path="url(#pa2990754cd)" d="M 108 374.888256 
L 698.4 374.888256 
" style="fill:none;stroke:#e6e6e6;stroke-linecap:square;stroke-width:0.8;"/>
     </g>
     <g id="line2d_16">
      <g>
       <use style="stroke:#000000;stroke-width:0.8;" x="108" xlink:href="#m3021d2a650" y="374.888256"/>
      </g>
     </g>
     <g id="text_9">
      <!-- $\mathdefault{0}$ -->
      <g transform="translate(97.183762 380.077118)scale(0.15 -0.15)">
       <use transform="scale(0.996264)" xlink:href="#CMR17-48"/>
      </g>
     </g>
    </g>
    <g id="ytick_4">
     <g id="line2d_17">
      <path clip-path="url(#pa2990754cd)" d="M 108 233.276604 
L 698.4 233.276604 
" style="fill:none;stroke:#e6e6e6;stroke-linecap:square;stroke-width:0.8;"/>
     </g>
     <g id="line2d_18">
      <g>
       <use style="stroke:#000000;stroke-width:0.8;" x="108" xlink:href="#m3021d2a650" y="233.276604"/>
      </g>
     </g>
     <g id="text_10">
      <!-- $\mathdefault{5}$ -->
      <g transform="translate(97.183762 238.465467)scale(0.15 -0.15)">
       <use transform="scale(0.996264)" xlink:href="#CMR17-53"/>
      </g>
     </g>
    </g>
    <g id="ytick_5">
     <g id="line2d_19">
      <path clip-path="url(#pa2990754cd)" d="M 108 91.664953 
L 698.4 91.664953 
" style="fill:none;stroke:#e6e6e6;stroke-linecap:square;stroke-width:0.8;"/>
     </g>
     <g id="line2d_20">
      <g>
       <use style="stroke:#000000;stroke-width:0.8;" x="108" xlink:href="#m3021d2a650" y="91.664953"/>
      </g>
     </g>
     <g id="text_11">
      <!-- $\mathdefault{10}$ -->
      <g transform="translate(89.867524 96.853815)scale(0.15 -0.15)">
       <use transform="scale(0.996264)" xlink:href="#CMR17-49"/>
       <use transform="translate(45.690477 0)scale(0.996264)" xlink:href="#CMR17-48"/>
      </g>
     </g>
    </g>
    <g id="text_12">
     <!-- $Im$ -->
     <g transform="translate(69.399874 405.822956)rotate(-90)scale(0.25 -0.25)">
      <defs>
       <path d="M 36.796875 60.625 
C 37.703125 64.109375 37.90625 65.109375 45.203125 65.109375 
C 47.40625 65.109375 48.203125 65.109375 48.203125 67 
C 48.203125 68 47.09375 68 46.796875 68 
C 45 68 42.796875 68 41 68 
L 28.703125 68 
C 26.703125 68 24.40625 68 22.40625 68 
C 21.59375 68 20.5 68 20.5 66.109375 
C 20.5 65.109375 21.296875 65.109375 23.296875 65.109375 
C 29.5 65.109375 29.5 64.3125 29.5 63.21875 
C 29.5 62.53125 29.296875 61.921875 29.09375 61.03125 
L 15.59375 7.375 
C 14.703125 3.890625 14.5 2.890625 7.203125 2.890625 
C 5 2.890625 4.09375 2.890625 4.09375 1 
C 4.09375 0 5.09375 0 5.59375 0 
C 7.40625 0 9.59375 0 11.40625 0 
L 23.703125 0 
C 25.703125 0 27.90625 0 29.90625 0 
C 30.703125 0 31.90625 0 31.90625 1.796875 
C 31.90625 2.890625 31.296875 2.890625 29.09375 2.890625 
C 22.90625 2.890625 22.90625 3.6875 22.90625 4.875 
C 22.90625 5.078125 22.90625 5.578125 23.296875 7.171875 
z
" id="CMMI12-73"/>
       <path d="M 20.59375 29.234375 
C 20.796875 29.84375 23.296875 34.828125 27 38.015625 
C 29.59375 40.40625 33 42.015625 36.90625 42.015625 
C 40.90625 42.015625 42.296875 39.015625 42.296875 35.03125 
C 42.296875 34.421875 42.296875 32.4375 41.09375 27.734375 
L 38.59375 17.46875 
C 37.796875 14.46875 35.90625 7.078125 35.703125 5.984375 
C 35.296875 4.484375 34.703125 1.890625 34.703125 1.5 
C 34.703125 0.09375 35.796875 -1 37.296875 -1 
C 40.296875 -1 40.796875 1.296875 41.703125 4.890625 
L 47.703125 28.734375 
C 47.90625 29.53125 53.09375 42.015625 64.09375 42.015625 
C 68.09375 42.015625 69.5 39.015625 69.5 35.03125 
C 69.5 29.4375 65.59375 18.5625 63.40625 12.578125 
C 62.5 10.171875 62 8.875 62 7.078125 
C 62 2.59375 65.09375 -1 69.90625 -1 
C 79.203125 -1 82.703125 13.671875 82.703125 14.265625 
C 82.703125 14.765625 82.296875 15.171875 81.703125 15.171875 
C 80.796875 15.171875 80.703125 14.875 80.203125 13.171875 
C 77.90625 5.1875 74.203125 1 70.203125 1 
C 69.203125 1 67.59375 1 67.59375 4.203125 
C 67.59375 6.8125 68.796875 10 69.203125 11.09375 
C 71 15.90625 75.5 27.703125 75.5 33.515625 
C 75.5 39.5 72 44 64.40625 44 
C 57.703125 44 52.296875 40.21875 48.296875 34.328125 
C 48 39.71875 44.703125 44 37.203125 44 
C 28.296875 44 23.59375 37.734375 21.796875 35.234375 
C 21.5 40.90625 17.40625 44 13 44 
C 10.09375 44 7.796875 42.609375 5.90625 38.8125 
C 4.09375 35.21875 2.703125 29.140625 2.703125 28.734375 
C 2.703125 28.34375 3.09375 27.84375 3.796875 27.84375 
C 4.59375 27.84375 4.703125 27.9375 5.296875 30.234375 
C 6.796875 36.125 8.703125 42.015625 12.703125 42.015625 
C 15 42.015625 15.796875 40.40625 15.796875 37.421875 
C 15.796875 35.21875 14.796875 31.328125 14.09375 28.234375 
L 11.296875 17.46875 
C 10.90625 15.5625 9.796875 11.078125 9.296875 9.28125 
C 8.59375 6.6875 7.5 2 7.5 1.5 
C 7.5 0.09375 8.59375 -1 10.09375 -1 
C 11.296875 -1 12.703125 -0.40625 13.5 1.09375 
C 13.703125 1.59375 14.59375 5.09375 15.09375 7.078125 
L 17.296875 16.0625 
z
" id="CMMI12-109"/>
      </defs>
      <use transform="scale(0.996264)" xlink:href="#CMMI12-73"/>
      <use transform="translate(50.856514 0)scale(0.996264)" xlink:href="#CMMI12-109"/>
     </g>
    </g>
   </g>
   <g id="line2d_21">
    <path clip-path="url(#pa2990754cd)" d="M 568.818349 347.578383 
L 588.631006 328.331522 
L 614.232053 325.997797 
L 636.321139 341.425006 
L 646.873736 369.008749 
L 642.056295 398.728401 
L 623.618898 419.787401 
L 598.259485 424.535432 
L 575.190626 411.24763 
L 562.792781 384.751189 
L 565.569841 354.67174 
L 582.512954 331.93655 
L 607.467025 324.804862 
L 631.366734 335.867477 
L 645.529792 361.105566 
L 644.81104 391.350633 
L 629.471588 415.615245 
L 605.083953 425.08455 
L 580.50768 416.318538 
L 564.67084 392.501727 
L 563.326643 362.286291 
L 576.963409 336.648899 
L 600.627172 324.903106 
L 625.721357 331.315926 
L 643.129743 353.557709 
L 646.52821 383.548455 
L 634.682163 410.393124 
L 611.895035 424.339578 
L 586.444937 420.321349 
L 567.577385 399.798179 
L 562.146586 370.225728 
L 572.125441 342.347081 
L 593.888831 326.289997 
L 619.530548 327.887696 
L 639.735465 346.559765 
L 647.163536 375.523013 
L 639.116292 404.255666 
L 618.517135 422.319722 
L 592.849332 423.152868 
L 571.437484 406.452438 
L 562.060093 378.285368 
L 568.123776 348.884194 
L 587.42572 328.92978 
L 612.953911 325.671168 
L 635.434463 340.292147 
L 646.700639 367.481206 
L 642.65966 397.361099 
L 624.779534 419.077054 
L 599.555756 424.740096 
L 576.151623 412.292954 
" style="fill:none;stroke:#dd4a4c;stroke-linecap:square;stroke-width:2;"/>
    <defs>
     <path d="M 0 2.5 
C 0.663008 2.5 1.29895 2.236584 1.767767 1.767767 
C 2.236584 1.29895 2.5 0.663008 2.5 0 
C 2.5 -0.663008 2.236584 -1.29895 1.767767 -1.767767 
C 1.29895 -2.236584 0.663008 -2.5 0 -2.5 
C -0.663008 -2.5 -1.29895 -2.236584 -1.767767 -1.767767 
C -2.236584 -1.29895 -2.5 -0.663008 -2.5 0 
C -2.5 0.663008 -2.236584 1.29895 -1.767767 1.767767 
C -1.29895 2.236584 -0.663008 2.5 0 2.5 
z
" id="m0a5947b5b9" style="stroke:#dd4a4c;"/>
    </defs>
    <g clip-path="url(#pa2990754cd)">
     <use style="fill:#dd4a4c;stroke:#dd4a4c;" x="568.818349" xlink:href="#m0a5947b5b9" y="347.578383"/>
     <use style="fill:#dd4a4c;stroke:#dd4a4c;" x="588.631006" xlink:href="#m0a5947b5b9" y="328.331522"/>
     <use style="fill:#dd4a4c;stroke:#dd4a4c;" x="614.232053" xlink:href="#m0a5947b5b9" y="325.997797"/>
     <use style="fill:#dd4a4c;stroke:#dd4a4c;" x="636.321139" xlink:href="#m0a5947b5b9" y="341.425006"/>
     <use style="fill:#dd4a4c;stroke:#dd4a4c;" x="646.873736" xlink:href="#m0a5947b5b9" y="369.008749"/>
     <use style="fill:#dd4a4c;stroke:#dd4a4c;" x="642.056295" xlink:href="#m0a5947b5b9" y="398.728401"/>
     <use style="fill:#dd4a4c;stroke:#dd4a4c;" x="623.618898" xlink:href="#m0a5947b5b9" y="419.787401"/>
     <use style="fill:#dd4a4c;stroke:#dd4a4c;" x="598.259485" xlink:href="#m0a5947b5b9" y="424.535432"/>
     <use style="fill:#dd4a4c;stroke:#dd4a4c;" x="575.190626" xlink:href="#m0a5947b5b9" y="411.24763"/>
     <use style="fill:#dd4a4c;stroke:#dd4a4c;" x="562.792781" xlink:href="#m0a5947b5b9" y="384.751189"/>
     <use style="fill:#dd4a4c;stroke:#dd4a4c;" x="565.569841" xlink:href="#m0a5947b5b9" y="354.67174"/>
     <use style="fill:#dd4a4c;stroke:#dd4a4c;" x="582.512954" xlink:href="#m0a5947b5b9" y="331.93655"/>
     <use style="fill:#dd4a4c;stroke:#dd4a4c;" x="607.467025" xlink:href="#m0a5947b5b9" y="324.804862"/>
     <use style="fill:#dd4a4c;stroke:#dd4a4c;" x="631.366734" xlink:href="#m0a5947b5b9" y="335.867477"/>
     <use style="fill:#dd4a4c;stroke:#dd4a4c;" x="645.529792" xlink:href="#m0a5947b5b9" y="361.105566"/>
     <use style="fill:#dd4a4c;stroke:#dd4a4c;" x="644.81104" xlink:href="#m0a5947b5b9" y="391.350633"/>
     <use style="fill:#dd4a4c;stroke:#dd4a4c;" x="629.471588" xlink:href="#m0a5947b5b9" y="415.615245"/>
     <use style="fill:#dd4a4c;stroke:#dd4a4c;" x="605.083953" xlink:href="#m0a5947b5b9" y="425.08455"/>
     <use style="fill:#dd4a4c;stroke:#dd4a4c;" x="580.50768" xlink:href="#m0a5947b5b9" y="416.318538"/>
     <use style="fill:#dd4a4c;stroke:#dd4a4c;" x="564.67084" xlink:href="#m0a5947b5b9" y="392.501727"/>
     <use style="fill:#dd4a4c;stroke:#dd4a4c;" x="563.326643" xlink:href="#m0a5947b5b9" y="362.286291"/>
     <use style="fill:#dd4a4c;stroke:#dd4a4c;" x="576.963409" xlink:href="#m0a5947b5b9" y="336.648899"/>
     <use style="fill:#dd4a4c;stroke:#dd4a4c;" x="600.627172" xlink:href="#m0a5947b5b9" y="324.903106"/>
     <use style="fill:#dd4a4c;stroke:#dd4a4c;" x="625.721357" xlink:href="#m0a5947b5b9" y="331.315926"/>
     <use style="fill:#dd4a4c;stroke:#dd4a4c;" x="643.129743" xlink:href="#m0a5947b5b9" y="353.557709"/>
     <use style="fill:#dd4a4c;stroke:#dd4a4c;" x="646.52821" xlink:href="#m0a5947b5b9" y="383.548455"/>
     <use style="fill:#dd4a4c;stroke:#dd4a4c;" x="634.682163" xlink:href="#m0a5947b5b9" y="410.393124"/>
     <use style="fill:#dd4a4c;stroke:#dd4a4c;" x="611.895035" xlink:href="#m0a5947b5b9" y="424.339578"/>
     <use style="fill:#dd4a4c;stroke:#dd4a4c;" x="586.444937" xlink:href="#m0a5947b5b9" y="420.321349"/>
     <use style="fill:#dd4a4c;stroke:#dd4a4c;" x="567.577385" xlink:href="#m0a5947b5b9" y="399.798179"/>
     <use style="fill:#dd4a4c;stroke:#dd4a4c;" x="562.146586" xlink:href="#m0a5947b5b9" y="370.225728"/>
     <use style="fill:#dd4a4c;stroke:#dd4a4c;" x="572.125441" xlink:href="#m0a5947b5b9" y="342.347081"/>
     <use style="fill:#dd4a4c;stroke:#dd4a4c;" x="593.888831" xlink:href="#m0a5947b5b9" y="326.289997"/>
     <use style="fill:#dd4a4c;stroke:#dd4a4c;" x="619.530548" xlink:href="#m0a5947b5b9" y="327.887696"/>
     <use style="fill:#dd4a4c;stroke:#dd4a4c;" x="639.735465" xlink:href="#m0a5947b5b9" y="346.559765"/>
     <use style="fill:#dd4a4c;stroke:#dd4a4c;" x="647.163536" xlink:href="#m0a5947b5b9" y="375.523013"/>
     <use style="fill:#dd4a4c;stroke:#dd4a4c;" x="639.116292" xlink:href="#m0a5947b5b9" y="404.255666"/>
     <use style="fill:#dd4a4c;stroke:#dd4a4c;" x="618.517135" xlink:href="#m0a5947b5b9" y="422.319722"/>
     <use style="fill:#dd4a4c;stroke:#dd4a4c;" x="592.849332" xlink:href="#m0a5947b5b9" y="423.152868"/>
     <use style="fill:#dd4a4c;stroke:#dd4a4c;" x="571.437484" xlink:href="#m0a5947b5b9" y="406.452438"/>
     <use style="fill:#dd4a4c;stroke:#dd4a4c;" x="562.060093" xlink:href="#m0a5947b5b9" y="378.285368"/>
     <use style="fill:#dd4a4c;stroke:#dd4a4c;" x="568.123776" xlink:href="#m0a5947b5b9" y="348.884194"/>
     <use style="fill:#dd4a4c;stroke:#dd4a4c;" x="587.42572" xlink:href="#m0a5947b5b9" y="328.92978"/>
     <use style="fill:#dd4a4c;stroke:#dd4a4c;" x="612.953911" xlink:href="#m0a5947b5b9" y="325.671168"/>
     <use style="fill:#dd4a4c;stroke:#dd4a4c;" x="635.434463" xlink:href="#m0a5947b5b9" y="340.292147"/>
     <use style="fill:#dd4a4c;stroke:#dd4a4c;" x="646.700639" xlink:href="#m0a5947b5b9" y="367.481206"/>
     <use style="fill:#dd4a4c;stroke:#dd4a4c;" x="642.65966" xlink:href="#m0a5947b5b9" y="397.361099"/>
     <use style="fill:#dd4a4c;stroke:#dd4a4c;" x="624.779534" xlink:href="#m0a5947b5b9" y="419.077054"/>
     <use style="fill:#dd4a4c;stroke:#dd4a4c;" x="599.555756" xlink:href="#m0a5947b5b9" y="424.740096"/>
     <use style="fill:#dd4a4c;stroke:#dd4a4c;" x="576.151623" xlink:href="#m0a5947b5b9" y="412.292954"/>
    </g>
   </g>
   <g id="line2d_22">
    <path clip-path="url(#pa2990754cd)" d="M 519.085075 525.487977 
L 473.424452 515.424875 
L 431.339169 484.079746 
L 401.450979 432.998429 
L 391.648473 369.080974 
L 406.61313 303.965464 
L 445.740502 251.78275 
L 502.239724 225.645497 
L 563.956011 233.753678 
L 615.979759 276.30655 
L 644.512857 344.356326 
L 640.952414 421.278084 
L 604.919921 486.763116 
L 545.133766 522.394318 
L 477.591758 517.218929 
L 421.351303 471.546985 
L 393.014257 397.593183 
L 401.558439 316.476257 
L 445.194694 252.238483 
L 511.406122 224.58012 
L 580.372108 242.556136 
L 630.882916 301.326793 
L 646.972769 383.186633 
L 623.155296 462.76083 
L 566.488286 514.875628 
L 494.652238 522.647292 
L 430.51041 483.143751 
L 394.808878 408.662547 
L 399.36369 323.049096 
L 443.009687 254.114408 
L 511.74205 224.555961 
L 583.121636 244.368358 
L 633.582401 307.322364 
L 646.26039 392.793827 
L 616.722257 472.450376 
L 554.61562 519.645167 
L 480.600545 518.395887 
L 419.512478 468.897534 
L 392.01196 387.633963 
L 407.538753 301.959101 
L 460.995117 240.908713 
L 534.348196 225.327332 
L 602.672457 260.682462 
L 642.618329 335.068019 
L 640.426733 423.149352 
L 596.724324 494.763095 
L 526.408785 525.259121 
L 453.61042 504.031189 
L 403.42212 438.266569 
L 393.230848 350.568682 
" style="fill:none;stroke:#f98e52;stroke-linecap:square;stroke-width:2;"/>
    <defs>
     <path d="M 0 2.5 
C 0.663008 2.5 1.29895 2.236584 1.767767 1.767767 
C 2.236584 1.29895 2.5 0.663008 2.5 0 
C 2.5 -0.663008 2.236584 -1.29895 1.767767 -1.767767 
C 1.29895 -2.236584 0.663008 -2.5 0 -2.5 
C -0.663008 -2.5 -1.29895 -2.236584 -1.767767 -1.767767 
C -2.236584 -1.29895 -2.5 -0.663008 -2.5 0 
C -2.5 0.663008 -2.236584 1.29895 -1.767767 1.767767 
C -1.29895 2.236584 -0.663008 2.5 0 2.5 
z
" id="m43449d21fd" style="stroke:#f98e52;"/>
    </defs>
    <g clip-path="url(#pa2990754cd)">
     <use style="fill:#f98e52;stroke:#f98e52;" x="519.085075" xlink:href="#m43449d21fd" y="525.487977"/>
     <use style="fill:#f98e52;stroke:#f98e52;" x="473.424452" xlink:href="#m43449d21fd" y="515.424875"/>
     <use style="fill:#f98e52;stroke:#f98e52;" x="431.339169" xlink:href="#m43449d21fd" y="484.079746"/>
     <use style="fill:#f98e52;stroke:#f98e52;" x="401.450979" xlink:href="#m43449d21fd" y="432.998429"/>
     <use style="fill:#f98e52;stroke:#f98e52;" x="391.648473" xlink:href="#m43449d21fd" y="369.080974"/>
     <use style="fill:#f98e52;stroke:#f98e52;" x="406.61313" xlink:href="#m43449d21fd" y="303.965464"/>
     <use style="fill:#f98e52;stroke:#f98e52;" x="445.740502" xlink:href="#m43449d21fd" y="251.78275"/>
     <use style="fill:#f98e52;stroke:#f98e52;" x="502.239724" xlink:href="#m43449d21fd" y="225.645497"/>
     <use style="fill:#f98e52;stroke:#f98e52;" x="563.956011" xlink:href="#m43449d21fd" y="233.753678"/>
     <use style="fill:#f98e52;stroke:#f98e52;" x="615.979759" xlink:href="#m43449d21fd" y="276.30655"/>
     <use style="fill:#f98e52;stroke:#f98e52;" x="644.512857" xlink:href="#m43449d21fd" y="344.356326"/>
     <use style="fill:#f98e52;stroke:#f98e52;" x="640.952414" xlink:href="#m43449d21fd" y="421.278084"/>
     <use style="fill:#f98e52;stroke:#f98e52;" x="604.919921" xlink:href="#m43449d21fd" y="486.763116"/>
     <use style="fill:#f98e52;stroke:#f98e52;" x="545.133766" xlink:href="#m43449d21fd" y="522.394318"/>
     <use style="fill:#f98e52;stroke:#f98e52;" x="477.591758" xlink:href="#m43449d21fd" y="517.218929"/>
     <use style="fill:#f98e52;stroke:#f98e52;" x="421.351303" xlink:href="#m43449d21fd" y="471.546985"/>
     <use style="fill:#f98e52;stroke:#f98e52;" x="393.014257" xlink:href="#m43449d21fd" y="397.593183"/>
     <use style="fill:#f98e52;stroke:#f98e52;" x="401.558439" xlink:href="#m43449d21fd" y="316.476257"/>
     <use style="fill:#f98e52;stroke:#f98e52;" x="445.194694" xlink:href="#m43449d21fd" y="252.238483"/>
     <use style="fill:#f98e52;stroke:#f98e52;" x="511.406122" xlink:href="#m43449d21fd" y="224.58012"/>
     <use style="fill:#f98e52;stroke:#f98e52;" x="580.372108" xlink:href="#m43449d21fd" y="242.556136"/>
     <use style="fill:#f98e52;stroke:#f98e52;" x="630.882916" xlink:href="#m43449d21fd" y="301.326793"/>
     <use style="fill:#f98e52;stroke:#f98e52;" x="646.972769" xlink:href="#m43449d21fd" y="383.186633"/>
     <use style="fill:#f98e52;stroke:#f98e52;" x="623.155296" xlink:href="#m43449d21fd" y="462.76083"/>
     <use style="fill:#f98e52;stroke:#f98e52;" x="566.488286" xlink:href="#m43449d21fd" y="514.875628"/>
     <use style="fill:#f98e52;stroke:#f98e52;" x="494.652238" xlink:href="#m43449d21fd" y="522.647292"/>
     <use style="fill:#f98e52;stroke:#f98e52;" x="430.51041" xlink:href="#m43449d21fd" y="483.143751"/>
     <use style="fill:#f98e52;stroke:#f98e52;" x="394.808878" xlink:href="#m43449d21fd" y="408.662547"/>
     <use style="fill:#f98e52;stroke:#f98e52;" x="399.36369" xlink:href="#m43449d21fd" y="323.049096"/>
     <use style="fill:#f98e52;stroke:#f98e52;" x="443.009687" xlink:href="#m43449d21fd" y="254.114408"/>
     <use style="fill:#f98e52;stroke:#f98e52;" x="511.74205" xlink:href="#m43449d21fd" y="224.555961"/>
     <use style="fill:#f98e52;stroke:#f98e52;" x="583.121636" xlink:href="#m43449d21fd" y="244.368358"/>
     <use style="fill:#f98e52;stroke:#f98e52;" x="633.582401" xlink:href="#m43449d21fd" y="307.322364"/>
     <use style="fill:#f98e52;stroke:#f98e52;" x="646.26039" xlink:href="#m43449d21fd" y="392.793827"/>
     <use style="fill:#f98e52;stroke:#f98e52;" x="616.722257" xlink:href="#m43449d21fd" y="472.450376"/>
     <use style="fill:#f98e52;stroke:#f98e52;" x="554.61562" xlink:href="#m43449d21fd" y="519.645167"/>
     <use style="fill:#f98e52;stroke:#f98e52;" x="480.600545" xlink:href="#m43449d21fd" y="518.395887"/>
     <use style="fill:#f98e52;stroke:#f98e52;" x="419.512478" xlink:href="#m43449d21fd" y="468.897534"/>
     <use style="fill:#f98e52;stroke:#f98e52;" x="392.01196" xlink:href="#m43449d21fd" y="387.633963"/>
     <use style="fill:#f98e52;stroke:#f98e52;" x="407.538753" xlink:href="#m43449d21fd" y="301.959101"/>
     <use style="fill:#f98e52;stroke:#f98e52;" x="460.995117" xlink:href="#m43449d21fd" y="240.908713"/>
     <use style="fill:#f98e52;stroke:#f98e52;" x="534.348196" xlink:href="#m43449d21fd" y="225.327332"/>
     <use style="fill:#f98e52;stroke:#f98e52;" x="602.672457" xlink:href="#m43449d21fd" y="260.682462"/>
     <use style="fill:#f98e52;stroke:#f98e52;" x="642.618329" xlink:href="#m43449d21fd" y="335.068019"/>
     <use style="fill:#f98e52;stroke:#f98e52;" x="640.426733" xlink:href="#m43449d21fd" y="423.149352"/>
     <use style="fill:#f98e52;stroke:#f98e52;" x="596.724324" xlink:href="#m43449d21fd" y="494.763095"/>
     <use style="fill:#f98e52;stroke:#f98e52;" x="526.408785" xlink:href="#m43449d21fd" y="525.259121"/>
     <use style="fill:#f98e52;stroke:#f98e52;" x="453.61042" xlink:href="#m43449d21fd" y="504.031189"/>
     <use style="fill:#f98e52;stroke:#f98e52;" x="403.42212" xlink:href="#m43449d21fd" y="438.266569"/>
     <use style="fill:#f98e52;stroke:#f98e52;" x="393.230848" xlink:href="#m43449d21fd" y="350.568682"/>
    </g>
   </g>
   <g id="line2d_23">
    <path clip-path="url(#pa2990754cd)" d="M 647.16518 375.815292 
L 647.158349 376.935562 
L 647.130895 379.081261 
L 647.035591 382.891217 
L 646.747495 389.183587 
L 645.983156 398.877613 
L 644.188639 412.841643 
L 640.427263 431.672535 
L 633.325046 455.423075 
L 621.140974 483.306978 
L 602.011307 513.434753 
L 574.376215 542.666175 
L 537.542124 566.688108 
L 492.273894 580.417525 
L 441.259946 578.775184 
L 389.268667 557.778154 
L 342.835056 515.778156 
L 309.394525 454.560838 
L 295.912483 379.959429 
L 307.219856 301.661779 
L 344.413752 232.02248 
L 403.767566 183.921612 
L 476.570419 167.994054 
L 550.159453 189.813624 
L 610.134971 247.767981 
L 643.413645 332.329503 
L 641.468279 427.182039 
L 602.923757 512.232033 
L 534.708907 568.008783 
L 451.23404 580.484227 
L 371.535758 545.070643 
L 314.895793 468.602576 
L 295.94306 368.514372 
L 320.526011 269.119285 
L 383.57905 195.711512 
L 469.774728 167.918396 
L 557.036084 194.098008 
L 622.16385 268.454482 
L 647.148764 371.910549 
L 624.413237 476.770956 
L 559.395603 554.100449 
L 469.550705 581.855335 
L 379.835417 551.440462 
L 315.800061 470.672001 
L 296.196844 362.071453 
L 327.279279 256.755618 
L 400.581446 185.534715 
L 495.006681 169.767897 
L 582.782773 214.732119 
L 637.633049 307.625362 
" style="fill:none;stroke:#fed481;stroke-linecap:square;stroke-width:2;"/>
    <defs>
     <path d="M 0 2.5 
C 0.663008 2.5 1.29895 2.236584 1.767767 1.767767 
C 2.236584 1.29895 2.5 0.663008 2.5 0 
C 2.5 -0.663008 2.236584 -1.29895 1.767767 -1.767767 
C 1.29895 -2.236584 0.663008 -2.5 0 -2.5 
C -0.663008 -2.5 -1.29895 -2.236584 -1.767767 -1.767767 
C -2.236584 -1.29895 -2.5 -0.663008 -2.5 0 
C -2.5 0.663008 -2.236584 1.29895 -1.767767 1.767767 
C -1.29895 2.236584 -0.663008 2.5 0 2.5 
z
" id="m94985e2b3d" style="stroke:#fed481;"/>
    </defs>
    <g clip-path="url(#pa2990754cd)">
     <use style="fill:#fed481;stroke:#fed481;" x="647.16518" xlink:href="#m94985e2b3d" y="375.815292"/>
     <use style="fill:#fed481;stroke:#fed481;" x="647.158349" xlink:href="#m94985e2b3d" y="376.935562"/>
     <use style="fill:#fed481;stroke:#fed481;" x="647.130895" xlink:href="#m94985e2b3d" y="379.081261"/>
     <use style="fill:#fed481;stroke:#fed481;" x="647.035591" xlink:href="#m94985e2b3d" y="382.891217"/>
     <use style="fill:#fed481;stroke:#fed481;" x="646.747495" xlink:href="#m94985e2b3d" y="389.183587"/>
     <use style="fill:#fed481;stroke:#fed481;" x="645.983156" xlink:href="#m94985e2b3d" y="398.877613"/>
     <use style="fill:#fed481;stroke:#fed481;" x="644.188639" xlink:href="#m94985e2b3d" y="412.841643"/>
     <use style="fill:#fed481;stroke:#fed481;" x="640.427263" xlink:href="#m94985e2b3d" y="431.672535"/>
     <use style="fill:#fed481;stroke:#fed481;" x="633.325046" xlink:href="#m94985e2b3d" y="455.423075"/>
     <use style="fill:#fed481;stroke:#fed481;" x="621.140974" xlink:href="#m94985e2b3d" y="483.306978"/>
     <use style="fill:#fed481;stroke:#fed481;" x="602.011307" xlink:href="#m94985e2b3d" y="513.434753"/>
     <use style="fill:#fed481;stroke:#fed481;" x="574.376215" xlink:href="#m94985e2b3d" y="542.666175"/>
     <use style="fill:#fed481;stroke:#fed481;" x="537.542124" xlink:href="#m94985e2b3d" y="566.688108"/>
     <use style="fill:#fed481;stroke:#fed481;" x="492.273894" xlink:href="#m94985e2b3d" y="580.417525"/>
     <use style="fill:#fed481;stroke:#fed481;" x="441.259946" xlink:href="#m94985e2b3d" y="578.775184"/>
     <use style="fill:#fed481;stroke:#fed481;" x="389.268667" xlink:href="#m94985e2b3d" y="557.778154"/>
     <use style="fill:#fed481;stroke:#fed481;" x="342.835056" xlink:href="#m94985e2b3d" y="515.778156"/>
     <use style="fill:#fed481;stroke:#fed481;" x="309.394525" xlink:href="#m94985e2b3d" y="454.560838"/>
     <use style="fill:#fed481;stroke:#fed481;" x="295.912483" xlink:href="#m94985e2b3d" y="379.959429"/>
     <use style="fill:#fed481;stroke:#fed481;" x="307.219856" xlink:href="#m94985e2b3d" y="301.661779"/>
     <use style="fill:#fed481;stroke:#fed481;" x="344.413752" xlink:href="#m94985e2b3d" y="232.02248"/>
     <use style="fill:#fed481;stroke:#fed481;" x="403.767566" xlink:href="#m94985e2b3d" y="183.921612"/>
     <use style="fill:#fed481;stroke:#fed481;" x="476.570419" xlink:href="#m94985e2b3d" y="167.994054"/>
     <use style="fill:#fed481;stroke:#fed481;" x="550.159453" xlink:href="#m94985e2b3d" y="189.813624"/>
     <use style="fill:#fed481;stroke:#fed481;" x="610.134971" xlink:href="#m94985e2b3d" y="247.767981"/>
     <use style="fill:#fed481;stroke:#fed481;" x="643.413645" xlink:href="#m94985e2b3d" y="332.329503"/>
     <use style="fill:#fed481;stroke:#fed481;" x="641.468279" xlink:href="#m94985e2b3d" y="427.182039"/>
     <use style="fill:#fed481;stroke:#fed481;" x="602.923757" xlink:href="#m94985e2b3d" y="512.232033"/>
     <use style="fill:#fed481;stroke:#fed481;" x="534.708907" xlink:href="#m94985e2b3d" y="568.008783"/>
     <use style="fill:#fed481;stroke:#fed481;" x="451.23404" xlink:href="#m94985e2b3d" y="580.484227"/>
     <use style="fill:#fed481;stroke:#fed481;" x="371.535758" xlink:href="#m94985e2b3d" y="545.070643"/>
     <use style="fill:#fed481;stroke:#fed481;" x="314.895793" xlink:href="#m94985e2b3d" y="468.602576"/>
     <use style="fill:#fed481;stroke:#fed481;" x="295.94306" xlink:href="#m94985e2b3d" y="368.514372"/>
     <use style="fill:#fed481;stroke:#fed481;" x="320.526011" xlink:href="#m94985e2b3d" y="269.119285"/>
     <use style="fill:#fed481;stroke:#fed481;" x="383.57905" xlink:href="#m94985e2b3d" y="195.711512"/>
     <use style="fill:#fed481;stroke:#fed481;" x="469.774728" xlink:href="#m94985e2b3d" y="167.918396"/>
     <use style="fill:#fed481;stroke:#fed481;" x="557.036084" xlink:href="#m94985e2b3d" y="194.098008"/>
     <use style="fill:#fed481;stroke:#fed481;" x="622.16385" xlink:href="#m94985e2b3d" y="268.454482"/>
     <use style="fill:#fed481;stroke:#fed481;" x="647.148764" xlink:href="#m94985e2b3d" y="371.910549"/>
     <use style="fill:#fed481;stroke:#fed481;" x="624.413237" xlink:href="#m94985e2b3d" y="476.770956"/>
     <use style="fill:#fed481;stroke:#fed481;" x="559.395603" xlink:href="#m94985e2b3d" y="554.100449"/>
     <use style="fill:#fed481;stroke:#fed481;" x="469.550705" xlink:href="#m94985e2b3d" y="581.855335"/>
     <use style="fill:#fed481;stroke:#fed481;" x="379.835417" xlink:href="#m94985e2b3d" y="551.440462"/>
     <use style="fill:#fed481;stroke:#fed481;" x="315.800061" xlink:href="#m94985e2b3d" y="470.672001"/>
     <use style="fill:#fed481;stroke:#fed481;" x="296.196844" xlink:href="#m94985e2b3d" y="362.071453"/>
     <use style="fill:#fed481;stroke:#fed481;" x="327.279279" xlink:href="#m94985e2b3d" y="256.755618"/>
     <use style="fill:#fed481;stroke:#fed481;" x="400.581446" xlink:href="#m94985e2b3d" y="185.534715"/>
     <use style="fill:#fed481;stroke:#fed481;" x="495.006681" xlink:href="#m94985e2b3d" y="169.767897"/>
     <use style="fill:#fed481;stroke:#fed481;" x="582.782773" xlink:href="#m94985e2b3d" y="214.732119"/>
     <use style="fill:#fed481;stroke:#fed481;" x="637.633049" xlink:href="#m94985e2b3d" y="307.625362"/>
    </g>
   </g>
   <g id="line2d_24">
    <path clip-path="url(#pa2990754cd)" d="M 647.166942 374.888277 
L 647.166942 374.888339 
L 647.166942 374.888547 
L 647.166942 374.8892 
L 647.166942 374.891093 
L 647.166942 374.896202 
L 647.166941 374.909111 
L 647.166938 374.939784 
L 647.166918 375.008554 
L 647.166822 375.154487 
L 647.166412 375.448277 
L 647.164813 376.010444 
L 647.159156 377.034297 
L 647.140928 378.810888 
L 647.087329 381.750057 
L 646.943235 386.388662 
L 646.588359 393.375631 
L 645.785812 403.424698 
L 644.114315 417.229435 
L 640.896794 435.339723 
L 635.149609 458.003042 
L 625.584185 484.979236 
L 610.692066 515.346927 
L 588.9344 547.334673 
L 559.038227 578.227024 
L 520.376603 604.407226 
L 473.379938 621.596196 
L 419.896973 625.325403 
L 363.402968 611.637819 
L 308.949376 577.950409 
L 262.771897 523.944572 
L 231.526508 452.293972 
L 221.202784 369.011909 
L 235.858052 283.220703 
L 276.403989 206.223891 
L 339.732883 149.895473 
L 418.469022 124.569675 
L 501.555185 136.784132 
L 575.734749 187.353491 
L 627.787275 270.283583 
L 647.160569 372.946664 
L 628.469898 477.720336 
L 573.261388 564.975673 
L 490.502915 616.947313 
L 395.483303 621.717144 
L 307.140953 576.384947 
L 244.237598 488.553539 
L 221.145131 375.546127 
L 244.220856 261.261823 
L 309.729348 171.161513 
" style="fill:none;stroke:#ffffbe;stroke-linecap:square;stroke-width:2;"/>
    <defs>
     <path d="M 0 2.5 
C 0.663008 2.5 1.29895 2.236584 1.767767 1.767767 
C 2.236584 1.29895 2.5 0.663008 2.5 0 
C 2.5 -0.663008 2.236584 -1.29895 1.767767 -1.767767 
C 1.29895 -2.236584 0.663008 -2.5 0 -2.5 
C -0.663008 -2.5 -1.29895 -2.236584 -1.767767 -1.767767 
C -2.236584 -1.29895 -2.5 -0.663008 -2.5 0 
C -2.5 0.663008 -2.236584 1.29895 -1.767767 1.767767 
C -1.29895 2.236584 -0.663008 2.5 0 2.5 
z
" id="m92c38a9d57" style="stroke:#ffffbe;"/>
    </defs>
    <g clip-path="url(#pa2990754cd)">
     <use style="fill:#ffffbe;stroke:#ffffbe;" x="647.166942" xlink:href="#m92c38a9d57" y="374.888277"/>
     <use style="fill:#ffffbe;stroke:#ffffbe;" x="647.166942" xlink:href="#m92c38a9d57" y="374.888339"/>
     <use style="fill:#ffffbe;stroke:#ffffbe;" x="647.166942" xlink:href="#m92c38a9d57" y="374.888547"/>
     <use style="fill:#ffffbe;stroke:#ffffbe;" x="647.166942" xlink:href="#m92c38a9d57" y="374.8892"/>
     <use style="fill:#ffffbe;stroke:#ffffbe;" x="647.166942" xlink:href="#m92c38a9d57" y="374.891093"/>
     <use style="fill:#ffffbe;stroke:#ffffbe;" x="647.166942" xlink:href="#m92c38a9d57" y="374.896202"/>
     <use style="fill:#ffffbe;stroke:#ffffbe;" x="647.166941" xlink:href="#m92c38a9d57" y="374.909111"/>
     <use style="fill:#ffffbe;stroke:#ffffbe;" x="647.166938" xlink:href="#m92c38a9d57" y="374.939784"/>
     <use style="fill:#ffffbe;stroke:#ffffbe;" x="647.166918" xlink:href="#m92c38a9d57" y="375.008554"/>
     <use style="fill:#ffffbe;stroke:#ffffbe;" x="647.166822" xlink:href="#m92c38a9d57" y="375.154487"/>
     <use style="fill:#ffffbe;stroke:#ffffbe;" x="647.166412" xlink:href="#m92c38a9d57" y="375.448277"/>
     <use style="fill:#ffffbe;stroke:#ffffbe;" x="647.164813" xlink:href="#m92c38a9d57" y="376.010444"/>
     <use style="fill:#ffffbe;stroke:#ffffbe;" x="647.159156" xlink:href="#m92c38a9d57" y="377.034297"/>
     <use style="fill:#ffffbe;stroke:#ffffbe;" x="647.140928" xlink:href="#m92c38a9d57" y="378.810888"/>
     <use style="fill:#ffffbe;stroke:#ffffbe;" x="647.087329" xlink:href="#m92c38a9d57" y="381.750057"/>
     <use style="fill:#ffffbe;stroke:#ffffbe;" x="646.943235" xlink:href="#m92c38a9d57" y="386.388662"/>
     <use style="fill:#ffffbe;stroke:#ffffbe;" x="646.588359" xlink:href="#m92c38a9d57" y="393.375631"/>
     <use style="fill:#ffffbe;stroke:#ffffbe;" x="645.785812" xlink:href="#m92c38a9d57" y="403.424698"/>
     <use style="fill:#ffffbe;stroke:#ffffbe;" x="644.114315" xlink:href="#m92c38a9d57" y="417.229435"/>
     <use style="fill:#ffffbe;stroke:#ffffbe;" x="640.896794" xlink:href="#m92c38a9d57" y="435.339723"/>
     <use style="fill:#ffffbe;stroke:#ffffbe;" x="635.149609" xlink:href="#m92c38a9d57" y="458.003042"/>
     <use style="fill:#ffffbe;stroke:#ffffbe;" x="625.584185" xlink:href="#m92c38a9d57" y="484.979236"/>
     <use style="fill:#ffffbe;stroke:#ffffbe;" x="610.692066" xlink:href="#m92c38a9d57" y="515.346927"/>
     <use style="fill:#ffffbe;stroke:#ffffbe;" x="588.9344" xlink:href="#m92c38a9d57" y="547.334673"/>
     <use style="fill:#ffffbe;stroke:#ffffbe;" x="559.038227" xlink:href="#m92c38a9d57" y="578.227024"/>
     <use style="fill:#ffffbe;stroke:#ffffbe;" x="520.376603" xlink:href="#m92c38a9d57" y="604.407226"/>
     <use style="fill:#ffffbe;stroke:#ffffbe;" x="473.379938" xlink:href="#m92c38a9d57" y="621.596196"/>
     <use style="fill:#ffffbe;stroke:#ffffbe;" x="419.896973" xlink:href="#m92c38a9d57" y="625.325403"/>
     <use style="fill:#ffffbe;stroke:#ffffbe;" x="363.402968" xlink:href="#m92c38a9d57" y="611.637819"/>
     <use style="fill:#ffffbe;stroke:#ffffbe;" x="308.949376" xlink:href="#m92c38a9d57" y="577.950409"/>
     <use style="fill:#ffffbe;stroke:#ffffbe;" x="262.771897" xlink:href="#m92c38a9d57" y="523.944572"/>
     <use style="fill:#ffffbe;stroke:#ffffbe;" x="231.526508" xlink:href="#m92c38a9d57" y="452.293972"/>
     <use style="fill:#ffffbe;stroke:#ffffbe;" x="221.202784" xlink:href="#m92c38a9d57" y="369.011909"/>
     <use style="fill:#ffffbe;stroke:#ffffbe;" x="235.858052" xlink:href="#m92c38a9d57" y="283.220703"/>
     <use style="fill:#ffffbe;stroke:#ffffbe;" x="276.403989" xlink:href="#m92c38a9d57" y="206.223891"/>
     <use style="fill:#ffffbe;stroke:#ffffbe;" x="339.732883" xlink:href="#m92c38a9d57" y="149.895473"/>
     <use style="fill:#ffffbe;stroke:#ffffbe;" x="418.469022" xlink:href="#m92c38a9d57" y="124.569675"/>
     <use style="fill:#ffffbe;stroke:#ffffbe;" x="501.555185" xlink:href="#m92c38a9d57" y="136.784132"/>
     <use style="fill:#ffffbe;stroke:#ffffbe;" x="575.734749" xlink:href="#m92c38a9d57" y="187.353491"/>
     <use style="fill:#ffffbe;stroke:#ffffbe;" x="627.787275" xlink:href="#m92c38a9d57" y="270.283583"/>
     <use style="fill:#ffffbe;stroke:#ffffbe;" x="647.160569" xlink:href="#m92c38a9d57" y="372.946664"/>
     <use style="fill:#ffffbe;stroke:#ffffbe;" x="628.469898" xlink:href="#m92c38a9d57" y="477.720336"/>
     <use style="fill:#ffffbe;stroke:#ffffbe;" x="573.261388" xlink:href="#m92c38a9d57" y="564.975673"/>
     <use style="fill:#ffffbe;stroke:#ffffbe;" x="490.502915" xlink:href="#m92c38a9d57" y="616.947313"/>
     <use style="fill:#ffffbe;stroke:#ffffbe;" x="395.483303" xlink:href="#m92c38a9d57" y="621.717144"/>
     <use style="fill:#ffffbe;stroke:#ffffbe;" x="307.140953" xlink:href="#m92c38a9d57" y="576.384947"/>
     <use style="fill:#ffffbe;stroke:#ffffbe;" x="244.237598" xlink:href="#m92c38a9d57" y="488.553539"/>
     <use style="fill:#ffffbe;stroke:#ffffbe;" x="221.145131" xlink:href="#m92c38a9d57" y="375.546127"/>
     <use style="fill:#ffffbe;stroke:#ffffbe;" x="244.220856" xlink:href="#m92c38a9d57" y="261.261823"/>
     <use style="fill:#ffffbe;stroke:#ffffbe;" x="309.729348" xlink:href="#m92c38a9d57" y="171.161513"/>
    </g>
   </g>
   <g id="line2d_25">
    <path clip-path="url(#pa2990754cd)" d="M 647.166942 374.888256 
L 647.166942 374.888256 
L 647.166942 374.888256 
L 647.166942 374.888256 
L 647.166942 374.888256 
L 647.166942 374.888256 
L 647.166942 374.888256 
L 647.166942 374.888257 
L 647.166942 374.888261 
L 647.166942 374.888272 
L 647.166942 374.888306 
L 647.166942 374.888401 
L 647.166942 374.888657 
L 647.166942 374.889309 
L 647.166942 374.890897 
L 647.166942 374.894596 
L 647.166942 374.90286 
L 647.166941 374.920581 
L 647.166935 374.95712 
L 647.166913 375.029655 
L 647.166827 375.168423 
L 647.166519 375.424472 
L 647.165494 375.880406 
L 647.162301 376.664176 
L 647.153011 377.96514 
L 647.12773 380.050333 
L 647.063365 383.277381 
L 646.910007 388.099037 
L 646.567863 395.053671 
L 645.852503 404.73641 
L 644.449014 417.747146 
L 641.860686 434.613548 
L 637.363981 455.689226 
L 629.986911 481.029527 
L 618.530289 510.25156 
L 601.649605 542.391991 
L 578.008897 575.785862 
L 546.507279 607.999845 
L 506.564049 635.860246 
L 458.430702 655.615631 
L 403.479956 663.26281 
L 344.406801 655.041562 
L 285.269725 628.068867 
L 231.306611 581.041797 
L 188.483327 514.897065 
L 162.774617 433.284823 
L 159.233058 342.7057 
L 180.964244 252.18304 
L 228.181998 172.401609 
L 297.550781 114.33719 
" style="fill:none;stroke:#d6ee9b;stroke-linecap:square;stroke-width:2;"/>
    <defs>
     <path d="M 0 2.5 
C 0.663008 2.5 1.29895 2.236584 1.767767 1.767767 
C 2.236584 1.29895 2.5 0.663008 2.5 0 
C 2.5 -0.663008 2.236584 -1.29895 1.767767 -1.767767 
C 1.29895 -2.236584 0.663008 -2.5 0 -2.5 
C -0.663008 -2.5 -1.29895 -2.236584 -1.767767 -1.767767 
C -2.236584 -1.29895 -2.5 -0.663008 -2.5 0 
C -2.5 0.663008 -2.236584 1.29895 -1.767767 1.767767 
C -1.29895 2.236584 -0.663008 2.5 0 2.5 
z
" id="me186dac356" style="stroke:#d6ee9b;"/>
    </defs>
    <g clip-path="url(#pa2990754cd)">
     <use style="fill:#d6ee9b;stroke:#d6ee9b;" x="647.166942" xlink:href="#me186dac356" y="374.888256"/>
     <use style="fill:#d6ee9b;stroke:#d6ee9b;" x="647.166942" xlink:href="#me186dac356" y="374.888256"/>
     <use style="fill:#d6ee9b;stroke:#d6ee9b;" x="647.166942" xlink:href="#me186dac356" y="374.888256"/>
     <use style="fill:#d6ee9b;stroke:#d6ee9b;" x="647.166942" xlink:href="#me186dac356" y="374.888256"/>
     <use style="fill:#d6ee9b;stroke:#d6ee9b;" x="647.166942" xlink:href="#me186dac356" y="374.888256"/>
     <use style="fill:#d6ee9b;stroke:#d6ee9b;" x="647.166942" xlink:href="#me186dac356" y="374.888256"/>
     <use style="fill:#d6ee9b;stroke:#d6ee9b;" x="647.166942" xlink:href="#me186dac356" y="374.888256"/>
     <use style="fill:#d6ee9b;stroke:#d6ee9b;" x="647.166942" xlink:href="#me186dac356" y="374.888257"/>
     <use style="fill:#d6ee9b;stroke:#d6ee9b;" x="647.166942" xlink:href="#me186dac356" y="374.888261"/>
     <use style="fill:#d6ee9b;stroke:#d6ee9b;" x="647.166942" xlink:href="#me186dac356" y="374.888272"/>
     <use style="fill:#d6ee9b;stroke:#d6ee9b;" x="647.166942" xlink:href="#me186dac356" y="374.888306"/>
     <use style="fill:#d6ee9b;stroke:#d6ee9b;" x="647.166942" xlink:href="#me186dac356" y="374.888401"/>
     <use style="fill:#d6ee9b;stroke:#d6ee9b;" x="647.166942" xlink:href="#me186dac356" y="374.888657"/>
     <use style="fill:#d6ee9b;stroke:#d6ee9b;" x="647.166942" xlink:href="#me186dac356" y="374.889309"/>
     <use style="fill:#d6ee9b;stroke:#d6ee9b;" x="647.166942" xlink:href="#me186dac356" y="374.890897"/>
     <use style="fill:#d6ee9b;stroke:#d6ee9b;" x="647.166942" xlink:href="#me186dac356" y="374.894596"/>
     <use style="fill:#d6ee9b;stroke:#d6ee9b;" x="647.166942" xlink:href="#me186dac356" y="374.90286"/>
     <use style="fill:#d6ee9b;stroke:#d6ee9b;" x="647.166941" xlink:href="#me186dac356" y="374.920581"/>
     <use style="fill:#d6ee9b;stroke:#d6ee9b;" x="647.166935" xlink:href="#me186dac356" y="374.95712"/>
     <use style="fill:#d6ee9b;stroke:#d6ee9b;" x="647.166913" xlink:href="#me186dac356" y="375.029655"/>
     <use style="fill:#d6ee9b;stroke:#d6ee9b;" x="647.166827" xlink:href="#me186dac356" y="375.168423"/>
     <use style="fill:#d6ee9b;stroke:#d6ee9b;" x="647.166519" xlink:href="#me186dac356" y="375.424472"/>
     <use style="fill:#d6ee9b;stroke:#d6ee9b;" x="647.165494" xlink:href="#me186dac356" y="375.880406"/>
     <use style="fill:#d6ee9b;stroke:#d6ee9b;" x="647.162301" xlink:href="#me186dac356" y="376.664176"/>
     <use style="fill:#d6ee9b;stroke:#d6ee9b;" x="647.153011" xlink:href="#me186dac356" y="377.96514"/>
     <use style="fill:#d6ee9b;stroke:#d6ee9b;" x="647.12773" xlink:href="#me186dac356" y="380.050333"/>
     <use style="fill:#d6ee9b;stroke:#d6ee9b;" x="647.063365" xlink:href="#me186dac356" y="383.277381"/>
     <use style="fill:#d6ee9b;stroke:#d6ee9b;" x="646.910007" xlink:href="#me186dac356" y="388.099037"/>
     <use style="fill:#d6ee9b;stroke:#d6ee9b;" x="646.567863" xlink:href="#me186dac356" y="395.053671"/>
     <use style="fill:#d6ee9b;stroke:#d6ee9b;" x="645.852503" xlink:href="#me186dac356" y="404.73641"/>
     <use style="fill:#d6ee9b;stroke:#d6ee9b;" x="644.449014" xlink:href="#me186dac356" y="417.747146"/>
     <use style="fill:#d6ee9b;stroke:#d6ee9b;" x="641.860686" xlink:href="#me186dac356" y="434.613548"/>
     <use style="fill:#d6ee9b;stroke:#d6ee9b;" x="637.363981" xlink:href="#me186dac356" y="455.689226"/>
     <use style="fill:#d6ee9b;stroke:#d6ee9b;" x="629.986911" xlink:href="#me186dac356" y="481.029527"/>
     <use style="fill:#d6ee9b;stroke:#d6ee9b;" x="618.530289" xlink:href="#me186dac356" y="510.25156"/>
     <use style="fill:#d6ee9b;stroke:#d6ee9b;" x="601.649605" xlink:href="#me186dac356" y="542.391991"/>
     <use style="fill:#d6ee9b;stroke:#d6ee9b;" x="578.008897" xlink:href="#me186dac356" y="575.785862"/>
     <use style="fill:#d6ee9b;stroke:#d6ee9b;" x="546.507279" xlink:href="#me186dac356" y="607.999845"/>
     <use style="fill:#d6ee9b;stroke:#d6ee9b;" x="506.564049" xlink:href="#me186dac356" y="635.860246"/>
     <use style="fill:#d6ee9b;stroke:#d6ee9b;" x="458.430702" xlink:href="#me186dac356" y="655.615631"/>
     <use style="fill:#d6ee9b;stroke:#d6ee9b;" x="403.479956" xlink:href="#me186dac356" y="663.26281"/>
     <use style="fill:#d6ee9b;stroke:#d6ee9b;" x="344.406801" xlink:href="#me186dac356" y="655.041562"/>
     <use style="fill:#d6ee9b;stroke:#d6ee9b;" x="285.269725" xlink:href="#me186dac356" y="628.068867"/>
     <use style="fill:#d6ee9b;stroke:#d6ee9b;" x="231.306611" xlink:href="#me186dac356" y="581.041797"/>
     <use style="fill:#d6ee9b;stroke:#d6ee9b;" x="188.483327" xlink:href="#me186dac356" y="514.897065"/>
     <use style="fill:#d6ee9b;stroke:#d6ee9b;" x="162.774617" xlink:href="#me186dac356" y="433.284823"/>
     <use style="fill:#d6ee9b;stroke:#d6ee9b;" x="159.233058" xlink:href="#me186dac356" y="342.7057"/>
     <use style="fill:#d6ee9b;stroke:#d6ee9b;" x="180.964244" xlink:href="#me186dac356" y="252.18304"/>
     <use style="fill:#d6ee9b;stroke:#d6ee9b;" x="228.181998" xlink:href="#me186dac356" y="172.401609"/>
     <use style="fill:#d6ee9b;stroke:#d6ee9b;" x="297.550781" xlink:href="#me186dac356" y="114.33719"/>
    </g>
   </g>
   <g id="line2d_26">
    <path clip-path="url(#pa2990754cd)" d="M 647.166942 374.888256 
L 647.166942 374.888256 
L 647.166942 374.888256 
L 647.166942 374.888256 
L 647.166942 374.888256 
L 647.166942 374.888256 
L 647.166942 374.888256 
L 647.166942 374.888256 
L 647.166942 374.888256 
L 647.166942 374.888256 
L 647.166942 374.888256 
L 647.166942 374.888256 
L 647.166942 374.888256 
L 647.166942 374.888256 
L 647.166942 374.888256 
L 647.166942 374.888256 
L 647.166942 374.888257 
L 647.166942 374.888258 
L 647.166942 374.888263 
L 647.166942 374.888275 
L 647.166942 374.888307 
L 647.166942 374.888386 
L 647.166942 374.888573 
L 647.166942 374.889005 
L 647.166942 374.889967 
L 647.166942 374.892042 
L 647.166942 374.896381 
L 647.166942 374.90518 
L 647.166941 374.922502 
L 647.166936 374.955628 
L 647.16692 375.0172 
L 647.166866 375.128482 
L 647.166691 375.324113 
L 647.166159 375.658698 
L 647.164617 376.215456 
L 647.160386 377.116834 
L 647.149372 378.536439 
L 647.122183 380.710908 
L 647.058535 383.949432 
L 646.917265 388.637812 
L 646.619972 395.233478 
L 646.026654 404.24795 
L 644.903097 416.213847 
L 642.88242 431.634581 
L 639.42676 450.915878 
L 633.798734 474.279509 
L 625.055044 501.661443 
L 612.075305 532.599977 
L 593.637506 566.124567 
L 568.54714 600.662785 
" style="fill:none;stroke:#86cfa5;stroke-linecap:square;stroke-width:2;"/>
    <defs>
     <path d="M 0 2.5 
C 0.663008 2.5 1.29895 2.236584 1.767767 1.767767 
C 2.236584 1.29895 2.5 0.663008 2.5 0 
C 2.5 -0.663008 2.236584 -1.29895 1.767767 -1.767767 
C 1.29895 -2.236584 0.663008 -2.5 0 -2.5 
C -0.663008 -2.5 -1.29895 -2.236584 -1.767767 -1.767767 
C -2.236584 -1.29895 -2.5 -0.663008 -2.5 0 
C -2.5 0.663008 -2.236584 1.29895 -1.767767 1.767767 
C -1.29895 2.236584 -0.663008 2.5 0 2.5 
z
" id="m582f23ebec" style="stroke:#86cfa5;"/>
    </defs>
    <g clip-path="url(#pa2990754cd)">
     <use style="fill:#86cfa5;stroke:#86cfa5;" x="647.166942" xlink:href="#m582f23ebec" y="374.888256"/>
     <use style="fill:#86cfa5;stroke:#86cfa5;" x="647.166942" xlink:href="#m582f23ebec" y="374.888256"/>
     <use style="fill:#86cfa5;stroke:#86cfa5;" x="647.166942" xlink:href="#m582f23ebec" y="374.888256"/>
     <use style="fill:#86cfa5;stroke:#86cfa5;" x="647.166942" xlink:href="#m582f23ebec" y="374.888256"/>
     <use style="fill:#86cfa5;stroke:#86cfa5;" x="647.166942" xlink:href="#m582f23ebec" y="374.888256"/>
     <use style="fill:#86cfa5;stroke:#86cfa5;" x="647.166942" xlink:href="#m582f23ebec" y="374.888256"/>
     <use style="fill:#86cfa5;stroke:#86cfa5;" x="647.166942" xlink:href="#m582f23ebec" y="374.888256"/>
     <use style="fill:#86cfa5;stroke:#86cfa5;" x="647.166942" xlink:href="#m582f23ebec" y="374.888256"/>
     <use style="fill:#86cfa5;stroke:#86cfa5;" x="647.166942" xlink:href="#m582f23ebec" y="374.888256"/>
     <use style="fill:#86cfa5;stroke:#86cfa5;" x="647.166942" xlink:href="#m582f23ebec" y="374.888256"/>
     <use style="fill:#86cfa5;stroke:#86cfa5;" x="647.166942" xlink:href="#m582f23ebec" y="374.888256"/>
     <use style="fill:#86cfa5;stroke:#86cfa5;" x="647.166942" xlink:href="#m582f23ebec" y="374.888256"/>
     <use style="fill:#86cfa5;stroke:#86cfa5;" x="647.166942" xlink:href="#m582f23ebec" y="374.888256"/>
     <use style="fill:#86cfa5;stroke:#86cfa5;" x="647.166942" xlink:href="#m582f23ebec" y="374.888256"/>
     <use style="fill:#86cfa5;stroke:#86cfa5;" x="647.166942" xlink:href="#m582f23ebec" y="374.888256"/>
     <use style="fill:#86cfa5;stroke:#86cfa5;" x="647.166942" xlink:href="#m582f23ebec" y="374.888256"/>
     <use style="fill:#86cfa5;stroke:#86cfa5;" x="647.166942" xlink:href="#m582f23ebec" y="374.888257"/>
     <use style="fill:#86cfa5;stroke:#86cfa5;" x="647.166942" xlink:href="#m582f23ebec" y="374.888258"/>
     <use style="fill:#86cfa5;stroke:#86cfa5;" x="647.166942" xlink:href="#m582f23ebec" y="374.888263"/>
     <use style="fill:#86cfa5;stroke:#86cfa5;" x="647.166942" xlink:href="#m582f23ebec" y="374.888275"/>
     <use style="fill:#86cfa5;stroke:#86cfa5;" x="647.166942" xlink:href="#m582f23ebec" y="374.888307"/>
     <use style="fill:#86cfa5;stroke:#86cfa5;" x="647.166942" xlink:href="#m582f23ebec" y="374.888386"/>
     <use style="fill:#86cfa5;stroke:#86cfa5;" x="647.166942" xlink:href="#m582f23ebec" y="374.888573"/>
     <use style="fill:#86cfa5;stroke:#86cfa5;" x="647.166942" xlink:href="#m582f23ebec" y="374.889005"/>
     <use style="fill:#86cfa5;stroke:#86cfa5;" x="647.166942" xlink:href="#m582f23ebec" y="374.889967"/>
     <use style="fill:#86cfa5;stroke:#86cfa5;" x="647.166942" xlink:href="#m582f23ebec" y="374.892042"/>
     <use style="fill:#86cfa5;stroke:#86cfa5;" x="647.166942" xlink:href="#m582f23ebec" y="374.896381"/>
     <use style="fill:#86cfa5;stroke:#86cfa5;" x="647.166942" xlink:href="#m582f23ebec" y="374.90518"/>
     <use style="fill:#86cfa5;stroke:#86cfa5;" x="647.166941" xlink:href="#m582f23ebec" y="374.922502"/>
     <use style="fill:#86cfa5;stroke:#86cfa5;" x="647.166936" xlink:href="#m582f23ebec" y="374.955628"/>
     <use style="fill:#86cfa5;stroke:#86cfa5;" x="647.16692" xlink:href="#m582f23ebec" y="375.0172"/>
     <use style="fill:#86cfa5;stroke:#86cfa5;" x="647.166866" xlink:href="#m582f23ebec" y="375.128482"/>
     <use style="fill:#86cfa5;stroke:#86cfa5;" x="647.166691" xlink:href="#m582f23ebec" y="375.324113"/>
     <use style="fill:#86cfa5;stroke:#86cfa5;" x="647.166159" xlink:href="#m582f23ebec" y="375.658698"/>
     <use style="fill:#86cfa5;stroke:#86cfa5;" x="647.164617" xlink:href="#m582f23ebec" y="376.215456"/>
     <use style="fill:#86cfa5;stroke:#86cfa5;" x="647.160386" xlink:href="#m582f23ebec" y="377.116834"/>
     <use style="fill:#86cfa5;stroke:#86cfa5;" x="647.149372" xlink:href="#m582f23ebec" y="378.536439"/>
     <use style="fill:#86cfa5;stroke:#86cfa5;" x="647.122183" xlink:href="#m582f23ebec" y="380.710908"/>
     <use style="fill:#86cfa5;stroke:#86cfa5;" x="647.058535" xlink:href="#m582f23ebec" y="383.949432"/>
     <use style="fill:#86cfa5;stroke:#86cfa5;" x="646.917265" xlink:href="#m582f23ebec" y="388.637812"/>
     <use style="fill:#86cfa5;stroke:#86cfa5;" x="646.619972" xlink:href="#m582f23ebec" y="395.233478"/>
     <use style="fill:#86cfa5;stroke:#86cfa5;" x="646.026654" xlink:href="#m582f23ebec" y="404.24795"/>
     <use style="fill:#86cfa5;stroke:#86cfa5;" x="644.903097" xlink:href="#m582f23ebec" y="416.213847"/>
     <use style="fill:#86cfa5;stroke:#86cfa5;" x="642.88242" xlink:href="#m582f23ebec" y="431.634581"/>
     <use style="fill:#86cfa5;stroke:#86cfa5;" x="639.42676" xlink:href="#m582f23ebec" y="450.915878"/>
     <use style="fill:#86cfa5;stroke:#86cfa5;" x="633.798734" xlink:href="#m582f23ebec" y="474.279509"/>
     <use style="fill:#86cfa5;stroke:#86cfa5;" x="625.055044" xlink:href="#m582f23ebec" y="501.661443"/>
     <use style="fill:#86cfa5;stroke:#86cfa5;" x="612.075305" xlink:href="#m582f23ebec" y="532.599977"/>
     <use style="fill:#86cfa5;stroke:#86cfa5;" x="593.637506" xlink:href="#m582f23ebec" y="566.124567"/>
     <use style="fill:#86cfa5;stroke:#86cfa5;" x="568.54714" xlink:href="#m582f23ebec" y="600.662785"/>
    </g>
   </g>
   <g id="line2d_27">
    <path clip-path="url(#pa2990754cd)" d="M 647.166942 374.888256 
L 647.166942 374.888256 
L 647.166942 374.888256 
L 647.166942 374.888256 
L 647.166942 374.888256 
L 647.166942 374.888256 
L 647.166942 374.888256 
L 647.166942 374.888256 
L 647.166942 374.888256 
L 647.166942 374.888256 
L 647.166942 374.888256 
L 647.166942 374.888256 
L 647.166942 374.888256 
L 647.166942 374.888256 
L 647.166942 374.888256 
L 647.166942 374.888256 
L 647.166942 374.888256 
L 647.166942 374.888256 
L 647.166942 374.888256 
L 647.166942 374.888256 
L 647.166942 374.888256 
L 647.166942 374.888256 
L 647.166942 374.888256 
L 647.166942 374.888256 
L 647.166942 374.888256 
L 647.166942 374.888256 
L 647.166942 374.888257 
L 647.166942 374.888258 
L 647.166942 374.888262 
L 647.166942 374.888271 
L 647.166942 374.888293 
L 647.166942 374.888342 
L 647.166942 374.888452 
L 647.166942 374.88869 
L 647.166942 374.889191 
L 647.166942 374.890223 
L 647.166942 374.892292 
L 647.166942 374.896343 
L 647.166942 374.904087 
L 647.166941 374.918546 
L 647.166938 374.944928 
L 647.166929 374.991974 
L 647.1669 375.073992 
L 647.166814 375.213796 
L 647.166565 375.446814 
L 647.165879 375.826575 
L 647.164066 376.4317 
L 647.159479 377.374285 
L 647.148377 378.809224 
L 647.122663 380.943529 
" style="fill:none;stroke:#3d95b8;stroke-linecap:square;stroke-width:2;"/>
    <defs>
     <path d="M 0 2.5 
C 0.663008 2.5 1.29895 2.236584 1.767767 1.767767 
C 2.236584 1.29895 2.5 0.663008 2.5 0 
C 2.5 -0.663008 2.236584 -1.29895 1.767767 -1.767767 
C 1.29895 -2.236584 0.663008 -2.5 0 -2.5 
C -0.663008 -2.5 -1.29895 -2.236584 -1.767767 -1.767767 
C -2.236584 -1.29895 -2.5 -0.663008 -2.5 0 
C -2.5 0.663008 -2.236584 1.29895 -1.767767 1.767767 
C -1.29895 2.236584 -0.663008 2.5 0 2.5 
z
" id="m986455f645" style="stroke:#3d95b8;"/>
    </defs>
    <g clip-path="url(#pa2990754cd)">
     <use style="fill:#3d95b8;stroke:#3d95b8;" x="647.166942" xlink:href="#m986455f645" y="374.888256"/>
     <use style="fill:#3d95b8;stroke:#3d95b8;" x="647.166942" xlink:href="#m986455f645" y="374.888256"/>
     <use style="fill:#3d95b8;stroke:#3d95b8;" x="647.166942" xlink:href="#m986455f645" y="374.888256"/>
     <use style="fill:#3d95b8;stroke:#3d95b8;" x="647.166942" xlink:href="#m986455f645" y="374.888256"/>
     <use style="fill:#3d95b8;stroke:#3d95b8;" x="647.166942" xlink:href="#m986455f645" y="374.888256"/>
     <use style="fill:#3d95b8;stroke:#3d95b8;" x="647.166942" xlink:href="#m986455f645" y="374.888256"/>
     <use style="fill:#3d95b8;stroke:#3d95b8;" x="647.166942" xlink:href="#m986455f645" y="374.888256"/>
     <use style="fill:#3d95b8;stroke:#3d95b8;" x="647.166942" xlink:href="#m986455f645" y="374.888256"/>
     <use style="fill:#3d95b8;stroke:#3d95b8;" x="647.166942" xlink:href="#m986455f645" y="374.888256"/>
     <use style="fill:#3d95b8;stroke:#3d95b8;" x="647.166942" xlink:href="#m986455f645" y="374.888256"/>
     <use style="fill:#3d95b8;stroke:#3d95b8;" x="647.166942" xlink:href="#m986455f645" y="374.888256"/>
     <use style="fill:#3d95b8;stroke:#3d95b8;" x="647.166942" xlink:href="#m986455f645" y="374.888256"/>
     <use style="fill:#3d95b8;stroke:#3d95b8;" x="647.166942" xlink:href="#m986455f645" y="374.888256"/>
     <use style="fill:#3d95b8;stroke:#3d95b8;" x="647.166942" xlink:href="#m986455f645" y="374.888256"/>
     <use style="fill:#3d95b8;stroke:#3d95b8;" x="647.166942" xlink:href="#m986455f645" y="374.888256"/>
     <use style="fill:#3d95b8;stroke:#3d95b8;" x="647.166942" xlink:href="#m986455f645" y="374.888256"/>
     <use style="fill:#3d95b8;stroke:#3d95b8;" x="647.166942" xlink:href="#m986455f645" y="374.888256"/>
     <use style="fill:#3d95b8;stroke:#3d95b8;" x="647.166942" xlink:href="#m986455f645" y="374.888256"/>
     <use style="fill:#3d95b8;stroke:#3d95b8;" x="647.166942" xlink:href="#m986455f645" y="374.888256"/>
     <use style="fill:#3d95b8;stroke:#3d95b8;" x="647.166942" xlink:href="#m986455f645" y="374.888256"/>
     <use style="fill:#3d95b8;stroke:#3d95b8;" x="647.166942" xlink:href="#m986455f645" y="374.888256"/>
     <use style="fill:#3d95b8;stroke:#3d95b8;" x="647.166942" xlink:href="#m986455f645" y="374.888256"/>
     <use style="fill:#3d95b8;stroke:#3d95b8;" x="647.166942" xlink:href="#m986455f645" y="374.888256"/>
     <use style="fill:#3d95b8;stroke:#3d95b8;" x="647.166942" xlink:href="#m986455f645" y="374.888256"/>
     <use style="fill:#3d95b8;stroke:#3d95b8;" x="647.166942" xlink:href="#m986455f645" y="374.888256"/>
     <use style="fill:#3d95b8;stroke:#3d95b8;" x="647.166942" xlink:href="#m986455f645" y="374.888256"/>
     <use style="fill:#3d95b8;stroke:#3d95b8;" x="647.166942" xlink:href="#m986455f645" y="374.888257"/>
     <use style="fill:#3d95b8;stroke:#3d95b8;" x="647.166942" xlink:href="#m986455f645" y="374.888258"/>
     <use style="fill:#3d95b8;stroke:#3d95b8;" x="647.166942" xlink:href="#m986455f645" y="374.888262"/>
     <use style="fill:#3d95b8;stroke:#3d95b8;" x="647.166942" xlink:href="#m986455f645" y="374.888271"/>
     <use style="fill:#3d95b8;stroke:#3d95b8;" x="647.166942" xlink:href="#m986455f645" y="374.888293"/>
     <use style="fill:#3d95b8;stroke:#3d95b8;" x="647.166942" xlink:href="#m986455f645" y="374.888342"/>
     <use style="fill:#3d95b8;stroke:#3d95b8;" x="647.166942" xlink:href="#m986455f645" y="374.888452"/>
     <use style="fill:#3d95b8;stroke:#3d95b8;" x="647.166942" xlink:href="#m986455f645" y="374.88869"/>
     <use style="fill:#3d95b8;stroke:#3d95b8;" x="647.166942" xlink:href="#m986455f645" y="374.889191"/>
     <use style="fill:#3d95b8;stroke:#3d95b8;" x="647.166942" xlink:href="#m986455f645" y="374.890223"/>
     <use style="fill:#3d95b8;stroke:#3d95b8;" x="647.166942" xlink:href="#m986455f645" y="374.892292"/>
     <use style="fill:#3d95b8;stroke:#3d95b8;" x="647.166942" xlink:href="#m986455f645" y="374.896343"/>
     <use style="fill:#3d95b8;stroke:#3d95b8;" x="647.166942" xlink:href="#m986455f645" y="374.904087"/>
     <use style="fill:#3d95b8;stroke:#3d95b8;" x="647.166941" xlink:href="#m986455f645" y="374.918546"/>
     <use style="fill:#3d95b8;stroke:#3d95b8;" x="647.166938" xlink:href="#m986455f645" y="374.944928"/>
     <use style="fill:#3d95b8;stroke:#3d95b8;" x="647.166929" xlink:href="#m986455f645" y="374.991974"/>
     <use style="fill:#3d95b8;stroke:#3d95b8;" x="647.1669" xlink:href="#m986455f645" y="375.073992"/>
     <use style="fill:#3d95b8;stroke:#3d95b8;" x="647.166814" xlink:href="#m986455f645" y="375.213796"/>
     <use style="fill:#3d95b8;stroke:#3d95b8;" x="647.166565" xlink:href="#m986455f645" y="375.446814"/>
     <use style="fill:#3d95b8;stroke:#3d95b8;" x="647.165879" xlink:href="#m986455f645" y="375.826575"/>
     <use style="fill:#3d95b8;stroke:#3d95b8;" x="647.164066" xlink:href="#m986455f645" y="376.4317"/>
     <use style="fill:#3d95b8;stroke:#3d95b8;" x="647.159479" xlink:href="#m986455f645" y="377.374285"/>
     <use style="fill:#3d95b8;stroke:#3d95b8;" x="647.148377" xlink:href="#m986455f645" y="378.809224"/>
     <use style="fill:#3d95b8;stroke:#3d95b8;" x="647.122663" xlink:href="#m986455f645" y="380.943529"/>
    </g>
   </g>
   <g id="line2d_28">
    <path clip-path="url(#pa2990754cd)" d="M 647.166942 374.888256 
L 647.166942 374.888256 
L 647.166942 374.888256 
L 647.166942 374.888256 
L 647.166942 374.888256 
L 647.166942 374.888256 
L 647.166942 374.888256 
L 647.166942 374.888256 
L 647.166942 374.888256 
L 647.166942 374.888256 
L 647.166942 374.888256 
L 647.166942 374.888256 
L 647.166942 374.888256 
L 647.166942 374.888256 
L 647.166942 374.888256 
L 647.166942 374.888256 
L 647.166942 374.888256 
L 647.166942 374.888256 
L 647.166942 374.888256 
L 647.166942 374.888256 
L 647.166942 374.888256 
L 647.166942 374.888256 
L 647.166942 374.888256 
L 647.166942 374.888256 
L 647.166942 374.888256 
L 647.166942 374.888256 
L 647.166942 374.888256 
L 647.166942 374.888256 
L 647.166942 374.888256 
L 647.166942 374.888256 
L 647.166942 374.888256 
L 647.166942 374.888256 
L 647.166942 374.888256 
L 647.166942 374.888256 
L 647.166942 374.888256 
L 647.166942 374.888256 
L 647.166942 374.888257 
L 647.166942 374.888258 
L 647.166942 374.88826 
L 647.166942 374.888266 
L 647.166942 374.888278 
L 647.166942 374.888305 
L 647.166942 374.888362 
L 647.166942 374.88848 
L 647.166942 374.888721 
L 647.166942 374.8892 
L 647.166942 374.890134 
L 647.166942 374.891918 
L 647.166942 374.895261 
L 647.166942 374.9014 
" style="fill:none;stroke:#5e4fa2;stroke-linecap:square;stroke-width:2;"/>
    <defs>
     <path d="M 0 2.5 
C 0.663008 2.5 1.29895 2.236584 1.767767 1.767767 
C 2.236584 1.29895 2.5 0.663008 2.5 0 
C 2.5 -0.663008 2.236584 -1.29895 1.767767 -1.767767 
C 1.29895 -2.236584 0.663008 -2.5 0 -2.5 
C -0.663008 -2.5 -1.29895 -2.236584 -1.767767 -1.767767 
C -2.236584 -1.29895 -2.5 -0.663008 -2.5 0 
C -2.5 0.663008 -2.236584 1.29895 -1.767767 1.767767 
C -1.29895 2.236584 -0.663008 2.5 0 2.5 
z
" id="mfdd6f1da98" style="stroke:#5e4fa2;"/>
    </defs>
    <g clip-path="url(#pa2990754cd)">
     <use style="fill:#5e4fa2;stroke:#5e4fa2;" x="647.166942" xlink:href="#mfdd6f1da98" y="374.888256"/>
     <use style="fill:#5e4fa2;stroke:#5e4fa2;" x="647.166942" xlink:href="#mfdd6f1da98" y="374.888256"/>
     <use style="fill:#5e4fa2;stroke:#5e4fa2;" x="647.166942" xlink:href="#mfdd6f1da98" y="374.888256"/>
     <use style="fill:#5e4fa2;stroke:#5e4fa2;" x="647.166942" xlink:href="#mfdd6f1da98" y="374.888256"/>
     <use style="fill:#5e4fa2;stroke:#5e4fa2;" x="647.166942" xlink:href="#mfdd6f1da98" y="374.888256"/>
     <use style="fill:#5e4fa2;stroke:#5e4fa2;" x="647.166942" xlink:href="#mfdd6f1da98" y="374.888256"/>
     <use style="fill:#5e4fa2;stroke:#5e4fa2;" x="647.166942" xlink:href="#mfdd6f1da98" y="374.888256"/>
     <use style="fill:#5e4fa2;stroke:#5e4fa2;" x="647.166942" xlink:href="#mfdd6f1da98" y="374.888256"/>
     <use style="fill:#5e4fa2;stroke:#5e4fa2;" x="647.166942" xlink:href="#mfdd6f1da98" y="374.888256"/>
     <use style="fill:#5e4fa2;stroke:#5e4fa2;" x="647.166942" xlink:href="#mfdd6f1da98" y="374.888256"/>
     <use style="fill:#5e4fa2;stroke:#5e4fa2;" x="647.166942" xlink:href="#mfdd6f1da98" y="374.888256"/>
     <use style="fill:#5e4fa2;stroke:#5e4fa2;" x="647.166942" xlink:href="#mfdd6f1da98" y="374.888256"/>
     <use style="fill:#5e4fa2;stroke:#5e4fa2;" x="647.166942" xlink:href="#mfdd6f1da98" y="374.888256"/>
     <use style="fill:#5e4fa2;stroke:#5e4fa2;" x="647.166942" xlink:href="#mfdd6f1da98" y="374.888256"/>
     <use style="fill:#5e4fa2;stroke:#5e4fa2;" x="647.166942" xlink:href="#mfdd6f1da98" y="374.888256"/>
     <use style="fill:#5e4fa2;stroke:#5e4fa2;" x="647.166942" xlink:href="#mfdd6f1da98" y="374.888256"/>
     <use style="fill:#5e4fa2;stroke:#5e4fa2;" x="647.166942" xlink:href="#mfdd6f1da98" y="374.888256"/>
     <use style="fill:#5e4fa2;stroke:#5e4fa2;" x="647.166942" xlink:href="#mfdd6f1da98" y="374.888256"/>
     <use style="fill:#5e4fa2;stroke:#5e4fa2;" x="647.166942" xlink:href="#mfdd6f1da98" y="374.888256"/>
     <use style="fill:#5e4fa2;stroke:#5e4fa2;" x="647.166942" xlink:href="#mfdd6f1da98" y="374.888256"/>
     <use style="fill:#5e4fa2;stroke:#5e4fa2;" x="647.166942" xlink:href="#mfdd6f1da98" y="374.888256"/>
     <use style="fill:#5e4fa2;stroke:#5e4fa2;" x="647.166942" xlink:href="#mfdd6f1da98" y="374.888256"/>
     <use style="fill:#5e4fa2;stroke:#5e4fa2;" x="647.166942" xlink:href="#mfdd6f1da98" y="374.888256"/>
     <use style="fill:#5e4fa2;stroke:#5e4fa2;" x="647.166942" xlink:href="#mfdd6f1da98" y="374.888256"/>
     <use style="fill:#5e4fa2;stroke:#5e4fa2;" x="647.166942" xlink:href="#mfdd6f1da98" y="374.888256"/>
     <use style="fill:#5e4fa2;stroke:#5e4fa2;" x="647.166942" xlink:href="#mfdd6f1da98" y="374.888256"/>
     <use style="fill:#5e4fa2;stroke:#5e4fa2;" x="647.166942" xlink:href="#mfdd6f1da98" y="374.888256"/>
     <use style="fill:#5e4fa2;stroke:#5e4fa2;" x="647.166942" xlink:href="#mfdd6f1da98" y="374.888256"/>
     <use style="fill:#5e4fa2;stroke:#5e4fa2;" x="647.166942" xlink:href="#mfdd6f1da98" y="374.888256"/>
     <use style="fill:#5e4fa2;stroke:#5e4fa2;" x="647.166942" xlink:href="#mfdd6f1da98" y="374.888256"/>
     <use style="fill:#5e4fa2;stroke:#5e4fa2;" x="647.166942" xlink:href="#mfdd6f1da98" y="374.888256"/>
     <use style="fill:#5e4fa2;stroke:#5e4fa2;" x="647.166942" xlink:href="#mfdd6f1da98" y="374.888256"/>
     <use style="fill:#5e4fa2;stroke:#5e4fa2;" x="647.166942" xlink:href="#mfdd6f1da98" y="374.888256"/>
     <use style="fill:#5e4fa2;stroke:#5e4fa2;" x="647.166942" xlink:href="#mfdd6f1da98" y="374.888256"/>
     <use style="fill:#5e4fa2;stroke:#5e4fa2;" x="647.166942" xlink:href="#mfdd6f1da98" y="374.888256"/>
     <use style="fill:#5e4fa2;stroke:#5e4fa2;" x="647.166942" xlink:href="#mfdd6f1da98" y="374.888256"/>
     <use style="fill:#5e4fa2;stroke:#5e4fa2;" x="647.166942" xlink:href="#mfdd6f1da98" y="374.888257"/>
     <use style="fill:#5e4fa2;stroke:#5e4fa2;" x="647.166942" xlink:href="#mfdd6f1da98" y="374.888258"/>
     <use style="fill:#5e4fa2;stroke:#5e4fa2;" x="647.166942" xlink:href="#mfdd6f1da98" y="374.88826"/>
     <use style="fill:#5e4fa2;stroke:#5e4fa2;" x="647.166942" xlink:href="#mfdd6f1da98" y="374.888266"/>
     <use style="fill:#5e4fa2;stroke:#5e4fa2;" x="647.166942" xlink:href="#mfdd6f1da98" y="374.888278"/>
     <use style="fill:#5e4fa2;stroke:#5e4fa2;" x="647.166942" xlink:href="#mfdd6f1da98" y="374.888305"/>
     <use style="fill:#5e4fa2;stroke:#5e4fa2;" x="647.166942" xlink:href="#mfdd6f1da98" y="374.888362"/>
     <use style="fill:#5e4fa2;stroke:#5e4fa2;" x="647.166942" xlink:href="#mfdd6f1da98" y="374.88848"/>
     <use style="fill:#5e4fa2;stroke:#5e4fa2;" x="647.166942" xlink:href="#mfdd6f1da98" y="374.888721"/>
     <use style="fill:#5e4fa2;stroke:#5e4fa2;" x="647.166942" xlink:href="#mfdd6f1da98" y="374.8892"/>
     <use style="fill:#5e4fa2;stroke:#5e4fa2;" x="647.166942" xlink:href="#mfdd6f1da98" y="374.890134"/>
     <use style="fill:#5e4fa2;stroke:#5e4fa2;" x="647.166942" xlink:href="#mfdd6f1da98" y="374.891918"/>
     <use style="fill:#5e4fa2;stroke:#5e4fa2;" x="647.166942" xlink:href="#mfdd6f1da98" y="374.895261"/>
     <use style="fill:#5e4fa2;stroke:#5e4fa2;" x="647.166942" xlink:href="#mfdd6f1da98" y="374.9014"/>
    </g>
   </g>
   <g id="patch_3">
    <path d="M 108 720.9 
L 108 56.7 
" style="fill:none;stroke:#000000;stroke-linecap:square;stroke-linejoin:miter;stroke-width:0.8;"/>
   </g>
   <g id="patch_4">
    <path d="M 698.4 720.9 
L 698.4 56.7 
" style="fill:none;stroke:#000000;stroke-linecap:square;stroke-linejoin:miter;stroke-width:0.8;"/>
   </g>
   <g id="patch_5">
    <path d="M 108 720.9 
L 698.4 720.9 
" style="fill:none;stroke:#000000;stroke-linecap:square;stroke-linejoin:miter;stroke-width:0.8;"/>
   </g>
   <g id="patch_6">
    <path d="M 108 56.7 
L 698.4 56.7 
" style="fill:none;stroke:#000000;stroke-linecap:square;stroke-linejoin:miter;stroke-width:0.8;"/>
   </g>
   <g id="text_13">
    <!-- $c_{p;l}(ka=5.0-20.0)$ -->
    <g transform="translate(320.509023 50.7)scale(0.2 -0.2)">
     <defs>
      <path d="M 39.09375 37.984375 
C 37.203125 37.984375 36.296875 37.984375 34.90625 36.796875 
C 34.296875 36.296875 33.203125 34.796875 33.203125 33.203125 
C 33.203125 31.203125 34.703125 30 36.59375 30 
C 39 30 41.703125 31.9375 41.703125 35.8125 
C 41.703125 40.4375 37.09375 44 30.203125 44 
C 17.09375 44 4 29.734375 4 15.5625 
C 4 6.890625 9.40625 -1 19.59375 -1 
C 33.203125 -1 41.796875 9.71875 41.796875 11.03125 
C 41.796875 11.625 41.203125 12.125 40.796875 12.125 
C 40.5 12.125 40.40625 12.03125 39.5 11.140625 
C 33.09375 2.53125 23.59375 1 19.796875 1 
C 12.90625 1 10.703125 6.96875 10.703125 11.9375 
C 10.703125 15.4375 12.40625 25.078125 16 31.859375 
C 18.59375 36.53125 24 41.90625 30.296875 41.90625 
C 31.59375 41.90625 37.09375 41.90625 39.09375 37.984375 
z
" id="CMMI12-99"/>
      <path d="M 4.296875 -12.328125 
C 3.59375 -15.3125 3.203125 -16.109375 -0.90625 -16.109375 
C -2.09375 -16.109375 -3.09375 -16.109375 -3.09375 -18 
C -3.09375 -18.203125 -3 -19 -1.90625 -19 
C -0.59375 -19 0.796875 -19 2.09375 -19 
L 6.40625 -19 
C 8.5 -19 13.59375 -19 15.703125 -19 
C 16.296875 -19 17.5 -19 17.5 -17.203125 
C 17.5 -16.109375 16.796875 -16.109375 15.09375 -16.109375 
C 10.5 -16.109375 10.203125 -15.421875 10.203125 -14.640625 
C 10.203125 -13.453125 14.703125 3.421875 15.296875 5.6875 
C 16.40625 2.890625 19.09375 -1 24.296875 -1 
C 35.59375 -1 47.796875 13.671875 47.796875 28.34375 
C 47.796875 37.515625 42.59375 44 35.09375 44 
C 28.703125 44 23.296875 37.8125 22.203125 36.421875 
C 21.40625 41.40625 17.5 44 13.5 44 
C 10.59375 44 8.296875 42.609375 6.40625 38.8125 
C 4.59375 35.21875 3.203125 29.140625 3.203125 28.734375 
C 3.203125 28.34375 3.59375 27.84375 4.296875 27.84375 
C 5.09375 27.84375 5.203125 27.9375 5.796875 30.234375 
C 7.296875 36.125 9.203125 42.015625 13.203125 42.015625 
C 15.5 42.015625 16.296875 40.421875 16.296875 37.453125 
C 16.296875 35.078125 16 34.078125 15.59375 32.296875 
z
M 21.59375 31.140625 
C 22.296875 33.921875 25.09375 36.828125 26.703125 38.21875 
C 27.796875 39.21875 31.09375 42.015625 34.90625 42.015625 
C 39.296875 42.015625 41.296875 37.625 41.296875 32.4375 
C 41.296875 27.640625 38.5 16.359375 36 11.171875 
C 33.5 5.78125 28.90625 1 24.296875 1 
C 17.5 1 16.40625 9.578125 16.40625 9.984375 
C 16.40625 10.28125 16.59375 11.078125 16.703125 11.578125 
z
" id="CMMI12-112"/>
      <path d="M 16.59375 38.921875 
C 16.59375 41.40625 14.59375 43 12.5 43 
C 10.5 43 8.40625 41.40625 8.40625 38.921875 
C 8.40625 36.4375 10.40625 34.84375 12.5 34.84375 
C 14.5 34.84375 16.59375 36.4375 16.59375 38.921875 
z
M 15.296875 -1.109375 
C 15.296875 -7.546875 13.296875 -12.765625 9.90625 -17.59375 
C 9.296875 -18.28125 9.296875 -18.484375 9.296875 -18.59375 
C 9.296875 -19.09375 9.703125 -19.5 10.09375 -19.5 
C 10.59375 -19.5 16.90625 -12.578125 16.90625 -0.953125 
C 16.90625 2.953125 16.59375 8.15625 12.5 8.15625 
C 10.296875 8.15625 8.40625 6.671875 8.40625 4.078125 
C 8.40625 1.5 10.296875 0 12.5 0 
C 13.5 0 14.59375 0.296875 15.296875 1 
z
" id="CMR17-59"/>
      <path d="M 25.40625 66.515625 
C 25.5 66.90625 25.703125 67.5 25.703125 68 
C 25.703125 69 24.703125 69 24.5 69 
C 24.40625 69 20.796875 68.640625 19 68.390625 
C 17.296875 68.390625 15.796875 68.09375 14 68.09375 
C 11.59375 67.890625 10.90625 67.796875 10.90625 66 
C 10.90625 65 11.90625 65 12.90625 65 
C 18 65 18 64.09375 18 63.109375 
C 18 62.71875 18 62.515625 17.5 60.734375 
L 5.09375 11.421875 
C 4.796875 10.328125 4.59375 9.53125 4.59375 7.953125 
C 4.59375 2.984375 8.296875 -1 13.40625 -1 
C 16.703125 -1 18.90625 1.1875 20.5 4.28125 
C 22.203125 7.546875 23.59375 13.8125 23.59375 14.203125 
C 23.59375 14.703125 23.203125 15.109375 22.59375 15.109375 
C 21.703125 15.109375 21.59375 14.609375 21.203125 13.125 
C 19.40625 6.265625 17.59375 1 13.59375 1 
C 10.59375 1 10.59375 4.171875 10.59375 5.578125 
C 10.59375 5.96875 10.59375 8.046875 11.296875 10.84375 
z
" id="CMMI12-108"/>
      <path d="M 30.59375 -24.390625 
C 30.59375 -24.296875 30.59375 -24.09375 30.296875 -23.796875 
C 25.703125 -19.125 13.40625 -6.359375 13.40625 24.703125 
C 13.40625 55.765625 25.5 68.421875 30.40625 73.390625 
C 30.40625 73.5 30.59375 73.703125 30.59375 74 
C 30.59375 74.296875 30.296875 74.5 29.90625 74.5 
C 28.796875 74.5 20.296875 67.125 15.40625 56.15625 
C 10.40625 45.109375 9 34.359375 9 24.8125 
C 9 17.625 9.703125 5.484375 15.703125 -7.359375 
C 20.5 -17.734375 28.703125 -25 29.90625 -25 
C 30.40625 -25 30.59375 -24.796875 30.59375 -24.390625 
z
" id="CMR17-40"/>
      <path d="M 28.09375 66.515625 
C 28.203125 66.921875 28.40625 67.515625 28.40625 68 
C 28.40625 69 27.40625 69 27.203125 69 
C 27.09375 69 23.5 68.640625 21.703125 68.390625 
C 20 68.390625 18.5 68.09375 16.703125 68.09375 
C 14.296875 67.890625 13.59375 67.796875 13.59375 66 
C 13.59375 65 14.59375 65 15.59375 65 
C 20.703125 65 20.703125 64.109375 20.703125 63.125 
C 20.703125 62.734375 20.703125 62.53125 20.203125 60.75 
L 5.90625 3.875 
C 5.5 2.375 5.5 2.1875 5.5 1.578125 
C 5.5 -0.59375 7.203125 -1 8.203125 -1 
C 11 -1 11.59375 1.203125 12.40625 4.296875 
L 17.09375 22.953125 
C 24.296875 22.15625 28.59375 19.15625 28.59375 14.375 
C 28.59375 13.765625 28.59375 13.375 28.296875 11.875 
C 27.90625 10.375 27.90625 9.1875 27.90625 8.6875 
C 27.90625 2.890625 31.703125 -1 36.796875 -1 
C 41.40625 -1 43.796875 3.1875 44.59375 4.59375 
C 46.703125 8.28125 48 13.875 48 14.265625 
C 48 14.765625 47.59375 15.171875 47 15.171875 
C 46.09375 15.171875 46 14.765625 45.59375 13.171875 
C 44.203125 7.984375 42.09375 1 37 1 
C 35 1 33.703125 2 33.703125 5.78125 
C 33.703125 7.6875 34.09375 9.875 34.5 11.375 
C 34.90625 13.171875 34.90625 13.265625 34.90625 14.46875 
C 34.90625 20.359375 29.59375 23.65625 20.40625 24.84375 
C 24 27.046875 27.59375 30.9375 29 32.4375 
C 34.703125 38.8125 38.59375 42.015625 43.203125 42.015625 
C 45.5 42.015625 46.09375 41.40625 46.796875 40.8125 
C 43.09375 40.40625 41.703125 37.8125 41.703125 35.828125 
C 41.703125 33.421875 43.59375 32.625 45 32.625 
C 47.703125 32.625 50.09375 34.921875 50.09375 38.125 
C 50.09375 41.015625 47.796875 44 43.296875 44 
C 37.796875 44 33.296875 40.109375 26.203125 32.125 
C 25.203125 30.9375 21.5 27.140625 17.796875 25.75 
z
" id="CMMI12-107"/>
      <path d="M 30.09375 11.875 
C 29.59375 10.171875 29.59375 9.984375 28.203125 8.078125 
C 26 5.28125 21.59375 1 16.90625 1 
C 12.796875 1 10.5 4.6875 10.5 10.578125 
C 10.5 16.0625 13.59375 27.234375 15.5 31.4375 
C 18.90625 38.421875 23.59375 42.015625 27.5 42.015625 
C 34.09375 42.015625 35.40625 33.828125 35.40625 33.03125 
C 35.40625 32.9375 35.09375 31.625 35 31.4375 
z
M 36.5 37.421875 
C 35.40625 40.015625 32.703125 44 27.5 44 
C 16.203125 44 4 29.4375 4 14.671875 
C 4 4.796875 9.796875 -1 16.59375 -1 
C 22.09375 -1 26.796875 3.296875 29.59375 6.59375 
C 30.59375 0.703125 35.296875 -1 38.296875 -1 
C 41.296875 -1 43.703125 0.796875 45.5 4.390625 
C 47.09375 7.78125 48.5 13.875 48.5 14.265625 
C 48.5 14.765625 48.09375 15.171875 47.5 15.171875 
C 46.59375 15.171875 46.5 14.671875 46.09375 13.171875 
C 44.59375 7.28125 42.703125 1 38.59375 1 
C 35.703125 1 35.5 3.59375 35.5 5.59375 
C 35.5 7.890625 35.796875 8.984375 36.703125 12.875 
C 37.40625 15.375 37.90625 17.5625 38.703125 20.453125 
C 42.40625 35.421875 43.296875 39.015625 43.296875 39.609375 
C 43.296875 41.015625 42.203125 42.109375 40.703125 42.109375 
C 37.5 42.109375 36.703125 38.625 36.5 37.421875 
z
" id="CMMI12-97"/>
      <path d="M 64.296875 31.515625 
C 65.796875 31.515625 67.296875 31.515625 67.296875 33.203125 
C 67.296875 35 65.59375 35 63.90625 35 
L 8 35 
C 6.296875 35 4.59375 35 4.59375 33.203125 
C 4.59375 31.515625 6.09375 31.515625 7.59375 31.515625 
z
M 63.90625 14 
C 65.59375 14 67.296875 14 67.296875 15.796875 
C 67.296875 17.484375 65.796875 17.484375 64.296875 17.484375 
L 7.59375 17.484375 
C 6.09375 17.484375 4.59375 17.484375 4.59375 15.796875 
C 4.59375 14 6.296875 14 8 14 
z
" id="CMR17-61"/>
      <path d="M 18.40625 4.796875 
C 18.40625 7.6875 16 9.671875 13.59375 9.671875 
C 10.703125 9.671875 8.703125 7.28125 8.703125 4.890625 
C 8.703125 2 11.09375 0 13.5 0 
C 16.40625 0 18.40625 2.390625 18.40625 4.796875 
z
" id="CMMI12-58"/>
      <path d="M 26.296875 24.703125 
C 26.296875 31.875 25.59375 44.015625 19.59375 56.859375 
C 14.796875 67.234375 6.59375 74.5 5.40625 74.5 
C 5.09375 74.5 4.703125 74.390625 4.703125 73.890625 
C 4.703125 73.703125 4.796875 73.59375 4.90625 73.390625 
C 9.703125 68.40625 21.90625 55.75 21.90625 24.75 
C 21.90625 -6.359375 9.796875 -19.015625 4.90625 -24.015625 
C 4.796875 -24.203125 4.703125 -24.3125 4.703125 -24.5 
C 4.703125 -25 5.09375 -25 5.40625 -25 
C 6.5 -25 15 -17.625 19.90625 -6.65625 
C 24.90625 4.390625 26.296875 15.140625 26.296875 24.703125 
z
" id="CMR17-41"/>
     </defs>
     <use transform="scale(0.996264)" xlink:href="#CMMI12-99"/>
     <use transform="translate(41.983234 -14.943915)scale(0.697382)" xlink:href="#CMMI12-112"/>
     <use transform="translate(76.25474 -14.943915)scale(0.697382)" xlink:href="#CMR17-59"/>
     <use transform="translate(93.664399 -14.943915)scale(0.697382)" xlink:href="#CMMI12-108"/>
     <use transform="translate(116.036315 0)scale(0.996264)" xlink:href="#CMR17-40"/>
     <use transform="translate(151.317082 0)scale(0.996264)" xlink:href="#CMMI12-107"/>
     <use transform="translate(205.396283 0)scale(0.996264)" xlink:href="#CMMI12-97"/>
     <use transform="translate(284.278149 0)scale(0.996264)" xlink:href="#CMR17-61"/>
     <use transform="translate(383.666947 0)scale(0.996264)" xlink:href="#CMR17-53"/>
     <use transform="translate(429.357424 0)scale(0.996264)" xlink:href="#CMMI12-58"/>
     <use transform="translate(456.454601 0)scale(0.996264)" xlink:href="#CMR17-48"/>
     <use transform="translate(524.284285 0)scale(0.996264)" xlink:href="#CMSY10-0"/>
     <use transform="translate(623.91096 0)scale(0.996264)" xlink:href="#CMR17-50"/>
     <use transform="translate(669.601437 0)scale(0.996264)" xlink:href="#CMR17-48"/>
     <use transform="translate(715.291914 0)scale(0.996264)" xlink:href="#CMMI12-58"/>
     <use transform="translate(742.389091 0)scale(0.996264)" xlink:href="#CMR17-48"/>
     <use transform="translate(788.079568 0)scale(0.996264)" xlink:href="#CMR17-41"/>
    </g>
   </g>
   <g id="legend_1">
    <g id="patch_7">
     <path d="M 122 710.9 
L 235.938311 710.9 
Q 239.938311 710.9 239.938311 706.9 
L 239.938311 474.333741 
Q 239.938311 470.333741 235.938311 470.333741 
L 122 470.333741 
Q 118 470.333741 118 474.333741 
L 118 706.9 
Q 118 710.9 122 710.9 
z
" style="fill:#ffffff;opacity:0.8;stroke:#cccccc;stroke-linejoin:miter;"/>
    </g>
    <g id="line2d_29">
     <path d="M 126 486.530616 
L 166 486.530616 
" style="fill:none;stroke:#dd4a4c;stroke-linecap:square;stroke-width:2;"/>
    </g>
    <g id="line2d_30">
     <g>
      <use style="fill:#dd4a4c;stroke:#dd4a4c;" x="146" xlink:href="#m0a5947b5b9" y="486.530616"/>
     </g>
    </g>
    <g id="text_14">
     <!-- $l=0$ -->
     <g transform="translate(182 493.530616)scale(0.2 -0.2)">
      <use transform="scale(0.996264)" xlink:href="#CMMI12-108"/>
      <use transform="translate(58.922413 0)scale(0.996264)" xlink:href="#CMR17-61"/>
      <use transform="translate(158.31121 0)scale(0.996264)" xlink:href="#CMR17-48"/>
     </g>
    </g>
    <g id="line2d_31">
     <path d="M 126 515.886866 
L 166 515.886866 
" style="fill:none;stroke:#f98e52;stroke-linecap:square;stroke-width:2;"/>
    </g>
    <g id="line2d_32">
     <g>
      <use style="fill:#f98e52;stroke:#f98e52;" x="146" xlink:href="#m43449d21fd" y="515.886866"/>
     </g>
    </g>
    <g id="text_15">
     <!-- $l=4$ -->
     <g transform="translate(182 522.886866)scale(0.2 -0.2)">
      <defs>
       <path d="M 33.59375 64.40625 
C 33.59375 66.5 33.5 66.5 31.703125 66.5 
L 2 19.59375 
L 2 17 
L 27.796875 17 
L 27.796875 7.140625 
C 27.796875 3.5 27.59375 2.5 20.59375 2.5 
L 18.703125 2.5 
L 18.703125 0 
C 21.90625 0 27.296875 0 30.703125 0 
C 34.09375 0 39.5 0 42.703125 0 
L 42.703125 2.5 
L 40.796875 2.5 
C 33.796875 2.5 33.59375 3.5 33.59375 7.140625 
L 33.59375 17 
L 43.796875 17 
L 43.796875 19.59375 
L 33.59375 19.59375 
z
M 28.09375 57.859375 
L 28.09375 19.59375 
L 4 19.59375 
z
" id="CMR17-52"/>
      </defs>
      <use transform="scale(0.996264)" xlink:href="#CMMI12-108"/>
      <use transform="translate(58.922413 0)scale(0.996264)" xlink:href="#CMR17-61"/>
      <use transform="translate(158.31121 0)scale(0.996264)" xlink:href="#CMR17-52"/>
     </g>
    </g>
    <g id="line2d_33">
     <path d="M 126 545.243116 
L 166 545.243116 
" style="fill:none;stroke:#fed481;stroke-linecap:square;stroke-width:2;"/>
    </g>
    <g id="line2d_34">
     <g>
      <use style="fill:#fed481;stroke:#fed481;" x="146" xlink:href="#m94985e2b3d" y="545.243116"/>
     </g>
    </g>
    <g id="text_16">
     <!-- $l=8$ -->
     <g transform="translate(182 552.243116)scale(0.2 -0.2)">
      <defs>
       <path d="M 27.203125 35.375 
C 33.5 38.546875 39.90625 43.328125 39.90625 50.984375 
C 39.90625 60.015625 31.09375 65.296875 23 65.296875 
C 13.90625 65.296875 5.90625 58.734375 5.90625 49.6875 
C 5.90625 47.203125 6.5 42.921875 10.40625 39.140625 
C 11.40625 38.15625 15.59375 35.171875 18.296875 33.28125 
C 13.796875 30.984375 3.296875 25.53125 3.296875 14.59375 
C 3.296875 4.359375 13.09375 -2 22.796875 -2 
C 33.5 -2 42.5 5.65625 42.5 15.78125 
C 42.5 24.84375 36.40625 29.015625 32.40625 31.703125 
z
M 14.09375 44.09375 
C 13.296875 44.59375 9.296875 47.671875 9.296875 52.359375 
C 9.296875 58.421875 15.59375 63 22.796875 63 
C 30.703125 63 36.5 57.4375 36.5 50.96875 
C 36.5 41.703125 26.09375 36.421875 25.59375 36.421875 
C 25.5 36.421875 25.40625 36.421875 24.59375 37.03125 
z
M 32.5 23.734375 
C 34 22.640625 38.796875 19.375 38.796875 13.296875 
C 38.796875 5.953125 31.40625 0.390625 23 0.390625 
C 13.90625 0.390625 7 6.84375 7 14.6875 
C 7 22.546875 13.09375 29.09375 20 32.1875 
z
" id="CMR17-56"/>
      </defs>
      <use transform="scale(0.996264)" xlink:href="#CMMI12-108"/>
      <use transform="translate(58.922413 0)scale(0.996264)" xlink:href="#CMR17-61"/>
      <use transform="translate(158.31121 0)scale(0.996264)" xlink:href="#CMR17-56"/>
     </g>
    </g>
    <g id="line2d_35">
     <path d="M 126 574.599366 
L 166 574.599366 
" style="fill:none;stroke:#ffffbe;stroke-linecap:square;stroke-width:2;"/>
    </g>
    <g id="line2d_36">
     <g>
      <use style="fill:#ffffbe;stroke:#ffffbe;" x="146" xlink:href="#m92c38a9d57" y="574.599366"/>
     </g>
    </g>
    <g id="text_17">
     <!-- $l=12$ -->
     <g transform="translate(182 581.599366)scale(0.2 -0.2)">
      <use transform="scale(0.996264)" xlink:href="#CMMI12-108"/>
      <use transform="translate(58.922413 0)scale(0.996264)" xlink:href="#CMR17-61"/>
      <use transform="translate(158.31121 0)scale(0.996264)" xlink:href="#CMR17-49"/>
      <use transform="translate(204.001687 0)scale(0.996264)" xlink:href="#CMR17-50"/>
     </g>
    </g>
    <g id="line2d_37">
     <path d="M 126 603.955616 
L 166 603.955616 
" style="fill:none;stroke:#d6ee9b;stroke-linecap:square;stroke-width:2;"/>
    </g>
    <g id="line2d_38">
     <g>
      <use style="fill:#d6ee9b;stroke:#d6ee9b;" x="146" xlink:href="#me186dac356" y="603.955616"/>
     </g>
    </g>
    <g id="text_18">
     <!-- $l=16$ -->
     <g transform="translate(182 610.955616)scale(0.2 -0.2)">
      <defs>
       <path d="M 10.59375 34 
C 10.59375 57.65625 21.796875 63 28.296875 63 
C 30.40625 63 35.5 62.640625 37.5 59 
C 35.90625 59 32.90625 59 32.90625 55.515625 
C 32.90625 52.828125 35.09375 51.921875 36.5 51.921875 
C 37.40625 51.921875 40.09375 52.3125 40.09375 55.625 
C 40.09375 61.78125 35.09375 65.296875 28.203125 65.296875 
C 16.296875 65.296875 3.796875 52.96875 3.796875 31 
C 3.796875 3.953125 15.09375 -2 23.09375 -2 
C 32.796875 -2 42 6.671875 42 20.046875 
C 42 32.515625 33.90625 41.59375 23.703125 41.59375 
C 17.59375 41.59375 13.09375 37.609375 10.59375 30.625 
z
M 23.09375 0.390625 
C 10.796875 0.390625 10.796875 18.75 10.796875 22.4375 
C 10.796875 29.625 14.203125 40 23.5 40 
C 25.203125 40 30.09375 40 33.40625 33.125 
C 35.203125 29.21875 35.203125 25.140625 35.203125 20.140625 
C 35.203125 14.75 35.203125 10.78125 33.09375 6.78125 
C 30.90625 2.671875 27.703125 0.390625 23.09375 0.390625 
z
" id="CMR17-54"/>
      </defs>
      <use transform="scale(0.996264)" xlink:href="#CMMI12-108"/>
      <use transform="translate(58.922413 0)scale(0.996264)" xlink:href="#CMR17-61"/>
      <use transform="translate(158.31121 0)scale(0.996264)" xlink:href="#CMR17-49"/>
      <use transform="translate(204.001687 0)scale(0.996264)" xlink:href="#CMR17-54"/>
     </g>
    </g>
    <g id="line2d_39">
     <path d="M 126 633.311866 
L 166 633.311866 
" style="fill:none;stroke:#86cfa5;stroke-linecap:square;stroke-width:2;"/>
    </g>
    <g id="line2d_40">
     <g>
      <use style="fill:#86cfa5;stroke:#86cfa5;" x="146" xlink:href="#m582f23ebec" y="633.311866"/>
     </g>
    </g>
    <g id="text_19">
     <!-- $l=20$ -->
     <g transform="translate(182 640.311866)scale(0.2 -0.2)">
      <use transform="scale(0.996264)" xlink:href="#CMMI12-108"/>
      <use transform="translate(58.922413 0)scale(0.996264)" xlink:href="#CMR17-61"/>
      <use transform="translate(158.31121 0)scale(0.996264)" xlink:href="#CMR17-50"/>
      <use transform="translate(204.001687 0)scale(0.996264)" xlink:href="#CMR17-48"/>
     </g>
    </g>
    <g id="line2d_41">
     <path d="M 126 662.668116 
L 166 662.668116 
" style="fill:none;stroke:#3d95b8;stroke-linecap:square;stroke-width:2;"/>
    </g>
    <g id="line2d_42">
     <g>
      <use style="fill:#3d95b8;stroke:#3d95b8;" x="146" xlink:href="#m986455f645" y="662.668116"/>
     </g>
    </g>
    <g id="text_20">
     <!-- $l=24$ -->
     <g transform="translate(182 669.668116)scale(0.2 -0.2)">
      <use transform="scale(0.996264)" xlink:href="#CMMI12-108"/>
      <use transform="translate(58.922413 0)scale(0.996264)" xlink:href="#CMR17-61"/>
      <use transform="translate(158.31121 0)scale(0.996264)" xlink:href="#CMR17-50"/>
      <use transform="translate(204.001687 0)scale(0.996264)" xlink:href="#CMR17-52"/>
     </g>
    </g>
    <g id="line2d_43">
     <path d="M 126 692.024366 
L 166 692.024366 
" style="fill:none;stroke:#5e4fa2;stroke-linecap:square;stroke-width:2;"/>
    </g>
    <g id="line2d_44">
     <g>
      <use style="fill:#5e4fa2;stroke:#5e4fa2;" x="146" xlink:href="#mfdd6f1da98" y="692.024366"/>
     </g>
    </g>
    <g id="text_21">
     <!-- $l=28$ -->
     <g transform="translate(182 699.024366)scale(0.2 -0.2)">
      <use transform="scale(0.996264)" xlink:href="#CMMI12-108"/>
      <use transform="translate(58.922413 0)scale(0.996264)" xlink:href="#CMR17-61"/>
      <use transform="translate(158.31121 0)scale(0.996264)" xlink:href="#CMR17-50"/>
      <use transform="translate(204.001687 0)scale(0.996264)" xlink:href="#CMR17-56"/>
     </g>
    </g>
   </g>
  </g>
 </g>
 <defs>
  <clipPath id="pa2990754cd">
   <rect height="664.2" width="590.4" x="108" y="56.7"/>
  </clipPath>
 </defs>
</svg>
