<?xml version="1.0" encoding="utf-8" standalone="no"?>
<!DOCTYPE svg PUBLIC "-//W3C//DTD SVG 1.1//EN"
  "http://www.w3.org/Graphics/SVG/1.1/DTD/svg11.dtd">
<!-- Created with matplotlib (https://matplotlib.org/) -->
<svg height="810pt" version="1.1" viewBox="0 0 720 810" width="720pt" xmlns="http://www.w3.org/2000/svg" xmlns:xlink="http://www.w3.org/1999/xlink">
 <metadata>
  <rdf:RDF xmlns:cc="http://creativecommons.org/ns#" xmlns:dc="http://purl.org/dc/elements/1.1/" xmlns:rdf="http://www.w3.org/1999/02/22-rdf-syntax-ns#">
   <cc:Work>
    <dc:type rdf:resource="http://purl.org/dc/dcmitype/StillImage"/>
    <dc:date>2020-11-26T00:05:35.384506</dc:date>
    <dc:format>image/svg+xml</dc:format>
    <dc:creator>
     <cc:Agent>
      <dc:title>Matplotlib v3.3.1, https://matplotlib.org/</dc:title>
     </cc:Agent>
    </dc:creator>
   </cc:Work>
  </rdf:RDF>
 </metadata>
 <defs>
  <style type="text/css">*{stroke-linecap:butt;stroke-linejoin:round;}</style>
 </defs>
 <g id="figure_1">
  <g id="patch_1">
   <path d="M 0 810 
L 720 810 
L 720 0 
L 0 0 
z
" style="fill:#ffffff;"/>
  </g>
  <g id="axes_1">
   <g id="patch_2">
    <path d="M 108 720.9 
L 698.4 720.9 
L 698.4 56.7 
L 108 56.7 
z
" style="fill:#ffffff;"/>
   </g>
   <g id="matplotlib.axis_1">
    <g id="xtick_1">
     <g id="line2d_1">
      <path clip-path="url(#pfe784c81c6)" d="M 159.233058 720.9 
L 159.233058 56.7 
" style="fill:none;stroke:#e6e6e6;stroke-linecap:square;stroke-width:0.8;"/>
     </g>
     <g id="line2d_2">
      <defs>
       <path d="M 0 0 
L 0 -3.5 
" id="m3dea9cb244" style="stroke:#000000;stroke-width:0.8;"/>
      </defs>
      <g>
       <use style="stroke:#000000;stroke-width:0.8;" x="159.233058" xlink:href="#m3dea9cb244" y="720.9"/>
      </g>
     </g>
     <g id="text_1">
      <!-- $\mathdefault{10}$ -->
      <g transform="translate(151.91682 734.777725)scale(0.15 -0.15)">
       <defs>
        <path d="M 26.59375 63.40625 
C 26.59375 65.5 26.5 65.5 25.09375 65.5 
C 21.203125 61.1875 15.296875 59.796875 9.703125 59.796875 
C 9.40625 59.796875 8.90625 59.796875 8.796875 59.5 
C 8.703125 59.296875 8.703125 59.09375 8.703125 57 
C 11.796875 57 17 57.59375 21 59.984375 
L 21 7.203125 
C 21 3.6875 20.796875 2.5 12.203125 2.5 
L 9.203125 2.5 
L 9.203125 0 
C 14 0 19 0 23.796875 0 
C 28.59375 0 33.59375 0 38.40625 0 
L 38.40625 2.5 
L 35.40625 2.5 
C 26.796875 2.5 26.59375 3.59375 26.59375 7.15625 
z
" id="CMR17-49"/>
        <path d="M 42 31.640625 
C 42 37.75 41.90625 48.125 37.703125 56.109375 
C 34 63.109375 28.09375 65.59375 22.90625 65.59375 
C 18.09375 65.59375 12 63.40625 8.203125 56.203125 
C 4.203125 48.71875 3.796875 39.4375 3.796875 31.640625 
C 3.796875 25.953125 3.90625 17.28125 7 9.671875 
C 11.296875 -0.609375 19 -2 22.90625 -2 
C 27.5 -2 34.5 -0.109375 38.59375 9.375 
C 41.59375 16.28125 42 24.359375 42 31.640625 
z
M 22.90625 -0.40625 
C 16.5 -0.40625 12.703125 5.078125 11.296875 12.6875 
C 10.203125 18.5625 10.203125 27.15625 10.203125 32.75 
C 10.203125 40.4375 10.203125 46.828125 11.5 52.921875 
C 13.40625 61.390625 19 64 22.90625 64 
C 27 64 32.296875 61.296875 34.203125 53.125 
C 35.5 47.4375 35.59375 40.734375 35.59375 32.75 
C 35.59375 26.25 35.59375 18.265625 34.40625 12.375 
C 32.296875 1.484375 26.40625 -0.40625 22.90625 -0.40625 
z
" id="CMR17-48"/>
       </defs>
       <use transform="scale(0.996264)" xlink:href="#CMR17-49"/>
       <use transform="translate(45.690477 0)scale(0.996264)" xlink:href="#CMR17-48"/>
      </g>
     </g>
    </g>
    <g id="xtick_2">
     <g id="line2d_3">
      <path clip-path="url(#pfe784c81c6)" d="M 281.216529 720.9 
L 281.216529 56.7 
" style="fill:none;stroke:#e6e6e6;stroke-linecap:square;stroke-width:0.8;"/>
     </g>
     <g id="line2d_4">
      <g>
       <use style="stroke:#000000;stroke-width:0.8;" x="281.216529" xlink:href="#m3dea9cb244" y="720.9"/>
      </g>
     </g>
     <g id="text_2">
      <!-- $\mathdefault{15}$ -->
      <g transform="translate(273.900291 734.777725)scale(0.15 -0.15)">
       <defs>
        <path d="M 11.40625 57.6875 
C 12.40625 57.28125 16.5 56 20.703125 56 
C 30 56 35.09375 61.109375 38 64.0625 
C 38 64.953125 38 65.5 37.40625 65.5 
C 37.296875 65.5 37.09375 65.5 36.296875 65.046875 
C 32.796875 63.40625 28.703125 62.078125 23.703125 62.078125 
C 20.703125 62.078125 16.203125 62.484375 11.296875 64.671875 
C 10.203125 65.171875 10 65.171875 9.90625 65.171875 
C 9.40625 65.171875 9.296875 65.0625 9.296875 63.078125 
L 9.296875 34.421875 
C 9.296875 32.640625 9.296875 32.140625 10.296875 32.140625 
C 10.796875 32.140625 11 32.34375 11.5 33.03125 
C 14.703125 37.515625 19.09375 39.40625 24.09375 39.40625 
C 27.59375 39.40625 35.09375 37.21875 35.09375 20.140625 
C 35.09375 16.953125 35.09375 11.171875 32.09375 6.578125 
C 29.59375 2.484375 25.703125 0.390625 21.40625 0.390625 
C 14.796875 0.390625 8.09375 5 6.296875 12.71875 
C 6.703125 12.609375 7.5 12.421875 7.90625 12.421875 
C 9.203125 12.421875 11.703125 13.125 11.703125 16.21875 
C 11.703125 18.90625 9.796875 20 7.90625 20 
C 5.59375 20 4.09375 18.59375 4.09375 15.796875 
C 4.09375 7.09375 11 -2 21.59375 -2 
C 31.90625 -2 41.703125 6.875 41.703125 19.75 
C 41.703125 31.71875 33.90625 41 24.203125 41 
C 19.09375 41 14.796875 39.109375 11.40625 35.53125 
z
" id="CMR17-53"/>
       </defs>
       <use transform="scale(0.996264)" xlink:href="#CMR17-49"/>
       <use transform="translate(45.690477 0)scale(0.996264)" xlink:href="#CMR17-53"/>
      </g>
     </g>
    </g>
    <g id="xtick_3">
     <g id="line2d_5">
      <path clip-path="url(#pfe784c81c6)" d="M 403.2 720.9 
L 403.2 56.7 
" style="fill:none;stroke:#e6e6e6;stroke-linecap:square;stroke-width:0.8;"/>
     </g>
     <g id="line2d_6">
      <g>
       <use style="stroke:#000000;stroke-width:0.8;" x="403.2" xlink:href="#m3dea9cb244" y="720.9"/>
      </g>
     </g>
     <g id="text_3">
      <!-- $\mathdefault{20}$ -->
      <g transform="translate(395.883762 734.777725)scale(0.15 -0.15)">
       <defs>
        <path d="M 41.703125 15.453125 
L 39.90625 15.453125 
C 38.90625 8.375 38.09375 7.171875 37.703125 6.5625 
C 37.203125 5.765625 30 5.765625 28.59375 5.765625 
L 9.40625 5.765625 
C 13 9.671875 20 16.75 28.5 24.953125 
C 34.59375 30.734375 41.703125 37.53125 41.703125 47.421875 
C 41.703125 59.21875 32.296875 66 21.796875 66 
C 10.796875 66 4.09375 56.3125 4.09375 47.34375 
C 4.09375 43.4375 7 42.9375 8.203125 42.9375 
C 9.203125 42.9375 12.203125 43.546875 12.203125 47.03125 
C 12.203125 50.109375 9.59375 51 8.203125 51 
C 7.59375 51 7 50.90625 6.59375 50.703125 
C 8.5 59.21875 14.296875 63.40625 20.40625 63.40625 
C 29.09375 63.40625 34.796875 56.515625 34.796875 47.421875 
C 34.796875 38.734375 29.703125 31.25 24 24.75 
L 4.09375 2.28125 
L 4.09375 0 
L 39.296875 0 
z
" id="CMR17-50"/>
       </defs>
       <use transform="scale(0.996264)" xlink:href="#CMR17-50"/>
       <use transform="translate(45.690477 0)scale(0.996264)" xlink:href="#CMR17-48"/>
      </g>
     </g>
    </g>
    <g id="xtick_4">
     <g id="line2d_7">
      <path clip-path="url(#pfe784c81c6)" d="M 525.183471 720.9 
L 525.183471 56.7 
" style="fill:none;stroke:#e6e6e6;stroke-linecap:square;stroke-width:0.8;"/>
     </g>
     <g id="line2d_8">
      <g>
       <use style="stroke:#000000;stroke-width:0.8;" x="525.183471" xlink:href="#m3dea9cb244" y="720.9"/>
      </g>
     </g>
     <g id="text_4">
      <!-- $\mathdefault{25}$ -->
      <g transform="translate(517.867233 734.777725)scale(0.15 -0.15)">
       <use transform="scale(0.996264)" xlink:href="#CMR17-50"/>
       <use transform="translate(45.690477 0)scale(0.996264)" xlink:href="#CMR17-53"/>
      </g>
     </g>
    </g>
    <g id="xtick_5">
     <g id="line2d_9">
      <path clip-path="url(#pfe784c81c6)" d="M 647.166942 720.9 
L 647.166942 56.7 
" style="fill:none;stroke:#e6e6e6;stroke-linecap:square;stroke-width:0.8;"/>
     </g>
     <g id="line2d_10">
      <g>
       <use style="stroke:#000000;stroke-width:0.8;" x="647.166942" xlink:href="#m3dea9cb244" y="720.9"/>
      </g>
     </g>
     <g id="text_5">
      <!-- $\mathdefault{30}$ -->
      <g transform="translate(639.850704 734.777725)scale(0.15 -0.15)">
       <defs>
        <path d="M 22.09375 33.703125 
C 31 33.703125 34.90625 25.96875 34.90625 17.03125 
C 34.90625 5 28.5 0.390625 22.703125 0.390625 
C 17.40625 0.390625 8.796875 3.03125 6.09375 10.828125 
C 6.59375 10.625 7.09375 10.625 7.59375 10.625 
C 10 10.625 11.796875 12.21875 11.796875 14.8125 
C 11.796875 17.703125 9.59375 19 7.59375 19 
C 5.90625 19 3.296875 18.203125 3.296875 14.46875 
C 3.296875 5.234375 12.296875 -2 22.90625 -2 
C 34 -2 42.5 6.71875 42.5 16.953125 
C 42.5 26.671875 34.5 33.703125 25 34.796875 
C 32.59375 36.375 39.90625 43.0625 39.90625 52.015625 
C 39.90625 59.6875 32 65.296875 23 65.296875 
C 13.90625 65.296875 5.90625 59.828125 5.90625 52.015625 
C 5.90625 48.59375 8.5 48 9.796875 48 
C 11.90625 48 13.703125 49.296875 13.703125 51.890625 
C 13.703125 54.46875 11.90625 55.765625 9.796875 55.765625 
C 9.40625 55.765625 8.90625 55.765625 8.5 55.578125 
C 11.40625 61.859375 19.296875 63 22.796875 63 
C 26.296875 63 32.90625 61.328125 32.90625 51.875 
C 32.90625 49.109375 32.5 44.1875 29.09375 39.84375 
C 26.09375 36 22.703125 36 19.40625 35.6875 
C 18.90625 35.6875 16.59375 35.453125 16.203125 35.453125 
C 15.5 35.359375 15.09375 35.265625 15.09375 34.5 
C 15.09375 33.796875 15.203125 33.703125 17.203125 33.703125 
z
" id="CMR17-51"/>
       </defs>
       <use transform="scale(0.996264)" xlink:href="#CMR17-51"/>
       <use transform="translate(45.690477 0)scale(0.996264)" xlink:href="#CMR17-48"/>
      </g>
     </g>
    </g>
    <g id="text_6">
     <!-- $kd$ -->
     <g transform="translate(390.103976 758.979723)scale(0.25 -0.25)">
      <defs>
       <path d="M 28.09375 66.515625 
C 28.203125 66.921875 28.40625 67.515625 28.40625 68 
C 28.40625 69 27.40625 69 27.203125 69 
C 27.09375 69 23.5 68.640625 21.703125 68.390625 
C 20 68.390625 18.5 68.09375 16.703125 68.09375 
C 14.296875 67.890625 13.59375 67.796875 13.59375 66 
C 13.59375 65 14.59375 65 15.59375 65 
C 20.703125 65 20.703125 64.109375 20.703125 63.125 
C 20.703125 62.734375 20.703125 62.53125 20.203125 60.75 
L 5.90625 3.875 
C 5.5 2.375 5.5 2.1875 5.5 1.578125 
C 5.5 -0.59375 7.203125 -1 8.203125 -1 
C 11 -1 11.59375 1.203125 12.40625 4.296875 
L 17.09375 22.953125 
C 24.296875 22.15625 28.59375 19.15625 28.59375 14.375 
C 28.59375 13.765625 28.59375 13.375 28.296875 11.875 
C 27.90625 10.375 27.90625 9.1875 27.90625 8.6875 
C 27.90625 2.890625 31.703125 -1 36.796875 -1 
C 41.40625 -1 43.796875 3.1875 44.59375 4.59375 
C 46.703125 8.28125 48 13.875 48 14.265625 
C 48 14.765625 47.59375 15.171875 47 15.171875 
C 46.09375 15.171875 46 14.765625 45.59375 13.171875 
C 44.203125 7.984375 42.09375 1 37 1 
C 35 1 33.703125 2 33.703125 5.78125 
C 33.703125 7.6875 34.09375 9.875 34.5 11.375 
C 34.90625 13.171875 34.90625 13.265625 34.90625 14.46875 
C 34.90625 20.359375 29.59375 23.65625 20.40625 24.84375 
C 24 27.046875 27.59375 30.9375 29 32.4375 
C 34.703125 38.8125 38.59375 42.015625 43.203125 42.015625 
C 45.5 42.015625 46.09375 41.40625 46.796875 40.8125 
C 43.09375 40.40625 41.703125 37.8125 41.703125 35.828125 
C 41.703125 33.421875 43.59375 32.625 45 32.625 
C 47.703125 32.625 50.09375 34.921875 50.09375 38.125 
C 50.09375 41.015625 47.796875 44 43.296875 44 
C 37.796875 44 33.296875 40.109375 26.203125 32.125 
C 25.203125 30.9375 21.5 27.140625 17.796875 25.75 
z
" id="CMMI12-107"/>
       <path d="M 50.296875 66.515625 
C 50.40625 66.90625 50.59375 67.5 50.59375 68 
C 50.59375 69 49.59375 69 49.40625 69 
C 49.296875 69 44.40625 68.5625 43.90625 68.4375 
C 42.203125 68.328125 40.703125 68.09375 38.90625 68.09375 
C 36.40625 67.890625 35.703125 67.796875 35.703125 66 
C 35.703125 65 36.5 65 37.90625 65 
C 42.796875 65 42.90625 64.109375 42.90625 63.125 
C 42.90625 62.53125 42.703125 61.75 42.59375 61.453125 
L 36.5 37.421875 
C 35.40625 40.015625 32.703125 44 27.5 44 
C 16.203125 44 4 29.4375 4 14.671875 
C 4 4.796875 9.796875 -1 16.59375 -1 
C 22.09375 -1 26.796875 3.296875 29.59375 6.59375 
C 30.59375 0.703125 35.296875 -1 38.296875 -1 
C 41.296875 -1 43.703125 0.796875 45.5 4.390625 
C 47.09375 7.78125 48.5 13.875 48.5 14.265625 
C 48.5 14.765625 48.09375 15.171875 47.5 15.171875 
C 46.59375 15.171875 46.5 14.671875 46.09375 13.171875 
C 44.59375 7.28125 42.703125 1 38.59375 1 
C 35.703125 1 35.5 3.578125 35.5 5.578125 
C 35.5 5.96875 35.5 8.046875 36.203125 10.84375 
z
M 30.09375 11.875 
C 29.59375 10.171875 29.59375 9.984375 28.203125 8.078125 
C 26 5.28125 21.59375 1 16.90625 1 
C 12.796875 1 10.5 4.6875 10.5 10.578125 
C 10.5 16.0625 13.59375 27.234375 15.5 31.4375 
C 18.90625 38.421875 23.59375 42.015625 27.5 42.015625 
C 34.09375 42.015625 35.40625 33.828125 35.40625 33.03125 
C 35.40625 32.9375 35.09375 31.625 35 31.4375 
z
" id="CMMI12-100"/>
      </defs>
      <use transform="scale(0.996264)" xlink:href="#CMMI12-107"/>
      <use transform="translate(54.079201 0)scale(0.996264)" xlink:href="#CMMI12-100"/>
     </g>
    </g>
   </g>
   <g id="matplotlib.axis_2">
    <g id="ytick_1">
     <g id="line2d_11">
      <path clip-path="url(#pfe784c81c6)" d="M 108 688.068786 
L 698.4 688.068786 
" style="fill:none;stroke:#e6e6e6;stroke-linecap:square;stroke-width:0.8;"/>
     </g>
     <g id="line2d_12">
      <defs>
       <path d="M 0 0 
L 3.5 0 
" id="m2a3b2b9a1e" style="stroke:#000000;stroke-width:0.8;"/>
      </defs>
      <g>
       <use style="stroke:#000000;stroke-width:0.8;" x="108" xlink:href="#m2a3b2b9a1e" y="688.068786"/>
      </g>
     </g>
     <g id="text_7">
      <!-- $\mathdefault{10}$ -->
      <g transform="translate(89.867524 693.257649)scale(0.15 -0.15)">
       <use transform="scale(0.996264)" xlink:href="#CMR17-49"/>
       <use transform="translate(45.690477 0)scale(0.996264)" xlink:href="#CMR17-48"/>
      </g>
     </g>
    </g>
    <g id="ytick_2">
     <g id="line2d_13">
      <path clip-path="url(#pfe784c81c6)" d="M 108 612.634621 
L 698.4 612.634621 
" style="fill:none;stroke:#e6e6e6;stroke-linecap:square;stroke-width:0.8;"/>
     </g>
     <g id="line2d_14">
      <g>
       <use style="stroke:#000000;stroke-width:0.8;" x="108" xlink:href="#m2a3b2b9a1e" y="612.634621"/>
      </g>
     </g>
     <g id="text_8">
      <!-- $\mathdefault{12}$ -->
      <g transform="translate(89.867524 617.823484)scale(0.15 -0.15)">
       <use transform="scale(0.996264)" xlink:href="#CMR17-49"/>
       <use transform="translate(45.690477 0)scale(0.996264)" xlink:href="#CMR17-50"/>
      </g>
     </g>
    </g>
    <g id="ytick_3">
     <g id="line2d_15">
      <path clip-path="url(#pfe784c81c6)" d="M 108 537.200456 
L 698.4 537.200456 
" style="fill:none;stroke:#e6e6e6;stroke-linecap:square;stroke-width:0.8;"/>
     </g>
     <g id="line2d_16">
      <g>
       <use style="stroke:#000000;stroke-width:0.8;" x="108" xlink:href="#m2a3b2b9a1e" y="537.200456"/>
      </g>
     </g>
     <g id="text_9">
      <!-- $\mathdefault{14}$ -->
      <g transform="translate(89.867524 542.389318)scale(0.15 -0.15)">
       <defs>
        <path d="M 33.59375 64.40625 
C 33.59375 66.5 33.5 66.5 31.703125 66.5 
L 2 19.59375 
L 2 17 
L 27.796875 17 
L 27.796875 7.140625 
C 27.796875 3.5 27.59375 2.5 20.59375 2.5 
L 18.703125 2.5 
L 18.703125 0 
C 21.90625 0 27.296875 0 30.703125 0 
C 34.09375 0 39.5 0 42.703125 0 
L 42.703125 2.5 
L 40.796875 2.5 
C 33.796875 2.5 33.59375 3.5 33.59375 7.140625 
L 33.59375 17 
L 43.796875 17 
L 43.796875 19.59375 
L 33.59375 19.59375 
z
M 28.09375 57.859375 
L 28.09375 19.59375 
L 4 19.59375 
z
" id="CMR17-52"/>
       </defs>
       <use transform="scale(0.996264)" xlink:href="#CMR17-49"/>
       <use transform="translate(45.690477 0)scale(0.996264)" xlink:href="#CMR17-52"/>
      </g>
     </g>
    </g>
    <g id="ytick_4">
     <g id="line2d_17">
      <path clip-path="url(#pfe784c81c6)" d="M 108 461.766291 
L 698.4 461.766291 
" style="fill:none;stroke:#e6e6e6;stroke-linecap:square;stroke-width:0.8;"/>
     </g>
     <g id="line2d_18">
      <g>
       <use style="stroke:#000000;stroke-width:0.8;" x="108" xlink:href="#m2a3b2b9a1e" y="461.766291"/>
      </g>
     </g>
     <g id="text_10">
      <!-- $\mathdefault{16}$ -->
      <g transform="translate(89.867524 466.955153)scale(0.15 -0.15)">
       <defs>
        <path d="M 10.59375 34 
C 10.59375 57.65625 21.796875 63 28.296875 63 
C 30.40625 63 35.5 62.640625 37.5 59 
C 35.90625 59 32.90625 59 32.90625 55.515625 
C 32.90625 52.828125 35.09375 51.921875 36.5 51.921875 
C 37.40625 51.921875 40.09375 52.3125 40.09375 55.625 
C 40.09375 61.78125 35.09375 65.296875 28.203125 65.296875 
C 16.296875 65.296875 3.796875 52.96875 3.796875 31 
C 3.796875 3.953125 15.09375 -2 23.09375 -2 
C 32.796875 -2 42 6.671875 42 20.046875 
C 42 32.515625 33.90625 41.59375 23.703125 41.59375 
C 17.59375 41.59375 13.09375 37.609375 10.59375 30.625 
z
M 23.09375 0.390625 
C 10.796875 0.390625 10.796875 18.75 10.796875 22.4375 
C 10.796875 29.625 14.203125 40 23.5 40 
C 25.203125 40 30.09375 40 33.40625 33.125 
C 35.203125 29.21875 35.203125 25.140625 35.203125 20.140625 
C 35.203125 14.75 35.203125 10.78125 33.09375 6.78125 
C 30.90625 2.671875 27.703125 0.390625 23.09375 0.390625 
z
" id="CMR17-54"/>
       </defs>
       <use transform="scale(0.996264)" xlink:href="#CMR17-49"/>
       <use transform="translate(45.690477 0)scale(0.996264)" xlink:href="#CMR17-54"/>
      </g>
     </g>
    </g>
    <g id="ytick_5">
     <g id="line2d_19">
      <path clip-path="url(#pfe784c81c6)" d="M 108 386.332126 
L 698.4 386.332126 
" style="fill:none;stroke:#e6e6e6;stroke-linecap:square;stroke-width:0.8;"/>
     </g>
     <g id="line2d_20">
      <g>
       <use style="stroke:#000000;stroke-width:0.8;" x="108" xlink:href="#m2a3b2b9a1e" y="386.332126"/>
      </g>
     </g>
     <g id="text_11">
      <!-- $\mathdefault{18}$ -->
      <g transform="translate(89.867524 391.520988)scale(0.15 -0.15)">
       <defs>
        <path d="M 27.203125 35.375 
C 33.5 38.546875 39.90625 43.328125 39.90625 50.984375 
C 39.90625 60.015625 31.09375 65.296875 23 65.296875 
C 13.90625 65.296875 5.90625 58.734375 5.90625 49.6875 
C 5.90625 47.203125 6.5 42.921875 10.40625 39.140625 
C 11.40625 38.15625 15.59375 35.171875 18.296875 33.28125 
C 13.796875 30.984375 3.296875 25.53125 3.296875 14.59375 
C 3.296875 4.359375 13.09375 -2 22.796875 -2 
C 33.5 -2 42.5 5.65625 42.5 15.78125 
C 42.5 24.84375 36.40625 29.015625 32.40625 31.703125 
z
M 14.09375 44.09375 
C 13.296875 44.59375 9.296875 47.671875 9.296875 52.359375 
C 9.296875 58.421875 15.59375 63 22.796875 63 
C 30.703125 63 36.5 57.4375 36.5 50.96875 
C 36.5 41.703125 26.09375 36.421875 25.59375 36.421875 
C 25.5 36.421875 25.40625 36.421875 24.59375 37.03125 
z
M 32.5 23.734375 
C 34 22.640625 38.796875 19.375 38.796875 13.296875 
C 38.796875 5.953125 31.40625 0.390625 23 0.390625 
C 13.90625 0.390625 7 6.84375 7 14.6875 
C 7 22.546875 13.09375 29.09375 20 32.1875 
z
" id="CMR17-56"/>
       </defs>
       <use transform="scale(0.996264)" xlink:href="#CMR17-49"/>
       <use transform="translate(45.690477 0)scale(0.996264)" xlink:href="#CMR17-56"/>
      </g>
     </g>
    </g>
    <g id="ytick_6">
     <g id="line2d_21">
      <path clip-path="url(#pfe784c81c6)" d="M 108 310.897961 
L 698.4 310.897961 
" style="fill:none;stroke:#e6e6e6;stroke-linecap:square;stroke-width:0.8;"/>
     </g>
     <g id="line2d_22">
      <g>
       <use style="stroke:#000000;stroke-width:0.8;" x="108" xlink:href="#m2a3b2b9a1e" y="310.897961"/>
      </g>
     </g>
     <g id="text_12">
      <!-- $\mathdefault{20}$ -->
      <g transform="translate(89.867524 316.086823)scale(0.15 -0.15)">
       <use transform="scale(0.996264)" xlink:href="#CMR17-50"/>
       <use transform="translate(45.690477 0)scale(0.996264)" xlink:href="#CMR17-48"/>
      </g>
     </g>
    </g>
    <g id="ytick_7">
     <g id="line2d_23">
      <path clip-path="url(#pfe784c81c6)" d="M 108 235.463795 
L 698.4 235.463795 
" style="fill:none;stroke:#e6e6e6;stroke-linecap:square;stroke-width:0.8;"/>
     </g>
     <g id="line2d_24">
      <g>
       <use style="stroke:#000000;stroke-width:0.8;" x="108" xlink:href="#m2a3b2b9a1e" y="235.463795"/>
      </g>
     </g>
     <g id="text_13">
      <!-- $\mathdefault{22}$ -->
      <g transform="translate(89.867524 240.652658)scale(0.15 -0.15)">
       <use transform="scale(0.996264)" xlink:href="#CMR17-50"/>
       <use transform="translate(45.690477 0)scale(0.996264)" xlink:href="#CMR17-50"/>
      </g>
     </g>
    </g>
    <g id="ytick_8">
     <g id="line2d_25">
      <path clip-path="url(#pfe784c81c6)" d="M 108 160.02963 
L 698.4 160.02963 
" style="fill:none;stroke:#e6e6e6;stroke-linecap:square;stroke-width:0.8;"/>
     </g>
     <g id="line2d_26">
      <g>
       <use style="stroke:#000000;stroke-width:0.8;" x="108" xlink:href="#m2a3b2b9a1e" y="160.02963"/>
      </g>
     </g>
     <g id="text_14">
      <!-- $\mathdefault{24}$ -->
      <g transform="translate(89.867524 165.218493)scale(0.15 -0.15)">
       <use transform="scale(0.996264)" xlink:href="#CMR17-50"/>
       <use transform="translate(45.690477 0)scale(0.996264)" xlink:href="#CMR17-52"/>
      </g>
     </g>
    </g>
    <g id="ytick_9">
     <g id="line2d_27">
      <path clip-path="url(#pfe784c81c6)" d="M 108 84.595465 
L 698.4 84.595465 
" style="fill:none;stroke:#e6e6e6;stroke-linecap:square;stroke-width:0.8;"/>
     </g>
     <g id="line2d_28">
      <g>
       <use style="stroke:#000000;stroke-width:0.8;" x="108" xlink:href="#m2a3b2b9a1e" y="84.595465"/>
      </g>
     </g>
     <g id="text_15">
      <!-- $\mathdefault{26}$ -->
      <g transform="translate(89.867524 89.784327)scale(0.15 -0.15)">
       <use transform="scale(0.996264)" xlink:href="#CMR17-50"/>
       <use transform="translate(45.690477 0)scale(0.996264)" xlink:href="#CMR17-54"/>
      </g>
     </g>
    </g>
    <g id="text_16">
     <!-- $\sigma/(ka)^2$ -->
     <g transform="translate(79.640874 428.253307)rotate(-90)scale(0.25 -0.25)">
      <defs>
       <path d="M 50.796875 37.625 
C 52.09375 37.625 55.40625 37.625 55.40625 40.8125 
C 55.40625 43 53.5 43 51.703125 43 
L 29.59375 43 
C 14.59375 43 3.796875 26.34375 3.796875 14.5625 
C 3.796875 6.09375 9.296875 -1 18.296875 -1 
C 30.09375 -1 43 11.671875 43 26.640625 
C 43 30.53125 42.09375 34.3125 39.703125 37.625 
z
M 18.40625 1 
C 13.296875 1 9.59375 4.890625 9.59375 11.78125 
C 9.59375 17.765625 13.203125 37.625 27.90625 37.625 
C 32.203125 37.625 37 35.53125 37 27.828125 
C 37 24.34375 35.40625 15.953125 31.90625 10.1875 
C 28.296875 4.296875 22.90625 1 18.40625 1 
z
" id="CMMI12-27"/>
       <path d="M 42.90625 71.28125 
C 42.90625 71.390625 43.5 72.90625 43.5 73.09375 
C 43.5 74.296875 42.5 75 41.703125 75 
C 41.203125 75 40.296875 75 39.5 72.796875 
L 6 -21.296875 
C 6 -21.40625 5.40625 -22.890625 5.40625 -23.09375 
C 5.40625 -24.296875 6.40625 -25 7.203125 -25 
C 7.796875 -25 8.703125 -24.890625 9.40625 -22.796875 
z
" id="CMMI12-61"/>
       <path d="M 30.59375 -24.390625 
C 30.59375 -24.296875 30.59375 -24.09375 30.296875 -23.796875 
C 25.703125 -19.125 13.40625 -6.359375 13.40625 24.703125 
C 13.40625 55.765625 25.5 68.421875 30.40625 73.390625 
C 30.40625 73.5 30.59375 73.703125 30.59375 74 
C 30.59375 74.296875 30.296875 74.5 29.90625 74.5 
C 28.796875 74.5 20.296875 67.125 15.40625 56.15625 
C 10.40625 45.109375 9 34.359375 9 24.8125 
C 9 17.625 9.703125 5.484375 15.703125 -7.359375 
C 20.5 -17.734375 28.703125 -25 29.90625 -25 
C 30.40625 -25 30.59375 -24.796875 30.59375 -24.390625 
z
" id="CMR17-40"/>
       <path d="M 30.09375 11.875 
C 29.59375 10.171875 29.59375 9.984375 28.203125 8.078125 
C 26 5.28125 21.59375 1 16.90625 1 
C 12.796875 1 10.5 4.6875 10.5 10.578125 
C 10.5 16.0625 13.59375 27.234375 15.5 31.4375 
C 18.90625 38.421875 23.59375 42.015625 27.5 42.015625 
C 34.09375 42.015625 35.40625 33.828125 35.40625 33.03125 
C 35.40625 32.9375 35.09375 31.625 35 31.4375 
z
M 36.5 37.421875 
C 35.40625 40.015625 32.703125 44 27.5 44 
C 16.203125 44 4 29.4375 4 14.671875 
C 4 4.796875 9.796875 -1 16.59375 -1 
C 22.09375 -1 26.796875 3.296875 29.59375 6.59375 
C 30.59375 0.703125 35.296875 -1 38.296875 -1 
C 41.296875 -1 43.703125 0.796875 45.5 4.390625 
C 47.09375 7.78125 48.5 13.875 48.5 14.265625 
C 48.5 14.765625 48.09375 15.171875 47.5 15.171875 
C 46.59375 15.171875 46.5 14.671875 46.09375 13.171875 
C 44.59375 7.28125 42.703125 1 38.59375 1 
C 35.703125 1 35.5 3.59375 35.5 5.59375 
C 35.5 7.890625 35.796875 8.984375 36.703125 12.875 
C 37.40625 15.375 37.90625 17.5625 38.703125 20.453125 
C 42.40625 35.421875 43.296875 39.015625 43.296875 39.609375 
C 43.296875 41.015625 42.203125 42.109375 40.703125 42.109375 
C 37.5 42.109375 36.703125 38.625 36.5 37.421875 
z
" id="CMMI12-97"/>
       <path d="M 26.296875 24.703125 
C 26.296875 31.875 25.59375 44.015625 19.59375 56.859375 
C 14.796875 67.234375 6.59375 74.5 5.40625 74.5 
C 5.09375 74.5 4.703125 74.390625 4.703125 73.890625 
C 4.703125 73.703125 4.796875 73.59375 4.90625 73.390625 
C 9.703125 68.40625 21.90625 55.75 21.90625 24.75 
C 21.90625 -6.359375 9.796875 -19.015625 4.90625 -24.015625 
C 4.796875 -24.203125 4.703125 -24.3125 4.703125 -24.5 
C 4.703125 -25 5.09375 -25 5.40625 -25 
C 6.5 -25 15 -17.625 19.90625 -6.65625 
C 24.90625 4.390625 26.296875 15.140625 26.296875 24.703125 
z
" id="CMR17-41"/>
      </defs>
      <use transform="scale(0.996264)" xlink:href="#CMMI12-27"/>
      <use transform="translate(59.020054 0)scale(0.996264)" xlink:href="#CMMI12-61"/>
      <use transform="translate(107.794972 0)scale(0.996264)" xlink:href="#CMR17-40"/>
      <use transform="translate(143.07574 0)scale(0.996264)" xlink:href="#CMMI12-107"/>
      <use transform="translate(197.154941 0)scale(0.996264)" xlink:href="#CMMI12-97"/>
      <use transform="translate(248.362798 0)scale(0.996264)" xlink:href="#CMR17-41"/>
      <use transform="translate(283.643566 36.153639)scale(0.697382)" xlink:href="#CMR17-50"/>
     </g>
    </g>
   </g>
   <g id="line2d_29">
    <path clip-path="url(#pfe784c81c6)" d="M 159.233058 248.269677 
L 169.190892 269.745677 
L 179.148727 261.427994 
L 189.106561 230.753121 
L 199.064395 198.476399 
L 209.02223 184.801614 
L 218.980064 197.040432 
L 228.937898 226.572987 
L 238.895733 255.201164 
L 248.853567 266.230413 
L 258.811402 254.303884 
L 268.769236 228.356109 
L 278.72707 205.50056 
L 288.684905 199.919606 
L 298.642739 214.395086 
L 308.600573 239.468366 
L 318.558408 259.797552 
L 328.516242 263.556706 
L 338.474077 249.494092 
L 348.431911 227.391951 
L 358.389745 211.554821 
L 368.34758 211.711455 
L 378.305414 227.318598 
L 388.263248 248.464036 
L 398.221083 262.27096 
L 408.178917 260.803451 
L 418.136752 245.797757 
L 428.094586 227.304782 
L 438.05242 217.131278 
L 448.010255 221.446896 
L 457.968089 237.266643 
L 467.925923 254.678384 
L 477.883758 263.129563 
L 487.841592 257.906298 
L 497.799427 242.897448 
L 507.757261 227.935472 
L 517.715095 222.473624 
L 527.67293 229.744318 
L 537.630764 245.021996 
L 547.588598 258.809144 
L 557.546433 262.802333 
L 567.504267 254.98073 
L 577.462102 240.71146 
L 587.419936 229.208491 
L 597.37777 227.675086 
L 607.335605 236.909827 
L 617.293439 251.03582 
L 627.251273 261.320674 
L 637.209108 261.630976 
L 647.166942 252.172888 
" style="fill:none;stroke:#fdbf6f;stroke-linecap:square;stroke-width:2;"/>
    <defs>
     <path d="M 0 2.5 
C 0.663008 2.5 1.29895 2.236584 1.767767 1.767767 
C 2.236584 1.29895 2.5 0.663008 2.5 0 
C 2.5 -0.663008 2.236584 -1.29895 1.767767 -1.767767 
C 1.29895 -2.236584 0.663008 -2.5 0 -2.5 
C -0.663008 -2.5 -1.29895 -2.236584 -1.767767 -1.767767 
C -2.236584 -1.29895 -2.5 -0.663008 -2.5 0 
C -2.5 0.663008 -2.236584 1.29895 -1.767767 1.767767 
C -1.29895 2.236584 -0.663008 2.5 0 2.5 
z
" id="meda73ee8c9" style="stroke:#fdbf6f;"/>
    </defs>
    <g clip-path="url(#pfe784c81c6)">
     <use style="fill:#fdbf6f;stroke:#fdbf6f;" x="159.233058" xlink:href="#meda73ee8c9" y="248.269677"/>
     <use style="fill:#fdbf6f;stroke:#fdbf6f;" x="169.190892" xlink:href="#meda73ee8c9" y="269.745677"/>
     <use style="fill:#fdbf6f;stroke:#fdbf6f;" x="179.148727" xlink:href="#meda73ee8c9" y="261.427994"/>
     <use style="fill:#fdbf6f;stroke:#fdbf6f;" x="189.106561" xlink:href="#meda73ee8c9" y="230.753121"/>
     <use style="fill:#fdbf6f;stroke:#fdbf6f;" x="199.064395" xlink:href="#meda73ee8c9" y="198.476399"/>
     <use style="fill:#fdbf6f;stroke:#fdbf6f;" x="209.02223" xlink:href="#meda73ee8c9" y="184.801614"/>
     <use style="fill:#fdbf6f;stroke:#fdbf6f;" x="218.980064" xlink:href="#meda73ee8c9" y="197.040432"/>
     <use style="fill:#fdbf6f;stroke:#fdbf6f;" x="228.937898" xlink:href="#meda73ee8c9" y="226.572987"/>
     <use style="fill:#fdbf6f;stroke:#fdbf6f;" x="238.895733" xlink:href="#meda73ee8c9" y="255.201164"/>
     <use style="fill:#fdbf6f;stroke:#fdbf6f;" x="248.853567" xlink:href="#meda73ee8c9" y="266.230413"/>
     <use style="fill:#fdbf6f;stroke:#fdbf6f;" x="258.811402" xlink:href="#meda73ee8c9" y="254.303884"/>
     <use style="fill:#fdbf6f;stroke:#fdbf6f;" x="268.769236" xlink:href="#meda73ee8c9" y="228.356109"/>
     <use style="fill:#fdbf6f;stroke:#fdbf6f;" x="278.72707" xlink:href="#meda73ee8c9" y="205.50056"/>
     <use style="fill:#fdbf6f;stroke:#fdbf6f;" x="288.684905" xlink:href="#meda73ee8c9" y="199.919606"/>
     <use style="fill:#fdbf6f;stroke:#fdbf6f;" x="298.642739" xlink:href="#meda73ee8c9" y="214.395086"/>
     <use style="fill:#fdbf6f;stroke:#fdbf6f;" x="308.600573" xlink:href="#meda73ee8c9" y="239.468366"/>
     <use style="fill:#fdbf6f;stroke:#fdbf6f;" x="318.558408" xlink:href="#meda73ee8c9" y="259.797552"/>
     <use style="fill:#fdbf6f;stroke:#fdbf6f;" x="328.516242" xlink:href="#meda73ee8c9" y="263.556706"/>
     <use style="fill:#fdbf6f;stroke:#fdbf6f;" x="338.474077" xlink:href="#meda73ee8c9" y="249.494092"/>
     <use style="fill:#fdbf6f;stroke:#fdbf6f;" x="348.431911" xlink:href="#meda73ee8c9" y="227.391951"/>
     <use style="fill:#fdbf6f;stroke:#fdbf6f;" x="358.389745" xlink:href="#meda73ee8c9" y="211.554821"/>
     <use style="fill:#fdbf6f;stroke:#fdbf6f;" x="368.34758" xlink:href="#meda73ee8c9" y="211.711455"/>
     <use style="fill:#fdbf6f;stroke:#fdbf6f;" x="378.305414" xlink:href="#meda73ee8c9" y="227.318598"/>
     <use style="fill:#fdbf6f;stroke:#fdbf6f;" x="388.263248" xlink:href="#meda73ee8c9" y="248.464036"/>
     <use style="fill:#fdbf6f;stroke:#fdbf6f;" x="398.221083" xlink:href="#meda73ee8c9" y="262.27096"/>
     <use style="fill:#fdbf6f;stroke:#fdbf6f;" x="408.178917" xlink:href="#meda73ee8c9" y="260.803451"/>
     <use style="fill:#fdbf6f;stroke:#fdbf6f;" x="418.136752" xlink:href="#meda73ee8c9" y="245.797757"/>
     <use style="fill:#fdbf6f;stroke:#fdbf6f;" x="428.094586" xlink:href="#meda73ee8c9" y="227.304782"/>
     <use style="fill:#fdbf6f;stroke:#fdbf6f;" x="438.05242" xlink:href="#meda73ee8c9" y="217.131278"/>
     <use style="fill:#fdbf6f;stroke:#fdbf6f;" x="448.010255" xlink:href="#meda73ee8c9" y="221.446896"/>
     <use style="fill:#fdbf6f;stroke:#fdbf6f;" x="457.968089" xlink:href="#meda73ee8c9" y="237.266643"/>
     <use style="fill:#fdbf6f;stroke:#fdbf6f;" x="467.925923" xlink:href="#meda73ee8c9" y="254.678384"/>
     <use style="fill:#fdbf6f;stroke:#fdbf6f;" x="477.883758" xlink:href="#meda73ee8c9" y="263.129563"/>
     <use style="fill:#fdbf6f;stroke:#fdbf6f;" x="487.841592" xlink:href="#meda73ee8c9" y="257.906298"/>
     <use style="fill:#fdbf6f;stroke:#fdbf6f;" x="497.799427" xlink:href="#meda73ee8c9" y="242.897448"/>
     <use style="fill:#fdbf6f;stroke:#fdbf6f;" x="507.757261" xlink:href="#meda73ee8c9" y="227.935472"/>
     <use style="fill:#fdbf6f;stroke:#fdbf6f;" x="517.715095" xlink:href="#meda73ee8c9" y="222.473624"/>
     <use style="fill:#fdbf6f;stroke:#fdbf6f;" x="527.67293" xlink:href="#meda73ee8c9" y="229.744318"/>
     <use style="fill:#fdbf6f;stroke:#fdbf6f;" x="537.630764" xlink:href="#meda73ee8c9" y="245.021996"/>
     <use style="fill:#fdbf6f;stroke:#fdbf6f;" x="547.588598" xlink:href="#meda73ee8c9" y="258.809144"/>
     <use style="fill:#fdbf6f;stroke:#fdbf6f;" x="557.546433" xlink:href="#meda73ee8c9" y="262.802333"/>
     <use style="fill:#fdbf6f;stroke:#fdbf6f;" x="567.504267" xlink:href="#meda73ee8c9" y="254.98073"/>
     <use style="fill:#fdbf6f;stroke:#fdbf6f;" x="577.462102" xlink:href="#meda73ee8c9" y="240.71146"/>
     <use style="fill:#fdbf6f;stroke:#fdbf6f;" x="587.419936" xlink:href="#meda73ee8c9" y="229.208491"/>
     <use style="fill:#fdbf6f;stroke:#fdbf6f;" x="597.37777" xlink:href="#meda73ee8c9" y="227.675086"/>
     <use style="fill:#fdbf6f;stroke:#fdbf6f;" x="607.335605" xlink:href="#meda73ee8c9" y="236.909827"/>
     <use style="fill:#fdbf6f;stroke:#fdbf6f;" x="617.293439" xlink:href="#meda73ee8c9" y="251.03582"/>
     <use style="fill:#fdbf6f;stroke:#fdbf6f;" x="627.251273" xlink:href="#meda73ee8c9" y="261.320674"/>
     <use style="fill:#fdbf6f;stroke:#fdbf6f;" x="637.209108" xlink:href="#meda73ee8c9" y="261.630976"/>
     <use style="fill:#fdbf6f;stroke:#fdbf6f;" x="647.166942" xlink:href="#meda73ee8c9" y="252.172888"/>
    </g>
   </g>
   <g id="line2d_30">
    <path clip-path="url(#pfe784c81c6)" d="M 159.233058 114.33719 
L 169.190892 141.717072 
L 179.148727 156.337062 
L 189.106561 153.318924 
L 199.064395 138.532966 
L 209.02223 124.333708 
L 218.980064 121.715392 
L 228.937898 133.806574 
L 238.895733 154.506748 
L 248.853567 172.757895 
L 258.811402 179.54068 
L 268.769236 173.223547 
L 278.72707 160.135713 
L 288.684905 150.287175 
L 298.642739 151.090287 
L 308.600573 162.992207 
L 318.558408 179.567492 
L 328.516242 191.788056 
L 338.474077 193.667362 
L 348.431911 185.776972 
L 358.389745 174.593511 
L 368.34758 168.267251 
L 378.305414 171.557477 
L 388.263248 183.066289 
L 398.221083 196.36299 
L 408.178917 204.145827 
L 418.136752 202.765658 
L 428.094586 194.323895 
L 438.05242 185.154726 
L 448.010255 181.764907 
L 457.968089 186.822623 
L 467.925923 197.658733 
L 477.883758 208.108977 
L 487.841592 212.442186 
L 497.799427 208.881799 
L 507.757261 200.566035 
L 517.715095 193.44349 
L 527.67293 192.505526 
L 537.630764 198.734722 
L 547.588598 208.628788 
L 557.546433 216.510602 
L 567.504267 218.109211 
L 577.462102 213.159747 
L 587.419936 205.445752 
L 597.37777 200.335449 
L 607.335605 201.410625 
L 617.293439 208.300407 
L 627.251273 217.025478 
L 637.209108 222.567704 
L 647.166942 222.011135 
" style="fill:none;stroke:#fdbf6f;stroke-dasharray:7.4,3.2;stroke-dashoffset:0;stroke-width:2;"/>
    <g clip-path="url(#pfe784c81c6)">
     <use style="fill:#fdbf6f;stroke:#fdbf6f;" x="159.233058" xlink:href="#meda73ee8c9" y="114.33719"/>
     <use style="fill:#fdbf6f;stroke:#fdbf6f;" x="169.190892" xlink:href="#meda73ee8c9" y="141.717072"/>
     <use style="fill:#fdbf6f;stroke:#fdbf6f;" x="179.148727" xlink:href="#meda73ee8c9" y="156.337062"/>
     <use style="fill:#fdbf6f;stroke:#fdbf6f;" x="189.106561" xlink:href="#meda73ee8c9" y="153.318924"/>
     <use style="fill:#fdbf6f;stroke:#fdbf6f;" x="199.064395" xlink:href="#meda73ee8c9" y="138.532966"/>
     <use style="fill:#fdbf6f;stroke:#fdbf6f;" x="209.02223" xlink:href="#meda73ee8c9" y="124.333708"/>
     <use style="fill:#fdbf6f;stroke:#fdbf6f;" x="218.980064" xlink:href="#meda73ee8c9" y="121.715392"/>
     <use style="fill:#fdbf6f;stroke:#fdbf6f;" x="228.937898" xlink:href="#meda73ee8c9" y="133.806574"/>
     <use style="fill:#fdbf6f;stroke:#fdbf6f;" x="238.895733" xlink:href="#meda73ee8c9" y="154.506748"/>
     <use style="fill:#fdbf6f;stroke:#fdbf6f;" x="248.853567" xlink:href="#meda73ee8c9" y="172.757895"/>
     <use style="fill:#fdbf6f;stroke:#fdbf6f;" x="258.811402" xlink:href="#meda73ee8c9" y="179.54068"/>
     <use style="fill:#fdbf6f;stroke:#fdbf6f;" x="268.769236" xlink:href="#meda73ee8c9" y="173.223547"/>
     <use style="fill:#fdbf6f;stroke:#fdbf6f;" x="278.72707" xlink:href="#meda73ee8c9" y="160.135713"/>
     <use style="fill:#fdbf6f;stroke:#fdbf6f;" x="288.684905" xlink:href="#meda73ee8c9" y="150.287175"/>
     <use style="fill:#fdbf6f;stroke:#fdbf6f;" x="298.642739" xlink:href="#meda73ee8c9" y="151.090287"/>
     <use style="fill:#fdbf6f;stroke:#fdbf6f;" x="308.600573" xlink:href="#meda73ee8c9" y="162.992207"/>
     <use style="fill:#fdbf6f;stroke:#fdbf6f;" x="318.558408" xlink:href="#meda73ee8c9" y="179.567492"/>
     <use style="fill:#fdbf6f;stroke:#fdbf6f;" x="328.516242" xlink:href="#meda73ee8c9" y="191.788056"/>
     <use style="fill:#fdbf6f;stroke:#fdbf6f;" x="338.474077" xlink:href="#meda73ee8c9" y="193.667362"/>
     <use style="fill:#fdbf6f;stroke:#fdbf6f;" x="348.431911" xlink:href="#meda73ee8c9" y="185.776972"/>
     <use style="fill:#fdbf6f;stroke:#fdbf6f;" x="358.389745" xlink:href="#meda73ee8c9" y="174.593511"/>
     <use style="fill:#fdbf6f;stroke:#fdbf6f;" x="368.34758" xlink:href="#meda73ee8c9" y="168.267251"/>
     <use style="fill:#fdbf6f;stroke:#fdbf6f;" x="378.305414" xlink:href="#meda73ee8c9" y="171.557477"/>
     <use style="fill:#fdbf6f;stroke:#fdbf6f;" x="388.263248" xlink:href="#meda73ee8c9" y="183.066289"/>
     <use style="fill:#fdbf6f;stroke:#fdbf6f;" x="398.221083" xlink:href="#meda73ee8c9" y="196.36299"/>
     <use style="fill:#fdbf6f;stroke:#fdbf6f;" x="408.178917" xlink:href="#meda73ee8c9" y="204.145827"/>
     <use style="fill:#fdbf6f;stroke:#fdbf6f;" x="418.136752" xlink:href="#meda73ee8c9" y="202.765658"/>
     <use style="fill:#fdbf6f;stroke:#fdbf6f;" x="428.094586" xlink:href="#meda73ee8c9" y="194.323895"/>
     <use style="fill:#fdbf6f;stroke:#fdbf6f;" x="438.05242" xlink:href="#meda73ee8c9" y="185.154726"/>
     <use style="fill:#fdbf6f;stroke:#fdbf6f;" x="448.010255" xlink:href="#meda73ee8c9" y="181.764907"/>
     <use style="fill:#fdbf6f;stroke:#fdbf6f;" x="457.968089" xlink:href="#meda73ee8c9" y="186.822623"/>
     <use style="fill:#fdbf6f;stroke:#fdbf6f;" x="467.925923" xlink:href="#meda73ee8c9" y="197.658733"/>
     <use style="fill:#fdbf6f;stroke:#fdbf6f;" x="477.883758" xlink:href="#meda73ee8c9" y="208.108977"/>
     <use style="fill:#fdbf6f;stroke:#fdbf6f;" x="487.841592" xlink:href="#meda73ee8c9" y="212.442186"/>
     <use style="fill:#fdbf6f;stroke:#fdbf6f;" x="497.799427" xlink:href="#meda73ee8c9" y="208.881799"/>
     <use style="fill:#fdbf6f;stroke:#fdbf6f;" x="507.757261" xlink:href="#meda73ee8c9" y="200.566035"/>
     <use style="fill:#fdbf6f;stroke:#fdbf6f;" x="517.715095" xlink:href="#meda73ee8c9" y="193.44349"/>
     <use style="fill:#fdbf6f;stroke:#fdbf6f;" x="527.67293" xlink:href="#meda73ee8c9" y="192.505526"/>
     <use style="fill:#fdbf6f;stroke:#fdbf6f;" x="537.630764" xlink:href="#meda73ee8c9" y="198.734722"/>
     <use style="fill:#fdbf6f;stroke:#fdbf6f;" x="547.588598" xlink:href="#meda73ee8c9" y="208.628788"/>
     <use style="fill:#fdbf6f;stroke:#fdbf6f;" x="557.546433" xlink:href="#meda73ee8c9" y="216.510602"/>
     <use style="fill:#fdbf6f;stroke:#fdbf6f;" x="567.504267" xlink:href="#meda73ee8c9" y="218.109211"/>
     <use style="fill:#fdbf6f;stroke:#fdbf6f;" x="577.462102" xlink:href="#meda73ee8c9" y="213.159747"/>
     <use style="fill:#fdbf6f;stroke:#fdbf6f;" x="587.419936" xlink:href="#meda73ee8c9" y="205.445752"/>
     <use style="fill:#fdbf6f;stroke:#fdbf6f;" x="597.37777" xlink:href="#meda73ee8c9" y="200.335449"/>
     <use style="fill:#fdbf6f;stroke:#fdbf6f;" x="607.335605" xlink:href="#meda73ee8c9" y="201.410625"/>
     <use style="fill:#fdbf6f;stroke:#fdbf6f;" x="617.293439" xlink:href="#meda73ee8c9" y="208.300407"/>
     <use style="fill:#fdbf6f;stroke:#fdbf6f;" x="627.251273" xlink:href="#meda73ee8c9" y="217.025478"/>
     <use style="fill:#fdbf6f;stroke:#fdbf6f;" x="637.209108" xlink:href="#meda73ee8c9" y="222.567704"/>
     <use style="fill:#fdbf6f;stroke:#fdbf6f;" x="647.166942" xlink:href="#meda73ee8c9" y="222.011135"/>
    </g>
   </g>
   <g id="line2d_31">
    <path clip-path="url(#pfe784c81c6)" d="M 159.233058 364.060162 
L 169.190892 356.606762 
L 179.148727 349.344293 
L 189.106561 344.535366 
L 199.064395 343.300837 
L 209.02223 345.305797 
L 218.980064 348.805937 
L 228.937898 351.180603 
L 238.895733 350.297422 
L 248.853567 346.027932 
L 258.811402 340.418342 
L 268.769236 336.282411 
L 278.72707 335.534963 
L 288.684905 338.25563 
L 298.642739 342.633828 
L 308.600573 345.84592 
L 318.558408 345.72028 
L 328.516242 342.198974 
L 338.474077 337.358047 
L 348.431911 333.99545 
L 358.389745 333.952573 
L 368.34758 337.134126 
L 378.305414 341.56331 
L 388.263248 344.489147 
L 398.221083 344.089023 
L 408.178917 340.659998 
L 418.136752 336.372504 
L 428.094586 333.834862 
L 438.05242 334.533187 
L 448.010255 338.012603 
L 457.968089 342.147767 
L 467.925923 344.409002 
L 477.883758 343.457459 
L 487.841592 339.995135 
L 497.799427 336.25436 
L 507.757261 334.558716 
L 517.715095 335.937957 
L 527.67293 339.552649 
L 537.630764 343.202489 
L 547.588598 344.677135 
L 557.546433 343.157163 
L 567.504267 339.712503 
L 577.462102 336.56772 
L 587.419936 335.695646 
L 597.37777 337.643794 
L 607.335605 341.23222 
L 617.293439 344.277969 
L 627.251273 344.956236 
L 637.209108 342.954042 
L 647.166942 339.635969 
" style="fill:none;stroke:#bfe5a0;stroke-linecap:square;stroke-width:2;"/>
    <defs>
     <path d="M 0 2.5 
C 0.663008 2.5 1.29895 2.236584 1.767767 1.767767 
C 2.236584 1.29895 2.5 0.663008 2.5 0 
C 2.5 -0.663008 2.236584 -1.29895 1.767767 -1.767767 
C 1.29895 -2.236584 0.663008 -2.5 0 -2.5 
C -0.663008 -2.5 -1.29895 -2.236584 -1.767767 -1.767767 
C -2.236584 -1.29895 -2.5 -0.663008 -2.5 0 
C -2.5 0.663008 -2.236584 1.29895 -1.767767 1.767767 
C -1.29895 2.236584 -0.663008 2.5 0 2.5 
z
" id="mfea02707f3" style="stroke:#bfe5a0;"/>
    </defs>
    <g clip-path="url(#pfe784c81c6)">
     <use style="fill:#bfe5a0;stroke:#bfe5a0;" x="159.233058" xlink:href="#mfea02707f3" y="364.060162"/>
     <use style="fill:#bfe5a0;stroke:#bfe5a0;" x="169.190892" xlink:href="#mfea02707f3" y="356.606762"/>
     <use style="fill:#bfe5a0;stroke:#bfe5a0;" x="179.148727" xlink:href="#mfea02707f3" y="349.344293"/>
     <use style="fill:#bfe5a0;stroke:#bfe5a0;" x="189.106561" xlink:href="#mfea02707f3" y="344.535366"/>
     <use style="fill:#bfe5a0;stroke:#bfe5a0;" x="199.064395" xlink:href="#mfea02707f3" y="343.300837"/>
     <use style="fill:#bfe5a0;stroke:#bfe5a0;" x="209.02223" xlink:href="#mfea02707f3" y="345.305797"/>
     <use style="fill:#bfe5a0;stroke:#bfe5a0;" x="218.980064" xlink:href="#mfea02707f3" y="348.805937"/>
     <use style="fill:#bfe5a0;stroke:#bfe5a0;" x="228.937898" xlink:href="#mfea02707f3" y="351.180603"/>
     <use style="fill:#bfe5a0;stroke:#bfe5a0;" x="238.895733" xlink:href="#mfea02707f3" y="350.297422"/>
     <use style="fill:#bfe5a0;stroke:#bfe5a0;" x="248.853567" xlink:href="#mfea02707f3" y="346.027932"/>
     <use style="fill:#bfe5a0;stroke:#bfe5a0;" x="258.811402" xlink:href="#mfea02707f3" y="340.418342"/>
     <use style="fill:#bfe5a0;stroke:#bfe5a0;" x="268.769236" xlink:href="#mfea02707f3" y="336.282411"/>
     <use style="fill:#bfe5a0;stroke:#bfe5a0;" x="278.72707" xlink:href="#mfea02707f3" y="335.534963"/>
     <use style="fill:#bfe5a0;stroke:#bfe5a0;" x="288.684905" xlink:href="#mfea02707f3" y="338.25563"/>
     <use style="fill:#bfe5a0;stroke:#bfe5a0;" x="298.642739" xlink:href="#mfea02707f3" y="342.633828"/>
     <use style="fill:#bfe5a0;stroke:#bfe5a0;" x="308.600573" xlink:href="#mfea02707f3" y="345.84592"/>
     <use style="fill:#bfe5a0;stroke:#bfe5a0;" x="318.558408" xlink:href="#mfea02707f3" y="345.72028"/>
     <use style="fill:#bfe5a0;stroke:#bfe5a0;" x="328.516242" xlink:href="#mfea02707f3" y="342.198974"/>
     <use style="fill:#bfe5a0;stroke:#bfe5a0;" x="338.474077" xlink:href="#mfea02707f3" y="337.358047"/>
     <use style="fill:#bfe5a0;stroke:#bfe5a0;" x="348.431911" xlink:href="#mfea02707f3" y="333.99545"/>
     <use style="fill:#bfe5a0;stroke:#bfe5a0;" x="358.389745" xlink:href="#mfea02707f3" y="333.952573"/>
     <use style="fill:#bfe5a0;stroke:#bfe5a0;" x="368.34758" xlink:href="#mfea02707f3" y="337.134126"/>
     <use style="fill:#bfe5a0;stroke:#bfe5a0;" x="378.305414" xlink:href="#mfea02707f3" y="341.56331"/>
     <use style="fill:#bfe5a0;stroke:#bfe5a0;" x="388.263248" xlink:href="#mfea02707f3" y="344.489147"/>
     <use style="fill:#bfe5a0;stroke:#bfe5a0;" x="398.221083" xlink:href="#mfea02707f3" y="344.089023"/>
     <use style="fill:#bfe5a0;stroke:#bfe5a0;" x="408.178917" xlink:href="#mfea02707f3" y="340.659998"/>
     <use style="fill:#bfe5a0;stroke:#bfe5a0;" x="418.136752" xlink:href="#mfea02707f3" y="336.372504"/>
     <use style="fill:#bfe5a0;stroke:#bfe5a0;" x="428.094586" xlink:href="#mfea02707f3" y="333.834862"/>
     <use style="fill:#bfe5a0;stroke:#bfe5a0;" x="438.05242" xlink:href="#mfea02707f3" y="334.533187"/>
     <use style="fill:#bfe5a0;stroke:#bfe5a0;" x="448.010255" xlink:href="#mfea02707f3" y="338.012603"/>
     <use style="fill:#bfe5a0;stroke:#bfe5a0;" x="457.968089" xlink:href="#mfea02707f3" y="342.147767"/>
     <use style="fill:#bfe5a0;stroke:#bfe5a0;" x="467.925923" xlink:href="#mfea02707f3" y="344.409002"/>
     <use style="fill:#bfe5a0;stroke:#bfe5a0;" x="477.883758" xlink:href="#mfea02707f3" y="343.457459"/>
     <use style="fill:#bfe5a0;stroke:#bfe5a0;" x="487.841592" xlink:href="#mfea02707f3" y="339.995135"/>
     <use style="fill:#bfe5a0;stroke:#bfe5a0;" x="497.799427" xlink:href="#mfea02707f3" y="336.25436"/>
     <use style="fill:#bfe5a0;stroke:#bfe5a0;" x="507.757261" xlink:href="#mfea02707f3" y="334.558716"/>
     <use style="fill:#bfe5a0;stroke:#bfe5a0;" x="517.715095" xlink:href="#mfea02707f3" y="335.937957"/>
     <use style="fill:#bfe5a0;stroke:#bfe5a0;" x="527.67293" xlink:href="#mfea02707f3" y="339.552649"/>
     <use style="fill:#bfe5a0;stroke:#bfe5a0;" x="537.630764" xlink:href="#mfea02707f3" y="343.202489"/>
     <use style="fill:#bfe5a0;stroke:#bfe5a0;" x="547.588598" xlink:href="#mfea02707f3" y="344.677135"/>
     <use style="fill:#bfe5a0;stroke:#bfe5a0;" x="557.546433" xlink:href="#mfea02707f3" y="343.157163"/>
     <use style="fill:#bfe5a0;stroke:#bfe5a0;" x="567.504267" xlink:href="#mfea02707f3" y="339.712503"/>
     <use style="fill:#bfe5a0;stroke:#bfe5a0;" x="577.462102" xlink:href="#mfea02707f3" y="336.56772"/>
     <use style="fill:#bfe5a0;stroke:#bfe5a0;" x="587.419936" xlink:href="#mfea02707f3" y="335.695646"/>
     <use style="fill:#bfe5a0;stroke:#bfe5a0;" x="597.37777" xlink:href="#mfea02707f3" y="337.643794"/>
     <use style="fill:#bfe5a0;stroke:#bfe5a0;" x="607.335605" xlink:href="#mfea02707f3" y="341.23222"/>
     <use style="fill:#bfe5a0;stroke:#bfe5a0;" x="617.293439" xlink:href="#mfea02707f3" y="344.277969"/>
     <use style="fill:#bfe5a0;stroke:#bfe5a0;" x="627.251273" xlink:href="#mfea02707f3" y="344.956236"/>
     <use style="fill:#bfe5a0;stroke:#bfe5a0;" x="637.209108" xlink:href="#mfea02707f3" y="342.954042"/>
     <use style="fill:#bfe5a0;stroke:#bfe5a0;" x="647.166942" xlink:href="#mfea02707f3" y="339.635969"/>
    </g>
   </g>
   <g id="line2d_32">
    <path clip-path="url(#pfe784c81c6)" d="M 159.233058 159.703875 
L 169.190892 178.089647 
L 179.148727 187.372931 
L 189.106561 185.089935 
L 199.064395 175.885013 
L 209.02223 168.187693 
L 218.980064 168.884058 
L 228.937898 179.287172 
L 238.895733 194.717413 
L 248.853567 207.705061 
L 258.811402 212.666734 
L 268.769236 209.159113 
L 278.72707 201.839645 
L 288.684905 197.349967 
L 298.642739 200.176381 
L 308.600573 210.044509 
L 318.558408 222.34163 
L 328.516242 231.151839 
L 338.474077 232.928915 
L 348.431911 228.544084 
L 358.389745 222.542597 
L 368.34758 220.194619 
L 378.305414 224.240284 
L 388.263248 233.328342 
L 398.221083 243.026276 
L 408.178917 248.672529 
L 418.136752 248.247758 
L 428.094586 243.506842 
L 438.05242 238.749468 
L 448.010255 238.077749 
L 457.968089 242.882672 
L 467.925923 251.093392 
L 477.883758 258.583594 
L 487.841592 261.790344 
L 497.799427 259.890739 
L 507.757261 255.213064 
L 517.715095 251.691671 
L 527.67293 252.385033 
L 537.630764 257.618244 
L 547.588598 264.874084 
L 557.546433 270.442138 
L 567.504267 271.751399 
L 577.462102 268.924713 
L 587.419936 264.619691 
L 597.37777 262.307443 
L 607.335605 264.100483 
L 617.293439 269.486087 
L 627.251273 275.721576 
L 637.209108 279.598481 
L 647.166942 279.444552 
" style="fill:none;stroke:#bfe5a0;stroke-dasharray:7.4,3.2;stroke-dashoffset:0;stroke-width:2;"/>
    <g clip-path="url(#pfe784c81c6)">
     <use style="fill:#bfe5a0;stroke:#bfe5a0;" x="159.233058" xlink:href="#mfea02707f3" y="159.703875"/>
     <use style="fill:#bfe5a0;stroke:#bfe5a0;" x="169.190892" xlink:href="#mfea02707f3" y="178.089647"/>
     <use style="fill:#bfe5a0;stroke:#bfe5a0;" x="179.148727" xlink:href="#mfea02707f3" y="187.372931"/>
     <use style="fill:#bfe5a0;stroke:#bfe5a0;" x="189.106561" xlink:href="#mfea02707f3" y="185.089935"/>
     <use style="fill:#bfe5a0;stroke:#bfe5a0;" x="199.064395" xlink:href="#mfea02707f3" y="175.885013"/>
     <use style="fill:#bfe5a0;stroke:#bfe5a0;" x="209.02223" xlink:href="#mfea02707f3" y="168.187693"/>
     <use style="fill:#bfe5a0;stroke:#bfe5a0;" x="218.980064" xlink:href="#mfea02707f3" y="168.884058"/>
     <use style="fill:#bfe5a0;stroke:#bfe5a0;" x="228.937898" xlink:href="#mfea02707f3" y="179.287172"/>
     <use style="fill:#bfe5a0;stroke:#bfe5a0;" x="238.895733" xlink:href="#mfea02707f3" y="194.717413"/>
     <use style="fill:#bfe5a0;stroke:#bfe5a0;" x="248.853567" xlink:href="#mfea02707f3" y="207.705061"/>
     <use style="fill:#bfe5a0;stroke:#bfe5a0;" x="258.811402" xlink:href="#mfea02707f3" y="212.666734"/>
     <use style="fill:#bfe5a0;stroke:#bfe5a0;" x="268.769236" xlink:href="#mfea02707f3" y="209.159113"/>
     <use style="fill:#bfe5a0;stroke:#bfe5a0;" x="278.72707" xlink:href="#mfea02707f3" y="201.839645"/>
     <use style="fill:#bfe5a0;stroke:#bfe5a0;" x="288.684905" xlink:href="#mfea02707f3" y="197.349967"/>
     <use style="fill:#bfe5a0;stroke:#bfe5a0;" x="298.642739" xlink:href="#mfea02707f3" y="200.176381"/>
     <use style="fill:#bfe5a0;stroke:#bfe5a0;" x="308.600573" xlink:href="#mfea02707f3" y="210.044509"/>
     <use style="fill:#bfe5a0;stroke:#bfe5a0;" x="318.558408" xlink:href="#mfea02707f3" y="222.34163"/>
     <use style="fill:#bfe5a0;stroke:#bfe5a0;" x="328.516242" xlink:href="#mfea02707f3" y="231.151839"/>
     <use style="fill:#bfe5a0;stroke:#bfe5a0;" x="338.474077" xlink:href="#mfea02707f3" y="232.928915"/>
     <use style="fill:#bfe5a0;stroke:#bfe5a0;" x="348.431911" xlink:href="#mfea02707f3" y="228.544084"/>
     <use style="fill:#bfe5a0;stroke:#bfe5a0;" x="358.389745" xlink:href="#mfea02707f3" y="222.542597"/>
     <use style="fill:#bfe5a0;stroke:#bfe5a0;" x="368.34758" xlink:href="#mfea02707f3" y="220.194619"/>
     <use style="fill:#bfe5a0;stroke:#bfe5a0;" x="378.305414" xlink:href="#mfea02707f3" y="224.240284"/>
     <use style="fill:#bfe5a0;stroke:#bfe5a0;" x="388.263248" xlink:href="#mfea02707f3" y="233.328342"/>
     <use style="fill:#bfe5a0;stroke:#bfe5a0;" x="398.221083" xlink:href="#mfea02707f3" y="243.026276"/>
     <use style="fill:#bfe5a0;stroke:#bfe5a0;" x="408.178917" xlink:href="#mfea02707f3" y="248.672529"/>
     <use style="fill:#bfe5a0;stroke:#bfe5a0;" x="418.136752" xlink:href="#mfea02707f3" y="248.247758"/>
     <use style="fill:#bfe5a0;stroke:#bfe5a0;" x="428.094586" xlink:href="#mfea02707f3" y="243.506842"/>
     <use style="fill:#bfe5a0;stroke:#bfe5a0;" x="438.05242" xlink:href="#mfea02707f3" y="238.749468"/>
     <use style="fill:#bfe5a0;stroke:#bfe5a0;" x="448.010255" xlink:href="#mfea02707f3" y="238.077749"/>
     <use style="fill:#bfe5a0;stroke:#bfe5a0;" x="457.968089" xlink:href="#mfea02707f3" y="242.882672"/>
     <use style="fill:#bfe5a0;stroke:#bfe5a0;" x="467.925923" xlink:href="#mfea02707f3" y="251.093392"/>
     <use style="fill:#bfe5a0;stroke:#bfe5a0;" x="477.883758" xlink:href="#mfea02707f3" y="258.583594"/>
     <use style="fill:#bfe5a0;stroke:#bfe5a0;" x="487.841592" xlink:href="#mfea02707f3" y="261.790344"/>
     <use style="fill:#bfe5a0;stroke:#bfe5a0;" x="497.799427" xlink:href="#mfea02707f3" y="259.890739"/>
     <use style="fill:#bfe5a0;stroke:#bfe5a0;" x="507.757261" xlink:href="#mfea02707f3" y="255.213064"/>
     <use style="fill:#bfe5a0;stroke:#bfe5a0;" x="517.715095" xlink:href="#mfea02707f3" y="251.691671"/>
     <use style="fill:#bfe5a0;stroke:#bfe5a0;" x="527.67293" xlink:href="#mfea02707f3" y="252.385033"/>
     <use style="fill:#bfe5a0;stroke:#bfe5a0;" x="537.630764" xlink:href="#mfea02707f3" y="257.618244"/>
     <use style="fill:#bfe5a0;stroke:#bfe5a0;" x="547.588598" xlink:href="#mfea02707f3" y="264.874084"/>
     <use style="fill:#bfe5a0;stroke:#bfe5a0;" x="557.546433" xlink:href="#mfea02707f3" y="270.442138"/>
     <use style="fill:#bfe5a0;stroke:#bfe5a0;" x="567.504267" xlink:href="#mfea02707f3" y="271.751399"/>
     <use style="fill:#bfe5a0;stroke:#bfe5a0;" x="577.462102" xlink:href="#mfea02707f3" y="268.924713"/>
     <use style="fill:#bfe5a0;stroke:#bfe5a0;" x="587.419936" xlink:href="#mfea02707f3" y="264.619691"/>
     <use style="fill:#bfe5a0;stroke:#bfe5a0;" x="597.37777" xlink:href="#mfea02707f3" y="262.307443"/>
     <use style="fill:#bfe5a0;stroke:#bfe5a0;" x="607.335605" xlink:href="#mfea02707f3" y="264.100483"/>
     <use style="fill:#bfe5a0;stroke:#bfe5a0;" x="617.293439" xlink:href="#mfea02707f3" y="269.486087"/>
     <use style="fill:#bfe5a0;stroke:#bfe5a0;" x="627.251273" xlink:href="#mfea02707f3" y="275.721576"/>
     <use style="fill:#bfe5a0;stroke:#bfe5a0;" x="637.209108" xlink:href="#mfea02707f3" y="279.598481"/>
     <use style="fill:#bfe5a0;stroke:#bfe5a0;" x="647.166942" xlink:href="#mfea02707f3" y="279.444552"/>
    </g>
   </g>
   <g id="line2d_33">
    <path clip-path="url(#pfe784c81c6)" d="M 159.233058 663.26281 
L 169.190892 657.360865 
L 179.148727 650.929456 
L 189.106561 644.141056 
L 199.064395 637.01767 
L 209.02223 629.707666 
L 218.980064 623.934776 
L 228.937898 624.172098 
L 238.895733 629.898477 
L 248.853567 632.577059 
L 258.811402 629.25568 
L 268.769236 621.586267 
L 278.72707 611.182476 
L 288.684905 599.705339 
L 298.642739 590.273365 
L 308.600573 586.690532 
L 318.558408 588.603585 
L 328.516242 590.882011 
L 338.474077 589.566582 
L 348.431911 583.895541 
L 358.389745 574.840977 
L 368.34758 564.493342 
L 378.305414 556.065266 
L 388.263248 552.308281 
L 398.221083 552.692267 
L 408.178917 553.79527 
L 418.136752 552.599761 
L 428.094586 548.062589 
L 438.05242 540.819933 
L 448.010255 532.792923 
L 457.968089 526.605811 
L 467.925923 523.965874 
L 477.883758 524.122751 
L 487.841592 524.617288 
L 497.799427 523.333142 
L 507.757261 519.535514 
L 517.715095 513.861349 
L 527.67293 507.985324 
L 537.630764 503.843776 
L 547.588598 502.322648 
L 557.546433 502.541778 
L 567.504267 502.67727 
L 577.462102 501.309145 
L 587.419936 498.080107 
L 597.37777 493.695306 
L 607.335605 489.555178 
L 617.293439 486.974506 
L 627.251273 486.259412 
L 637.209108 486.505536 
L 647.166942 486.365173 
" style="fill:none;stroke:#5e4fa2;stroke-linecap:square;stroke-width:2;"/>
    <defs>
     <path d="M 0 2.5 
C 0.663008 2.5 1.29895 2.236584 1.767767 1.767767 
C 2.236584 1.29895 2.5 0.663008 2.5 0 
C 2.5 -0.663008 2.236584 -1.29895 1.767767 -1.767767 
C 1.29895 -2.236584 0.663008 -2.5 0 -2.5 
C -0.663008 -2.5 -1.29895 -2.236584 -1.767767 -1.767767 
C -2.236584 -1.29895 -2.5 -0.663008 -2.5 0 
C -2.5 0.663008 -2.236584 1.29895 -1.767767 1.767767 
C -1.29895 2.236584 -0.663008 2.5 0 2.5 
z
" id="m4808f45098" style="stroke:#5e4fa2;"/>
    </defs>
    <g clip-path="url(#pfe784c81c6)">
     <use style="fill:#5e4fa2;stroke:#5e4fa2;" x="159.233058" xlink:href="#m4808f45098" y="663.26281"/>
     <use style="fill:#5e4fa2;stroke:#5e4fa2;" x="169.190892" xlink:href="#m4808f45098" y="657.360865"/>
     <use style="fill:#5e4fa2;stroke:#5e4fa2;" x="179.148727" xlink:href="#m4808f45098" y="650.929456"/>
     <use style="fill:#5e4fa2;stroke:#5e4fa2;" x="189.106561" xlink:href="#m4808f45098" y="644.141056"/>
     <use style="fill:#5e4fa2;stroke:#5e4fa2;" x="199.064395" xlink:href="#m4808f45098" y="637.01767"/>
     <use style="fill:#5e4fa2;stroke:#5e4fa2;" x="209.02223" xlink:href="#m4808f45098" y="629.707666"/>
     <use style="fill:#5e4fa2;stroke:#5e4fa2;" x="218.980064" xlink:href="#m4808f45098" y="623.934776"/>
     <use style="fill:#5e4fa2;stroke:#5e4fa2;" x="228.937898" xlink:href="#m4808f45098" y="624.172098"/>
     <use style="fill:#5e4fa2;stroke:#5e4fa2;" x="238.895733" xlink:href="#m4808f45098" y="629.898477"/>
     <use style="fill:#5e4fa2;stroke:#5e4fa2;" x="248.853567" xlink:href="#m4808f45098" y="632.577059"/>
     <use style="fill:#5e4fa2;stroke:#5e4fa2;" x="258.811402" xlink:href="#m4808f45098" y="629.25568"/>
     <use style="fill:#5e4fa2;stroke:#5e4fa2;" x="268.769236" xlink:href="#m4808f45098" y="621.586267"/>
     <use style="fill:#5e4fa2;stroke:#5e4fa2;" x="278.72707" xlink:href="#m4808f45098" y="611.182476"/>
     <use style="fill:#5e4fa2;stroke:#5e4fa2;" x="288.684905" xlink:href="#m4808f45098" y="599.705339"/>
     <use style="fill:#5e4fa2;stroke:#5e4fa2;" x="298.642739" xlink:href="#m4808f45098" y="590.273365"/>
     <use style="fill:#5e4fa2;stroke:#5e4fa2;" x="308.600573" xlink:href="#m4808f45098" y="586.690532"/>
     <use style="fill:#5e4fa2;stroke:#5e4fa2;" x="318.558408" xlink:href="#m4808f45098" y="588.603585"/>
     <use style="fill:#5e4fa2;stroke:#5e4fa2;" x="328.516242" xlink:href="#m4808f45098" y="590.882011"/>
     <use style="fill:#5e4fa2;stroke:#5e4fa2;" x="338.474077" xlink:href="#m4808f45098" y="589.566582"/>
     <use style="fill:#5e4fa2;stroke:#5e4fa2;" x="348.431911" xlink:href="#m4808f45098" y="583.895541"/>
     <use style="fill:#5e4fa2;stroke:#5e4fa2;" x="358.389745" xlink:href="#m4808f45098" y="574.840977"/>
     <use style="fill:#5e4fa2;stroke:#5e4fa2;" x="368.34758" xlink:href="#m4808f45098" y="564.493342"/>
     <use style="fill:#5e4fa2;stroke:#5e4fa2;" x="378.305414" xlink:href="#m4808f45098" y="556.065266"/>
     <use style="fill:#5e4fa2;stroke:#5e4fa2;" x="388.263248" xlink:href="#m4808f45098" y="552.308281"/>
     <use style="fill:#5e4fa2;stroke:#5e4fa2;" x="398.221083" xlink:href="#m4808f45098" y="552.692267"/>
     <use style="fill:#5e4fa2;stroke:#5e4fa2;" x="408.178917" xlink:href="#m4808f45098" y="553.79527"/>
     <use style="fill:#5e4fa2;stroke:#5e4fa2;" x="418.136752" xlink:href="#m4808f45098" y="552.599761"/>
     <use style="fill:#5e4fa2;stroke:#5e4fa2;" x="428.094586" xlink:href="#m4808f45098" y="548.062589"/>
     <use style="fill:#5e4fa2;stroke:#5e4fa2;" x="438.05242" xlink:href="#m4808f45098" y="540.819933"/>
     <use style="fill:#5e4fa2;stroke:#5e4fa2;" x="448.010255" xlink:href="#m4808f45098" y="532.792923"/>
     <use style="fill:#5e4fa2;stroke:#5e4fa2;" x="457.968089" xlink:href="#m4808f45098" y="526.605811"/>
     <use style="fill:#5e4fa2;stroke:#5e4fa2;" x="467.925923" xlink:href="#m4808f45098" y="523.965874"/>
     <use style="fill:#5e4fa2;stroke:#5e4fa2;" x="477.883758" xlink:href="#m4808f45098" y="524.122751"/>
     <use style="fill:#5e4fa2;stroke:#5e4fa2;" x="487.841592" xlink:href="#m4808f45098" y="524.617288"/>
     <use style="fill:#5e4fa2;stroke:#5e4fa2;" x="497.799427" xlink:href="#m4808f45098" y="523.333142"/>
     <use style="fill:#5e4fa2;stroke:#5e4fa2;" x="507.757261" xlink:href="#m4808f45098" y="519.535514"/>
     <use style="fill:#5e4fa2;stroke:#5e4fa2;" x="517.715095" xlink:href="#m4808f45098" y="513.861349"/>
     <use style="fill:#5e4fa2;stroke:#5e4fa2;" x="527.67293" xlink:href="#m4808f45098" y="507.985324"/>
     <use style="fill:#5e4fa2;stroke:#5e4fa2;" x="537.630764" xlink:href="#m4808f45098" y="503.843776"/>
     <use style="fill:#5e4fa2;stroke:#5e4fa2;" x="547.588598" xlink:href="#m4808f45098" y="502.322648"/>
     <use style="fill:#5e4fa2;stroke:#5e4fa2;" x="557.546433" xlink:href="#m4808f45098" y="502.541778"/>
     <use style="fill:#5e4fa2;stroke:#5e4fa2;" x="567.504267" xlink:href="#m4808f45098" y="502.67727"/>
     <use style="fill:#5e4fa2;stroke:#5e4fa2;" x="577.462102" xlink:href="#m4808f45098" y="501.309145"/>
     <use style="fill:#5e4fa2;stroke:#5e4fa2;" x="587.419936" xlink:href="#m4808f45098" y="498.080107"/>
     <use style="fill:#5e4fa2;stroke:#5e4fa2;" x="597.37777" xlink:href="#m4808f45098" y="493.695306"/>
     <use style="fill:#5e4fa2;stroke:#5e4fa2;" x="607.335605" xlink:href="#m4808f45098" y="489.555178"/>
     <use style="fill:#5e4fa2;stroke:#5e4fa2;" x="617.293439" xlink:href="#m4808f45098" y="486.974506"/>
     <use style="fill:#5e4fa2;stroke:#5e4fa2;" x="627.251273" xlink:href="#m4808f45098" y="486.259412"/>
     <use style="fill:#5e4fa2;stroke:#5e4fa2;" x="637.209108" xlink:href="#m4808f45098" y="486.505536"/>
     <use style="fill:#5e4fa2;stroke:#5e4fa2;" x="647.166942" xlink:href="#m4808f45098" y="486.365173"/>
    </g>
   </g>
   <g id="line2d_34">
    <path clip-path="url(#pfe784c81c6)" d="M 159.233058 346.323891 
L 169.190892 358.233916 
L 179.148727 362.752691 
L 189.106561 357.462207 
L 199.064395 345.973875 
L 209.02223 335.273888 
L 218.980064 331.262717 
L 228.937898 335.262022 
L 238.895733 343.502948 
L 248.853567 349.708413 
L 258.811402 349.031986 
L 268.769236 340.910817 
L 278.72707 329.182356 
L 288.684905 319.547961 
L 298.642739 316.054346 
L 308.600573 318.764043 
L 318.558408 323.955903 
L 328.516242 326.602454 
L 338.474077 323.509593 
L 348.431911 315.183992 
L 358.389745 305.35775 
L 368.34758 298.570709 
L 378.305414 297.370937 
L 388.263248 300.854782 
L 398.221083 305.376396 
L 408.178917 306.899518 
L 418.136752 303.486035 
L 428.094586 296.395602 
L 438.05242 289.181413 
L 448.010255 285.416466 
L 457.968089 286.497 
L 467.925923 290.86623 
L 477.883758 295.080298 
L 487.841592 295.99343 
L 497.799427 292.679543 
L 507.757261 286.919323 
L 517.715095 282.004411 
L 527.67293 280.652986 
L 537.630764 283.350004 
L 547.588598 288.119657 
L 557.546433 291.822616 
L 567.504267 292.128755 
L 577.462102 288.927336 
L 587.419936 284.322669 
L 597.37777 281.262095 
L 607.335605 281.685315 
L 617.293439 285.352482 
L 627.251273 290.054773 
L 637.209108 293.036642 
L 647.166942 292.715338 
" style="fill:none;stroke:#5e4fa2;stroke-dasharray:7.4,3.2;stroke-dashoffset:0;stroke-width:2;"/>
    <g clip-path="url(#pfe784c81c6)">
     <use style="fill:#5e4fa2;stroke:#5e4fa2;" x="159.233058" xlink:href="#m4808f45098" y="346.323891"/>
     <use style="fill:#5e4fa2;stroke:#5e4fa2;" x="169.190892" xlink:href="#m4808f45098" y="358.233916"/>
     <use style="fill:#5e4fa2;stroke:#5e4fa2;" x="179.148727" xlink:href="#m4808f45098" y="362.752691"/>
     <use style="fill:#5e4fa2;stroke:#5e4fa2;" x="189.106561" xlink:href="#m4808f45098" y="357.462207"/>
     <use style="fill:#5e4fa2;stroke:#5e4fa2;" x="199.064395" xlink:href="#m4808f45098" y="345.973875"/>
     <use style="fill:#5e4fa2;stroke:#5e4fa2;" x="209.02223" xlink:href="#m4808f45098" y="335.273888"/>
     <use style="fill:#5e4fa2;stroke:#5e4fa2;" x="218.980064" xlink:href="#m4808f45098" y="331.262717"/>
     <use style="fill:#5e4fa2;stroke:#5e4fa2;" x="228.937898" xlink:href="#m4808f45098" y="335.262022"/>
     <use style="fill:#5e4fa2;stroke:#5e4fa2;" x="238.895733" xlink:href="#m4808f45098" y="343.502948"/>
     <use style="fill:#5e4fa2;stroke:#5e4fa2;" x="248.853567" xlink:href="#m4808f45098" y="349.708413"/>
     <use style="fill:#5e4fa2;stroke:#5e4fa2;" x="258.811402" xlink:href="#m4808f45098" y="349.031986"/>
     <use style="fill:#5e4fa2;stroke:#5e4fa2;" x="268.769236" xlink:href="#m4808f45098" y="340.910817"/>
     <use style="fill:#5e4fa2;stroke:#5e4fa2;" x="278.72707" xlink:href="#m4808f45098" y="329.182356"/>
     <use style="fill:#5e4fa2;stroke:#5e4fa2;" x="288.684905" xlink:href="#m4808f45098" y="319.547961"/>
     <use style="fill:#5e4fa2;stroke:#5e4fa2;" x="298.642739" xlink:href="#m4808f45098" y="316.054346"/>
     <use style="fill:#5e4fa2;stroke:#5e4fa2;" x="308.600573" xlink:href="#m4808f45098" y="318.764043"/>
     <use style="fill:#5e4fa2;stroke:#5e4fa2;" x="318.558408" xlink:href="#m4808f45098" y="323.955903"/>
     <use style="fill:#5e4fa2;stroke:#5e4fa2;" x="328.516242" xlink:href="#m4808f45098" y="326.602454"/>
     <use style="fill:#5e4fa2;stroke:#5e4fa2;" x="338.474077" xlink:href="#m4808f45098" y="323.509593"/>
     <use style="fill:#5e4fa2;stroke:#5e4fa2;" x="348.431911" xlink:href="#m4808f45098" y="315.183992"/>
     <use style="fill:#5e4fa2;stroke:#5e4fa2;" x="358.389745" xlink:href="#m4808f45098" y="305.35775"/>
     <use style="fill:#5e4fa2;stroke:#5e4fa2;" x="368.34758" xlink:href="#m4808f45098" y="298.570709"/>
     <use style="fill:#5e4fa2;stroke:#5e4fa2;" x="378.305414" xlink:href="#m4808f45098" y="297.370937"/>
     <use style="fill:#5e4fa2;stroke:#5e4fa2;" x="388.263248" xlink:href="#m4808f45098" y="300.854782"/>
     <use style="fill:#5e4fa2;stroke:#5e4fa2;" x="398.221083" xlink:href="#m4808f45098" y="305.376396"/>
     <use style="fill:#5e4fa2;stroke:#5e4fa2;" x="408.178917" xlink:href="#m4808f45098" y="306.899518"/>
     <use style="fill:#5e4fa2;stroke:#5e4fa2;" x="418.136752" xlink:href="#m4808f45098" y="303.486035"/>
     <use style="fill:#5e4fa2;stroke:#5e4fa2;" x="428.094586" xlink:href="#m4808f45098" y="296.395602"/>
     <use style="fill:#5e4fa2;stroke:#5e4fa2;" x="438.05242" xlink:href="#m4808f45098" y="289.181413"/>
     <use style="fill:#5e4fa2;stroke:#5e4fa2;" x="448.010255" xlink:href="#m4808f45098" y="285.416466"/>
     <use style="fill:#5e4fa2;stroke:#5e4fa2;" x="457.968089" xlink:href="#m4808f45098" y="286.497"/>
     <use style="fill:#5e4fa2;stroke:#5e4fa2;" x="467.925923" xlink:href="#m4808f45098" y="290.86623"/>
     <use style="fill:#5e4fa2;stroke:#5e4fa2;" x="477.883758" xlink:href="#m4808f45098" y="295.080298"/>
     <use style="fill:#5e4fa2;stroke:#5e4fa2;" x="487.841592" xlink:href="#m4808f45098" y="295.99343"/>
     <use style="fill:#5e4fa2;stroke:#5e4fa2;" x="497.799427" xlink:href="#m4808f45098" y="292.679543"/>
     <use style="fill:#5e4fa2;stroke:#5e4fa2;" x="507.757261" xlink:href="#m4808f45098" y="286.919323"/>
     <use style="fill:#5e4fa2;stroke:#5e4fa2;" x="517.715095" xlink:href="#m4808f45098" y="282.004411"/>
     <use style="fill:#5e4fa2;stroke:#5e4fa2;" x="527.67293" xlink:href="#m4808f45098" y="280.652986"/>
     <use style="fill:#5e4fa2;stroke:#5e4fa2;" x="537.630764" xlink:href="#m4808f45098" y="283.350004"/>
     <use style="fill:#5e4fa2;stroke:#5e4fa2;" x="547.588598" xlink:href="#m4808f45098" y="288.119657"/>
     <use style="fill:#5e4fa2;stroke:#5e4fa2;" x="557.546433" xlink:href="#m4808f45098" y="291.822616"/>
     <use style="fill:#5e4fa2;stroke:#5e4fa2;" x="567.504267" xlink:href="#m4808f45098" y="292.128755"/>
     <use style="fill:#5e4fa2;stroke:#5e4fa2;" x="577.462102" xlink:href="#m4808f45098" y="288.927336"/>
     <use style="fill:#5e4fa2;stroke:#5e4fa2;" x="587.419936" xlink:href="#m4808f45098" y="284.322669"/>
     <use style="fill:#5e4fa2;stroke:#5e4fa2;" x="597.37777" xlink:href="#m4808f45098" y="281.262095"/>
     <use style="fill:#5e4fa2;stroke:#5e4fa2;" x="607.335605" xlink:href="#m4808f45098" y="281.685315"/>
     <use style="fill:#5e4fa2;stroke:#5e4fa2;" x="617.293439" xlink:href="#m4808f45098" y="285.352482"/>
     <use style="fill:#5e4fa2;stroke:#5e4fa2;" x="627.251273" xlink:href="#m4808f45098" y="290.054773"/>
     <use style="fill:#5e4fa2;stroke:#5e4fa2;" x="637.209108" xlink:href="#m4808f45098" y="293.036642"/>
     <use style="fill:#5e4fa2;stroke:#5e4fa2;" x="647.166942" xlink:href="#m4808f45098" y="292.715338"/>
    </g>
   </g>
   <g id="patch_3">
    <path d="M 108 720.9 
L 108 56.7 
" style="fill:none;stroke:#000000;stroke-linecap:square;stroke-linejoin:miter;stroke-width:0.8;"/>
   </g>
   <g id="patch_4">
    <path d="M 698.4 720.9 
L 698.4 56.7 
" style="fill:none;stroke:#000000;stroke-linecap:square;stroke-linejoin:miter;stroke-width:0.8;"/>
   </g>
   <g id="patch_5">
    <path d="M 108 720.9 
L 698.4 720.9 
" style="fill:none;stroke:#000000;stroke-linecap:square;stroke-linejoin:miter;stroke-width:0.8;"/>
   </g>
   <g id="patch_6">
    <path d="M 108 56.7 
L 698.4 56.7 
" style="fill:none;stroke:#000000;stroke-linecap:square;stroke-linejoin:miter;stroke-width:0.8;"/>
   </g>
   <g id="legend_1">
    <g id="patch_7">
     <path d="M 550.234532 160.485009 
L 684.4 160.485009 
Q 688.4 160.485009 688.4 156.485009 
L 688.4 70.7 
Q 688.4 66.7 684.4 66.7 
L 550.234532 66.7 
Q 546.234532 66.7 546.234532 70.7 
L 546.234532 156.485009 
Q 546.234532 160.485009 550.234532 160.485009 
z
" style="fill:#ffffff;opacity:0.8;stroke:#cccccc;stroke-linejoin:miter;"/>
    </g>
    <g id="line2d_35">
     <path d="M 554.234532 82.896875 
L 594.234532 82.896875 
" style="fill:none;stroke:#fdbf6f;stroke-linecap:square;stroke-width:2;"/>
    </g>
    <g id="line2d_36">
     <g>
      <use style="fill:#fdbf6f;stroke:#fdbf6f;" x="574.234532" xlink:href="#meda73ee8c9" y="82.896875"/>
     </g>
    </g>
    <g id="text_17">
     <!-- $ka=1.0$ -->
     <g transform="translate(610.234532 89.896875)scale(0.2 -0.2)">
      <defs>
       <path d="M 64.296875 31.515625 
C 65.796875 31.515625 67.296875 31.515625 67.296875 33.203125 
C 67.296875 35 65.59375 35 63.90625 35 
L 8 35 
C 6.296875 35 4.59375 35 4.59375 33.203125 
C 4.59375 31.515625 6.09375 31.515625 7.59375 31.515625 
z
M 63.90625 14 
C 65.59375 14 67.296875 14 67.296875 15.796875 
C 67.296875 17.484375 65.796875 17.484375 64.296875 17.484375 
L 7.59375 17.484375 
C 6.09375 17.484375 4.59375 17.484375 4.59375 15.796875 
C 4.59375 14 6.296875 14 8 14 
z
" id="CMR17-61"/>
       <path d="M 18.40625 4.796875 
C 18.40625 7.6875 16 9.671875 13.59375 9.671875 
C 10.703125 9.671875 8.703125 7.28125 8.703125 4.890625 
C 8.703125 2 11.09375 0 13.5 0 
C 16.40625 0 18.40625 2.390625 18.40625 4.796875 
z
" id="CMMI12-58"/>
      </defs>
      <use transform="scale(0.996264)" xlink:href="#CMMI12-107"/>
      <use transform="translate(54.079201 0)scale(0.996264)" xlink:href="#CMMI12-97"/>
      <use transform="translate(132.961067 0)scale(0.996264)" xlink:href="#CMR17-61"/>
      <use transform="translate(232.349864 0)scale(0.996264)" xlink:href="#CMR17-49"/>
      <use transform="translate(278.040341 0)scale(0.996264)" xlink:href="#CMMI12-58"/>
      <use transform="translate(305.137518 0)scale(0.996264)" xlink:href="#CMR17-48"/>
     </g>
    </g>
    <g id="line2d_37">
     <path d="M 554.234532 112.253125 
L 594.234532 112.253125 
" style="fill:none;stroke:#bfe5a0;stroke-linecap:square;stroke-width:2;"/>
    </g>
    <g id="line2d_38">
     <g>
      <use style="fill:#bfe5a0;stroke:#bfe5a0;" x="574.234532" xlink:href="#mfea02707f3" y="112.253125"/>
     </g>
    </g>
    <g id="text_18">
     <!-- $ka=2.0$ -->
     <g transform="translate(610.234532 119.253125)scale(0.2 -0.2)">
      <use transform="scale(0.996264)" xlink:href="#CMMI12-107"/>
      <use transform="translate(54.079201 0)scale(0.996264)" xlink:href="#CMMI12-97"/>
      <use transform="translate(132.961067 0)scale(0.996264)" xlink:href="#CMR17-61"/>
      <use transform="translate(232.349864 0)scale(0.996264)" xlink:href="#CMR17-50"/>
      <use transform="translate(278.040341 0)scale(0.996264)" xlink:href="#CMMI12-58"/>
      <use transform="translate(305.137518 0)scale(0.996264)" xlink:href="#CMR17-48"/>
     </g>
    </g>
    <g id="line2d_39">
     <path d="M 554.234532 141.609375 
L 594.234532 141.609375 
" style="fill:none;stroke:#5e4fa2;stroke-linecap:square;stroke-width:2;"/>
    </g>
    <g id="line2d_40">
     <g>
      <use style="fill:#5e4fa2;stroke:#5e4fa2;" x="574.234532" xlink:href="#m4808f45098" y="141.609375"/>
     </g>
    </g>
    <g id="text_19">
     <!-- $ka=5.0$ -->
     <g transform="translate(610.234532 148.609375)scale(0.2 -0.2)">
      <use transform="scale(0.996264)" xlink:href="#CMMI12-107"/>
      <use transform="translate(54.079201 0)scale(0.996264)" xlink:href="#CMMI12-97"/>
      <use transform="translate(132.961067 0)scale(0.996264)" xlink:href="#CMR17-61"/>
      <use transform="translate(232.349864 0)scale(0.996264)" xlink:href="#CMR17-53"/>
      <use transform="translate(278.040341 0)scale(0.996264)" xlink:href="#CMMI12-58"/>
      <use transform="translate(305.137518 0)scale(0.996264)" xlink:href="#CMR17-48"/>
     </g>
    </g>
   </g>
  </g>
 </g>
 <defs>
  <clipPath id="pfe784c81c6">
   <rect height="664.2" width="590.4" x="108" y="56.7"/>
  </clipPath>
 </defs>
</svg>
