<?xml version="1.0" encoding="utf-8" standalone="no"?>
<!DOCTYPE svg PUBLIC "-//W3C//DTD SVG 1.1//EN"
  "http://www.w3.org/Graphics/SVG/1.1/DTD/svg11.dtd">
<!-- Created with matplotlib (https://matplotlib.org/) -->
<svg height="810pt" version="1.1" viewBox="0 0 720 810" width="720pt" xmlns="http://www.w3.org/2000/svg" xmlns:xlink="http://www.w3.org/1999/xlink">
 <metadata>
  <rdf:RDF xmlns:cc="http://creativecommons.org/ns#" xmlns:dc="http://purl.org/dc/elements/1.1/" xmlns:rdf="http://www.w3.org/1999/02/22-rdf-syntax-ns#">
   <cc:Work>
    <dc:type rdf:resource="http://purl.org/dc/dcmitype/StillImage"/>
    <dc:date>2021-09-07T01:14:28.157511</dc:date>
    <dc:format>image/svg+xml</dc:format>
    <dc:creator>
     <cc:Agent>
      <dc:title>Matplotlib v3.3.1, https://matplotlib.org/</dc:title>
     </cc:Agent>
    </dc:creator>
   </cc:Work>
  </rdf:RDF>
 </metadata>
 <defs>
  <style type="text/css">*{stroke-linecap:butt;stroke-linejoin:round;}</style>
 </defs>
 <g id="figure_1">
  <g id="patch_1">
   <path d="M 0 810 
L 720 810 
L 720 0 
L 0 0 
z
" style="fill:#ffffff;"/>
  </g>
  <g id="axes_1">
   <g id="patch_2">
    <path d="M 108 720.9 
L 698.4 720.9 
L 698.4 56.7 
L 108 56.7 
z
" style="fill:#ffffff;"/>
   </g>
   <g id="matplotlib.axis_1">
    <g id="xtick_1">
     <g id="line2d_1">
      <path clip-path="url(#p1e0aa7a2ad)" d="M 108 720.9 
L 108 56.7 
" style="fill:none;stroke:#e6e6e6;stroke-linecap:square;stroke-width:0.8;"/>
     </g>
     <g id="line2d_2">
      <defs>
       <path d="M 0 0 
L 0 3.5 
" id="m4fe96ba624" style="stroke:#000000;stroke-width:0.8;"/>
      </defs>
      <g>
       <use style="stroke:#000000;stroke-width:0.8;" x="108" xlink:href="#m4fe96ba624" y="720.9"/>
      </g>
     </g>
     <g id="text_1">
      <!-- 0 -->
      <g transform="translate(103.228125 739.297656)scale(0.15 -0.15)">
       <defs>
        <path d="M 31.78125 66.40625 
Q 24.171875 66.40625 20.328125 58.90625 
Q 16.5 51.421875 16.5 36.375 
Q 16.5 21.390625 20.328125 13.890625 
Q 24.171875 6.390625 31.78125 6.390625 
Q 39.453125 6.390625 43.28125 13.890625 
Q 47.125 21.390625 47.125 36.375 
Q 47.125 51.421875 43.28125 58.90625 
Q 39.453125 66.40625 31.78125 66.40625 
z
M 31.78125 74.21875 
Q 44.046875 74.21875 50.515625 64.515625 
Q 56.984375 54.828125 56.984375 36.375 
Q 56.984375 17.96875 50.515625 8.265625 
Q 44.046875 -1.421875 31.78125 -1.421875 
Q 19.53125 -1.421875 13.0625 8.265625 
Q 6.59375 17.96875 6.59375 36.375 
Q 6.59375 54.828125 13.0625 64.515625 
Q 19.53125 74.21875 31.78125 74.21875 
z
" id="DejaVuSans-48"/>
       </defs>
       <use xlink:href="#DejaVuSans-48"/>
      </g>
     </g>
    </g>
    <g id="xtick_2">
     <g id="line2d_3">
      <path clip-path="url(#p1e0aa7a2ad)" d="M 186.72 720.9 
L 186.72 56.7 
" style="fill:none;stroke:#e6e6e6;stroke-linecap:square;stroke-width:0.8;"/>
     </g>
     <g id="line2d_4">
      <g>
       <use style="stroke:#000000;stroke-width:0.8;" x="186.72" xlink:href="#m4fe96ba624" y="720.9"/>
      </g>
     </g>
     <g id="text_2">
      <!-- 2 -->
      <g transform="translate(181.948125 739.297656)scale(0.15 -0.15)">
       <defs>
        <path d="M 19.1875 8.296875 
L 53.609375 8.296875 
L 53.609375 0 
L 7.328125 0 
L 7.328125 8.296875 
Q 12.9375 14.109375 22.625 23.890625 
Q 32.328125 33.6875 34.8125 36.53125 
Q 39.546875 41.84375 41.421875 45.53125 
Q 43.3125 49.21875 43.3125 52.78125 
Q 43.3125 58.59375 39.234375 62.25 
Q 35.15625 65.921875 28.609375 65.921875 
Q 23.96875 65.921875 18.8125 64.3125 
Q 13.671875 62.703125 7.8125 59.421875 
L 7.8125 69.390625 
Q 13.765625 71.78125 18.9375 73 
Q 24.125 74.21875 28.421875 74.21875 
Q 39.75 74.21875 46.484375 68.546875 
Q 53.21875 62.890625 53.21875 53.421875 
Q 53.21875 48.921875 51.53125 44.890625 
Q 49.859375 40.875 45.40625 35.40625 
Q 44.1875 33.984375 37.640625 27.21875 
Q 31.109375 20.453125 19.1875 8.296875 
z
" id="DejaVuSans-50"/>
       </defs>
       <use xlink:href="#DejaVuSans-50"/>
      </g>
     </g>
    </g>
    <g id="xtick_3">
     <g id="line2d_5">
      <path clip-path="url(#p1e0aa7a2ad)" d="M 265.44 720.9 
L 265.44 56.7 
" style="fill:none;stroke:#e6e6e6;stroke-linecap:square;stroke-width:0.8;"/>
     </g>
     <g id="line2d_6">
      <g>
       <use style="stroke:#000000;stroke-width:0.8;" x="265.44" xlink:href="#m4fe96ba624" y="720.9"/>
      </g>
     </g>
     <g id="text_3">
      <!-- 4 -->
      <g transform="translate(260.668125 739.297656)scale(0.15 -0.15)">
       <defs>
        <path d="M 37.796875 64.3125 
L 12.890625 25.390625 
L 37.796875 25.390625 
z
M 35.203125 72.90625 
L 47.609375 72.90625 
L 47.609375 25.390625 
L 58.015625 25.390625 
L 58.015625 17.1875 
L 47.609375 17.1875 
L 47.609375 0 
L 37.796875 0 
L 37.796875 17.1875 
L 4.890625 17.1875 
L 4.890625 26.703125 
z
" id="DejaVuSans-52"/>
       </defs>
       <use xlink:href="#DejaVuSans-52"/>
      </g>
     </g>
    </g>
    <g id="xtick_4">
     <g id="line2d_7">
      <path clip-path="url(#p1e0aa7a2ad)" d="M 344.16 720.9 
L 344.16 56.7 
" style="fill:none;stroke:#e6e6e6;stroke-linecap:square;stroke-width:0.8;"/>
     </g>
     <g id="line2d_8">
      <g>
       <use style="stroke:#000000;stroke-width:0.8;" x="344.16" xlink:href="#m4fe96ba624" y="720.9"/>
      </g>
     </g>
     <g id="text_4">
      <!-- 6 -->
      <g transform="translate(339.388125 739.297656)scale(0.15 -0.15)">
       <defs>
        <path d="M 33.015625 40.375 
Q 26.375 40.375 22.484375 35.828125 
Q 18.609375 31.296875 18.609375 23.390625 
Q 18.609375 15.53125 22.484375 10.953125 
Q 26.375 6.390625 33.015625 6.390625 
Q 39.65625 6.390625 43.53125 10.953125 
Q 47.40625 15.53125 47.40625 23.390625 
Q 47.40625 31.296875 43.53125 35.828125 
Q 39.65625 40.375 33.015625 40.375 
z
M 52.59375 71.296875 
L 52.59375 62.3125 
Q 48.875 64.0625 45.09375 64.984375 
Q 41.3125 65.921875 37.59375 65.921875 
Q 27.828125 65.921875 22.671875 59.328125 
Q 17.53125 52.734375 16.796875 39.40625 
Q 19.671875 43.65625 24.015625 45.921875 
Q 28.375 48.1875 33.59375 48.1875 
Q 44.578125 48.1875 50.953125 41.515625 
Q 57.328125 34.859375 57.328125 23.390625 
Q 57.328125 12.15625 50.6875 5.359375 
Q 44.046875 -1.421875 33.015625 -1.421875 
Q 20.359375 -1.421875 13.671875 8.265625 
Q 6.984375 17.96875 6.984375 36.375 
Q 6.984375 53.65625 15.1875 63.9375 
Q 23.390625 74.21875 37.203125 74.21875 
Q 40.921875 74.21875 44.703125 73.484375 
Q 48.484375 72.75 52.59375 71.296875 
z
" id="DejaVuSans-54"/>
       </defs>
       <use xlink:href="#DejaVuSans-54"/>
      </g>
     </g>
    </g>
    <g id="xtick_5">
     <g id="line2d_9">
      <path clip-path="url(#p1e0aa7a2ad)" d="M 422.88 720.9 
L 422.88 56.7 
" style="fill:none;stroke:#e6e6e6;stroke-linecap:square;stroke-width:0.8;"/>
     </g>
     <g id="line2d_10">
      <g>
       <use style="stroke:#000000;stroke-width:0.8;" x="422.88" xlink:href="#m4fe96ba624" y="720.9"/>
      </g>
     </g>
     <g id="text_5">
      <!-- 8 -->
      <g transform="translate(418.108125 739.297656)scale(0.15 -0.15)">
       <defs>
        <path d="M 31.78125 34.625 
Q 24.75 34.625 20.71875 30.859375 
Q 16.703125 27.09375 16.703125 20.515625 
Q 16.703125 13.921875 20.71875 10.15625 
Q 24.75 6.390625 31.78125 6.390625 
Q 38.8125 6.390625 42.859375 10.171875 
Q 46.921875 13.96875 46.921875 20.515625 
Q 46.921875 27.09375 42.890625 30.859375 
Q 38.875 34.625 31.78125 34.625 
z
M 21.921875 38.8125 
Q 15.578125 40.375 12.03125 44.71875 
Q 8.5 49.078125 8.5 55.328125 
Q 8.5 64.0625 14.71875 69.140625 
Q 20.953125 74.21875 31.78125 74.21875 
Q 42.671875 74.21875 48.875 69.140625 
Q 55.078125 64.0625 55.078125 55.328125 
Q 55.078125 49.078125 51.53125 44.71875 
Q 48 40.375 41.703125 38.8125 
Q 48.828125 37.15625 52.796875 32.3125 
Q 56.78125 27.484375 56.78125 20.515625 
Q 56.78125 9.90625 50.3125 4.234375 
Q 43.84375 -1.421875 31.78125 -1.421875 
Q 19.734375 -1.421875 13.25 4.234375 
Q 6.78125 9.90625 6.78125 20.515625 
Q 6.78125 27.484375 10.78125 32.3125 
Q 14.796875 37.15625 21.921875 38.8125 
z
M 18.3125 54.390625 
Q 18.3125 48.734375 21.84375 45.5625 
Q 25.390625 42.390625 31.78125 42.390625 
Q 38.140625 42.390625 41.71875 45.5625 
Q 45.3125 48.734375 45.3125 54.390625 
Q 45.3125 60.0625 41.71875 63.234375 
Q 38.140625 66.40625 31.78125 66.40625 
Q 25.390625 66.40625 21.84375 63.234375 
Q 18.3125 60.0625 18.3125 54.390625 
z
" id="DejaVuSans-56"/>
       </defs>
       <use xlink:href="#DejaVuSans-56"/>
      </g>
     </g>
    </g>
    <g id="xtick_6">
     <g id="line2d_11">
      <path clip-path="url(#p1e0aa7a2ad)" d="M 501.6 720.9 
L 501.6 56.7 
" style="fill:none;stroke:#e6e6e6;stroke-linecap:square;stroke-width:0.8;"/>
     </g>
     <g id="line2d_12">
      <g>
       <use style="stroke:#000000;stroke-width:0.8;" x="501.6" xlink:href="#m4fe96ba624" y="720.9"/>
      </g>
     </g>
     <g id="text_6">
      <!-- 10 -->
      <g transform="translate(492.05625 739.297656)scale(0.15 -0.15)">
       <defs>
        <path d="M 12.40625 8.296875 
L 28.515625 8.296875 
L 28.515625 63.921875 
L 10.984375 60.40625 
L 10.984375 69.390625 
L 28.421875 72.90625 
L 38.28125 72.90625 
L 38.28125 8.296875 
L 54.390625 8.296875 
L 54.390625 0 
L 12.40625 0 
z
" id="DejaVuSans-49"/>
       </defs>
       <use xlink:href="#DejaVuSans-49"/>
       <use x="63.623047" xlink:href="#DejaVuSans-48"/>
      </g>
     </g>
    </g>
    <g id="xtick_7">
     <g id="line2d_13">
      <path clip-path="url(#p1e0aa7a2ad)" d="M 580.32 720.9 
L 580.32 56.7 
" style="fill:none;stroke:#e6e6e6;stroke-linecap:square;stroke-width:0.8;"/>
     </g>
     <g id="line2d_14">
      <g>
       <use style="stroke:#000000;stroke-width:0.8;" x="580.32" xlink:href="#m4fe96ba624" y="720.9"/>
      </g>
     </g>
     <g id="text_7">
      <!-- 12 -->
      <g transform="translate(570.77625 739.297656)scale(0.15 -0.15)">
       <use xlink:href="#DejaVuSans-49"/>
       <use x="63.623047" xlink:href="#DejaVuSans-50"/>
      </g>
     </g>
    </g>
    <g id="xtick_8">
     <g id="line2d_15">
      <path clip-path="url(#p1e0aa7a2ad)" d="M 659.04 720.9 
L 659.04 56.7 
" style="fill:none;stroke:#e6e6e6;stroke-linecap:square;stroke-width:0.8;"/>
     </g>
     <g id="line2d_16">
      <g>
       <use style="stroke:#000000;stroke-width:0.8;" x="659.04" xlink:href="#m4fe96ba624" y="720.9"/>
      </g>
     </g>
     <g id="text_8">
      <!-- 14 -->
      <g transform="translate(649.49625 739.297656)scale(0.15 -0.15)">
       <use xlink:href="#DejaVuSans-49"/>
       <use x="63.623047" xlink:href="#DejaVuSans-52"/>
      </g>
     </g>
    </g>
    <g id="text_9">
     <!-- $\theta(^{\circ})$ -->
     <g transform="translate(379.825 765.413281)scale(0.25 -0.25)">
      <defs>
       <path d="M 45.515625 34.671875 
L 14.453125 34.671875 
Q 12.359375 20.0625 14.5 13.875 
Q 17.1875 6.25 24.46875 6.25 
Q 31.78125 6.25 37.359375 13.921875 
Q 42.234375 20.65625 45.515625 34.671875 
z
M 47.015625 42.96875 
Q 48.34375 56.84375 46.625 61.71875 
Q 43.953125 69.4375 36.765625 69.4375 
Q 29.296875 69.4375 23.828125 61.8125 
Q 19.53125 55.671875 16.15625 42.96875 
z
M 38.1875 76.765625 
Q 49.90625 76.765625 54.59375 66.40625 
Q 59.28125 56.109375 55.71875 37.84375 
Q 52.203125 19.625 43.453125 9.28125 
Q 34.765625 -1.125 23.046875 -1.125 
Q 11.28125 -1.125 6.640625 9.28125 
Q 2 19.625 5.515625 37.84375 
Q 9.078125 56.109375 17.71875 66.40625 
Q 26.421875 76.765625 38.1875 76.765625 
z
" id="DejaVuSans-Oblique-952"/>
       <path d="M 31 75.875 
Q 24.46875 64.65625 21.28125 53.65625 
Q 18.109375 42.671875 18.109375 31.390625 
Q 18.109375 20.125 21.3125 9.0625 
Q 24.515625 -2 31 -13.1875 
L 23.1875 -13.1875 
Q 15.875 -1.703125 12.234375 9.375 
Q 8.59375 20.453125 8.59375 31.390625 
Q 8.59375 42.28125 12.203125 53.3125 
Q 15.828125 64.359375 23.1875 75.875 
z
" id="DejaVuSans-40"/>
       <path d="M 31.25 40.921875 
Q 27.34375 40.921875 24.65625 38.203125 
Q 21.96875 35.5 21.96875 31.59375 
Q 21.96875 27.734375 24.65625 25.078125 
Q 27.34375 22.421875 31.25 22.421875 
Q 35.15625 22.421875 37.84375 25.078125 
Q 40.53125 27.734375 40.53125 31.59375 
Q 40.53125 35.453125 37.8125 38.1875 
Q 35.109375 40.921875 31.25 40.921875 
z
M 31.25 47.21875 
Q 34.375 47.21875 37.25 46.015625 
Q 40.140625 44.828125 42.234375 42.578125 
Q 44.484375 40.390625 45.609375 37.59375 
Q 46.734375 34.8125 46.734375 31.59375 
Q 46.734375 25.15625 42.21875 20.6875 
Q 37.703125 16.21875 31.15625 16.21875 
Q 24.5625 16.21875 20.15625 20.609375 
Q 15.765625 25 15.765625 31.59375 
Q 15.765625 38.140625 20.25 42.671875 
Q 24.75 47.21875 31.25 47.21875 
z
" id="DejaVuSans-8728"/>
       <path d="M 8.015625 75.875 
L 15.828125 75.875 
Q 23.140625 64.359375 26.78125 53.3125 
Q 30.421875 42.28125 30.421875 31.390625 
Q 30.421875 20.453125 26.78125 9.375 
Q 23.140625 -1.703125 15.828125 -13.1875 
L 8.015625 -13.1875 
Q 14.5 -2 17.703125 9.0625 
Q 20.90625 20.125 20.90625 31.390625 
Q 20.90625 42.671875 17.703125 53.65625 
Q 14.5 64.65625 8.015625 75.875 
z
" id="DejaVuSans-41"/>
      </defs>
      <use transform="translate(0 0.234375)" xlink:href="#DejaVuSans-Oblique-952"/>
      <use transform="translate(61.181641 0.234375)" xlink:href="#DejaVuSans-40"/>
      <use transform="translate(101.152344 38.515625)scale(0.7)" xlink:href="#DejaVuSans-8728"/>
      <use transform="translate(147.705078 0.234375)" xlink:href="#DejaVuSans-41"/>
     </g>
    </g>
   </g>
   <g id="matplotlib.axis_2">
    <g id="ytick_1">
     <g id="line2d_17">
      <path clip-path="url(#p1e0aa7a2ad)" d="M 108 663.303396 
L 698.4 663.303396 
" style="fill:none;stroke:#e6e6e6;stroke-linecap:square;stroke-width:0.8;"/>
     </g>
     <g id="line2d_18">
      <defs>
       <path d="M 0 0 
L -3.5 0 
" id="m00a80aaf08" style="stroke:#000000;stroke-width:0.8;"/>
      </defs>
      <g>
       <use style="stroke:#000000;stroke-width:0.8;" x="108" xlink:href="#m00a80aaf08" y="663.303396"/>
      </g>
     </g>
     <g id="text_10">
      <!-- 0.0 -->
      <g transform="translate(77.145313 669.002224)scale(0.15 -0.15)">
       <defs>
        <path d="M 10.6875 12.40625 
L 21 12.40625 
L 21 0 
L 10.6875 0 
z
" id="DejaVuSans-46"/>
       </defs>
       <use xlink:href="#DejaVuSans-48"/>
       <use x="63.623047" xlink:href="#DejaVuSans-46"/>
       <use x="95.410156" xlink:href="#DejaVuSans-48"/>
      </g>
     </g>
    </g>
    <g id="ytick_2">
     <g id="line2d_19">
      <path clip-path="url(#p1e0aa7a2ad)" d="M 108 553.510155 
L 698.4 553.510155 
" style="fill:none;stroke:#e6e6e6;stroke-linecap:square;stroke-width:0.8;"/>
     </g>
     <g id="line2d_20">
      <g>
       <use style="stroke:#000000;stroke-width:0.8;" x="108" xlink:href="#m00a80aaf08" y="553.510155"/>
      </g>
     </g>
     <g id="text_11">
      <!-- 0.2 -->
      <g transform="translate(77.145313 559.208983)scale(0.15 -0.15)">
       <use xlink:href="#DejaVuSans-48"/>
       <use x="63.623047" xlink:href="#DejaVuSans-46"/>
       <use x="95.410156" xlink:href="#DejaVuSans-50"/>
      </g>
     </g>
    </g>
    <g id="ytick_3">
     <g id="line2d_21">
      <path clip-path="url(#p1e0aa7a2ad)" d="M 108 443.716914 
L 698.4 443.716914 
" style="fill:none;stroke:#e6e6e6;stroke-linecap:square;stroke-width:0.8;"/>
     </g>
     <g id="line2d_22">
      <g>
       <use style="stroke:#000000;stroke-width:0.8;" x="108" xlink:href="#m00a80aaf08" y="443.716914"/>
      </g>
     </g>
     <g id="text_12">
      <!-- 0.4 -->
      <g transform="translate(77.145313 449.415742)scale(0.15 -0.15)">
       <use xlink:href="#DejaVuSans-48"/>
       <use x="63.623047" xlink:href="#DejaVuSans-46"/>
       <use x="95.410156" xlink:href="#DejaVuSans-52"/>
      </g>
     </g>
    </g>
    <g id="ytick_4">
     <g id="line2d_23">
      <path clip-path="url(#p1e0aa7a2ad)" d="M 108 333.923672 
L 698.4 333.923672 
" style="fill:none;stroke:#e6e6e6;stroke-linecap:square;stroke-width:0.8;"/>
     </g>
     <g id="line2d_24">
      <g>
       <use style="stroke:#000000;stroke-width:0.8;" x="108" xlink:href="#m00a80aaf08" y="333.923672"/>
      </g>
     </g>
     <g id="text_13">
      <!-- 0.6 -->
      <g transform="translate(77.145313 339.622501)scale(0.15 -0.15)">
       <use xlink:href="#DejaVuSans-48"/>
       <use x="63.623047" xlink:href="#DejaVuSans-46"/>
       <use x="95.410156" xlink:href="#DejaVuSans-54"/>
      </g>
     </g>
    </g>
    <g id="ytick_5">
     <g id="line2d_25">
      <path clip-path="url(#p1e0aa7a2ad)" d="M 108 224.130431 
L 698.4 224.130431 
" style="fill:none;stroke:#e6e6e6;stroke-linecap:square;stroke-width:0.8;"/>
     </g>
     <g id="line2d_26">
      <g>
       <use style="stroke:#000000;stroke-width:0.8;" x="108" xlink:href="#m00a80aaf08" y="224.130431"/>
      </g>
     </g>
     <g id="text_14">
      <!-- 0.8 -->
      <g transform="translate(77.145313 229.829259)scale(0.15 -0.15)">
       <use xlink:href="#DejaVuSans-48"/>
       <use x="63.623047" xlink:href="#DejaVuSans-46"/>
       <use x="95.410156" xlink:href="#DejaVuSans-56"/>
      </g>
     </g>
    </g>
    <g id="ytick_6">
     <g id="line2d_27">
      <path clip-path="url(#p1e0aa7a2ad)" d="M 108 114.33719 
L 698.4 114.33719 
" style="fill:none;stroke:#e6e6e6;stroke-linecap:square;stroke-width:0.8;"/>
     </g>
     <g id="line2d_28">
      <g>
       <use style="stroke:#000000;stroke-width:0.8;" x="108" xlink:href="#m00a80aaf08" y="114.33719"/>
      </g>
     </g>
     <g id="text_15">
      <!-- 1.0 -->
      <g transform="translate(77.145313 120.036018)scale(0.15 -0.15)">
       <use xlink:href="#DejaVuSans-49"/>
       <use x="63.623047" xlink:href="#DejaVuSans-46"/>
       <use x="95.410156" xlink:href="#DejaVuSans-48"/>
      </g>
     </g>
    </g>
    <g id="text_16">
     <!-- $|f(\theta)|$ -->
     <g transform="translate(67.145313 419.05)rotate(-90)scale(0.25 -0.25)">
      <defs>
       <path d="M 21 76.421875 
L 21 -23.578125 
L 12.703125 -23.578125 
L 12.703125 76.421875 
z
" id="DejaVuSans-124"/>
       <path d="M 47.796875 75.984375 
L 46.390625 68.5 
L 37.796875 68.5 
Q 32.90625 68.5 30.6875 66.578125 
Q 28.46875 64.65625 27.390625 59.515625 
L 26.421875 54.6875 
L 41.21875 54.6875 
L 39.890625 47.703125 
L 25.09375 47.703125 
L 15.828125 0 
L 6.78125 0 
L 16.109375 47.703125 
L 7.515625 47.703125 
L 8.796875 54.6875 
L 17.390625 54.6875 
L 18.109375 58.5 
Q 19.96875 68.171875 24.625 72.078125 
Q 29.296875 75.984375 39.3125 75.984375 
z
" id="DejaVuSans-Oblique-102"/>
      </defs>
      <use transform="translate(0 0.234375)" xlink:href="#DejaVuSans-124"/>
      <use transform="translate(33.691406 0.234375)" xlink:href="#DejaVuSans-Oblique-102"/>
      <use transform="translate(68.896484 0.234375)" xlink:href="#DejaVuSans-40"/>
      <use transform="translate(107.910156 0.234375)" xlink:href="#DejaVuSans-Oblique-952"/>
      <use transform="translate(169.091797 0.234375)" xlink:href="#DejaVuSans-41"/>
      <use transform="translate(208.105469 0.234375)" xlink:href="#DejaVuSans-124"/>
     </g>
    </g>
   </g>
   <g id="line2d_29">
    <path clip-path="url(#p1e0aa7a2ad)" d="M 108.03936 114.33719 
L 109.679251 114.496325 
L 111.319141 114.958981 
L 112.959032 115.724656 
L 114.598923 116.792524 
L 116.238813 118.161427 
L 117.878704 119.829885 
L 119.518595 121.796092 
L 121.158485 124.057919 
L 122.798376 126.612917 
L 124.438267 129.458319 
L 126.078157 132.591043 
L 127.718048 136.007694 
L 129.357939 139.704566 
L 132.63772 147.922637 
L 135.917501 157.209581 
L 139.197283 167.525025 
L 142.477064 178.824042 
L 145.756845 191.057307 
L 149.036627 204.171251 
L 152.316408 218.108224 
L 155.596189 232.806647 
L 160.515861 256.138012 
L 165.435533 280.798753 
L 170.355205 306.534905 
L 176.914768 342.049693 
L 196.593456 449.743621 
L 201.513128 474.949828 
L 204.792909 490.87146 
L 208.072691 505.868695 
L 211.352472 519.721863 
L 214.632253 532.179792 
L 216.272144 537.79941 
L 217.912035 542.964804 
L 219.551925 547.640267 
L 221.191816 551.791995 
L 222.831707 555.389924 
L 224.471597 558.409841 
L 226.111488 560.835566 
L 227.751379 562.66091 
L 229.391269 563.89108 
L 231.03116 564.543235 
L 232.671051 564.646036 
L 234.310941 564.23823 
L 235.950832 563.366482 
L 237.590723 562.08282 
L 239.230613 560.442035 
L 240.870504 558.49935 
L 242.510395 556.308536 
L 245.790176 551.382609 
L 250.709848 543.27855 
L 255.62952 535.125159 
L 258.909301 529.989119 
L 262.189083 525.253583 
L 265.468864 521.016809 
L 268.748645 517.350116 
L 270.388536 515.746896 
L 272.028427 514.303549 
L 273.668317 513.023707 
L 275.308208 511.91014 
L 276.948099 510.964845 
L 278.587989 510.189105 
L 280.22788 509.583557 
L 281.867771 509.148239 
L 283.507661 508.882641 
L 285.147552 508.78574 
L 286.787443 508.856036 
L 288.427333 509.091588 
L 290.067224 509.490039 
L 291.707115 510.048637 
L 293.347005 510.764264 
L 294.986896 511.63345 
L 296.626787 512.652395 
L 298.266677 513.81698 
L 301.546459 516.565101 
L 304.82624 519.839031 
L 308.106021 523.595663 
L 311.385803 527.787806 
L 314.665584 532.364343 
L 317.945365 537.270305 
L 322.865037 545.117139 
L 329.4246 556.149621 
L 337.624053 570.039025 
L 342.543725 577.935089 
L 345.823507 582.829482 
L 349.103288 587.317994 
L 352.383069 591.307487 
L 355.662851 594.712153 
L 357.302741 596.172289 
L 358.942632 597.461465 
L 360.582523 598.574762 
L 362.222413 599.509333 
L 363.862304 600.264595 
L 365.502195 600.84234 
L 367.142085 601.246753 
L 368.781976 601.484323 
L 370.421867 601.563659 
L 372.061757 601.495224 
L 373.701648 601.291002 
L 376.981429 600.528573 
L 380.261211 599.388895 
L 383.540992 597.986614 
L 390.100555 594.818474 
L 395.020227 592.477683 
L 398.300008 591.068018 
L 401.579789 589.842093 
L 404.859571 588.841343 
L 408.139352 588.097416 
L 411.419133 587.633379 
L 414.698915 587.464776 
L 417.978696 587.600534 
L 421.258477 588.043721 
L 424.538259 588.792175 
L 427.81804 589.839026 
L 431.097821 591.173113 
L 434.377603 592.77933 
L 437.657384 594.638888 
L 440.937165 596.729508 
L 444.216947 599.025549 
L 449.136619 602.790528 
L 454.056291 606.839904 
L 468.815307 619.299908 
L 472.095088 621.813507 
L 475.374869 624.110968 
L 478.654651 626.132647 
L 481.934432 627.822856 
L 485.214213 629.135571 
L 488.493995 630.041021 
L 491.773776 630.531449 
L 495.053557 630.62388 
L 498.333339 630.35852 
L 501.61312 629.793139 
L 504.892901 628.995414 
L 509.812573 627.515943 
L 522.931699 623.33971 
L 527.851371 622.114426 
L 531.131152 621.480703 
L 534.410933 621.01435 
L 537.690715 620.727685 
L 540.970496 620.628719 
L 544.250277 620.721641 
L 547.530059 621.0072 
L 550.80984 621.483033 
L 554.089621 622.143908 
L 557.369403 622.981928 
L 560.649184 623.986678 
L 565.568856 625.777699 
L 570.488528 627.861113 
L 575.4082 630.1714 
L 583.607653 634.306045 
L 591.807107 638.388072 
L 596.726779 640.571616 
L 600.00656 641.827955 
L 603.286341 642.874524 
L 606.566123 643.673659 
L 609.845904 644.198633 
L 613.125685 644.439108 
L 616.405467 644.404202 
L 619.685248 644.121567 
L 622.965029 643.632699 
L 627.884701 642.620004 
L 636.084155 640.586817 
L 642.643717 639.003485 
L 647.563389 637.990151 
L 652.483061 637.196657 
L 657.402733 636.664577 
L 662.322405 636.41931 
L 667.242077 636.472843 
L 672.161749 636.825729 
L 677.081421 637.46845 
L 682.001093 638.382334 
L 686.920765 639.540061 
L 691.840437 640.905771 
L 698.4 642.971413 
L 698.4 642.971413 
" style="fill:none;stroke:#000000;stroke-linecap:square;stroke-width:2;"/>
   </g>
   <g id="line2d_30">
    <path clip-path="url(#p1e0aa7a2ad)" d="M 108.03936 114.33719 
L 109.679251 114.49388 
L 111.319141 114.94943 
L 112.959032 115.703365 
L 114.598923 116.754891 
L 116.238813 118.102906 
L 117.878704 119.745994 
L 119.518595 121.68243 
L 121.158485 123.910181 
L 122.798376 126.426907 
L 124.438267 129.229963 
L 126.078157 132.316404 
L 127.718048 135.682986 
L 129.357939 139.326167 
L 132.63772 147.426706 
L 135.917501 156.583906 
L 139.197283 166.759148 
L 142.477064 177.909438 
L 145.756845 189.987553 
L 149.036627 202.942179 
L 152.316408 216.718065 
L 155.596189 231.256157 
L 160.515861 254.354251 
L 165.435533 278.798731 
L 170.355205 304.345418 
L 176.914768 339.666915 
L 198.233347 456.051723 
L 203.153019 481.041125 
L 206.4328 496.768627 
L 209.712581 511.518168 
L 212.992363 525.053198 
L 216.272144 537.10147 
L 217.912035 542.474767 
L 219.551925 547.362626 
L 221.191816 551.727341 
L 222.831707 555.534093 
L 224.471597 558.753188 
L 226.111488 561.362511 
L 227.751379 563.349887 
L 229.391269 564.714978 
L 231.03116 565.470324 
L 232.671051 565.641283 
L 234.310941 565.264819 
L 235.950832 564.387332 
L 237.590723 563.061904 
L 239.230613 561.345398 
L 240.870504 559.295769 
L 242.510395 556.969858 
L 245.790176 551.70174 
L 250.709848 542.946219 
L 257.269411 531.143983 
L 260.549192 525.628244 
L 263.828973 520.545423 
L 267.108755 515.985498 
L 270.388536 512.013629 
L 272.028427 510.263117 
L 273.668317 508.675424 
L 275.308208 507.253835 
L 276.948099 506.000845 
L 278.587989 504.918231 
L 280.22788 504.007112 
L 281.867771 503.268005 
L 283.507661 502.70087 
L 285.147552 502.305154 
L 286.787443 502.079825 
L 288.427333 502.023405 
L 290.067224 502.133997 
L 291.707115 502.409311 
L 293.347005 502.846686 
L 294.986896 503.44311 
L 296.626787 504.195238 
L 298.266677 505.099407 
L 299.906568 506.151651 
L 301.546459 507.347714 
L 304.82624 510.152883 
L 308.106021 513.475451 
L 311.385803 517.271908 
L 314.665584 521.494886 
L 317.945365 526.093293 
L 321.225147 531.01236 
L 326.144819 538.863302 
L 332.704381 549.875942 
L 340.903835 563.714603 
L 345.823507 571.580831 
L 349.103288 576.46387 
L 352.383069 580.954423 
L 355.662851 584.965973 
L 358.942632 588.419437 
L 360.582523 589.915818 
L 362.222413 591.249806 
L 363.862304 592.416703 
L 365.502195 593.413597 
L 367.142085 594.239524 
L 368.781976 594.895569 
L 370.421867 595.384896 
L 372.061757 595.712698 
L 373.701648 595.886075 
L 375.341539 595.913838 
L 376.981429 595.806263 
L 380.261211 595.231806 
L 383.540992 594.263111 
L 386.820773 593.005529 
L 391.740445 590.800358 
L 399.939899 587.011187 
L 403.21968 585.663605 
L 406.499461 584.493279 
L 409.779243 583.540071 
L 413.059024 582.834791 
L 416.338805 582.400206 
L 419.618587 582.251948 
L 422.898368 582.399311 
L 426.178149 582.84593 
L 429.457931 583.59036 
L 432.737712 584.62655 
L 436.017493 585.944248 
L 439.297275 587.529325 
L 442.577056 589.364033 
L 445.856837 591.427207 
L 449.136619 593.694404 
L 454.056291 597.416428 
L 458.975963 601.427933 
L 475.374869 615.184255 
L 478.654651 617.655969 
L 481.934432 619.912665 
L 485.214213 621.901743 
L 488.493995 623.575446 
L 491.773776 624.895374 
L 495.053557 625.837346 
L 498.333339 626.395441 
L 501.61312 626.58388 
L 504.892901 626.435914 
L 508.172683 625.999906 
L 511.452464 625.333763 
L 516.372136 624.037868 
L 531.131152 619.745423 
L 536.050824 618.650075 
L 539.330605 618.095072 
L 542.610387 617.700022 
L 545.890168 617.476707 
L 549.169949 617.432849 
L 552.449731 617.572522 
L 555.729512 617.896492 
L 559.009293 618.402499 
L 562.289075 619.08549 
L 565.568856 619.937803 
L 570.488528 621.510948 
L 575.4082 623.397625 
L 580.327872 625.542083 
L 586.887435 628.683915 
L 601.646451 635.908461 
L 606.566123 637.975042 
L 609.845904 639.151041 
L 613.125685 640.124759 
L 616.405467 640.867716 
L 619.685248 641.361529 
L 622.965029 641.60119 
L 626.244811 641.596546 
L 629.524592 641.371281 
L 632.804373 640.959669 
L 637.724045 640.082006 
L 645.923499 638.269312 
L 654.122952 636.493603 
L 659.042624 635.614482 
L 663.962296 634.946677 
L 668.881968 634.527843 
L 673.80164 634.380908 
L 678.721312 634.516257 
L 683.640984 634.933368 
L 688.560656 635.621996 
L 693.480328 636.562975 
L 698.4 637.728689 
L 698.4 637.728689 
" style="fill:none;stroke:#ff0000;stroke-dasharray:7.4,3.2;stroke-dashoffset:0;stroke-width:2;"/>
   </g>
   <g id="line2d_31">
    <path clip-path="url(#p1e0aa7a2ad)" d="M 108.03936 114.33719 
L 109.679251 114.4467 
L 111.319141 114.76511 
L 112.959032 115.292159 
L 114.598923 116.027417 
L 116.238813 116.970284 
L 117.878704 118.119993 
L 119.518595 119.475604 
L 121.158485 121.036014 
L 122.798376 122.799951 
L 124.438267 124.765981 
L 126.078157 126.932503 
L 127.718048 129.297759 
L 130.997829 134.616629 
L 134.277611 140.70535 
L 137.557392 147.54423 
L 140.837173 155.111214 
L 144.116955 163.381969 
L 147.396736 172.329993 
L 150.676517 181.926723 
L 153.956299 192.141653 
L 157.23608 202.942463 
L 160.515861 214.295154 
L 165.435533 232.280838 
L 170.355205 251.302298 
L 175.274877 271.22798 
L 181.83444 298.96613 
L 188.394003 327.737302 
L 198.233347 372.092548 
L 216.272144 453.735017 
L 222.831707 482.483858 
L 229.391269 510.269604 
L 234.310941 530.319996 
L 239.230613 549.58303 
L 244.150285 567.968816 
L 249.069957 585.39745 
L 253.989629 601.799482 
L 258.909301 617.116267 
L 262.189083 626.700576 
L 265.468864 635.769819 
L 268.748645 644.314862 
L 272.028427 652.328771 
L 275.308208 659.806807 
L 276.948099 663.26281 
L 280.22788 656.592755 
L 283.507661 650.461047 
L 286.787443 644.865031 
L 290.067224 639.800054 
L 293.347005 635.259527 
L 296.626787 631.234999 
L 299.906568 627.716239 
L 303.186349 624.691321 
L 306.466131 622.146721 
L 309.745912 620.067409 
L 313.025693 618.436963 
L 316.305475 617.237668 
L 319.585256 616.450636 
L 322.865037 616.055916 
L 326.144819 616.032616 
L 329.4246 616.359022 
L 332.704381 617.01272 
L 335.984163 617.970717 
L 339.263944 619.209567 
L 342.543725 620.705488 
L 345.823507 622.434486 
L 349.103288 624.372476 
L 354.02296 627.618714 
L 358.942632 631.20055 
L 363.862304 635.03899 
L 370.421867 640.423944 
L 390.100555 656.833399 
L 396.660117 661.903399 
L 398.300008 663.112325 
L 399.939899 662.312185 
L 404.859571 658.939555 
L 409.779243 655.855135 
L 414.698915 653.088214 
L 419.618587 650.661731 
L 424.538259 648.592326 
L 427.81804 647.416522 
L 431.097821 646.405818 
L 434.377603 645.560689 
L 437.657384 644.8805 
L 440.937165 644.363554 
L 444.216947 644.007137 
L 447.496728 643.807575 
L 450.776509 643.760287 
L 455.696181 643.962788 
L 460.615853 644.47398 
L 465.535525 645.268882 
L 470.455197 646.319592 
L 475.374869 647.595831 
L 480.294541 649.065495 
L 486.854104 651.268123 
L 495.053557 654.298111 
L 518.012027 663.158123 
L 519.651917 662.851894 
L 526.21148 660.576354 
L 532.771043 658.518742 
L 539.330605 656.72405 
L 544.250277 655.572085 
L 549.169949 654.59903 
L 554.089621 653.812663 
L 559.009293 653.217514 
L 563.928965 652.814929 
L 568.848637 652.603188 
L 573.768309 652.577651 
L 578.687981 652.730953 
L 585.247544 653.19616 
L 591.807107 653.931996 
L 598.366669 654.903018 
L 606.566123 656.386073 
L 616.405467 658.447271 
L 637.724045 663.262426 
L 641.003827 662.633416 
L 650.843171 660.651514 
L 659.042624 659.23301 
L 665.602187 658.288108 
L 672.161749 657.533184 
L 678.721312 656.981173 
L 685.280875 656.638696 
L 691.840437 656.506167 
L 698.4 656.578052 
L 698.4 656.578052 
" style="fill:none;stroke:#0000ff;stroke-dasharray:12.8,3.2,2,3.2;stroke-dashoffset:0;stroke-width:2;"/>
   </g>
   <g id="patch_3">
    <path d="M 108 720.9 
L 108 56.7 
" style="fill:none;stroke:#000000;stroke-linecap:square;stroke-linejoin:miter;stroke-width:0.8;"/>
   </g>
   <g id="patch_4">
    <path d="M 698.4 720.9 
L 698.4 56.7 
" style="fill:none;stroke:#000000;stroke-linecap:square;stroke-linejoin:miter;stroke-width:0.8;"/>
   </g>
   <g id="patch_5">
    <path d="M 108 720.9 
L 698.4 720.9 
" style="fill:none;stroke:#000000;stroke-linecap:square;stroke-linejoin:miter;stroke-width:0.8;"/>
   </g>
   <g id="patch_6">
    <path d="M 108 56.7 
L 698.4 56.7 
" style="fill:none;stroke:#000000;stroke-linecap:square;stroke-linejoin:miter;stroke-width:0.8;"/>
   </g>
   <g id="text_17">
    <!-- $ka=60.0$, $\epsilon=0.10$, $n_{ref}=1.049$ -->
    <g transform="translate(246.9 50.7)scale(0.2 -0.2)">
     <defs>
      <path d="M 18.3125 75.984375 
L 27.296875 75.984375 
L 18.703125 31.6875 
L 49.515625 54.6875 
L 61.1875 54.6875 
L 26.8125 28.515625 
L 51.90625 0 
L 41.015625 0 
L 17.671875 26.703125 
L 12.5 0 
L 3.515625 0 
z
" id="DejaVuSans-Oblique-107"/>
      <path d="M 53.71875 31.203125 
L 47.609375 0 
L 38.625 0 
L 40.28125 8.296875 
Q 36.328125 3.421875 31.265625 1 
Q 26.21875 -1.421875 20.015625 -1.421875 
Q 13.03125 -1.421875 8.5625 2.84375 
Q 4.109375 7.125 4.109375 13.8125 
Q 4.109375 23.390625 11.75 28.953125 
Q 19.390625 34.515625 32.8125 34.515625 
L 45.3125 34.515625 
L 45.796875 36.921875 
Q 45.90625 37.3125 45.953125 37.765625 
Q 46 38.234375 46 39.203125 
Q 46 43.5625 42.453125 45.96875 
Q 38.921875 48.390625 32.515625 48.390625 
Q 28.125 48.390625 23.5 47.265625 
Q 18.890625 46.140625 14.015625 43.890625 
L 15.578125 52.203125 
Q 20.65625 54.109375 25.515625 55.046875 
Q 30.375 56 34.90625 56 
Q 44.578125 56 49.625 51.796875 
Q 54.6875 47.609375 54.6875 39.59375 
Q 54.6875 37.984375 54.4375 35.8125 
Q 54.203125 33.640625 53.71875 31.203125 
z
M 44 27.484375 
L 35.015625 27.484375 
Q 23.96875 27.484375 18.671875 24.53125 
Q 13.375 21.578125 13.375 15.375 
Q 13.375 11.078125 16.078125 8.640625 
Q 18.796875 6.203125 23.578125 6.203125 
Q 30.90625 6.203125 36.375 11.453125 
Q 41.84375 16.703125 43.609375 25.484375 
z
" id="DejaVuSans-Oblique-97"/>
      <path d="M 10.59375 45.40625 
L 73.1875 45.40625 
L 73.1875 37.203125 
L 10.59375 37.203125 
z
M 10.59375 25.484375 
L 73.1875 25.484375 
L 73.1875 17.1875 
L 10.59375 17.1875 
z
" id="DejaVuSans-61"/>
      <path d="M 11.71875 12.40625 
L 22.015625 12.40625 
L 22.015625 4 
L 14.015625 -11.625 
L 7.71875 -11.625 
L 11.71875 4 
z
" id="DejaVuSans-44"/>
      <path id="DejaVuSans-32"/>
      <path d="M 19.734375 29.5 
Q 14.453125 30.671875 12.15625 33.84375 
Q 10.453125 36.078125 10.453125 39.109375 
Q 10.453125 47.40625 18.359375 52.25 
Q 24.609375 56.0625 34.1875 56.0625 
Q 37.890625 56.0625 41.9375 55.46875 
Q 46 54.890625 50.53125 53.71875 
L 48.96875 45.5625 
Q 44.484375 46.96875 40.71875 47.609375 
Q 36.859375 48.25 33.40625 48.25 
Q 27.59375 48.25 23.78125 46 
Q 19.1875 43.3125 19.1875 39.40625 
Q 19.1875 36.8125 21.578125 35.015625 
Q 24.421875 32.859375 30.078125 32.859375 
L 37.640625 32.859375 
L 36.234375 25.4375 
L 29 25.4375 
Q 22.265625 25.4375 18.3125 22.953125 
Q 12.9375 19.578125 12.9375 14.3125 
Q 12.9375 10.984375 15.828125 8.796875 
Q 19.4375 6.0625 26.8125 6.0625 
Q 31.34375 6.0625 35.6875 6.9375 
Q 40.046875 7.859375 43.84375 9.671875 
L 42.1875 1.3125 
Q 37.546875 -0.046875 33.296875 -0.734375 
Q 29.046875 -1.421875 25.140625 -1.421875 
Q 13.53125 -1.421875 8.0625 3.03125 
Q 3.90625 6.453125 3.90625 12.203125 
Q 3.90625 19.96875 9.375 24.75 
Q 13.421875 28.328125 19.734375 29.5 
z
" id="DejaVuSans-Oblique-949"/>
      <path d="M 55.71875 33.015625 
L 49.3125 0 
L 40.28125 0 
L 46.6875 32.671875 
Q 47.125 34.96875 47.359375 36.71875 
Q 47.609375 38.484375 47.609375 39.5 
Q 47.609375 43.609375 45.015625 45.890625 
Q 42.4375 48.1875 37.796875 48.1875 
Q 30.5625 48.1875 25.34375 43.375 
Q 20.125 38.578125 18.5 30.328125 
L 12.5 0 
L 3.515625 0 
L 14.109375 54.6875 
L 23.09375 54.6875 
L 21.296875 46.09375 
Q 25.046875 50.828125 30.3125 53.40625 
Q 35.59375 56 41.40625 56 
Q 48.640625 56 52.609375 52.09375 
Q 56.59375 48.1875 56.59375 41.109375 
Q 56.59375 39.359375 56.375 37.359375 
Q 56.15625 35.359375 55.71875 33.015625 
z
" id="DejaVuSans-Oblique-110"/>
      <path d="M 44.578125 46.390625 
Q 43.21875 47.125 41.453125 47.515625 
Q 39.703125 47.90625 37.703125 47.90625 
Q 30.515625 47.90625 25.140625 42.453125 
Q 19.78125 37.015625 18.015625 27.875 
L 12.5 0 
L 3.515625 0 
L 14.203125 54.6875 
L 23.1875 54.6875 
L 21.484375 46.1875 
Q 25.046875 50.921875 30 53.453125 
Q 34.96875 56 40.578125 56 
Q 42.046875 56 43.453125 55.828125 
Q 44.875 55.671875 46.296875 55.28125 
z
" id="DejaVuSans-Oblique-114"/>
      <path d="M 48.09375 32.234375 
Q 48.25 33.015625 48.3125 33.84375 
Q 48.390625 34.671875 48.390625 35.5 
Q 48.390625 41.453125 44.890625 44.921875 
Q 41.40625 48.390625 35.40625 48.390625 
Q 28.71875 48.390625 23.578125 44.15625 
Q 18.453125 39.9375 15.828125 32.171875 
z
M 55.90625 25.203125 
L 14.109375 25.203125 
Q 13.8125 23.34375 13.71875 22.265625 
Q 13.625 21.1875 13.625 20.40625 
Q 13.625 13.625 17.796875 9.90625 
Q 21.96875 6.203125 29.59375 6.203125 
Q 35.453125 6.203125 40.671875 7.515625 
Q 45.90625 8.84375 50.390625 11.375 
L 48.6875 2.484375 
Q 43.84375 0.53125 38.6875 -0.4375 
Q 33.546875 -1.421875 28.21875 -1.421875 
Q 16.84375 -1.421875 10.71875 4.015625 
Q 4.59375 9.46875 4.59375 19.484375 
Q 4.59375 28.03125 7.640625 35.375 
Q 10.6875 42.71875 16.609375 48.484375 
Q 20.40625 52.09375 25.65625 54.046875 
Q 30.90625 56 36.8125 56 
Q 46.09375 56 51.578125 50.4375 
Q 57.078125 44.875 57.078125 35.5 
Q 57.078125 33.25 56.78125 30.6875 
Q 56.5 28.125 55.90625 25.203125 
z
" id="DejaVuSans-Oblique-101"/>
      <path d="M 10.984375 1.515625 
L 10.984375 10.5 
Q 14.703125 8.734375 18.5 7.8125 
Q 22.3125 6.890625 25.984375 6.890625 
Q 35.75 6.890625 40.890625 13.453125 
Q 46.046875 20.015625 46.78125 33.40625 
Q 43.953125 29.203125 39.59375 26.953125 
Q 35.25 24.703125 29.984375 24.703125 
Q 19.046875 24.703125 12.671875 31.3125 
Q 6.296875 37.9375 6.296875 49.421875 
Q 6.296875 60.640625 12.9375 67.421875 
Q 19.578125 74.21875 30.609375 74.21875 
Q 43.265625 74.21875 49.921875 64.515625 
Q 56.59375 54.828125 56.59375 36.375 
Q 56.59375 19.140625 48.40625 8.859375 
Q 40.234375 -1.421875 26.421875 -1.421875 
Q 22.703125 -1.421875 18.890625 -0.6875 
Q 15.09375 0.046875 10.984375 1.515625 
z
M 30.609375 32.421875 
Q 37.25 32.421875 41.125 36.953125 
Q 45.015625 41.5 45.015625 49.421875 
Q 45.015625 57.28125 41.125 61.84375 
Q 37.25 66.40625 30.609375 66.40625 
Q 23.96875 66.40625 20.09375 61.84375 
Q 16.21875 57.28125 16.21875 49.421875 
Q 16.21875 41.5 20.09375 36.953125 
Q 23.96875 32.421875 30.609375 32.421875 
z
" id="DejaVuSans-57"/>
     </defs>
     <use transform="translate(0 0.015625)" xlink:href="#DejaVuSans-Oblique-107"/>
     <use transform="translate(57.910156 0.015625)" xlink:href="#DejaVuSans-Oblique-97"/>
     <use transform="translate(138.671875 0.015625)" xlink:href="#DejaVuSans-61"/>
     <use transform="translate(241.943359 0.015625)" xlink:href="#DejaVuSans-54"/>
     <use transform="translate(305.566406 0.015625)" xlink:href="#DejaVuSans-48"/>
     <use transform="translate(369.189453 0.015625)" xlink:href="#DejaVuSans-46"/>
     <use transform="translate(400.976562 0.015625)" xlink:href="#DejaVuSans-48"/>
     <use transform="translate(464.599609 0.015625)" xlink:href="#DejaVuSans-44"/>
     <use transform="translate(496.386719 0.015625)" xlink:href="#DejaVuSans-32"/>
     <use transform="translate(528.173828 0.015625)" xlink:href="#DejaVuSans-Oblique-949"/>
     <use transform="translate(601.708984 0.015625)" xlink:href="#DejaVuSans-61"/>
     <use transform="translate(704.980469 0.015625)" xlink:href="#DejaVuSans-48"/>
     <use transform="translate(768.603516 0.015625)" xlink:href="#DejaVuSans-46"/>
     <use transform="translate(800.390625 0.015625)" xlink:href="#DejaVuSans-49"/>
     <use transform="translate(864.013672 0.015625)" xlink:href="#DejaVuSans-48"/>
     <use transform="translate(927.636719 0.015625)" xlink:href="#DejaVuSans-44"/>
     <use transform="translate(959.423828 0.015625)" xlink:href="#DejaVuSans-32"/>
     <use transform="translate(991.210938 0.015625)" xlink:href="#DejaVuSans-Oblique-110"/>
     <use transform="translate(1054.589844 -16.390625)scale(0.7)" xlink:href="#DejaVuSans-Oblique-114"/>
     <use transform="translate(1083.369141 -16.390625)scale(0.7)" xlink:href="#DejaVuSans-Oblique-101"/>
     <use transform="translate(1126.435547 -16.390625)scale(0.7)" xlink:href="#DejaVuSans-Oblique-102"/>
     <use transform="translate(1173.295898 0.015625)" xlink:href="#DejaVuSans-61"/>
     <use transform="translate(1276.567383 0.015625)" xlink:href="#DejaVuSans-49"/>
     <use transform="translate(1340.19043 0.015625)" xlink:href="#DejaVuSans-46"/>
     <use transform="translate(1371.977539 0.015625)" xlink:href="#DejaVuSans-48"/>
     <use transform="translate(1435.600586 0.015625)" xlink:href="#DejaVuSans-52"/>
     <use transform="translate(1499.223633 0.015625)" xlink:href="#DejaVuSans-57"/>
    </g>
   </g>
   <g id="legend_1">
    <g id="patch_7">
     <path d="M 565.5125 160.76875 
L 684.4 160.76875 
Q 688.4 160.76875 688.4 156.76875 
L 688.4 70.7 
Q 688.4 66.7 684.4 66.7 
L 565.5125 66.7 
Q 561.5125 66.7 561.5125 70.7 
L 561.5125 156.76875 
Q 561.5125 160.76875 565.5125 160.76875 
z
" style="fill:#ffffff;opacity:0.8;stroke:#cccccc;stroke-linejoin:miter;"/>
    </g>
    <g id="line2d_32">
     <path d="M 569.5125 82.896875 
L 609.5125 82.896875 
" style="fill:none;stroke:#000000;stroke-linecap:square;stroke-width:2;"/>
    </g>
    <g id="line2d_33"/>
    <g id="text_18">
     <!-- exact -->
     <g transform="translate(625.5125 89.896875)scale(0.2 -0.2)">
      <defs>
       <path d="M 56.203125 29.59375 
L 56.203125 25.203125 
L 14.890625 25.203125 
Q 15.484375 15.921875 20.484375 11.0625 
Q 25.484375 6.203125 34.421875 6.203125 
Q 39.59375 6.203125 44.453125 7.46875 
Q 49.3125 8.734375 54.109375 11.28125 
L 54.109375 2.78125 
Q 49.265625 0.734375 44.1875 -0.34375 
Q 39.109375 -1.421875 33.890625 -1.421875 
Q 20.796875 -1.421875 13.15625 6.1875 
Q 5.515625 13.8125 5.515625 26.8125 
Q 5.515625 40.234375 12.765625 48.109375 
Q 20.015625 56 32.328125 56 
Q 43.359375 56 49.78125 48.890625 
Q 56.203125 41.796875 56.203125 29.59375 
z
M 47.21875 32.234375 
Q 47.125 39.59375 43.09375 43.984375 
Q 39.0625 48.390625 32.421875 48.390625 
Q 24.90625 48.390625 20.390625 44.140625 
Q 15.875 39.890625 15.1875 32.171875 
z
" id="DejaVuSans-101"/>
       <path d="M 54.890625 54.6875 
L 35.109375 28.078125 
L 55.90625 0 
L 45.3125 0 
L 29.390625 21.484375 
L 13.484375 0 
L 2.875 0 
L 24.125 28.609375 
L 4.6875 54.6875 
L 15.28125 54.6875 
L 29.78125 35.203125 
L 44.28125 54.6875 
z
" id="DejaVuSans-120"/>
       <path d="M 34.28125 27.484375 
Q 23.390625 27.484375 19.1875 25 
Q 14.984375 22.515625 14.984375 16.5 
Q 14.984375 11.71875 18.140625 8.90625 
Q 21.296875 6.109375 26.703125 6.109375 
Q 34.1875 6.109375 38.703125 11.40625 
Q 43.21875 16.703125 43.21875 25.484375 
L 43.21875 27.484375 
z
M 52.203125 31.203125 
L 52.203125 0 
L 43.21875 0 
L 43.21875 8.296875 
Q 40.140625 3.328125 35.546875 0.953125 
Q 30.953125 -1.421875 24.3125 -1.421875 
Q 15.921875 -1.421875 10.953125 3.296875 
Q 6 8.015625 6 15.921875 
Q 6 25.140625 12.171875 29.828125 
Q 18.359375 34.515625 30.609375 34.515625 
L 43.21875 34.515625 
L 43.21875 35.40625 
Q 43.21875 41.609375 39.140625 45 
Q 35.0625 48.390625 27.6875 48.390625 
Q 23 48.390625 18.546875 47.265625 
Q 14.109375 46.140625 10.015625 43.890625 
L 10.015625 52.203125 
Q 14.9375 54.109375 19.578125 55.046875 
Q 24.21875 56 28.609375 56 
Q 40.484375 56 46.34375 49.84375 
Q 52.203125 43.703125 52.203125 31.203125 
z
" id="DejaVuSans-97"/>
       <path d="M 48.78125 52.59375 
L 48.78125 44.1875 
Q 44.96875 46.296875 41.140625 47.34375 
Q 37.3125 48.390625 33.40625 48.390625 
Q 24.65625 48.390625 19.8125 42.84375 
Q 14.984375 37.3125 14.984375 27.296875 
Q 14.984375 17.28125 19.8125 11.734375 
Q 24.65625 6.203125 33.40625 6.203125 
Q 37.3125 6.203125 41.140625 7.25 
Q 44.96875 8.296875 48.78125 10.40625 
L 48.78125 2.09375 
Q 45.015625 0.34375 40.984375 -0.53125 
Q 36.96875 -1.421875 32.421875 -1.421875 
Q 20.0625 -1.421875 12.78125 6.34375 
Q 5.515625 14.109375 5.515625 27.296875 
Q 5.515625 40.671875 12.859375 48.328125 
Q 20.21875 56 33.015625 56 
Q 37.15625 56 41.109375 55.140625 
Q 45.0625 54.296875 48.78125 52.59375 
z
" id="DejaVuSans-99"/>
       <path d="M 18.3125 70.21875 
L 18.3125 54.6875 
L 36.8125 54.6875 
L 36.8125 47.703125 
L 18.3125 47.703125 
L 18.3125 18.015625 
Q 18.3125 11.328125 20.140625 9.421875 
Q 21.96875 7.515625 27.59375 7.515625 
L 36.8125 7.515625 
L 36.8125 0 
L 27.59375 0 
Q 17.1875 0 13.234375 3.875 
Q 9.28125 7.765625 9.28125 18.015625 
L 9.28125 47.703125 
L 2.6875 47.703125 
L 2.6875 54.6875 
L 9.28125 54.6875 
L 9.28125 70.21875 
z
" id="DejaVuSans-116"/>
      </defs>
      <use xlink:href="#DejaVuSans-101"/>
      <use x="59.773438" xlink:href="#DejaVuSans-120"/>
      <use x="118.953125" xlink:href="#DejaVuSans-97"/>
      <use x="180.232422" xlink:href="#DejaVuSans-99"/>
      <use x="235.212891" xlink:href="#DejaVuSans-116"/>
     </g>
    </g>
    <g id="line2d_34">
     <path d="M 569.5125 112.253125 
L 609.5125 112.253125 
" style="fill:none;stroke:#ff0000;stroke-dasharray:7.4,3.2;stroke-dashoffset:0;stroke-width:2;"/>
    </g>
    <g id="line2d_35"/>
    <g id="text_19">
     <!-- MS -->
     <g transform="translate(625.5125 119.253125)scale(0.2 -0.2)">
      <defs>
       <path d="M 9.8125 72.90625 
L 24.515625 72.90625 
L 43.109375 23.296875 
L 61.8125 72.90625 
L 76.515625 72.90625 
L 76.515625 0 
L 66.890625 0 
L 66.890625 64.015625 
L 48.09375 14.015625 
L 38.1875 14.015625 
L 19.390625 64.015625 
L 19.390625 0 
L 9.8125 0 
z
" id="DejaVuSans-77"/>
       <path d="M 53.515625 70.515625 
L 53.515625 60.890625 
Q 47.90625 63.578125 42.921875 64.890625 
Q 37.9375 66.21875 33.296875 66.21875 
Q 25.25 66.21875 20.875 63.09375 
Q 16.5 59.96875 16.5 54.203125 
Q 16.5 49.359375 19.40625 46.890625 
Q 22.3125 44.4375 30.421875 42.921875 
L 36.375 41.703125 
Q 47.40625 39.59375 52.65625 34.296875 
Q 57.90625 29 57.90625 20.125 
Q 57.90625 9.515625 50.796875 4.046875 
Q 43.703125 -1.421875 29.984375 -1.421875 
Q 24.8125 -1.421875 18.96875 -0.25 
Q 13.140625 0.921875 6.890625 3.21875 
L 6.890625 13.375 
Q 12.890625 10.015625 18.65625 8.296875 
Q 24.421875 6.59375 29.984375 6.59375 
Q 38.421875 6.59375 43.015625 9.90625 
Q 47.609375 13.234375 47.609375 19.390625 
Q 47.609375 24.75 44.3125 27.78125 
Q 41.015625 30.8125 33.5 32.328125 
L 27.484375 33.5 
Q 16.453125 35.6875 11.515625 40.375 
Q 6.59375 45.0625 6.59375 53.421875 
Q 6.59375 63.09375 13.40625 68.65625 
Q 20.21875 74.21875 32.171875 74.21875 
Q 37.3125 74.21875 42.625 73.28125 
Q 47.953125 72.359375 53.515625 70.515625 
z
" id="DejaVuSans-83"/>
      </defs>
      <use xlink:href="#DejaVuSans-77"/>
      <use x="86.279297" xlink:href="#DejaVuSans-83"/>
     </g>
    </g>
    <g id="line2d_36">
     <path d="M 569.5125 141.609375 
L 609.5125 141.609375 
" style="fill:none;stroke:#0000ff;stroke-dasharray:12.8,3.2,2,3.2;stroke-dashoffset:0;stroke-width:2;"/>
    </g>
    <g id="line2d_37"/>
    <g id="text_20">
     <!-- Born -->
     <g transform="translate(625.5125 148.609375)scale(0.2 -0.2)">
      <defs>
       <path d="M 19.671875 34.8125 
L 19.671875 8.109375 
L 35.5 8.109375 
Q 43.453125 8.109375 47.28125 11.40625 
Q 51.125 14.703125 51.125 21.484375 
Q 51.125 28.328125 47.28125 31.5625 
Q 43.453125 34.8125 35.5 34.8125 
z
M 19.671875 64.796875 
L 19.671875 42.828125 
L 34.28125 42.828125 
Q 41.5 42.828125 45.03125 45.53125 
Q 48.578125 48.25 48.578125 53.8125 
Q 48.578125 59.328125 45.03125 62.0625 
Q 41.5 64.796875 34.28125 64.796875 
z
M 9.8125 72.90625 
L 35.015625 72.90625 
Q 46.296875 72.90625 52.390625 68.21875 
Q 58.5 63.53125 58.5 54.890625 
Q 58.5 48.1875 55.375 44.234375 
Q 52.25 40.28125 46.1875 39.3125 
Q 53.46875 37.75 57.5 32.78125 
Q 61.53125 27.828125 61.53125 20.40625 
Q 61.53125 10.640625 54.890625 5.3125 
Q 48.25 0 35.984375 0 
L 9.8125 0 
z
" id="DejaVuSans-66"/>
       <path d="M 30.609375 48.390625 
Q 23.390625 48.390625 19.1875 42.75 
Q 14.984375 37.109375 14.984375 27.296875 
Q 14.984375 17.484375 19.15625 11.84375 
Q 23.34375 6.203125 30.609375 6.203125 
Q 37.796875 6.203125 41.984375 11.859375 
Q 46.1875 17.53125 46.1875 27.296875 
Q 46.1875 37.015625 41.984375 42.703125 
Q 37.796875 48.390625 30.609375 48.390625 
z
M 30.609375 56 
Q 42.328125 56 49.015625 48.375 
Q 55.71875 40.765625 55.71875 27.296875 
Q 55.71875 13.875 49.015625 6.21875 
Q 42.328125 -1.421875 30.609375 -1.421875 
Q 18.84375 -1.421875 12.171875 6.21875 
Q 5.515625 13.875 5.515625 27.296875 
Q 5.515625 40.765625 12.171875 48.375 
Q 18.84375 56 30.609375 56 
z
" id="DejaVuSans-111"/>
       <path d="M 41.109375 46.296875 
Q 39.59375 47.171875 37.8125 47.578125 
Q 36.03125 48 33.890625 48 
Q 26.265625 48 22.1875 43.046875 
Q 18.109375 38.09375 18.109375 28.8125 
L 18.109375 0 
L 9.078125 0 
L 9.078125 54.6875 
L 18.109375 54.6875 
L 18.109375 46.1875 
Q 20.953125 51.171875 25.484375 53.578125 
Q 30.03125 56 36.53125 56 
Q 37.453125 56 38.578125 55.875 
Q 39.703125 55.765625 41.0625 55.515625 
z
" id="DejaVuSans-114"/>
       <path d="M 54.890625 33.015625 
L 54.890625 0 
L 45.90625 0 
L 45.90625 32.71875 
Q 45.90625 40.484375 42.875 44.328125 
Q 39.84375 48.1875 33.796875 48.1875 
Q 26.515625 48.1875 22.3125 43.546875 
Q 18.109375 38.921875 18.109375 30.90625 
L 18.109375 0 
L 9.078125 0 
L 9.078125 54.6875 
L 18.109375 54.6875 
L 18.109375 46.1875 
Q 21.34375 51.125 25.703125 53.5625 
Q 30.078125 56 35.796875 56 
Q 45.21875 56 50.046875 50.171875 
Q 54.890625 44.34375 54.890625 33.015625 
z
" id="DejaVuSans-110"/>
      </defs>
      <use xlink:href="#DejaVuSans-66"/>
      <use x="68.603516" xlink:href="#DejaVuSans-111"/>
      <use x="129.785156" xlink:href="#DejaVuSans-114"/>
      <use x="169.148438" xlink:href="#DejaVuSans-110"/>
     </g>
    </g>
   </g>
  </g>
 </g>
 <defs>
  <clipPath id="p1e0aa7a2ad">
   <rect height="664.2" width="590.4" x="108" y="56.7"/>
  </clipPath>
 </defs>
</svg>
