<?xml version="1.0" encoding="utf-8" standalone="no"?>
<!DOCTYPE svg PUBLIC "-//W3C//DTD SVG 1.1//EN"
  "http://www.w3.org/Graphics/SVG/1.1/DTD/svg11.dtd">
<!-- Created with matplotlib (https://matplotlib.org/) -->
<svg height="810pt" version="1.1" viewBox="0 0 720 810" width="720pt" xmlns="http://www.w3.org/2000/svg" xmlns:xlink="http://www.w3.org/1999/xlink">
 <metadata>
  <rdf:RDF xmlns:cc="http://creativecommons.org/ns#" xmlns:dc="http://purl.org/dc/elements/1.1/" xmlns:rdf="http://www.w3.org/1999/02/22-rdf-syntax-ns#">
   <cc:Work>
    <dc:type rdf:resource="http://purl.org/dc/dcmitype/StillImage"/>
    <dc:date>2020-11-30T22:48:10.529521</dc:date>
    <dc:format>image/svg+xml</dc:format>
    <dc:creator>
     <cc:Agent>
      <dc:title>Matplotlib v3.3.1, https://matplotlib.org/</dc:title>
     </cc:Agent>
    </dc:creator>
   </cc:Work>
  </rdf:RDF>
 </metadata>
 <defs>
  <style type="text/css">*{stroke-linecap:butt;stroke-linejoin:round;}</style>
 </defs>
 <g id="figure_1">
  <g id="patch_1">
   <path d="M 0 810 
L 720 810 
L 720 0 
L 0 0 
z
" style="fill:#ffffff;"/>
  </g>
  <g id="axes_1">
   <g id="patch_2">
    <path d="M 108 720.9 
L 698.4 720.9 
L 698.4 56.7 
L 108 56.7 
z
" style="fill:#ffffff;"/>
   </g>
   <g id="matplotlib.axis_1">
    <g id="xtick_1">
     <g id="line2d_1">
      <path clip-path="url(#p34dfca1cc0)" d="M 142.407751 720.9 
L 142.407751 56.7 
" style="fill:none;stroke:#e6e6e6;stroke-linecap:square;stroke-width:0.8;"/>
     </g>
     <g id="line2d_2">
      <defs>
       <path d="M 0 0 
L 0 -3.5 
" id="mfc52403607" style="stroke:#000000;stroke-width:0.8;"/>
      </defs>
      <g>
       <use style="stroke:#000000;stroke-width:0.8;" x="142.407751" xlink:href="#mfc52403607" y="720.9"/>
      </g>
     </g>
     <g id="text_1">
      <!-- $\mathdefault{0.0}$ -->
      <g transform="translate(133.059225 734.777725)scale(0.15 -0.15)">
       <defs>
        <path d="M 42 31.640625 
C 42 37.75 41.90625 48.125 37.703125 56.109375 
C 34 63.109375 28.09375 65.59375 22.90625 65.59375 
C 18.09375 65.59375 12 63.40625 8.203125 56.203125 
C 4.203125 48.71875 3.796875 39.4375 3.796875 31.640625 
C 3.796875 25.953125 3.90625 17.28125 7 9.671875 
C 11.296875 -0.609375 19 -2 22.90625 -2 
C 27.5 -2 34.5 -0.109375 38.59375 9.375 
C 41.59375 16.28125 42 24.359375 42 31.640625 
z
M 22.90625 -0.40625 
C 16.5 -0.40625 12.703125 5.078125 11.296875 12.6875 
C 10.203125 18.5625 10.203125 27.15625 10.203125 32.75 
C 10.203125 40.4375 10.203125 46.828125 11.5 52.921875 
C 13.40625 61.390625 19 64 22.90625 64 
C 27 64 32.296875 61.296875 34.203125 53.125 
C 35.5 47.4375 35.59375 40.734375 35.59375 32.75 
C 35.59375 26.25 35.59375 18.265625 34.40625 12.375 
C 32.296875 1.484375 26.40625 -0.40625 22.90625 -0.40625 
z
" id="CMR17-48"/>
        <path d="M 18.40625 4.796875 
C 18.40625 7.6875 16 9.671875 13.59375 9.671875 
C 10.703125 9.671875 8.703125 7.28125 8.703125 4.890625 
C 8.703125 2 11.09375 0 13.5 0 
C 16.40625 0 18.40625 2.390625 18.40625 4.796875 
z
" id="CMMI12-58"/>
       </defs>
       <use transform="scale(0.996264)" xlink:href="#CMR17-48"/>
       <use transform="translate(45.690477 0)scale(0.996264)" xlink:href="#CMMI12-58"/>
       <use transform="translate(72.787654 0)scale(0.996264)" xlink:href="#CMR17-48"/>
      </g>
     </g>
    </g>
    <g id="xtick_2">
     <g id="line2d_3">
      <path clip-path="url(#p34dfca1cc0)" d="M 226.534283 720.9 
L 226.534283 56.7 
" style="fill:none;stroke:#e6e6e6;stroke-linecap:square;stroke-width:0.8;"/>
     </g>
     <g id="line2d_4">
      <g>
       <use style="stroke:#000000;stroke-width:0.8;" x="226.534283" xlink:href="#mfc52403607" y="720.9"/>
      </g>
     </g>
     <g id="text_2">
      <!-- $\mathdefault{0.5}$ -->
      <g transform="translate(217.185757 734.777725)scale(0.15 -0.15)">
       <defs>
        <path d="M 11.40625 57.6875 
C 12.40625 57.28125 16.5 56 20.703125 56 
C 30 56 35.09375 61.109375 38 64.0625 
C 38 64.953125 38 65.5 37.40625 65.5 
C 37.296875 65.5 37.09375 65.5 36.296875 65.046875 
C 32.796875 63.40625 28.703125 62.078125 23.703125 62.078125 
C 20.703125 62.078125 16.203125 62.484375 11.296875 64.671875 
C 10.203125 65.171875 10 65.171875 9.90625 65.171875 
C 9.40625 65.171875 9.296875 65.0625 9.296875 63.078125 
L 9.296875 34.421875 
C 9.296875 32.640625 9.296875 32.140625 10.296875 32.140625 
C 10.796875 32.140625 11 32.34375 11.5 33.03125 
C 14.703125 37.515625 19.09375 39.40625 24.09375 39.40625 
C 27.59375 39.40625 35.09375 37.21875 35.09375 20.140625 
C 35.09375 16.953125 35.09375 11.171875 32.09375 6.578125 
C 29.59375 2.484375 25.703125 0.390625 21.40625 0.390625 
C 14.796875 0.390625 8.09375 5 6.296875 12.71875 
C 6.703125 12.609375 7.5 12.421875 7.90625 12.421875 
C 9.203125 12.421875 11.703125 13.125 11.703125 16.21875 
C 11.703125 18.90625 9.796875 20 7.90625 20 
C 5.59375 20 4.09375 18.59375 4.09375 15.796875 
C 4.09375 7.09375 11 -2 21.59375 -2 
C 31.90625 -2 41.703125 6.875 41.703125 19.75 
C 41.703125 31.71875 33.90625 41 24.203125 41 
C 19.09375 41 14.796875 39.109375 11.40625 35.53125 
z
" id="CMR17-53"/>
       </defs>
       <use transform="scale(0.996264)" xlink:href="#CMR17-48"/>
       <use transform="translate(45.690477 0)scale(0.996264)" xlink:href="#CMMI12-58"/>
       <use transform="translate(72.787654 0)scale(0.996264)" xlink:href="#CMR17-53"/>
      </g>
     </g>
    </g>
    <g id="xtick_3">
     <g id="line2d_5">
      <path clip-path="url(#p34dfca1cc0)" d="M 310.660815 720.9 
L 310.660815 56.7 
" style="fill:none;stroke:#e6e6e6;stroke-linecap:square;stroke-width:0.8;"/>
     </g>
     <g id="line2d_6">
      <g>
       <use style="stroke:#000000;stroke-width:0.8;" x="310.660815" xlink:href="#mfc52403607" y="720.9"/>
      </g>
     </g>
     <g id="text_3">
      <!-- $\mathdefault{1.0}$ -->
      <g transform="translate(301.312289 734.777725)scale(0.15 -0.15)">
       <defs>
        <path d="M 26.59375 63.40625 
C 26.59375 65.5 26.5 65.5 25.09375 65.5 
C 21.203125 61.1875 15.296875 59.796875 9.703125 59.796875 
C 9.40625 59.796875 8.90625 59.796875 8.796875 59.5 
C 8.703125 59.296875 8.703125 59.09375 8.703125 57 
C 11.796875 57 17 57.59375 21 59.984375 
L 21 7.203125 
C 21 3.6875 20.796875 2.5 12.203125 2.5 
L 9.203125 2.5 
L 9.203125 0 
C 14 0 19 0 23.796875 0 
C 28.59375 0 33.59375 0 38.40625 0 
L 38.40625 2.5 
L 35.40625 2.5 
C 26.796875 2.5 26.59375 3.59375 26.59375 7.15625 
z
" id="CMR17-49"/>
       </defs>
       <use transform="scale(0.996264)" xlink:href="#CMR17-49"/>
       <use transform="translate(45.690477 0)scale(0.996264)" xlink:href="#CMMI12-58"/>
       <use transform="translate(72.787654 0)scale(0.996264)" xlink:href="#CMR17-48"/>
      </g>
     </g>
    </g>
    <g id="xtick_4">
     <g id="line2d_7">
      <path clip-path="url(#p34dfca1cc0)" d="M 394.787347 720.9 
L 394.787347 56.7 
" style="fill:none;stroke:#e6e6e6;stroke-linecap:square;stroke-width:0.8;"/>
     </g>
     <g id="line2d_8">
      <g>
       <use style="stroke:#000000;stroke-width:0.8;" x="394.787347" xlink:href="#mfc52403607" y="720.9"/>
      </g>
     </g>
     <g id="text_4">
      <!-- $\mathdefault{1.5}$ -->
      <g transform="translate(385.438821 734.777725)scale(0.15 -0.15)">
       <use transform="scale(0.996264)" xlink:href="#CMR17-49"/>
       <use transform="translate(45.690477 0)scale(0.996264)" xlink:href="#CMMI12-58"/>
       <use transform="translate(72.787654 0)scale(0.996264)" xlink:href="#CMR17-53"/>
      </g>
     </g>
    </g>
    <g id="xtick_5">
     <g id="line2d_9">
      <path clip-path="url(#p34dfca1cc0)" d="M 478.913879 720.9 
L 478.913879 56.7 
" style="fill:none;stroke:#e6e6e6;stroke-linecap:square;stroke-width:0.8;"/>
     </g>
     <g id="line2d_10">
      <g>
       <use style="stroke:#000000;stroke-width:0.8;" x="478.913879" xlink:href="#mfc52403607" y="720.9"/>
      </g>
     </g>
     <g id="text_5">
      <!-- $\mathdefault{2.0}$ -->
      <g transform="translate(469.565353 734.777725)scale(0.15 -0.15)">
       <defs>
        <path d="M 41.703125 15.453125 
L 39.90625 15.453125 
C 38.90625 8.375 38.09375 7.171875 37.703125 6.5625 
C 37.203125 5.765625 30 5.765625 28.59375 5.765625 
L 9.40625 5.765625 
C 13 9.671875 20 16.75 28.5 24.953125 
C 34.59375 30.734375 41.703125 37.53125 41.703125 47.421875 
C 41.703125 59.21875 32.296875 66 21.796875 66 
C 10.796875 66 4.09375 56.3125 4.09375 47.34375 
C 4.09375 43.4375 7 42.9375 8.203125 42.9375 
C 9.203125 42.9375 12.203125 43.546875 12.203125 47.03125 
C 12.203125 50.109375 9.59375 51 8.203125 51 
C 7.59375 51 7 50.90625 6.59375 50.703125 
C 8.5 59.21875 14.296875 63.40625 20.40625 63.40625 
C 29.09375 63.40625 34.796875 56.515625 34.796875 47.421875 
C 34.796875 38.734375 29.703125 31.25 24 24.75 
L 4.09375 2.28125 
L 4.09375 0 
L 39.296875 0 
z
" id="CMR17-50"/>
       </defs>
       <use transform="scale(0.996264)" xlink:href="#CMR17-50"/>
       <use transform="translate(45.690477 0)scale(0.996264)" xlink:href="#CMMI12-58"/>
       <use transform="translate(72.787654 0)scale(0.996264)" xlink:href="#CMR17-48"/>
      </g>
     </g>
    </g>
    <g id="xtick_6">
     <g id="line2d_11">
      <path clip-path="url(#p34dfca1cc0)" d="M 563.04041 720.9 
L 563.04041 56.7 
" style="fill:none;stroke:#e6e6e6;stroke-linecap:square;stroke-width:0.8;"/>
     </g>
     <g id="line2d_12">
      <g>
       <use style="stroke:#000000;stroke-width:0.8;" x="563.04041" xlink:href="#mfc52403607" y="720.9"/>
      </g>
     </g>
     <g id="text_6">
      <!-- $\mathdefault{2.5}$ -->
      <g transform="translate(553.691884 734.777725)scale(0.15 -0.15)">
       <use transform="scale(0.996264)" xlink:href="#CMR17-50"/>
       <use transform="translate(45.690477 0)scale(0.996264)" xlink:href="#CMMI12-58"/>
       <use transform="translate(72.787654 0)scale(0.996264)" xlink:href="#CMR17-53"/>
      </g>
     </g>
    </g>
    <g id="xtick_7">
     <g id="line2d_13">
      <path clip-path="url(#p34dfca1cc0)" d="M 647.166942 720.9 
L 647.166942 56.7 
" style="fill:none;stroke:#e6e6e6;stroke-linecap:square;stroke-width:0.8;"/>
     </g>
     <g id="line2d_14">
      <g>
       <use style="stroke:#000000;stroke-width:0.8;" x="647.166942" xlink:href="#mfc52403607" y="720.9"/>
      </g>
     </g>
     <g id="text_7">
      <!-- $\mathdefault{3.0}$ -->
      <g transform="translate(637.818416 734.777725)scale(0.15 -0.15)">
       <defs>
        <path d="M 22.09375 33.703125 
C 31 33.703125 34.90625 25.96875 34.90625 17.03125 
C 34.90625 5 28.5 0.390625 22.703125 0.390625 
C 17.40625 0.390625 8.796875 3.03125 6.09375 10.828125 
C 6.59375 10.625 7.09375 10.625 7.59375 10.625 
C 10 10.625 11.796875 12.21875 11.796875 14.8125 
C 11.796875 17.703125 9.59375 19 7.59375 19 
C 5.90625 19 3.296875 18.203125 3.296875 14.46875 
C 3.296875 5.234375 12.296875 -2 22.90625 -2 
C 34 -2 42.5 6.71875 42.5 16.953125 
C 42.5 26.671875 34.5 33.703125 25 34.796875 
C 32.59375 36.375 39.90625 43.0625 39.90625 52.015625 
C 39.90625 59.6875 32 65.296875 23 65.296875 
C 13.90625 65.296875 5.90625 59.828125 5.90625 52.015625 
C 5.90625 48.59375 8.5 48 9.796875 48 
C 11.90625 48 13.703125 49.296875 13.703125 51.890625 
C 13.703125 54.46875 11.90625 55.765625 9.796875 55.765625 
C 9.40625 55.765625 8.90625 55.765625 8.5 55.578125 
C 11.40625 61.859375 19.296875 63 22.796875 63 
C 26.296875 63 32.90625 61.328125 32.90625 51.875 
C 32.90625 49.109375 32.5 44.1875 29.09375 39.84375 
C 26.09375 36 22.703125 36 19.40625 35.6875 
C 18.90625 35.6875 16.59375 35.453125 16.203125 35.453125 
C 15.5 35.359375 15.09375 35.265625 15.09375 34.5 
C 15.09375 33.796875 15.203125 33.703125 17.203125 33.703125 
z
" id="CMR17-51"/>
       </defs>
       <use transform="scale(0.996264)" xlink:href="#CMR17-51"/>
       <use transform="translate(45.690477 0)scale(0.996264)" xlink:href="#CMMI12-58"/>
       <use transform="translate(72.787654 0)scale(0.996264)" xlink:href="#CMR17-48"/>
      </g>
     </g>
    </g>
    <g id="text_8">
     <!-- $ka$ -->
     <g transform="translate(390.039133 758.979723)scale(0.25 -0.25)">
      <defs>
       <path d="M 28.09375 66.515625 
C 28.203125 66.921875 28.40625 67.515625 28.40625 68 
C 28.40625 69 27.40625 69 27.203125 69 
C 27.09375 69 23.5 68.640625 21.703125 68.390625 
C 20 68.390625 18.5 68.09375 16.703125 68.09375 
C 14.296875 67.890625 13.59375 67.796875 13.59375 66 
C 13.59375 65 14.59375 65 15.59375 65 
C 20.703125 65 20.703125 64.109375 20.703125 63.125 
C 20.703125 62.734375 20.703125 62.53125 20.203125 60.75 
L 5.90625 3.875 
C 5.5 2.375 5.5 2.1875 5.5 1.578125 
C 5.5 -0.59375 7.203125 -1 8.203125 -1 
C 11 -1 11.59375 1.203125 12.40625 4.296875 
L 17.09375 22.953125 
C 24.296875 22.15625 28.59375 19.15625 28.59375 14.375 
C 28.59375 13.765625 28.59375 13.375 28.296875 11.875 
C 27.90625 10.375 27.90625 9.1875 27.90625 8.6875 
C 27.90625 2.890625 31.703125 -1 36.796875 -1 
C 41.40625 -1 43.796875 3.1875 44.59375 4.59375 
C 46.703125 8.28125 48 13.875 48 14.265625 
C 48 14.765625 47.59375 15.171875 47 15.171875 
C 46.09375 15.171875 46 14.765625 45.59375 13.171875 
C 44.203125 7.984375 42.09375 1 37 1 
C 35 1 33.703125 2 33.703125 5.78125 
C 33.703125 7.6875 34.09375 9.875 34.5 11.375 
C 34.90625 13.171875 34.90625 13.265625 34.90625 14.46875 
C 34.90625 20.359375 29.59375 23.65625 20.40625 24.84375 
C 24 27.046875 27.59375 30.9375 29 32.4375 
C 34.703125 38.8125 38.59375 42.015625 43.203125 42.015625 
C 45.5 42.015625 46.09375 41.40625 46.796875 40.8125 
C 43.09375 40.40625 41.703125 37.8125 41.703125 35.828125 
C 41.703125 33.421875 43.59375 32.625 45 32.625 
C 47.703125 32.625 50.09375 34.921875 50.09375 38.125 
C 50.09375 41.015625 47.796875 44 43.296875 44 
C 37.796875 44 33.296875 40.109375 26.203125 32.125 
C 25.203125 30.9375 21.5 27.140625 17.796875 25.75 
z
" id="CMMI12-107"/>
       <path d="M 30.09375 11.875 
C 29.59375 10.171875 29.59375 9.984375 28.203125 8.078125 
C 26 5.28125 21.59375 1 16.90625 1 
C 12.796875 1 10.5 4.6875 10.5 10.578125 
C 10.5 16.0625 13.59375 27.234375 15.5 31.4375 
C 18.90625 38.421875 23.59375 42.015625 27.5 42.015625 
C 34.09375 42.015625 35.40625 33.828125 35.40625 33.03125 
C 35.40625 32.9375 35.09375 31.625 35 31.4375 
z
M 36.5 37.421875 
C 35.40625 40.015625 32.703125 44 27.5 44 
C 16.203125 44 4 29.4375 4 14.671875 
C 4 4.796875 9.796875 -1 16.59375 -1 
C 22.09375 -1 26.796875 3.296875 29.59375 6.59375 
C 30.59375 0.703125 35.296875 -1 38.296875 -1 
C 41.296875 -1 43.703125 0.796875 45.5 4.390625 
C 47.09375 7.78125 48.5 13.875 48.5 14.265625 
C 48.5 14.765625 48.09375 15.171875 47.5 15.171875 
C 46.59375 15.171875 46.5 14.671875 46.09375 13.171875 
C 44.59375 7.28125 42.703125 1 38.59375 1 
C 35.703125 1 35.5 3.59375 35.5 5.59375 
C 35.5 7.890625 35.796875 8.984375 36.703125 12.875 
C 37.40625 15.375 37.90625 17.5625 38.703125 20.453125 
C 42.40625 35.421875 43.296875 39.015625 43.296875 39.609375 
C 43.296875 41.015625 42.203125 42.109375 40.703125 42.109375 
C 37.5 42.109375 36.703125 38.625 36.5 37.421875 
z
" id="CMMI12-97"/>
      </defs>
      <use transform="scale(0.996264)" xlink:href="#CMMI12-107"/>
      <use transform="translate(54.079201 0)scale(0.996264)" xlink:href="#CMMI12-97"/>
     </g>
    </g>
   </g>
   <g id="matplotlib.axis_2">
    <g id="ytick_1">
     <g id="line2d_15">
      <path clip-path="url(#p34dfca1cc0)" d="M 108 663.262881 
L 698.4 663.262881 
" style="fill:none;stroke:#e6e6e6;stroke-linecap:square;stroke-width:0.8;"/>
     </g>
     <g id="line2d_16">
      <defs>
       <path d="M 0 0 
L 3.5 0 
" id="ma8c0d836ce" style="stroke:#000000;stroke-width:0.8;"/>
      </defs>
      <g>
       <use style="stroke:#000000;stroke-width:0.8;" x="108" xlink:href="#ma8c0d836ce" y="663.262881"/>
      </g>
     </g>
     <g id="text_9">
      <!-- $\mathdefault{0}$ -->
      <g transform="translate(97.183762 668.451744)scale(0.15 -0.15)">
       <use transform="scale(0.996264)" xlink:href="#CMR17-48"/>
      </g>
     </g>
    </g>
    <g id="ytick_2">
     <g id="line2d_17">
      <path clip-path="url(#p34dfca1cc0)" d="M 108 546.827894 
L 698.4 546.827894 
" style="fill:none;stroke:#e6e6e6;stroke-linecap:square;stroke-width:0.8;"/>
     </g>
     <g id="line2d_18">
      <g>
       <use style="stroke:#000000;stroke-width:0.8;" x="108" xlink:href="#ma8c0d836ce" y="546.827894"/>
      </g>
     </g>
     <g id="text_10">
      <!-- $\mathdefault{10}$ -->
      <g transform="translate(89.867524 552.016756)scale(0.15 -0.15)">
       <use transform="scale(0.996264)" xlink:href="#CMR17-49"/>
       <use transform="translate(45.690477 0)scale(0.996264)" xlink:href="#CMR17-48"/>
      </g>
     </g>
    </g>
    <g id="ytick_3">
     <g id="line2d_19">
      <path clip-path="url(#p34dfca1cc0)" d="M 108 430.392906 
L 698.4 430.392906 
" style="fill:none;stroke:#e6e6e6;stroke-linecap:square;stroke-width:0.8;"/>
     </g>
     <g id="line2d_20">
      <g>
       <use style="stroke:#000000;stroke-width:0.8;" x="108" xlink:href="#ma8c0d836ce" y="430.392906"/>
      </g>
     </g>
     <g id="text_11">
      <!-- $\mathdefault{20}$ -->
      <g transform="translate(89.867524 435.581768)scale(0.15 -0.15)">
       <use transform="scale(0.996264)" xlink:href="#CMR17-50"/>
       <use transform="translate(45.690477 0)scale(0.996264)" xlink:href="#CMR17-48"/>
      </g>
     </g>
    </g>
    <g id="ytick_4">
     <g id="line2d_21">
      <path clip-path="url(#p34dfca1cc0)" d="M 108 313.957918 
L 698.4 313.957918 
" style="fill:none;stroke:#e6e6e6;stroke-linecap:square;stroke-width:0.8;"/>
     </g>
     <g id="line2d_22">
      <g>
       <use style="stroke:#000000;stroke-width:0.8;" x="108" xlink:href="#ma8c0d836ce" y="313.957918"/>
      </g>
     </g>
     <g id="text_12">
      <!-- $\mathdefault{30}$ -->
      <g transform="translate(89.867524 319.14678)scale(0.15 -0.15)">
       <use transform="scale(0.996264)" xlink:href="#CMR17-51"/>
       <use transform="translate(45.690477 0)scale(0.996264)" xlink:href="#CMR17-48"/>
      </g>
     </g>
    </g>
    <g id="ytick_5">
     <g id="line2d_23">
      <path clip-path="url(#p34dfca1cc0)" d="M 108 197.52293 
L 698.4 197.52293 
" style="fill:none;stroke:#e6e6e6;stroke-linecap:square;stroke-width:0.8;"/>
     </g>
     <g id="line2d_24">
      <g>
       <use style="stroke:#000000;stroke-width:0.8;" x="108" xlink:href="#ma8c0d836ce" y="197.52293"/>
      </g>
     </g>
     <g id="text_13">
      <!-- $\mathdefault{40}$ -->
      <g transform="translate(89.867524 202.711792)scale(0.15 -0.15)">
       <defs>
        <path d="M 33.59375 64.40625 
C 33.59375 66.5 33.5 66.5 31.703125 66.5 
L 2 19.59375 
L 2 17 
L 27.796875 17 
L 27.796875 7.140625 
C 27.796875 3.5 27.59375 2.5 20.59375 2.5 
L 18.703125 2.5 
L 18.703125 0 
C 21.90625 0 27.296875 0 30.703125 0 
C 34.09375 0 39.5 0 42.703125 0 
L 42.703125 2.5 
L 40.796875 2.5 
C 33.796875 2.5 33.59375 3.5 33.59375 7.140625 
L 33.59375 17 
L 43.796875 17 
L 43.796875 19.59375 
L 33.59375 19.59375 
z
M 28.09375 57.859375 
L 28.09375 19.59375 
L 4 19.59375 
z
" id="CMR17-52"/>
       </defs>
       <use transform="scale(0.996264)" xlink:href="#CMR17-52"/>
       <use transform="translate(45.690477 0)scale(0.996264)" xlink:href="#CMR17-48"/>
      </g>
     </g>
    </g>
    <g id="ytick_6">
     <g id="line2d_25">
      <path clip-path="url(#p34dfca1cc0)" d="M 108 81.087942 
L 698.4 81.087942 
" style="fill:none;stroke:#e6e6e6;stroke-linecap:square;stroke-width:0.8;"/>
     </g>
     <g id="line2d_26">
      <g>
       <use style="stroke:#000000;stroke-width:0.8;" x="108" xlink:href="#ma8c0d836ce" y="81.087942"/>
      </g>
     </g>
     <g id="text_14">
      <!-- $\mathdefault{50}$ -->
      <g transform="translate(89.867524 86.276805)scale(0.15 -0.15)">
       <use transform="scale(0.996264)" xlink:href="#CMR17-53"/>
       <use transform="translate(45.690477 0)scale(0.996264)" xlink:href="#CMR17-48"/>
      </g>
     </g>
    </g>
    <g id="text_15">
     <!-- $\sigma/(ka)^2$ -->
     <g transform="translate(79.640874 428.253307)rotate(-90)scale(0.25 -0.25)">
      <defs>
       <path d="M 50.796875 37.625 
C 52.09375 37.625 55.40625 37.625 55.40625 40.8125 
C 55.40625 43 53.5 43 51.703125 43 
L 29.59375 43 
C 14.59375 43 3.796875 26.34375 3.796875 14.5625 
C 3.796875 6.09375 9.296875 -1 18.296875 -1 
C 30.09375 -1 43 11.671875 43 26.640625 
C 43 30.53125 42.09375 34.3125 39.703125 37.625 
z
M 18.40625 1 
C 13.296875 1 9.59375 4.890625 9.59375 11.78125 
C 9.59375 17.765625 13.203125 37.625 27.90625 37.625 
C 32.203125 37.625 37 35.53125 37 27.828125 
C 37 24.34375 35.40625 15.953125 31.90625 10.1875 
C 28.296875 4.296875 22.90625 1 18.40625 1 
z
" id="CMMI12-27"/>
       <path d="M 42.90625 71.28125 
C 42.90625 71.390625 43.5 72.90625 43.5 73.09375 
C 43.5 74.296875 42.5 75 41.703125 75 
C 41.203125 75 40.296875 75 39.5 72.796875 
L 6 -21.296875 
C 6 -21.40625 5.40625 -22.890625 5.40625 -23.09375 
C 5.40625 -24.296875 6.40625 -25 7.203125 -25 
C 7.796875 -25 8.703125 -24.890625 9.40625 -22.796875 
z
" id="CMMI12-61"/>
       <path d="M 30.59375 -24.390625 
C 30.59375 -24.296875 30.59375 -24.09375 30.296875 -23.796875 
C 25.703125 -19.125 13.40625 -6.359375 13.40625 24.703125 
C 13.40625 55.765625 25.5 68.421875 30.40625 73.390625 
C 30.40625 73.5 30.59375 73.703125 30.59375 74 
C 30.59375 74.296875 30.296875 74.5 29.90625 74.5 
C 28.796875 74.5 20.296875 67.125 15.40625 56.15625 
C 10.40625 45.109375 9 34.359375 9 24.8125 
C 9 17.625 9.703125 5.484375 15.703125 -7.359375 
C 20.5 -17.734375 28.703125 -25 29.90625 -25 
C 30.40625 -25 30.59375 -24.796875 30.59375 -24.390625 
z
" id="CMR17-40"/>
       <path d="M 26.296875 24.703125 
C 26.296875 31.875 25.59375 44.015625 19.59375 56.859375 
C 14.796875 67.234375 6.59375 74.5 5.40625 74.5 
C 5.09375 74.5 4.703125 74.390625 4.703125 73.890625 
C 4.703125 73.703125 4.796875 73.59375 4.90625 73.390625 
C 9.703125 68.40625 21.90625 55.75 21.90625 24.75 
C 21.90625 -6.359375 9.796875 -19.015625 4.90625 -24.015625 
C 4.796875 -24.203125 4.703125 -24.3125 4.703125 -24.5 
C 4.703125 -25 5.09375 -25 5.40625 -25 
C 6.5 -25 15 -17.625 19.90625 -6.65625 
C 24.90625 4.390625 26.296875 15.140625 26.296875 24.703125 
z
" id="CMR17-41"/>
      </defs>
      <use transform="scale(0.996264)" xlink:href="#CMMI12-27"/>
      <use transform="translate(59.020054 0)scale(0.996264)" xlink:href="#CMMI12-61"/>
      <use transform="translate(107.794972 0)scale(0.996264)" xlink:href="#CMR17-40"/>
      <use transform="translate(143.07574 0)scale(0.996264)" xlink:href="#CMMI12-107"/>
      <use transform="translate(197.154941 0)scale(0.996264)" xlink:href="#CMMI12-97"/>
      <use transform="translate(248.362798 0)scale(0.996264)" xlink:href="#CMR17-41"/>
      <use transform="translate(283.643566 36.153639)scale(0.697382)" xlink:href="#CMR17-50"/>
     </g>
    </g>
   </g>
   <g id="line2d_27">
    <path clip-path="url(#p34dfca1cc0)" d="M 159.233058 663.26281 
L 250.925331 663.151235 
L 296.771468 662.859722 
L 339.342881 662.367502 
L 404.837362 661.345103 
L 516.17798 659.430129 
L 562.024117 658.379265 
L 634.068046 656.462708 
L 647.166942 656.103511 
L 647.166942 656.103511 
" style="fill:none;stroke:#f98e52;stroke-linecap:square;stroke-width:2;"/>
   </g>
   <g id="line2d_28">
    <path clip-path="url(#p34dfca1cc0)" d="M 159.233058 663.262567 
L 214.903367 663.155766 
L 241.101159 662.901215 
L 264.024228 662.451045 
L 283.672572 661.837302 
L 303.320916 660.984749 
L 322.969261 659.902394 
L 349.167053 658.19951 
L 401.562638 654.712566 
L 476.881291 650.037045 
L 496.529636 648.432859 
L 516.17798 646.590729 
L 548.92522 643.222779 
L 581.672461 639.932832 
L 620.96915 636.285221 
L 647.166942 633.742973 
L 647.166942 633.742973 
" style="fill:none;stroke:#ffffbe;stroke-linecap:square;stroke-width:2;"/>
   </g>
   <g id="line2d_29">
    <path clip-path="url(#p34dfca1cc0)" d="M 159.233058 663.260326 
L 185.43085 663.150019 
L 198.529747 662.927474 
L 208.353919 662.608489 
L 218.178091 662.092896 
L 228.002263 661.305079 
L 234.551711 660.584544 
L 241.101159 659.673169 
L 247.650607 658.53952 
L 254.200055 657.152203 
L 260.749504 655.482178 
L 267.298952 653.505978 
L 273.8484 651.209778 
L 280.397848 648.594063 
L 286.947296 645.678286 
L 293.496744 642.504544 
L 303.320916 637.411189 
L 316.419813 630.502342 
L 322.969261 627.240443 
L 329.518709 624.239235 
L 336.068157 621.570795 
L 342.617605 619.275305 
L 349.167053 617.357879 
L 355.716501 615.789946 
L 362.265949 614.513994 
L 372.090121 612.968168 
L 388.463742 610.531984 
L 395.01319 609.290974 
L 401.562638 607.740121 
L 408.112086 605.787739 
L 411.38681 604.637256 
L 414.661534 603.361073 
L 417.936258 601.954577 
L 421.210982 600.41557 
L 424.485706 598.744594 
L 431.035154 595.02433 
L 437.584603 590.862529 
L 444.134051 586.382176 
L 460.507671 574.978945 
L 467.057119 570.868676 
L 470.331843 569.000471 
L 473.606567 567.278237 
L 476.881291 565.712899 
L 480.156015 564.311024 
L 483.430739 563.074822 
L 486.705463 562.00231 
L 489.980187 561.087634 
L 493.254912 560.321477 
L 496.529636 559.691546 
L 503.079084 558.779295 
L 509.628532 558.211709 
L 529.276876 556.978469 
L 535.826324 556.18543 
L 539.101048 555.632303 
L 542.375772 554.95288 
L 545.650496 554.132769 
L 548.92522 553.159678 
L 552.199945 552.023905 
L 555.474669 550.718869 
L 558.749393 549.241691 
L 562.024117 547.593776 
L 565.298841 545.781344 
L 568.573565 543.815867 
L 575.123013 539.499256 
L 584.947185 532.472635 
L 591.496633 527.831609 
L 598.046081 523.580783 
L 601.320805 521.687039 
L 604.595529 519.983749 
L 607.870253 518.490055 
L 611.144978 517.218134 
L 614.419702 516.173155 
L 617.694426 515.353618 
L 620.96915 514.752005 
L 624.243874 514.355649 
L 627.518598 514.147699 
L 630.793322 514.108117 
L 634.068046 514.214597 
L 640.617494 514.769937 
L 647.166942 515.617267 
L 647.166942 515.617267 
" style="fill:none;stroke:#86cfa5;stroke-linecap:square;stroke-width:2;"/>
   </g>
   <g id="line2d_30">
    <path clip-path="url(#p34dfca1cc0)" d="M 159.233058 663.152313 
L 165.782506 662.82642 
L 169.05723 662.497834 
L 172.331954 661.994112 
L 175.606678 661.246182 
L 178.881402 660.161653 
L 182.156126 658.616411 
L 185.43085 656.442855 
L 188.705574 653.413429 
L 191.980298 649.217658 
L 195.255022 643.430503 
L 198.529747 635.46988 
L 201.804471 624.542669 
L 205.079195 609.583955 
L 208.353919 589.209025 
L 211.628643 561.731731 
L 214.903367 525.368437 
L 218.178091 478.836242 
L 221.452815 422.565877 
L 224.727539 360.382173 
L 228.002263 300.460673 
L 231.276987 253.484254 
L 234.551711 227.69119 
L 237.826435 224.616651 
L 241.101159 239.497055 
L 244.375883 265.114125 
L 250.925331 325.501664 
L 254.200055 353.894111 
L 257.47478 379.393947 
L 260.749504 401.757119 
L 264.024228 421.070283 
L 267.298952 437.532974 
L 270.573676 451.335782 
L 273.8484 462.585962 
L 277.123124 471.246048 
L 280.397848 477.057447 
L 283.672572 479.417308 
L 286.947296 477.161507 
L 290.22202 468.178944 
L 293.496744 448.766303 
L 296.771468 412.793515 
L 300.046192 351.85185 
L 303.320916 261.625441 
L 306.59564 163.264508 
L 309.870364 114.33719 
L 313.145088 144.152666 
L 319.694537 285.091241 
L 322.969261 341.611023 
L 326.243985 384.316885 
L 329.518709 416.463624 
L 332.793433 441.064864 
L 336.068157 460.323827 
L 339.342881 475.754846 
L 342.617605 488.385718 
L 345.892329 498.914712 
L 349.167053 507.813843 
L 352.441777 515.39005 
L 355.716501 521.812859 
L 358.991225 527.108003 
L 362.265949 531.100051 
L 365.540673 533.249069 
L 368.815397 532.21752 
L 372.090121 524.647166 
L 375.364846 501.374286 
L 378.63957 436.080509 
L 381.914294 287.665928 
L 385.189018 242.6239 
L 388.463742 385.094939 
L 391.738466 478.656998 
L 395.01319 527.413027 
L 398.287914 556.13336 
L 401.562638 574.694147 
L 404.837362 586.54888 
L 408.112086 593.078879 
L 411.38681 595.454777 
L 414.661534 595.128178 
L 417.936258 593.539567 
L 421.210982 591.744215 
L 424.485706 590.32078 
L 427.76043 589.489149 
L 431.035154 589.263139 
L 434.309879 589.552756 
L 440.859327 590.948481 
L 444.134051 591.238921 
L 447.408775 589.437682 
L 450.683499 578.456078 
L 453.958223 503.16122 
L 457.232947 371.063691 
L 460.507671 559.072614 
L 463.782395 594.298005 
L 467.057119 607.479858 
L 470.331843 614.972615 
L 473.606567 619.358457 
L 476.881291 620.344241 
L 480.156015 616.574636 
L 483.430739 606.797523 
L 486.705463 591.520754 
L 489.980187 573.943991 
L 493.254912 558.341421 
L 496.529636 547.331897 
L 499.80436 541.123968 
L 503.079084 538.619471 
L 506.353808 538.537026 
L 509.628532 539.876975 
L 512.903256 541.957309 
L 516.17798 544.279383 
L 519.452704 546.180685 
L 522.727428 544.286561 
L 526.002152 353.097602 
L 529.276876 544.523775 
L 532.5516 555.876519 
L 535.826324 559.9773 
L 539.101048 562.738773 
L 542.375772 564.64099 
L 545.650496 565.404426 
L 548.92522 564.238484 
L 552.199945 559.651711 
L 555.474669 549.279267 
L 558.749393 530.61699 
L 565.298841 478.556602 
L 568.573565 463.808897 
L 571.848289 462.38137 
L 575.123013 469.336501 
L 578.397737 479.789521 
L 584.947185 502.18114 
L 588.221909 512.209961 
L 591.496633 520.283923 
L 594.771357 495.665784 
L 598.046081 534.187732 
L 601.320805 539.781873 
L 604.595529 544.165317 
L 607.870253 547.808165 
L 611.144978 550.861685 
L 614.419702 553.36331 
L 617.694426 555.227644 
L 620.96915 556.17069 
L 624.243874 555.522926 
L 627.518598 551.807739 
L 630.793322 541.921984 
L 634.068046 520.583048 
L 637.34277 486.183417 
L 640.617494 459.891468 
L 643.892218 466.014028 
L 647.166942 489.43381 
L 647.166942 489.43381 
" style="fill:none;stroke:#5e4fa2;stroke-linecap:square;stroke-width:2;"/>
   </g>
   <g id="patch_3">
    <path d="M 108 720.9 
L 108 56.7 
" style="fill:none;stroke:#000000;stroke-linecap:square;stroke-linejoin:miter;stroke-width:0.8;"/>
   </g>
   <g id="patch_4">
    <path d="M 698.4 720.9 
L 698.4 56.7 
" style="fill:none;stroke:#000000;stroke-linecap:square;stroke-linejoin:miter;stroke-width:0.8;"/>
   </g>
   <g id="patch_5">
    <path d="M 108 720.9 
L 698.4 720.9 
" style="fill:none;stroke:#000000;stroke-linecap:square;stroke-linejoin:miter;stroke-width:0.8;"/>
   </g>
   <g id="patch_6">
    <path d="M 108 56.7 
L 698.4 56.7 
" style="fill:none;stroke:#000000;stroke-linecap:square;stroke-linejoin:miter;stroke-width:0.8;"/>
   </g>
   <g id="legend_1">
    <g id="patch_7">
     <path d="M 510.649227 196.290721 
L 684.4 196.290721 
Q 688.4 196.290721 688.4 192.290721 
L 688.4 70.7 
Q 688.4 66.7 684.4 66.7 
L 510.649227 66.7 
Q 506.649227 66.7 506.649227 70.7 
L 506.649227 192.290721 
Q 506.649227 196.290721 510.649227 196.290721 
z
" style="fill:#ffffff;opacity:0.8;stroke:#cccccc;stroke-linejoin:miter;"/>
    </g>
    <g id="line2d_31">
     <path d="M 514.649227 82.896875 
L 554.649227 82.896875 
" style="fill:none;stroke:#f98e52;stroke-linecap:square;stroke-width:2;"/>
    </g>
    <g id="line2d_32"/>
    <g id="text_16">
     <!-- $n_{ref}=1.1000$ -->
     <g transform="translate(570.649227 89.896875)scale(0.2 -0.2)">
      <defs>
       <path d="M 20.59375 29.234375 
C 20.796875 29.84375 23.296875 34.828125 27 38.015625 
C 29.59375 40.40625 33 42.015625 36.90625 42.015625 
C 40.90625 42.015625 42.296875 39.015625 42.296875 35.03125 
C 42.296875 29.34375 38.203125 17.96875 36.203125 12.578125 
C 35.296875 10.171875 34.796875 8.875 34.796875 7.078125 
C 34.796875 2.59375 37.90625 -1 42.703125 -1 
C 52 -1 55.5 13.671875 55.5 14.265625 
C 55.5 14.765625 55.09375 15.171875 54.5 15.171875 
C 53.59375 15.171875 53.5 14.875 53 13.171875 
C 50.703125 4.984375 46.90625 1 43 1 
C 42 1 40.40625 1 40.40625 4.203125 
C 40.40625 6.703125 41.5 9.703125 42.09375 11.09375 
C 44.09375 16.609375 48.296875 27.8125 48.296875 33.515625 
C 48.296875 39.5 44.796875 44 37.203125 44 
C 28.296875 44 23.59375 37.734375 21.796875 35.234375 
C 21.5 40.90625 17.40625 44 13 44 
C 9.796875 44 7.59375 42.109375 5.90625 38.71875 
C 4.09375 35.125 2.703125 29.140625 2.703125 28.734375 
C 2.703125 28.34375 3.09375 27.84375 3.796875 27.84375 
C 4.59375 27.84375 4.703125 27.9375 5.296875 30.234375 
C 6.90625 36.328125 8.703125 42.015625 12.703125 42.015625 
C 15 42.015625 15.796875 40.40625 15.796875 37.421875 
C 15.796875 35.21875 14.796875 31.328125 14.09375 28.234375 
L 11.296875 17.46875 
C 10.90625 15.5625 9.796875 11.078125 9.296875 9.28125 
C 8.59375 6.6875 7.5 2 7.5 1.5 
C 7.5 0.09375 8.59375 -1 10.09375 -1 
C 11.296875 -1 12.703125 -0.40625 13.5 1.09375 
C 13.703125 1.59375 14.59375 5.09375 15.09375 7.078125 
L 17.296875 16.0625 
z
" id="CMMI12-110"/>
       <path d="M 38.90625 40.8125 
C 35.796875 40.21875 34.203125 38.015625 34.203125 35.828125 
C 34.203125 33.421875 36.09375 32.625 37.5 32.625 
C 40.296875 32.625 42.59375 35.03125 42.59375 38.015625 
C 42.59375 41.21875 39.5 44 34.5 44 
C 30.5 44 25.90625 42.203125 21.703125 36.125 
C 21 41.40625 17 44 13 44 
C 9.09375 44 7.09375 41.015625 5.90625 38.8125 
C 4.203125 35.21875 2.703125 29.234375 2.703125 28.734375 
C 2.703125 28.34375 3.09375 27.84375 3.796875 27.84375 
C 4.59375 27.84375 4.703125 27.9375 5.296875 30.234375 
C 6.796875 36.21875 8.703125 42.015625 12.703125 42.015625 
C 15.09375 42.015625 15.796875 40.3125 15.796875 37.421875 
C 15.796875 35.21875 14.796875 31.328125 14.09375 28.234375 
L 11.296875 17.46875 
C 10.90625 15.5625 9.796875 11.078125 9.296875 9.28125 
C 8.59375 6.6875 7.5 2 7.5 1.5 
C 7.5 0.09375 8.59375 -1 10.09375 -1 
C 11.203125 -1 13.09375 -0.296875 13.703125 1.703125 
C 14 2.5 17.703125 17.5625 18.296875 19.859375 
C 18.796875 22.046875 19.40625 24.15625 19.90625 26.34375 
C 20.296875 27.734375 20.703125 29.34375 21 30.640625 
C 21.296875 31.53125 24 36.421875 26.5 38.625 
C 27.703125 39.71875 30.296875 42.015625 34.40625 42.015625 
C 36 42.015625 37.59375 41.71875 38.90625 40.8125 
z
" id="CMMI12-114"/>
       <path d="M 17.90625 23.109375 
C 20.59375 23.109375 27.40625 23.109375 32.203125 24.921875 
C 39.796875 27.859375 40.5 33.71875 40.5 35.53125 
C 40.5 39.96875 36.703125 44 30.09375 44 
C 19.59375 44 4.5 34.53125 4.5 16.765625 
C 4.5 6.28125 10.5 -1 19.59375 -1 
C 33.203125 -1 41.796875 9.515625 41.796875 10.8125 
C 41.796875 11.40625 41.203125 11.90625 40.796875 11.90625 
C 40.5 11.90625 40.40625 11.8125 39.5 10.921875 
C 33.09375 2.484375 23.59375 1 19.796875 1 
C 14.09375 1 11.09375 5.46875 11.09375 12.84375 
C 11.09375 14.234375 11.09375 16.734375 12.59375 23.109375 
z
M 13.09375 25 
C 17.40625 40.5 26.90625 42.015625 30.09375 42.015625 
C 34.5 42.015625 37.5 39.40625 37.5 35.578125 
C 37.5 25 21.5 25 17.296875 25 
z
" id="CMMI12-101"/>
       <path d="M 44.59375 40.09375 
C 46.59375 40.09375 47.40625 40.09375 47.40625 42 
C 47.40625 43 46.59375 43 44.796875 43 
L 36.703125 43 
C 38.59375 53.578125 40 60.890625 40.796875 64.171875 
C 41.40625 66.640625 43.5 69 46.09375 69 
C 48.203125 69 50.296875 68.09375 51.296875 67.15625 
C 47.40625 66.75 46.203125 63.78125 46.203125 62.015625 
C 46.203125 59.953125 47.703125 58.734375 49.59375 58.734375 
C 51.59375 58.734375 54.59375 60.46875 54.59375 64.359375 
C 54.59375 68.640625 50.40625 71 46 71 
C 41.703125 71 37.5 67.71875 35.5 63.71875 
C 33.703125 60.125 32.703125 56.421875 30.40625 43 
L 23.703125 43 
C 21.796875 43 20.796875 43 20.796875 41.203125 
C 20.796875 40.09375 21.40625 40.09375 23.40625 40.09375 
L 29.796875 40.09375 
C 28 30.875 23.90625 8.46875 21.59375 -2.140625 
C 19.90625 -10.765625 18.40625 -18 13.40625 -18 
C 13.09375 -18 10.203125 -18 8.40625 -16.109375 
C 13.5 -15.703125 13.5 -11.34375 13.5 -11.25 
C 13.5 -9.265625 12 -8.078125 10.09375 -8.078125 
C 8.09375 -8.078125 5.09375 -9.765625 5.09375 -13.546875 
C 5.09375 -17.8125 9.5 -20 13.40625 -20 
C 23.59375 -20 27.796875 -1.84375 28.90625 3.109375 
C 30.703125 10.75 35.59375 37.125 36.09375 40.09375 
z
" id="CMMI12-102"/>
       <path d="M 64.296875 31.515625 
C 65.796875 31.515625 67.296875 31.515625 67.296875 33.203125 
C 67.296875 35 65.59375 35 63.90625 35 
L 8 35 
C 6.296875 35 4.59375 35 4.59375 33.203125 
C 4.59375 31.515625 6.09375 31.515625 7.59375 31.515625 
z
M 63.90625 14 
C 65.59375 14 67.296875 14 67.296875 15.796875 
C 67.296875 17.484375 65.796875 17.484375 64.296875 17.484375 
L 7.59375 17.484375 
C 6.09375 17.484375 4.59375 17.484375 4.59375 15.796875 
C 4.59375 14 6.296875 14 8 14 
z
" id="CMR17-61"/>
      </defs>
      <use transform="scale(0.996264)" xlink:href="#CMMI12-110"/>
      <use transform="translate(58.230047 -14.943915)scale(0.697382)" xlink:href="#CMMI12-114"/>
      <use transform="translate(90.899316 -14.943915)scale(0.697382)" xlink:href="#CMMI12-101"/>
      <use transform="translate(122.547572 -14.943915)scale(0.697382)" xlink:href="#CMMI12-102"/>
      <use transform="translate(191.823737 0)scale(0.996264)" xlink:href="#CMR17-61"/>
      <use transform="translate(291.212534 0)scale(0.996264)" xlink:href="#CMR17-49"/>
      <use transform="translate(336.903011 0)scale(0.996264)" xlink:href="#CMMI12-58"/>
      <use transform="translate(364.000188 0)scale(0.996264)" xlink:href="#CMR17-49"/>
      <use transform="translate(409.690665 0)scale(0.996264)" xlink:href="#CMR17-48"/>
      <use transform="translate(455.381142 0)scale(0.996264)" xlink:href="#CMR17-48"/>
      <use transform="translate(501.071619 0)scale(0.996264)" xlink:href="#CMR17-48"/>
     </g>
    </g>
    <g id="line2d_33">
     <path d="M 514.649227 113.794555 
L 554.649227 113.794555 
" style="fill:none;stroke:#ffffbe;stroke-linecap:square;stroke-width:2;"/>
    </g>
    <g id="line2d_34"/>
    <g id="text_17">
     <!-- $n_{ref}=1.2000$ -->
     <g transform="translate(570.649227 120.794555)scale(0.2 -0.2)">
      <use transform="scale(0.996264)" xlink:href="#CMMI12-110"/>
      <use transform="translate(58.230047 -14.943915)scale(0.697382)" xlink:href="#CMMI12-114"/>
      <use transform="translate(90.899316 -14.943915)scale(0.697382)" xlink:href="#CMMI12-101"/>
      <use transform="translate(122.547572 -14.943915)scale(0.697382)" xlink:href="#CMMI12-102"/>
      <use transform="translate(191.823737 0)scale(0.996264)" xlink:href="#CMR17-61"/>
      <use transform="translate(291.212534 0)scale(0.996264)" xlink:href="#CMR17-49"/>
      <use transform="translate(336.903011 0)scale(0.996264)" xlink:href="#CMMI12-58"/>
      <use transform="translate(364.000188 0)scale(0.996264)" xlink:href="#CMR17-50"/>
      <use transform="translate(409.690665 0)scale(0.996264)" xlink:href="#CMR17-48"/>
      <use transform="translate(455.381142 0)scale(0.996264)" xlink:href="#CMR17-48"/>
      <use transform="translate(501.071619 0)scale(0.996264)" xlink:href="#CMR17-48"/>
     </g>
    </g>
    <g id="line2d_35">
     <path d="M 514.649227 144.692235 
L 554.649227 144.692235 
" style="fill:none;stroke:#86cfa5;stroke-linecap:square;stroke-width:2;"/>
    </g>
    <g id="line2d_36"/>
    <g id="text_18">
     <!-- $n_{ref}=1.5000$ -->
     <g transform="translate(570.649227 151.692235)scale(0.2 -0.2)">
      <use transform="scale(0.996264)" xlink:href="#CMMI12-110"/>
      <use transform="translate(58.230047 -14.943915)scale(0.697382)" xlink:href="#CMMI12-114"/>
      <use transform="translate(90.899316 -14.943915)scale(0.697382)" xlink:href="#CMMI12-101"/>
      <use transform="translate(122.547572 -14.943915)scale(0.697382)" xlink:href="#CMMI12-102"/>
      <use transform="translate(191.823737 0)scale(0.996264)" xlink:href="#CMR17-61"/>
      <use transform="translate(291.212534 0)scale(0.996264)" xlink:href="#CMR17-49"/>
      <use transform="translate(336.903011 0)scale(0.996264)" xlink:href="#CMMI12-58"/>
      <use transform="translate(364.000188 0)scale(0.996264)" xlink:href="#CMR17-53"/>
      <use transform="translate(409.690665 0)scale(0.996264)" xlink:href="#CMR17-48"/>
      <use transform="translate(455.381142 0)scale(0.996264)" xlink:href="#CMR17-48"/>
      <use transform="translate(501.071619 0)scale(0.996264)" xlink:href="#CMR17-48"/>
     </g>
    </g>
    <g id="line2d_37">
     <path d="M 514.649227 175.589916 
L 554.649227 175.589916 
" style="fill:none;stroke:#5e4fa2;stroke-linecap:square;stroke-width:2;"/>
    </g>
    <g id="line2d_38"/>
    <g id="text_19">
     <!-- $n_{ref}=3.0000$ -->
     <g transform="translate(570.649227 182.589916)scale(0.2 -0.2)">
      <use transform="scale(0.996264)" xlink:href="#CMMI12-110"/>
      <use transform="translate(58.230047 -14.943915)scale(0.697382)" xlink:href="#CMMI12-114"/>
      <use transform="translate(90.899316 -14.943915)scale(0.697382)" xlink:href="#CMMI12-101"/>
      <use transform="translate(122.547572 -14.943915)scale(0.697382)" xlink:href="#CMMI12-102"/>
      <use transform="translate(191.823737 0)scale(0.996264)" xlink:href="#CMR17-61"/>
      <use transform="translate(291.212534 0)scale(0.996264)" xlink:href="#CMR17-51"/>
      <use transform="translate(336.903011 0)scale(0.996264)" xlink:href="#CMMI12-58"/>
      <use transform="translate(364.000188 0)scale(0.996264)" xlink:href="#CMR17-48"/>
      <use transform="translate(409.690665 0)scale(0.996264)" xlink:href="#CMR17-48"/>
      <use transform="translate(455.381142 0)scale(0.996264)" xlink:href="#CMR17-48"/>
      <use transform="translate(501.071619 0)scale(0.996264)" xlink:href="#CMR17-48"/>
     </g>
    </g>
   </g>
  </g>
 </g>
 <defs>
  <clipPath id="p34dfca1cc0">
   <rect height="664.2" width="590.4" x="108" y="56.7"/>
  </clipPath>
 </defs>
</svg>
