<?xml version="1.0" encoding="utf-8" standalone="no"?>
<!DOCTYPE svg PUBLIC "-//W3C//DTD SVG 1.1//EN"
  "http://www.w3.org/Graphics/SVG/1.1/DTD/svg11.dtd">
<!-- Created with matplotlib (https://matplotlib.org/) -->
<svg height="810pt" version="1.1" viewBox="0 0 720 810" width="720pt" xmlns="http://www.w3.org/2000/svg" xmlns:xlink="http://www.w3.org/1999/xlink">
 <metadata>
  <rdf:RDF xmlns:cc="http://creativecommons.org/ns#" xmlns:dc="http://purl.org/dc/elements/1.1/" xmlns:rdf="http://www.w3.org/1999/02/22-rdf-syntax-ns#">
   <cc:Work>
    <dc:type rdf:resource="http://purl.org/dc/dcmitype/StillImage"/>
    <dc:date>2020-12-08T08:52:11.090745</dc:date>
    <dc:format>image/svg+xml</dc:format>
    <dc:creator>
     <cc:Agent>
      <dc:title>Matplotlib v3.3.1, https://matplotlib.org/</dc:title>
     </cc:Agent>
    </dc:creator>
   </cc:Work>
  </rdf:RDF>
 </metadata>
 <defs>
  <style type="text/css">*{stroke-linecap:butt;stroke-linejoin:round;}</style>
 </defs>
 <g id="figure_1">
  <g id="patch_1">
   <path d="M 0 810 
L 720 810 
L 720 0 
L 0 0 
z
" style="fill:#ffffff;"/>
  </g>
  <g id="axes_1">
   <g id="patch_2">
    <path d="M 108 720.9 
L 698.4 720.9 
L 698.4 56.7 
L 108 56.7 
z
" style="fill:#ffffff;"/>
   </g>
   <g id="matplotlib.axis_1">
    <g id="xtick_1">
     <g id="line2d_1">
      <path clip-path="url(#pd881ff5129)" d="M 108 720.9 
L 108 56.7 
" style="fill:none;stroke:#e6e6e6;stroke-linecap:square;stroke-width:0.8;"/>
     </g>
     <g id="line2d_2">
      <defs>
       <path d="M 0 0 
L 0 -3.5 
" id="mbf242c27b1" style="stroke:#000000;stroke-width:0.8;"/>
      </defs>
      <g>
       <use style="stroke:#000000;stroke-width:0.8;" x="108" xlink:href="#mbf242c27b1" y="720.9"/>
      </g>
     </g>
     <g id="text_1">
      <!-- $\mathdefault{0}$ -->
      <g transform="translate(104.341881 734.777725)scale(0.15 -0.15)">
       <defs>
        <path d="M 42 31.640625 
C 42 37.75 41.90625 48.125 37.703125 56.109375 
C 34 63.109375 28.09375 65.59375 22.90625 65.59375 
C 18.09375 65.59375 12 63.40625 8.203125 56.203125 
C 4.203125 48.71875 3.796875 39.4375 3.796875 31.640625 
C 3.796875 25.953125 3.90625 17.28125 7 9.671875 
C 11.296875 -0.609375 19 -2 22.90625 -2 
C 27.5 -2 34.5 -0.109375 38.59375 9.375 
C 41.59375 16.28125 42 24.359375 42 31.640625 
z
M 22.90625 -0.40625 
C 16.5 -0.40625 12.703125 5.078125 11.296875 12.6875 
C 10.203125 18.5625 10.203125 27.15625 10.203125 32.75 
C 10.203125 40.4375 10.203125 46.828125 11.5 52.921875 
C 13.40625 61.390625 19 64 22.90625 64 
C 27 64 32.296875 61.296875 34.203125 53.125 
C 35.5 47.4375 35.59375 40.734375 35.59375 32.75 
C 35.59375 26.25 35.59375 18.265625 34.40625 12.375 
C 32.296875 1.484375 26.40625 -0.40625 22.90625 -0.40625 
z
" id="CMR17-48"/>
       </defs>
       <use transform="scale(0.996264)" xlink:href="#CMR17-48"/>
      </g>
     </g>
    </g>
    <g id="xtick_2">
     <g id="line2d_3">
      <path clip-path="url(#pd881ff5129)" d="M 206.4 720.9 
L 206.4 56.7 
" style="fill:none;stroke:#e6e6e6;stroke-linecap:square;stroke-width:0.8;"/>
     </g>
     <g id="line2d_4">
      <g>
       <use style="stroke:#000000;stroke-width:0.8;" x="206.4" xlink:href="#mbf242c27b1" y="720.9"/>
      </g>
     </g>
     <g id="text_2">
      <!-- $\mathdefault{5}$ -->
      <g transform="translate(202.741881 734.777725)scale(0.15 -0.15)">
       <defs>
        <path d="M 11.40625 57.6875 
C 12.40625 57.28125 16.5 56 20.703125 56 
C 30 56 35.09375 61.109375 38 64.0625 
C 38 64.953125 38 65.5 37.40625 65.5 
C 37.296875 65.5 37.09375 65.5 36.296875 65.046875 
C 32.796875 63.40625 28.703125 62.078125 23.703125 62.078125 
C 20.703125 62.078125 16.203125 62.484375 11.296875 64.671875 
C 10.203125 65.171875 10 65.171875 9.90625 65.171875 
C 9.40625 65.171875 9.296875 65.0625 9.296875 63.078125 
L 9.296875 34.421875 
C 9.296875 32.640625 9.296875 32.140625 10.296875 32.140625 
C 10.796875 32.140625 11 32.34375 11.5 33.03125 
C 14.703125 37.515625 19.09375 39.40625 24.09375 39.40625 
C 27.59375 39.40625 35.09375 37.21875 35.09375 20.140625 
C 35.09375 16.953125 35.09375 11.171875 32.09375 6.578125 
C 29.59375 2.484375 25.703125 0.390625 21.40625 0.390625 
C 14.796875 0.390625 8.09375 5 6.296875 12.71875 
C 6.703125 12.609375 7.5 12.421875 7.90625 12.421875 
C 9.203125 12.421875 11.703125 13.125 11.703125 16.21875 
C 11.703125 18.90625 9.796875 20 7.90625 20 
C 5.59375 20 4.09375 18.59375 4.09375 15.796875 
C 4.09375 7.09375 11 -2 21.59375 -2 
C 31.90625 -2 41.703125 6.875 41.703125 19.75 
C 41.703125 31.71875 33.90625 41 24.203125 41 
C 19.09375 41 14.796875 39.109375 11.40625 35.53125 
z
" id="CMR17-53"/>
       </defs>
       <use transform="scale(0.996264)" xlink:href="#CMR17-53"/>
      </g>
     </g>
    </g>
    <g id="xtick_3">
     <g id="line2d_5">
      <path clip-path="url(#pd881ff5129)" d="M 304.8 720.9 
L 304.8 56.7 
" style="fill:none;stroke:#e6e6e6;stroke-linecap:square;stroke-width:0.8;"/>
     </g>
     <g id="line2d_6">
      <g>
       <use style="stroke:#000000;stroke-width:0.8;" x="304.8" xlink:href="#mbf242c27b1" y="720.9"/>
      </g>
     </g>
     <g id="text_3">
      <!-- $\mathdefault{10}$ -->
      <g transform="translate(297.483762 734.777725)scale(0.15 -0.15)">
       <defs>
        <path d="M 26.59375 63.40625 
C 26.59375 65.5 26.5 65.5 25.09375 65.5 
C 21.203125 61.1875 15.296875 59.796875 9.703125 59.796875 
C 9.40625 59.796875 8.90625 59.796875 8.796875 59.5 
C 8.703125 59.296875 8.703125 59.09375 8.703125 57 
C 11.796875 57 17 57.59375 21 59.984375 
L 21 7.203125 
C 21 3.6875 20.796875 2.5 12.203125 2.5 
L 9.203125 2.5 
L 9.203125 0 
C 14 0 19 0 23.796875 0 
C 28.59375 0 33.59375 0 38.40625 0 
L 38.40625 2.5 
L 35.40625 2.5 
C 26.796875 2.5 26.59375 3.59375 26.59375 7.15625 
z
" id="CMR17-49"/>
       </defs>
       <use transform="scale(0.996264)" xlink:href="#CMR17-49"/>
       <use transform="translate(45.690477 0)scale(0.996264)" xlink:href="#CMR17-48"/>
      </g>
     </g>
    </g>
    <g id="xtick_4">
     <g id="line2d_7">
      <path clip-path="url(#pd881ff5129)" d="M 403.2 720.9 
L 403.2 56.7 
" style="fill:none;stroke:#e6e6e6;stroke-linecap:square;stroke-width:0.8;"/>
     </g>
     <g id="line2d_8">
      <g>
       <use style="stroke:#000000;stroke-width:0.8;" x="403.2" xlink:href="#mbf242c27b1" y="720.9"/>
      </g>
     </g>
     <g id="text_4">
      <!-- $\mathdefault{15}$ -->
      <g transform="translate(395.883762 734.777725)scale(0.15 -0.15)">
       <use transform="scale(0.996264)" xlink:href="#CMR17-49"/>
       <use transform="translate(45.690477 0)scale(0.996264)" xlink:href="#CMR17-53"/>
      </g>
     </g>
    </g>
    <g id="xtick_5">
     <g id="line2d_9">
      <path clip-path="url(#pd881ff5129)" d="M 501.6 720.9 
L 501.6 56.7 
" style="fill:none;stroke:#e6e6e6;stroke-linecap:square;stroke-width:0.8;"/>
     </g>
     <g id="line2d_10">
      <g>
       <use style="stroke:#000000;stroke-width:0.8;" x="501.6" xlink:href="#mbf242c27b1" y="720.9"/>
      </g>
     </g>
     <g id="text_5">
      <!-- $\mathdefault{20}$ -->
      <g transform="translate(494.283762 734.777725)scale(0.15 -0.15)">
       <defs>
        <path d="M 41.703125 15.453125 
L 39.90625 15.453125 
C 38.90625 8.375 38.09375 7.171875 37.703125 6.5625 
C 37.203125 5.765625 30 5.765625 28.59375 5.765625 
L 9.40625 5.765625 
C 13 9.671875 20 16.75 28.5 24.953125 
C 34.59375 30.734375 41.703125 37.53125 41.703125 47.421875 
C 41.703125 59.21875 32.296875 66 21.796875 66 
C 10.796875 66 4.09375 56.3125 4.09375 47.34375 
C 4.09375 43.4375 7 42.9375 8.203125 42.9375 
C 9.203125 42.9375 12.203125 43.546875 12.203125 47.03125 
C 12.203125 50.109375 9.59375 51 8.203125 51 
C 7.59375 51 7 50.90625 6.59375 50.703125 
C 8.5 59.21875 14.296875 63.40625 20.40625 63.40625 
C 29.09375 63.40625 34.796875 56.515625 34.796875 47.421875 
C 34.796875 38.734375 29.703125 31.25 24 24.75 
L 4.09375 2.28125 
L 4.09375 0 
L 39.296875 0 
z
" id="CMR17-50"/>
       </defs>
       <use transform="scale(0.996264)" xlink:href="#CMR17-50"/>
       <use transform="translate(45.690477 0)scale(0.996264)" xlink:href="#CMR17-48"/>
      </g>
     </g>
    </g>
    <g id="xtick_6">
     <g id="line2d_11">
      <path clip-path="url(#pd881ff5129)" d="M 600 720.9 
L 600 56.7 
" style="fill:none;stroke:#e6e6e6;stroke-linecap:square;stroke-width:0.8;"/>
     </g>
     <g id="line2d_12">
      <g>
       <use style="stroke:#000000;stroke-width:0.8;" x="600" xlink:href="#mbf242c27b1" y="720.9"/>
      </g>
     </g>
     <g id="text_6">
      <!-- $\mathdefault{25}$ -->
      <g transform="translate(592.683762 734.777725)scale(0.15 -0.15)">
       <use transform="scale(0.996264)" xlink:href="#CMR17-50"/>
       <use transform="translate(45.690477 0)scale(0.996264)" xlink:href="#CMR17-53"/>
      </g>
     </g>
    </g>
    <g id="xtick_7">
     <g id="line2d_13">
      <path clip-path="url(#pd881ff5129)" d="M 698.4 720.9 
L 698.4 56.7 
" style="fill:none;stroke:#e6e6e6;stroke-linecap:square;stroke-width:0.8;"/>
     </g>
     <g id="line2d_14">
      <g>
       <use style="stroke:#000000;stroke-width:0.8;" x="698.4" xlink:href="#mbf242c27b1" y="720.9"/>
      </g>
     </g>
     <g id="text_7">
      <!-- $\mathdefault{30}$ -->
      <g transform="translate(691.083762 734.777725)scale(0.15 -0.15)">
       <defs>
        <path d="M 22.09375 33.703125 
C 31 33.703125 34.90625 25.96875 34.90625 17.03125 
C 34.90625 5 28.5 0.390625 22.703125 0.390625 
C 17.40625 0.390625 8.796875 3.03125 6.09375 10.828125 
C 6.59375 10.625 7.09375 10.625 7.59375 10.625 
C 10 10.625 11.796875 12.21875 11.796875 14.8125 
C 11.796875 17.703125 9.59375 19 7.59375 19 
C 5.90625 19 3.296875 18.203125 3.296875 14.46875 
C 3.296875 5.234375 12.296875 -2 22.90625 -2 
C 34 -2 42.5 6.71875 42.5 16.953125 
C 42.5 26.671875 34.5 33.703125 25 34.796875 
C 32.59375 36.375 39.90625 43.0625 39.90625 52.015625 
C 39.90625 59.6875 32 65.296875 23 65.296875 
C 13.90625 65.296875 5.90625 59.828125 5.90625 52.015625 
C 5.90625 48.59375 8.5 48 9.796875 48 
C 11.90625 48 13.703125 49.296875 13.703125 51.890625 
C 13.703125 54.46875 11.90625 55.765625 9.796875 55.765625 
C 9.40625 55.765625 8.90625 55.765625 8.5 55.578125 
C 11.40625 61.859375 19.296875 63 22.796875 63 
C 26.296875 63 32.90625 61.328125 32.90625 51.875 
C 32.90625 49.109375 32.5 44.1875 29.09375 39.84375 
C 26.09375 36 22.703125 36 19.40625 35.6875 
C 18.90625 35.6875 16.59375 35.453125 16.203125 35.453125 
C 15.5 35.359375 15.09375 35.265625 15.09375 34.5 
C 15.09375 33.796875 15.203125 33.703125 17.203125 33.703125 
z
" id="CMR17-51"/>
       </defs>
       <use transform="scale(0.996264)" xlink:href="#CMR17-51"/>
       <use transform="translate(45.690477 0)scale(0.996264)" xlink:href="#CMR17-48"/>
      </g>
     </g>
    </g>
    <g id="text_8">
     <!-- $\theta(^{\circ})$ -->
     <g transform="translate(383.750923 760.340997)scale(0.25 -0.25)">
      <defs>
       <path d="M 44.296875 50 
C 44.296875 60.15625 41.09375 70 32.90625 70 
C 18.90625 70 4 40.859375 4 19 
C 4 14.421875 5 -1 15.5 -1 
C 29.09375 -1 44.296875 27.4375 44.296875 50 
z
M 14 36 
C 15.5 41.859375 17.59375 50.21875 21.59375 57.265625 
C 24.90625 63.234375 28.40625 68 32.796875 68 
C 36.09375 68 38.296875 65.21875 38.296875 55.6875 
C 38.296875 52.09375 38 47.140625 35.09375 36 
z
M 34.40625 33.015625 
C 31.90625 23.28125 29.796875 17 26.203125 10.734375 
C 23.296875 5.671875 19.796875 1 15.59375 1 
C 12.5 1 10 3.390625 10 13.21875 
C 10 19.6875 11.59375 26.453125 13.203125 33.015625 
z
" id="CMMI12-18"/>
       <path d="M 30.59375 -24.390625 
C 30.59375 -24.296875 30.59375 -24.09375 30.296875 -23.796875 
C 25.703125 -19.125 13.40625 -6.359375 13.40625 24.703125 
C 13.40625 55.765625 25.5 68.421875 30.40625 73.390625 
C 30.40625 73.5 30.59375 73.703125 30.59375 74 
C 30.59375 74.296875 30.296875 74.5 29.90625 74.5 
C 28.796875 74.5 20.296875 67.125 15.40625 56.15625 
C 10.40625 45.109375 9 34.359375 9 24.8125 
C 9 17.625 9.703125 5.484375 15.703125 -7.359375 
C 20.5 -17.734375 28.703125 -25 29.90625 -25 
C 30.40625 -25 30.59375 -24.796875 30.59375 -24.390625 
z
" id="CMR17-40"/>
       <path d="M 44.40625 25 
C 44.40625 35.578125 35.5 44.1875 25 44.1875 
C 14.203125 44.1875 5.5 35.375 5.5 25 
C 5.5 14.53125 14.203125 5.8125 25 5.8125 
C 35.5 5.8125 44.40625 14.421875 44.40625 25 
z
M 25 9.8125 
C 16.296875 9.8125 9.5 16.71875 9.5 25 
C 9.5 33.28125 16.40625 40.1875 25 40.1875 
C 33.296875 40.1875 40.40625 33.46875 40.40625 25 
C 40.40625 16.53125 33.296875 9.8125 25 9.8125 
z
" id="CMSY10-14"/>
       <path d="M 26.296875 24.703125 
C 26.296875 31.875 25.59375 44.015625 19.59375 56.859375 
C 14.796875 67.234375 6.59375 74.5 5.40625 74.5 
C 5.09375 74.5 4.703125 74.390625 4.703125 73.890625 
C 4.703125 73.703125 4.796875 73.59375 4.90625 73.390625 
C 9.703125 68.40625 21.90625 55.75 21.90625 24.75 
C 21.90625 -6.359375 9.796875 -19.015625 4.90625 -24.015625 
C 4.796875 -24.203125 4.703125 -24.3125 4.703125 -24.5 
C 4.703125 -25 5.09375 -25 5.40625 -25 
C 6.5 -25 15 -17.625 19.90625 -6.65625 
C 24.90625 4.390625 26.296875 15.140625 26.296875 24.703125 
z
" id="CMR17-41"/>
      </defs>
      <use transform="scale(0.996264)" xlink:href="#CMMI12-18"/>
      <use transform="translate(48.169508 0)scale(0.996264)" xlink:href="#CMR17-40"/>
      <use transform="translate(83.450276 36.153639)scale(0.697382)" xlink:href="#CMSY10-14"/>
      <use transform="translate(118.817618 0)scale(0.996264)" xlink:href="#CMR17-41"/>
     </g>
    </g>
   </g>
   <g id="matplotlib.axis_2">
    <g id="ytick_1">
     <g id="line2d_15">
      <path clip-path="url(#pd881ff5129)" d="M 108 639.845771 
L 698.4 639.845771 
" style="fill:none;stroke:#e6e6e6;stroke-linecap:square;stroke-width:0.8;"/>
     </g>
     <g id="line2d_16">
      <defs>
       <path d="M 0 0 
L 3.5 0 
" id="m2f7d01a160" style="stroke:#000000;stroke-width:0.8;"/>
      </defs>
      <g>
       <use style="stroke:#000000;stroke-width:0.8;" x="108" xlink:href="#m2f7d01a160" y="639.845771"/>
      </g>
     </g>
     <g id="text_9">
      <!-- $\mathdefault{0}$ -->
      <g transform="translate(97.183762 645.034634)scale(0.15 -0.15)">
       <use transform="scale(0.996264)" xlink:href="#CMR17-48"/>
      </g>
     </g>
    </g>
    <g id="ytick_2">
     <g id="line2d_17">
      <path clip-path="url(#pd881ff5129)" d="M 108 548.72886 
L 698.4 548.72886 
" style="fill:none;stroke:#e6e6e6;stroke-linecap:square;stroke-width:0.8;"/>
     </g>
     <g id="line2d_18">
      <g>
       <use style="stroke:#000000;stroke-width:0.8;" x="108" xlink:href="#m2f7d01a160" y="548.72886"/>
      </g>
     </g>
     <g id="text_10">
      <!-- $\mathdefault{50}$ -->
      <g transform="translate(89.867524 553.917722)scale(0.15 -0.15)">
       <use transform="scale(0.996264)" xlink:href="#CMR17-53"/>
       <use transform="translate(45.690477 0)scale(0.996264)" xlink:href="#CMR17-48"/>
      </g>
     </g>
    </g>
    <g id="ytick_3">
     <g id="line2d_19">
      <path clip-path="url(#pd881ff5129)" d="M 108 457.611948 
L 698.4 457.611948 
" style="fill:none;stroke:#e6e6e6;stroke-linecap:square;stroke-width:0.8;"/>
     </g>
     <g id="line2d_20">
      <g>
       <use style="stroke:#000000;stroke-width:0.8;" x="108" xlink:href="#m2f7d01a160" y="457.611948"/>
      </g>
     </g>
     <g id="text_11">
      <!-- $\mathdefault{100}$ -->
      <g transform="translate(82.551287 462.80081)scale(0.15 -0.15)">
       <use transform="scale(0.996264)" xlink:href="#CMR17-49"/>
       <use transform="translate(45.690477 0)scale(0.996264)" xlink:href="#CMR17-48"/>
       <use transform="translate(91.380954 0)scale(0.996264)" xlink:href="#CMR17-48"/>
      </g>
     </g>
    </g>
    <g id="ytick_4">
     <g id="line2d_21">
      <path clip-path="url(#pd881ff5129)" d="M 108 366.495036 
L 698.4 366.495036 
" style="fill:none;stroke:#e6e6e6;stroke-linecap:square;stroke-width:0.8;"/>
     </g>
     <g id="line2d_22">
      <g>
       <use style="stroke:#000000;stroke-width:0.8;" x="108" xlink:href="#m2f7d01a160" y="366.495036"/>
      </g>
     </g>
     <g id="text_12">
      <!-- $\mathdefault{150}$ -->
      <g transform="translate(82.551287 371.683899)scale(0.15 -0.15)">
       <use transform="scale(0.996264)" xlink:href="#CMR17-49"/>
       <use transform="translate(45.690477 0)scale(0.996264)" xlink:href="#CMR17-53"/>
       <use transform="translate(91.380954 0)scale(0.996264)" xlink:href="#CMR17-48"/>
      </g>
     </g>
    </g>
    <g id="ytick_5">
     <g id="line2d_23">
      <path clip-path="url(#pd881ff5129)" d="M 108 275.378125 
L 698.4 275.378125 
" style="fill:none;stroke:#e6e6e6;stroke-linecap:square;stroke-width:0.8;"/>
     </g>
     <g id="line2d_24">
      <g>
       <use style="stroke:#000000;stroke-width:0.8;" x="108" xlink:href="#m2f7d01a160" y="275.378125"/>
      </g>
     </g>
     <g id="text_13">
      <!-- $\mathdefault{200}$ -->
      <g transform="translate(82.551287 280.566987)scale(0.15 -0.15)">
       <use transform="scale(0.996264)" xlink:href="#CMR17-50"/>
       <use transform="translate(45.690477 0)scale(0.996264)" xlink:href="#CMR17-48"/>
       <use transform="translate(91.380954 0)scale(0.996264)" xlink:href="#CMR17-48"/>
      </g>
     </g>
    </g>
    <g id="ytick_6">
     <g id="line2d_25">
      <path clip-path="url(#pd881ff5129)" d="M 108 184.261213 
L 698.4 184.261213 
" style="fill:none;stroke:#e6e6e6;stroke-linecap:square;stroke-width:0.8;"/>
     </g>
     <g id="line2d_26">
      <g>
       <use style="stroke:#000000;stroke-width:0.8;" x="108" xlink:href="#m2f7d01a160" y="184.261213"/>
      </g>
     </g>
     <g id="text_14">
      <!-- $\mathdefault{250}$ -->
      <g transform="translate(82.551287 189.450076)scale(0.15 -0.15)">
       <use transform="scale(0.996264)" xlink:href="#CMR17-50"/>
       <use transform="translate(45.690477 0)scale(0.996264)" xlink:href="#CMR17-53"/>
       <use transform="translate(91.380954 0)scale(0.996264)" xlink:href="#CMR17-48"/>
      </g>
     </g>
    </g>
    <g id="ytick_7">
     <g id="line2d_27">
      <path clip-path="url(#pd881ff5129)" d="M 108 93.144302 
L 698.4 93.144302 
" style="fill:none;stroke:#e6e6e6;stroke-linecap:square;stroke-width:0.8;"/>
     </g>
     <g id="line2d_28">
      <g>
       <use style="stroke:#000000;stroke-width:0.8;" x="108" xlink:href="#m2f7d01a160" y="93.144302"/>
      </g>
     </g>
     <g id="text_15">
      <!-- $\mathdefault{300}$ -->
      <g transform="translate(82.551287 98.333164)scale(0.15 -0.15)">
       <use transform="scale(0.996264)" xlink:href="#CMR17-51"/>
       <use transform="translate(45.690477 0)scale(0.996264)" xlink:href="#CMR17-48"/>
       <use transform="translate(91.380954 0)scale(0.996264)" xlink:href="#CMR17-48"/>
      </g>
     </g>
    </g>
    <g id="text_16">
     <!-- $|f(\theta)|$ -->
     <g transform="translate(72.324636 417.899913)rotate(-90)scale(0.25 -0.25)">
      <defs>
       <path d="M 15.90625 71.40625 
C 15.90625 73.203125 15.90625 75 13.90625 75 
C 11.90625 75 11.90625 73.203125 11.90625 71.40625 
L 11.90625 -21.40625 
C 11.90625 -23.203125 11.90625 -25 13.90625 -25 
C 15.90625 -25 15.90625 -23.203125 15.90625 -21.40625 
z
" id="CMSY10-106"/>
       <path d="M 44.59375 40.09375 
C 46.59375 40.09375 47.40625 40.09375 47.40625 42 
C 47.40625 43 46.59375 43 44.796875 43 
L 36.703125 43 
C 38.59375 53.578125 40 60.890625 40.796875 64.171875 
C 41.40625 66.640625 43.5 69 46.09375 69 
C 48.203125 69 50.296875 68.09375 51.296875 67.15625 
C 47.40625 66.75 46.203125 63.78125 46.203125 62.015625 
C 46.203125 59.953125 47.703125 58.734375 49.59375 58.734375 
C 51.59375 58.734375 54.59375 60.46875 54.59375 64.359375 
C 54.59375 68.640625 50.40625 71 46 71 
C 41.703125 71 37.5 67.71875 35.5 63.71875 
C 33.703125 60.125 32.703125 56.421875 30.40625 43 
L 23.703125 43 
C 21.796875 43 20.796875 43 20.796875 41.203125 
C 20.796875 40.09375 21.40625 40.09375 23.40625 40.09375 
L 29.796875 40.09375 
C 28 30.875 23.90625 8.46875 21.59375 -2.140625 
C 19.90625 -10.765625 18.40625 -18 13.40625 -18 
C 13.09375 -18 10.203125 -18 8.40625 -16.109375 
C 13.5 -15.703125 13.5 -11.34375 13.5 -11.25 
C 13.5 -9.265625 12 -8.078125 10.09375 -8.078125 
C 8.09375 -8.078125 5.09375 -9.765625 5.09375 -13.546875 
C 5.09375 -17.8125 9.5 -20 13.40625 -20 
C 23.59375 -20 27.796875 -1.84375 28.90625 3.109375 
C 30.703125 10.75 35.59375 37.125 36.09375 40.09375 
z
" id="CMMI12-102"/>
      </defs>
      <use transform="scale(0.996264)" xlink:href="#CMSY10-106"/>
      <use transform="translate(27.674085 0)scale(0.996264)" xlink:href="#CMMI12-102"/>
      <use transform="translate(86.39439 0)scale(0.996264)" xlink:href="#CMR17-40"/>
      <use transform="translate(121.675157 0)scale(0.996264)" xlink:href="#CMMI12-18"/>
      <use transform="translate(169.844665 0)scale(0.996264)" xlink:href="#CMR17-41"/>
      <use transform="translate(205.125433 0)scale(0.996264)" xlink:href="#CMSY10-106"/>
     </g>
    </g>
   </g>
   <g id="line2d_29">
    <path clip-path="url(#pd881ff5129)" d="M 108.01968 114.33719 
L 109.659625 115.641526 
L 111.299571 119.476805 
L 112.939516 125.794145 
L 114.579461 134.513285 
L 116.219407 145.523988 
L 117.859352 158.687954 
L 119.499297 173.841211 
L 121.139243 190.796942 
L 122.779188 209.348674 
L 126.059079 250.33722 
L 129.338969 294.90034 
L 137.538696 409.119763 
L 140.818587 451.240384 
L 144.098477 489.167293 
L 145.738423 506.244225 
L 147.378368 521.94555 
L 149.018313 536.214531 
L 150.658259 549.019561 
L 152.298204 560.353427 
L 153.938149 570.232135 
L 155.578095 578.693349 
L 157.21804 585.794482 
L 158.857985 591.61049 
L 160.497931 596.231422 
L 162.137876 599.7598 
L 163.777821 602.307874 
L 165.417767 603.994825 
L 167.057712 604.943974 
L 168.697657 605.280057 
L 170.337603 605.126623 
L 171.977548 604.603601 
L 173.617493 603.825087 
L 180.177275 600.132579 
L 181.81722 599.463645 
L 183.457165 599.012943 
L 185.097111 598.81623 
L 186.737056 598.896564 
L 188.377001 599.264854 
L 190.016947 599.920661 
L 191.656892 600.853228 
L 193.296837 602.042691 
L 194.936783 603.461432 
L 196.576728 605.075549 
L 199.856619 608.732005 
L 208.056345 618.375734 
L 211.336236 621.614421 
L 212.976181 622.983434 
L 214.616127 624.162648 
L 216.256072 625.142543 
L 217.896017 625.919718 
L 219.535963 626.496669 
L 221.175908 626.881403 
L 222.815853 627.086914 
L 224.455799 627.130532 
L 226.095744 627.033188 
L 229.375635 626.512403 
L 234.295471 625.311622 
L 237.575361 624.533126 
L 240.855252 623.977411 
L 244.135143 623.767052 
L 247.415033 623.965998 
L 250.694924 624.577698 
L 253.974815 625.550533 
L 257.254705 626.789274 
L 267.094377 630.834873 
L 270.374268 631.886852 
L 273.654159 632.646458 
L 276.934049 633.082421 
L 280.21394 633.204051 
L 283.493831 633.057161 
L 288.413667 632.500451 
L 296.613393 631.449629 
L 299.893284 631.231982 
L 303.173175 631.212434 
L 306.453065 631.407476 
L 309.732956 631.804384 
L 314.652792 632.688819 
L 326.132409 634.984414 
L 329.4123 635.419821 
L 332.692191 635.68552 
L 335.972081 635.776086 
L 340.891917 635.6243 
L 347.451699 635.100224 
L 354.01148 634.59229 
L 358.931316 634.441571 
L 363.851152 634.574429 
L 368.770988 634.975762 
L 376.970715 635.973874 
L 383.530496 636.702339 
L 388.450332 637.026836 
L 393.370168 637.107451 
L 398.290004 636.970252 
L 416.329403 636.158464 
L 421.249239 636.252056 
L 427.80902 636.642711 
L 442.568528 637.738754 
L 447.488364 637.882427 
L 454.048145 637.821728 
L 465.527763 637.35439 
L 472.087544 637.186681 
L 478.647325 637.246369 
L 486.847052 637.616597 
L 499.966615 638.292531 
L 506.526396 638.389946 
L 514.726123 638.239542 
L 529.485631 637.840991 
L 536.045412 637.88222 
L 544.245139 638.154665 
L 559.004647 638.688053 
L 567.204373 638.700576 
L 580.323936 638.392996 
L 590.163608 638.282095 
L 598.363335 638.416781 
L 619.682624 638.959568 
L 629.522296 638.870798 
L 647.561695 638.597241 
L 657.401367 638.727732 
L 678.720656 639.134853 
L 690.200273 639.015229 
L 698.4 638.878995 
L 698.4 638.878995 
" style="fill:none;stroke:#000000;stroke-linecap:square;stroke-width:2;"/>
   </g>
   <g id="line2d_30">
    <path clip-path="url(#pd881ff5129)" d="M 108.01968 639.347059 
L 698.4 639.426522 
L 698.4 639.426522 
" style="fill:none;stroke:#000096;stroke-dasharray:7.4,3.2;stroke-dashoffset:0;stroke-width:2;"/>
   </g>
   <g id="line2d_31">
    <path clip-path="url(#pd881ff5129)" d="M 108.01968 638.851484 
L 350.731589 638.962723 
L 693.480164 639.374214 
L 698.4 639.38078 
L 698.4 639.38078 
" style="fill:none;stroke:#0000ad;stroke-dasharray:7.4,3.2;stroke-dashoffset:0;stroke-width:2;"/>
   </g>
   <g id="line2d_32">
    <path clip-path="url(#pd881ff5129)" d="M 108.01968 638.440813 
L 242.495197 638.551085 
L 406.489731 638.924059 
L 698.4 639.694367 
L 698.4 639.694367 
" style="fill:none;stroke:#0000c4;stroke-dasharray:7.4,3.2;stroke-dashoffset:0;stroke-width:2;"/>
   </g>
   <g id="line2d_33">
    <path clip-path="url(#pd881ff5129)" d="M 108.01968 638.09017 
L 198.216673 638.2011 
L 301.533229 638.559211 
L 629.522296 639.873545 
L 698.4 639.970506 
L 698.4 639.970506 
" style="fill:none;stroke:#0000da;stroke-dasharray:7.4,3.2;stroke-dashoffset:0;stroke-width:2;"/>
   </g>
   <g id="line2d_34">
    <path clip-path="url(#pd881ff5129)" d="M 108.01968 637.781968 
L 175.257439 637.895584 
L 250.694924 638.258321 
L 396.650059 639.257981 
L 491.766888 639.767331 
L 575.4041 639.988528 
L 672.160875 640.006978 
L 698.4 639.983571 
L 698.4 639.983571 
" style="fill:none;stroke:#0000f1;stroke-dasharray:7.4,3.2;stroke-dashoffset:0;stroke-width:2;"/>
   </g>
   <g id="line2d_35">
    <path clip-path="url(#pd881ff5129)" d="M 108.01968 637.505114 
L 160.497931 637.618456 
L 217.896017 637.972871 
L 303.173175 638.754739 
L 401.569895 639.599688 
L 467.167708 639.931448 
L 534.405467 640.046541 
L 626.242405 639.957691 
L 698.4 639.836575 
L 698.4 639.836575 
" style="fill:none;stroke:#0000ff;stroke-dasharray:7.4,3.2;stroke-dashoffset:0;stroke-width:2;"/>
   </g>
   <g id="line2d_36">
    <path clip-path="url(#pd881ff5129)" d="M 108.01968 637.252364 
L 150.658259 637.365431 
L 196.576728 637.71485 
L 260.534596 638.451898 
L 355.651425 639.539471 
L 409.769621 639.914577 
L 463.887817 640.062818 
L 532.765521 640.008573 
L 698.4 639.753441 
L 698.4 639.753441 
" style="fill:none;stroke:#000cff;stroke-dasharray:7.4,3.2;stroke-dashoffset:0;stroke-width:2;"/>
   </g>
   <g id="line2d_37">
    <path clip-path="url(#pd881ff5129)" d="M 108.01968 637.018766 
L 144.098477 637.134167 
L 183.457165 637.498386 
L 234.295471 638.214817 
L 324.492464 639.510756 
L 368.770988 639.901785 
L 414.689457 640.076724 
L 468.807653 640.046902 
L 654.121476 639.758782 
L 698.4 639.808611 
L 698.4 639.808611 
" style="fill:none;stroke:#0020ff;stroke-dasharray:7.4,3.2;stroke-dashoffset:0;stroke-width:2;"/>
   </g>
   <g id="line2d_38">
    <path clip-path="url(#pd881ff5129)" d="M 108.01968 636.800795 
L 139.178641 636.91825 
L 171.977548 637.273598 
L 212.976181 637.953255 
L 303.173175 639.522565 
L 340.891917 639.915224 
L 380.250605 640.094197 
L 426.169075 640.068047 
L 595.083444 639.754797 
L 698.4 639.893667 
L 698.4 639.893667 
" style="fill:none;stroke:#0038ff;stroke-dasharray:7.4,3.2;stroke-dashoffset:0;stroke-width:2;"/>
   </g>
   <g id="line2d_39">
    <path clip-path="url(#pd881ff5129)" d="M 108.01968 636.595848 
L 134.258805 636.705818 
L 162.137876 637.045027 
L 196.576728 637.697963 
L 290.053612 639.59816 
L 322.852519 639.964238 
L 357.291371 640.118819 
L 399.929949 640.065185 
L 531.125576 639.734415 
L 698.4 639.89591 
L 698.4 639.89591 
" style="fill:none;stroke:#004cff;stroke-dasharray:7.4,3.2;stroke-dashoffset:0;stroke-width:2;"/>
   </g>
   <g id="line2d_40">
    <path clip-path="url(#pd881ff5129)" d="M 108.01968 636.401952 
L 130.978915 636.510028 
L 155.578095 636.848303 
L 185.097111 637.485049 
L 276.934049 639.640394 
L 306.453065 639.998922 
L 337.612027 640.139371 
L 375.330769 640.07017 
L 486.847052 639.724502 
L 570.484264 639.874044 
L 647.561695 639.895136 
L 698.4 639.833592 
L 698.4 639.833592 
" style="fill:none;stroke:#0060ff;stroke-dasharray:7.4,3.2;stroke-dashoffset:0;stroke-width:2;"/>
   </g>
   <g id="line2d_41">
    <path clip-path="url(#pd881ff5129)" d="M 108.01968 636.21757 
L 129.338969 636.33439 
L 152.298204 636.70197 
L 178.537329 637.354914 
L 262.174541 639.617195 
L 288.413667 639.992865 
L 314.652792 640.148609 
L 347.451699 640.105988 
L 465.527763 639.72755 
L 636.082077 639.849668 
L 698.4 639.801043 
L 698.4 639.801043 
" style="fill:none;stroke:#0074ff;stroke-dasharray:7.4,3.2;stroke-dashoffset:0;stroke-width:2;"/>
   </g>
   <g id="line2d_42">
    <path clip-path="url(#pd881ff5129)" d="M 108.01968 636.041482 
L 126.059079 636.144634 
L 145.738423 636.477337 
L 168.697657 637.095207 
L 257.254705 639.743751 
L 280.21394 640.058214 
L 304.81312 640.172823 
L 335.972081 640.08342 
L 422.889184 639.710322 
L 478.647325 639.824789 
L 547.525029 639.916255 
L 698.4 639.833687 
L 698.4 639.833687 
" style="fill:none;stroke:#0088ff;stroke-dasharray:7.4,3.2;stroke-dashoffset:0;stroke-width:2;"/>
   </g>
   <g id="line2d_43">
    <path clip-path="url(#pd881ff5129)" d="M 108.01968 635.872702 
L 124.419133 635.976022 
L 142.458532 636.313468 
L 163.777821 636.95296 
L 203.136509 638.434091 
L 231.01558 639.359146 
L 252.334869 639.850047 
L 273.654159 640.118844 
L 296.613393 640.18592 
L 329.4123 640.029448 
L 390.090277 639.71163 
L 432.728856 639.761611 
L 518.006013 639.917578 
L 688.560328 639.869551 
L 698.4 639.875848 
L 698.4 639.875848 
" style="fill:none;stroke:#009cff;stroke-dasharray:7.4,3.2;stroke-dashoffset:0;stroke-width:2;"/>
   </g>
   <g id="line2d_44">
    <path clip-path="url(#pd881ff5129)" d="M 108.01968 635.710419 
L 124.419133 635.833701 
L 140.818587 636.187324 
L 160.497931 636.851772 
L 196.576728 638.367549 
L 221.175908 639.287604 
L 240.855252 639.812514 
L 260.534596 640.11147 
L 281.853885 640.201787 
L 309.732956 640.07395 
L 373.690824 639.702638 
L 413.049512 639.765388 
L 488.486997 639.922245 
L 660.681257 639.878331 
L 698.4 639.870378 
L 698.4 639.870378 
" style="fill:none;stroke:#00b0ff;stroke-dasharray:7.4,3.2;stroke-dashoffset:0;stroke-width:2;"/>
   </g>
   <g id="line2d_45">
    <path clip-path="url(#pd881ff5129)" d="M 108.01968 635.553961 
L 122.779188 635.672007 
L 137.538696 636.011707 
L 155.578095 636.668926 
L 183.457165 637.956803 
L 211.336236 639.16612 
L 229.375635 639.734152 
L 247.415033 640.079528 
L 267.094377 640.213915 
L 291.693557 640.12447 
L 363.851152 639.692971 
L 404.849785 639.80649 
L 460.607927 639.928067 
L 698.4 639.833016 
L 698.4 639.833016 
" style="fill:none;stroke:#00c4ff;stroke-dasharray:7.4,3.2;stroke-dashoffset:0;stroke-width:2;"/>
   </g>
   <g id="line2d_46">
    <path clip-path="url(#pd881ff5129)" d="M 108.01968 635.40276 
L 121.139243 635.511917 
L 135.898751 635.879836 
L 152.298204 636.534827 
L 178.537329 637.865211 
L 204.776455 639.122587 
L 222.815853 639.746494 
L 239.215307 640.087916 
L 257.254705 640.226162 
L 278.573995 640.152061 
L 352.371535 639.689239 
L 395.010113 639.839204 
L 440.928583 639.930118 
L 698.4 639.818889 
L 698.4 639.818889 
" style="fill:none;stroke:#00dcfe;stroke-dasharray:7.4,3.2;stroke-dashoffset:0;stroke-width:2;"/>
   </g>
   <g id="line2d_47">
    <path clip-path="url(#pd881ff5129)" d="M 108.01968 635.256333 
L 121.139243 635.382607 
L 134.258805 635.745907 
L 149.018313 636.384773 
L 171.977548 637.648711 
L 198.216673 639.04503 
L 214.616127 639.687 
L 229.375635 640.053407 
L 245.775088 640.229312 
L 265.454432 640.18963 
L 347.451699 639.700589 
L 445.848419 639.885942 
L 514.726123 639.802059 
L 622.962515 639.84217 
L 698.4 639.843216 
L 698.4 639.843216 
" style="fill:none;stroke:#09f0ee;stroke-dasharray:7.4,3.2;stroke-dashoffset:0;stroke-width:2;"/>
   </g>
   <g id="line2d_48">
    <path clip-path="url(#pd881ff5129)" d="M 108.01968 635.114266 
L 119.499297 635.225529 
L 130.978915 635.547434 
L 144.098477 636.131561 
L 162.137876 637.176979 
L 193.296837 639.011764 
L 208.056345 639.6489 
L 222.815853 640.056592 
L 237.575361 640.236621 
L 255.61476 640.211383 
L 290.053612 639.851417 
L 317.932683 639.681404 
L 347.451699 639.748296 
L 406.489731 639.934795 
L 545.885084 639.884837 
L 698.4 639.867415 
L 698.4 639.867415 
" style="fill:none;stroke:#19ffde;stroke-dasharray:7.4,3.2;stroke-dashoffset:0;stroke-width:2;"/>
   </g>
   <g id="line2d_49">
    <path clip-path="url(#pd881ff5129)" d="M 108.01968 634.9762 
L 119.499297 635.102964 
L 130.978915 635.468371 
L 144.098477 636.125914 
L 162.137876 637.281691 
L 188.377001 638.95172 
L 203.136509 639.646473 
L 216.256072 640.045017 
L 229.375635 640.2368 
L 245.775088 640.238595 
L 272.014213 639.956654 
L 301.533229 639.69332 
L 327.772355 639.708152 
L 399.929949 639.92262 
L 485.207107 639.821545 
L 555.724756 639.864966 
L 641.001913 639.846303 
L 698.4 639.858768 
L 698.4 639.858768 
" style="fill:none;stroke:#29ffce;stroke-dasharray:7.4,3.2;stroke-dashoffset:0;stroke-width:2;"/>
   </g>
   <g id="line2d_50">
    <path clip-path="url(#pd881ff5129)" d="M 108.01968 634.841822 
L 117.859352 634.947583 
L 127.699024 635.254523 
L 139.178641 635.829558 
L 153.938149 636.804188 
L 186.737056 639.05427 
L 199.856619 639.691946 
L 212.976181 640.093226 
L 226.095744 640.264069 
L 242.495197 640.22449 
L 278.573995 639.787587 
L 301.533229 639.66781 
L 329.4123 639.771875 
L 373.690824 639.943301 
L 421.249239 639.809173 
L 463.887817 639.813595 
L 534.405467 639.865073 
L 614.762788 639.845812 
L 695.120109 639.835924 
L 698.4 639.833538 
L 698.4 639.833538 
" style="fill:none;stroke:#39ffbe;stroke-dasharray:7.4,3.2;stroke-dashoffset:0;stroke-width:2;"/>
   </g>
   <g id="line2d_51">
    <path clip-path="url(#pd881ff5129)" d="M 108.01968 634.710858 
L 117.859352 634.829881 
L 127.699024 635.174281 
L 139.178641 635.815083 
L 153.938149 636.885931 
L 181.81722 638.950493 
L 194.936783 639.655713 
L 206.4164 640.05609 
L 219.535963 640.267524 
L 234.295471 640.252149 
L 258.894651 639.936785 
L 285.133776 639.67972 
L 308.093011 639.702416 
L 372.050879 639.929953 
L 452.4082 639.82471 
L 511.446232 639.871175 
L 591.803553 639.846404 
L 667.241039 639.836183 
L 698.4 639.82831 
L 698.4 639.82831 
" style="fill:none;stroke:#49ffad;stroke-dasharray:7.4,3.2;stroke-dashoffset:0;stroke-width:2;"/>
   </g>
   <g id="line2d_52">
    <path clip-path="url(#pd881ff5129)" d="M 108.01968 634.583065 
L 117.859352 634.716288 
L 127.699024 635.100577 
L 139.178641 635.810464 
L 153.938149 636.979203 
L 176.897384 638.811061 
L 188.377001 639.513377 
L 199.856619 639.993762 
L 211.336236 640.244569 
L 224.455799 640.290283 
L 242.495197 640.091211 
L 275.294104 639.685912 
L 296.613393 639.685141 
L 365.491097 639.916679 
L 427.80902 639.800203 
L 501.60656 639.857162 
L 565.564428 639.839341 
L 639.361968 639.8389 
L 698.4 639.847717 
L 698.4 639.847717 
" style="fill:none;stroke:#5aff9d;stroke-dasharray:7.4,3.2;stroke-dashoffset:0;stroke-width:2;"/>
   </g>
   <g id="line2d_53">
    <path clip-path="url(#pd881ff5129)" d="M 108.01968 634.458227 
L 116.219407 634.561664 
L 124.419133 634.862552 
L 134.258805 635.448985 
L 147.378368 636.499441 
L 176.897384 638.993997 
L 188.377001 639.680529 
L 198.216673 640.066621 
L 209.696291 640.283696 
L 222.815853 640.280178 
L 242.495197 640.004074 
L 267.094377 639.689652 
L 286.773721 639.672511 
L 360.571261 639.894658 
L 409.769621 639.789446 
L 493.406833 639.840216 
L 547.525029 639.84117 
L 616.402733 639.839196 
L 698.4 639.862145 
L 698.4 639.862145 
" style="fill:none;stroke:#6aff8d;stroke-dasharray:7.4,3.2;stroke-dashoffset:0;stroke-width:2;"/>
   </g>
   <g id="line2d_54">
    <path clip-path="url(#pd881ff5129)" d="M 108.01968 634.336152 
L 116.219407 634.450864 
L 124.419133 634.783764 
L 134.258805 635.429002 
L 145.738423 636.417602 
L 173.617493 638.935445 
L 183.457165 639.584749 
L 193.296837 640.028569 
L 203.136509 640.264302 
L 214.616127 640.313549 
L 231.01558 640.114912 
L 262.174541 639.676669 
L 281.853885 639.679498 
L 344.171808 639.922497 
L 401.569895 639.796822 
L 468.807653 639.859967 
L 527.845685 639.837941 
L 595.083444 639.839806 
L 672.160875 639.862221 
L 698.4 639.852314 
L 698.4 639.852314 
" style="fill:none;stroke:#7dff7a;stroke-dasharray:7.4,3.2;stroke-dashoffset:0;stroke-width:2;"/>
   </g>
   <g id="line2d_55">
    <path clip-path="url(#pd881ff5129)" d="M 108.01968 634.216666 
L 116.219407 634.343352 
L 124.419133 634.7101 
L 134.258805 635.416841 
L 145.738423 636.487565 
L 170.337603 638.854546 
L 180.177275 639.556557 
L 190.016947 640.032615 
L 199.856619 640.278933 
L 211.336236 640.319416 
L 226.095744 640.124087 
L 255.61476 639.677111 
L 273.654159 639.667911 
L 337.612027 639.913176 
L 386.810387 639.787704 
L 460.607927 639.846597 
L 511.446232 639.837642 
L 575.4041 639.840514 
L 647.561695 639.861908 
L 698.4 639.834505 
L 698.4 639.834505 
" style="fill:none;stroke:#8dff6a;stroke-dasharray:7.4,3.2;stroke-dashoffset:0;stroke-width:2;"/>
   </g>
   <g id="line2d_56">
    <path clip-path="url(#pd881ff5129)" d="M 108.01968 634.099615 
L 116.219407 634.238985 
L 124.419133 634.641426 
L 132.61886 635.26593 
L 144.098477 636.392104 
L 167.057712 638.748915 
L 176.897384 639.511366 
L 186.737056 640.027114 
L 196.576728 640.289786 
L 206.4164 640.335015 
L 221.175908 640.140232 
L 250.694924 639.669704 
L 267.094377 639.662074 
L 331.052245 639.904872 
L 375.330769 639.784143 
L 450.768255 639.838578 
L 496.686724 639.838099 
L 557.364701 639.841068 
L 624.60246 639.861106 
L 698.4 639.834212 
L 698.4 639.834212 
" style="fill:none;stroke:#9dff5a;stroke-dasharray:7.4,3.2;stroke-dashoffset:0;stroke-width:2;"/>
   </g>
   <g id="line2d_57">
    <path clip-path="url(#pd881ff5129)" d="M 108.01968 633.984857 
L 114.579461 634.083083 
L 121.139243 634.369604 
L 129.338969 634.960578 
L 139.178641 635.923947 
L 168.697657 639.061983 
L 178.537329 639.764429 
L 186.737056 640.136186 
L 196.576728 640.335889 
L 208.056345 640.299556 
L 227.735689 639.924985 
L 245.775088 639.664887 
L 262.174541 639.662701 
L 319.572628 639.923738 
L 368.770988 639.790328 
L 431.088911 639.857641 
L 480.287271 639.833267 
L 540.965248 639.841185 
L 604.923116 639.860889 
L 698.4 639.850019 
L 698.4 639.850019 
" style="fill:none;stroke:#adff49;stroke-dasharray:7.4,3.2;stroke-dashoffset:0;stroke-width:2;"/>
   </g>
   <g id="line2d_58">
    <path clip-path="url(#pd881ff5129)" d="M 108.01968 633.872264 
L 114.579461 633.979609 
L 121.139243 634.29218 
L 129.338969 634.934143 
L 139.178641 635.971687 
L 165.417767 638.938842 
L 173.617493 639.602409 
L 181.81722 640.056339 
L 190.016947 640.2997 
L 199.856619 640.353178 
L 212.976181 640.160092 
L 240.855252 639.662637 
L 257.254705 639.661705 
L 311.372901 639.929571 
L 360.571261 639.791717 
L 417.969348 639.863182 
L 467.167708 639.832679 
L 524.565795 639.843098 
L 585.243772 639.859571 
L 698.4 639.858346 
L 698.4 639.858346 
" style="fill:none;stroke:#beff39;stroke-dasharray:7.4,3.2;stroke-dashoffset:0;stroke-width:2;"/>
   </g>
   <g id="line2d_59">
    <path clip-path="url(#pd881ff5129)" d="M 108.01968 633.76172 
L 114.579461 633.878668 
L 121.139243 634.218585 
L 129.338969 634.913636 
L 139.178641 636.026998 
L 162.137876 638.785996 
L 170.337603 639.517067 
L 178.537329 640.022657 
L 186.737056 640.297495 
L 196.576728 640.363746 
L 208.056345 640.196724 
L 237.575361 639.650751 
L 252.334869 639.658717 
L 304.81312 639.929917 
L 350.731589 639.786479 
L 408.129676 639.861883 
L 454.048145 639.830196 
L 509.806287 639.844248 
L 567.204373 639.858145 
L 686.920383 639.855952 
L 698.4 639.848332 
L 698.4 639.848332 
" style="fill:none;stroke:#ceff29;stroke-dasharray:7.4,3.2;stroke-dashoffset:0;stroke-width:2;"/>
   </g>
   <g id="line2d_60">
    <path clip-path="url(#pd881ff5129)" d="M 108.01968 633.653118 
L 114.579461 633.780162 
L 121.139243 634.148731 
L 127.699024 634.727021 
L 135.898751 635.668977 
L 163.777821 639.110841 
L 171.977548 639.777694 
L 180.177275 640.192166 
L 188.377001 640.366965 
L 198.216673 640.327427 
L 214.616127 639.965941 
L 231.01558 639.667434 
L 245.775088 639.643249 
L 303.173175 639.90326 
L 339.251972 639.775991 
L 408.129676 639.832723 
L 445.848419 639.836861 
L 496.686724 639.844266 
L 552.444865 639.858614 
L 668.880984 639.855567 
L 698.4 639.835669 
L 698.4 639.835669 
" style="fill:none;stroke:#deff19;stroke-dasharray:7.4,3.2;stroke-dashoffset:0;stroke-width:2;"/>
   </g>
   <g id="line2d_61">
    <path clip-path="url(#pd881ff5129)" d="M 108.01968 633.546361 
L 114.579461 633.684001 
L 121.139243 634.082534 
L 127.699024 634.705369 
L 135.898751 635.712593 
L 160.497931 638.939059 
L 168.697657 639.684317 
L 176.897384 640.15815 
L 185.097111 640.368313 
L 194.936783 640.342442 
L 209.696291 640.008768 
L 226.095744 639.67621 
L 239.215307 639.628674 
L 258.894651 639.821522 
L 280.21394 639.96882 
L 303.173175 639.861581 
L 331.052245 639.772832 
L 403.20984 639.820729 
L 439.288637 639.846617 
L 483.567161 639.845834 
L 536.045412 639.856242 
L 634.442132 639.857984 
L 698.4 639.838284 
L 698.4 639.838284 
" style="fill:none;stroke:#eeff09;stroke-dasharray:7.4,3.2;stroke-dashoffset:0;stroke-width:2;"/>
   </g>
   <g id="line2d_62">
    <path clip-path="url(#pd881ff5129)" d="M 108.01968 633.441358 
L 114.579461 633.5901 
L 121.139243 634.019918 
L 127.699024 634.688902 
L 135.898751 635.762707 
L 157.21804 638.7305 
L 165.417767 639.564317 
L 171.977548 640.023951 
L 178.537329 640.294744 
L 186.737056 640.397449 
L 196.576728 640.270811 
L 229.375635 639.621184 
L 244.135143 639.696091 
L 276.934049 639.970524 
L 301.533229 639.831464 
L 326.132409 639.775939 
L 386.810387 639.841919 
L 422.889184 639.830648 
L 472.087544 639.84583 
L 522.925849 639.85642 
L 616.402733 639.857364 
L 698.4 639.851165 
L 698.4 639.851165 
" style="fill:none;stroke:#feed00;stroke-dasharray:7.4,3.2;stroke-dashoffset:0;stroke-width:2;"/>
   </g>
   <g id="line2d_63">
    <path clip-path="url(#pd881ff5129)" d="M 108.01968 633.338027 
L 112.939516 633.428759 
L 117.859352 633.694157 
L 124.419133 634.291431 
L 130.978915 635.10931 
L 142.458532 636.821251 
L 153.938149 638.480746 
L 162.137876 639.412915 
L 168.697657 639.940995 
L 175.257439 640.264038 
L 183.457165 640.405946 
L 193.296837 640.292842 
L 226.095744 639.616708 
L 240.855252 639.702235 
L 270.374268 639.973009 
L 291.693557 639.861893 
L 317.932683 639.770505 
L 383.530496 639.825923 
L 416.329403 639.837712 
L 460.607927 639.847235 
L 509.806287 639.855548 
L 585.243772 639.842717 
L 695.120109 639.855856 
L 698.4 639.855382 
L 698.4 639.855382 
" style="fill:none;stroke:#ffd700;stroke-dasharray:7.4,3.2;stroke-dashoffset:0;stroke-width:2;"/>
   </g>
   <g id="line2d_64">
    <path clip-path="url(#pd881ff5129)" d="M 108.01968 633.23629 
L 112.939516 633.333912 
L 117.859352 633.619122 
L 124.419133 634.259023 
L 130.978915 635.130419 
L 142.458532 636.931749 
L 152.298204 638.414804 
L 158.857985 639.22483 
L 165.417767 639.831654 
L 171.977548 640.217664 
L 178.537329 640.39468 
L 186.737056 640.378355 
L 198.216673 640.099113 
L 216.256072 639.664013 
L 227.735689 639.617036 
L 245.775088 639.818043 
L 265.454432 639.974891 
L 285.133776 639.872646 
L 311.372901 639.768189 
L 378.61066 639.817376 
L 411.409567 639.848569 
L 450.768255 639.846579 
L 498.326669 639.855869 
L 567.204373 639.837931 
L 683.640492 639.854774 
L 698.4 639.845746 
L 698.4 639.845746 
" style="fill:none;stroke:#ffc400;stroke-dasharray:7.4,3.2;stroke-dashoffset:0;stroke-width:2;"/>
   </g>
   <g id="line2d_65">
    <path clip-path="url(#pd881ff5129)" d="M 108.01968 633.136078 
L 112.939516 633.240892 
L 117.859352 633.546737 
L 124.419133 634.230778 
L 130.978915 635.156957 
L 157.21804 639.189486 
L 163.777821 639.827902 
L 170.337603 640.229329 
L 176.897384 640.407002 
L 185.097111 640.377744 
L 198.216673 640.024776 
L 212.976181 639.664994 
L 224.455799 639.613783 
L 240.855252 639.802094 
L 260.534596 639.97644 
L 280.21394 639.872966 
L 304.81312 639.765354 
L 378.61066 639.804538 
L 495.046779 639.864485 
L 670.520929 639.85342 
L 698.4 639.83692 
L 698.4 639.83692 
" style="fill:none;stroke:#ffb200;stroke-dasharray:7.4,3.2;stroke-dashoffset:0;stroke-width:2;"/>
   </g>
   <g id="line2d_66">
    <path clip-path="url(#pd881ff5129)" d="M 108.01968 633.037325 
L 112.939516 633.149636 
L 117.859352 633.476945 
L 122.779188 633.996532 
L 129.338969 634.925516 
L 139.178641 636.596511 
L 149.018313 638.23816 
L 155.578095 639.142504 
L 162.137876 639.816654 
L 168.697657 640.237018 
L 175.257439 640.417891 
L 183.457165 640.377628 
L 196.576728 640.001583 
L 209.696291 639.668963 
L 221.175908 639.609784 
L 237.575361 639.80616 
L 255.61476 639.977257 
L 273.654159 639.890083 
L 299.893284 639.764919 
L 365.491097 639.8126 
L 396.650059 639.85369 
L 432.728856 639.845148 
L 475.367435 639.853491 
L 527.845685 639.828621 
L 698.4 639.841252 
L 698.4 639.841252 
" style="fill:none;stroke:#ff9f00;stroke-dasharray:7.4,3.2;stroke-dashoffset:0;stroke-width:2;"/>
   </g>
   <g id="line2d_67">
    <path clip-path="url(#pd881ff5129)" d="M 108.01968 632.939968 
L 112.939516 633.060087 
L 117.859352 633.409696 
L 122.779188 633.96322 
L 129.338969 634.94794 
L 140.818587 636.996428 
L 149.018313 638.384356 
L 155.578095 639.286236 
L 162.137876 639.933727 
L 168.697657 640.309958 
L 175.257439 640.439466 
L 183.457165 640.341819 
L 214.616127 639.600471 
L 227.735689 639.706109 
L 252.334869 639.980075 
L 270.374268 639.880748 
L 294.973448 639.764052 
L 357.291371 639.815725 
L 386.810387 639.847086 
L 422.889184 639.848171 
L 465.527763 639.853446 
L 516.366068 639.828402 
L 698.4 639.851626 
L 698.4 639.851626 
" style="fill:none;stroke:#ff8d00;stroke-dasharray:7.4,3.2;stroke-dashoffset:0;stroke-width:2;"/>
   </g>
   <g id="line2d_68">
    <path clip-path="url(#pd881ff5129)" d="M 108.01968 632.84395 
L 112.939516 632.972191 
L 117.859352 633.344941 
L 122.779188 633.933504 
L 129.338969 634.975175 
L 152.298204 639.009844 
L 158.857985 639.769414 
L 165.417767 640.239915 
L 171.977548 640.436148 
L 178.537329 640.412019 
L 188.377001 640.134565 
L 204.776455 639.659034 
L 214.616127 639.599958 
L 229.375635 639.77978 
L 247.415033 639.979596 
L 263.814487 639.903869 
L 290.053612 639.762671 
L 352.371535 639.811317 
L 381.890551 639.854277 
L 414.689457 639.848396 
L 455.688091 639.85245 
L 503.246505 639.828853 
L 698.4 639.852965 
L 698.4 639.852965 
" style="fill:none;stroke:#ff7a00;stroke-dasharray:7.4,3.2;stroke-dashoffset:0;stroke-width:2;"/>
   </g>
   <g id="line2d_69">
    <path clip-path="url(#pd881ff5129)" d="M 108.01968 632.74922 
L 112.939516 632.8859 
L 117.859352 633.282635 
L 122.779188 633.907329 
L 129.338969 635.007096 
L 150.658259 638.921944 
L 157.21804 639.731913 
L 162.137876 640.137787 
L 168.697657 640.416312 
L 175.257439 640.441723 
L 183.457165 640.240918 
L 203.136509 639.644096 
L 212.976181 639.60134 
L 227.735689 639.802598 
L 244.135143 639.981945 
L 260.534596 639.898605 
L 285.133776 639.760805 
L 347.451699 639.808002 
L 376.970715 639.860388 
L 409.769621 639.841108 
L 447.488364 639.853614 
L 493.406833 639.828561 
L 698.4 639.844043 
L 698.4 639.844043 
" style="fill:none;stroke:#ff6800;stroke-dasharray:7.4,3.2;stroke-dashoffset:0;stroke-width:2;"/>
   </g>
   <g id="line2d_70">
    <path clip-path="url(#pd881ff5129)" d="M 108.01968 632.655725 
L 112.939516 632.801165 
L 117.859352 633.222736 
L 122.779188 633.88464 
L 129.338969 635.043576 
L 149.018313 638.817971 
L 153.938149 639.497115 
L 158.857985 639.99524 
L 163.777821 640.308161 
L 170.337603 640.463913 
L 176.897384 640.388982 
L 190.016947 639.933304 
L 201.496564 639.631353 
L 211.336236 639.604146 
L 227.735689 639.851662 
L 242.495197 639.986297 
L 258.894651 639.877848 
L 280.21394 639.758603 
L 352.371535 639.804823 
L 417.969348 639.818702 
L 698.4 639.838198 
L 698.4 639.838198 
" style="fill:none;stroke:#ff5500;stroke-dasharray:7.4,3.2;stroke-dashoffset:0;stroke-width:2;"/>
   </g>
   <g id="line2d_71">
    <path clip-path="url(#pd881ff5129)" d="M 108.01968 632.56342 
L 112.939516 632.717945 
L 117.859352 633.165205 
L 122.779188 633.865386 
L 129.338969 635.084488 
L 147.378368 638.696505 
L 152.298204 639.423393 
L 157.21804 639.959812 
L 162.137876 640.299029 
L 167.057712 640.45498 
L 173.617493 640.432433 
L 183.457165 640.113762 
L 196.576728 639.676777 
L 206.4164 639.588179 
L 219.535963 639.755792 
L 237.575361 639.985323 
L 252.334869 639.909666 
L 276.934049 639.759132 
L 334.332136 639.81142 
L 360.571261 639.848724 
L 391.730223 639.851185 
L 429.448965 639.850088 
L 472.087544 639.830024 
L 580.323936 639.857089 
L 698.4 639.843476 
L 698.4 639.843476 
" style="fill:none;stroke:#ff3f00;stroke-dasharray:7.4,3.2;stroke-dashoffset:0;stroke-width:2;"/>
   </g>
   <g id="line2d_72">
    <path clip-path="url(#pd881ff5129)" d="M 108.01968 632.472261 
L 112.939516 632.636199 
L 117.859352 633.110005 
L 122.779188 633.849515 
L 129.338969 635.129699 
L 145.738423 638.556032 
L 150.658259 639.335026 
L 155.578095 639.914563 
L 160.497931 640.284566 
L 165.417767 640.45825 
L 171.977548 640.442007 
L 181.81722 640.112391 
L 194.936783 639.665623 
L 204.776455 639.587262 
L 217.896017 639.77286 
L 234.295471 639.986278 
L 249.054979 639.909595 
L 272.014213 639.756083 
L 373.690824 639.87841 
L 478.647325 639.833895 
L 573.764155 639.856297 
L 698.4 639.851649 
L 698.4 639.851649 
" style="fill:none;stroke:#ff2d00;stroke-dasharray:7.4,3.2;stroke-dashoffset:0;stroke-width:2;"/>
   </g>
   <g id="line2d_73">
    <path clip-path="url(#pd881ff5129)" d="M 108.01968 632.382206 
L 111.299571 632.460065 
L 116.219407 632.856053 
L 121.139243 633.550216 
L 126.059079 634.475737 
L 134.258805 636.293138 
L 142.458532 638.076785 
L 147.378368 638.973511 
L 152.298204 639.673461 
L 157.21804 640.153085 
L 162.137876 640.415851 
L 167.057712 640.488667 
L 173.617493 640.367781 
L 199.856619 639.5811 
L 209.696291 639.664921 
L 234.295471 639.991524 
L 250.694924 639.855029 
L 268.734323 639.755833 
L 326.132409 639.80481 
L 352.371535 639.860987 
L 380.250605 639.84674 
L 414.689457 639.850066 
L 454.048145 639.831078 
L 544.245139 639.847366 
L 639.361968 639.847325 
L 698.4 639.850948 
L 698.4 639.850948 
" style="fill:none;stroke:#ff1a00;stroke-dasharray:7.4,3.2;stroke-dashoffset:0;stroke-width:2;"/>
   </g>
   <g id="line2d_74">
    <path clip-path="url(#pd881ff5129)" d="M 108.01968 632.293216 
L 111.299571 632.375611 
L 114.579461 632.617053 
L 119.499297 633.25135 
L 124.419133 634.152789 
L 130.978915 635.614515 
L 142.458532 638.211682 
L 147.378368 639.107862 
L 152.298204 639.789157 
L 157.21804 640.235853 
L 162.137876 640.457604 
L 168.697657 640.465087 
L 176.897384 640.190068 
L 191.656892 639.648619 
L 199.856619 639.578636 
L 211.336236 639.737069 
L 227.735689 639.985777 
L 240.855252 639.93257 
L 265.454432 639.75543 
L 317.932683 639.814589 
L 340.891917 639.837431 
L 370.410933 639.85872 
L 406.489731 639.846783 
L 444.208473 639.833775 
L 521.285904 639.833511 
L 698.4 639.842949 
L 698.4 639.842949 
" style="fill:none;stroke:#f10800;stroke-dasharray:7.4,3.2;stroke-dashoffset:0;stroke-width:2;"/>
   </g>
   <g id="line2d_75">
    <path clip-path="url(#pd881ff5129)" d="M 108.01968 632.205255 
L 111.299571 632.29234 
L 114.579461 632.547346 
L 119.499297 633.21595 
L 124.419133 634.162524 
L 130.978915 635.686708 
L 140.818587 638.004569 
L 145.738423 638.965465 
L 150.658259 639.705786 
L 155.578095 640.199212 
L 160.497931 640.452249 
L 165.417767 640.49933 
L 171.977548 640.336419 
L 193.296837 639.59129 
L 201.496564 639.603445 
L 235.935416 639.954633 
L 263.814487 639.760146 
L 306.453065 639.848554 
L 331.052245 639.817894 
L 367.131043 639.85083 
L 399.929949 639.846707 
L 437.648692 639.832417 
L 516.366068 639.836794 
L 622.962515 639.841583 
L 698.4 639.839463 
L 698.4 639.839463 
" style="fill:none;stroke:#da0000;stroke-dasharray:7.4,3.2;stroke-dashoffset:0;stroke-width:2;"/>
   </g>
   <g id="line2d_76">
    <path clip-path="url(#pd881ff5129)" d="M 108.01968 632.118288 
L 111.299571 632.210219 
L 114.579461 632.479221 
L 117.859352 632.911841 
L 122.779188 633.81887 
L 129.338969 635.350895 
L 140.818587 638.136428 
L 145.738423 639.096959 
L 150.658259 639.817609 
L 155.578095 640.27644 
L 160.497931 640.487009 
L 165.417767 640.491941 
L 173.617493 640.213883 
L 188.377001 639.637958 
L 196.576728 639.575055 
L 208.056345 639.758879 
L 222.815853 639.989932 
L 235.935416 639.925972 
L 258.894651 639.753731 
L 308.093011 639.817578 
L 329.4123 639.830481 
L 358.931316 639.859899 
L 393.370168 639.845867 
L 429.448965 639.834081 
L 501.60656 639.832291 
L 698.4 639.845157 
L 698.4 639.845157 
" style="fill:none;stroke:#c40000;stroke-dasharray:7.4,3.2;stroke-dashoffset:0;stroke-width:2;"/>
   </g>
   <g id="line2d_77">
    <path clip-path="url(#pd881ff5129)" d="M 108.01968 632.032282 
L 111.299571 632.129216 
L 114.579461 632.41265 
L 117.859352 632.867807 
L 122.779188 633.819174 
L 129.338969 635.415601 
L 139.178641 637.900333 
L 144.098477 638.932977 
L 149.018313 639.720977 
L 153.938149 640.234035 
L 158.857985 640.481476 
L 163.777821 640.505799 
L 170.337603 640.304534 
L 186.737056 639.634876 
L 194.936783 639.57317 
L 206.4164 639.767959 
L 221.175908 639.994841 
L 234.295471 639.914039 
L 253.974815 639.749403 
L 276.934049 639.899074 
L 294.973448 639.86809 
L 321.212573 639.815245 
L 355.651425 639.853202 
L 386.810387 639.84423 
L 422.889184 639.833638 
L 493.406833 639.832172 
L 698.4 639.851378 
L 698.4 639.851378 
" style="fill:none;stroke:#ad0000;stroke-dasharray:7.4,3.2;stroke-dashoffset:0;stroke-width:2;"/>
   </g>
   <g id="line2d_78">
    <path clip-path="url(#pd881ff5129)" d="M 108.01968 631.947206 
L 111.299571 632.049302 
L 114.579461 632.347606 
L 117.859352 632.825919 
L 122.779188 633.822567 
L 129.338969 635.483793 
L 139.178641 638.029004 
L 144.098477 639.062069 
L 149.018313 639.829888 
L 153.938149 640.30704 
L 158.857985 640.510769 
L 163.777821 640.492688 
L 171.977548 640.171106 
L 183.457165 639.675235 
L 191.656892 639.564767 
L 201.496564 639.700434 
L 219.535963 639.998587 
L 232.655525 639.902312 
L 250.694924 639.748116 
L 272.014213 639.892032 
L 290.053612 639.875047 
L 316.292737 639.812759 
L 350.731589 639.85272 
L 381.890551 639.846523 
L 416.329403 639.833671 
L 483.567161 639.831554 
L 698.4 639.849252 
L 698.4 639.849252 
" style="fill:none;stroke:#960000;stroke-dasharray:7.4,3.2;stroke-dashoffset:0;stroke-width:2;"/>
   </g>
   <g id="line2d_79">
    <path clip-path="url(#pd881ff5129)" d="M 108.01968 367.091164 
L 109.659625 368.022968 
L 111.299571 370.761438 
L 112.939516 375.267494 
L 114.579461 381.477022 
L 116.219407 389.302052 
L 117.859352 398.63238 
L 119.499297 409.337592 
L 121.139243 421.269443 
L 122.779188 434.26455 
L 126.059079 462.733161 
L 130.978915 508.795437 
L 135.898751 554.357137 
L 139.178641 582.168763 
L 140.818587 594.879385 
L 142.458532 606.644089 
L 144.098477 617.375618 
L 145.738423 627.007422 
L 147.378368 635.494033 
L 149.018313 642.811015 
L 150.658259 648.954503 
L 152.298204 653.940358 
L 153.938149 657.802952 
L 155.578095 660.593638 
L 157.21804 662.378937 
L 158.857985 663.238486 
L 160.497931 663.26281 
L 162.137876 662.550959 
L 163.777821 661.20808 
L 165.417767 659.34296 
L 167.057712 657.06562 
L 170.337603 651.706689 
L 175.257439 643.152306 
L 176.897384 640.508481 
L 178.537329 638.083767 
L 180.177275 635.930427 
L 181.81722 634.088775 
L 183.457165 632.587099 
L 185.097111 631.44186 
L 186.737056 630.658166 
L 188.377001 630.230488 
L 190.016947 630.143588 
L 191.656892 630.373634 
L 193.296837 630.889453 
L 194.936783 631.653898 
L 196.576728 632.625285 
L 199.856619 635.008205 
L 206.4164 640.25526 
L 209.696291 642.468059 
L 211.336236 643.362331 
L 212.976181 644.088324 
L 214.616127 644.633621 
L 216.256072 644.992026 
L 217.896017 645.163384 
L 219.535963 645.153249 
L 221.175908 644.972393 
L 222.815853 644.6362 
L 226.095744 643.578066 
L 229.375635 642.165488 
L 235.935416 639.110437 
L 239.215307 637.851093 
L 242.495197 636.961649 
L 244.135143 636.681371 
L 245.775088 636.516818 
L 247.415033 636.467812 
L 250.694924 636.697955 
L 253.974815 637.303829 
L 257.254705 638.177628 
L 267.094377 641.082264 
L 270.374268 641.740294 
L 273.654159 642.107947 
L 276.934049 642.161695 
L 280.21394 641.918559 
L 283.493831 641.430997 
L 288.413667 640.418286 
L 294.973448 639.038374 
L 298.253339 638.529747 
L 301.533229 638.221879 
L 304.81312 638.140168 
L 308.093011 638.280144 
L 311.372901 638.609957 
L 316.292737 639.339526 
L 324.492464 640.606819 
L 327.772355 640.945871 
L 331.052245 641.125484 
L 334.332136 641.13219 
L 339.251972 640.84334 
L 345.811753 640.091774 
L 354.01148 639.145009 
L 358.931316 638.851544 
L 363.851152 638.857242 
L 368.770988 639.138053 
L 376.970715 639.930635 
L 383.530496 640.482454 
L 388.450332 640.669764 
L 393.370168 640.614552 
L 398.290004 640.348557 
L 414.689457 639.212212 
L 419.609293 639.16532 
L 424.529129 639.311077 
L 432.728856 639.823127 
L 440.928583 640.302575 
L 447.488364 640.421843 
L 454.048145 640.254939 
L 475.367435 639.353877 
L 481.927216 639.471512 
L 504.886451 640.268074 
L 511.446232 640.14158 
L 532.765521 639.476545 
L 540.965248 639.611719 
L 560.644592 640.168627 
L 568.844319 640.074606 
L 591.803553 639.561837 
L 601.643225 639.742945 
L 616.402733 640.089306 
L 624.60246 640.061334 
L 654.121476 639.659308 
L 682.000547 640.028415 
L 698.4 639.727031 
L 698.4 639.727031 
" style="fill:none;stroke:#800000;stroke-dasharray:7.4,3.2;stroke-dashoffset:0;stroke-width:2;"/>
   </g>
   <g id="patch_3">
    <path d="M 108 720.9 
L 108 56.7 
" style="fill:none;stroke:#000000;stroke-linecap:square;stroke-linejoin:miter;stroke-width:0.8;"/>
   </g>
   <g id="patch_4">
    <path d="M 698.4 720.9 
L 698.4 56.7 
" style="fill:none;stroke:#000000;stroke-linecap:square;stroke-linejoin:miter;stroke-width:0.8;"/>
   </g>
   <g id="patch_5">
    <path d="M 108 720.9 
L 698.4 720.9 
" style="fill:none;stroke:#000000;stroke-linecap:square;stroke-linejoin:miter;stroke-width:0.8;"/>
   </g>
   <g id="patch_6">
    <path d="M 108 56.7 
L 698.4 56.7 
" style="fill:none;stroke:#000000;stroke-linecap:square;stroke-linejoin:miter;stroke-width:0.8;"/>
   </g>
   <g id="legend_1">
    <g id="patch_7">
     <path d="M 584.078138 101.772509 
L 684.4 101.772509 
Q 688.4 101.772509 688.4 97.772509 
L 688.4 70.7 
Q 688.4 66.7 684.4 66.7 
L 584.078138 66.7 
Q 580.078138 66.7 580.078138 70.7 
L 580.078138 97.772509 
Q 580.078138 101.772509 584.078138 101.772509 
z
" style="fill:#ffffff;opacity:0.8;stroke:#cccccc;stroke-linejoin:miter;"/>
    </g>
    <g id="line2d_80">
     <path d="M 588.078138 82.896875 
L 628.078138 82.896875 
" style="fill:none;stroke:#000000;stroke-linecap:square;stroke-width:2;"/>
    </g>
    <g id="line2d_81"/>
    <g id="text_17">
     <!-- total -->
     <g transform="translate(644.078138 89.896875)scale(0.2 -0.2)">
      <defs>
       <path d="M 16.703125 37 
L 29.703125 37 
L 29.703125 42.765625 
L 16.703125 42.765625 
L 16.703125 55 
L 9.59375 55 
L 9.59375 42.765625 
L 1.703125 42.765625 
L 1.703125 37 
L 9.40625 37 
L 9.40625 11.703125 
C 9.40625 6 10.703125 -1 17.296875 -1 
C 22.296875 -1 26.90625 0.390625 31.296875 2.6875 
L 29.703125 8.5625 
C 27.296875 6.46875 24.40625 5.265625 21.296875 5.265625 
C 16.90625 5.265625 16.703125 10.875 16.703125 13.375 
z
" id="CMSS17-116"/>
       <path d="M 44.203125 21.1875 
C 44.203125 34 34.703125 44 23.5 44 
C 12 44 2.703125 33.703125 2.703125 21.1875 
C 2.703125 8.5 12.296875 -1 23.40625 -1 
C 34.796875 -1 44.203125 8.796875 44.203125 21.1875 
z
M 23.5 5.265625 
C 16.40625 5.265625 10.296875 11.078125 10.296875 22 
C 10.296875 33.609375 17.40625 37.921875 23.40625 37.921875 
C 29.90625 37.921875 36.59375 33.21875 36.59375 22 
C 36.59375 10.671875 30.09375 5.265625 23.5 5.265625 
z
" id="CMSS17-111"/>
       <path d="M 37.59375 27.984375 
C 37.59375 37.375 30.90625 43.875 21.90625 43.875 
C 17.5 43.875 12.703125 43.078125 7.203125 39.890625 
L 7.796875 33.359375 
C 10.296875 35.125 14.59375 38 21.796875 38 
C 26.90625 38 30 34.0625 30 27.84375 
L 30 24 
C 14 24 4 19.34375 4 11.34375 
C 4 7.203125 6.5 -1 14.796875 -1 
C 16.296875 -1 24.40625 -1 30.203125 3.390625 
L 30.203125 -0.296875 
L 37.59375 -0.296875 
z
M 30 12.75 
C 30 10.953125 30 8.5625 27 6.78125 
C 24.40625 5.078125 21.09375 5.078125 19.703125 5.078125 
C 14.703125 5.078125 11.296875 7.984375 11.296875 11.625 
C 11.296875 18.921875 26.90625 18.921875 30 18.921875 
z
" id="CMSS17-97"/>
       <path d="M 14.796875 69 
L 7.40625 69 
L 7.40625 0 
L 14.796875 0 
z
" id="CMSS17-108"/>
      </defs>
      <use transform="scale(0.996264)" xlink:href="#CMSS17-116"/>
      <use transform="translate(33.831567 0)scale(0.996264)" xlink:href="#CMSS17-111"/>
      <use transform="translate(80.67519 0)scale(0.996264)" xlink:href="#CMSS17-116"/>
      <use transform="translate(114.506757 0)scale(0.996264)" xlink:href="#CMSS17-97"/>
      <use transform="translate(159.428677 0)scale(0.996264)" xlink:href="#CMSS17-108"/>
     </g>
    </g>
   </g>
  </g>
 </g>
 <defs>
  <clipPath id="pd881ff5129">
   <rect height="664.2" width="590.4" x="108" y="56.7"/>
  </clipPath>
 </defs>
</svg>
