<?xml version="1.0" encoding="utf-8" standalone="no"?>
<!DOCTYPE svg PUBLIC "-//W3C//DTD SVG 1.1//EN"
  "http://www.w3.org/Graphics/SVG/1.1/DTD/svg11.dtd">
<!-- Created with matplotlib (https://matplotlib.org/) -->
<svg height="810pt" version="1.1" viewBox="0 0 720 810" width="720pt" xmlns="http://www.w3.org/2000/svg" xmlns:xlink="http://www.w3.org/1999/xlink">
 <metadata>
  <rdf:RDF xmlns:cc="http://creativecommons.org/ns#" xmlns:dc="http://purl.org/dc/elements/1.1/" xmlns:rdf="http://www.w3.org/1999/02/22-rdf-syntax-ns#">
   <cc:Work>
    <dc:type rdf:resource="http://purl.org/dc/dcmitype/StillImage"/>
    <dc:date>2021-08-17T11:03:28.510910</dc:date>
    <dc:format>image/svg+xml</dc:format>
    <dc:creator>
     <cc:Agent>
      <dc:title>Matplotlib v3.3.1, https://matplotlib.org/</dc:title>
     </cc:Agent>
    </dc:creator>
   </cc:Work>
  </rdf:RDF>
 </metadata>
 <defs>
  <style type="text/css">*{stroke-linecap:butt;stroke-linejoin:round;}</style>
 </defs>
 <g id="figure_1">
  <g id="patch_1">
   <path d="M 0 810 
L 720 810 
L 720 0 
L 0 0 
z
" style="fill:#ffffff;"/>
  </g>
  <g id="axes_1">
   <g id="patch_2">
    <path d="M 108 720.9 
L 698.4 720.9 
L 698.4 56.7 
L 108 56.7 
z
" style="fill:#ffffff;"/>
   </g>
   <g id="matplotlib.axis_1">
    <g id="xtick_1">
     <g id="line2d_1">
      <path clip-path="url(#p786dab4e86)" d="M 159.233058 720.9 
L 159.233058 56.7 
" style="fill:none;stroke:#e6e6e6;stroke-linecap:square;stroke-width:0.8;"/>
     </g>
     <g id="line2d_2">
      <defs>
       <path d="M 0 0 
L 0 3.5 
" id="m484378b161" style="stroke:#000000;stroke-width:0.8;"/>
      </defs>
      <g>
       <use style="stroke:#000000;stroke-width:0.8;" x="159.233058" xlink:href="#m484378b161" y="720.9"/>
      </g>
     </g>
     <g id="text_1">
      <!-- 0 -->
      <g transform="translate(154.461183 739.297656)scale(0.15 -0.15)">
       <defs>
        <path d="M 31.78125 66.40625 
Q 24.171875 66.40625 20.328125 58.90625 
Q 16.5 51.421875 16.5 36.375 
Q 16.5 21.390625 20.328125 13.890625 
Q 24.171875 6.390625 31.78125 6.390625 
Q 39.453125 6.390625 43.28125 13.890625 
Q 47.125 21.390625 47.125 36.375 
Q 47.125 51.421875 43.28125 58.90625 
Q 39.453125 66.40625 31.78125 66.40625 
z
M 31.78125 74.21875 
Q 44.046875 74.21875 50.515625 64.515625 
Q 56.984375 54.828125 56.984375 36.375 
Q 56.984375 17.96875 50.515625 8.265625 
Q 44.046875 -1.421875 31.78125 -1.421875 
Q 19.53125 -1.421875 13.0625 8.265625 
Q 6.59375 17.96875 6.59375 36.375 
Q 6.59375 54.828125 13.0625 64.515625 
Q 19.53125 74.21875 31.78125 74.21875 
z
" id="DejaVuSans-48"/>
       </defs>
       <use xlink:href="#DejaVuSans-48"/>
      </g>
     </g>
    </g>
    <g id="xtick_2">
     <g id="line2d_3">
      <path clip-path="url(#p786dab4e86)" d="M 240.555372 720.9 
L 240.555372 56.7 
" style="fill:none;stroke:#e6e6e6;stroke-linecap:square;stroke-width:0.8;"/>
     </g>
     <g id="line2d_4">
      <g>
       <use style="stroke:#000000;stroke-width:0.8;" x="240.555372" xlink:href="#m484378b161" y="720.9"/>
      </g>
     </g>
     <g id="text_2">
      <!-- 10 -->
      <g transform="translate(231.011622 739.297656)scale(0.15 -0.15)">
       <defs>
        <path d="M 12.40625 8.296875 
L 28.515625 8.296875 
L 28.515625 63.921875 
L 10.984375 60.40625 
L 10.984375 69.390625 
L 28.421875 72.90625 
L 38.28125 72.90625 
L 38.28125 8.296875 
L 54.390625 8.296875 
L 54.390625 0 
L 12.40625 0 
z
" id="DejaVuSans-49"/>
       </defs>
       <use xlink:href="#DejaVuSans-49"/>
       <use x="63.623047" xlink:href="#DejaVuSans-48"/>
      </g>
     </g>
    </g>
    <g id="xtick_3">
     <g id="line2d_5">
      <path clip-path="url(#p786dab4e86)" d="M 321.877686 720.9 
L 321.877686 56.7 
" style="fill:none;stroke:#e6e6e6;stroke-linecap:square;stroke-width:0.8;"/>
     </g>
     <g id="line2d_6">
      <g>
       <use style="stroke:#000000;stroke-width:0.8;" x="321.877686" xlink:href="#m484378b161" y="720.9"/>
      </g>
     </g>
     <g id="text_3">
      <!-- 20 -->
      <g transform="translate(312.333936 739.297656)scale(0.15 -0.15)">
       <defs>
        <path d="M 19.1875 8.296875 
L 53.609375 8.296875 
L 53.609375 0 
L 7.328125 0 
L 7.328125 8.296875 
Q 12.9375 14.109375 22.625 23.890625 
Q 32.328125 33.6875 34.8125 36.53125 
Q 39.546875 41.84375 41.421875 45.53125 
Q 43.3125 49.21875 43.3125 52.78125 
Q 43.3125 58.59375 39.234375 62.25 
Q 35.15625 65.921875 28.609375 65.921875 
Q 23.96875 65.921875 18.8125 64.3125 
Q 13.671875 62.703125 7.8125 59.421875 
L 7.8125 69.390625 
Q 13.765625 71.78125 18.9375 73 
Q 24.125 74.21875 28.421875 74.21875 
Q 39.75 74.21875 46.484375 68.546875 
Q 53.21875 62.890625 53.21875 53.421875 
Q 53.21875 48.921875 51.53125 44.890625 
Q 49.859375 40.875 45.40625 35.40625 
Q 44.1875 33.984375 37.640625 27.21875 
Q 31.109375 20.453125 19.1875 8.296875 
z
" id="DejaVuSans-50"/>
       </defs>
       <use xlink:href="#DejaVuSans-50"/>
       <use x="63.623047" xlink:href="#DejaVuSans-48"/>
      </g>
     </g>
    </g>
    <g id="xtick_4">
     <g id="line2d_7">
      <path clip-path="url(#p786dab4e86)" d="M 403.2 720.9 
L 403.2 56.7 
" style="fill:none;stroke:#e6e6e6;stroke-linecap:square;stroke-width:0.8;"/>
     </g>
     <g id="line2d_8">
      <g>
       <use style="stroke:#000000;stroke-width:0.8;" x="403.2" xlink:href="#m484378b161" y="720.9"/>
      </g>
     </g>
     <g id="text_4">
      <!-- 30 -->
      <g transform="translate(393.65625 739.297656)scale(0.15 -0.15)">
       <defs>
        <path d="M 40.578125 39.3125 
Q 47.65625 37.796875 51.625 33 
Q 55.609375 28.21875 55.609375 21.1875 
Q 55.609375 10.40625 48.1875 4.484375 
Q 40.765625 -1.421875 27.09375 -1.421875 
Q 22.515625 -1.421875 17.65625 -0.515625 
Q 12.796875 0.390625 7.625 2.203125 
L 7.625 11.71875 
Q 11.71875 9.328125 16.59375 8.109375 
Q 21.484375 6.890625 26.8125 6.890625 
Q 36.078125 6.890625 40.9375 10.546875 
Q 45.796875 14.203125 45.796875 21.1875 
Q 45.796875 27.640625 41.28125 31.265625 
Q 36.765625 34.90625 28.71875 34.90625 
L 20.21875 34.90625 
L 20.21875 43.015625 
L 29.109375 43.015625 
Q 36.375 43.015625 40.234375 45.921875 
Q 44.09375 48.828125 44.09375 54.296875 
Q 44.09375 59.90625 40.109375 62.90625 
Q 36.140625 65.921875 28.71875 65.921875 
Q 24.65625 65.921875 20.015625 65.03125 
Q 15.375 64.15625 9.8125 62.3125 
L 9.8125 71.09375 
Q 15.4375 72.65625 20.34375 73.4375 
Q 25.25 74.21875 29.59375 74.21875 
Q 40.828125 74.21875 47.359375 69.109375 
Q 53.90625 64.015625 53.90625 55.328125 
Q 53.90625 49.265625 50.4375 45.09375 
Q 46.96875 40.921875 40.578125 39.3125 
z
" id="DejaVuSans-51"/>
       </defs>
       <use xlink:href="#DejaVuSans-51"/>
       <use x="63.623047" xlink:href="#DejaVuSans-48"/>
      </g>
     </g>
    </g>
    <g id="xtick_5">
     <g id="line2d_9">
      <path clip-path="url(#p786dab4e86)" d="M 484.522314 720.9 
L 484.522314 56.7 
" style="fill:none;stroke:#e6e6e6;stroke-linecap:square;stroke-width:0.8;"/>
     </g>
     <g id="line2d_10">
      <g>
       <use style="stroke:#000000;stroke-width:0.8;" x="484.522314" xlink:href="#m484378b161" y="720.9"/>
      </g>
     </g>
     <g id="text_5">
      <!-- 40 -->
      <g transform="translate(474.978564 739.297656)scale(0.15 -0.15)">
       <defs>
        <path d="M 37.796875 64.3125 
L 12.890625 25.390625 
L 37.796875 25.390625 
z
M 35.203125 72.90625 
L 47.609375 72.90625 
L 47.609375 25.390625 
L 58.015625 25.390625 
L 58.015625 17.1875 
L 47.609375 17.1875 
L 47.609375 0 
L 37.796875 0 
L 37.796875 17.1875 
L 4.890625 17.1875 
L 4.890625 26.703125 
z
" id="DejaVuSans-52"/>
       </defs>
       <use xlink:href="#DejaVuSans-52"/>
       <use x="63.623047" xlink:href="#DejaVuSans-48"/>
      </g>
     </g>
    </g>
    <g id="xtick_6">
     <g id="line2d_11">
      <path clip-path="url(#p786dab4e86)" d="M 565.844628 720.9 
L 565.844628 56.7 
" style="fill:none;stroke:#e6e6e6;stroke-linecap:square;stroke-width:0.8;"/>
     </g>
     <g id="line2d_12">
      <g>
       <use style="stroke:#000000;stroke-width:0.8;" x="565.844628" xlink:href="#m484378b161" y="720.9"/>
      </g>
     </g>
     <g id="text_6">
      <!-- 50 -->
      <g transform="translate(556.300878 739.297656)scale(0.15 -0.15)">
       <defs>
        <path d="M 10.796875 72.90625 
L 49.515625 72.90625 
L 49.515625 64.59375 
L 19.828125 64.59375 
L 19.828125 46.734375 
Q 21.96875 47.46875 24.109375 47.828125 
Q 26.265625 48.1875 28.421875 48.1875 
Q 40.625 48.1875 47.75 41.5 
Q 54.890625 34.8125 54.890625 23.390625 
Q 54.890625 11.625 47.5625 5.09375 
Q 40.234375 -1.421875 26.90625 -1.421875 
Q 22.3125 -1.421875 17.546875 -0.640625 
Q 12.796875 0.140625 7.71875 1.703125 
L 7.71875 11.625 
Q 12.109375 9.234375 16.796875 8.0625 
Q 21.484375 6.890625 26.703125 6.890625 
Q 35.15625 6.890625 40.078125 11.328125 
Q 45.015625 15.765625 45.015625 23.390625 
Q 45.015625 31 40.078125 35.4375 
Q 35.15625 39.890625 26.703125 39.890625 
Q 22.75 39.890625 18.8125 39.015625 
Q 14.890625 38.140625 10.796875 36.28125 
z
" id="DejaVuSans-53"/>
       </defs>
       <use xlink:href="#DejaVuSans-53"/>
       <use x="63.623047" xlink:href="#DejaVuSans-48"/>
      </g>
     </g>
    </g>
    <g id="xtick_7">
     <g id="line2d_13">
      <path clip-path="url(#p786dab4e86)" d="M 647.166942 720.9 
L 647.166942 56.7 
" style="fill:none;stroke:#e6e6e6;stroke-linecap:square;stroke-width:0.8;"/>
     </g>
     <g id="line2d_14">
      <g>
       <use style="stroke:#000000;stroke-width:0.8;" x="647.166942" xlink:href="#m484378b161" y="720.9"/>
      </g>
     </g>
     <g id="text_7">
      <!-- 60 -->
      <g transform="translate(637.623192 739.297656)scale(0.15 -0.15)">
       <defs>
        <path d="M 33.015625 40.375 
Q 26.375 40.375 22.484375 35.828125 
Q 18.609375 31.296875 18.609375 23.390625 
Q 18.609375 15.53125 22.484375 10.953125 
Q 26.375 6.390625 33.015625 6.390625 
Q 39.65625 6.390625 43.53125 10.953125 
Q 47.40625 15.53125 47.40625 23.390625 
Q 47.40625 31.296875 43.53125 35.828125 
Q 39.65625 40.375 33.015625 40.375 
z
M 52.59375 71.296875 
L 52.59375 62.3125 
Q 48.875 64.0625 45.09375 64.984375 
Q 41.3125 65.921875 37.59375 65.921875 
Q 27.828125 65.921875 22.671875 59.328125 
Q 17.53125 52.734375 16.796875 39.40625 
Q 19.671875 43.65625 24.015625 45.921875 
Q 28.375 48.1875 33.59375 48.1875 
Q 44.578125 48.1875 50.953125 41.515625 
Q 57.328125 34.859375 57.328125 23.390625 
Q 57.328125 12.15625 50.6875 5.359375 
Q 44.046875 -1.421875 33.015625 -1.421875 
Q 20.359375 -1.421875 13.671875 8.265625 
Q 6.984375 17.96875 6.984375 36.375 
Q 6.984375 53.65625 15.1875 63.9375 
Q 23.390625 74.21875 37.203125 74.21875 
Q 40.921875 74.21875 44.703125 73.484375 
Q 48.484375 72.75 52.59375 71.296875 
z
" id="DejaVuSans-54"/>
       </defs>
       <use xlink:href="#DejaVuSans-54"/>
       <use x="63.623047" xlink:href="#DejaVuSans-48"/>
      </g>
     </g>
    </g>
    <g id="text_8">
     <!-- $\theta(^{\circ})$ -->
     <g transform="translate(379.825 765.413281)scale(0.25 -0.25)">
      <defs>
       <path d="M 45.515625 34.671875 
L 14.453125 34.671875 
Q 12.359375 20.0625 14.5 13.875 
Q 17.1875 6.25 24.46875 6.25 
Q 31.78125 6.25 37.359375 13.921875 
Q 42.234375 20.65625 45.515625 34.671875 
z
M 47.015625 42.96875 
Q 48.34375 56.84375 46.625 61.71875 
Q 43.953125 69.4375 36.765625 69.4375 
Q 29.296875 69.4375 23.828125 61.8125 
Q 19.53125 55.671875 16.15625 42.96875 
z
M 38.1875 76.765625 
Q 49.90625 76.765625 54.59375 66.40625 
Q 59.28125 56.109375 55.71875 37.84375 
Q 52.203125 19.625 43.453125 9.28125 
Q 34.765625 -1.125 23.046875 -1.125 
Q 11.28125 -1.125 6.640625 9.28125 
Q 2 19.625 5.515625 37.84375 
Q 9.078125 56.109375 17.71875 66.40625 
Q 26.421875 76.765625 38.1875 76.765625 
z
" id="DejaVuSans-Oblique-952"/>
       <path d="M 31 75.875 
Q 24.46875 64.65625 21.28125 53.65625 
Q 18.109375 42.671875 18.109375 31.390625 
Q 18.109375 20.125 21.3125 9.0625 
Q 24.515625 -2 31 -13.1875 
L 23.1875 -13.1875 
Q 15.875 -1.703125 12.234375 9.375 
Q 8.59375 20.453125 8.59375 31.390625 
Q 8.59375 42.28125 12.203125 53.3125 
Q 15.828125 64.359375 23.1875 75.875 
z
" id="DejaVuSans-40"/>
       <path d="M 31.25 40.921875 
Q 27.34375 40.921875 24.65625 38.203125 
Q 21.96875 35.5 21.96875 31.59375 
Q 21.96875 27.734375 24.65625 25.078125 
Q 27.34375 22.421875 31.25 22.421875 
Q 35.15625 22.421875 37.84375 25.078125 
Q 40.53125 27.734375 40.53125 31.59375 
Q 40.53125 35.453125 37.8125 38.1875 
Q 35.109375 40.921875 31.25 40.921875 
z
M 31.25 47.21875 
Q 34.375 47.21875 37.25 46.015625 
Q 40.140625 44.828125 42.234375 42.578125 
Q 44.484375 40.390625 45.609375 37.59375 
Q 46.734375 34.8125 46.734375 31.59375 
Q 46.734375 25.15625 42.21875 20.6875 
Q 37.703125 16.21875 31.15625 16.21875 
Q 24.5625 16.21875 20.15625 20.609375 
Q 15.765625 25 15.765625 31.59375 
Q 15.765625 38.140625 20.25 42.671875 
Q 24.75 47.21875 31.25 47.21875 
z
" id="DejaVuSans-8728"/>
       <path d="M 8.015625 75.875 
L 15.828125 75.875 
Q 23.140625 64.359375 26.78125 53.3125 
Q 30.421875 42.28125 30.421875 31.390625 
Q 30.421875 20.453125 26.78125 9.375 
Q 23.140625 -1.703125 15.828125 -13.1875 
L 8.015625 -13.1875 
Q 14.5 -2 17.703125 9.0625 
Q 20.90625 20.125 20.90625 31.390625 
Q 20.90625 42.671875 17.703125 53.65625 
Q 14.5 64.65625 8.015625 75.875 
z
" id="DejaVuSans-41"/>
      </defs>
      <use transform="translate(0 0.234375)" xlink:href="#DejaVuSans-Oblique-952"/>
      <use transform="translate(61.181641 0.234375)" xlink:href="#DejaVuSans-40"/>
      <use transform="translate(101.152344 38.515625)scale(0.7)" xlink:href="#DejaVuSans-8728"/>
      <use transform="translate(147.705078 0.234375)" xlink:href="#DejaVuSans-41"/>
     </g>
    </g>
   </g>
   <g id="matplotlib.axis_2">
    <g id="ytick_1">
     <g id="line2d_15">
      <path clip-path="url(#p786dab4e86)" d="M 108 663.264907 
L 698.4 663.264907 
" style="fill:none;stroke:#e6e6e6;stroke-linecap:square;stroke-width:0.8;"/>
     </g>
     <g id="line2d_16">
      <defs>
       <path d="M 0 0 
L -3.5 0 
" id="m5ae1885e69" style="stroke:#000000;stroke-width:0.8;"/>
      </defs>
      <g>
       <use style="stroke:#000000;stroke-width:0.8;" x="108" xlink:href="#m5ae1885e69" y="663.264907"/>
      </g>
     </g>
     <g id="text_9">
      <!-- 0 -->
      <g transform="translate(91.45625 668.963735)scale(0.15 -0.15)">
       <use xlink:href="#DejaVuSans-48"/>
      </g>
     </g>
    </g>
    <g id="ytick_2">
     <g id="line2d_17">
      <path clip-path="url(#p786dab4e86)" d="M 108 560.777539 
L 698.4 560.777539 
" style="fill:none;stroke:#e6e6e6;stroke-linecap:square;stroke-width:0.8;"/>
     </g>
     <g id="line2d_18">
      <g>
       <use style="stroke:#000000;stroke-width:0.8;" x="108" xlink:href="#m5ae1885e69" y="560.777539"/>
      </g>
     </g>
     <g id="text_10">
      <!-- 5 -->
      <g transform="translate(91.45625 566.476367)scale(0.15 -0.15)">
       <use xlink:href="#DejaVuSans-53"/>
      </g>
     </g>
    </g>
    <g id="ytick_3">
     <g id="line2d_19">
      <path clip-path="url(#p786dab4e86)" d="M 108 458.290172 
L 698.4 458.290172 
" style="fill:none;stroke:#e6e6e6;stroke-linecap:square;stroke-width:0.8;"/>
     </g>
     <g id="line2d_20">
      <g>
       <use style="stroke:#000000;stroke-width:0.8;" x="108" xlink:href="#m5ae1885e69" y="458.290172"/>
      </g>
     </g>
     <g id="text_11">
      <!-- 10 -->
      <g transform="translate(81.9125 463.989)scale(0.15 -0.15)">
       <use xlink:href="#DejaVuSans-49"/>
       <use x="63.623047" xlink:href="#DejaVuSans-48"/>
      </g>
     </g>
    </g>
    <g id="ytick_4">
     <g id="line2d_21">
      <path clip-path="url(#p786dab4e86)" d="M 108 355.802804 
L 698.4 355.802804 
" style="fill:none;stroke:#e6e6e6;stroke-linecap:square;stroke-width:0.8;"/>
     </g>
     <g id="line2d_22">
      <g>
       <use style="stroke:#000000;stroke-width:0.8;" x="108" xlink:href="#m5ae1885e69" y="355.802804"/>
      </g>
     </g>
     <g id="text_12">
      <!-- 15 -->
      <g transform="translate(81.9125 361.501632)scale(0.15 -0.15)">
       <use xlink:href="#DejaVuSans-49"/>
       <use x="63.623047" xlink:href="#DejaVuSans-53"/>
      </g>
     </g>
    </g>
    <g id="ytick_5">
     <g id="line2d_23">
      <path clip-path="url(#p786dab4e86)" d="M 108 253.315437 
L 698.4 253.315437 
" style="fill:none;stroke:#e6e6e6;stroke-linecap:square;stroke-width:0.8;"/>
     </g>
     <g id="line2d_24">
      <g>
       <use style="stroke:#000000;stroke-width:0.8;" x="108" xlink:href="#m5ae1885e69" y="253.315437"/>
      </g>
     </g>
     <g id="text_13">
      <!-- 20 -->
      <g transform="translate(81.9125 259.014265)scale(0.15 -0.15)">
       <use xlink:href="#DejaVuSans-50"/>
       <use x="63.623047" xlink:href="#DejaVuSans-48"/>
      </g>
     </g>
    </g>
    <g id="ytick_6">
     <g id="line2d_25">
      <path clip-path="url(#p786dab4e86)" d="M 108 150.828069 
L 698.4 150.828069 
" style="fill:none;stroke:#e6e6e6;stroke-linecap:square;stroke-width:0.8;"/>
     </g>
     <g id="line2d_26">
      <g>
       <use style="stroke:#000000;stroke-width:0.8;" x="108" xlink:href="#m5ae1885e69" y="150.828069"/>
      </g>
     </g>
     <g id="text_14">
      <!-- 25 -->
      <g transform="translate(81.9125 156.526897)scale(0.15 -0.15)">
       <use xlink:href="#DejaVuSans-50"/>
       <use x="63.623047" xlink:href="#DejaVuSans-53"/>
      </g>
     </g>
    </g>
    <g id="text_15">
     <!-- $f(\theta)$ -->
     <g transform="translate(72.713281 410.675)rotate(-90)scale(0.25 -0.25)">
      <defs>
       <path d="M 47.796875 75.984375 
L 46.390625 68.5 
L 37.796875 68.5 
Q 32.90625 68.5 30.6875 66.578125 
Q 28.46875 64.65625 27.390625 59.515625 
L 26.421875 54.6875 
L 41.21875 54.6875 
L 39.890625 47.703125 
L 25.09375 47.703125 
L 15.828125 0 
L 6.78125 0 
L 16.109375 47.703125 
L 7.515625 47.703125 
L 8.796875 54.6875 
L 17.390625 54.6875 
L 18.109375 58.5 
Q 19.96875 68.171875 24.625 72.078125 
Q 29.296875 75.984375 39.3125 75.984375 
z
" id="DejaVuSans-Oblique-102"/>
      </defs>
      <use transform="translate(0 0.234375)" xlink:href="#DejaVuSans-Oblique-102"/>
      <use transform="translate(35.205078 0.234375)" xlink:href="#DejaVuSans-40"/>
      <use transform="translate(74.21875 0.234375)" xlink:href="#DejaVuSans-Oblique-952"/>
      <use transform="translate(135.400391 0.234375)" xlink:href="#DejaVuSans-41"/>
     </g>
    </g>
   </g>
   <g id="line2d_27">
    <path clip-path="url(#p786dab4e86)" d="M 159.233058 114.33719 
L 161.918037 114.445509 
L 164.603016 114.773598 
L 167.287994 115.330841 
L 169.972973 116.132814 
L 172.413863 117.092368 
L 174.854753 118.292575 
L 177.295643 119.757946 
L 179.492444 121.326823 
L 181.689245 123.156535 
L 183.886046 125.272498 
L 186.082846 127.702229 
L 188.279647 130.475175 
L 190.476448 133.622508 
L 192.673249 137.1769 
L 194.87005 141.172257 
L 197.066851 145.643428 
L 199.263652 150.625871 
L 201.460453 156.155293 
L 203.657253 162.267238 
L 205.854054 168.996649 
L 208.294944 177.239091 
L 210.735834 186.329674 
L 213.176724 196.309077 
L 215.617614 207.213572 
L 218.302593 220.313561 
L 220.987571 234.601726 
L 223.67255 250.098252 
L 226.601618 268.389262 
L 229.530686 288.114086 
L 232.703843 311.057729 
L 236.121089 337.504434 
L 239.782423 367.665228 
L 243.931936 403.794999 
L 249.057805 450.525589 
L 262.23861 571.848344 
L 265.411767 598.610166 
L 267.852657 617.483333 
L 269.56128 629.194582 
L 270.781725 636.246752 
L 271.758081 640.580054 
L 272.490348 642.711636 
L 272.978526 643.471064 
L 273.222615 643.636813 
L 273.466704 643.659268 
L 273.710793 643.541857 
L 274.198971 642.915251 
L 274.687149 641.832645 
L 275.419415 639.554804 
L 276.63986 634.694546 
L 282.742085 608.530858 
L 284.450708 602.631815 
L 285.915242 598.293851 
L 287.379776 594.653913 
L 288.600221 592.168046 
L 289.820666 590.186276 
L 290.797022 588.965139 
L 291.773378 588.067095 
L 292.749734 587.490025 
L 293.726089 587.230513 
L 294.458356 587.241512 
L 295.190623 587.426117 
L 296.166979 587.937434 
L 297.143335 588.744751 
L 298.119691 589.839315 
L 299.340136 591.596347 
L 300.560581 593.765146 
L 302.025115 596.877136 
L 303.489649 600.501018 
L 305.198272 605.307545 
L 307.150984 611.454217 
L 309.591874 619.901806 
L 313.497297 634.402715 
L 316.914543 646.814261 
L 318.379077 651.377912 
L 319.355433 653.72428 
L 320.0877 654.828895 
L 320.575878 655.141657 
L 321.064056 655.083408 
L 321.552234 654.67919 
L 322.284501 653.56468 
L 323.260857 651.497293 
L 325.701747 645.483359 
L 327.898548 640.383681 
L 329.607171 636.986107 
L 331.071704 634.56027 
L 332.292149 632.911156 
L 333.512594 631.61514 
L 334.733039 630.679766 
L 335.709395 630.193 
L 336.685751 629.937968 
L 337.662107 629.912117 
L 338.638463 630.111218 
L 339.614819 630.529435 
L 340.591175 631.15939 
L 341.81162 632.230956 
L 343.032065 633.599014 
L 344.496599 635.598493 
L 346.205222 638.364776 
L 348.157934 641.993045 
L 350.842912 647.531274 
L 354.992425 656.14402 
L 355.968781 657.764285 
L 356.701048 658.642445 
L 357.189226 658.976233 
L 357.677404 659.060269 
L 358.165582 658.892066 
L 358.897849 658.258282 
L 359.874205 656.993802 
L 364.755985 650.066978 
L 366.220519 648.50031 
L 367.685052 647.279081 
L 368.905497 646.541125 
L 370.125942 646.064038 
L 371.346387 645.84867 
L 372.566832 645.891311 
L 373.787277 646.184016 
L 375.007722 646.714871 
L 376.228167 647.468257 
L 377.692701 648.638969 
L 379.401324 650.32238 
L 381.354036 652.574623 
L 384.527193 656.641616 
L 386.723993 659.339772 
L 387.700349 660.281065 
L 388.432616 660.724346 
L 388.920794 660.830965 
L 389.408972 660.769312 
L 390.141239 660.412124 
L 391.361684 659.430641 
L 395.023019 656.24623 
L 396.731642 655.121226 
L 398.196176 654.418726 
L 399.66071 653.974449 
L 401.125244 653.792381 
L 402.589778 653.867302 
L 404.054311 654.185879 
L 405.518845 654.727499 
L 407.227468 655.604752 
L 409.18018 656.864865 
L 412.109248 659.059144 
L 414.794227 661.009623 
L 416.014672 661.620004 
L 416.746939 661.770931 
L 417.479206 661.71359 
L 418.455562 661.389446 
L 424.313697 658.926809 
L 426.02232 658.596018 
L 427.730943 658.490483 
L 429.439566 658.600601 
L 431.392278 658.961463 
L 433.589079 659.606567 
L 437.006325 660.894592 
L 439.935392 661.948047 
L 441.399926 662.277792 
L 442.620371 662.349965 
L 444.328994 662.187781 
L 448.478507 661.701203 
L 450.919397 661.681762 
L 453.604376 661.896031 
L 461.903401 662.787778 
L 468.493804 662.709795 
L 470.934694 662.490325 
L 474.35194 661.902629 
L 478.013274 661.335173 
L 480.210075 661.229052 
L 482.162787 661.370592 
L 483.87141 661.710283 
L 485.580033 662.262455 
L 487.776834 663.125909 
L 488.509101 662.811738 
L 490.705902 661.452888 
L 496.319948 657.808243 
L 498.028571 657.030237 
L 499.493105 656.628799 
L 500.71355 656.530373 
L 501.933995 656.682721 
L 502.910351 657.00508 
L 503.886707 657.519336 
L 505.107152 658.446471 
L 506.327597 659.699486 
L 507.548042 661.274325 
L 508.768487 662.867626 
L 509.012576 662.705635 
L 509.744843 661.482004 
L 511.209377 658.505548 
L 512.917999 654.53755 
L 515.358889 648.215871 
L 521.217025 632.635151 
L 522.925648 628.804584 
L 524.390182 626.041907 
L 525.610627 624.185323 
L 526.586983 623.02834 
L 527.563339 622.186276 
L 528.539695 621.675692 
L 529.271962 621.51749 
L 530.004229 621.555406 
L 530.736496 621.790734 
L 531.468762 622.223025 
L 532.445118 623.101727 
L 533.421474 624.316355 
L 534.641919 626.282822 
L 535.862364 628.707588 
L 537.326898 632.145797 
L 539.035521 636.741118 
L 541.7205 644.738868 
L 545.381835 655.630074 
L 546.846369 659.308178 
L 547.578636 660.631566 
L 548.066814 661.025987 
L 548.310903 661.011265 
L 548.799081 660.615172 
L 549.775436 659.171972 
L 551.484059 656.601474 
L 552.704504 655.180792 
L 553.68086 654.353296 
L 554.657216 653.81002 
L 555.633572 653.548476 
L 556.609928 653.558638 
L 557.586284 653.824273 
L 558.56264 654.323799 
L 559.783085 655.236754 
L 561.247619 656.674997 
L 563.200331 658.9707 
L 565.397132 661.564269 
L 566.129399 662.084612 
L 566.617577 662.089656 
L 567.105755 661.816483 
L 568.326199 660.700949 
L 570.278911 658.965067 
L 571.499356 658.14126 
L 572.719801 657.572533 
L 573.940246 657.27666 
L 575.160691 657.256307 
L 576.381136 657.501087 
L 577.601581 657.988886 
L 579.066115 658.848399 
L 580.774738 660.132576 
L 583.703806 662.424434 
L 584.191984 662.545546 
L 584.680162 662.421818 
L 585.656518 661.80269 
L 588.097407 660.15091 
L 589.561941 659.42795 
L 590.782386 659.037332 
L 592.002831 658.855477 
L 593.223276 658.885383 
L 594.443721 659.119406 
L 595.908255 659.644322 
L 597.616878 660.531269 
L 601.522302 662.750886 
L 602.01048 662.656491 
L 602.986836 662.149863 
L 605.671814 660.696357 
L 607.136348 660.145398 
L 608.600882 659.828582 
L 610.065416 659.76394 
L 611.52995 659.949536 
L 612.994484 660.364674 
L 614.703107 661.087356 
L 618.364442 662.85838 
L 618.85262 662.809392 
L 619.828976 662.390167 
L 622.513954 661.146346 
L 624.222577 660.611484 
L 625.687111 660.374454 
L 627.151645 660.358021 
L 628.616179 660.558812 
L 630.324802 661.039358 
L 632.277514 661.836652 
L 634.718404 662.893511 
L 635.206582 662.918852 
L 635.938849 662.69406 
L 639.844273 661.170802 
L 641.552895 660.816032 
L 643.017429 660.722412 
L 644.481963 660.828724 
L 646.190586 661.188696 
L 647.166942 661.492472 
L 647.166942 661.492472 
" style="fill:none;stroke:#0000ff;stroke-linecap:square;stroke-width:2;"/>
   </g>
   <g id="line2d_28">
    <path clip-path="url(#p786dab4e86)" d="M 159.233058 114.337766 
L 161.918037 114.446085 
L 164.603016 114.774174 
L 167.287994 115.331416 
L 169.972973 116.133388 
L 172.413863 117.092941 
L 174.854753 118.293147 
L 177.295643 119.758515 
L 179.492444 121.32739 
L 181.689245 123.157101 
L 183.886046 125.273061 
L 186.082846 127.70279 
L 188.279647 130.475733 
L 190.476448 133.623063 
L 192.673249 137.177451 
L 194.87005 141.172804 
L 197.066851 145.64397 
L 199.263652 150.626409 
L 201.460453 156.155825 
L 203.657253 162.267764 
L 205.854054 168.997169 
L 208.294944 177.239603 
L 210.735834 186.330177 
L 213.176724 196.309571 
L 215.617614 207.214056 
L 218.302593 220.314032 
L 220.987571 234.602185 
L 223.67255 250.098697 
L 226.601618 268.389691 
L 229.530686 288.114497 
L 232.703843 311.058119 
L 236.121089 337.504801 
L 239.782423 367.665568 
L 243.931936 403.795307 
L 249.057805 450.525854 
L 262.23861 571.848503 
L 265.411767 598.610303 
L 267.852657 617.483459 
L 269.56128 629.194705 
L 270.781725 636.246876 
L 271.758081 640.580178 
L 272.490348 642.711758 
L 272.978526 643.471182 
L 273.222615 643.636928 
L 273.466704 643.65938 
L 273.710793 643.541965 
L 274.198971 642.915351 
L 274.687149 641.832737 
L 275.419415 639.554885 
L 276.63986 634.694614 
L 282.742085 608.530927 
L 284.450708 602.63189 
L 285.915242 598.293932 
L 287.379776 594.654 
L 288.600221 592.168137 
L 289.820666 590.186372 
L 290.797022 588.965238 
L 291.773378 588.067197 
L 292.749734 587.490131 
L 293.726089 587.230621 
L 294.458356 587.241622 
L 295.190623 587.426229 
L 296.166979 587.937548 
L 297.143335 588.744868 
L 298.119691 589.839433 
L 299.340136 591.596467 
L 300.560581 593.765266 
L 302.025115 596.877257 
L 303.489649 600.50114 
L 305.198272 605.307666 
L 307.150984 611.454336 
L 309.591874 619.901922 
L 313.497297 634.402826 
L 316.914543 646.81437 
L 318.379077 651.378025 
L 319.355433 653.724392 
L 320.0877 654.829001 
L 320.575878 655.141755 
L 321.064056 655.083494 
L 321.552234 654.679263 
L 322.284501 653.564734 
L 323.260857 651.49733 
L 325.701747 645.483381 
L 327.898548 640.383705 
L 329.607171 636.986137 
L 331.071704 634.560306 
L 332.292149 632.911197 
L 333.512594 631.615188 
L 334.733039 630.67982 
L 335.709395 630.193059 
L 336.685751 629.938031 
L 337.662107 629.912185 
L 338.638463 630.11129 
L 339.614819 630.529512 
L 340.591175 631.15947 
L 341.81162 632.231042 
L 343.032065 633.599103 
L 344.496599 635.598587 
L 346.205222 638.364875 
L 348.157934 641.993148 
L 350.842912 647.531382 
L 354.992425 656.144138 
L 355.968781 657.764405 
L 356.701048 658.642561 
L 357.189226 658.976339 
L 357.677404 659.06036 
L 358.165582 658.892138 
L 358.897849 658.258327 
L 359.874205 656.993822 
L 364.755985 650.066983 
L 366.220519 648.500321 
L 367.685052 647.279101 
L 368.905497 646.541152 
L 370.125942 646.064073 
L 371.346387 645.848714 
L 372.566832 645.891364 
L 373.787277 646.184077 
L 375.007722 646.71494 
L 376.228167 647.468335 
L 377.692701 648.639056 
L 379.401324 650.322477 
L 381.354036 652.574731 
L 384.527193 656.64174 
L 386.723993 659.339907 
L 387.700349 660.2812 
L 388.432616 660.724467 
L 388.920794 660.831067 
L 389.408972 660.769389 
L 390.141239 660.412165 
L 391.361684 659.430642 
L 395.023019 656.246212 
L 396.731642 655.121216 
L 398.196176 654.418726 
L 399.66071 653.974462 
L 401.125244 653.792408 
L 402.589778 653.867344 
L 404.054311 654.185937 
L 405.518845 654.727572 
L 407.227468 655.604844 
L 409.18018 656.864976 
L 412.109248 659.059284 
L 414.794227 661.009783 
L 416.014672 661.620152 
L 416.746939 661.771048 
L 417.479206 661.71366 
L 418.455562 661.389461 
L 424.313697 658.926778 
L 426.02232 658.596003 
L 427.730943 658.49049 
L 429.439566 658.600633 
L 431.392278 658.961527 
L 433.589079 659.606669 
L 437.006325 660.894751 
L 439.935392 661.94824 
L 441.399926 662.277965 
L 442.620371 662.350073 
L 444.328994 662.187793 
L 448.478507 661.701158 
L 450.919397 661.681744 
L 453.604376 661.896066 
L 461.903401 662.787871 
L 468.493804 662.710042 
L 470.934694 662.490741 
L 474.35194 661.903057 
L 478.013274 661.335482 
L 480.210075 661.229253 
L 482.162787 661.370681 
L 483.87141 661.710264 
L 485.580033 662.262319 
L 487.776834 663.125818 
L 488.509101 662.811984 
L 490.705902 661.453301 
L 496.319948 657.808837 
L 498.028571 657.030828 
L 499.493105 656.62936 
L 500.71355 656.530891 
L 501.933995 656.683178 
L 502.910351 657.005476 
L 503.886707 657.51966 
L 505.107152 658.446691 
L 506.327597 659.699589 
L 507.548042 661.274311 
L 508.768487 662.86782 
L 509.012576 662.705953 
L 509.744843 661.482381 
L 511.209377 658.506107 
L 512.917999 654.538352 
L 515.358889 648.217035 
L 521.217025 632.63709 
L 522.925648 628.806689 
L 524.390182 626.044123 
L 525.610627 624.187607 
L 526.586983 623.03066 
L 527.563339 622.188618 
L 528.539695 621.678039 
L 529.271962 621.519831 
L 530.004229 621.557731 
L 530.736496 621.793035 
L 531.468762 622.225293 
L 532.445118 623.103937 
L 533.421474 624.318492 
L 534.641919 626.284849 
L 535.862364 628.709486 
L 537.326898 632.147518 
L 539.035521 636.742607 
L 541.7205 644.739956 
L 545.381835 655.63058 
L 546.846369 659.308409 
L 547.578636 660.631603 
L 548.066814 661.025884 
L 548.310903 661.011114 
L 548.799081 660.615002 
L 549.775436 659.171895 
L 551.484059 656.601577 
L 552.704504 655.180997 
L 553.68086 654.353568 
L 554.657216 653.810345 
L 555.633572 653.54884 
L 556.609928 653.55903 
L 557.586284 653.824678 
L 558.56264 654.324207 
L 559.783085 655.237149 
L 561.247619 656.675354 
L 563.200331 658.970967 
L 565.397132 661.56431 
L 566.129399 662.084476 
L 566.617577 662.089424 
L 567.105755 661.81624 
L 568.326199 660.70079 
L 570.278911 658.965031 
L 571.499356 658.141287 
L 572.719801 657.572612 
L 573.940246 657.276781 
L 575.160691 657.25646 
L 576.381136 657.501263 
L 577.601581 657.989072 
L 579.066115 658.848582 
L 580.774738 660.132729 
L 583.703806 662.424306 
L 584.191984 662.545294 
L 584.680162 662.42153 
L 585.656518 661.802466 
L 588.097407 660.150805 
L 589.561941 659.427897 
L 590.782386 659.037314 
L 592.002831 658.85549 
L 593.223276 658.885421 
L 594.443721 659.119462 
L 595.908255 659.64439 
L 597.616878 660.531333 
L 601.522302 662.750581 
L 602.01048 662.65617 
L 602.986836 662.149629 
L 605.671814 660.696226 
L 607.136348 660.145296 
L 608.600882 659.828505 
L 610.065416 659.763883 
L 611.52995 659.949494 
L 612.994484 660.36464 
L 614.703107 661.087319 
L 618.364442 662.858019 
L 618.85262 662.809033 
L 619.828976 662.38994 
L 622.513954 661.146203 
L 624.222577 660.61135 
L 625.687111 660.37432 
L 627.151645 660.357884 
L 628.616179 660.55867 
L 630.324802 661.039205 
L 632.277514 661.836469 
L 634.718404 662.893076 
L 635.206582 662.918422 
L 635.938849 662.69382 
L 639.844273 661.170668 
L 641.552895 660.815849 
L 643.017429 660.722174 
L 644.481963 660.828424 
L 646.190586 661.188317 
L 647.166942 661.492047 
L 647.166942 661.492047 
" style="fill:none;stroke:#008000;stroke-dasharray:7.4,3.2;stroke-dashoffset:0;stroke-width:2;"/>
   </g>
   <g id="line2d_29">
    <path clip-path="url(#p786dab4e86)" d="M 159.233058 190.182767 
L 162.406215 190.291591 
L 165.579372 190.6235 
L 168.508439 191.14177 
L 171.437507 191.884772 
L 174.122486 192.787516 
L 176.807465 193.93047 
L 179.248355 195.205265 
L 181.689245 196.733375 
L 184.130134 198.545896 
L 186.326935 200.448409 
L 188.523736 202.635514 
L 190.720537 205.135498 
L 192.917338 207.97805 
L 195.114139 211.194042 
L 197.31094 214.815275 
L 199.507741 218.874196 
L 201.704542 223.403582 
L 203.901342 228.436186 
L 206.098143 234.004357 
L 208.294944 240.139613 
L 210.735834 247.658381 
L 213.176724 255.953397 
L 215.617614 265.059925 
L 218.058504 275.008691 
L 220.743482 286.954999 
L 223.428461 299.97507 
L 226.11344 314.08193 
L 229.042508 330.7104 
L 231.971576 348.61218 
L 235.144733 369.392229 
L 238.561979 393.283072 
L 242.223313 420.44236 
L 246.616915 454.796943 
L 252.475051 502.596188 
L 262.482699 584.503225 
L 266.388123 614.565348 
L 269.56128 637.436106 
L 272.490348 656.953094 
L 273.466704 663.066796 
L 273.954882 660.485419 
L 276.395771 646.438299 
L 278.592572 635.078617 
L 280.545284 626.07953 
L 282.497996 618.172463 
L 284.206619 612.185639 
L 285.671153 607.765391 
L 287.135687 604.01314 
L 288.356132 601.401399 
L 289.576577 599.25971 
L 290.797022 597.587479 
L 291.773378 596.585908 
L 292.749734 595.880601 
L 293.726089 595.468184 
L 294.702445 595.34435 
L 295.678801 595.503862 
L 296.655157 595.940548 
L 297.631513 596.647313 
L 298.607869 597.616144 
L 299.828314 599.182055 
L 301.048759 601.12412 
L 302.513293 603.92084 
L 303.977827 607.187555 
L 305.68645 611.533105 
L 307.639162 617.109709 
L 310.080052 624.814107 
L 313.253208 635.648819 
L 321.064056 662.698558 
L 321.308145 663.044524 
L 323.749035 655.566628 
L 325.945836 649.563876 
L 327.898548 644.922874 
L 329.607171 641.464257 
L 331.071704 638.980916 
L 332.536238 636.962642 
L 333.756683 635.645603 
L 334.977128 634.664669 
L 335.953484 634.122492 
L 336.92984 633.794759 
L 337.906196 633.678949 
L 338.882552 633.771211 
L 339.858908 634.066379 
L 341.079353 634.710742 
L 342.299798 635.646701 
L 343.520243 636.856114 
L 344.984777 638.638897 
L 346.6934 641.124138 
L 348.646111 644.410317 
L 351.087001 649.013569 
L 355.236514 657.440262 
L 358.165582 663.252432 
L 360.606472 658.797301 
L 362.559184 655.650788 
L 364.267807 653.278452 
L 365.732341 651.566288 
L 367.196874 650.1751 
L 368.661408 649.120883 
L 369.881853 648.506385 
L 371.102298 648.133456 
L 372.322743 647.999883 
L 373.543188 648.100022 
L 374.763633 648.424909 
L 375.984078 648.962425 
L 377.448612 649.86671 
L 378.913146 651.024264 
L 380.621769 652.646742 
L 382.81857 655.064288 
L 386.235815 659.237946 
L 389.408972 663.123283 
L 389.653061 663.120479 
L 392.093951 660.441203 
L 394.046663 658.606958 
L 395.755286 657.285149 
L 397.463909 656.262082 
L 398.928443 655.638866 
L 400.392977 655.256148 
L 401.857511 655.112894 
L 403.322044 655.201509 
L 404.786578 655.508182 
L 406.495201 656.115277 
L 408.447913 657.088868 
L 410.644714 658.455874 
L 414.06196 660.89438 
L 417.235117 663.161092 
L 417.479206 663.204203 
L 419.920096 661.694369 
L 422.116896 660.606034 
L 424.069608 659.901671 
L 425.778231 659.506136 
L 427.486854 659.319455 
L 429.195477 659.333521 
L 431.148189 659.572323 
L 433.34499 660.076802 
L 436.274058 661.015036 
L 442.86446 663.240598 
L 445.549439 662.590892 
L 447.990329 662.239937 
L 450.431219 662.126079 
L 453.116198 662.238595 
L 457.021622 662.670581 
L 461.171134 663.08865 
L 466.541092 663.246532 
L 469.226071 662.90541 
L 472.643317 662.233972 
L 477.525096 661.28144 
L 479.721897 661.081109 
L 481.674609 661.120555 
L 483.383232 661.359534 
L 485.091855 661.806837 
L 486.800478 662.463549 
L 488.509101 663.216332 
L 490.949991 661.739394 
L 497.052215 657.881274 
L 498.760838 657.164537 
L 500.225372 656.819122 
L 501.445817 656.766405 
L 502.666262 656.960521 
L 503.886707 657.427911 
L 505.107152 658.189488 
L 506.327597 659.2596 
L 507.548042 660.645152 
L 508.768487 662.344894 
L 509.256665 663.110846 
L 509.500754 663.018009 
L 510.965288 660.370882 
L 512.673911 656.806613 
L 514.870711 651.629082 
L 518.776135 641.649818 
L 521.461114 635.102709 
L 523.169737 631.45023 
L 524.634271 628.796624 
L 525.854716 626.996525 
L 527.075161 625.621873 
L 528.051517 624.854961 
L 529.027873 624.400622 
L 529.76014 624.271529 
L 530.492407 624.326954 
L 531.224673 624.567952 
L 532.201029 625.176721 
L 533.177385 626.108269 
L 534.153741 627.351514 
L 535.374186 629.318876 
L 536.594631 631.705763 
L 538.059165 635.048976 
L 540.011877 640.137939 
L 543.185034 649.21873 
L 546.358191 658.093752 
L 548.310903 662.882022 
L 548.554992 663.102473 
L 550.019525 660.122905 
L 551.23997 658.059144 
L 552.460415 656.409523 
L 553.436771 655.4002 
L 554.413127 654.67023 
L 555.389483 654.217061 
L 556.365839 654.032864 
L 557.342195 654.104775 
L 558.318551 654.415248 
L 559.294907 654.942508 
L 560.515352 655.867344 
L 561.979886 657.291782 
L 563.932598 659.547597 
L 566.861666 663.154165 
L 567.105755 663.086054 
L 569.058466 660.944573 
L 570.523 659.622259 
L 571.987534 658.615349 
L 573.207979 658.04799 
L 574.428424 657.741013 
L 575.648869 657.695144 
L 576.869314 657.900222 
L 578.089759 658.335967 
L 579.554293 659.121618 
L 581.262916 660.317709 
L 583.947895 662.522194 
L 584.680162 663.136457 
L 584.924251 663.19114 
L 587.36514 661.32843 
L 589.073763 660.306279 
L 590.538297 659.686847 
L 592.002831 659.337794 
L 593.223276 659.262768 
L 594.443721 659.381122 
L 595.908255 659.760964 
L 597.372789 660.365732 
L 599.325501 661.434441 
L 602.254569 663.230207 
L 604.939547 661.643629 
L 606.64817 660.868437 
L 608.112704 660.413082 
L 609.577238 660.178703 
L 611.041772 660.174894 
L 612.506306 660.394676 
L 614.214929 660.902616 
L 616.167641 661.740232 
L 619.096709 663.255151 
L 623.978488 661.160752 
L 625.687111 660.80453 
L 627.151645 660.709036 
L 628.616179 660.810245 
L 630.324802 661.159382 
L 632.277514 661.808365 
L 635.206582 663.071671 
L 635.69476 663.237324 
L 638.623828 662.022383 
L 640.57654 661.438292 
L 642.285162 661.149066 
L 643.993785 661.094721 
L 645.702408 661.275516 
L 647.166942 661.599442 
L 647.166942 661.599442 
" style="fill:none;stroke:#ff0000;stroke-dasharray:7.4,3.2;stroke-dashoffset:0;stroke-width:2;"/>
   </g>
   <g id="patch_3">
    <path d="M 108 720.9 
L 108 56.7 
" style="fill:none;stroke:#000000;stroke-linecap:square;stroke-linejoin:miter;stroke-width:0.8;"/>
   </g>
   <g id="patch_4">
    <path d="M 698.4 720.9 
L 698.4 56.7 
" style="fill:none;stroke:#000000;stroke-linecap:square;stroke-linejoin:miter;stroke-width:0.8;"/>
   </g>
   <g id="patch_5">
    <path d="M 108 720.9 
L 698.4 720.9 
" style="fill:none;stroke:#000000;stroke-linecap:square;stroke-linejoin:miter;stroke-width:0.8;"/>
   </g>
   <g id="patch_6">
    <path d="M 108 56.7 
L 698.4 56.7 
" style="fill:none;stroke:#000000;stroke-linecap:square;stroke-linejoin:miter;stroke-width:0.8;"/>
   </g>
   <g id="text_16">
    <!-- $N=10, ka=7, k_p=1.0100, kd=21$  -->
    <g transform="translate(226.6 50.5)scale(0.2 -0.2)">
     <defs>
      <path d="M 16.890625 72.90625 
L 30.171875 72.90625 
L 50.296875 10.40625 
L 62.5 72.90625 
L 72.125 72.90625 
L 57.90625 0 
L 44.578125 0 
L 24.515625 62.890625 
L 12.3125 0 
L 2.6875 0 
z
" id="DejaVuSans-Oblique-78"/>
      <path d="M 10.59375 45.40625 
L 73.1875 45.40625 
L 73.1875 37.203125 
L 10.59375 37.203125 
z
M 10.59375 25.484375 
L 73.1875 25.484375 
L 73.1875 17.1875 
L 10.59375 17.1875 
z
" id="DejaVuSans-61"/>
      <path d="M 11.71875 12.40625 
L 22.015625 12.40625 
L 22.015625 4 
L 14.015625 -11.625 
L 7.71875 -11.625 
L 11.71875 4 
z
" id="DejaVuSans-44"/>
      <path d="M 18.3125 75.984375 
L 27.296875 75.984375 
L 18.703125 31.6875 
L 49.515625 54.6875 
L 61.1875 54.6875 
L 26.8125 28.515625 
L 51.90625 0 
L 41.015625 0 
L 17.671875 26.703125 
L 12.5 0 
L 3.515625 0 
z
" id="DejaVuSans-Oblique-107"/>
      <path d="M 53.71875 31.203125 
L 47.609375 0 
L 38.625 0 
L 40.28125 8.296875 
Q 36.328125 3.421875 31.265625 1 
Q 26.21875 -1.421875 20.015625 -1.421875 
Q 13.03125 -1.421875 8.5625 2.84375 
Q 4.109375 7.125 4.109375 13.8125 
Q 4.109375 23.390625 11.75 28.953125 
Q 19.390625 34.515625 32.8125 34.515625 
L 45.3125 34.515625 
L 45.796875 36.921875 
Q 45.90625 37.3125 45.953125 37.765625 
Q 46 38.234375 46 39.203125 
Q 46 43.5625 42.453125 45.96875 
Q 38.921875 48.390625 32.515625 48.390625 
Q 28.125 48.390625 23.5 47.265625 
Q 18.890625 46.140625 14.015625 43.890625 
L 15.578125 52.203125 
Q 20.65625 54.109375 25.515625 55.046875 
Q 30.375 56 34.90625 56 
Q 44.578125 56 49.625 51.796875 
Q 54.6875 47.609375 54.6875 39.59375 
Q 54.6875 37.984375 54.4375 35.8125 
Q 54.203125 33.640625 53.71875 31.203125 
z
M 44 27.484375 
L 35.015625 27.484375 
Q 23.96875 27.484375 18.671875 24.53125 
Q 13.375 21.578125 13.375 15.375 
Q 13.375 11.078125 16.078125 8.640625 
Q 18.796875 6.203125 23.578125 6.203125 
Q 30.90625 6.203125 36.375 11.453125 
Q 41.84375 16.703125 43.609375 25.484375 
z
" id="DejaVuSans-Oblique-97"/>
      <path d="M 8.203125 72.90625 
L 55.078125 72.90625 
L 55.078125 68.703125 
L 28.609375 0 
L 18.3125 0 
L 43.21875 64.59375 
L 8.203125 64.59375 
z
" id="DejaVuSans-55"/>
      <path d="M 49.609375 33.6875 
Q 49.609375 40.875 46.484375 44.671875 
Q 43.359375 48.484375 37.5 48.484375 
Q 33.5 48.484375 29.859375 46.4375 
Q 26.21875 44.390625 23.390625 40.484375 
Q 20.609375 36.625 18.9375 31.15625 
Q 17.28125 25.6875 17.28125 20.3125 
Q 17.28125 13.484375 20.40625 9.796875 
Q 23.53125 6.109375 29.296875 6.109375 
Q 33.546875 6.109375 37.1875 8.109375 
Q 40.828125 10.109375 43.40625 13.921875 
Q 46.1875 17.921875 47.890625 23.34375 
Q 49.609375 28.765625 49.609375 33.6875 
z
M 21.78125 46.390625 
Q 25.390625 51.125 30.296875 53.5625 
Q 35.203125 56 41.21875 56 
Q 49.609375 56 54.25 50.5 
Q 58.890625 45.015625 58.890625 35.109375 
Q 58.890625 27 56 19.65625 
Q 53.125 12.3125 47.703125 6.5 
Q 44.09375 2.640625 39.546875 0.609375 
Q 35.015625 -1.421875 29.984375 -1.421875 
Q 24.171875 -1.421875 20.21875 1 
Q 16.265625 3.421875 14.3125 8.203125 
L 8.6875 -20.796875 
L -0.296875 -20.796875 
L 14.40625 54.6875 
L 23.390625 54.6875 
z
" id="DejaVuSans-Oblique-112"/>
      <path d="M 10.6875 12.40625 
L 21 12.40625 
L 21 0 
L 10.6875 0 
z
" id="DejaVuSans-46"/>
      <path d="M 41.796875 8.203125 
Q 38.1875 3.46875 33.25 1.015625 
Q 28.328125 -1.421875 22.3125 -1.421875 
Q 14.109375 -1.421875 9.34375 4.171875 
Q 4.59375 9.765625 4.59375 19.484375 
Q 4.59375 27.59375 7.46875 34.9375 
Q 10.359375 42.28125 15.828125 48.09375 
Q 19.4375 51.953125 23.96875 53.96875 
Q 28.515625 56 33.5 56 
Q 38.765625 56 42.796875 53.453125 
Q 46.828125 50.921875 49.03125 46.1875 
L 54.890625 75.984375 
L 63.921875 75.984375 
L 49.125 0 
L 40.09375 0 
z
M 13.921875 21.09375 
Q 13.921875 14.015625 17.109375 10.0625 
Q 20.3125 6.109375 25.984375 6.109375 
Q 30.171875 6.109375 33.765625 8.125 
Q 37.359375 10.15625 40.09375 14.109375 
Q 42.96875 18.21875 44.625 23.578125 
Q 46.296875 28.953125 46.296875 34.1875 
Q 46.296875 40.96875 43.09375 44.765625 
Q 39.890625 48.578125 34.28125 48.578125 
Q 30.03125 48.578125 26.359375 46.578125 
Q 22.703125 44.578125 20.125 40.828125 
Q 17.28125 36.765625 15.59375 31.390625 
Q 13.921875 26.03125 13.921875 21.09375 
z
" id="DejaVuSans-Oblique-100"/>
      <path id="DejaVuSans-32"/>
     </defs>
     <use transform="translate(0 0.015625)" xlink:href="#DejaVuSans-Oblique-78"/>
     <use transform="translate(94.287109 0.015625)" xlink:href="#DejaVuSans-61"/>
     <use transform="translate(197.558594 0.015625)" xlink:href="#DejaVuSans-49"/>
     <use transform="translate(261.181641 0.015625)" xlink:href="#DejaVuSans-48"/>
     <use transform="translate(324.804688 0.015625)" xlink:href="#DejaVuSans-44"/>
     <use transform="translate(376.074219 0.015625)" xlink:href="#DejaVuSans-Oblique-107"/>
     <use transform="translate(433.984375 0.015625)" xlink:href="#DejaVuSans-Oblique-97"/>
     <use transform="translate(514.746094 0.015625)" xlink:href="#DejaVuSans-61"/>
     <use transform="translate(618.017578 0.015625)" xlink:href="#DejaVuSans-55"/>
     <use transform="translate(681.640625 0.015625)" xlink:href="#DejaVuSans-44"/>
     <use transform="translate(732.910156 0.015625)" xlink:href="#DejaVuSans-Oblique-107"/>
     <use transform="translate(790.820312 -16.390625)scale(0.7)" xlink:href="#DejaVuSans-Oblique-112"/>
     <use transform="translate(857.470703 0.015625)" xlink:href="#DejaVuSans-61"/>
     <use transform="translate(960.742188 0.015625)" xlink:href="#DejaVuSans-49"/>
     <use transform="translate(1024.365234 0.015625)" xlink:href="#DejaVuSans-46"/>
     <use transform="translate(1056.152344 0.015625)" xlink:href="#DejaVuSans-48"/>
     <use transform="translate(1119.775391 0.015625)" xlink:href="#DejaVuSans-49"/>
     <use transform="translate(1183.398438 0.015625)" xlink:href="#DejaVuSans-48"/>
     <use transform="translate(1247.021484 0.015625)" xlink:href="#DejaVuSans-48"/>
     <use transform="translate(1310.644531 0.015625)" xlink:href="#DejaVuSans-44"/>
     <use transform="translate(1361.914062 0.015625)" xlink:href="#DejaVuSans-Oblique-107"/>
     <use transform="translate(1419.824219 0.015625)" xlink:href="#DejaVuSans-Oblique-100"/>
     <use transform="translate(1502.783203 0.015625)" xlink:href="#DejaVuSans-61"/>
     <use transform="translate(1606.054688 0.015625)" xlink:href="#DejaVuSans-50"/>
     <use transform="translate(1669.677734 0.015625)" xlink:href="#DejaVuSans-49"/>
     <use transform="translate(1733.300781 0.015625)" xlink:href="#DejaVuSans-32"/>
    </g>
   </g>
   <g id="legend_1">
    <g id="patch_7">
     <path d="M 515.884375 160.76875 
L 684.4 160.76875 
Q 688.4 160.76875 688.4 156.76875 
L 688.4 70.7 
Q 688.4 66.7 684.4 66.7 
L 515.884375 66.7 
Q 511.884375 66.7 511.884375 70.7 
L 511.884375 156.76875 
Q 511.884375 160.76875 515.884375 160.76875 
z
" style="fill:#ffffff;opacity:0.8;stroke:#cccccc;stroke-linejoin:miter;"/>
    </g>
    <g id="line2d_30">
     <path d="M 519.884375 82.896875 
L 559.884375 82.896875 
" style="fill:none;stroke:#0000ff;stroke-linecap:square;stroke-width:2;"/>
    </g>
    <g id="line2d_31"/>
    <g id="text_17">
     <!-- exact -->
     <g transform="translate(575.884375 89.896875)scale(0.2 -0.2)">
      <defs>
       <path d="M 56.203125 29.59375 
L 56.203125 25.203125 
L 14.890625 25.203125 
Q 15.484375 15.921875 20.484375 11.0625 
Q 25.484375 6.203125 34.421875 6.203125 
Q 39.59375 6.203125 44.453125 7.46875 
Q 49.3125 8.734375 54.109375 11.28125 
L 54.109375 2.78125 
Q 49.265625 0.734375 44.1875 -0.34375 
Q 39.109375 -1.421875 33.890625 -1.421875 
Q 20.796875 -1.421875 13.15625 6.1875 
Q 5.515625 13.8125 5.515625 26.8125 
Q 5.515625 40.234375 12.765625 48.109375 
Q 20.015625 56 32.328125 56 
Q 43.359375 56 49.78125 48.890625 
Q 56.203125 41.796875 56.203125 29.59375 
z
M 47.21875 32.234375 
Q 47.125 39.59375 43.09375 43.984375 
Q 39.0625 48.390625 32.421875 48.390625 
Q 24.90625 48.390625 20.390625 44.140625 
Q 15.875 39.890625 15.1875 32.171875 
z
" id="DejaVuSans-101"/>
       <path d="M 54.890625 54.6875 
L 35.109375 28.078125 
L 55.90625 0 
L 45.3125 0 
L 29.390625 21.484375 
L 13.484375 0 
L 2.875 0 
L 24.125 28.609375 
L 4.6875 54.6875 
L 15.28125 54.6875 
L 29.78125 35.203125 
L 44.28125 54.6875 
z
" id="DejaVuSans-120"/>
       <path d="M 34.28125 27.484375 
Q 23.390625 27.484375 19.1875 25 
Q 14.984375 22.515625 14.984375 16.5 
Q 14.984375 11.71875 18.140625 8.90625 
Q 21.296875 6.109375 26.703125 6.109375 
Q 34.1875 6.109375 38.703125 11.40625 
Q 43.21875 16.703125 43.21875 25.484375 
L 43.21875 27.484375 
z
M 52.203125 31.203125 
L 52.203125 0 
L 43.21875 0 
L 43.21875 8.296875 
Q 40.140625 3.328125 35.546875 0.953125 
Q 30.953125 -1.421875 24.3125 -1.421875 
Q 15.921875 -1.421875 10.953125 3.296875 
Q 6 8.015625 6 15.921875 
Q 6 25.140625 12.171875 29.828125 
Q 18.359375 34.515625 30.609375 34.515625 
L 43.21875 34.515625 
L 43.21875 35.40625 
Q 43.21875 41.609375 39.140625 45 
Q 35.0625 48.390625 27.6875 48.390625 
Q 23 48.390625 18.546875 47.265625 
Q 14.109375 46.140625 10.015625 43.890625 
L 10.015625 52.203125 
Q 14.9375 54.109375 19.578125 55.046875 
Q 24.21875 56 28.609375 56 
Q 40.484375 56 46.34375 49.84375 
Q 52.203125 43.703125 52.203125 31.203125 
z
" id="DejaVuSans-97"/>
       <path d="M 48.78125 52.59375 
L 48.78125 44.1875 
Q 44.96875 46.296875 41.140625 47.34375 
Q 37.3125 48.390625 33.40625 48.390625 
Q 24.65625 48.390625 19.8125 42.84375 
Q 14.984375 37.3125 14.984375 27.296875 
Q 14.984375 17.28125 19.8125 11.734375 
Q 24.65625 6.203125 33.40625 6.203125 
Q 37.3125 6.203125 41.140625 7.25 
Q 44.96875 8.296875 48.78125 10.40625 
L 48.78125 2.09375 
Q 45.015625 0.34375 40.984375 -0.53125 
Q 36.96875 -1.421875 32.421875 -1.421875 
Q 20.0625 -1.421875 12.78125 6.34375 
Q 5.515625 14.109375 5.515625 27.296875 
Q 5.515625 40.671875 12.859375 48.328125 
Q 20.21875 56 33.015625 56 
Q 37.15625 56 41.109375 55.140625 
Q 45.0625 54.296875 48.78125 52.59375 
z
" id="DejaVuSans-99"/>
       <path d="M 18.3125 70.21875 
L 18.3125 54.6875 
L 36.8125 54.6875 
L 36.8125 47.703125 
L 18.3125 47.703125 
L 18.3125 18.015625 
Q 18.3125 11.328125 20.140625 9.421875 
Q 21.96875 7.515625 27.59375 7.515625 
L 36.8125 7.515625 
L 36.8125 0 
L 27.59375 0 
Q 17.1875 0 13.234375 3.875 
Q 9.28125 7.765625 9.28125 18.015625 
L 9.28125 47.703125 
L 2.6875 47.703125 
L 2.6875 54.6875 
L 9.28125 54.6875 
L 9.28125 70.21875 
z
" id="DejaVuSans-116"/>
      </defs>
      <use xlink:href="#DejaVuSans-101"/>
      <use x="59.773438" xlink:href="#DejaVuSans-120"/>
      <use x="118.953125" xlink:href="#DejaVuSans-97"/>
      <use x="180.232422" xlink:href="#DejaVuSans-99"/>
      <use x="235.212891" xlink:href="#DejaVuSans-116"/>
     </g>
    </g>
    <g id="line2d_32">
     <path d="M 519.884375 112.253125 
L 559.884375 112.253125 
" style="fill:none;stroke:#008000;stroke-dasharray:7.4,3.2;stroke-dashoffset:0;stroke-width:2;"/>
    </g>
    <g id="line2d_33"/>
    <g id="text_18">
     <!-- forward -->
     <g transform="translate(575.884375 119.253125)scale(0.2 -0.2)">
      <defs>
       <path d="M 37.109375 75.984375 
L 37.109375 68.5 
L 28.515625 68.5 
Q 23.6875 68.5 21.796875 66.546875 
Q 19.921875 64.59375 19.921875 59.515625 
L 19.921875 54.6875 
L 34.71875 54.6875 
L 34.71875 47.703125 
L 19.921875 47.703125 
L 19.921875 0 
L 10.890625 0 
L 10.890625 47.703125 
L 2.296875 47.703125 
L 2.296875 54.6875 
L 10.890625 54.6875 
L 10.890625 58.5 
Q 10.890625 67.625 15.140625 71.796875 
Q 19.390625 75.984375 28.609375 75.984375 
z
" id="DejaVuSans-102"/>
       <path d="M 30.609375 48.390625 
Q 23.390625 48.390625 19.1875 42.75 
Q 14.984375 37.109375 14.984375 27.296875 
Q 14.984375 17.484375 19.15625 11.84375 
Q 23.34375 6.203125 30.609375 6.203125 
Q 37.796875 6.203125 41.984375 11.859375 
Q 46.1875 17.53125 46.1875 27.296875 
Q 46.1875 37.015625 41.984375 42.703125 
Q 37.796875 48.390625 30.609375 48.390625 
z
M 30.609375 56 
Q 42.328125 56 49.015625 48.375 
Q 55.71875 40.765625 55.71875 27.296875 
Q 55.71875 13.875 49.015625 6.21875 
Q 42.328125 -1.421875 30.609375 -1.421875 
Q 18.84375 -1.421875 12.171875 6.21875 
Q 5.515625 13.875 5.515625 27.296875 
Q 5.515625 40.765625 12.171875 48.375 
Q 18.84375 56 30.609375 56 
z
" id="DejaVuSans-111"/>
       <path d="M 41.109375 46.296875 
Q 39.59375 47.171875 37.8125 47.578125 
Q 36.03125 48 33.890625 48 
Q 26.265625 48 22.1875 43.046875 
Q 18.109375 38.09375 18.109375 28.8125 
L 18.109375 0 
L 9.078125 0 
L 9.078125 54.6875 
L 18.109375 54.6875 
L 18.109375 46.1875 
Q 20.953125 51.171875 25.484375 53.578125 
Q 30.03125 56 36.53125 56 
Q 37.453125 56 38.578125 55.875 
Q 39.703125 55.765625 41.0625 55.515625 
z
" id="DejaVuSans-114"/>
       <path d="M 4.203125 54.6875 
L 13.1875 54.6875 
L 24.421875 12.015625 
L 35.59375 54.6875 
L 46.1875 54.6875 
L 57.421875 12.015625 
L 68.609375 54.6875 
L 77.59375 54.6875 
L 63.28125 0 
L 52.6875 0 
L 40.921875 44.828125 
L 29.109375 0 
L 18.5 0 
z
" id="DejaVuSans-119"/>
       <path d="M 45.40625 46.390625 
L 45.40625 75.984375 
L 54.390625 75.984375 
L 54.390625 0 
L 45.40625 0 
L 45.40625 8.203125 
Q 42.578125 3.328125 38.25 0.953125 
Q 33.9375 -1.421875 27.875 -1.421875 
Q 17.96875 -1.421875 11.734375 6.484375 
Q 5.515625 14.40625 5.515625 27.296875 
Q 5.515625 40.1875 11.734375 48.09375 
Q 17.96875 56 27.875 56 
Q 33.9375 56 38.25 53.625 
Q 42.578125 51.265625 45.40625 46.390625 
z
M 14.796875 27.296875 
Q 14.796875 17.390625 18.875 11.75 
Q 22.953125 6.109375 30.078125 6.109375 
Q 37.203125 6.109375 41.296875 11.75 
Q 45.40625 17.390625 45.40625 27.296875 
Q 45.40625 37.203125 41.296875 42.84375 
Q 37.203125 48.484375 30.078125 48.484375 
Q 22.953125 48.484375 18.875 42.84375 
Q 14.796875 37.203125 14.796875 27.296875 
z
" id="DejaVuSans-100"/>
      </defs>
      <use xlink:href="#DejaVuSans-102"/>
      <use x="35.205078" xlink:href="#DejaVuSans-111"/>
      <use x="96.386719" xlink:href="#DejaVuSans-114"/>
      <use x="137.5" xlink:href="#DejaVuSans-119"/>
      <use x="219.287109" xlink:href="#DejaVuSans-97"/>
      <use x="280.566406" xlink:href="#DejaVuSans-114"/>
      <use x="319.929688" xlink:href="#DejaVuSans-100"/>
     </g>
    </g>
    <g id="line2d_34">
     <path d="M 519.884375 141.609375 
L 559.884375 141.609375 
" style="fill:none;stroke:#ff0000;stroke-dasharray:7.4,3.2;stroke-dashoffset:0;stroke-width:2;"/>
    </g>
    <g id="line2d_35"/>
    <g id="text_19">
     <!-- uncoupled -->
     <g transform="translate(575.884375 148.609375)scale(0.2 -0.2)">
      <defs>
       <path d="M 8.5 21.578125 
L 8.5 54.6875 
L 17.484375 54.6875 
L 17.484375 21.921875 
Q 17.484375 14.15625 20.5 10.265625 
Q 23.53125 6.390625 29.59375 6.390625 
Q 36.859375 6.390625 41.078125 11.03125 
Q 45.3125 15.671875 45.3125 23.6875 
L 45.3125 54.6875 
L 54.296875 54.6875 
L 54.296875 0 
L 45.3125 0 
L 45.3125 8.40625 
Q 42.046875 3.421875 37.71875 1 
Q 33.40625 -1.421875 27.6875 -1.421875 
Q 18.265625 -1.421875 13.375 4.4375 
Q 8.5 10.296875 8.5 21.578125 
z
M 31.109375 56 
z
" id="DejaVuSans-117"/>
       <path d="M 54.890625 33.015625 
L 54.890625 0 
L 45.90625 0 
L 45.90625 32.71875 
Q 45.90625 40.484375 42.875 44.328125 
Q 39.84375 48.1875 33.796875 48.1875 
Q 26.515625 48.1875 22.3125 43.546875 
Q 18.109375 38.921875 18.109375 30.90625 
L 18.109375 0 
L 9.078125 0 
L 9.078125 54.6875 
L 18.109375 54.6875 
L 18.109375 46.1875 
Q 21.34375 51.125 25.703125 53.5625 
Q 30.078125 56 35.796875 56 
Q 45.21875 56 50.046875 50.171875 
Q 54.890625 44.34375 54.890625 33.015625 
z
" id="DejaVuSans-110"/>
       <path d="M 18.109375 8.203125 
L 18.109375 -20.796875 
L 9.078125 -20.796875 
L 9.078125 54.6875 
L 18.109375 54.6875 
L 18.109375 46.390625 
Q 20.953125 51.265625 25.265625 53.625 
Q 29.59375 56 35.59375 56 
Q 45.5625 56 51.78125 48.09375 
Q 58.015625 40.1875 58.015625 27.296875 
Q 58.015625 14.40625 51.78125 6.484375 
Q 45.5625 -1.421875 35.59375 -1.421875 
Q 29.59375 -1.421875 25.265625 0.953125 
Q 20.953125 3.328125 18.109375 8.203125 
z
M 48.6875 27.296875 
Q 48.6875 37.203125 44.609375 42.84375 
Q 40.53125 48.484375 33.40625 48.484375 
Q 26.265625 48.484375 22.1875 42.84375 
Q 18.109375 37.203125 18.109375 27.296875 
Q 18.109375 17.390625 22.1875 11.75 
Q 26.265625 6.109375 33.40625 6.109375 
Q 40.53125 6.109375 44.609375 11.75 
Q 48.6875 17.390625 48.6875 27.296875 
z
" id="DejaVuSans-112"/>
       <path d="M 9.421875 75.984375 
L 18.40625 75.984375 
L 18.40625 0 
L 9.421875 0 
z
" id="DejaVuSans-108"/>
      </defs>
      <use xlink:href="#DejaVuSans-117"/>
      <use x="63.378906" xlink:href="#DejaVuSans-110"/>
      <use x="126.757812" xlink:href="#DejaVuSans-99"/>
      <use x="181.738281" xlink:href="#DejaVuSans-111"/>
      <use x="242.919922" xlink:href="#DejaVuSans-117"/>
      <use x="306.298828" xlink:href="#DejaVuSans-112"/>
      <use x="369.775391" xlink:href="#DejaVuSans-108"/>
      <use x="397.558594" xlink:href="#DejaVuSans-101"/>
      <use x="459.082031" xlink:href="#DejaVuSans-100"/>
     </g>
    </g>
   </g>
  </g>
 </g>
 <defs>
  <clipPath id="p786dab4e86">
   <rect height="664.2" width="590.4" x="108" y="56.7"/>
  </clipPath>
 </defs>
</svg>
