<?xml version="1.0" encoding="utf-8" standalone="no"?>
<!DOCTYPE svg PUBLIC "-//W3C//DTD SVG 1.1//EN"
  "http://www.w3.org/Graphics/SVG/1.1/DTD/svg11.dtd">
<!-- Created with matplotlib (https://matplotlib.org/) -->
<svg height="810pt" version="1.1" viewBox="0 0 720 810" width="720pt" xmlns="http://www.w3.org/2000/svg" xmlns:xlink="http://www.w3.org/1999/xlink">
 <metadata>
  <rdf:RDF xmlns:cc="http://creativecommons.org/ns#" xmlns:dc="http://purl.org/dc/elements/1.1/" xmlns:rdf="http://www.w3.org/1999/02/22-rdf-syntax-ns#">
   <cc:Work>
    <dc:type rdf:resource="http://purl.org/dc/dcmitype/StillImage"/>
    <dc:date>2021-08-18T13:41:42.707893</dc:date>
    <dc:format>image/svg+xml</dc:format>
    <dc:creator>
     <cc:Agent>
      <dc:title>Matplotlib v3.3.1, https://matplotlib.org/</dc:title>
     </cc:Agent>
    </dc:creator>
   </cc:Work>
  </rdf:RDF>
 </metadata>
 <defs>
  <style type="text/css">*{stroke-linecap:butt;stroke-linejoin:round;}</style>
 </defs>
 <g id="figure_1">
  <g id="patch_1">
   <path d="M 0 810 
L 720 810 
L 720 0 
L 0 0 
z
" style="fill:#ffffff;"/>
  </g>
  <g id="axes_1">
   <g id="patch_2">
    <path d="M 108 720.9 
L 698.4 720.9 
L 698.4 56.7 
L 108 56.7 
z
" style="fill:#ffffff;"/>
   </g>
   <g id="matplotlib.axis_1">
    <g id="xtick_1">
     <g id="line2d_1">
      <path clip-path="url(#p2d52771c74)" d="M 159.233058 720.9 
L 159.233058 56.7 
" style="fill:none;stroke:#e6e6e6;stroke-linecap:square;stroke-width:0.8;"/>
     </g>
     <g id="line2d_2">
      <defs>
       <path d="M 0 0 
L 0 3.5 
" id="mef909ac625" style="stroke:#000000;stroke-width:0.8;"/>
      </defs>
      <g>
       <use style="stroke:#000000;stroke-width:0.8;" x="159.233058" xlink:href="#mef909ac625" y="720.9"/>
      </g>
     </g>
     <g id="text_1">
      <!-- 0 -->
      <g transform="translate(154.461183 739.297656)scale(0.15 -0.15)">
       <defs>
        <path d="M 31.78125 66.40625 
Q 24.171875 66.40625 20.328125 58.90625 
Q 16.5 51.421875 16.5 36.375 
Q 16.5 21.390625 20.328125 13.890625 
Q 24.171875 6.390625 31.78125 6.390625 
Q 39.453125 6.390625 43.28125 13.890625 
Q 47.125 21.390625 47.125 36.375 
Q 47.125 51.421875 43.28125 58.90625 
Q 39.453125 66.40625 31.78125 66.40625 
z
M 31.78125 74.21875 
Q 44.046875 74.21875 50.515625 64.515625 
Q 56.984375 54.828125 56.984375 36.375 
Q 56.984375 17.96875 50.515625 8.265625 
Q 44.046875 -1.421875 31.78125 -1.421875 
Q 19.53125 -1.421875 13.0625 8.265625 
Q 6.59375 17.96875 6.59375 36.375 
Q 6.59375 54.828125 13.0625 64.515625 
Q 19.53125 74.21875 31.78125 74.21875 
z
" id="DejaVuSans-48"/>
       </defs>
       <use xlink:href="#DejaVuSans-48"/>
      </g>
     </g>
    </g>
    <g id="xtick_2">
     <g id="line2d_3">
      <path clip-path="url(#p2d52771c74)" d="M 240.555372 720.9 
L 240.555372 56.7 
" style="fill:none;stroke:#e6e6e6;stroke-linecap:square;stroke-width:0.8;"/>
     </g>
     <g id="line2d_4">
      <g>
       <use style="stroke:#000000;stroke-width:0.8;" x="240.555372" xlink:href="#mef909ac625" y="720.9"/>
      </g>
     </g>
     <g id="text_2">
      <!-- 5 -->
      <g transform="translate(235.783497 739.297656)scale(0.15 -0.15)">
       <defs>
        <path d="M 10.796875 72.90625 
L 49.515625 72.90625 
L 49.515625 64.59375 
L 19.828125 64.59375 
L 19.828125 46.734375 
Q 21.96875 47.46875 24.109375 47.828125 
Q 26.265625 48.1875 28.421875 48.1875 
Q 40.625 48.1875 47.75 41.5 
Q 54.890625 34.8125 54.890625 23.390625 
Q 54.890625 11.625 47.5625 5.09375 
Q 40.234375 -1.421875 26.90625 -1.421875 
Q 22.3125 -1.421875 17.546875 -0.640625 
Q 12.796875 0.140625 7.71875 1.703125 
L 7.71875 11.625 
Q 12.109375 9.234375 16.796875 8.0625 
Q 21.484375 6.890625 26.703125 6.890625 
Q 35.15625 6.890625 40.078125 11.328125 
Q 45.015625 15.765625 45.015625 23.390625 
Q 45.015625 31 40.078125 35.4375 
Q 35.15625 39.890625 26.703125 39.890625 
Q 22.75 39.890625 18.8125 39.015625 
Q 14.890625 38.140625 10.796875 36.28125 
z
" id="DejaVuSans-53"/>
       </defs>
       <use xlink:href="#DejaVuSans-53"/>
      </g>
     </g>
    </g>
    <g id="xtick_3">
     <g id="line2d_5">
      <path clip-path="url(#p2d52771c74)" d="M 321.877686 720.9 
L 321.877686 56.7 
" style="fill:none;stroke:#e6e6e6;stroke-linecap:square;stroke-width:0.8;"/>
     </g>
     <g id="line2d_6">
      <g>
       <use style="stroke:#000000;stroke-width:0.8;" x="321.877686" xlink:href="#mef909ac625" y="720.9"/>
      </g>
     </g>
     <g id="text_3">
      <!-- 10 -->
      <g transform="translate(312.333936 739.297656)scale(0.15 -0.15)">
       <defs>
        <path d="M 12.40625 8.296875 
L 28.515625 8.296875 
L 28.515625 63.921875 
L 10.984375 60.40625 
L 10.984375 69.390625 
L 28.421875 72.90625 
L 38.28125 72.90625 
L 38.28125 8.296875 
L 54.390625 8.296875 
L 54.390625 0 
L 12.40625 0 
z
" id="DejaVuSans-49"/>
       </defs>
       <use xlink:href="#DejaVuSans-49"/>
       <use x="63.623047" xlink:href="#DejaVuSans-48"/>
      </g>
     </g>
    </g>
    <g id="xtick_4">
     <g id="line2d_7">
      <path clip-path="url(#p2d52771c74)" d="M 403.2 720.9 
L 403.2 56.7 
" style="fill:none;stroke:#e6e6e6;stroke-linecap:square;stroke-width:0.8;"/>
     </g>
     <g id="line2d_8">
      <g>
       <use style="stroke:#000000;stroke-width:0.8;" x="403.2" xlink:href="#mef909ac625" y="720.9"/>
      </g>
     </g>
     <g id="text_4">
      <!-- 15 -->
      <g transform="translate(393.65625 739.297656)scale(0.15 -0.15)">
       <use xlink:href="#DejaVuSans-49"/>
       <use x="63.623047" xlink:href="#DejaVuSans-53"/>
      </g>
     </g>
    </g>
    <g id="xtick_5">
     <g id="line2d_9">
      <path clip-path="url(#p2d52771c74)" d="M 484.522314 720.9 
L 484.522314 56.7 
" style="fill:none;stroke:#e6e6e6;stroke-linecap:square;stroke-width:0.8;"/>
     </g>
     <g id="line2d_10">
      <g>
       <use style="stroke:#000000;stroke-width:0.8;" x="484.522314" xlink:href="#mef909ac625" y="720.9"/>
      </g>
     </g>
     <g id="text_5">
      <!-- 20 -->
      <g transform="translate(474.978564 739.297656)scale(0.15 -0.15)">
       <defs>
        <path d="M 19.1875 8.296875 
L 53.609375 8.296875 
L 53.609375 0 
L 7.328125 0 
L 7.328125 8.296875 
Q 12.9375 14.109375 22.625 23.890625 
Q 32.328125 33.6875 34.8125 36.53125 
Q 39.546875 41.84375 41.421875 45.53125 
Q 43.3125 49.21875 43.3125 52.78125 
Q 43.3125 58.59375 39.234375 62.25 
Q 35.15625 65.921875 28.609375 65.921875 
Q 23.96875 65.921875 18.8125 64.3125 
Q 13.671875 62.703125 7.8125 59.421875 
L 7.8125 69.390625 
Q 13.765625 71.78125 18.9375 73 
Q 24.125 74.21875 28.421875 74.21875 
Q 39.75 74.21875 46.484375 68.546875 
Q 53.21875 62.890625 53.21875 53.421875 
Q 53.21875 48.921875 51.53125 44.890625 
Q 49.859375 40.875 45.40625 35.40625 
Q 44.1875 33.984375 37.640625 27.21875 
Q 31.109375 20.453125 19.1875 8.296875 
z
" id="DejaVuSans-50"/>
       </defs>
       <use xlink:href="#DejaVuSans-50"/>
       <use x="63.623047" xlink:href="#DejaVuSans-48"/>
      </g>
     </g>
    </g>
    <g id="xtick_6">
     <g id="line2d_11">
      <path clip-path="url(#p2d52771c74)" d="M 565.844628 720.9 
L 565.844628 56.7 
" style="fill:none;stroke:#e6e6e6;stroke-linecap:square;stroke-width:0.8;"/>
     </g>
     <g id="line2d_12">
      <g>
       <use style="stroke:#000000;stroke-width:0.8;" x="565.844628" xlink:href="#mef909ac625" y="720.9"/>
      </g>
     </g>
     <g id="text_6">
      <!-- 25 -->
      <g transform="translate(556.300878 739.297656)scale(0.15 -0.15)">
       <use xlink:href="#DejaVuSans-50"/>
       <use x="63.623047" xlink:href="#DejaVuSans-53"/>
      </g>
     </g>
    </g>
    <g id="xtick_7">
     <g id="line2d_13">
      <path clip-path="url(#p2d52771c74)" d="M 647.166942 720.9 
L 647.166942 56.7 
" style="fill:none;stroke:#e6e6e6;stroke-linecap:square;stroke-width:0.8;"/>
     </g>
     <g id="line2d_14">
      <g>
       <use style="stroke:#000000;stroke-width:0.8;" x="647.166942" xlink:href="#mef909ac625" y="720.9"/>
      </g>
     </g>
     <g id="text_7">
      <!-- 30 -->
      <g transform="translate(637.623192 739.297656)scale(0.15 -0.15)">
       <defs>
        <path d="M 40.578125 39.3125 
Q 47.65625 37.796875 51.625 33 
Q 55.609375 28.21875 55.609375 21.1875 
Q 55.609375 10.40625 48.1875 4.484375 
Q 40.765625 -1.421875 27.09375 -1.421875 
Q 22.515625 -1.421875 17.65625 -0.515625 
Q 12.796875 0.390625 7.625 2.203125 
L 7.625 11.71875 
Q 11.71875 9.328125 16.59375 8.109375 
Q 21.484375 6.890625 26.8125 6.890625 
Q 36.078125 6.890625 40.9375 10.546875 
Q 45.796875 14.203125 45.796875 21.1875 
Q 45.796875 27.640625 41.28125 31.265625 
Q 36.765625 34.90625 28.71875 34.90625 
L 20.21875 34.90625 
L 20.21875 43.015625 
L 29.109375 43.015625 
Q 36.375 43.015625 40.234375 45.921875 
Q 44.09375 48.828125 44.09375 54.296875 
Q 44.09375 59.90625 40.109375 62.90625 
Q 36.140625 65.921875 28.71875 65.921875 
Q 24.65625 65.921875 20.015625 65.03125 
Q 15.375 64.15625 9.8125 62.3125 
L 9.8125 71.09375 
Q 15.4375 72.65625 20.34375 73.4375 
Q 25.25 74.21875 29.59375 74.21875 
Q 40.828125 74.21875 47.359375 69.109375 
Q 53.90625 64.015625 53.90625 55.328125 
Q 53.90625 49.265625 50.4375 45.09375 
Q 46.96875 40.921875 40.578125 39.3125 
z
" id="DejaVuSans-51"/>
       </defs>
       <use xlink:href="#DejaVuSans-51"/>
       <use x="63.623047" xlink:href="#DejaVuSans-48"/>
      </g>
     </g>
    </g>
    <g id="text_8">
     <!-- $\theta(^{\circ})$ -->
     <g transform="translate(379.825 765.413281)scale(0.25 -0.25)">
      <defs>
       <path d="M 45.515625 34.671875 
L 14.453125 34.671875 
Q 12.359375 20.0625 14.5 13.875 
Q 17.1875 6.25 24.46875 6.25 
Q 31.78125 6.25 37.359375 13.921875 
Q 42.234375 20.65625 45.515625 34.671875 
z
M 47.015625 42.96875 
Q 48.34375 56.84375 46.625 61.71875 
Q 43.953125 69.4375 36.765625 69.4375 
Q 29.296875 69.4375 23.828125 61.8125 
Q 19.53125 55.671875 16.15625 42.96875 
z
M 38.1875 76.765625 
Q 49.90625 76.765625 54.59375 66.40625 
Q 59.28125 56.109375 55.71875 37.84375 
Q 52.203125 19.625 43.453125 9.28125 
Q 34.765625 -1.125 23.046875 -1.125 
Q 11.28125 -1.125 6.640625 9.28125 
Q 2 19.625 5.515625 37.84375 
Q 9.078125 56.109375 17.71875 66.40625 
Q 26.421875 76.765625 38.1875 76.765625 
z
" id="DejaVuSans-Oblique-952"/>
       <path d="M 31 75.875 
Q 24.46875 64.65625 21.28125 53.65625 
Q 18.109375 42.671875 18.109375 31.390625 
Q 18.109375 20.125 21.3125 9.0625 
Q 24.515625 -2 31 -13.1875 
L 23.1875 -13.1875 
Q 15.875 -1.703125 12.234375 9.375 
Q 8.59375 20.453125 8.59375 31.390625 
Q 8.59375 42.28125 12.203125 53.3125 
Q 15.828125 64.359375 23.1875 75.875 
z
" id="DejaVuSans-40"/>
       <path d="M 31.25 40.921875 
Q 27.34375 40.921875 24.65625 38.203125 
Q 21.96875 35.5 21.96875 31.59375 
Q 21.96875 27.734375 24.65625 25.078125 
Q 27.34375 22.421875 31.25 22.421875 
Q 35.15625 22.421875 37.84375 25.078125 
Q 40.53125 27.734375 40.53125 31.59375 
Q 40.53125 35.453125 37.8125 38.1875 
Q 35.109375 40.921875 31.25 40.921875 
z
M 31.25 47.21875 
Q 34.375 47.21875 37.25 46.015625 
Q 40.140625 44.828125 42.234375 42.578125 
Q 44.484375 40.390625 45.609375 37.59375 
Q 46.734375 34.8125 46.734375 31.59375 
Q 46.734375 25.15625 42.21875 20.6875 
Q 37.703125 16.21875 31.15625 16.21875 
Q 24.5625 16.21875 20.15625 20.609375 
Q 15.765625 25 15.765625 31.59375 
Q 15.765625 38.140625 20.25 42.671875 
Q 24.75 47.21875 31.25 47.21875 
z
" id="DejaVuSans-8728"/>
       <path d="M 8.015625 75.875 
L 15.828125 75.875 
Q 23.140625 64.359375 26.78125 53.3125 
Q 30.421875 42.28125 30.421875 31.390625 
Q 30.421875 20.453125 26.78125 9.375 
Q 23.140625 -1.703125 15.828125 -13.1875 
L 8.015625 -13.1875 
Q 14.5 -2 17.703125 9.0625 
Q 20.90625 20.125 20.90625 31.390625 
Q 20.90625 42.671875 17.703125 53.65625 
Q 14.5 64.65625 8.015625 75.875 
z
" id="DejaVuSans-41"/>
      </defs>
      <use transform="translate(0 0.234375)" xlink:href="#DejaVuSans-Oblique-952"/>
      <use transform="translate(61.181641 0.234375)" xlink:href="#DejaVuSans-40"/>
      <use transform="translate(101.152344 38.515625)scale(0.7)" xlink:href="#DejaVuSans-8728"/>
      <use transform="translate(147.705078 0.234375)" xlink:href="#DejaVuSans-41"/>
     </g>
    </g>
   </g>
   <g id="matplotlib.axis_2">
    <g id="ytick_1">
     <g id="line2d_15">
      <path clip-path="url(#p2d52771c74)" d="M 108 720.9 
L 698.4 720.9 
" style="fill:none;stroke:#e6e6e6;stroke-linecap:square;stroke-width:0.8;"/>
     </g>
     <g id="line2d_16">
      <defs>
       <path d="M 0 0 
L -3.5 0 
" id="mf414422fe6" style="stroke:#000000;stroke-width:0.8;"/>
      </defs>
      <g>
       <use style="stroke:#000000;stroke-width:0.8;" x="108" xlink:href="#mf414422fe6" y="720.9"/>
      </g>
     </g>
     <g id="text_9">
      <!-- −10 -->
      <g transform="translate(69.342969 726.598828)scale(0.15 -0.15)">
       <defs>
        <path d="M 10.59375 35.5 
L 73.1875 35.5 
L 73.1875 27.203125 
L 10.59375 27.203125 
z
" id="DejaVuSans-8722"/>
       </defs>
       <use xlink:href="#DejaVuSans-8722"/>
       <use x="83.789062" xlink:href="#DejaVuSans-49"/>
       <use x="147.412109" xlink:href="#DejaVuSans-48"/>
      </g>
     </g>
    </g>
    <g id="ytick_2">
     <g id="line2d_17">
      <path clip-path="url(#p2d52771c74)" d="M 108 588.06 
L 698.4 588.06 
" style="fill:none;stroke:#e6e6e6;stroke-linecap:square;stroke-width:0.8;"/>
     </g>
     <g id="line2d_18">
      <g>
       <use style="stroke:#000000;stroke-width:0.8;" x="108" xlink:href="#mf414422fe6" y="588.06"/>
      </g>
     </g>
     <g id="text_10">
      <!-- −8 -->
      <g transform="translate(78.886719 593.758828)scale(0.15 -0.15)">
       <defs>
        <path d="M 31.78125 34.625 
Q 24.75 34.625 20.71875 30.859375 
Q 16.703125 27.09375 16.703125 20.515625 
Q 16.703125 13.921875 20.71875 10.15625 
Q 24.75 6.390625 31.78125 6.390625 
Q 38.8125 6.390625 42.859375 10.171875 
Q 46.921875 13.96875 46.921875 20.515625 
Q 46.921875 27.09375 42.890625 30.859375 
Q 38.875 34.625 31.78125 34.625 
z
M 21.921875 38.8125 
Q 15.578125 40.375 12.03125 44.71875 
Q 8.5 49.078125 8.5 55.328125 
Q 8.5 64.0625 14.71875 69.140625 
Q 20.953125 74.21875 31.78125 74.21875 
Q 42.671875 74.21875 48.875 69.140625 
Q 55.078125 64.0625 55.078125 55.328125 
Q 55.078125 49.078125 51.53125 44.71875 
Q 48 40.375 41.703125 38.8125 
Q 48.828125 37.15625 52.796875 32.3125 
Q 56.78125 27.484375 56.78125 20.515625 
Q 56.78125 9.90625 50.3125 4.234375 
Q 43.84375 -1.421875 31.78125 -1.421875 
Q 19.734375 -1.421875 13.25 4.234375 
Q 6.78125 9.90625 6.78125 20.515625 
Q 6.78125 27.484375 10.78125 32.3125 
Q 14.796875 37.15625 21.921875 38.8125 
z
M 18.3125 54.390625 
Q 18.3125 48.734375 21.84375 45.5625 
Q 25.390625 42.390625 31.78125 42.390625 
Q 38.140625 42.390625 41.71875 45.5625 
Q 45.3125 48.734375 45.3125 54.390625 
Q 45.3125 60.0625 41.71875 63.234375 
Q 38.140625 66.40625 31.78125 66.40625 
Q 25.390625 66.40625 21.84375 63.234375 
Q 18.3125 60.0625 18.3125 54.390625 
z
" id="DejaVuSans-56"/>
       </defs>
       <use xlink:href="#DejaVuSans-8722"/>
       <use x="83.789062" xlink:href="#DejaVuSans-56"/>
      </g>
     </g>
    </g>
    <g id="ytick_3">
     <g id="line2d_19">
      <path clip-path="url(#p2d52771c74)" d="M 108 455.22 
L 698.4 455.22 
" style="fill:none;stroke:#e6e6e6;stroke-linecap:square;stroke-width:0.8;"/>
     </g>
     <g id="line2d_20">
      <g>
       <use style="stroke:#000000;stroke-width:0.8;" x="108" xlink:href="#mf414422fe6" y="455.22"/>
      </g>
     </g>
     <g id="text_11">
      <!-- −6 -->
      <g transform="translate(78.886719 460.918828)scale(0.15 -0.15)">
       <defs>
        <path d="M 33.015625 40.375 
Q 26.375 40.375 22.484375 35.828125 
Q 18.609375 31.296875 18.609375 23.390625 
Q 18.609375 15.53125 22.484375 10.953125 
Q 26.375 6.390625 33.015625 6.390625 
Q 39.65625 6.390625 43.53125 10.953125 
Q 47.40625 15.53125 47.40625 23.390625 
Q 47.40625 31.296875 43.53125 35.828125 
Q 39.65625 40.375 33.015625 40.375 
z
M 52.59375 71.296875 
L 52.59375 62.3125 
Q 48.875 64.0625 45.09375 64.984375 
Q 41.3125 65.921875 37.59375 65.921875 
Q 27.828125 65.921875 22.671875 59.328125 
Q 17.53125 52.734375 16.796875 39.40625 
Q 19.671875 43.65625 24.015625 45.921875 
Q 28.375 48.1875 33.59375 48.1875 
Q 44.578125 48.1875 50.953125 41.515625 
Q 57.328125 34.859375 57.328125 23.390625 
Q 57.328125 12.15625 50.6875 5.359375 
Q 44.046875 -1.421875 33.015625 -1.421875 
Q 20.359375 -1.421875 13.671875 8.265625 
Q 6.984375 17.96875 6.984375 36.375 
Q 6.984375 53.65625 15.1875 63.9375 
Q 23.390625 74.21875 37.203125 74.21875 
Q 40.921875 74.21875 44.703125 73.484375 
Q 48.484375 72.75 52.59375 71.296875 
z
" id="DejaVuSans-54"/>
       </defs>
       <use xlink:href="#DejaVuSans-8722"/>
       <use x="83.789062" xlink:href="#DejaVuSans-54"/>
      </g>
     </g>
    </g>
    <g id="ytick_4">
     <g id="line2d_21">
      <path clip-path="url(#p2d52771c74)" d="M 108 322.38 
L 698.4 322.38 
" style="fill:none;stroke:#e6e6e6;stroke-linecap:square;stroke-width:0.8;"/>
     </g>
     <g id="line2d_22">
      <g>
       <use style="stroke:#000000;stroke-width:0.8;" x="108" xlink:href="#mf414422fe6" y="322.38"/>
      </g>
     </g>
     <g id="text_12">
      <!-- −4 -->
      <g transform="translate(78.886719 328.078828)scale(0.15 -0.15)">
       <defs>
        <path d="M 37.796875 64.3125 
L 12.890625 25.390625 
L 37.796875 25.390625 
z
M 35.203125 72.90625 
L 47.609375 72.90625 
L 47.609375 25.390625 
L 58.015625 25.390625 
L 58.015625 17.1875 
L 47.609375 17.1875 
L 47.609375 0 
L 37.796875 0 
L 37.796875 17.1875 
L 4.890625 17.1875 
L 4.890625 26.703125 
z
" id="DejaVuSans-52"/>
       </defs>
       <use xlink:href="#DejaVuSans-8722"/>
       <use x="83.789062" xlink:href="#DejaVuSans-52"/>
      </g>
     </g>
    </g>
    <g id="ytick_5">
     <g id="line2d_23">
      <path clip-path="url(#p2d52771c74)" d="M 108 189.54 
L 698.4 189.54 
" style="fill:none;stroke:#e6e6e6;stroke-linecap:square;stroke-width:0.8;"/>
     </g>
     <g id="line2d_24">
      <g>
       <use style="stroke:#000000;stroke-width:0.8;" x="108" xlink:href="#mf414422fe6" y="189.54"/>
      </g>
     </g>
     <g id="text_13">
      <!-- −2 -->
      <g transform="translate(78.886719 195.238828)scale(0.15 -0.15)">
       <use xlink:href="#DejaVuSans-8722"/>
       <use x="83.789062" xlink:href="#DejaVuSans-50"/>
      </g>
     </g>
    </g>
    <g id="ytick_6">
     <g id="line2d_25">
      <path clip-path="url(#p2d52771c74)" d="M 108 56.7 
L 698.4 56.7 
" style="fill:none;stroke:#e6e6e6;stroke-linecap:square;stroke-width:0.8;"/>
     </g>
     <g id="line2d_26">
      <g>
       <use style="stroke:#000000;stroke-width:0.8;" x="108" xlink:href="#mf414422fe6" y="56.7"/>
      </g>
     </g>
     <g id="text_14">
      <!-- 0 -->
      <g transform="translate(91.45625 62.398828)scale(0.15 -0.15)">
       <use xlink:href="#DejaVuSans-48"/>
      </g>
     </g>
    </g>
    <g id="text_15">
     <!-- $f(\theta)$ -->
     <g transform="translate(60.14375 410.675)rotate(-90)scale(0.25 -0.25)">
      <defs>
       <path d="M 47.796875 75.984375 
L 46.390625 68.5 
L 37.796875 68.5 
Q 32.90625 68.5 30.6875 66.578125 
Q 28.46875 64.65625 27.390625 59.515625 
L 26.421875 54.6875 
L 41.21875 54.6875 
L 39.890625 47.703125 
L 25.09375 47.703125 
L 15.828125 0 
L 6.78125 0 
L 16.109375 47.703125 
L 7.515625 47.703125 
L 8.796875 54.6875 
L 17.390625 54.6875 
L 18.109375 58.5 
Q 19.96875 68.171875 24.625 72.078125 
Q 29.296875 75.984375 39.3125 75.984375 
z
" id="DejaVuSans-Oblique-102"/>
      </defs>
      <use transform="translate(0 0.234375)" xlink:href="#DejaVuSans-Oblique-102"/>
      <use transform="translate(35.205078 0.234375)" xlink:href="#DejaVuSans-40"/>
      <use transform="translate(74.21875 0.234375)" xlink:href="#DejaVuSans-Oblique-952"/>
      <use transform="translate(135.400391 0.234375)" xlink:href="#DejaVuSans-41"/>
     </g>
    </g>
   </g>
   <g id="line2d_27">
    <path clip-path="url(#p2d52771c74)" d="M 159.233058 462.974266 
L 166.311638 463.083807 
L 173.390219 463.414268 
L 180.4688 463.97169 
L 187.303291 464.736358 
L 193.893694 465.701953 
L 199.995919 466.81975 
L 205.609965 468.068076 
L 210.735834 469.42698 
L 215.373525 470.875295 
L 219.767127 472.483355 
L 223.67255 474.150438 
L 227.333885 475.962294 
L 230.751131 477.913858 
L 233.924288 479.984404 
L 237.097445 482.314333 
L 245.152381 488.443846 
L 246.372826 489.001886 
L 247.349182 489.232189 
L 248.325538 489.201544 
L 249.057805 488.964316 
L 249.790072 488.508506 
L 250.522339 487.803682 
L 251.254606 486.822914 
L 252.230962 485.051542 
L 253.207318 482.731081 
L 254.427763 479.084391 
L 255.892297 473.782235 
L 258.089097 464.738658 
L 260.529987 454.895 
L 261.994521 449.886764 
L 263.214966 446.476242 
L 264.191322 444.292194 
L 265.167678 442.586041 
L 266.144034 441.325599 
L 267.12039 440.461998 
L 268.096746 439.937855 
L 269.073102 439.69413 
L 270.049458 439.674999 
L 271.269903 439.891821 
L 272.734437 440.400396 
L 274.687149 441.331091 
L 278.836661 443.636747 
L 282.986174 445.831011 
L 286.159331 447.255858 
L 288.84431 448.226866 
L 291.041111 448.811954 
L 292.993823 449.118346 
L 294.702445 449.160757 
L 296.166979 448.970088 
L 297.387424 448.601913 
L 298.607869 447.993636 
L 299.828314 447.09225 
L 301.048759 445.845616 
L 302.269204 444.216052 
L 303.489649 442.20194 
L 305.198272 438.86747 
L 307.883251 433.500859 
L 309.103696 431.589184 
L 310.080052 430.469498 
L 311.056408 429.738421 
L 311.788675 429.429567 
L 312.76503 429.290906 
L 313.741386 429.398007 
L 314.961831 429.766421 
L 317.158632 430.735119 
L 320.331789 432.104917 
L 322.284501 432.711395 
L 324.237213 433.08153 
L 325.945836 433.198874 
L 327.654459 433.114751 
L 329.363082 432.816929 
L 331.071704 432.28568 
L 332.780327 431.491626 
L 334.244861 430.572676 
L 335.709395 429.405804 
L 337.173929 427.972096 
L 338.882552 425.977126 
L 343.032065 420.902877 
L 344.008421 420.138432 
L 344.984777 419.695431 
L 345.717044 419.579448 
L 346.6934 419.67805 
L 347.913845 420.092243 
L 352.063357 421.810071 
L 353.527891 422.056036 
L 354.992425 422.045018 
L 356.456959 421.789883 
L 357.921493 421.311091 
L 359.630116 420.495816 
L 361.338739 419.427775 
L 363.291451 417.923488 
L 365.488252 415.913059 
L 371.102298 410.504241 
L 372.078654 409.945822 
L 373.05501 409.661034 
L 373.787277 409.648226 
L 374.763633 409.889181 
L 375.984078 410.505644 
L 378.669057 412.021845 
L 379.645413 412.305326 
L 380.621769 412.366781 
L 381.598125 412.205504 
L 382.574481 411.840037 
L 383.794926 411.137867 
L 385.259459 410.009882 
L 387.212171 408.164848 
L 390.385328 404.755523 
L 393.070307 401.986033 
L 394.534841 400.779663 
L 395.755286 400.08095 
L 396.731642 399.790992 
L 397.707998 399.780095 
L 398.684354 400.056973 
L 399.66071 400.58689 
L 403.077956 402.810387 
L 403.810222 402.95921 
L 404.542489 402.891351 
L 405.274756 402.59537 
L 406.007023 402.077915 
L 406.983379 401.080066 
L 408.203824 399.439912 
L 409.912447 396.692592 
L 413.085604 391.477619 
L 414.306049 389.854955 
L 415.282405 388.864115 
L 416.014672 388.350464 
L 416.746939 388.066611 
L 417.479206 388.036481 
L 418.211473 388.274421 
L 418.94374 388.780704 
L 419.676007 389.53714 
L 420.652363 390.862194 
L 423.58143 395.17019 
L 424.313697 395.767481 
L 424.801875 395.951329 
L 425.290053 395.938361 
L 425.778231 395.713686 
L 426.266409 395.268917 
L 426.998676 394.186162 
L 427.730943 392.621002 
L 428.707299 389.850137 
L 429.927744 385.460726 
L 431.392278 379.183759 
L 435.297702 361.469744 
L 436.029969 359.262593 
L 436.518147 358.333168 
L 437.006325 357.962997 
L 437.250414 358.019637 
L 437.494503 358.252304 
L 437.982681 359.279548 
L 438.470859 361.088955 
L 438.959037 363.683991 
L 439.691304 368.964396 
L 440.667659 378.223574 
L 441.888104 392.505905 
L 443.352638 412.451975 
L 445.549439 443.086474 
L 446.037617 447.680718 
L 446.525795 450.199465 
L 446.769884 450.544071 
L 447.013973 450.267207 
L 447.258062 449.403576 
L 447.74624 446.184615 
L 448.478507 438.868721 
L 451.163486 406.797225 
L 454.092554 371.468107 
L 455.06891 357.145502 
L 456.045266 339.334302 
L 456.533444 329.821389 
L 456.777533 326.887912 
L 457.021622 328.800037 
L 457.265711 342.569061 
L 457.5098 399.700003 
L 457.753889 363.840109 
L 457.997978 350.334972 
L 458.242066 347.080737 
L 458.486155 346.947687 
L 458.974333 349.498065 
L 460.682956 360.600952 
L 462.14749 368.332905 
L 463.856113 377.353132 
L 464.58838 382.14116 
L 465.320647 388.369652 
L 465.808825 394.014501 
L 466.297003 401.940671 
L 466.785181 414.717939 
L 467.02927 425.354404 
L 467.273359 444.171787 
L 467.517448 579.889375 
L 467.761537 442.490094 
L 468.249715 408.357728 
L 468.737893 391.293836 
L 469.47016 374.445745 
L 470.202427 362.659882 
L 470.934694 354.592946 
L 471.422872 351.324284 
L 471.666961 350.372597 
L 471.91105 349.894994 
L 472.155139 349.898456 
L 472.399228 350.382452 
L 472.643317 351.33899 
L 473.131495 354.609515 
L 473.619673 359.57144 
L 474.35194 370.030677 
L 475.084207 384.769475 
L 475.572385 398.652839 
L 476.060563 420.717297 
L 476.304651 441.418918 
L 476.54874 544.803218 
L 476.792829 445.32556 
L 477.281007 415.13694 
L 477.769185 402.243131 
L 478.257363 394.305211 
L 478.98963 386.432234 
L 479.721897 380.962954 
L 480.698253 375.511369 
L 481.918698 370.088465 
L 486.556389 351.501785 
L 486.800478 351.309017 
L 487.044567 351.941375 
L 487.288656 354.236846 
L 487.532745 360.304102 
L 488.020923 400.206477 
L 488.265012 351.031008 
L 488.509101 333.210518 
L 488.75319 325.731003 
L 488.997279 324.367064 
L 489.241368 326.389275 
L 489.973635 338.705024 
L 491.438169 363.116175 
L 493.390881 393.822728 
L 494.123148 408.679929 
L 494.611325 422.222132 
L 495.099503 444.070371 
L 495.343592 465.450389 
L 495.587681 552.546863 
L 495.83177 463.911141 
L 496.319948 434.130488 
L 496.808126 420.428412 
L 497.540393 407.944632 
L 498.27266 399.415596 
L 499.249016 390.741091 
L 500.71355 380.033891 
L 502.666262 365.706827 
L 503.642618 356.739398 
L 504.374885 347.998501 
L 505.107152 335.718714 
L 505.59533 323.716286 
L 506.083508 308.62237 
L 506.327597 313.563202 
L 506.571686 373.070253 
L 506.815775 331.64346 
L 507.059864 332.806464 
L 508.524398 359.591652 
L 509.744843 375.966308 
L 511.941644 404.334766 
L 512.673911 417.036518 
L 513.162088 428.540718 
L 513.650266 446.155815 
L 513.894355 461.070375 
L 514.138444 492.393166 
L 514.382533 494.561852 
L 514.626622 462.393475 
L 515.1148 438.015923 
L 515.602978 425.019383 
L 516.335245 412.26862 
L 517.311601 400.315065 
L 518.532046 388.483044 
L 520.972936 365.726401 
L 522.193381 351.757169 
L 522.681559 346.306663 
L 522.925648 344.602465 
L 523.169737 344.906244 
L 523.413826 349.573939 
L 523.657915 363.797534 
L 523.902004 415.181632 
L 524.146093 381.727251 
L 524.390182 365.125042 
L 524.634271 360.238333 
L 524.87836 359.37981 
L 525.122449 360.269273 
L 525.610627 364.061587 
L 528.783784 394.322455 
L 529.76014 405.005326 
L 530.492407 414.989892 
L 530.980585 423.593742 
L 531.468762 435.400872 
L 531.95694 455.21656 
L 532.201029 474.76723 
L 532.445118 578.567032 
L 532.689207 476.174096 
L 533.177385 443.56409 
L 533.665563 428.187093 
L 534.39783 413.444684 
L 535.374186 399.546056 
L 536.83872 382.8504 
L 538.791432 362.900394 
L 539.035521 361.20354 
L 539.27961 360.292579 
L 539.523699 360.790868 
L 539.767788 363.826507 
L 540.011877 371.619235 
L 540.255966 390.209496 
L 540.500055 467.669131 
L 540.744144 388.611709 
L 540.988233 373.424883 
L 541.232322 367.0696 
L 541.476411 364.505649 
L 541.7205 363.895296 
L 541.964589 364.355773 
L 542.452767 366.81998 
L 543.673212 375.416402 
L 546.358191 395.693142 
L 547.334547 404.772033 
L 548.066814 413.510207 
L 548.554992 421.163507 
L 549.04317 431.72755 
L 549.531347 449.164283 
L 549.775436 465.247435 
L 550.019525 507.036047 
L 550.751792 442.365214 
L 551.23997 425.190676 
L 551.972237 408.845559 
L 552.948593 393.367805 
L 553.924949 381.153628 
L 554.657216 374.366871 
L 554.901305 373.08897 
L 555.145394 372.786442 
L 555.389483 374.080554 
L 555.633572 378.12708 
L 555.877661 387.48073 
L 556.365839 427.382774 
L 556.609928 388.95527 
L 556.854017 374.896435 
L 557.098106 367.812206 
L 557.342195 364.224889 
L 557.586284 362.646529 
L 557.830373 362.271558 
L 558.074462 362.626524 
L 558.56264 364.489773 
L 559.783085 371.168442 
L 563.200331 391.169925 
L 564.176687 398.448159 
L 564.908954 405.480704 
L 565.641221 415.313209 
L 566.129399 425.137201 
L 566.617577 441.585125 
L 566.861666 456.709112 
L 567.105755 493.46972 
L 567.349844 478.166495 
L 567.593933 449.861997 
L 568.08211 425.235227 
L 568.570288 411.10045 
L 569.302555 397.045227 
L 569.790733 390.901979 
L 570.034822 388.963935 
L 570.278911 388.114948 
L 570.523 388.890006 
L 570.767089 392.352349 
L 571.011178 401.050628 
L 571.255267 425.271073 
L 571.499356 431.370232 
L 571.743445 393.9792 
L 572.231623 368.660327 
L 572.719801 359.982557 
L 572.96389 358.367515 
L 573.207979 357.760362 
L 573.452068 357.805093 
L 573.696157 358.266073 
L 574.184335 359.871752 
L 575.892958 367.174823 
L 579.554293 383.120979 
L 580.530649 388.803187 
L 581.262916 394.367683 
L 581.995183 402.071132 
L 582.483361 409.415765 
L 582.971539 420.296735 
L 583.459717 439.756527 
L 583.703806 459.526671 
L 583.947895 572.497897 
L 584.191984 461.835034 
L 584.436073 442.93969 
L 584.680162 433.530683 
L 584.924251 429.20785 
L 585.16834 429.799084 
L 585.412429 438.639164 
L 585.656518 488.194638 
L 585.900607 432.588738 
L 586.388784 386.79954 
L 586.876962 366.09264 
L 587.36514 355.980189 
L 587.853318 351.966484 
L 588.097407 351.282585 
L 588.341496 351.129308 
L 588.585585 351.330731 
L 589.073763 352.343349 
L 590.294208 355.993399 
L 592.24692 361.671485 
L 594.68781 368.649268 
L 595.664166 372.099829 
L 596.640522 376.520237 
L 597.372789 380.860095 
L 598.349145 388.352353 
L 599.081412 393.487933 
L 599.325501 393.91859 
L 599.56959 392.961172 
L 599.813679 390.229845 
L 600.301857 379.695507 
L 601.278213 354.777938 
L 601.766391 347.47374 
L 602.254569 343.848614 
L 602.498658 342.996545 
L 602.742747 342.571301 
L 602.986836 342.44871 
L 603.230925 342.534567 
L 603.719103 343.075899 
L 604.939547 345.122726 
L 606.64817 347.849477 
L 609.821327 352.569832 
L 610.797683 354.491966 
L 612.018128 357.52066 
L 612.750395 359.265308 
L 612.994484 359.613172 
L 613.238573 359.703541 
L 613.482662 359.416814 
L 613.726751 358.624831 
L 613.97084 357.221127 
L 614.459018 352.510775 
L 615.679463 337.578313 
L 616.167641 333.950472 
L 616.655819 331.866753 
L 617.143997 330.80323 
L 617.632175 330.320837 
L 618.120353 330.138916 
L 619.096709 330.112961 
L 621.537599 330.150783 
L 623.246221 330.187875 
L 624.222577 330.450697 
L 624.954844 330.889071 
L 625.687111 331.598965 
L 626.907556 332.999619 
L 627.151645 333.104474 
L 627.395734 333.041323 
L 627.639823 332.750505 
L 627.883912 332.180743 
L 628.37209 330.120843 
L 629.104357 325.287096 
L 630.324802 317.105146 
L 631.301158 312.386801 
L 632.277514 308.786707 
L 633.742048 304.271913 
L 635.450671 299.615134 
L 636.427027 297.479527 
L 636.915205 296.735055 
L 637.403383 296.339067 
L 637.647472 296.311261 
L 637.891561 296.419465 
L 638.13565 296.679906 
L 638.623828 297.708572 
L 639.112006 299.440005 
L 640.088362 304.351749 
L 640.820628 307.542056 
L 641.064717 308.130519 
L 641.308806 308.39121 
L 641.552895 308.30004 
L 641.796984 307.855188 
L 642.285162 305.987846 
L 642.77334 303.059558 
L 643.749696 295.267133 
L 645.21423 282.928306 
L 645.458319 281.75253 
L 645.702408 281.610157 
L 645.946497 283.630562 
L 646.190586 290.963436 
L 646.434675 320.411705 
L 647.166942 250.114047 
L 647.166942 250.114047 
" style="fill:none;stroke:#008000;stroke-dasharray:7.4,3.2;stroke-dashoffset:0;stroke-width:2;"/>
   </g>
   <g id="line2d_28">
    <path clip-path="url(#p2d52771c74)" d="M 159.233058 152.476249 
L 161.18577 152.350013 
L 163.138482 151.974412 
L 165.091194 151.358508 
L 167.043905 150.516581 
L 169.240706 149.322287 
L 171.681596 147.72427 
L 174.366575 145.688709 
L 177.539732 142.986398 
L 181.445156 139.344261 
L 186.815113 133.999684 
L 213.664902 106.840215 
L 235.877 84.912855 
L 249.057805 71.626236 
L 251.010517 70.018242 
L 252.475051 69.044968 
L 253.695496 68.46546 
L 254.671852 68.210769 
L 255.648208 68.19988 
L 256.380475 68.392103 
L 257.112741 68.794273 
L 257.845008 69.447449 
L 258.577275 70.400141 
L 259.309542 71.71005 
L 260.041809 73.446831 
L 260.774076 75.696768 
L 261.506343 78.571121 
L 262.23861 82.221717 
L 262.970877 86.871797 
L 263.703144 92.882429 
L 264.435411 100.915711 
L 265.167678 112.432418 
L 265.655856 123.918586 
L 266.144034 143.073444 
L 266.388123 161.155597 
L 266.632212 218.309588 
L 266.876301 170.923325 
L 267.364479 136.235413 
L 267.852657 121.416727 
L 268.340835 112.086454 
L 269.073102 102.723789 
L 269.805369 96.360187 
L 270.537636 91.797279 
L 271.269903 88.465789 
L 272.00217 86.047879 
L 272.734437 84.345025 
L 273.466704 83.221771 
L 274.198971 82.578813 
L 274.687149 82.378385 
L 275.419415 82.372981 
L 276.151682 82.675304 
L 276.883949 83.242209 
L 277.860305 84.351369 
L 278.836661 85.81032 
L 280.057106 88.068463 
L 281.277551 90.779323 
L 282.742085 94.645926 
L 283.96253 98.450639 
L 285.182975 102.9185 
L 286.40342 108.27673 
L 287.379776 113.46956 
L 288.356132 119.862874 
L 289.088399 125.852251 
L 289.820666 133.483333 
L 290.552933 143.991835 
L 291.041111 154.083166 
L 291.529289 169.872928 
L 291.773378 183.027721 
L 292.261556 235.580375 
L 292.505645 191.490299 
L 292.993823 164.206353 
L 293.482001 150.356506 
L 294.214267 137.208982 
L 294.946534 128.12497 
L 295.92289 119.161364 
L 296.899246 112.271699 
L 298.119691 105.46006 
L 299.340136 100.0272 
L 300.560581 95.660578 
L 301.536937 92.85621 
L 302.513293 90.671309 
L 303.24556 89.474886 
L 303.977827 88.707965 
L 304.466005 88.467359 
L 304.954183 88.472284 
L 305.442361 88.753605 
L 305.930539 89.348736 
L 306.418717 90.303355 
L 306.906895 91.674133 
L 307.395073 93.533206 
L 308.12734 97.45528 
L 308.859607 103.203547 
L 309.347785 108.496649 
L 309.835963 115.57208 
L 310.324141 125.600362 
L 310.812319 141.830228 
L 311.056408 155.754838 
L 311.300497 183.848745 
L 311.544586 196.447843 
L 311.788675 160.037918 
L 312.276852 134.66596 
L 312.76503 121.761581 
L 313.497297 109.968189 
L 314.229564 102.419631 
L 314.961831 97.219041 
L 315.694098 93.548735 
L 316.426365 90.972963 
L 317.158632 89.226347 
L 317.890899 88.131587 
L 318.379077 87.70003 
L 318.867255 87.472449 
L 319.355433 87.424833 
L 320.0877 87.647999 
L 320.819967 88.177932 
L 321.552234 88.974411 
L 322.52859 90.40266 
L 323.504946 92.213193 
L 324.725391 94.995097 
L 325.945836 98.385558 
L 327.166281 102.49018 
L 328.386726 107.520014 
L 329.363082 112.465191 
L 330.339437 118.611372 
L 331.071704 124.399521 
L 331.803971 131.782397 
L 332.536238 141.902099 
L 333.024416 151.499191 
L 333.512594 166.103948 
L 333.756683 177.689606 
L 334.000772 197.402823 
L 334.244861 312.628565 
L 334.48895 198.478169 
L 334.977128 166.45003 
L 335.465306 151.711518 
L 336.197573 138.314547 
L 336.92984 129.462181 
L 337.662107 123.046911 
L 338.394374 118.2554 
L 339.126641 114.728251 
L 339.858908 112.32328 
L 340.347086 111.335957 
L 340.835264 110.869434 
L 341.079353 110.846272 
L 341.323442 110.974428 
L 341.567531 111.264862 
L 342.055709 112.389307 
L 342.543887 114.368441 
L 343.032065 117.434594 
L 343.520243 121.976852 
L 344.008421 128.726749 
L 344.496599 139.350318 
L 344.740688 147.425367 
L 344.984777 159.400975 
L 345.228866 181.609134 
L 345.472955 227.933438 
L 345.717044 171.189373 
L 346.205222 141.813057 
L 346.6934 127.391648 
L 347.425667 114.190433 
L 348.157934 105.671914 
L 348.8902 99.763924 
L 349.622467 95.576216 
L 350.354734 92.627811 
L 351.087001 90.619401 
L 351.819268 89.34648 
L 352.307446 88.831519 
L 352.795624 88.542366 
L 353.283802 88.450368 
L 353.77198 88.531606 
L 354.504247 88.935671 
L 355.236514 89.632416 
L 356.21287 90.951619 
L 357.189226 92.66468 
L 358.409671 95.32053 
L 359.630116 98.557253 
L 360.850561 102.447987 
L 362.071006 107.144825 
L 363.291451 112.912739 
L 364.267807 118.593636 
L 365.244163 125.632038 
L 366.220519 134.696765 
L 366.952785 143.566448 
L 367.685052 155.402531 
L 368.17323 166.1282 
L 368.661408 181.26319 
L 369.149586 207.816236 
L 369.393675 238.70689 
L 369.637764 248.904688 
L 369.881853 216.37558 
L 370.370031 196.549346 
L 370.61412 192.588462 
L 370.858209 190.807639 
L 371.102298 190.947729 
L 371.346387 193.157151 
L 371.590476 198.112827 
L 371.834565 207.772878 
L 372.322743 251.09805 
L 372.566832 206.227178 
L 373.05501 174.481887 
L 373.543188 156.648528 
L 374.275455 138.595055 
L 375.007722 125.745814 
L 375.739989 116.017439 
L 376.716345 106.362498 
L 377.448612 100.978653 
L 378.180879 96.839554 
L 378.913146 93.720187 
L 379.645413 91.442616 
L 380.37768 89.86119 
L 381.109947 88.854757 
L 381.842214 88.32227 
L 382.330392 88.188597 
L 383.062659 88.267603 
L 383.794926 88.630238 
L 384.527193 89.229188 
L 385.503548 90.332507 
L 386.723993 92.113154 
L 388.188527 94.728084 
L 389.89715 98.307482 
L 392.826218 105.165619 
L 394.290752 108.27516 
L 395.267108 109.794151 
L 395.999375 110.448105 
L 396.487553 110.590405 
L 396.975731 110.468349 
L 397.463909 110.068886 
L 397.952087 109.392987 
L 398.684354 107.900121 
L 399.66071 105.204524 
L 403.322044 93.982021 
L 404.2984 91.860386 
L 405.274756 90.255881 
L 406.251112 89.122513 
L 407.227468 88.384425 
L 408.203824 87.954343 
L 409.424269 87.716127 
L 411.376981 87.651288 
L 413.085604 87.519613 
L 414.306049 87.197778 
L 415.526494 86.604251 
L 416.746939 85.733276 
L 418.699651 83.984104 
L 420.164185 82.754769 
L 421.140541 82.163815 
L 422.116896 81.843445 
L 422.849163 81.802399 
L 423.825519 82.013065 
L 424.801875 82.500112 
L 426.02232 83.423479 
L 427.730943 85.094956 
L 430.415922 87.780768 
L 431.392278 88.431149 
L 432.124545 88.642005 
L 432.612723 88.591142 
L 433.100901 88.341379 
L 433.589079 87.848406 
L 434.077257 87.066039 
L 434.565435 85.950806 
L 435.297702 83.584419 
L 436.029969 80.368648 
L 437.006325 74.993873 
L 439.447215 60.965258 
L 440.179481 57.979134 
L 440.42357 57.592328 
L 440.667659 58.01252 
L 444.084905 68.295724 
L 445.30535 70.907412 
L 446.525795 73.007874 
L 447.990329 75.019886 
L 450.431219 78.107102 
L 451.163486 79.487334 
L 451.651664 80.790389 
L 452.139842 82.637947 
L 452.62802 85.410077 
L 453.116198 89.855718 
L 453.604376 97.76157 
L 453.848465 104.48631 
L 454.092554 115.534675 
L 454.580732 154.041271 
L 454.824821 112.282574 
L 455.312999 79.262023 
L 456.045266 48.412892 
L 457.021622 15.981147 
L 457.265711 12.732689 
L 457.5098 13.676643 
L 457.997978 22.785331 
L 458.974333 41.946154 
L 459.950689 55.886546 
L 460.927045 66.627915 
L 462.14749 77.61856 
L 465.076558 102.338989 
L 465.808825 111.219289 
L 466.297003 119.518385 
L 466.785181 132.29724 
L 467.02927 142.575896 
L 467.273359 160.028681 
L 467.517448 223.08234 
L 467.761537 165.011054 
L 468.249715 128.420257 
L 468.737893 110.596905 
L 469.47016 92.476956 
L 470.446516 74.640008 
L 471.178783 64.389854 
L 471.422872 61.95034 
L 471.666961 60.868216 
L 471.91105 61.934313 
L 472.399228 67.923346 
L 473.131495 81.588666 
L 473.619673 94.123173 
L 474.107851 111.855351 
L 474.35194 125.050102 
L 474.596029 146.482328 
L 474.840118 299.657065 
L 475.084207 149.731131 
L 475.572385 120.728176 
L 476.060563 108.563599 
L 476.54874 101.223595 
L 477.281007 94.073648 
L 478.013274 89.155867 
L 478.98963 84.22607 
L 480.454164 78.258897 
L 482.895054 68.574462 
L 484.115499 62.74213 
L 485.091855 57.01277 
L 486.068211 49.711495 
L 486.800478 42.689007 
L 488.020923 29.753359 
L 488.265012 29.442506 
L 488.509101 31.821521 
L 488.75319 37.639011 
L 489.241368 60.353582 
L 489.485457 79.888264 
L 489.729546 121.393644 
L 489.973635 110.840939 
L 490.217724 87.672216 
L 490.461813 78.592659 
L 490.705902 74.5476 
L 490.949991 73.31236 
L 491.19408 73.813022 
L 491.682258 77.533269 
L 492.414525 85.918229 
L 493.390881 99.987444 
L 494.123148 114.037765 
L 494.611325 127.330854 
L 495.099503 149.674952 
L 495.343592 173.038516 
L 495.587681 217.844531 
L 495.83177 163.487 
L 496.319948 135.426989 
L 496.808126 121.780844 
L 497.540393 108.980716 
L 498.27266 100.020672 
L 499.249016 90.731698 
L 500.957639 77.246042 
L 502.666262 63.584514 
L 503.642618 54.072329 
L 504.374885 44.982695 
L 505.107152 32.461518 
L 505.59533 20.269467 
L 506.193998 -1 
M 506.529685 -1 
L 506.571686 -0.127392 
L 507.548042 62.106638 
L 507.792131 83.395438 
L 508.03622 123.430246 
L 508.280309 120.850324 
L 508.524398 96.647896 
L 508.768487 87.539634 
L 509.012576 83.248809 
L 509.256665 81.385944 
L 509.500754 80.964264 
L 509.744843 81.460538 
L 510.233021 84.091372 
L 510.965288 90.265276 
L 511.697555 98.220232 
L 512.429822 108.339608 
L 512.917999 117.135813 
L 513.406177 129.187491 
L 513.894355 149.288151 
L 514.138444 168.995784 
L 514.382533 273.124736 
L 514.626622 170.725914 
L 515.1148 138.482686 
L 515.602978 123.501146 
L 516.335245 109.414973 
L 517.067512 99.394601 
L 518.287957 86.337761 
L 521.461114 54.723666 
L 522.43747 41.746158 
L 523.169737 31.637106 
L 523.413826 29.787908 
L 523.657915 30.121535 
L 523.902004 33.466376 
L 524.390182 49.068414 
L 524.87836 75.744548 
L 525.122449 97.664023 
L 525.366538 155.82551 
L 525.610627 116.939609 
L 525.854716 98.285954 
L 526.098805 90.127121 
L 526.342894 85.946313 
L 526.586983 83.889029 
L 526.831072 83.138758 
L 527.075161 83.251359 
L 527.31925 83.958168 
L 527.807428 86.536264 
L 528.539695 92.219414 
L 529.271962 99.582488 
L 530.004229 109.077893 
L 530.492407 117.403204 
L 530.980585 128.835631 
L 531.468762 147.704108 
L 531.712851 165.499739 
L 531.95694 221.198117 
L 532.201029 175.19961 
L 532.689207 139.554282 
L 533.177385 123.719544 
L 533.909652 108.883262 
L 534.886008 95.193592 
L 536.106453 81.629575 
L 539.035521 50.082284 
L 539.523699 45.29936 
L 539.767788 43.750469 
L 540.011877 43.306666 
L 540.255966 44.482985 
L 540.500055 47.73186 
L 540.988233 61.447284 
L 541.476411 88.147288 
L 541.7205 114.734868 
L 541.964589 158.913589 
L 542.208678 110.516269 
L 542.452767 96.895236 
L 542.696856 90.130378 
L 542.940945 86.467727 
L 543.185034 84.588085 
L 543.429123 83.853319 
L 543.673212 83.897785 
L 543.917301 84.49266 
L 544.405479 86.789846 
L 545.137746 92.000223 
L 545.870013 98.827067 
L 546.60228 107.617752 
L 547.334547 119.914426 
L 547.822725 132.339308 
L 548.066814 141.380799 
L 548.310903 154.680534 
L 548.799081 203.394665 
L 549.04317 161.565708 
L 549.531347 134.321016 
L 550.019525 120.043906 
L 550.751792 105.863888 
L 551.728148 92.20903 
L 553.192682 75.572275 
L 555.145394 55.472687 
L 555.633572 52.451999 
L 555.877661 52.14525 
L 556.12175 53.122379 
L 556.365839 55.77822 
L 556.609928 60.476556 
L 557.098106 77.767927 
L 557.342195 92.728899 
L 557.830373 155.853184 
L 558.074462 111.579415 
L 558.318551 97.992883 
L 558.806729 87.147429 
L 559.050818 85.040768 
L 559.294907 84.092438 
L 559.538996 83.940515 
L 559.783085 84.355736 
L 560.271263 86.33225 
L 561.00353 91.100979 
L 561.735797 97.439244 
L 562.468064 105.554647 
L 563.200331 116.651805 
L 563.688509 127.386549 
L 564.176687 144.810111 
L 564.420776 160.497029 
L 564.664865 198.384418 
L 564.908954 182.074864 
L 565.153043 154.541875 
L 565.641221 130.84882 
L 566.129399 117.398957 
L 566.861666 103.565146 
L 567.838021 89.897506 
L 569.302555 73.144717 
L 570.278911 63.591113 
L 570.767089 60.225658 
L 571.011178 59.377498 
L 571.255267 59.423869 
L 571.499356 60.694935 
L 571.743445 63.561862 
L 571.987534 68.434719 
L 572.231623 75.852369 
L 572.475712 86.841045 
L 572.719801 104.316574 
L 572.96389 145.251361 
L 573.207979 130.104412 
L 573.452068 106.09483 
L 573.940246 89.822896 
L 574.428424 84.656408 
L 574.672513 83.85238 
L 574.916602 83.766078 
L 575.160691 84.199211 
L 575.648869 86.130969 
L 576.381136 90.729186 
L 577.113403 96.814652 
L 577.84567 104.566164 
L 578.577937 115.054675 
L 579.066115 125.013972 
L 579.554293 140.555441 
L 579.798382 153.531885 
L 580.28656 205.963318 
L 580.530649 161.409805 
L 581.018827 133.464217 
L 581.507005 118.829084 
L 582.239272 104.209863 
L 583.215628 90.07231 
L 584.436073 76.078186 
L 585.16834 69.467517 
L 585.656518 66.699728 
L 585.900607 66.245157 
L 586.144695 66.731856 
L 586.388784 68.479473 
L 586.632873 71.877449 
L 586.876962 77.432733 
L 587.121051 85.964846 
L 587.36514 99.335676 
L 587.853318 161.072794 
L 588.097407 114.943029 
L 588.341496 100.396958 
L 588.829674 88.086564 
L 589.073763 85.39405 
L 589.317852 83.937556 
L 589.561941 83.344084 
L 589.80603 83.37248 
L 590.050119 83.858706 
L 590.538297 85.785335 
L 591.270564 90.222085 
L 592.002831 96.022476 
L 592.735098 103.335223 
L 593.467365 113.068559 
L 593.955543 122.074997 
L 594.443721 135.46169 
L 594.68781 145.763858 
L 594.931899 162.280365 
L 595.175988 206.943543 
L 595.664166 152.211904 
L 596.152344 129.239807 
L 596.640522 115.886991 
L 597.372789 102.037206 
L 598.349145 88.589006 
L 599.081412 80.798227 
L 599.56959 76.892269 
L 600.057768 74.732854 
L 600.301857 74.693868 
L 600.545946 75.667771 
L 600.790035 77.990815 
L 601.034124 82.123506 
L 601.278213 88.783729 
L 601.522302 99.405134 
L 601.766391 118.258873 
L 602.01048 190.746856 
L 602.254569 125.592788 
L 602.498658 106.021695 
L 602.986836 90.190536 
L 603.475014 84.276428 
L 603.719103 83.060673 
L 603.963192 82.57828 
L 604.20728 82.637039 
L 604.451369 83.100771 
L 604.939547 84.882415 
L 605.671814 88.939055 
L 606.64817 96.175155 
L 607.380437 103.139937 
L 608.112704 112.288905 
L 608.600882 120.606374 
L 609.08906 132.58237 
L 609.333149 141.355818 
L 609.577238 154.288149 
L 610.065416 206.181612 
L 610.309505 161.880167 
L 610.797683 133.956876 
L 611.285861 119.405082 
L 612.018128 105.231461 
L 612.750395 95.541362 
L 613.238573 91.016278 
L 613.726751 88.390736 
L 613.97084 88.062655 
L 614.214929 88.642267 
L 614.459018 90.422584 
L 614.703107 93.844559 
L 614.947196 99.649027 
L 615.191285 109.364696 
L 615.435374 127.598868 
L 615.679463 216.857541 
L 615.923552 129.967318 
L 616.167641 109.970325 
L 616.655819 92.434225 
L 617.143997 84.900556 
L 617.632175 81.835983 
L 617.876264 81.30964 
L 618.120353 81.24454 
L 618.364442 81.532166 
L 618.85262 82.859651 
L 619.584887 86.038762 
L 620.561243 91.626226 
L 621.537599 98.575464 
L 622.269866 105.027231 
L 623.002132 113.259338 
L 623.734399 124.803808 
L 624.222577 136.260276 
L 624.710755 155.273977 
L 624.954844 172.899478 
L 625.198933 222.522631 
L 625.687111 164.218471 
L 626.175289 145.240355 
L 626.663467 137.898821 
L 626.907556 137.14143 
L 627.151645 138.578418 
L 627.395734 143.096331 
L 627.639823 153.216507 
L 627.883912 180.875176 
L 628.128001 177.192065 
L 628.37209 142.553787 
L 628.860268 113.767218 
L 629.348446 98.470064 
L 629.836624 89.129287 
L 630.324802 83.45106 
L 630.81298 80.245757 
L 631.301158 78.725431 
L 631.545247 78.41112 
L 631.789336 78.315581 
L 632.033425 78.391246 
L 632.521603 78.904795 
L 633.25387 80.17421 
L 634.962493 83.291489 
L 635.450671 83.86368 
L 635.938849 84.166036 
L 636.427027 84.124378 
L 636.915205 83.666773 
L 637.403383 82.738285 
L 637.891561 81.325384 
L 638.623828 78.447593 
L 640.088362 72.445941 
L 640.57654 71.228746 
L 641.064717 70.560626 
L 641.552895 70.322599 
L 643.017429 70.201957 
L 643.505607 69.833382 
L 644.726052 68.605215 
L 644.970141 69.018173 
L 645.21423 70.279818 
L 645.458319 73.016788 
L 645.702408 78.342983 
L 645.946497 88.966101 
L 646.190586 117.532352 
L 646.434675 111.431536 
L 646.678764 78.142761 
L 646.922853 63.018636 
L 647.166942 55.433671 
L 647.166942 55.433671 
" style="fill:none;stroke:#00bfbf;stroke-dasharray:7.4,3.2;stroke-dashoffset:0;stroke-width:2;"/>
   </g>
   <g id="line2d_29">
    <path clip-path="url(#p2d52771c74)" d="M 159.233058 83.184097 
L 167.043905 83.298626 
L 174.610664 83.631189 
L 181.933334 84.169982 
L 189.011914 84.909376 
L 195.602317 85.812552 
L 201.948631 86.907067 
L 207.562677 88.091998 
L 212.688546 89.387571 
L 217.570326 90.852559 
L 221.963927 92.407794 
L 225.869351 94.021024 
L 229.530686 95.772186 
L 232.947932 97.652876 
L 236.365178 99.802365 
L 239.782423 102.223217 
L 246.861004 107.372238 
L 248.325538 108.073228 
L 249.301894 108.336403 
L 250.27825 108.370453 
L 251.010517 108.206242 
L 251.742784 107.846528 
L 252.475051 107.261676 
L 253.207318 106.424169 
L 253.939585 105.31113 
L 254.915941 103.373009 
L 255.892297 100.909906 
L 257.112741 97.140952 
L 258.577275 91.802625 
L 261.750432 78.981019 
L 263.703144 71.609573 
L 265.411767 66.061486 
L 266.876301 62.070339 
L 268.340835 58.75065 
L 269.317191 56.869985 
L 269.56128 56.965209 
L 272.978526 62.828602 
L 275.907593 67.430596 
L 279.08075 72.005322 
L 283.474352 77.908678 
L 289.820666 86.448976 
L 293.237912 91.468623 
L 298.851958 99.875913 
L 299.828314 100.924215 
L 300.560581 101.464663 
L 301.292848 101.713676 
L 301.781026 101.677977 
L 302.269204 101.452734 
L 302.757382 101.015544 
L 303.24556 100.347592 
L 303.977827 98.885979 
L 304.710094 96.864967 
L 305.68645 93.364491 
L 306.906895 87.995231 
L 311.056408 68.756801 
L 312.276852 64.328659 
L 313.497297 60.641611 
L 314.717742 57.614983 
L 314.961831 57.079302 
L 315.20592 56.835938 
L 318.134988 62.710649 
L 321.064056 68.063472 
L 324.725391 74.233418 
L 331.803971 86.055008 
L 335.465306 92.240108 
L 336.685751 93.903633 
L 337.418018 94.638721 
L 338.150285 95.075485 
L 338.638463 95.152781 
L 339.126641 95.023792 
L 339.614819 94.659972 
L 340.102997 94.037235 
L 340.835264 92.584242 
L 341.567531 90.504249 
L 342.543887 86.859906 
L 344.008421 80.168934 
L 346.449311 68.862555 
L 347.669756 64.1571 
L 348.8902 60.265647 
L 350.110645 57.113282 
L 350.354734 56.840317 
L 353.283802 63.118771 
L 355.968781 68.346838 
L 359.386027 74.49421 
L 363.779629 81.965147 
L 365.732341 84.941639 
L 366.952785 86.449762 
L 367.929141 87.288837 
L 368.661408 87.601979 
L 369.149586 87.617995 
L 369.637764 87.453114 
L 370.125942 87.086496 
L 370.61412 86.501435 
L 371.346387 85.194004 
L 372.078654 83.376291 
L 373.05501 80.257274 
L 374.519544 74.627897 
L 376.960434 65.217038 
L 378.424968 60.591664 
L 379.645413 57.452795 
L 379.889502 56.897177 
L 380.133591 57.04018 
L 383.062659 63.212504 
L 385.747637 68.336664 
L 388.188527 72.548607 
L 390.141239 75.55071 
L 391.605773 77.46642 
L 392.826218 78.710979 
L 393.802574 79.37219 
L 394.534841 79.613027 
L 395.267108 79.59011 
L 395.999375 79.267016 
L 396.731642 78.617947 
L 397.463909 77.63441 
L 398.440265 75.830124 
L 399.66071 72.930937 
L 401.857511 66.866335 
L 403.810222 61.733422 
L 405.274756 58.453195 
L 406.007023 57.018334 
L 406.251112 56.831035 
L 409.668358 62.853917 
L 411.865159 66.27749 
L 413.329693 68.20822 
L 414.550138 69.490124 
L 415.526494 70.227261 
L 416.258761 70.574595 
L 416.991028 70.722263 
L 417.723295 70.655942 
L 418.455562 70.371251 
L 419.187829 69.876052 
L 420.164185 68.925363 
L 421.38463 67.382298 
L 424.069608 63.439222 
L 426.02232 60.752899 
L 427.730943 58.751165 
L 429.439566 57.09698 
L 429.927744 56.715503 
L 432.124545 58.366187 
L 434.077257 59.563399 
L 436.274058 60.640123 
L 441.399926 62.867314 
L 442.86446 63.188878 
L 444.328994 63.255794 
L 445.549439 63.09242 
L 446.769884 62.693207 
L 447.74624 62.166848 
L 448.722596 61.410633 
L 449.698952 60.36252 
L 450.675308 58.931554 
L 451.651664 56.979725 
L 451.895753 57.016234 
L 452.62802 59.333392 
L 453.116198 61.541972 
L 453.604376 64.643748 
L 454.092554 69.305547 
L 454.580732 77.159373 
L 454.824821 83.644314 
L 455.06891 94.097651 
L 455.557088 140.4929 
L 455.801177 92.844065 
L 456.289355 57.408333 
L 456.777533 34.844648 
L 457.021622 26.879052 
L 457.265711 22.778295 
L 457.5098 23.308115 
L 457.997978 32.39449 
L 458.974333 52.951734 
L 460.194778 73.097571 
L 463.123846 117.397189 
L 463.856113 133.646435 
L 464.344291 150.178697 
L 464.58838 163.134961 
L 464.832469 186.014667 
L 465.076558 235.782849 
L 465.320647 177.696021 
L 465.808825 148.891685 
L 466.297003 134.587977 
L 467.02927 120.446025 
L 468.005626 106.294397 
L 470.690605 72.452334 
L 471.91105 58.963647 
L 472.155139 56.718584 
L 473.131495 66.643407 
L 474.840118 87.217239 
L 476.304651 107.346139 
L 477.036918 119.995863 
L 477.525096 131.012126 
L 478.013274 147.023645 
L 478.257363 159.565897 
L 478.501452 181.390751 
L 478.745541 245.426731 
L 478.98963 176.094533 
L 479.477808 146.386873 
L 479.965986 132.017418 
L 480.698253 118.292568 
L 481.674609 105.528214 
L 482.895054 92.917773 
L 485.824122 63.988801 
L 486.800478 51.836449 
L 488.020923 35.674777 
L 488.265012 34.909245 
L 488.509101 36.959222 
L 488.75319 42.619811 
L 488.997279 52.135411 
L 489.241368 66.106668 
L 489.485457 88.260297 
L 489.729546 170.128414 
L 489.973635 98.665272 
L 490.217724 80.565634 
L 490.705902 65.390383 
L 491.19408 58.138799 
L 491.438169 57.716408 
L 492.414525 66.050036 
L 493.879059 76.551252 
L 496.075859 92.082986 
L 497.052215 100.720358 
L 497.784482 109.191578 
L 498.27266 116.721434 
L 498.760838 127.266163 
L 499.249016 145.06152 
L 499.493105 162.039136 
L 499.737194 212.958946 
L 500.225372 148.692744 
L 500.71355 125.717133 
L 501.445817 106.370363 
L 502.422173 88.554442 
L 504.618974 52.430408 
L 505.351241 35.568387 
L 505.839419 19.459498 
L 506.327597 1.31241 
L 506.571686 6.52012 
L 507.303953 56.899668 
L 507.548042 80.619611 
L 507.792131 139.68617 
L 508.03622 100.558726 
L 508.280309 81.274467 
L 508.768487 66.136522 
L 509.256665 59.085076 
L 509.500754 56.738281 
L 510.721199 65.735499 
L 512.429822 76.15023 
L 514.138444 86.605682 
L 515.1148 93.778803 
L 515.847067 100.546875 
L 516.579334 109.712973 
L 517.067512 118.492008 
L 517.55569 132.18098 
L 517.799779 143.353213 
L 518.043868 163.004856 
L 518.287957 269.868815 
L 518.532046 160.120595 
L 519.020224 127.104801 
L 519.508402 110.417361 
L 520.240669 93.227535 
L 521.461114 70.847035 
L 523.169737 41.65993 
L 523.413826 39.614931 
L 523.657915 40.096802 
L 523.902004 44.107468 
L 524.146093 52.064237 
L 524.390182 64.28434 
L 524.634271 82.936457 
L 524.87836 123.697933 
L 525.122449 111.688122 
L 525.366538 87.165728 
L 525.854716 69.406308 
L 526.342894 61.374066 
L 526.831072 56.776558 
L 527.807428 63.657112 
L 529.271962 72.281813 
L 531.468762 84.899296 
L 532.445118 91.736807 
L 533.177385 98.207754 
L 533.909652 106.982534 
L 534.39783 115.370965 
L 534.886008 128.339045 
L 535.130097 138.731101 
L 535.374186 156.262992 
L 535.618275 218.040627 
L 535.862364 162.040706 
L 536.350542 125.69602 
L 536.83872 108.23488 
L 537.570987 90.498232 
L 538.547343 72.381722 
L 539.27961 61.27629 
L 539.767788 56.618747 
L 540.011877 56.215779 
L 540.255966 57.939237 
L 540.500055 62.534172 
L 540.744144 70.915952 
L 540.988233 85.05233 
L 541.476411 130.835654 
L 541.7205 95.035425 
L 542.208678 73.267743 
L 542.696856 63.862742 
L 543.185034 58.421951 
L 543.429123 56.941509 
L 544.649568 64.980181 
L 546.60228 75.765638 
L 548.066814 84.134813 
L 549.04317 90.885935 
L 549.775436 97.337601 
L 550.507703 106.191456 
L 550.995881 114.778705 
L 551.484059 128.337347 
L 551.728148 139.533375 
L 551.972237 159.520454 
L 552.216326 241.471933 
L 552.460415 154.644339 
L 552.948593 121.955375 
L 553.436771 105.218807 
L 554.169038 88.177728 
L 554.901305 75.716639 
L 555.389483 69.985967 
L 555.633572 68.411681 
L 555.877661 68.194429 
L 556.12175 69.898875 
L 556.365839 74.302527 
L 556.609928 82.666454 
L 556.854017 98.129919 
L 557.098106 139.488074 
L 557.830373 81.011668 
L 558.318551 68.238574 
L 558.806729 61.308219 
L 559.294907 56.910314 
L 560.027174 61.436046 
L 561.491708 69.824154 
L 564.176687 84.695711 
L 565.153043 91.696272 
L 565.88531 98.598193 
L 566.373488 104.688839 
L 566.861666 113.006964 
L 567.349844 125.980727 
L 567.593933 136.461344 
L 567.838021 154.32234 
L 568.08211 222.744871 
L 568.326199 158.385148 
L 568.814377 122.808487 
L 569.302555 105.798086 
L 570.034822 89.574619 
L 570.523 82.489087 
L 570.767089 80.192298 
L 571.011178 79.030111 
L 571.255267 79.411295 
L 571.499356 81.965591 
L 571.743445 87.745142 
L 571.987534 99.03678 
L 572.475712 140.809511 
L 572.719801 102.616929 
L 573.207979 78.17255 
L 573.696157 67.235896 
L 574.184335 60.887797 
L 574.672513 56.731862 
L 576.137047 65.725029 
L 580.042471 87.540048 
L 580.774738 93.312331 
L 581.507005 100.961437 
L 581.995183 108.011841 
L 582.483361 118.212004 
L 582.971539 136.122773 
L 583.215628 154.008009 
L 583.459717 221.224532 
L 583.703806 158.649798 
L 584.191984 123.452836 
L 584.680162 107.315319 
L 585.16834 97.34787 
L 585.656518 92.004812 
L 585.900607 91.440082 
L 586.144695 92.887882 
L 586.388784 97.305645 
L 586.632873 106.837599 
L 587.121051 153.779419 
L 587.36514 109.460299 
L 587.853318 82.266987 
L 588.341496 69.956466 
L 588.829674 62.807904 
L 589.317852 58.164865 
L 589.561941 56.995461 
L 590.782386 64.410919 
L 592.735098 74.490764 
L 594.199632 82.351089 
L 595.175988 88.719103 
L 595.908255 94.810047 
L 596.640522 103.10917 
L 597.1287 110.988737 
L 597.616878 122.821263 
L 597.860967 131.794786 
L 598.105056 145.457081 
L 598.349145 173.631714 
L 598.593234 184.34753 
L 598.837323 148.502857 
L 599.325501 123.743626 
L 599.813679 113.307553 
L 600.057768 111.367364 
L 600.301857 111.9095 
L 600.545946 115.980675 
L 600.790035 126.57241 
L 601.034124 159.83477 
L 601.278213 141.650924 
L 601.522302 111.663395 
L 602.01048 85.930181 
L 602.498658 72.888815 
L 602.986836 65.035501 
L 603.475014 59.887511 
L 603.719103 57.941911 
L 603.963192 57.113582 
L 605.183636 64.198991 
L 607.136348 73.820406 
L 608.844971 82.564311 
L 609.821327 88.719421 
L 610.553594 94.553173 
L 611.285861 102.270327 
L 611.774039 109.177967 
L 612.262217 118.450061 
L 612.750395 131.675196 
L 613.238573 151.735622 
L 613.726751 177.936641 
L 613.97084 179.75277 
L 614.459018 146.837421 
L 614.947196 115.910921 
L 615.435374 94.849175 
L 615.923552 80.667694 
L 616.41173 71.103446 
L 616.899908 64.561433 
L 617.632175 58.167677 
L 617.876264 56.778708 
L 619.096709 63.337669 
L 620.805332 71.044745 
L 623.49031 82.932438 
L 624.954844 90.772232 
L 626.175289 97.347619 
L 626.663467 98.772928 
L 626.907556 98.84819 
L 627.151645 98.348707 
L 627.395734 97.196378 
L 627.883912 92.926866 
L 628.860268 79.823005 
L 629.836624 67.940265 
L 630.568891 61.730507 
L 631.301158 57.395296 
L 631.545247 57.149741 
L 632.765692 62.209694 
L 633.986137 66.433808 
L 635.450671 70.658057 
L 636.427027 72.927439 
L 637.159294 74.167476 
L 637.647472 74.651839 
L 638.13565 74.764495 
L 638.623828 74.434733 
L 639.112006 73.64213 
L 639.844273 71.736904 
L 642.041073 65.230632 
L 643.505607 61.498448 
L 644.237874 58.889464 
L 644.726052 56.946263 
L 645.21423 60.763238 
L 645.702408 68.100903 
L 645.946497 74.850548 
L 646.190586 86.764856 
L 646.434675 116.269609 
L 646.678764 114.252717 
L 646.922853 83.461457 
L 647.166942 72.251247 
L 647.166942 72.251247 
" style="fill:none;stroke:#ff0000;stroke-dasharray:7.4,3.2;stroke-dashoffset:0;stroke-width:2;"/>
   </g>
   <g id="patch_3">
    <path d="M 108 720.9 
L 108 56.7 
" style="fill:none;stroke:#000000;stroke-linecap:square;stroke-linejoin:miter;stroke-width:0.8;"/>
   </g>
   <g id="patch_4">
    <path d="M 698.4 720.9 
L 698.4 56.7 
" style="fill:none;stroke:#000000;stroke-linecap:square;stroke-linejoin:miter;stroke-width:0.8;"/>
   </g>
   <g id="patch_5">
    <path d="M 108 720.9 
L 698.4 720.9 
" style="fill:none;stroke:#000000;stroke-linecap:square;stroke-linejoin:miter;stroke-width:0.8;"/>
   </g>
   <g id="patch_6">
    <path d="M 108 56.7 
L 698.4 56.7 
" style="fill:none;stroke:#000000;stroke-linecap:square;stroke-linejoin:miter;stroke-width:0.8;"/>
   </g>
   <g id="text_16">
    <!-- $N=20, ka=15, k_p=1.0100, kd=45$  -->
    <g transform="translate(220.3 50.5)scale(0.2 -0.2)">
     <defs>
      <path d="M 16.890625 72.90625 
L 30.171875 72.90625 
L 50.296875 10.40625 
L 62.5 72.90625 
L 72.125 72.90625 
L 57.90625 0 
L 44.578125 0 
L 24.515625 62.890625 
L 12.3125 0 
L 2.6875 0 
z
" id="DejaVuSans-Oblique-78"/>
      <path d="M 10.59375 45.40625 
L 73.1875 45.40625 
L 73.1875 37.203125 
L 10.59375 37.203125 
z
M 10.59375 25.484375 
L 73.1875 25.484375 
L 73.1875 17.1875 
L 10.59375 17.1875 
z
" id="DejaVuSans-61"/>
      <path d="M 11.71875 12.40625 
L 22.015625 12.40625 
L 22.015625 4 
L 14.015625 -11.625 
L 7.71875 -11.625 
L 11.71875 4 
z
" id="DejaVuSans-44"/>
      <path d="M 18.3125 75.984375 
L 27.296875 75.984375 
L 18.703125 31.6875 
L 49.515625 54.6875 
L 61.1875 54.6875 
L 26.8125 28.515625 
L 51.90625 0 
L 41.015625 0 
L 17.671875 26.703125 
L 12.5 0 
L 3.515625 0 
z
" id="DejaVuSans-Oblique-107"/>
      <path d="M 53.71875 31.203125 
L 47.609375 0 
L 38.625 0 
L 40.28125 8.296875 
Q 36.328125 3.421875 31.265625 1 
Q 26.21875 -1.421875 20.015625 -1.421875 
Q 13.03125 -1.421875 8.5625 2.84375 
Q 4.109375 7.125 4.109375 13.8125 
Q 4.109375 23.390625 11.75 28.953125 
Q 19.390625 34.515625 32.8125 34.515625 
L 45.3125 34.515625 
L 45.796875 36.921875 
Q 45.90625 37.3125 45.953125 37.765625 
Q 46 38.234375 46 39.203125 
Q 46 43.5625 42.453125 45.96875 
Q 38.921875 48.390625 32.515625 48.390625 
Q 28.125 48.390625 23.5 47.265625 
Q 18.890625 46.140625 14.015625 43.890625 
L 15.578125 52.203125 
Q 20.65625 54.109375 25.515625 55.046875 
Q 30.375 56 34.90625 56 
Q 44.578125 56 49.625 51.796875 
Q 54.6875 47.609375 54.6875 39.59375 
Q 54.6875 37.984375 54.4375 35.8125 
Q 54.203125 33.640625 53.71875 31.203125 
z
M 44 27.484375 
L 35.015625 27.484375 
Q 23.96875 27.484375 18.671875 24.53125 
Q 13.375 21.578125 13.375 15.375 
Q 13.375 11.078125 16.078125 8.640625 
Q 18.796875 6.203125 23.578125 6.203125 
Q 30.90625 6.203125 36.375 11.453125 
Q 41.84375 16.703125 43.609375 25.484375 
z
" id="DejaVuSans-Oblique-97"/>
      <path d="M 49.609375 33.6875 
Q 49.609375 40.875 46.484375 44.671875 
Q 43.359375 48.484375 37.5 48.484375 
Q 33.5 48.484375 29.859375 46.4375 
Q 26.21875 44.390625 23.390625 40.484375 
Q 20.609375 36.625 18.9375 31.15625 
Q 17.28125 25.6875 17.28125 20.3125 
Q 17.28125 13.484375 20.40625 9.796875 
Q 23.53125 6.109375 29.296875 6.109375 
Q 33.546875 6.109375 37.1875 8.109375 
Q 40.828125 10.109375 43.40625 13.921875 
Q 46.1875 17.921875 47.890625 23.34375 
Q 49.609375 28.765625 49.609375 33.6875 
z
M 21.78125 46.390625 
Q 25.390625 51.125 30.296875 53.5625 
Q 35.203125 56 41.21875 56 
Q 49.609375 56 54.25 50.5 
Q 58.890625 45.015625 58.890625 35.109375 
Q 58.890625 27 56 19.65625 
Q 53.125 12.3125 47.703125 6.5 
Q 44.09375 2.640625 39.546875 0.609375 
Q 35.015625 -1.421875 29.984375 -1.421875 
Q 24.171875 -1.421875 20.21875 1 
Q 16.265625 3.421875 14.3125 8.203125 
L 8.6875 -20.796875 
L -0.296875 -20.796875 
L 14.40625 54.6875 
L 23.390625 54.6875 
z
" id="DejaVuSans-Oblique-112"/>
      <path d="M 10.6875 12.40625 
L 21 12.40625 
L 21 0 
L 10.6875 0 
z
" id="DejaVuSans-46"/>
      <path d="M 41.796875 8.203125 
Q 38.1875 3.46875 33.25 1.015625 
Q 28.328125 -1.421875 22.3125 -1.421875 
Q 14.109375 -1.421875 9.34375 4.171875 
Q 4.59375 9.765625 4.59375 19.484375 
Q 4.59375 27.59375 7.46875 34.9375 
Q 10.359375 42.28125 15.828125 48.09375 
Q 19.4375 51.953125 23.96875 53.96875 
Q 28.515625 56 33.5 56 
Q 38.765625 56 42.796875 53.453125 
Q 46.828125 50.921875 49.03125 46.1875 
L 54.890625 75.984375 
L 63.921875 75.984375 
L 49.125 0 
L 40.09375 0 
z
M 13.921875 21.09375 
Q 13.921875 14.015625 17.109375 10.0625 
Q 20.3125 6.109375 25.984375 6.109375 
Q 30.171875 6.109375 33.765625 8.125 
Q 37.359375 10.15625 40.09375 14.109375 
Q 42.96875 18.21875 44.625 23.578125 
Q 46.296875 28.953125 46.296875 34.1875 
Q 46.296875 40.96875 43.09375 44.765625 
Q 39.890625 48.578125 34.28125 48.578125 
Q 30.03125 48.578125 26.359375 46.578125 
Q 22.703125 44.578125 20.125 40.828125 
Q 17.28125 36.765625 15.59375 31.390625 
Q 13.921875 26.03125 13.921875 21.09375 
z
" id="DejaVuSans-Oblique-100"/>
      <path id="DejaVuSans-32"/>
     </defs>
     <use transform="translate(0 0.015625)" xlink:href="#DejaVuSans-Oblique-78"/>
     <use transform="translate(94.287109 0.015625)" xlink:href="#DejaVuSans-61"/>
     <use transform="translate(197.558594 0.015625)" xlink:href="#DejaVuSans-50"/>
     <use transform="translate(261.181641 0.015625)" xlink:href="#DejaVuSans-48"/>
     <use transform="translate(324.804688 0.015625)" xlink:href="#DejaVuSans-44"/>
     <use transform="translate(376.074219 0.015625)" xlink:href="#DejaVuSans-Oblique-107"/>
     <use transform="translate(433.984375 0.015625)" xlink:href="#DejaVuSans-Oblique-97"/>
     <use transform="translate(514.746094 0.015625)" xlink:href="#DejaVuSans-61"/>
     <use transform="translate(618.017578 0.015625)" xlink:href="#DejaVuSans-49"/>
     <use transform="translate(681.640625 0.015625)" xlink:href="#DejaVuSans-53"/>
     <use transform="translate(745.263672 0.015625)" xlink:href="#DejaVuSans-44"/>
     <use transform="translate(796.533203 0.015625)" xlink:href="#DejaVuSans-Oblique-107"/>
     <use transform="translate(854.443359 -16.390625)scale(0.7)" xlink:href="#DejaVuSans-Oblique-112"/>
     <use transform="translate(921.09375 0.015625)" xlink:href="#DejaVuSans-61"/>
     <use transform="translate(1024.365234 0.015625)" xlink:href="#DejaVuSans-49"/>
     <use transform="translate(1087.988281 0.015625)" xlink:href="#DejaVuSans-46"/>
     <use transform="translate(1119.775391 0.015625)" xlink:href="#DejaVuSans-48"/>
     <use transform="translate(1183.398438 0.015625)" xlink:href="#DejaVuSans-49"/>
     <use transform="translate(1247.021484 0.015625)" xlink:href="#DejaVuSans-48"/>
     <use transform="translate(1310.644531 0.015625)" xlink:href="#DejaVuSans-48"/>
     <use transform="translate(1374.267578 0.015625)" xlink:href="#DejaVuSans-44"/>
     <use transform="translate(1425.537109 0.015625)" xlink:href="#DejaVuSans-Oblique-107"/>
     <use transform="translate(1483.447266 0.015625)" xlink:href="#DejaVuSans-Oblique-100"/>
     <use transform="translate(1566.40625 0.015625)" xlink:href="#DejaVuSans-61"/>
     <use transform="translate(1669.677734 0.015625)" xlink:href="#DejaVuSans-52"/>
     <use transform="translate(1733.300781 0.015625)" xlink:href="#DejaVuSans-53"/>
     <use transform="translate(1796.923828 0.015625)" xlink:href="#DejaVuSans-32"/>
    </g>
   </g>
   <g id="legend_1">
    <g id="patch_7">
     <path d="M 122 710.9 
L 290.515625 710.9 
Q 294.515625 710.9 294.515625 706.9 
L 294.515625 620.83125 
Q 294.515625 616.83125 290.515625 616.83125 
L 122 616.83125 
Q 118 616.83125 118 620.83125 
L 118 706.9 
Q 118 710.9 122 710.9 
z
" style="fill:#ffffff;opacity:0.8;stroke:#cccccc;stroke-linejoin:miter;"/>
    </g>
    <g id="line2d_30">
     <path d="M 126 633.028125 
L 166 633.028125 
" style="fill:none;stroke:#008000;stroke-dasharray:7.4,3.2;stroke-dashoffset:0;stroke-width:2;"/>
    </g>
    <g id="line2d_31"/>
    <g id="text_17">
     <!-- forward -->
     <g transform="translate(182 640.028125)scale(0.2 -0.2)">
      <defs>
       <path d="M 37.109375 75.984375 
L 37.109375 68.5 
L 28.515625 68.5 
Q 23.6875 68.5 21.796875 66.546875 
Q 19.921875 64.59375 19.921875 59.515625 
L 19.921875 54.6875 
L 34.71875 54.6875 
L 34.71875 47.703125 
L 19.921875 47.703125 
L 19.921875 0 
L 10.890625 0 
L 10.890625 47.703125 
L 2.296875 47.703125 
L 2.296875 54.6875 
L 10.890625 54.6875 
L 10.890625 58.5 
Q 10.890625 67.625 15.140625 71.796875 
Q 19.390625 75.984375 28.609375 75.984375 
z
" id="DejaVuSans-102"/>
       <path d="M 30.609375 48.390625 
Q 23.390625 48.390625 19.1875 42.75 
Q 14.984375 37.109375 14.984375 27.296875 
Q 14.984375 17.484375 19.15625 11.84375 
Q 23.34375 6.203125 30.609375 6.203125 
Q 37.796875 6.203125 41.984375 11.859375 
Q 46.1875 17.53125 46.1875 27.296875 
Q 46.1875 37.015625 41.984375 42.703125 
Q 37.796875 48.390625 30.609375 48.390625 
z
M 30.609375 56 
Q 42.328125 56 49.015625 48.375 
Q 55.71875 40.765625 55.71875 27.296875 
Q 55.71875 13.875 49.015625 6.21875 
Q 42.328125 -1.421875 30.609375 -1.421875 
Q 18.84375 -1.421875 12.171875 6.21875 
Q 5.515625 13.875 5.515625 27.296875 
Q 5.515625 40.765625 12.171875 48.375 
Q 18.84375 56 30.609375 56 
z
" id="DejaVuSans-111"/>
       <path d="M 41.109375 46.296875 
Q 39.59375 47.171875 37.8125 47.578125 
Q 36.03125 48 33.890625 48 
Q 26.265625 48 22.1875 43.046875 
Q 18.109375 38.09375 18.109375 28.8125 
L 18.109375 0 
L 9.078125 0 
L 9.078125 54.6875 
L 18.109375 54.6875 
L 18.109375 46.1875 
Q 20.953125 51.171875 25.484375 53.578125 
Q 30.03125 56 36.53125 56 
Q 37.453125 56 38.578125 55.875 
Q 39.703125 55.765625 41.0625 55.515625 
z
" id="DejaVuSans-114"/>
       <path d="M 4.203125 54.6875 
L 13.1875 54.6875 
L 24.421875 12.015625 
L 35.59375 54.6875 
L 46.1875 54.6875 
L 57.421875 12.015625 
L 68.609375 54.6875 
L 77.59375 54.6875 
L 63.28125 0 
L 52.6875 0 
L 40.921875 44.828125 
L 29.109375 0 
L 18.5 0 
z
" id="DejaVuSans-119"/>
       <path d="M 34.28125 27.484375 
Q 23.390625 27.484375 19.1875 25 
Q 14.984375 22.515625 14.984375 16.5 
Q 14.984375 11.71875 18.140625 8.90625 
Q 21.296875 6.109375 26.703125 6.109375 
Q 34.1875 6.109375 38.703125 11.40625 
Q 43.21875 16.703125 43.21875 25.484375 
L 43.21875 27.484375 
z
M 52.203125 31.203125 
L 52.203125 0 
L 43.21875 0 
L 43.21875 8.296875 
Q 40.140625 3.328125 35.546875 0.953125 
Q 30.953125 -1.421875 24.3125 -1.421875 
Q 15.921875 -1.421875 10.953125 3.296875 
Q 6 8.015625 6 15.921875 
Q 6 25.140625 12.171875 29.828125 
Q 18.359375 34.515625 30.609375 34.515625 
L 43.21875 34.515625 
L 43.21875 35.40625 
Q 43.21875 41.609375 39.140625 45 
Q 35.0625 48.390625 27.6875 48.390625 
Q 23 48.390625 18.546875 47.265625 
Q 14.109375 46.140625 10.015625 43.890625 
L 10.015625 52.203125 
Q 14.9375 54.109375 19.578125 55.046875 
Q 24.21875 56 28.609375 56 
Q 40.484375 56 46.34375 49.84375 
Q 52.203125 43.703125 52.203125 31.203125 
z
" id="DejaVuSans-97"/>
       <path d="M 45.40625 46.390625 
L 45.40625 75.984375 
L 54.390625 75.984375 
L 54.390625 0 
L 45.40625 0 
L 45.40625 8.203125 
Q 42.578125 3.328125 38.25 0.953125 
Q 33.9375 -1.421875 27.875 -1.421875 
Q 17.96875 -1.421875 11.734375 6.484375 
Q 5.515625 14.40625 5.515625 27.296875 
Q 5.515625 40.1875 11.734375 48.09375 
Q 17.96875 56 27.875 56 
Q 33.9375 56 38.25 53.625 
Q 42.578125 51.265625 45.40625 46.390625 
z
M 14.796875 27.296875 
Q 14.796875 17.390625 18.875 11.75 
Q 22.953125 6.109375 30.078125 6.109375 
Q 37.203125 6.109375 41.296875 11.75 
Q 45.40625 17.390625 45.40625 27.296875 
Q 45.40625 37.203125 41.296875 42.84375 
Q 37.203125 48.484375 30.078125 48.484375 
Q 22.953125 48.484375 18.875 42.84375 
Q 14.796875 37.203125 14.796875 27.296875 
z
" id="DejaVuSans-100"/>
      </defs>
      <use xlink:href="#DejaVuSans-102"/>
      <use x="35.205078" xlink:href="#DejaVuSans-111"/>
      <use x="96.386719" xlink:href="#DejaVuSans-114"/>
      <use x="137.5" xlink:href="#DejaVuSans-119"/>
      <use x="219.287109" xlink:href="#DejaVuSans-97"/>
      <use x="280.566406" xlink:href="#DejaVuSans-114"/>
      <use x="319.929688" xlink:href="#DejaVuSans-100"/>
     </g>
    </g>
    <g id="line2d_32">
     <path d="M 126 662.384375 
L 166 662.384375 
" style="fill:none;stroke:#00bfbf;stroke-dasharray:7.4,3.2;stroke-dashoffset:0;stroke-width:2;"/>
    </g>
    <g id="line2d_33"/>
    <g id="text_18">
     <!-- secondary -->
     <g transform="translate(182 669.384375)scale(0.2 -0.2)">
      <defs>
       <path d="M 44.28125 53.078125 
L 44.28125 44.578125 
Q 40.484375 46.53125 36.375 47.5 
Q 32.28125 48.484375 27.875 48.484375 
Q 21.1875 48.484375 17.84375 46.4375 
Q 14.5 44.390625 14.5 40.28125 
Q 14.5 37.15625 16.890625 35.375 
Q 19.28125 33.59375 26.515625 31.984375 
L 29.59375 31.296875 
Q 39.15625 29.25 43.1875 25.515625 
Q 47.21875 21.78125 47.21875 15.09375 
Q 47.21875 7.46875 41.1875 3.015625 
Q 35.15625 -1.421875 24.609375 -1.421875 
Q 20.21875 -1.421875 15.453125 -0.5625 
Q 10.6875 0.296875 5.421875 2 
L 5.421875 11.28125 
Q 10.40625 8.6875 15.234375 7.390625 
Q 20.0625 6.109375 24.8125 6.109375 
Q 31.15625 6.109375 34.5625 8.28125 
Q 37.984375 10.453125 37.984375 14.40625 
Q 37.984375 18.0625 35.515625 20.015625 
Q 33.0625 21.96875 24.703125 23.78125 
L 21.578125 24.515625 
Q 13.234375 26.265625 9.515625 29.90625 
Q 5.8125 33.546875 5.8125 39.890625 
Q 5.8125 47.609375 11.28125 51.796875 
Q 16.75 56 26.8125 56 
Q 31.78125 56 36.171875 55.265625 
Q 40.578125 54.546875 44.28125 53.078125 
z
" id="DejaVuSans-115"/>
       <path d="M 56.203125 29.59375 
L 56.203125 25.203125 
L 14.890625 25.203125 
Q 15.484375 15.921875 20.484375 11.0625 
Q 25.484375 6.203125 34.421875 6.203125 
Q 39.59375 6.203125 44.453125 7.46875 
Q 49.3125 8.734375 54.109375 11.28125 
L 54.109375 2.78125 
Q 49.265625 0.734375 44.1875 -0.34375 
Q 39.109375 -1.421875 33.890625 -1.421875 
Q 20.796875 -1.421875 13.15625 6.1875 
Q 5.515625 13.8125 5.515625 26.8125 
Q 5.515625 40.234375 12.765625 48.109375 
Q 20.015625 56 32.328125 56 
Q 43.359375 56 49.78125 48.890625 
Q 56.203125 41.796875 56.203125 29.59375 
z
M 47.21875 32.234375 
Q 47.125 39.59375 43.09375 43.984375 
Q 39.0625 48.390625 32.421875 48.390625 
Q 24.90625 48.390625 20.390625 44.140625 
Q 15.875 39.890625 15.1875 32.171875 
z
" id="DejaVuSans-101"/>
       <path d="M 48.78125 52.59375 
L 48.78125 44.1875 
Q 44.96875 46.296875 41.140625 47.34375 
Q 37.3125 48.390625 33.40625 48.390625 
Q 24.65625 48.390625 19.8125 42.84375 
Q 14.984375 37.3125 14.984375 27.296875 
Q 14.984375 17.28125 19.8125 11.734375 
Q 24.65625 6.203125 33.40625 6.203125 
Q 37.3125 6.203125 41.140625 7.25 
Q 44.96875 8.296875 48.78125 10.40625 
L 48.78125 2.09375 
Q 45.015625 0.34375 40.984375 -0.53125 
Q 36.96875 -1.421875 32.421875 -1.421875 
Q 20.0625 -1.421875 12.78125 6.34375 
Q 5.515625 14.109375 5.515625 27.296875 
Q 5.515625 40.671875 12.859375 48.328125 
Q 20.21875 56 33.015625 56 
Q 37.15625 56 41.109375 55.140625 
Q 45.0625 54.296875 48.78125 52.59375 
z
" id="DejaVuSans-99"/>
       <path d="M 54.890625 33.015625 
L 54.890625 0 
L 45.90625 0 
L 45.90625 32.71875 
Q 45.90625 40.484375 42.875 44.328125 
Q 39.84375 48.1875 33.796875 48.1875 
Q 26.515625 48.1875 22.3125 43.546875 
Q 18.109375 38.921875 18.109375 30.90625 
L 18.109375 0 
L 9.078125 0 
L 9.078125 54.6875 
L 18.109375 54.6875 
L 18.109375 46.1875 
Q 21.34375 51.125 25.703125 53.5625 
Q 30.078125 56 35.796875 56 
Q 45.21875 56 50.046875 50.171875 
Q 54.890625 44.34375 54.890625 33.015625 
z
" id="DejaVuSans-110"/>
       <path d="M 32.171875 -5.078125 
Q 28.375 -14.84375 24.75 -17.8125 
Q 21.140625 -20.796875 15.09375 -20.796875 
L 7.90625 -20.796875 
L 7.90625 -13.28125 
L 13.1875 -13.28125 
Q 16.890625 -13.28125 18.9375 -11.515625 
Q 21 -9.765625 23.484375 -3.21875 
L 25.09375 0.875 
L 2.984375 54.6875 
L 12.5 54.6875 
L 29.59375 11.921875 
L 46.6875 54.6875 
L 56.203125 54.6875 
z
" id="DejaVuSans-121"/>
      </defs>
      <use xlink:href="#DejaVuSans-115"/>
      <use x="52.099609" xlink:href="#DejaVuSans-101"/>
      <use x="113.623047" xlink:href="#DejaVuSans-99"/>
      <use x="168.603516" xlink:href="#DejaVuSans-111"/>
      <use x="229.785156" xlink:href="#DejaVuSans-110"/>
      <use x="293.164062" xlink:href="#DejaVuSans-100"/>
      <use x="356.640625" xlink:href="#DejaVuSans-97"/>
      <use x="417.919922" xlink:href="#DejaVuSans-114"/>
      <use x="459.033203" xlink:href="#DejaVuSans-121"/>
     </g>
    </g>
    <g id="line2d_34">
     <path d="M 126 691.740625 
L 166 691.740625 
" style="fill:none;stroke:#ff0000;stroke-dasharray:7.4,3.2;stroke-dashoffset:0;stroke-width:2;"/>
    </g>
    <g id="line2d_35"/>
    <g id="text_19">
     <!-- uncoupled -->
     <g transform="translate(182 698.740625)scale(0.2 -0.2)">
      <defs>
       <path d="M 8.5 21.578125 
L 8.5 54.6875 
L 17.484375 54.6875 
L 17.484375 21.921875 
Q 17.484375 14.15625 20.5 10.265625 
Q 23.53125 6.390625 29.59375 6.390625 
Q 36.859375 6.390625 41.078125 11.03125 
Q 45.3125 15.671875 45.3125 23.6875 
L 45.3125 54.6875 
L 54.296875 54.6875 
L 54.296875 0 
L 45.3125 0 
L 45.3125 8.40625 
Q 42.046875 3.421875 37.71875 1 
Q 33.40625 -1.421875 27.6875 -1.421875 
Q 18.265625 -1.421875 13.375 4.4375 
Q 8.5 10.296875 8.5 21.578125 
z
M 31.109375 56 
z
" id="DejaVuSans-117"/>
       <path d="M 18.109375 8.203125 
L 18.109375 -20.796875 
L 9.078125 -20.796875 
L 9.078125 54.6875 
L 18.109375 54.6875 
L 18.109375 46.390625 
Q 20.953125 51.265625 25.265625 53.625 
Q 29.59375 56 35.59375 56 
Q 45.5625 56 51.78125 48.09375 
Q 58.015625 40.1875 58.015625 27.296875 
Q 58.015625 14.40625 51.78125 6.484375 
Q 45.5625 -1.421875 35.59375 -1.421875 
Q 29.59375 -1.421875 25.265625 0.953125 
Q 20.953125 3.328125 18.109375 8.203125 
z
M 48.6875 27.296875 
Q 48.6875 37.203125 44.609375 42.84375 
Q 40.53125 48.484375 33.40625 48.484375 
Q 26.265625 48.484375 22.1875 42.84375 
Q 18.109375 37.203125 18.109375 27.296875 
Q 18.109375 17.390625 22.1875 11.75 
Q 26.265625 6.109375 33.40625 6.109375 
Q 40.53125 6.109375 44.609375 11.75 
Q 48.6875 17.390625 48.6875 27.296875 
z
" id="DejaVuSans-112"/>
       <path d="M 9.421875 75.984375 
L 18.40625 75.984375 
L 18.40625 0 
L 9.421875 0 
z
" id="DejaVuSans-108"/>
      </defs>
      <use xlink:href="#DejaVuSans-117"/>
      <use x="63.378906" xlink:href="#DejaVuSans-110"/>
      <use x="126.757812" xlink:href="#DejaVuSans-99"/>
      <use x="181.738281" xlink:href="#DejaVuSans-111"/>
      <use x="242.919922" xlink:href="#DejaVuSans-117"/>
      <use x="306.298828" xlink:href="#DejaVuSans-112"/>
      <use x="369.775391" xlink:href="#DejaVuSans-108"/>
      <use x="397.558594" xlink:href="#DejaVuSans-101"/>
      <use x="459.082031" xlink:href="#DejaVuSans-100"/>
     </g>
    </g>
   </g>
  </g>
 </g>
 <defs>
  <clipPath id="p2d52771c74">
   <rect height="664.2" width="590.4" x="108" y="56.7"/>
  </clipPath>
 </defs>
</svg>
