<?xml version="1.0" encoding="utf-8" standalone="no"?>
<!DOCTYPE svg PUBLIC "-//W3C//DTD SVG 1.1//EN"
  "http://www.w3.org/Graphics/SVG/1.1/DTD/svg11.dtd">
<!-- Created with matplotlib (https://matplotlib.org/) -->
<svg height="810pt" version="1.1" viewBox="0 0 720 810" width="720pt" xmlns="http://www.w3.org/2000/svg" xmlns:xlink="http://www.w3.org/1999/xlink">
 <metadata>
  <rdf:RDF xmlns:cc="http://creativecommons.org/ns#" xmlns:dc="http://purl.org/dc/elements/1.1/" xmlns:rdf="http://www.w3.org/1999/02/22-rdf-syntax-ns#">
   <cc:Work>
    <dc:type rdf:resource="http://purl.org/dc/dcmitype/StillImage"/>
    <dc:date>2021-08-13T15:57:51.448538</dc:date>
    <dc:format>image/svg+xml</dc:format>
    <dc:creator>
     <cc:Agent>
      <dc:title>Matplotlib v3.3.1, https://matplotlib.org/</dc:title>
     </cc:Agent>
    </dc:creator>
   </cc:Work>
  </rdf:RDF>
 </metadata>
 <defs>
  <style type="text/css">*{stroke-linecap:butt;stroke-linejoin:round;}</style>
 </defs>
 <g id="figure_1">
  <g id="patch_1">
   <path d="M 0 810 
L 720 810 
L 720 0 
L 0 0 
z
" style="fill:#ffffff;"/>
  </g>
  <g id="axes_1">
   <g id="patch_2">
    <path d="M 108 720.9 
L 698.4 720.9 
L 698.4 56.7 
L 108 56.7 
z
" style="fill:#ffffff;"/>
   </g>
   <g id="matplotlib.axis_1">
    <g id="xtick_1">
     <g id="line2d_1">
      <path clip-path="url(#pdb48ab2831)" d="M 113.845545 720.9 
L 113.845545 56.7 
" style="fill:none;stroke:#e6e6e6;stroke-linecap:square;stroke-width:0.8;"/>
     </g>
     <g id="line2d_2">
      <defs>
       <path d="M 0 0 
L 0 3.5 
" id="mfc211bafc1" style="stroke:#000000;stroke-width:0.8;"/>
      </defs>
      <g>
       <use style="stroke:#000000;stroke-width:0.8;" x="113.845545" xlink:href="#mfc211bafc1" y="720.9"/>
      </g>
     </g>
     <g id="text_1">
      <!-- 0 -->
      <g transform="translate(109.07367 739.297656)scale(0.15 -0.15)">
       <defs>
        <path d="M 31.78125 66.40625 
Q 24.171875 66.40625 20.328125 58.90625 
Q 16.5 51.421875 16.5 36.375 
Q 16.5 21.390625 20.328125 13.890625 
Q 24.171875 6.390625 31.78125 6.390625 
Q 39.453125 6.390625 43.28125 13.890625 
Q 47.125 21.390625 47.125 36.375 
Q 47.125 51.421875 43.28125 58.90625 
Q 39.453125 66.40625 31.78125 66.40625 
z
M 31.78125 74.21875 
Q 44.046875 74.21875 50.515625 64.515625 
Q 56.984375 54.828125 56.984375 36.375 
Q 56.984375 17.96875 50.515625 8.265625 
Q 44.046875 -1.421875 31.78125 -1.421875 
Q 19.53125 -1.421875 13.0625 8.265625 
Q 6.59375 17.96875 6.59375 36.375 
Q 6.59375 54.828125 13.0625 64.515625 
Q 19.53125 74.21875 31.78125 74.21875 
z
" id="DejaVuSans-48"/>
       </defs>
       <use xlink:href="#DejaVuSans-48"/>
      </g>
     </g>
    </g>
    <g id="xtick_2">
     <g id="line2d_3">
      <path clip-path="url(#pdb48ab2831)" d="M 230.756436 720.9 
L 230.756436 56.7 
" style="fill:none;stroke:#e6e6e6;stroke-linecap:square;stroke-width:0.8;"/>
     </g>
     <g id="line2d_4">
      <g>
       <use style="stroke:#000000;stroke-width:0.8;" x="230.756436" xlink:href="#mfc211bafc1" y="720.9"/>
      </g>
     </g>
     <g id="text_2">
      <!-- 2 -->
      <g transform="translate(225.984561 739.297656)scale(0.15 -0.15)">
       <defs>
        <path d="M 19.1875 8.296875 
L 53.609375 8.296875 
L 53.609375 0 
L 7.328125 0 
L 7.328125 8.296875 
Q 12.9375 14.109375 22.625 23.890625 
Q 32.328125 33.6875 34.8125 36.53125 
Q 39.546875 41.84375 41.421875 45.53125 
Q 43.3125 49.21875 43.3125 52.78125 
Q 43.3125 58.59375 39.234375 62.25 
Q 35.15625 65.921875 28.609375 65.921875 
Q 23.96875 65.921875 18.8125 64.3125 
Q 13.671875 62.703125 7.8125 59.421875 
L 7.8125 69.390625 
Q 13.765625 71.78125 18.9375 73 
Q 24.125 74.21875 28.421875 74.21875 
Q 39.75 74.21875 46.484375 68.546875 
Q 53.21875 62.890625 53.21875 53.421875 
Q 53.21875 48.921875 51.53125 44.890625 
Q 49.859375 40.875 45.40625 35.40625 
Q 44.1875 33.984375 37.640625 27.21875 
Q 31.109375 20.453125 19.1875 8.296875 
z
" id="DejaVuSans-50"/>
       </defs>
       <use xlink:href="#DejaVuSans-50"/>
      </g>
     </g>
    </g>
    <g id="xtick_3">
     <g id="line2d_5">
      <path clip-path="url(#pdb48ab2831)" d="M 347.667327 720.9 
L 347.667327 56.7 
" style="fill:none;stroke:#e6e6e6;stroke-linecap:square;stroke-width:0.8;"/>
     </g>
     <g id="line2d_6">
      <g>
       <use style="stroke:#000000;stroke-width:0.8;" x="347.667327" xlink:href="#mfc211bafc1" y="720.9"/>
      </g>
     </g>
     <g id="text_3">
      <!-- 4 -->
      <g transform="translate(342.895452 739.297656)scale(0.15 -0.15)">
       <defs>
        <path d="M 37.796875 64.3125 
L 12.890625 25.390625 
L 37.796875 25.390625 
z
M 35.203125 72.90625 
L 47.609375 72.90625 
L 47.609375 25.390625 
L 58.015625 25.390625 
L 58.015625 17.1875 
L 47.609375 17.1875 
L 47.609375 0 
L 37.796875 0 
L 37.796875 17.1875 
L 4.890625 17.1875 
L 4.890625 26.703125 
z
" id="DejaVuSans-52"/>
       </defs>
       <use xlink:href="#DejaVuSans-52"/>
      </g>
     </g>
    </g>
    <g id="xtick_4">
     <g id="line2d_7">
      <path clip-path="url(#pdb48ab2831)" d="M 464.578218 720.9 
L 464.578218 56.7 
" style="fill:none;stroke:#e6e6e6;stroke-linecap:square;stroke-width:0.8;"/>
     </g>
     <g id="line2d_8">
      <g>
       <use style="stroke:#000000;stroke-width:0.8;" x="464.578218" xlink:href="#mfc211bafc1" y="720.9"/>
      </g>
     </g>
     <g id="text_4">
      <!-- 6 -->
      <g transform="translate(459.806343 739.297656)scale(0.15 -0.15)">
       <defs>
        <path d="M 33.015625 40.375 
Q 26.375 40.375 22.484375 35.828125 
Q 18.609375 31.296875 18.609375 23.390625 
Q 18.609375 15.53125 22.484375 10.953125 
Q 26.375 6.390625 33.015625 6.390625 
Q 39.65625 6.390625 43.53125 10.953125 
Q 47.40625 15.53125 47.40625 23.390625 
Q 47.40625 31.296875 43.53125 35.828125 
Q 39.65625 40.375 33.015625 40.375 
z
M 52.59375 71.296875 
L 52.59375 62.3125 
Q 48.875 64.0625 45.09375 64.984375 
Q 41.3125 65.921875 37.59375 65.921875 
Q 27.828125 65.921875 22.671875 59.328125 
Q 17.53125 52.734375 16.796875 39.40625 
Q 19.671875 43.65625 24.015625 45.921875 
Q 28.375 48.1875 33.59375 48.1875 
Q 44.578125 48.1875 50.953125 41.515625 
Q 57.328125 34.859375 57.328125 23.390625 
Q 57.328125 12.15625 50.6875 5.359375 
Q 44.046875 -1.421875 33.015625 -1.421875 
Q 20.359375 -1.421875 13.671875 8.265625 
Q 6.984375 17.96875 6.984375 36.375 
Q 6.984375 53.65625 15.1875 63.9375 
Q 23.390625 74.21875 37.203125 74.21875 
Q 40.921875 74.21875 44.703125 73.484375 
Q 48.484375 72.75 52.59375 71.296875 
z
" id="DejaVuSans-54"/>
       </defs>
       <use xlink:href="#DejaVuSans-54"/>
      </g>
     </g>
    </g>
    <g id="xtick_5">
     <g id="line2d_9">
      <path clip-path="url(#pdb48ab2831)" d="M 581.489109 720.9 
L 581.489109 56.7 
" style="fill:none;stroke:#e6e6e6;stroke-linecap:square;stroke-width:0.8;"/>
     </g>
     <g id="line2d_10">
      <g>
       <use style="stroke:#000000;stroke-width:0.8;" x="581.489109" xlink:href="#mfc211bafc1" y="720.9"/>
      </g>
     </g>
     <g id="text_5">
      <!-- 8 -->
      <g transform="translate(576.717234 739.297656)scale(0.15 -0.15)">
       <defs>
        <path d="M 31.78125 34.625 
Q 24.75 34.625 20.71875 30.859375 
Q 16.703125 27.09375 16.703125 20.515625 
Q 16.703125 13.921875 20.71875 10.15625 
Q 24.75 6.390625 31.78125 6.390625 
Q 38.8125 6.390625 42.859375 10.171875 
Q 46.921875 13.96875 46.921875 20.515625 
Q 46.921875 27.09375 42.890625 30.859375 
Q 38.875 34.625 31.78125 34.625 
z
M 21.921875 38.8125 
Q 15.578125 40.375 12.03125 44.71875 
Q 8.5 49.078125 8.5 55.328125 
Q 8.5 64.0625 14.71875 69.140625 
Q 20.953125 74.21875 31.78125 74.21875 
Q 42.671875 74.21875 48.875 69.140625 
Q 55.078125 64.0625 55.078125 55.328125 
Q 55.078125 49.078125 51.53125 44.71875 
Q 48 40.375 41.703125 38.8125 
Q 48.828125 37.15625 52.796875 32.3125 
Q 56.78125 27.484375 56.78125 20.515625 
Q 56.78125 9.90625 50.3125 4.234375 
Q 43.84375 -1.421875 31.78125 -1.421875 
Q 19.734375 -1.421875 13.25 4.234375 
Q 6.78125 9.90625 6.78125 20.515625 
Q 6.78125 27.484375 10.78125 32.3125 
Q 14.796875 37.15625 21.921875 38.8125 
z
M 18.3125 54.390625 
Q 18.3125 48.734375 21.84375 45.5625 
Q 25.390625 42.390625 31.78125 42.390625 
Q 38.140625 42.390625 41.71875 45.5625 
Q 45.3125 48.734375 45.3125 54.390625 
Q 45.3125 60.0625 41.71875 63.234375 
Q 38.140625 66.40625 31.78125 66.40625 
Q 25.390625 66.40625 21.84375 63.234375 
Q 18.3125 60.0625 18.3125 54.390625 
z
" id="DejaVuSans-56"/>
       </defs>
       <use xlink:href="#DejaVuSans-56"/>
      </g>
     </g>
    </g>
    <g id="xtick_6">
     <g id="line2d_11">
      <path clip-path="url(#pdb48ab2831)" d="M 698.4 720.9 
L 698.4 56.7 
" style="fill:none;stroke:#e6e6e6;stroke-linecap:square;stroke-width:0.8;"/>
     </g>
     <g id="line2d_12">
      <g>
       <use style="stroke:#000000;stroke-width:0.8;" x="698.4" xlink:href="#mfc211bafc1" y="720.9"/>
      </g>
     </g>
     <g id="text_6">
      <!-- 10 -->
      <g transform="translate(688.85625 739.297656)scale(0.15 -0.15)">
       <defs>
        <path d="M 12.40625 8.296875 
L 28.515625 8.296875 
L 28.515625 63.921875 
L 10.984375 60.40625 
L 10.984375 69.390625 
L 28.421875 72.90625 
L 38.28125 72.90625 
L 38.28125 8.296875 
L 54.390625 8.296875 
L 54.390625 0 
L 12.40625 0 
z
" id="DejaVuSans-49"/>
       </defs>
       <use xlink:href="#DejaVuSans-49"/>
       <use x="63.623047" xlink:href="#DejaVuSans-48"/>
      </g>
     </g>
    </g>
    <g id="text_7">
     <!-- $q(\AA^{-1})$ -->
     <g transform="translate(362.45 769.667187)scale(0.25 -0.25)">
      <defs>
       <path d="M 41.703125 8.203125 
Q 38.09375 3.46875 33.171875 1.015625 
Q 28.265625 -1.421875 22.3125 -1.421875 
Q 14.015625 -1.421875 9.296875 4.171875 
Q 4.59375 9.765625 4.59375 19.578125 
Q 4.59375 27.484375 7.5 34.859375 
Q 10.40625 42.234375 15.828125 48.09375 
Q 19.34375 51.90625 23.90625 53.953125 
Q 28.46875 56 33.5 56 
Q 39.546875 56 43.453125 53.609375 
Q 47.359375 51.21875 49.125 46.390625 
L 50.6875 54.59375 
L 59.71875 54.59375 
L 45.125 -20.609375 
L 36.078125 -20.609375 
z
M 13.921875 20.90625 
Q 13.921875 13.671875 16.9375 9.890625 
Q 19.96875 6.109375 25.6875 6.109375 
Q 34.1875 6.109375 40.1875 14.234375 
Q 46.1875 22.359375 46.1875 33.984375 
Q 46.1875 41.015625 43.078125 44.75 
Q 39.984375 48.484375 34.1875 48.484375 
Q 29.9375 48.484375 26.3125 46.5 
Q 22.703125 44.53125 20.015625 40.71875 
Q 17.1875 36.71875 15.546875 31.34375 
Q 13.921875 25.984375 13.921875 20.90625 
z
" id="DejaVuSans-Oblique-113"/>
       <path d="M 31 75.875 
Q 24.46875 64.65625 21.28125 53.65625 
Q 18.109375 42.671875 18.109375 31.390625 
Q 18.109375 20.125 21.3125 9.0625 
Q 24.515625 -2 31 -13.1875 
L 23.1875 -13.1875 
Q 15.875 -1.703125 12.234375 9.375 
Q 8.59375 20.453125 8.59375 31.390625 
Q 8.59375 42.28125 12.203125 53.3125 
Q 15.828125 64.359375 23.1875 75.875 
z
" id="DejaVuSans-40"/>
       <path d="M 49.8125 79.390625 
Q 49.8125 82.46875 47.625 84.640625 
Q 45.453125 86.8125 42.390625 86.8125 
Q 39.265625 86.8125 37.140625 84.6875 
Q 35.015625 82.5625 35.015625 79.390625 
Q 35.015625 76.3125 37.140625 74.15625 
Q 39.265625 72.015625 42.390625 72.015625 
Q 45.453125 72.015625 47.625 74.15625 
Q 49.8125 76.3125 49.8125 79.390625 
z
M 34.421875 68.703125 
Q 31.78125 70.515625 30.390625 73.265625 
Q 29 76.03125 29 79.390625 
Q 29 84.96875 32.90625 88.890625 
Q 36.8125 92.828125 42.390625 92.828125 
Q 47.953125 92.828125 51.875 88.890625 
Q 55.8125 84.96875 55.8125 79.390625 
Q 55.8125 75.53125 54.03125 72.546875 
Q 52.25 69.578125 48.875 67.828125 
L 61.53125 0 
L 51.21875 0 
L 48.1875 18.703125 
L 15.375 18.703125 
L 5.078125 0 
L -5.328125 0 
z
M 40.375 63.1875 
L 19.921875 26.90625 
L 46.6875 26.90625 
z
" id="DejaVuSans-Oblique-197"/>
       <path d="M 10.59375 35.5 
L 73.1875 35.5 
L 73.1875 27.203125 
L 10.59375 27.203125 
z
" id="DejaVuSans-8722"/>
       <path d="M 8.015625 75.875 
L 15.828125 75.875 
Q 23.140625 64.359375 26.78125 53.3125 
Q 30.421875 42.28125 30.421875 31.390625 
Q 30.421875 20.453125 26.78125 9.375 
Q 23.140625 -1.703125 15.828125 -13.1875 
L 8.015625 -13.1875 
Q 14.5 -2 17.703125 9.0625 
Q 20.90625 20.125 20.90625 31.390625 
Q 20.90625 42.671875 17.703125 53.65625 
Q 14.5 64.65625 8.015625 75.875 
z
" id="DejaVuSans-41"/>
      </defs>
      <use transform="translate(0 0.171875)" xlink:href="#DejaVuSans-Oblique-113"/>
      <use transform="translate(63.476562 0.171875)" xlink:href="#DejaVuSans-40"/>
      <use transform="translate(102.490234 0.171875)" xlink:href="#DejaVuSans-Oblique-197"/>
      <use transform="translate(180.704271 38.453125)scale(0.7)" xlink:href="#DejaVuSans-8722"/>
      <use transform="translate(239.356615 38.453125)scale(0.7)" xlink:href="#DejaVuSans-49"/>
      <use transform="translate(286.627122 0.171875)" xlink:href="#DejaVuSans-41"/>
     </g>
    </g>
   </g>
   <g id="matplotlib.axis_2">
    <g id="ytick_1">
     <g id="line2d_13">
      <path clip-path="url(#pdb48ab2831)" d="M 108 697.178571 
L 698.4 697.178571 
" style="fill:none;stroke:#e6e6e6;stroke-linecap:square;stroke-width:0.8;"/>
     </g>
     <g id="line2d_14">
      <defs>
       <path d="M 0 0 
L -3.5 0 
" id="m34e2a4aa92" style="stroke:#000000;stroke-width:0.8;"/>
      </defs>
      <g>
       <use style="stroke:#000000;stroke-width:0.8;" x="108" xlink:href="#m34e2a4aa92" y="697.178571"/>
      </g>
     </g>
     <g id="text_8">
      <!-- 0.0 -->
      <g transform="translate(77.145313 702.8774)scale(0.15 -0.15)">
       <defs>
        <path d="M 10.6875 12.40625 
L 21 12.40625 
L 21 0 
L 10.6875 0 
z
" id="DejaVuSans-46"/>
       </defs>
       <use xlink:href="#DejaVuSans-48"/>
       <use x="63.623047" xlink:href="#DejaVuSans-46"/>
       <use x="95.410156" xlink:href="#DejaVuSans-48"/>
      </g>
     </g>
    </g>
    <g id="ytick_2">
     <g id="line2d_15">
      <path clip-path="url(#pdb48ab2831)" d="M 108 578.571429 
L 698.4 578.571429 
" style="fill:none;stroke:#e6e6e6;stroke-linecap:square;stroke-width:0.8;"/>
     </g>
     <g id="line2d_16">
      <g>
       <use style="stroke:#000000;stroke-width:0.8;" x="108" xlink:href="#m34e2a4aa92" y="578.571429"/>
      </g>
     </g>
     <g id="text_9">
      <!-- 0.5 -->
      <g transform="translate(77.145313 584.270257)scale(0.15 -0.15)">
       <defs>
        <path d="M 10.796875 72.90625 
L 49.515625 72.90625 
L 49.515625 64.59375 
L 19.828125 64.59375 
L 19.828125 46.734375 
Q 21.96875 47.46875 24.109375 47.828125 
Q 26.265625 48.1875 28.421875 48.1875 
Q 40.625 48.1875 47.75 41.5 
Q 54.890625 34.8125 54.890625 23.390625 
Q 54.890625 11.625 47.5625 5.09375 
Q 40.234375 -1.421875 26.90625 -1.421875 
Q 22.3125 -1.421875 17.546875 -0.640625 
Q 12.796875 0.140625 7.71875 1.703125 
L 7.71875 11.625 
Q 12.109375 9.234375 16.796875 8.0625 
Q 21.484375 6.890625 26.703125 6.890625 
Q 35.15625 6.890625 40.078125 11.328125 
Q 45.015625 15.765625 45.015625 23.390625 
Q 45.015625 31 40.078125 35.4375 
Q 35.15625 39.890625 26.703125 39.890625 
Q 22.75 39.890625 18.8125 39.015625 
Q 14.890625 38.140625 10.796875 36.28125 
z
" id="DejaVuSans-53"/>
       </defs>
       <use xlink:href="#DejaVuSans-48"/>
       <use x="63.623047" xlink:href="#DejaVuSans-46"/>
       <use x="95.410156" xlink:href="#DejaVuSans-53"/>
      </g>
     </g>
    </g>
    <g id="ytick_3">
     <g id="line2d_17">
      <path clip-path="url(#pdb48ab2831)" d="M 108 459.964286 
L 698.4 459.964286 
" style="fill:none;stroke:#e6e6e6;stroke-linecap:square;stroke-width:0.8;"/>
     </g>
     <g id="line2d_18">
      <g>
       <use style="stroke:#000000;stroke-width:0.8;" x="108" xlink:href="#m34e2a4aa92" y="459.964286"/>
      </g>
     </g>
     <g id="text_10">
      <!-- 1.0 -->
      <g transform="translate(77.145313 465.663114)scale(0.15 -0.15)">
       <use xlink:href="#DejaVuSans-49"/>
       <use x="63.623047" xlink:href="#DejaVuSans-46"/>
       <use x="95.410156" xlink:href="#DejaVuSans-48"/>
      </g>
     </g>
    </g>
    <g id="ytick_4">
     <g id="line2d_19">
      <path clip-path="url(#pdb48ab2831)" d="M 108 341.357143 
L 698.4 341.357143 
" style="fill:none;stroke:#e6e6e6;stroke-linecap:square;stroke-width:0.8;"/>
     </g>
     <g id="line2d_20">
      <g>
       <use style="stroke:#000000;stroke-width:0.8;" x="108" xlink:href="#m34e2a4aa92" y="341.357143"/>
      </g>
     </g>
     <g id="text_11">
      <!-- 1.5 -->
      <g transform="translate(77.145313 347.055971)scale(0.15 -0.15)">
       <use xlink:href="#DejaVuSans-49"/>
       <use x="63.623047" xlink:href="#DejaVuSans-46"/>
       <use x="95.410156" xlink:href="#DejaVuSans-53"/>
      </g>
     </g>
    </g>
    <g id="ytick_5">
     <g id="line2d_21">
      <path clip-path="url(#pdb48ab2831)" d="M 108 222.75 
L 698.4 222.75 
" style="fill:none;stroke:#e6e6e6;stroke-linecap:square;stroke-width:0.8;"/>
     </g>
     <g id="line2d_22">
      <g>
       <use style="stroke:#000000;stroke-width:0.8;" x="108" xlink:href="#m34e2a4aa92" y="222.75"/>
      </g>
     </g>
     <g id="text_12">
      <!-- 2.0 -->
      <g transform="translate(77.145313 228.448828)scale(0.15 -0.15)">
       <use xlink:href="#DejaVuSans-50"/>
       <use x="63.623047" xlink:href="#DejaVuSans-46"/>
       <use x="95.410156" xlink:href="#DejaVuSans-48"/>
      </g>
     </g>
    </g>
    <g id="ytick_6">
     <g id="line2d_23">
      <path clip-path="url(#pdb48ab2831)" d="M 108 104.142857 
L 698.4 104.142857 
" style="fill:none;stroke:#e6e6e6;stroke-linecap:square;stroke-width:0.8;"/>
     </g>
     <g id="line2d_24">
      <g>
       <use style="stroke:#000000;stroke-width:0.8;" x="108" xlink:href="#m34e2a4aa92" y="104.142857"/>
      </g>
     </g>
     <g id="text_13">
      <!-- 2.5 -->
      <g transform="translate(77.145313 109.841685)scale(0.15 -0.15)">
       <use xlink:href="#DejaVuSans-50"/>
       <use x="63.623047" xlink:href="#DejaVuSans-46"/>
       <use x="95.410156" xlink:href="#DejaVuSans-53"/>
      </g>
     </g>
    </g>
    <g id="text_14">
     <!-- $|f(q)|$ -->
     <g transform="translate(67.145313 419.425)rotate(-90)scale(0.25 -0.25)">
      <defs>
       <path d="M 21 76.421875 
L 21 -23.578125 
L 12.703125 -23.578125 
L 12.703125 76.421875 
z
" id="DejaVuSans-124"/>
       <path d="M 47.796875 75.984375 
L 46.390625 68.5 
L 37.796875 68.5 
Q 32.90625 68.5 30.6875 66.578125 
Q 28.46875 64.65625 27.390625 59.515625 
L 26.421875 54.6875 
L 41.21875 54.6875 
L 39.890625 47.703125 
L 25.09375 47.703125 
L 15.828125 0 
L 6.78125 0 
L 16.109375 47.703125 
L 7.515625 47.703125 
L 8.796875 54.6875 
L 17.390625 54.6875 
L 18.109375 58.5 
Q 19.96875 68.171875 24.625 72.078125 
Q 29.296875 75.984375 39.3125 75.984375 
z
" id="DejaVuSans-Oblique-102"/>
      </defs>
      <use transform="translate(0 0.578125)" xlink:href="#DejaVuSans-124"/>
      <use transform="translate(33.691406 0.578125)" xlink:href="#DejaVuSans-Oblique-102"/>
      <use transform="translate(68.896484 0.578125)" xlink:href="#DejaVuSans-40"/>
      <use transform="translate(107.910156 0.578125)" xlink:href="#DejaVuSans-Oblique-113"/>
      <use transform="translate(171.386719 0.578125)" xlink:href="#DejaVuSans-41"/>
      <use transform="translate(210.400391 0.578125)" xlink:href="#DejaVuSans-124"/>
     </g>
    </g>
   </g>
   <g id="line2d_25">
    <path clip-path="url(#pdb48ab2831)" d="M 113.886225 104.142857 
L 115.581133 105.931287 
L 117.27604 111.094305 
L 118.970947 119.520713 
L 120.665854 131.030889 
L 122.360759 145.383281 
L 124.055664 162.283049 
L 125.750567 181.392424 
L 127.445468 202.342315 
L 130.835265 248.204792 
L 139.309715 368.543325 
L 142.699473 412.58866 
L 146.089216 452.050095 
L 147.784081 469.878967 
L 149.478942 486.422563 
L 151.173798 501.708737 
L 152.868649 515.790567 
L 154.563494 528.739826 
L 156.258335 540.640618 
L 157.95317 551.583473 
L 159.647999 561.660176 
L 161.342822 570.959476 
L 163.037638 579.563827 
L 164.732448 587.547153 
L 166.427252 594.973642 
L 169.816838 608.363166 
L 173.206394 620.05793 
L 176.595918 630.273737 
L 179.98541 639.169317 
L 183.374867 646.89239 
L 186.764287 653.605816 
L 190.153668 659.4903 
L 193.543009 664.728949 
L 196.932308 669.484311 
L 200.321562 673.879302 
L 203.710772 677.990114 
L 207.099933 681.853418 
L 210.489045 685.484185 
L 215.572618 690.528481 
L 220.656069 695.192762 
L 222.350524 696.691176 
L 224.044966 696.186238 
L 230.822583 690.427262 
L 234.2113 687.718558 
L 237.599954 685.272129 
L 239.294256 684.200564 
L 240.988541 683.262077 
L 242.68281 682.480856 
L 244.377062 681.879689 
L 246.071297 681.478654 
L 247.765514 681.293906 
L 249.459713 681.336618 
L 251.153895 681.612175 
L 252.848058 682.119649 
L 254.542203 682.8516 
L 256.236329 683.794217 
L 257.930437 684.927779 
L 261.318594 687.664142 
L 264.706674 690.819423 
L 269.788643 695.75658 
L 271.482592 697.023788 
L 274.870427 694.119635 
L 278.258177 691.650423 
L 281.645839 689.673233 
L 285.033414 688.179779 
L 288.420897 687.11604 
L 291.808288 686.405432 
L 295.195586 685.969464 
L 298.582787 685.741722 
L 303.663405 685.688983 
L 308.743798 685.89933 
L 313.823958 686.311599 
L 322.29036 687.284749 
L 339.221071 689.563373 
L 351.070809 691.397222 
L 369.688691 694.564785 
L 379.842194 696.301393 
L 384.918473 696.948492 
L 388.302481 697.164083 
L 391.686343 697.119341 
L 393.37822 697.17637 
L 396.761861 696.880584 
L 400.145353 696.366284 
L 405.220307 695.271324 
L 418.751804 691.962924 
L 423.825457 691.097974 
L 428.898741 690.539155 
L 433.97165 690.238989 
L 440.734936 690.115123 
L 449.188068 690.225665 
L 459.330362 690.600746 
L 479.609969 691.664675 
L 498.193502 692.827903 
L 525.21304 694.527756 
L 531.965785 694.650131 
L 537.029764 694.510163 
L 542.09324 694.155635 
L 548.843747 693.433495 
L 560.654912 692.118248 
L 567.402855 691.658774 
L 574.149838 691.459435 
L 582.582197 691.457796 
L 596.070736 691.719264 
L 623.035462 692.559443 
L 668.498889 693.958858 
L 675.229771 693.938103 
L 681.959466 693.720715 
L 690.369893 693.2159 
L 702.141283 692.482228 
L 710.547091 692.218076 
L 718.950926 692.19046 
L 721 692.208072 
L 721 692.208072 
" style="fill:none;stroke:#f98e52;stroke-linecap:square;stroke-width:2;"/>
   </g>
   <g id="line2d_26">
    <path clip-path="url(#pdb48ab2831)" d="M 113.886225 104.142857 
L 115.581133 105.966591 
L 117.27604 111.22857 
L 118.970947 119.806996 
L 120.665854 131.505638 
L 122.360759 146.061653 
L 124.055664 163.15591 
L 125.750567 182.425267 
L 129.140368 225.898865 
L 134.225054 297.348507 
L 137.614831 344.813009 
L 141.004596 389.456705 
L 144.394347 429.843756 
L 146.089216 448.205667 
L 147.784081 465.307413 
L 149.478942 481.163827 
L 151.173798 495.816977 
L 152.868649 509.329154 
L 154.563494 521.776107 
L 156.258335 533.240874 
L 157.95317 543.808462 
L 159.647999 553.561575 
L 161.342822 562.577453 
L 163.037638 570.925834 
L 164.732448 578.667947 
L 166.427252 585.856411 
L 168.122048 592.535829 
L 169.816838 598.743898 
L 171.511619 604.512804 
L 173.206394 609.870706 
L 174.90116 614.843151 
L 176.595918 619.454269 
L 178.290669 623.727676 
L 179.98541 627.687037 
L 181.680143 631.356285 
L 185.069581 637.920788 
L 188.458982 643.609586 
L 191.848343 648.59257 
L 195.237664 653.006407 
L 198.626941 656.947807 
L 202.016173 660.47742 
L 205.405358 663.631971 
L 208.794496 666.439169 
L 212.183583 668.929584 
L 215.572618 671.141817 
L 218.961599 673.120534 
L 224.044966 675.745303 
L 229.128202 678.053288 
L 234.2113 680.096014 
L 239.294256 681.887405 
L 244.377062 683.444852 
L 251.153895 685.232425 
L 259.624525 687.164448 
L 268.094674 688.832659 
L 276.564312 690.221627 
L 286.727167 691.628705 
L 298.582787 693.063216 
L 310.43721 694.252108 
L 342.606862 697.178191 
L 354.456169 695.987057 
L 369.688691 694.227988 
L 381.534322 692.894015 
L 386.610495 692.598335 
L 389.99443 692.603347 
L 393.37822 692.813425 
L 396.761861 693.244586 
L 400.145353 693.887299 
L 405.220307 695.164038 
L 411.986371 697.124354 
L 415.369167 696.292545 
L 420.443063 695.074568 
L 425.516593 694.152963 
L 430.589753 693.519029 
L 435.662536 693.112878 
L 442.425649 692.81277 
L 450.878563 692.684451 
L 462.710764 692.768967 
L 488.057773 693.241127 
L 548.843747 694.499282 
L 601.127893 695.411521 
L 670.18172 696.510295 
L 676.912306 696.364023 
L 683.641702 696.026113 
L 695.415236 695.146514 
L 703.822601 694.604183 
L 712.228017 694.311123 
L 721 694.229996 
L 721 694.229996 
" style="fill:none;stroke:#ffffbe;stroke-linecap:square;stroke-width:2;"/>
   </g>
   <g id="line2d_27">
    <path clip-path="url(#pdb48ab2831)" d="M 113.886225 104.142857 
L 115.581133 105.991164 
L 117.27604 111.322604 
L 118.970947 120.009669 
L 120.665854 131.847179 
L 122.360759 146.560819 
L 124.055664 163.818368 
L 125.750567 183.242997 
L 129.140368 226.951622 
L 134.225054 298.42661 
L 137.614831 345.65378 
L 141.004596 389.895271 
L 144.394347 429.789449 
L 146.089216 447.897608 
L 147.784081 464.753936 
L 149.478942 480.381312 
L 151.173798 494.827784 
L 152.868649 508.159311 
L 154.563494 520.45297 
L 156.258335 531.790963 
L 157.95317 542.255642 
L 159.647999 551.925702 
L 161.342822 560.87357 
L 163.037638 569.163922 
L 164.732448 576.853195 
L 166.427252 583.989915 
L 168.122048 590.615614 
L 169.816838 596.766109 
L 171.511619 602.472928 
L 173.206394 607.764699 
L 174.90116 612.668342 
L 176.595918 617.209986 
L 178.290669 621.415536 
L 179.98541 625.310914 
L 183.374867 632.274237 
L 186.764287 638.299646 
L 190.153668 643.565356 
L 193.543009 648.214467 
L 196.932308 652.349551 
L 200.321562 656.037625 
L 203.710772 659.322615 
L 207.099933 662.239657 
L 210.489045 664.825704 
L 213.878107 667.123424 
L 217.267115 669.178656 
L 220.656069 671.034318 
L 225.739393 673.515188 
L 230.822583 675.68968 
L 235.905635 677.587767 
L 240.988541 679.235536 
L 246.071297 680.675192 
L 252.848058 682.355843 
L 259.624525 683.830555 
L 266.400684 685.115398 
L 274.870427 686.473862 
L 285.033414 687.849554 
L 295.195586 689.021302 
L 307.050359 690.13758 
L 322.29036 691.319558 
L 337.52813 692.254323 
L 356.148802 693.178395 
L 378.15003 694.01736 
L 401.837042 694.711468 
L 430.589753 695.354829 
L 467.78102 695.971138 
L 513.393651 696.508492 
L 579.209438 697.049946 
L 604.499009 697.130809 
L 655.033619 696.62318 
L 668.498889 696.587598 
L 676.912306 696.795567 
L 685.323863 697.065844 
L 707.185003 695.498469 
L 715.589631 695.260516 
L 721 695.204083 
L 721 695.204083 
" style="fill:none;stroke:#86cfa5;stroke-linecap:square;stroke-width:2;"/>
   </g>
   <g id="line2d_28">
    <path clip-path="url(#pdb48ab2831)" d="M 113.886225 104.142857 
L 115.581133 106.179221 
L 117.27604 112.045232 
L 118.970947 121.57808 
L 120.665854 134.517141 
L 122.360759 150.516712 
L 124.055664 169.162599 
L 125.750567 189.991475 
L 129.140368 236.224912 
L 137.614831 357.065399 
L 141.004596 400.309577 
L 144.394347 438.578786 
L 146.089216 455.780391 
L 147.784081 471.739531 
L 149.478942 486.524097 
L 151.173798 500.21651 
L 152.868649 512.904961 
L 154.563494 524.676306 
L 156.258335 535.610875 
L 157.95317 545.779264 
L 159.647999 555.241 
L 161.342822 564.044799 
L 163.037638 572.230064 
L 164.732448 579.829177 
L 166.427252 586.870158 
L 168.122048 593.379276 
L 169.816838 599.383274 
L 171.511619 604.910983 
L 173.206394 609.994179 
L 174.90116 614.667671 
L 176.595918 618.968693 
L 178.290669 622.935755 
L 181.680143 630.019428 
L 185.069581 636.194975 
L 188.458982 641.670587 
L 191.848343 646.570667 
L 195.237664 650.949428 
L 198.626941 654.824646 
L 202.016173 658.214655 
L 205.405358 661.162682 
L 208.794496 663.740512 
L 212.183583 666.033864 
L 217.267115 669.101655 
L 222.350524 671.835019 
L 227.433805 674.23381 
L 230.822583 675.627525 
L 235.905635 677.424007 
L 240.988541 678.955704 
L 249.459713 681.215768 
L 256.236329 682.826378 
L 263.012644 684.168135 
L 271.482592 685.51828 
L 285.033414 687.426797 
L 293.501949 688.387418 
L 308.743798 689.762194 
L 320.597134 690.696396 
L 337.52813 691.691099 
L 352.763505 692.463166 
L 383.226416 693.581023 
L 423.825457 694.567074 
L 450.878563 695.034429 
L 491.436549 695.564364 
L 535.341827 695.939658 
L 619.665795 696.411736 
L 721 696.731807 
L 721 696.731807 
" style="fill:none;stroke:#5e4fa2;stroke-linecap:square;stroke-width:2;"/>
   </g>
   <g id="patch_3">
    <path d="M 108 720.9 
L 108 56.7 
" style="fill:none;stroke:#000000;stroke-linecap:square;stroke-linejoin:miter;stroke-width:0.8;"/>
   </g>
   <g id="patch_4">
    <path d="M 698.4 720.9 
L 698.4 56.7 
" style="fill:none;stroke:#000000;stroke-linecap:square;stroke-linejoin:miter;stroke-width:0.8;"/>
   </g>
   <g id="patch_5">
    <path d="M 108 720.9 
L 698.4 720.9 
" style="fill:none;stroke:#000000;stroke-linecap:square;stroke-linejoin:miter;stroke-width:0.8;"/>
   </g>
   <g id="patch_6">
    <path d="M 108 56.7 
L 698.4 56.7 
" style="fill:none;stroke:#000000;stroke-linecap:square;stroke-linejoin:miter;stroke-width:0.8;"/>
   </g>
   <g id="legend_1">
    <g id="patch_7">
     <path d="M 514.6 198.2875 
L 684.4 198.2875 
Q 688.4 198.2875 688.4 194.2875 
L 688.4 70.7 
Q 688.4 66.7 684.4 66.7 
L 514.6 66.7 
Q 510.6 66.7 510.6 70.7 
L 510.6 194.2875 
Q 510.6 198.2875 514.6 198.2875 
z
" style="fill:#ffffff;opacity:0.8;stroke:#cccccc;stroke-linejoin:miter;"/>
    </g>
    <g id="line2d_29">
     <path d="M 518.6 82.896875 
L 558.6 82.896875 
" style="fill:none;stroke:#f98e52;stroke-linecap:square;stroke-width:2;"/>
    </g>
    <g id="line2d_30"/>
    <g id="text_15">
     <!-- $n_{layers}=5$ -->
     <g transform="translate(574.6 89.896875)scale(0.2 -0.2)">
      <defs>
       <path d="M 55.71875 33.015625 
L 49.3125 0 
L 40.28125 0 
L 46.6875 32.671875 
Q 47.125 34.96875 47.359375 36.71875 
Q 47.609375 38.484375 47.609375 39.5 
Q 47.609375 43.609375 45.015625 45.890625 
Q 42.4375 48.1875 37.796875 48.1875 
Q 30.5625 48.1875 25.34375 43.375 
Q 20.125 38.578125 18.5 30.328125 
L 12.5 0 
L 3.515625 0 
L 14.109375 54.6875 
L 23.09375 54.6875 
L 21.296875 46.09375 
Q 25.046875 50.828125 30.3125 53.40625 
Q 35.59375 56 41.40625 56 
Q 48.640625 56 52.609375 52.09375 
Q 56.59375 48.1875 56.59375 41.109375 
Q 56.59375 39.359375 56.375 37.359375 
Q 56.15625 35.359375 55.71875 33.015625 
z
" id="DejaVuSans-Oblique-110"/>
       <path d="M 18.3125 75.984375 
L 27.296875 75.984375 
L 12.5 0 
L 3.515625 0 
z
" id="DejaVuSans-Oblique-108"/>
       <path d="M 53.71875 31.203125 
L 47.609375 0 
L 38.625 0 
L 40.28125 8.296875 
Q 36.328125 3.421875 31.265625 1 
Q 26.21875 -1.421875 20.015625 -1.421875 
Q 13.03125 -1.421875 8.5625 2.84375 
Q 4.109375 7.125 4.109375 13.8125 
Q 4.109375 23.390625 11.75 28.953125 
Q 19.390625 34.515625 32.8125 34.515625 
L 45.3125 34.515625 
L 45.796875 36.921875 
Q 45.90625 37.3125 45.953125 37.765625 
Q 46 38.234375 46 39.203125 
Q 46 43.5625 42.453125 45.96875 
Q 38.921875 48.390625 32.515625 48.390625 
Q 28.125 48.390625 23.5 47.265625 
Q 18.890625 46.140625 14.015625 43.890625 
L 15.578125 52.203125 
Q 20.65625 54.109375 25.515625 55.046875 
Q 30.375 56 34.90625 56 
Q 44.578125 56 49.625 51.796875 
Q 54.6875 47.609375 54.6875 39.59375 
Q 54.6875 37.984375 54.4375 35.8125 
Q 54.203125 33.640625 53.71875 31.203125 
z
M 44 27.484375 
L 35.015625 27.484375 
Q 23.96875 27.484375 18.671875 24.53125 
Q 13.375 21.578125 13.375 15.375 
Q 13.375 11.078125 16.078125 8.640625 
Q 18.796875 6.203125 23.578125 6.203125 
Q 30.90625 6.203125 36.375 11.453125 
Q 41.84375 16.703125 43.609375 25.484375 
z
" id="DejaVuSans-Oblique-97"/>
       <path d="M 24.8125 -5.078125 
Q 18.5625 -15.578125 14.625 -18.1875 
Q 10.6875 -20.796875 4.59375 -20.796875 
L -2.484375 -20.796875 
L -0.984375 -13.28125 
L 4.203125 -13.28125 
Q 7.953125 -13.28125 10.59375 -11.234375 
Q 13.234375 -9.1875 16.5 -3.21875 
L 19.28125 2 
L 7.171875 54.6875 
L 16.703125 54.6875 
L 25.78125 12.796875 
L 50.875 54.6875 
L 60.296875 54.6875 
z
" id="DejaVuSans-Oblique-121"/>
       <path d="M 48.09375 32.234375 
Q 48.25 33.015625 48.3125 33.84375 
Q 48.390625 34.671875 48.390625 35.5 
Q 48.390625 41.453125 44.890625 44.921875 
Q 41.40625 48.390625 35.40625 48.390625 
Q 28.71875 48.390625 23.578125 44.15625 
Q 18.453125 39.9375 15.828125 32.171875 
z
M 55.90625 25.203125 
L 14.109375 25.203125 
Q 13.8125 23.34375 13.71875 22.265625 
Q 13.625 21.1875 13.625 20.40625 
Q 13.625 13.625 17.796875 9.90625 
Q 21.96875 6.203125 29.59375 6.203125 
Q 35.453125 6.203125 40.671875 7.515625 
Q 45.90625 8.84375 50.390625 11.375 
L 48.6875 2.484375 
Q 43.84375 0.53125 38.6875 -0.4375 
Q 33.546875 -1.421875 28.21875 -1.421875 
Q 16.84375 -1.421875 10.71875 4.015625 
Q 4.59375 9.46875 4.59375 19.484375 
Q 4.59375 28.03125 7.640625 35.375 
Q 10.6875 42.71875 16.609375 48.484375 
Q 20.40625 52.09375 25.65625 54.046875 
Q 30.90625 56 36.8125 56 
Q 46.09375 56 51.578125 50.4375 
Q 57.078125 44.875 57.078125 35.5 
Q 57.078125 33.25 56.78125 30.6875 
Q 56.5 28.125 55.90625 25.203125 
z
" id="DejaVuSans-Oblique-101"/>
       <path d="M 44.578125 46.390625 
Q 43.21875 47.125 41.453125 47.515625 
Q 39.703125 47.90625 37.703125 47.90625 
Q 30.515625 47.90625 25.140625 42.453125 
Q 19.78125 37.015625 18.015625 27.875 
L 12.5 0 
L 3.515625 0 
L 14.203125 54.6875 
L 23.1875 54.6875 
L 21.484375 46.1875 
Q 25.046875 50.921875 30 53.453125 
Q 34.96875 56 40.578125 56 
Q 42.046875 56 43.453125 55.828125 
Q 44.875 55.671875 46.296875 55.28125 
z
" id="DejaVuSans-Oblique-114"/>
       <path d="M 50 53.078125 
L 48.296875 44.578125 
Q 44.734375 46.53125 40.765625 47.5 
Q 36.8125 48.484375 32.625 48.484375 
Q 25.53125 48.484375 21.453125 46.0625 
Q 17.390625 43.65625 17.390625 39.5 
Q 17.390625 34.671875 26.859375 32.078125 
Q 27.59375 31.890625 27.9375 31.78125 
L 30.8125 30.90625 
Q 39.796875 28.421875 42.796875 25.6875 
Q 45.796875 22.953125 45.796875 18.21875 
Q 45.796875 9.515625 38.890625 4.046875 
Q 31.984375 -1.421875 20.796875 -1.421875 
Q 16.453125 -1.421875 11.671875 -0.578125 
Q 6.890625 0.25 1.125 2 
L 2.875 11.28125 
Q 7.8125 8.734375 12.59375 7.421875 
Q 17.390625 6.109375 21.78125 6.109375 
Q 28.375 6.109375 32.5 8.9375 
Q 36.625 11.765625 36.625 16.109375 
Q 36.625 20.796875 25.78125 23.6875 
L 24.859375 23.921875 
L 21.78125 24.703125 
Q 14.9375 26.515625 11.765625 29.46875 
Q 8.59375 32.421875 8.59375 37.015625 
Q 8.59375 45.75 15.15625 50.875 
Q 21.734375 56 33.015625 56 
Q 37.453125 56 41.671875 55.265625 
Q 45.90625 54.546875 50 53.078125 
z
" id="DejaVuSans-Oblique-115"/>
       <path d="M 10.59375 45.40625 
L 73.1875 45.40625 
L 73.1875 37.203125 
L 10.59375 37.203125 
z
M 10.59375 25.484375 
L 73.1875 25.484375 
L 73.1875 17.1875 
L 10.59375 17.1875 
z
" id="DejaVuSans-61"/>
      </defs>
      <use transform="translate(0 0.09375)" xlink:href="#DejaVuSans-Oblique-110"/>
      <use transform="translate(63.378906 -16.3125)scale(0.7)" xlink:href="#DejaVuSans-Oblique-108"/>
      <use transform="translate(82.827148 -16.3125)scale(0.7)" xlink:href="#DejaVuSans-Oblique-97"/>
      <use transform="translate(125.722656 -16.3125)scale(0.7)" xlink:href="#DejaVuSans-Oblique-121"/>
      <use transform="translate(167.148438 -16.3125)scale(0.7)" xlink:href="#DejaVuSans-Oblique-101"/>
      <use transform="translate(210.214844 -16.3125)scale(0.7)" xlink:href="#DejaVuSans-Oblique-114"/>
      <use transform="translate(238.994141 -16.3125)scale(0.7)" xlink:href="#DejaVuSans-Oblique-115"/>
      <use transform="translate(297.680664 0.09375)" xlink:href="#DejaVuSans-61"/>
      <use transform="translate(400.952148 0.09375)" xlink:href="#DejaVuSans-53"/>
     </g>
    </g>
    <g id="line2d_31">
     <path d="M 518.6 114.29375 
L 558.6 114.29375 
" style="fill:none;stroke:#ffffbe;stroke-linecap:square;stroke-width:2;"/>
    </g>
    <g id="line2d_32"/>
    <g id="text_16">
     <!-- $n_{layers}=10$ -->
     <g transform="translate(574.6 121.29375)scale(0.2 -0.2)">
      <use transform="translate(0 0.78125)" xlink:href="#DejaVuSans-Oblique-110"/>
      <use transform="translate(63.378906 -15.625)scale(0.7)" xlink:href="#DejaVuSans-Oblique-108"/>
      <use transform="translate(82.827148 -15.625)scale(0.7)" xlink:href="#DejaVuSans-Oblique-97"/>
      <use transform="translate(125.722656 -15.625)scale(0.7)" xlink:href="#DejaVuSans-Oblique-121"/>
      <use transform="translate(167.148438 -15.625)scale(0.7)" xlink:href="#DejaVuSans-Oblique-101"/>
      <use transform="translate(210.214844 -15.625)scale(0.7)" xlink:href="#DejaVuSans-Oblique-114"/>
      <use transform="translate(238.994141 -15.625)scale(0.7)" xlink:href="#DejaVuSans-Oblique-115"/>
      <use transform="translate(297.680664 0.78125)" xlink:href="#DejaVuSans-61"/>
      <use transform="translate(400.952148 0.78125)" xlink:href="#DejaVuSans-49"/>
      <use transform="translate(464.575195 0.78125)" xlink:href="#DejaVuSans-48"/>
     </g>
    </g>
    <g id="line2d_33">
     <path d="M 518.6 145.690625 
L 558.6 145.690625 
" style="fill:none;stroke:#86cfa5;stroke-linecap:square;stroke-width:2;"/>
    </g>
    <g id="line2d_34"/>
    <g id="text_17">
     <!-- $n_{layers}=20$ -->
     <g transform="translate(574.6 152.690625)scale(0.2 -0.2)">
      <use transform="translate(0 0.78125)" xlink:href="#DejaVuSans-Oblique-110"/>
      <use transform="translate(63.378906 -15.625)scale(0.7)" xlink:href="#DejaVuSans-Oblique-108"/>
      <use transform="translate(82.827148 -15.625)scale(0.7)" xlink:href="#DejaVuSans-Oblique-97"/>
      <use transform="translate(125.722656 -15.625)scale(0.7)" xlink:href="#DejaVuSans-Oblique-121"/>
      <use transform="translate(167.148438 -15.625)scale(0.7)" xlink:href="#DejaVuSans-Oblique-101"/>
      <use transform="translate(210.214844 -15.625)scale(0.7)" xlink:href="#DejaVuSans-Oblique-114"/>
      <use transform="translate(238.994141 -15.625)scale(0.7)" xlink:href="#DejaVuSans-Oblique-115"/>
      <use transform="translate(297.680664 0.78125)" xlink:href="#DejaVuSans-61"/>
      <use transform="translate(400.952148 0.78125)" xlink:href="#DejaVuSans-50"/>
      <use transform="translate(464.575195 0.78125)" xlink:href="#DejaVuSans-48"/>
     </g>
    </g>
    <g id="line2d_35">
     <path d="M 518.6 177.0875 
L 558.6 177.0875 
" style="fill:none;stroke:#5e4fa2;stroke-linecap:square;stroke-width:2;"/>
    </g>
    <g id="line2d_36"/>
    <g id="text_18">
     <!-- $n_{layers}=40$ -->
     <g transform="translate(574.6 184.0875)scale(0.2 -0.2)">
      <use transform="translate(0 0.78125)" xlink:href="#DejaVuSans-Oblique-110"/>
      <use transform="translate(63.378906 -15.625)scale(0.7)" xlink:href="#DejaVuSans-Oblique-108"/>
      <use transform="translate(82.827148 -15.625)scale(0.7)" xlink:href="#DejaVuSans-Oblique-97"/>
      <use transform="translate(125.722656 -15.625)scale(0.7)" xlink:href="#DejaVuSans-Oblique-121"/>
      <use transform="translate(167.148438 -15.625)scale(0.7)" xlink:href="#DejaVuSans-Oblique-101"/>
      <use transform="translate(210.214844 -15.625)scale(0.7)" xlink:href="#DejaVuSans-Oblique-114"/>
      <use transform="translate(238.994141 -15.625)scale(0.7)" xlink:href="#DejaVuSans-Oblique-115"/>
      <use transform="translate(297.680664 0.78125)" xlink:href="#DejaVuSans-61"/>
      <use transform="translate(400.952148 0.78125)" xlink:href="#DejaVuSans-52"/>
      <use transform="translate(464.575195 0.78125)" xlink:href="#DejaVuSans-48"/>
     </g>
    </g>
   </g>
  </g>
 </g>
 <defs>
  <clipPath id="pdb48ab2831">
   <rect height="664.2" width="590.4" x="108" y="56.7"/>
  </clipPath>
 </defs>
</svg>
