<?xml version="1.0" encoding="utf-8" standalone="no"?>
<!DOCTYPE svg PUBLIC "-//W3C//DTD SVG 1.1//EN"
  "http://www.w3.org/Graphics/SVG/1.1/DTD/svg11.dtd">
<!-- Created with matplotlib (https://matplotlib.org/) -->
<svg height="810pt" version="1.1" viewBox="0 0 720 810" width="720pt" xmlns="http://www.w3.org/2000/svg" xmlns:xlink="http://www.w3.org/1999/xlink">
 <metadata>
  <rdf:RDF xmlns:cc="http://creativecommons.org/ns#" xmlns:dc="http://purl.org/dc/elements/1.1/" xmlns:rdf="http://www.w3.org/1999/02/22-rdf-syntax-ns#">
   <cc:Work>
    <dc:type rdf:resource="http://purl.org/dc/dcmitype/StillImage"/>
    <dc:date>2020-11-30T00:55:11.357486</dc:date>
    <dc:format>image/svg+xml</dc:format>
    <dc:creator>
     <cc:Agent>
      <dc:title>Matplotlib v3.3.1, https://matplotlib.org/</dc:title>
     </cc:Agent>
    </dc:creator>
   </cc:Work>
  </rdf:RDF>
 </metadata>
 <defs>
  <style type="text/css">*{stroke-linecap:butt;stroke-linejoin:round;}</style>
 </defs>
 <g id="figure_1">
  <g id="patch_1">
   <path d="M 0 810 
L 720 810 
L 720 0 
L 0 0 
z
" style="fill:#ffffff;"/>
  </g>
  <g id="axes_1">
   <g id="patch_2">
    <path d="M 108 720.9 
L 698.4 720.9 
L 698.4 56.7 
L 108 56.7 
z
" style="fill:#ffffff;"/>
   </g>
   <g id="matplotlib.axis_1">
    <g id="xtick_1">
     <g id="line2d_1">
      <path clip-path="url(#p958f027ba4)" d="M 108 720.9 
L 108 56.7 
" style="fill:none;stroke:#e6e6e6;stroke-linecap:square;stroke-width:0.8;"/>
     </g>
     <g id="line2d_2">
      <defs>
       <path d="M 0 0 
L 0 -3.5 
" id="m3cb29f7926" style="stroke:#000000;stroke-width:0.8;"/>
      </defs>
      <g>
       <use style="stroke:#000000;stroke-width:0.8;" x="108" xlink:href="#m3cb29f7926" y="720.9"/>
      </g>
     </g>
     <g id="text_1">
      <!-- $\mathdefault{0}$ -->
      <g transform="translate(104.341881 734.777725)scale(0.15 -0.15)">
       <defs>
        <path d="M 42 31.640625 
C 42 37.75 41.90625 48.125 37.703125 56.109375 
C 34 63.109375 28.09375 65.59375 22.90625 65.59375 
C 18.09375 65.59375 12 63.40625 8.203125 56.203125 
C 4.203125 48.71875 3.796875 39.4375 3.796875 31.640625 
C 3.796875 25.953125 3.90625 17.28125 7 9.671875 
C 11.296875 -0.609375 19 -2 22.90625 -2 
C 27.5 -2 34.5 -0.109375 38.59375 9.375 
C 41.59375 16.28125 42 24.359375 42 31.640625 
z
M 22.90625 -0.40625 
C 16.5 -0.40625 12.703125 5.078125 11.296875 12.6875 
C 10.203125 18.5625 10.203125 27.15625 10.203125 32.75 
C 10.203125 40.4375 10.203125 46.828125 11.5 52.921875 
C 13.40625 61.390625 19 64 22.90625 64 
C 27 64 32.296875 61.296875 34.203125 53.125 
C 35.5 47.4375 35.59375 40.734375 35.59375 32.75 
C 35.59375 26.25 35.59375 18.265625 34.40625 12.375 
C 32.296875 1.484375 26.40625 -0.40625 22.90625 -0.40625 
z
" id="CMR17-48"/>
       </defs>
       <use transform="scale(0.996264)" xlink:href="#CMR17-48"/>
      </g>
     </g>
    </g>
    <g id="xtick_2">
     <g id="line2d_3">
      <path clip-path="url(#p958f027ba4)" d="M 181.8 720.9 
L 181.8 56.7 
" style="fill:none;stroke:#e6e6e6;stroke-linecap:square;stroke-width:0.8;"/>
     </g>
     <g id="line2d_4">
      <g>
       <use style="stroke:#000000;stroke-width:0.8;" x="181.8" xlink:href="#m3cb29f7926" y="720.9"/>
      </g>
     </g>
     <g id="text_2">
      <!-- $\mathdefault{5}$ -->
      <g transform="translate(178.141881 734.777725)scale(0.15 -0.15)">
       <defs>
        <path d="M 11.40625 57.6875 
C 12.40625 57.28125 16.5 56 20.703125 56 
C 30 56 35.09375 61.109375 38 64.0625 
C 38 64.953125 38 65.5 37.40625 65.5 
C 37.296875 65.5 37.09375 65.5 36.296875 65.046875 
C 32.796875 63.40625 28.703125 62.078125 23.703125 62.078125 
C 20.703125 62.078125 16.203125 62.484375 11.296875 64.671875 
C 10.203125 65.171875 10 65.171875 9.90625 65.171875 
C 9.40625 65.171875 9.296875 65.0625 9.296875 63.078125 
L 9.296875 34.421875 
C 9.296875 32.640625 9.296875 32.140625 10.296875 32.140625 
C 10.796875 32.140625 11 32.34375 11.5 33.03125 
C 14.703125 37.515625 19.09375 39.40625 24.09375 39.40625 
C 27.59375 39.40625 35.09375 37.21875 35.09375 20.140625 
C 35.09375 16.953125 35.09375 11.171875 32.09375 6.578125 
C 29.59375 2.484375 25.703125 0.390625 21.40625 0.390625 
C 14.796875 0.390625 8.09375 5 6.296875 12.71875 
C 6.703125 12.609375 7.5 12.421875 7.90625 12.421875 
C 9.203125 12.421875 11.703125 13.125 11.703125 16.21875 
C 11.703125 18.90625 9.796875 20 7.90625 20 
C 5.59375 20 4.09375 18.59375 4.09375 15.796875 
C 4.09375 7.09375 11 -2 21.59375 -2 
C 31.90625 -2 41.703125 6.875 41.703125 19.75 
C 41.703125 31.71875 33.90625 41 24.203125 41 
C 19.09375 41 14.796875 39.109375 11.40625 35.53125 
z
" id="CMR17-53"/>
       </defs>
       <use transform="scale(0.996264)" xlink:href="#CMR17-53"/>
      </g>
     </g>
    </g>
    <g id="xtick_3">
     <g id="line2d_5">
      <path clip-path="url(#p958f027ba4)" d="M 255.6 720.9 
L 255.6 56.7 
" style="fill:none;stroke:#e6e6e6;stroke-linecap:square;stroke-width:0.8;"/>
     </g>
     <g id="line2d_6">
      <g>
       <use style="stroke:#000000;stroke-width:0.8;" x="255.6" xlink:href="#m3cb29f7926" y="720.9"/>
      </g>
     </g>
     <g id="text_3">
      <!-- $\mathdefault{10}$ -->
      <g transform="translate(248.283762 734.777725)scale(0.15 -0.15)">
       <defs>
        <path d="M 26.59375 63.40625 
C 26.59375 65.5 26.5 65.5 25.09375 65.5 
C 21.203125 61.1875 15.296875 59.796875 9.703125 59.796875 
C 9.40625 59.796875 8.90625 59.796875 8.796875 59.5 
C 8.703125 59.296875 8.703125 59.09375 8.703125 57 
C 11.796875 57 17 57.59375 21 59.984375 
L 21 7.203125 
C 21 3.6875 20.796875 2.5 12.203125 2.5 
L 9.203125 2.5 
L 9.203125 0 
C 14 0 19 0 23.796875 0 
C 28.59375 0 33.59375 0 38.40625 0 
L 38.40625 2.5 
L 35.40625 2.5 
C 26.796875 2.5 26.59375 3.59375 26.59375 7.15625 
z
" id="CMR17-49"/>
       </defs>
       <use transform="scale(0.996264)" xlink:href="#CMR17-49"/>
       <use transform="translate(45.690477 0)scale(0.996264)" xlink:href="#CMR17-48"/>
      </g>
     </g>
    </g>
    <g id="xtick_4">
     <g id="line2d_7">
      <path clip-path="url(#p958f027ba4)" d="M 329.4 720.9 
L 329.4 56.7 
" style="fill:none;stroke:#e6e6e6;stroke-linecap:square;stroke-width:0.8;"/>
     </g>
     <g id="line2d_8">
      <g>
       <use style="stroke:#000000;stroke-width:0.8;" x="329.4" xlink:href="#m3cb29f7926" y="720.9"/>
      </g>
     </g>
     <g id="text_4">
      <!-- $\mathdefault{15}$ -->
      <g transform="translate(322.083762 734.777725)scale(0.15 -0.15)">
       <use transform="scale(0.996264)" xlink:href="#CMR17-49"/>
       <use transform="translate(45.690477 0)scale(0.996264)" xlink:href="#CMR17-53"/>
      </g>
     </g>
    </g>
    <g id="xtick_5">
     <g id="line2d_9">
      <path clip-path="url(#p958f027ba4)" d="M 403.2 720.9 
L 403.2 56.7 
" style="fill:none;stroke:#e6e6e6;stroke-linecap:square;stroke-width:0.8;"/>
     </g>
     <g id="line2d_10">
      <g>
       <use style="stroke:#000000;stroke-width:0.8;" x="403.2" xlink:href="#m3cb29f7926" y="720.9"/>
      </g>
     </g>
     <g id="text_5">
      <!-- $\mathdefault{20}$ -->
      <g transform="translate(395.883762 734.777725)scale(0.15 -0.15)">
       <defs>
        <path d="M 41.703125 15.453125 
L 39.90625 15.453125 
C 38.90625 8.375 38.09375 7.171875 37.703125 6.5625 
C 37.203125 5.765625 30 5.765625 28.59375 5.765625 
L 9.40625 5.765625 
C 13 9.671875 20 16.75 28.5 24.953125 
C 34.59375 30.734375 41.703125 37.53125 41.703125 47.421875 
C 41.703125 59.21875 32.296875 66 21.796875 66 
C 10.796875 66 4.09375 56.3125 4.09375 47.34375 
C 4.09375 43.4375 7 42.9375 8.203125 42.9375 
C 9.203125 42.9375 12.203125 43.546875 12.203125 47.03125 
C 12.203125 50.109375 9.59375 51 8.203125 51 
C 7.59375 51 7 50.90625 6.59375 50.703125 
C 8.5 59.21875 14.296875 63.40625 20.40625 63.40625 
C 29.09375 63.40625 34.796875 56.515625 34.796875 47.421875 
C 34.796875 38.734375 29.703125 31.25 24 24.75 
L 4.09375 2.28125 
L 4.09375 0 
L 39.296875 0 
z
" id="CMR17-50"/>
       </defs>
       <use transform="scale(0.996264)" xlink:href="#CMR17-50"/>
       <use transform="translate(45.690477 0)scale(0.996264)" xlink:href="#CMR17-48"/>
      </g>
     </g>
    </g>
    <g id="xtick_6">
     <g id="line2d_11">
      <path clip-path="url(#p958f027ba4)" d="M 477 720.9 
L 477 56.7 
" style="fill:none;stroke:#e6e6e6;stroke-linecap:square;stroke-width:0.8;"/>
     </g>
     <g id="line2d_12">
      <g>
       <use style="stroke:#000000;stroke-width:0.8;" x="477" xlink:href="#m3cb29f7926" y="720.9"/>
      </g>
     </g>
     <g id="text_6">
      <!-- $\mathdefault{25}$ -->
      <g transform="translate(469.683762 734.777725)scale(0.15 -0.15)">
       <use transform="scale(0.996264)" xlink:href="#CMR17-50"/>
       <use transform="translate(45.690477 0)scale(0.996264)" xlink:href="#CMR17-53"/>
      </g>
     </g>
    </g>
    <g id="xtick_7">
     <g id="line2d_13">
      <path clip-path="url(#p958f027ba4)" d="M 550.8 720.9 
L 550.8 56.7 
" style="fill:none;stroke:#e6e6e6;stroke-linecap:square;stroke-width:0.8;"/>
     </g>
     <g id="line2d_14">
      <g>
       <use style="stroke:#000000;stroke-width:0.8;" x="550.8" xlink:href="#m3cb29f7926" y="720.9"/>
      </g>
     </g>
     <g id="text_7">
      <!-- $\mathdefault{30}$ -->
      <g transform="translate(543.483762 734.777725)scale(0.15 -0.15)">
       <defs>
        <path d="M 22.09375 33.703125 
C 31 33.703125 34.90625 25.96875 34.90625 17.03125 
C 34.90625 5 28.5 0.390625 22.703125 0.390625 
C 17.40625 0.390625 8.796875 3.03125 6.09375 10.828125 
C 6.59375 10.625 7.09375 10.625 7.59375 10.625 
C 10 10.625 11.796875 12.21875 11.796875 14.8125 
C 11.796875 17.703125 9.59375 19 7.59375 19 
C 5.90625 19 3.296875 18.203125 3.296875 14.46875 
C 3.296875 5.234375 12.296875 -2 22.90625 -2 
C 34 -2 42.5 6.71875 42.5 16.953125 
C 42.5 26.671875 34.5 33.703125 25 34.796875 
C 32.59375 36.375 39.90625 43.0625 39.90625 52.015625 
C 39.90625 59.6875 32 65.296875 23 65.296875 
C 13.90625 65.296875 5.90625 59.828125 5.90625 52.015625 
C 5.90625 48.59375 8.5 48 9.796875 48 
C 11.90625 48 13.703125 49.296875 13.703125 51.890625 
C 13.703125 54.46875 11.90625 55.765625 9.796875 55.765625 
C 9.40625 55.765625 8.90625 55.765625 8.5 55.578125 
C 11.40625 61.859375 19.296875 63 22.796875 63 
C 26.296875 63 32.90625 61.328125 32.90625 51.875 
C 32.90625 49.109375 32.5 44.1875 29.09375 39.84375 
C 26.09375 36 22.703125 36 19.40625 35.6875 
C 18.90625 35.6875 16.59375 35.453125 16.203125 35.453125 
C 15.5 35.359375 15.09375 35.265625 15.09375 34.5 
C 15.09375 33.796875 15.203125 33.703125 17.203125 33.703125 
z
" id="CMR17-51"/>
       </defs>
       <use transform="scale(0.996264)" xlink:href="#CMR17-51"/>
       <use transform="translate(45.690477 0)scale(0.996264)" xlink:href="#CMR17-48"/>
      </g>
     </g>
    </g>
    <g id="xtick_8">
     <g id="line2d_15">
      <path clip-path="url(#p958f027ba4)" d="M 624.6 720.9 
L 624.6 56.7 
" style="fill:none;stroke:#e6e6e6;stroke-linecap:square;stroke-width:0.8;"/>
     </g>
     <g id="line2d_16">
      <g>
       <use style="stroke:#000000;stroke-width:0.8;" x="624.6" xlink:href="#m3cb29f7926" y="720.9"/>
      </g>
     </g>
     <g id="text_8">
      <!-- $\mathdefault{35}$ -->
      <g transform="translate(617.283762 734.777725)scale(0.15 -0.15)">
       <use transform="scale(0.996264)" xlink:href="#CMR17-51"/>
       <use transform="translate(45.690477 0)scale(0.996264)" xlink:href="#CMR17-53"/>
      </g>
     </g>
    </g>
    <g id="xtick_9">
     <g id="line2d_17">
      <path clip-path="url(#p958f027ba4)" d="M 698.4 720.9 
L 698.4 56.7 
" style="fill:none;stroke:#e6e6e6;stroke-linecap:square;stroke-width:0.8;"/>
     </g>
     <g id="line2d_18">
      <g>
       <use style="stroke:#000000;stroke-width:0.8;" x="698.4" xlink:href="#m3cb29f7926" y="720.9"/>
      </g>
     </g>
     <g id="text_9">
      <!-- $\mathdefault{40}$ -->
      <g transform="translate(691.083762 734.777725)scale(0.15 -0.15)">
       <defs>
        <path d="M 33.59375 64.40625 
C 33.59375 66.5 33.5 66.5 31.703125 66.5 
L 2 19.59375 
L 2 17 
L 27.796875 17 
L 27.796875 7.140625 
C 27.796875 3.5 27.59375 2.5 20.59375 2.5 
L 18.703125 2.5 
L 18.703125 0 
C 21.90625 0 27.296875 0 30.703125 0 
C 34.09375 0 39.5 0 42.703125 0 
L 42.703125 2.5 
L 40.796875 2.5 
C 33.796875 2.5 33.59375 3.5 33.59375 7.140625 
L 33.59375 17 
L 43.796875 17 
L 43.796875 19.59375 
L 33.59375 19.59375 
z
M 28.09375 57.859375 
L 28.09375 19.59375 
L 4 19.59375 
z
" id="CMR17-52"/>
       </defs>
       <use transform="scale(0.996264)" xlink:href="#CMR17-52"/>
       <use transform="translate(45.690477 0)scale(0.996264)" xlink:href="#CMR17-48"/>
      </g>
     </g>
    </g>
    <g id="text_10">
     <!-- $ka$ -->
     <g transform="translate(390.039133 758.979723)scale(0.25 -0.25)">
      <defs>
       <path d="M 28.09375 66.515625 
C 28.203125 66.921875 28.40625 67.515625 28.40625 68 
C 28.40625 69 27.40625 69 27.203125 69 
C 27.09375 69 23.5 68.640625 21.703125 68.390625 
C 20 68.390625 18.5 68.09375 16.703125 68.09375 
C 14.296875 67.890625 13.59375 67.796875 13.59375 66 
C 13.59375 65 14.59375 65 15.59375 65 
C 20.703125 65 20.703125 64.109375 20.703125 63.125 
C 20.703125 62.734375 20.703125 62.53125 20.203125 60.75 
L 5.90625 3.875 
C 5.5 2.375 5.5 2.1875 5.5 1.578125 
C 5.5 -0.59375 7.203125 -1 8.203125 -1 
C 11 -1 11.59375 1.203125 12.40625 4.296875 
L 17.09375 22.953125 
C 24.296875 22.15625 28.59375 19.15625 28.59375 14.375 
C 28.59375 13.765625 28.59375 13.375 28.296875 11.875 
C 27.90625 10.375 27.90625 9.1875 27.90625 8.6875 
C 27.90625 2.890625 31.703125 -1 36.796875 -1 
C 41.40625 -1 43.796875 3.1875 44.59375 4.59375 
C 46.703125 8.28125 48 13.875 48 14.265625 
C 48 14.765625 47.59375 15.171875 47 15.171875 
C 46.09375 15.171875 46 14.765625 45.59375 13.171875 
C 44.203125 7.984375 42.09375 1 37 1 
C 35 1 33.703125 2 33.703125 5.78125 
C 33.703125 7.6875 34.09375 9.875 34.5 11.375 
C 34.90625 13.171875 34.90625 13.265625 34.90625 14.46875 
C 34.90625 20.359375 29.59375 23.65625 20.40625 24.84375 
C 24 27.046875 27.59375 30.9375 29 32.4375 
C 34.703125 38.8125 38.59375 42.015625 43.203125 42.015625 
C 45.5 42.015625 46.09375 41.40625 46.796875 40.8125 
C 43.09375 40.40625 41.703125 37.8125 41.703125 35.828125 
C 41.703125 33.421875 43.59375 32.625 45 32.625 
C 47.703125 32.625 50.09375 34.921875 50.09375 38.125 
C 50.09375 41.015625 47.796875 44 43.296875 44 
C 37.796875 44 33.296875 40.109375 26.203125 32.125 
C 25.203125 30.9375 21.5 27.140625 17.796875 25.75 
z
" id="CMMI12-107"/>
       <path d="M 30.09375 11.875 
C 29.59375 10.171875 29.59375 9.984375 28.203125 8.078125 
C 26 5.28125 21.59375 1 16.90625 1 
C 12.796875 1 10.5 4.6875 10.5 10.578125 
C 10.5 16.0625 13.59375 27.234375 15.5 31.4375 
C 18.90625 38.421875 23.59375 42.015625 27.5 42.015625 
C 34.09375 42.015625 35.40625 33.828125 35.40625 33.03125 
C 35.40625 32.9375 35.09375 31.625 35 31.4375 
z
M 36.5 37.421875 
C 35.40625 40.015625 32.703125 44 27.5 44 
C 16.203125 44 4 29.4375 4 14.671875 
C 4 4.796875 9.796875 -1 16.59375 -1 
C 22.09375 -1 26.796875 3.296875 29.59375 6.59375 
C 30.59375 0.703125 35.296875 -1 38.296875 -1 
C 41.296875 -1 43.703125 0.796875 45.5 4.390625 
C 47.09375 7.78125 48.5 13.875 48.5 14.265625 
C 48.5 14.765625 48.09375 15.171875 47.5 15.171875 
C 46.59375 15.171875 46.5 14.671875 46.09375 13.171875 
C 44.59375 7.28125 42.703125 1 38.59375 1 
C 35.703125 1 35.5 3.59375 35.5 5.59375 
C 35.5 7.890625 35.796875 8.984375 36.703125 12.875 
C 37.40625 15.375 37.90625 17.5625 38.703125 20.453125 
C 42.40625 35.421875 43.296875 39.015625 43.296875 39.609375 
C 43.296875 41.015625 42.203125 42.109375 40.703125 42.109375 
C 37.5 42.109375 36.703125 38.625 36.5 37.421875 
z
" id="CMMI12-97"/>
      </defs>
      <use transform="scale(0.996264)" xlink:href="#CMMI12-107"/>
      <use transform="translate(54.079201 0)scale(0.996264)" xlink:href="#CMMI12-97"/>
     </g>
    </g>
   </g>
   <g id="matplotlib.axis_2">
    <g id="ytick_1">
     <g id="line2d_19">
      <path clip-path="url(#p958f027ba4)" d="M 108 720.9 
L 698.4 720.9 
" style="fill:none;stroke:#e6e6e6;stroke-linecap:square;stroke-width:0.8;"/>
     </g>
     <g id="line2d_20">
      <defs>
       <path d="M 0 0 
L 3.5 0 
" id="mffd4c558b4" style="stroke:#000000;stroke-width:0.8;"/>
      </defs>
      <g>
       <use style="stroke:#000000;stroke-width:0.8;" x="108" xlink:href="#mffd4c558b4" y="720.9"/>
      </g>
     </g>
     <g id="text_11">
      <!-- $\mathdefault{10^{-8}}$ -->
      <g transform="translate(76.501008 726.088862)scale(0.15 -0.15)">
       <defs>
        <path d="M 65.90625 23 
C 67.59375 23 69.40625 23 69.40625 25 
C 69.40625 27 67.59375 27 65.90625 27 
L 11.796875 27 
C 10.09375 27 8.296875 27 8.296875 25 
C 8.296875 23 10.09375 23 11.796875 23 
z
" id="CMSY10-0"/>
        <path d="M 27.203125 35.375 
C 33.5 38.546875 39.90625 43.328125 39.90625 50.984375 
C 39.90625 60.015625 31.09375 65.296875 23 65.296875 
C 13.90625 65.296875 5.90625 58.734375 5.90625 49.6875 
C 5.90625 47.203125 6.5 42.921875 10.40625 39.140625 
C 11.40625 38.15625 15.59375 35.171875 18.296875 33.28125 
C 13.796875 30.984375 3.296875 25.53125 3.296875 14.59375 
C 3.296875 4.359375 13.09375 -2 22.796875 -2 
C 33.5 -2 42.5 5.65625 42.5 15.78125 
C 42.5 24.84375 36.40625 29.015625 32.40625 31.703125 
z
M 14.09375 44.09375 
C 13.296875 44.59375 9.296875 47.671875 9.296875 52.359375 
C 9.296875 58.421875 15.59375 63 22.796875 63 
C 30.703125 63 36.5 57.4375 36.5 50.96875 
C 36.5 41.703125 26.09375 36.421875 25.59375 36.421875 
C 25.5 36.421875 25.40625 36.421875 24.59375 37.03125 
z
M 32.5 23.734375 
C 34 22.640625 38.796875 19.375 38.796875 13.296875 
C 38.796875 5.953125 31.40625 0.390625 23 0.390625 
C 13.90625 0.390625 7 6.84375 7 14.6875 
C 7 22.546875 13.09375 29.09375 20 32.1875 
z
" id="CMR17-56"/>
       </defs>
       <use transform="scale(0.996264)" xlink:href="#CMR17-49"/>
       <use transform="translate(45.690477 0)scale(0.996264)" xlink:href="#CMR17-48"/>
       <use transform="translate(91.380954 36.153639)scale(0.697382)" xlink:href="#CMSY10-0"/>
       <use transform="translate(145.621947 36.153639)scale(0.697382)" xlink:href="#CMR17-56"/>
      </g>
     </g>
    </g>
    <g id="ytick_2">
     <g id="line2d_21">
      <path clip-path="url(#p958f027ba4)" d="M 108 578.077108 
L 698.4 578.077108 
" style="fill:none;stroke:#e6e6e6;stroke-linecap:square;stroke-width:0.8;"/>
     </g>
     <g id="line2d_22">
      <g>
       <use style="stroke:#000000;stroke-width:0.8;" x="108" xlink:href="#mffd4c558b4" y="578.077108"/>
      </g>
     </g>
     <g id="text_12">
      <!-- $\mathdefault{10^{-6}}$ -->
      <g transform="translate(76.501008 583.265971)scale(0.15 -0.15)">
       <defs>
        <path d="M 10.59375 34 
C 10.59375 57.65625 21.796875 63 28.296875 63 
C 30.40625 63 35.5 62.640625 37.5 59 
C 35.90625 59 32.90625 59 32.90625 55.515625 
C 32.90625 52.828125 35.09375 51.921875 36.5 51.921875 
C 37.40625 51.921875 40.09375 52.3125 40.09375 55.625 
C 40.09375 61.78125 35.09375 65.296875 28.203125 65.296875 
C 16.296875 65.296875 3.796875 52.96875 3.796875 31 
C 3.796875 3.953125 15.09375 -2 23.09375 -2 
C 32.796875 -2 42 6.671875 42 20.046875 
C 42 32.515625 33.90625 41.59375 23.703125 41.59375 
C 17.59375 41.59375 13.09375 37.609375 10.59375 30.625 
z
M 23.09375 0.390625 
C 10.796875 0.390625 10.796875 18.75 10.796875 22.4375 
C 10.796875 29.625 14.203125 40 23.5 40 
C 25.203125 40 30.09375 40 33.40625 33.125 
C 35.203125 29.21875 35.203125 25.140625 35.203125 20.140625 
C 35.203125 14.75 35.203125 10.78125 33.09375 6.78125 
C 30.90625 2.671875 27.703125 0.390625 23.09375 0.390625 
z
" id="CMR17-54"/>
       </defs>
       <use transform="scale(0.996264)" xlink:href="#CMR17-49"/>
       <use transform="translate(45.690477 0)scale(0.996264)" xlink:href="#CMR17-48"/>
       <use transform="translate(91.380954 36.153639)scale(0.697382)" xlink:href="#CMSY10-0"/>
       <use transform="translate(145.621947 36.153639)scale(0.697382)" xlink:href="#CMR17-54"/>
      </g>
     </g>
    </g>
    <g id="ytick_3">
     <g id="line2d_23">
      <path clip-path="url(#p958f027ba4)" d="M 108 435.254217 
L 698.4 435.254217 
" style="fill:none;stroke:#e6e6e6;stroke-linecap:square;stroke-width:0.8;"/>
     </g>
     <g id="line2d_24">
      <g>
       <use style="stroke:#000000;stroke-width:0.8;" x="108" xlink:href="#mffd4c558b4" y="435.254217"/>
      </g>
     </g>
     <g id="text_13">
      <!-- $\mathdefault{10^{-4}}$ -->
      <g transform="translate(76.501008 440.443079)scale(0.15 -0.15)">
       <use transform="scale(0.996264)" xlink:href="#CMR17-49"/>
       <use transform="translate(45.690477 0)scale(0.996264)" xlink:href="#CMR17-48"/>
       <use transform="translate(91.380954 36.153639)scale(0.697382)" xlink:href="#CMSY10-0"/>
       <use transform="translate(145.621947 36.153639)scale(0.697382)" xlink:href="#CMR17-52"/>
      </g>
     </g>
    </g>
    <g id="ytick_4">
     <g id="line2d_25">
      <path clip-path="url(#p958f027ba4)" d="M 108 292.431325 
L 698.4 292.431325 
" style="fill:none;stroke:#e6e6e6;stroke-linecap:square;stroke-width:0.8;"/>
     </g>
     <g id="line2d_26">
      <g>
       <use style="stroke:#000000;stroke-width:0.8;" x="108" xlink:href="#mffd4c558b4" y="292.431325"/>
      </g>
     </g>
     <g id="text_14">
      <!-- $\mathdefault{10^{-2}}$ -->
      <g transform="translate(76.501008 297.620187)scale(0.15 -0.15)">
       <use transform="scale(0.996264)" xlink:href="#CMR17-49"/>
       <use transform="translate(45.690477 0)scale(0.996264)" xlink:href="#CMR17-48"/>
       <use transform="translate(91.380954 36.153639)scale(0.697382)" xlink:href="#CMSY10-0"/>
       <use transform="translate(145.621947 36.153639)scale(0.697382)" xlink:href="#CMR17-50"/>
      </g>
     </g>
    </g>
    <g id="ytick_5">
     <g id="line2d_27">
      <path clip-path="url(#p958f027ba4)" d="M 108 149.608433 
L 698.4 149.608433 
" style="fill:none;stroke:#e6e6e6;stroke-linecap:square;stroke-width:0.8;"/>
     </g>
     <g id="line2d_28">
      <g>
       <use style="stroke:#000000;stroke-width:0.8;" x="108" xlink:href="#mffd4c558b4" y="149.608433"/>
      </g>
     </g>
     <g id="text_15">
      <!-- $\mathdefault{10^{0}}$ -->
      <g transform="translate(84.637154 154.797295)scale(0.15 -0.15)">
       <use transform="scale(0.996264)" xlink:href="#CMR17-49"/>
       <use transform="translate(45.690477 0)scale(0.996264)" xlink:href="#CMR17-48"/>
       <use transform="translate(91.380954 36.153639)scale(0.697382)" xlink:href="#CMR17-48"/>
      </g>
     </g>
    </g>
    <g id="text_16">
     <!-- $\sigma/(ka)^2$ -->
     <g transform="translate(66.274358 428.253307)rotate(-90)scale(0.25 -0.25)">
      <defs>
       <path d="M 50.796875 37.625 
C 52.09375 37.625 55.40625 37.625 55.40625 40.8125 
C 55.40625 43 53.5 43 51.703125 43 
L 29.59375 43 
C 14.59375 43 3.796875 26.34375 3.796875 14.5625 
C 3.796875 6.09375 9.296875 -1 18.296875 -1 
C 30.09375 -1 43 11.671875 43 26.640625 
C 43 30.53125 42.09375 34.3125 39.703125 37.625 
z
M 18.40625 1 
C 13.296875 1 9.59375 4.890625 9.59375 11.78125 
C 9.59375 17.765625 13.203125 37.625 27.90625 37.625 
C 32.203125 37.625 37 35.53125 37 27.828125 
C 37 24.34375 35.40625 15.953125 31.90625 10.1875 
C 28.296875 4.296875 22.90625 1 18.40625 1 
z
" id="CMMI12-27"/>
       <path d="M 42.90625 71.28125 
C 42.90625 71.390625 43.5 72.90625 43.5 73.09375 
C 43.5 74.296875 42.5 75 41.703125 75 
C 41.203125 75 40.296875 75 39.5 72.796875 
L 6 -21.296875 
C 6 -21.40625 5.40625 -22.890625 5.40625 -23.09375 
C 5.40625 -24.296875 6.40625 -25 7.203125 -25 
C 7.796875 -25 8.703125 -24.890625 9.40625 -22.796875 
z
" id="CMMI12-61"/>
       <path d="M 30.59375 -24.390625 
C 30.59375 -24.296875 30.59375 -24.09375 30.296875 -23.796875 
C 25.703125 -19.125 13.40625 -6.359375 13.40625 24.703125 
C 13.40625 55.765625 25.5 68.421875 30.40625 73.390625 
C 30.40625 73.5 30.59375 73.703125 30.59375 74 
C 30.59375 74.296875 30.296875 74.5 29.90625 74.5 
C 28.796875 74.5 20.296875 67.125 15.40625 56.15625 
C 10.40625 45.109375 9 34.359375 9 24.8125 
C 9 17.625 9.703125 5.484375 15.703125 -7.359375 
C 20.5 -17.734375 28.703125 -25 29.90625 -25 
C 30.40625 -25 30.59375 -24.796875 30.59375 -24.390625 
z
" id="CMR17-40"/>
       <path d="M 26.296875 24.703125 
C 26.296875 31.875 25.59375 44.015625 19.59375 56.859375 
C 14.796875 67.234375 6.59375 74.5 5.40625 74.5 
C 5.09375 74.5 4.703125 74.390625 4.703125 73.890625 
C 4.703125 73.703125 4.796875 73.59375 4.90625 73.390625 
C 9.703125 68.40625 21.90625 55.75 21.90625 24.75 
C 21.90625 -6.359375 9.796875 -19.015625 4.90625 -24.015625 
C 4.796875 -24.203125 4.703125 -24.3125 4.703125 -24.5 
C 4.703125 -25 5.09375 -25 5.40625 -25 
C 6.5 -25 15 -17.625 19.90625 -6.65625 
C 24.90625 4.390625 26.296875 15.140625 26.296875 24.703125 
z
" id="CMR17-41"/>
      </defs>
      <use transform="scale(0.996264)" xlink:href="#CMMI12-27"/>
      <use transform="translate(59.020054 0)scale(0.996264)" xlink:href="#CMMI12-61"/>
      <use transform="translate(107.794972 0)scale(0.996264)" xlink:href="#CMR17-40"/>
      <use transform="translate(143.07574 0)scale(0.996264)" xlink:href="#CMMI12-107"/>
      <use transform="translate(197.154941 0)scale(0.996264)" xlink:href="#CMMI12-97"/>
      <use transform="translate(248.362798 0)scale(0.996264)" xlink:href="#CMR17-41"/>
      <use transform="translate(283.643566 36.153639)scale(0.697382)" xlink:href="#CMR17-50"/>
     </g>
    </g>
   </g>
   <g id="line2d_29">
    <path clip-path="url(#p958f027ba4)" d="M 113.764511 811 
L 115.424727 755.903359 
L 121.373455 689.701555 
L 127.322182 654.08701 
L 133.270909 632.875399 
L 139.219636 618.938837 
L 145.168364 608.058001 
L 151.117091 598.45423 
L 157.065818 590.02655 
L 163.014545 582.806377 
L 168.963273 576.424679 
L 174.912 570.553071 
L 180.860727 565.15745 
L 186.809455 560.2546 
L 192.758182 555.735343 
L 198.706909 551.488262 
L 204.655636 547.502885 
L 210.604364 543.785279 
L 216.553091 540.286143 
L 222.501818 536.956073 
L 228.450545 533.792321 
L 234.399273 530.796637 
L 240.348 527.941625 
L 246.296727 525.201967 
L 252.245455 522.577547 
L 258.194182 520.068268 
L 264.142909 517.657026 
L 270.091636 515.329622 
L 276.040364 513.086827 
L 281.989091 510.927741 
L 287.937818 508.840839 
L 293.886545 506.817705 
L 299.835273 504.859358 
L 305.784 502.964518 
L 311.732727 501.12503 
L 317.681455 499.335752 
L 323.630182 497.597666 
L 329.578909 495.909341 
L 335.527636 494.264822 
L 341.476364 492.660912 
L 347.425091 491.098452 
L 353.373818 489.575994 
L 359.322545 488.089081 
L 365.271273 486.635718 
L 371.22 485.216592 
L 377.168727 483.830287 
L 383.117455 482.473416 
L 389.066182 481.144759 
L 395.014909 479.844838 
L 400.963636 478.572307 
L 406.912364 477.32457 
L 412.861091 476.100905 
L 418.809818 474.901684 
L 424.758545 473.725652 
L 430.707273 472.570808 
L 436.656 471.436753 
L 442.604727 470.32373 
L 448.553455 469.230584 
L 454.502182 468.155765 
L 460.450909 467.099089 
L 466.399636 466.060687 
L 472.348364 465.039503 
L 478.297091 464.034345 
L 484.245818 463.045161 
L 490.194545 462.071989 
L 496.143273 461.113874 
L 502.092 460.169903 
L 508.040727 459.240103 
L 513.989455 458.32444 
L 519.938182 457.422055 
L 525.886909 456.532252 
L 531.835636 455.65511 
L 537.784364 454.790528 
L 543.733091 453.937745 
L 549.681818 453.096237 
L 555.630545 452.266104 
L 561.579273 451.447199 
L 567.528 450.638847 
L 573.476727 449.840666 
L 579.425455 449.052756 
L 585.374182 448.274938 
L 591.322909 447.50662 
L 597.271636 446.747523 
L 603.220364 445.997748 
L 609.169091 445.257086 
L 615.117818 444.525023 
L 621.066545 443.801366 
L 627.015273 443.086202 
L 632.964 442.379304 
L 638.912727 441.68023 
L 644.861455 440.988854 
L 650.810182 440.305245 
L 656.758909 439.629168 
L 662.707636 438.960251 
L 668.656364 438.298424 
L 674.605091 437.643755 
L 680.553818 436.996039 
L 686.502545 436.355029 
L 692.451273 435.720819 
L 698.4 435.093678 
" style="fill:none;stroke:#f98e52;stroke-linecap:square;stroke-width:2;"/>
   </g>
   <g id="line2d_30">
    <path clip-path="url(#p958f027ba4)" d="M 109.476 667.363387 
L 115.424727 469.839171 
L 121.373455 403.470667 
L 127.322182 367.779533 
L 133.270909 346.661728 
L 139.219636 332.871129 
L 145.168364 322.009842 
L 151.117091 312.362136 
L 157.065818 303.959462 
L 163.014545 296.782337 
L 168.963273 290.397829 
L 174.912 284.518422 
L 180.860727 279.138897 
L 186.809455 274.252453 
L 192.758182 269.735729 
L 198.706909 265.488372 
L 204.655636 261.512586 
L 210.604364 257.808012 
L 216.553091 254.312076 
L 222.501818 250.98309 
L 228.450545 247.829834 
L 234.399273 244.844481 
L 240.348 241.99223 
L 246.296727 239.257164 
L 252.245455 236.642842 
L 258.194182 234.141888 
L 264.142909 231.735332 
L 270.091636 229.414109 
L 276.040364 227.180791 
L 281.989091 225.030343 
L 287.937818 222.949144 
L 293.886545 220.933087 
L 299.835273 218.984931 
L 305.784 217.098741 
L 311.732727 215.265718 
L 317.681455 213.485108 
L 323.630182 211.757455 
L 329.578909 210.077879 
L 335.527636 208.441287 
L 341.476364 206.846993 
L 347.425091 205.295198 
L 353.373818 203.782332 
L 359.322545 202.304329 
L 365.271273 200.861407 
L 371.22 199.453708 
L 377.168727 198.077548 
L 383.117455 196.730558 
L 389.066182 195.413471 
L 395.014909 194.125439 
L 400.963636 192.863731 
L 406.912364 191.627107 
L 412.861091 190.415785 
L 418.809818 189.22903 
L 424.758545 188.064781 
L 430.707273 186.921987 
L 436.656 185.801095 
L 442.604727 184.70133 
L 448.553455 183.620737 
L 454.502182 182.558961 
L 460.450909 181.516383 
L 466.399636 180.491869 
L 472.348364 179.484119 
L 478.297091 178.493083 
L 484.245818 177.518742 
L 490.194545 176.5602 
L 496.143273 175.61651 
L 502.092 174.687561 
L 508.040727 173.773418 
L 513.989455 172.873229 
L 519.938182 171.986134 
L 525.886909 171.112311 
L 531.835636 170.251693 
L 537.784364 169.403329 
L 543.733091 168.566787 
L 549.681818 167.742243 
L 555.630545 166.929385 
L 561.579273 166.127545 
L 567.528 165.336422 
L 573.476727 164.556066 
L 579.425455 163.786268 
L 585.374182 163.026399 
L 591.322909 162.276205 
L 597.271636 161.535863 
L 603.220364 160.805045 
L 609.169091 160.083157 
L 615.117818 159.370188 
L 621.066545 158.6662 
L 627.015273 157.97078 
L 632.964 157.283566 
L 638.912727 156.604544 
L 644.861455 155.933685 
L 650.810182 155.270683 
L 656.758909 154.6152 
L 662.707636 153.967242 
L 668.656364 153.326836 
L 674.605091 152.693635 
L 680.553818 152.067409 
L 686.502545 151.44835 
L 692.451273 150.836523 
L 698.4 150.231858 
" style="fill:none;stroke:#ffffbe;stroke-linecap:square;stroke-width:2;"/>
   </g>
   <g id="line2d_31">
    <path clip-path="url(#p958f027ba4)" d="M 109.476 521.776601 
L 115.424727 323.220614 
L 121.373455 255.260264 
L 127.322182 219.096571 
L 133.270909 199.455332 
L 139.219636 187.058861 
L 145.168364 175.909995 
L 151.117091 166.30717 
L 157.065818 158.597625 
L 163.014545 151.643186 
L 168.963273 145.425026 
L 174.912 139.877129 
L 180.860727 134.866324 
L 186.809455 130.331296 
L 192.758182 126.073763 
L 198.706909 122.234472 
L 204.655636 118.693319 
L 210.604364 115.33461 
L 216.553091 112.275757 
L 222.501818 109.410746 
L 228.450545 106.721897 
L 234.399273 104.217899 
L 240.348 101.873692 
L 246.296727 99.686443 
L 252.245455 97.617906 
L 258.194182 95.693601 
L 264.142909 93.891163 
L 270.091636 92.193468 
L 276.040364 90.605356 
L 281.989091 89.124662 
L 287.937818 87.740454 
L 293.886545 86.434258 
L 299.835273 85.23665 
L 305.784 84.110903 
L 311.732727 83.064026 
L 317.681455 82.105884 
L 323.630182 81.209168 
L 329.578909 80.399938 
L 335.527636 79.644481 
L 341.476364 78.967997 
L 347.425091 78.35996 
L 353.373818 77.798856 
L 359.322545 77.322218 
L 365.271273 76.890342 
L 371.22 76.523974 
L 377.168727 76.215541 
L 383.117455 75.960326 
L 389.066182 75.768072 
L 395.014909 75.617518 
L 400.963636 75.533695 
L 406.912364 75.49244 
L 412.861091 75.506148 
L 418.809818 75.568222 
L 424.758545 75.680048 
L 430.707273 75.843493 
L 436.656 76.041344 
L 442.604727 76.305468 
L 448.553455 76.59421 
L 454.502182 76.939517 
L 460.450909 77.325472 
L 466.399636 77.745358 
L 472.348364 78.222743 
L 478.297091 78.713475 
L 484.245818 79.270982 
L 490.194545 79.841982 
L 496.143273 80.455134 
L 502.092 81.109186 
L 508.040727 81.774829 
L 513.989455 82.4941 
L 519.938182 83.209959 
L 525.886909 83.981353 
L 531.835636 84.74613 
L 537.784364 85.54224 
L 543.733091 86.358658 
L 549.681818 87.161012 
L 555.630545 88.011189 
L 561.579273 88.81077 
L 567.528 89.667581 
L 573.476727 90.469008 
L 579.425455 91.279225 
L 585.374182 92.094612 
L 591.322909 92.827097 
L 597.271636 93.618914 
L 603.220364 94.284707 
L 609.169091 94.99356 
L 615.117818 95.60956 
L 621.066545 96.177058 
L 627.015273 96.74662 
L 632.964 97.157805 
L 638.912727 97.629227 
L 644.861455 97.917858 
L 650.810182 98.232326 
L 656.758909 98.427468 
L 662.707636 98.544615 
L 668.656364 98.667522 
L 674.605091 98.591784 
L 680.553818 98.616484 
L 686.502545 98.436809 
L 692.451273 98.358712 
L 698.4 98.294963 
" style="fill:none;stroke:#86cfa5;stroke-linecap:square;stroke-width:2;"/>
   </g>
   <g id="line2d_32">
    <path clip-path="url(#p958f027ba4)" d="M 109.476 475.840219 
L 115.424727 276.013565 
L 121.373455 206.142346 
L 127.322182 170.209105 
L 133.270909 153.558961 
L 139.219636 141.78184 
L 145.168364 130.158044 
L 151.117091 122.173053 
L 157.065818 114.76037 
L 163.014545 108.45182 
L 168.963273 103.150512 
L 174.912 98.293816 
L 180.860727 94.343948 
L 186.809455 90.465599 
L 192.758182 87.53913 
L 198.706909 84.567614 
L 204.655636 82.223904 
L 210.604364 80.176968 
L 216.553091 78.280271 
L 222.501818 76.944286 
L 228.450545 75.543921 
L 234.399273 74.763976 
L 240.348 73.836346 
L 246.296727 73.521097 
L 252.245455 73.106339 
L 258.194182 73.101108 
L 264.142909 73.262082 
L 270.091636 73.496691 
L 276.040364 74.179321 
L 281.989091 74.6644 
L 287.937818 75.811475 
L 293.886545 76.519352 
L 299.835273 78.06688 
L 305.784 79.041754 
L 311.732727 80.78757 
L 317.681455 82.153225 
L 323.630182 83.852824 
L 329.578909 85.66329 
L 335.527636 87.076903 
L 341.476364 89.338376 
L 347.425091 90.206881 
L 353.373818 92.781536 
L 359.322545 93.076525 
L 365.271273 95.463177 
L 371.22 95.485043 
L 377.168727 97.011686 
L 383.117455 97.131188 
L 389.066182 97.258083 
L 395.014909 97.7634 
L 400.963636 96.308966 
L 406.912364 97.19845 
L 412.861091 94.614776 
L 418.809818 95.493327 
L 424.758545 92.65297 
L 430.707273 93.062822 
L 436.656 90.739558 
L 442.604727 90.357771 
L 448.553455 89.028658 
L 454.502182 87.721614 
L 460.450909 87.48422 
L 466.399636 85.453449 
L 472.348364 86.074951 
L 478.297091 83.76744 
L 484.245818 84.915458 
L 490.194545 82.84378 
L 496.143273 84.108418 
L 502.092 82.816862 
L 508.040727 83.679004 
L 513.989455 83.538142 
L 519.938182 83.640342 
L 525.886909 84.676533 
L 531.835636 83.968045 
L 537.784364 86.047896 
L 543.733091 84.680868 
L 549.681818 87.564749 
L 555.630545 86.027188 
L 561.579273 89.113339 
L 567.528 88.249564 
L 573.476727 90.579675 
L 579.425455 90.921003 
L 585.374182 91.794206 
L 591.322909 93.282791 
L 597.271636 92.5428 
L 603.220364 94.937353 
L 609.169091 92.733634 
L 615.117818 95.763105 
L 621.066545 92.699578 
L 627.015273 95.804327 
L 632.964 93.259459 
L 638.912727 95.154161 
L 644.861455 93.939626 
L 650.810182 93.918523 
L 656.758909 93.697578 
L 662.707636 92.278406 
L 668.656364 93.052711 
L 674.605091 92.393694 
L 680.553818 91.902078 
L 686.502545 91.130742 
L 692.451273 90.568837 
L 698.4 89.944157 
" style="fill:none;stroke:#5e4fa2;stroke-linecap:square;stroke-width:2;"/>
   </g>
   <g id="patch_3">
    <path d="M 108 720.9 
L 108 56.7 
" style="fill:none;stroke:#000000;stroke-linecap:square;stroke-linejoin:miter;stroke-width:0.8;"/>
   </g>
   <g id="patch_4">
    <path d="M 698.4 720.9 
L 698.4 56.7 
" style="fill:none;stroke:#000000;stroke-linecap:square;stroke-linejoin:miter;stroke-width:0.8;"/>
   </g>
   <g id="patch_5">
    <path d="M 108 720.9 
L 698.4 720.9 
" style="fill:none;stroke:#000000;stroke-linecap:square;stroke-linejoin:miter;stroke-width:0.8;"/>
   </g>
   <g id="patch_6">
    <path d="M 108 56.7 
L 698.4 56.7 
" style="fill:none;stroke:#000000;stroke-linecap:square;stroke-linejoin:miter;stroke-width:0.8;"/>
   </g>
   <g id="legend_1">
    <g id="patch_7">
     <path d="M 510.649227 710.9 
L 684.4 710.9 
Q 688.4 710.9 688.4 706.9 
L 688.4 585.309279 
Q 688.4 581.309279 684.4 581.309279 
L 510.649227 581.309279 
Q 506.649227 581.309279 506.649227 585.309279 
L 506.649227 706.9 
Q 506.649227 710.9 510.649227 710.9 
z
" style="fill:#ffffff;opacity:0.8;stroke:#cccccc;stroke-linejoin:miter;"/>
    </g>
    <g id="line2d_33">
     <path d="M 514.649227 597.506154 
L 554.649227 597.506154 
" style="fill:none;stroke:#f98e52;stroke-linecap:square;stroke-width:2;"/>
    </g>
    <g id="line2d_34"/>
    <g id="text_17">
     <!-- $n_{ref}=1.0001$ -->
     <g transform="translate(570.649227 604.506154)scale(0.2 -0.2)">
      <defs>
       <path d="M 20.59375 29.234375 
C 20.796875 29.84375 23.296875 34.828125 27 38.015625 
C 29.59375 40.40625 33 42.015625 36.90625 42.015625 
C 40.90625 42.015625 42.296875 39.015625 42.296875 35.03125 
C 42.296875 29.34375 38.203125 17.96875 36.203125 12.578125 
C 35.296875 10.171875 34.796875 8.875 34.796875 7.078125 
C 34.796875 2.59375 37.90625 -1 42.703125 -1 
C 52 -1 55.5 13.671875 55.5 14.265625 
C 55.5 14.765625 55.09375 15.171875 54.5 15.171875 
C 53.59375 15.171875 53.5 14.875 53 13.171875 
C 50.703125 4.984375 46.90625 1 43 1 
C 42 1 40.40625 1 40.40625 4.203125 
C 40.40625 6.703125 41.5 9.703125 42.09375 11.09375 
C 44.09375 16.609375 48.296875 27.8125 48.296875 33.515625 
C 48.296875 39.5 44.796875 44 37.203125 44 
C 28.296875 44 23.59375 37.734375 21.796875 35.234375 
C 21.5 40.90625 17.40625 44 13 44 
C 9.796875 44 7.59375 42.109375 5.90625 38.71875 
C 4.09375 35.125 2.703125 29.140625 2.703125 28.734375 
C 2.703125 28.34375 3.09375 27.84375 3.796875 27.84375 
C 4.59375 27.84375 4.703125 27.9375 5.296875 30.234375 
C 6.90625 36.328125 8.703125 42.015625 12.703125 42.015625 
C 15 42.015625 15.796875 40.40625 15.796875 37.421875 
C 15.796875 35.21875 14.796875 31.328125 14.09375 28.234375 
L 11.296875 17.46875 
C 10.90625 15.5625 9.796875 11.078125 9.296875 9.28125 
C 8.59375 6.6875 7.5 2 7.5 1.5 
C 7.5 0.09375 8.59375 -1 10.09375 -1 
C 11.296875 -1 12.703125 -0.40625 13.5 1.09375 
C 13.703125 1.59375 14.59375 5.09375 15.09375 7.078125 
L 17.296875 16.0625 
z
" id="CMMI12-110"/>
       <path d="M 38.90625 40.8125 
C 35.796875 40.21875 34.203125 38.015625 34.203125 35.828125 
C 34.203125 33.421875 36.09375 32.625 37.5 32.625 
C 40.296875 32.625 42.59375 35.03125 42.59375 38.015625 
C 42.59375 41.21875 39.5 44 34.5 44 
C 30.5 44 25.90625 42.203125 21.703125 36.125 
C 21 41.40625 17 44 13 44 
C 9.09375 44 7.09375 41.015625 5.90625 38.8125 
C 4.203125 35.21875 2.703125 29.234375 2.703125 28.734375 
C 2.703125 28.34375 3.09375 27.84375 3.796875 27.84375 
C 4.59375 27.84375 4.703125 27.9375 5.296875 30.234375 
C 6.796875 36.21875 8.703125 42.015625 12.703125 42.015625 
C 15.09375 42.015625 15.796875 40.3125 15.796875 37.421875 
C 15.796875 35.21875 14.796875 31.328125 14.09375 28.234375 
L 11.296875 17.46875 
C 10.90625 15.5625 9.796875 11.078125 9.296875 9.28125 
C 8.59375 6.6875 7.5 2 7.5 1.5 
C 7.5 0.09375 8.59375 -1 10.09375 -1 
C 11.203125 -1 13.09375 -0.296875 13.703125 1.703125 
C 14 2.5 17.703125 17.5625 18.296875 19.859375 
C 18.796875 22.046875 19.40625 24.15625 19.90625 26.34375 
C 20.296875 27.734375 20.703125 29.34375 21 30.640625 
C 21.296875 31.53125 24 36.421875 26.5 38.625 
C 27.703125 39.71875 30.296875 42.015625 34.40625 42.015625 
C 36 42.015625 37.59375 41.71875 38.90625 40.8125 
z
" id="CMMI12-114"/>
       <path d="M 17.90625 23.109375 
C 20.59375 23.109375 27.40625 23.109375 32.203125 24.921875 
C 39.796875 27.859375 40.5 33.71875 40.5 35.53125 
C 40.5 39.96875 36.703125 44 30.09375 44 
C 19.59375 44 4.5 34.53125 4.5 16.765625 
C 4.5 6.28125 10.5 -1 19.59375 -1 
C 33.203125 -1 41.796875 9.515625 41.796875 10.8125 
C 41.796875 11.40625 41.203125 11.90625 40.796875 11.90625 
C 40.5 11.90625 40.40625 11.8125 39.5 10.921875 
C 33.09375 2.484375 23.59375 1 19.796875 1 
C 14.09375 1 11.09375 5.46875 11.09375 12.84375 
C 11.09375 14.234375 11.09375 16.734375 12.59375 23.109375 
z
M 13.09375 25 
C 17.40625 40.5 26.90625 42.015625 30.09375 42.015625 
C 34.5 42.015625 37.5 39.40625 37.5 35.578125 
C 37.5 25 21.5 25 17.296875 25 
z
" id="CMMI12-101"/>
       <path d="M 44.59375 40.09375 
C 46.59375 40.09375 47.40625 40.09375 47.40625 42 
C 47.40625 43 46.59375 43 44.796875 43 
L 36.703125 43 
C 38.59375 53.578125 40 60.890625 40.796875 64.171875 
C 41.40625 66.640625 43.5 69 46.09375 69 
C 48.203125 69 50.296875 68.09375 51.296875 67.15625 
C 47.40625 66.75 46.203125 63.78125 46.203125 62.015625 
C 46.203125 59.953125 47.703125 58.734375 49.59375 58.734375 
C 51.59375 58.734375 54.59375 60.46875 54.59375 64.359375 
C 54.59375 68.640625 50.40625 71 46 71 
C 41.703125 71 37.5 67.71875 35.5 63.71875 
C 33.703125 60.125 32.703125 56.421875 30.40625 43 
L 23.703125 43 
C 21.796875 43 20.796875 43 20.796875 41.203125 
C 20.796875 40.09375 21.40625 40.09375 23.40625 40.09375 
L 29.796875 40.09375 
C 28 30.875 23.90625 8.46875 21.59375 -2.140625 
C 19.90625 -10.765625 18.40625 -18 13.40625 -18 
C 13.09375 -18 10.203125 -18 8.40625 -16.109375 
C 13.5 -15.703125 13.5 -11.34375 13.5 -11.25 
C 13.5 -9.265625 12 -8.078125 10.09375 -8.078125 
C 8.09375 -8.078125 5.09375 -9.765625 5.09375 -13.546875 
C 5.09375 -17.8125 9.5 -20 13.40625 -20 
C 23.59375 -20 27.796875 -1.84375 28.90625 3.109375 
C 30.703125 10.75 35.59375 37.125 36.09375 40.09375 
z
" id="CMMI12-102"/>
       <path d="M 64.296875 31.515625 
C 65.796875 31.515625 67.296875 31.515625 67.296875 33.203125 
C 67.296875 35 65.59375 35 63.90625 35 
L 8 35 
C 6.296875 35 4.59375 35 4.59375 33.203125 
C 4.59375 31.515625 6.09375 31.515625 7.59375 31.515625 
z
M 63.90625 14 
C 65.59375 14 67.296875 14 67.296875 15.796875 
C 67.296875 17.484375 65.796875 17.484375 64.296875 17.484375 
L 7.59375 17.484375 
C 6.09375 17.484375 4.59375 17.484375 4.59375 15.796875 
C 4.59375 14 6.296875 14 8 14 
z
" id="CMR17-61"/>
       <path d="M 18.40625 4.796875 
C 18.40625 7.6875 16 9.671875 13.59375 9.671875 
C 10.703125 9.671875 8.703125 7.28125 8.703125 4.890625 
C 8.703125 2 11.09375 0 13.5 0 
C 16.40625 0 18.40625 2.390625 18.40625 4.796875 
z
" id="CMMI12-58"/>
      </defs>
      <use transform="scale(0.996264)" xlink:href="#CMMI12-110"/>
      <use transform="translate(58.230047 -14.943915)scale(0.697382)" xlink:href="#CMMI12-114"/>
      <use transform="translate(90.899316 -14.943915)scale(0.697382)" xlink:href="#CMMI12-101"/>
      <use transform="translate(122.547572 -14.943915)scale(0.697382)" xlink:href="#CMMI12-102"/>
      <use transform="translate(191.823737 0)scale(0.996264)" xlink:href="#CMR17-61"/>
      <use transform="translate(291.212534 0)scale(0.996264)" xlink:href="#CMR17-49"/>
      <use transform="translate(336.903011 0)scale(0.996264)" xlink:href="#CMMI12-58"/>
      <use transform="translate(364.000188 0)scale(0.996264)" xlink:href="#CMR17-48"/>
      <use transform="translate(409.690665 0)scale(0.996264)" xlink:href="#CMR17-48"/>
      <use transform="translate(455.381142 0)scale(0.996264)" xlink:href="#CMR17-48"/>
      <use transform="translate(501.071619 0)scale(0.996264)" xlink:href="#CMR17-49"/>
     </g>
    </g>
    <g id="line2d_35">
     <path d="M 514.649227 628.403834 
L 554.649227 628.403834 
" style="fill:none;stroke:#ffffbe;stroke-linecap:square;stroke-width:2;"/>
    </g>
    <g id="line2d_36"/>
    <g id="text_18">
     <!-- $n_{ref}=1.0100$ -->
     <g transform="translate(570.649227 635.403834)scale(0.2 -0.2)">
      <use transform="scale(0.996264)" xlink:href="#CMMI12-110"/>
      <use transform="translate(58.230047 -14.943915)scale(0.697382)" xlink:href="#CMMI12-114"/>
      <use transform="translate(90.899316 -14.943915)scale(0.697382)" xlink:href="#CMMI12-101"/>
      <use transform="translate(122.547572 -14.943915)scale(0.697382)" xlink:href="#CMMI12-102"/>
      <use transform="translate(191.823737 0)scale(0.996264)" xlink:href="#CMR17-61"/>
      <use transform="translate(291.212534 0)scale(0.996264)" xlink:href="#CMR17-49"/>
      <use transform="translate(336.903011 0)scale(0.996264)" xlink:href="#CMMI12-58"/>
      <use transform="translate(364.000188 0)scale(0.996264)" xlink:href="#CMR17-48"/>
      <use transform="translate(409.690665 0)scale(0.996264)" xlink:href="#CMR17-49"/>
      <use transform="translate(455.381142 0)scale(0.996264)" xlink:href="#CMR17-48"/>
      <use transform="translate(501.071619 0)scale(0.996264)" xlink:href="#CMR17-48"/>
     </g>
    </g>
    <g id="line2d_37">
     <path d="M 514.649227 659.301515 
L 554.649227 659.301515 
" style="fill:none;stroke:#86cfa5;stroke-linecap:square;stroke-width:2;"/>
    </g>
    <g id="line2d_38"/>
    <g id="text_19">
     <!-- $n_{ref}=1.1000$ -->
     <g transform="translate(570.649227 666.301515)scale(0.2 -0.2)">
      <use transform="scale(0.996264)" xlink:href="#CMMI12-110"/>
      <use transform="translate(58.230047 -14.943915)scale(0.697382)" xlink:href="#CMMI12-114"/>
      <use transform="translate(90.899316 -14.943915)scale(0.697382)" xlink:href="#CMMI12-101"/>
      <use transform="translate(122.547572 -14.943915)scale(0.697382)" xlink:href="#CMMI12-102"/>
      <use transform="translate(191.823737 0)scale(0.996264)" xlink:href="#CMR17-61"/>
      <use transform="translate(291.212534 0)scale(0.996264)" xlink:href="#CMR17-49"/>
      <use transform="translate(336.903011 0)scale(0.996264)" xlink:href="#CMMI12-58"/>
      <use transform="translate(364.000188 0)scale(0.996264)" xlink:href="#CMR17-49"/>
      <use transform="translate(409.690665 0)scale(0.996264)" xlink:href="#CMR17-48"/>
      <use transform="translate(455.381142 0)scale(0.996264)" xlink:href="#CMR17-48"/>
      <use transform="translate(501.071619 0)scale(0.996264)" xlink:href="#CMR17-48"/>
     </g>
    </g>
    <g id="line2d_39">
     <path d="M 514.649227 690.199195 
L 554.649227 690.199195 
" style="fill:none;stroke:#5e4fa2;stroke-linecap:square;stroke-width:2;"/>
    </g>
    <g id="line2d_40"/>
    <g id="text_20">
     <!-- $n_{ref}=1.2000$ -->
     <g transform="translate(570.649227 697.199195)scale(0.2 -0.2)">
      <use transform="scale(0.996264)" xlink:href="#CMMI12-110"/>
      <use transform="translate(58.230047 -14.943915)scale(0.697382)" xlink:href="#CMMI12-114"/>
      <use transform="translate(90.899316 -14.943915)scale(0.697382)" xlink:href="#CMMI12-101"/>
      <use transform="translate(122.547572 -14.943915)scale(0.697382)" xlink:href="#CMMI12-102"/>
      <use transform="translate(191.823737 0)scale(0.996264)" xlink:href="#CMR17-61"/>
      <use transform="translate(291.212534 0)scale(0.996264)" xlink:href="#CMR17-49"/>
      <use transform="translate(336.903011 0)scale(0.996264)" xlink:href="#CMMI12-58"/>
      <use transform="translate(364.000188 0)scale(0.996264)" xlink:href="#CMR17-50"/>
      <use transform="translate(409.690665 0)scale(0.996264)" xlink:href="#CMR17-48"/>
      <use transform="translate(455.381142 0)scale(0.996264)" xlink:href="#CMR17-48"/>
      <use transform="translate(501.071619 0)scale(0.996264)" xlink:href="#CMR17-48"/>
     </g>
    </g>
   </g>
  </g>
 </g>
 <defs>
  <clipPath id="p958f027ba4">
   <rect height="664.2" width="590.4" x="108" y="56.7"/>
  </clipPath>
 </defs>
</svg>
