<?xml version="1.0" encoding="utf-8" standalone="no"?>
<!DOCTYPE svg PUBLIC "-//W3C//DTD SVG 1.1//EN"
  "http://www.w3.org/Graphics/SVG/1.1/DTD/svg11.dtd">
<!-- Created with matplotlib (https://matplotlib.org/) -->
<svg height="810pt" version="1.1" viewBox="0 0 720 810" width="720pt" xmlns="http://www.w3.org/2000/svg" xmlns:xlink="http://www.w3.org/1999/xlink">
 <metadata>
  <rdf:RDF xmlns:cc="http://creativecommons.org/ns#" xmlns:dc="http://purl.org/dc/elements/1.1/" xmlns:rdf="http://www.w3.org/1999/02/22-rdf-syntax-ns#">
   <cc:Work>
    <dc:type rdf:resource="http://purl.org/dc/dcmitype/StillImage"/>
    <dc:date>2020-12-11T15:08:15.149073</dc:date>
    <dc:format>image/svg+xml</dc:format>
    <dc:creator>
     <cc:Agent>
      <dc:title>Matplotlib v3.3.1, https://matplotlib.org/</dc:title>
     </cc:Agent>
    </dc:creator>
   </cc:Work>
  </rdf:RDF>
 </metadata>
 <defs>
  <style type="text/css">*{stroke-linecap:butt;stroke-linejoin:round;}</style>
 </defs>
 <g id="figure_1">
  <g id="patch_1">
   <path d="M 0 810 
L 720 810 
L 720 0 
L 0 0 
z
" style="fill:#ffffff;"/>
  </g>
  <g id="axes_1">
   <g id="patch_2">
    <path d="M 108 720.9 
L 698.4 720.9 
L 698.4 56.7 
L 108 56.7 
z
" style="fill:#ffffff;"/>
   </g>
   <g id="matplotlib.axis_1">
    <g id="xtick_1">
     <g id="line2d_1">
      <path clip-path="url(#p9f338ec41a)" d="M 108 720.9 
L 108 56.7 
" style="fill:none;stroke:#e6e6e6;stroke-linecap:square;stroke-width:0.8;"/>
     </g>
     <g id="line2d_2">
      <defs>
       <path d="M 0 0 
L 0 -3.5 
" id="m2cb8d561bb" style="stroke:#000000;stroke-width:0.8;"/>
      </defs>
      <g>
       <use style="stroke:#000000;stroke-width:0.8;" x="108" xlink:href="#m2cb8d561bb" y="720.9"/>
      </g>
     </g>
     <g id="text_1">
      <!-- $\mathdefault{0}$ -->
      <g transform="translate(104.341881 734.777725)scale(0.15 -0.15)">
       <defs>
        <path d="M 42 31.640625 
C 42 37.75 41.90625 48.125 37.703125 56.109375 
C 34 63.109375 28.09375 65.59375 22.90625 65.59375 
C 18.09375 65.59375 12 63.40625 8.203125 56.203125 
C 4.203125 48.71875 3.796875 39.4375 3.796875 31.640625 
C 3.796875 25.953125 3.90625 17.28125 7 9.671875 
C 11.296875 -0.609375 19 -2 22.90625 -2 
C 27.5 -2 34.5 -0.109375 38.59375 9.375 
C 41.59375 16.28125 42 24.359375 42 31.640625 
z
M 22.90625 -0.40625 
C 16.5 -0.40625 12.703125 5.078125 11.296875 12.6875 
C 10.203125 18.5625 10.203125 27.15625 10.203125 32.75 
C 10.203125 40.4375 10.203125 46.828125 11.5 52.921875 
C 13.40625 61.390625 19 64 22.90625 64 
C 27 64 32.296875 61.296875 34.203125 53.125 
C 35.5 47.4375 35.59375 40.734375 35.59375 32.75 
C 35.59375 26.25 35.59375 18.265625 34.40625 12.375 
C 32.296875 1.484375 26.40625 -0.40625 22.90625 -0.40625 
z
" id="CMR17-48"/>
       </defs>
       <use transform="scale(0.996264)" xlink:href="#CMR17-48"/>
      </g>
     </g>
    </g>
    <g id="xtick_2">
     <g id="line2d_3">
      <path clip-path="url(#p9f338ec41a)" d="M 173.6 720.9 
L 173.6 56.7 
" style="fill:none;stroke:#e6e6e6;stroke-linecap:square;stroke-width:0.8;"/>
     </g>
     <g id="line2d_4">
      <g>
       <use style="stroke:#000000;stroke-width:0.8;" x="173.6" xlink:href="#m2cb8d561bb" y="720.9"/>
      </g>
     </g>
     <g id="text_2">
      <!-- $\mathdefault{20}$ -->
      <g transform="translate(166.283762 734.777725)scale(0.15 -0.15)">
       <defs>
        <path d="M 41.703125 15.453125 
L 39.90625 15.453125 
C 38.90625 8.375 38.09375 7.171875 37.703125 6.5625 
C 37.203125 5.765625 30 5.765625 28.59375 5.765625 
L 9.40625 5.765625 
C 13 9.671875 20 16.75 28.5 24.953125 
C 34.59375 30.734375 41.703125 37.53125 41.703125 47.421875 
C 41.703125 59.21875 32.296875 66 21.796875 66 
C 10.796875 66 4.09375 56.3125 4.09375 47.34375 
C 4.09375 43.4375 7 42.9375 8.203125 42.9375 
C 9.203125 42.9375 12.203125 43.546875 12.203125 47.03125 
C 12.203125 50.109375 9.59375 51 8.203125 51 
C 7.59375 51 7 50.90625 6.59375 50.703125 
C 8.5 59.21875 14.296875 63.40625 20.40625 63.40625 
C 29.09375 63.40625 34.796875 56.515625 34.796875 47.421875 
C 34.796875 38.734375 29.703125 31.25 24 24.75 
L 4.09375 2.28125 
L 4.09375 0 
L 39.296875 0 
z
" id="CMR17-50"/>
       </defs>
       <use transform="scale(0.996264)" xlink:href="#CMR17-50"/>
       <use transform="translate(45.690477 0)scale(0.996264)" xlink:href="#CMR17-48"/>
      </g>
     </g>
    </g>
    <g id="xtick_3">
     <g id="line2d_5">
      <path clip-path="url(#p9f338ec41a)" d="M 239.2 720.9 
L 239.2 56.7 
" style="fill:none;stroke:#e6e6e6;stroke-linecap:square;stroke-width:0.8;"/>
     </g>
     <g id="line2d_6">
      <g>
       <use style="stroke:#000000;stroke-width:0.8;" x="239.2" xlink:href="#m2cb8d561bb" y="720.9"/>
      </g>
     </g>
     <g id="text_3">
      <!-- $\mathdefault{40}$ -->
      <g transform="translate(231.883762 734.777725)scale(0.15 -0.15)">
       <defs>
        <path d="M 33.59375 64.40625 
C 33.59375 66.5 33.5 66.5 31.703125 66.5 
L 2 19.59375 
L 2 17 
L 27.796875 17 
L 27.796875 7.140625 
C 27.796875 3.5 27.59375 2.5 20.59375 2.5 
L 18.703125 2.5 
L 18.703125 0 
C 21.90625 0 27.296875 0 30.703125 0 
C 34.09375 0 39.5 0 42.703125 0 
L 42.703125 2.5 
L 40.796875 2.5 
C 33.796875 2.5 33.59375 3.5 33.59375 7.140625 
L 33.59375 17 
L 43.796875 17 
L 43.796875 19.59375 
L 33.59375 19.59375 
z
M 28.09375 57.859375 
L 28.09375 19.59375 
L 4 19.59375 
z
" id="CMR17-52"/>
       </defs>
       <use transform="scale(0.996264)" xlink:href="#CMR17-52"/>
       <use transform="translate(45.690477 0)scale(0.996264)" xlink:href="#CMR17-48"/>
      </g>
     </g>
    </g>
    <g id="xtick_4">
     <g id="line2d_7">
      <path clip-path="url(#p9f338ec41a)" d="M 304.8 720.9 
L 304.8 56.7 
" style="fill:none;stroke:#e6e6e6;stroke-linecap:square;stroke-width:0.8;"/>
     </g>
     <g id="line2d_8">
      <g>
       <use style="stroke:#000000;stroke-width:0.8;" x="304.8" xlink:href="#m2cb8d561bb" y="720.9"/>
      </g>
     </g>
     <g id="text_4">
      <!-- $\mathdefault{60}$ -->
      <g transform="translate(297.483762 734.777725)scale(0.15 -0.15)">
       <defs>
        <path d="M 10.59375 34 
C 10.59375 57.65625 21.796875 63 28.296875 63 
C 30.40625 63 35.5 62.640625 37.5 59 
C 35.90625 59 32.90625 59 32.90625 55.515625 
C 32.90625 52.828125 35.09375 51.921875 36.5 51.921875 
C 37.40625 51.921875 40.09375 52.3125 40.09375 55.625 
C 40.09375 61.78125 35.09375 65.296875 28.203125 65.296875 
C 16.296875 65.296875 3.796875 52.96875 3.796875 31 
C 3.796875 3.953125 15.09375 -2 23.09375 -2 
C 32.796875 -2 42 6.671875 42 20.046875 
C 42 32.515625 33.90625 41.59375 23.703125 41.59375 
C 17.59375 41.59375 13.09375 37.609375 10.59375 30.625 
z
M 23.09375 0.390625 
C 10.796875 0.390625 10.796875 18.75 10.796875 22.4375 
C 10.796875 29.625 14.203125 40 23.5 40 
C 25.203125 40 30.09375 40 33.40625 33.125 
C 35.203125 29.21875 35.203125 25.140625 35.203125 20.140625 
C 35.203125 14.75 35.203125 10.78125 33.09375 6.78125 
C 30.90625 2.671875 27.703125 0.390625 23.09375 0.390625 
z
" id="CMR17-54"/>
       </defs>
       <use transform="scale(0.996264)" xlink:href="#CMR17-54"/>
       <use transform="translate(45.690477 0)scale(0.996264)" xlink:href="#CMR17-48"/>
      </g>
     </g>
    </g>
    <g id="xtick_5">
     <g id="line2d_9">
      <path clip-path="url(#p9f338ec41a)" d="M 370.4 720.9 
L 370.4 56.7 
" style="fill:none;stroke:#e6e6e6;stroke-linecap:square;stroke-width:0.8;"/>
     </g>
     <g id="line2d_10">
      <g>
       <use style="stroke:#000000;stroke-width:0.8;" x="370.4" xlink:href="#m2cb8d561bb" y="720.9"/>
      </g>
     </g>
     <g id="text_5">
      <!-- $\mathdefault{80}$ -->
      <g transform="translate(363.083762 734.777725)scale(0.15 -0.15)">
       <defs>
        <path d="M 27.203125 35.375 
C 33.5 38.546875 39.90625 43.328125 39.90625 50.984375 
C 39.90625 60.015625 31.09375 65.296875 23 65.296875 
C 13.90625 65.296875 5.90625 58.734375 5.90625 49.6875 
C 5.90625 47.203125 6.5 42.921875 10.40625 39.140625 
C 11.40625 38.15625 15.59375 35.171875 18.296875 33.28125 
C 13.796875 30.984375 3.296875 25.53125 3.296875 14.59375 
C 3.296875 4.359375 13.09375 -2 22.796875 -2 
C 33.5 -2 42.5 5.65625 42.5 15.78125 
C 42.5 24.84375 36.40625 29.015625 32.40625 31.703125 
z
M 14.09375 44.09375 
C 13.296875 44.59375 9.296875 47.671875 9.296875 52.359375 
C 9.296875 58.421875 15.59375 63 22.796875 63 
C 30.703125 63 36.5 57.4375 36.5 50.96875 
C 36.5 41.703125 26.09375 36.421875 25.59375 36.421875 
C 25.5 36.421875 25.40625 36.421875 24.59375 37.03125 
z
M 32.5 23.734375 
C 34 22.640625 38.796875 19.375 38.796875 13.296875 
C 38.796875 5.953125 31.40625 0.390625 23 0.390625 
C 13.90625 0.390625 7 6.84375 7 14.6875 
C 7 22.546875 13.09375 29.09375 20 32.1875 
z
" id="CMR17-56"/>
       </defs>
       <use transform="scale(0.996264)" xlink:href="#CMR17-56"/>
       <use transform="translate(45.690477 0)scale(0.996264)" xlink:href="#CMR17-48"/>
      </g>
     </g>
    </g>
    <g id="xtick_6">
     <g id="line2d_11">
      <path clip-path="url(#p9f338ec41a)" d="M 436 720.9 
L 436 56.7 
" style="fill:none;stroke:#e6e6e6;stroke-linecap:square;stroke-width:0.8;"/>
     </g>
     <g id="line2d_12">
      <g>
       <use style="stroke:#000000;stroke-width:0.8;" x="436" xlink:href="#m2cb8d561bb" y="720.9"/>
      </g>
     </g>
     <g id="text_6">
      <!-- $\mathdefault{100}$ -->
      <g transform="translate(425.025643 734.777725)scale(0.15 -0.15)">
       <defs>
        <path d="M 26.59375 63.40625 
C 26.59375 65.5 26.5 65.5 25.09375 65.5 
C 21.203125 61.1875 15.296875 59.796875 9.703125 59.796875 
C 9.40625 59.796875 8.90625 59.796875 8.796875 59.5 
C 8.703125 59.296875 8.703125 59.09375 8.703125 57 
C 11.796875 57 17 57.59375 21 59.984375 
L 21 7.203125 
C 21 3.6875 20.796875 2.5 12.203125 2.5 
L 9.203125 2.5 
L 9.203125 0 
C 14 0 19 0 23.796875 0 
C 28.59375 0 33.59375 0 38.40625 0 
L 38.40625 2.5 
L 35.40625 2.5 
C 26.796875 2.5 26.59375 3.59375 26.59375 7.15625 
z
" id="CMR17-49"/>
       </defs>
       <use transform="scale(0.996264)" xlink:href="#CMR17-49"/>
       <use transform="translate(45.690477 0)scale(0.996264)" xlink:href="#CMR17-48"/>
       <use transform="translate(91.380954 0)scale(0.996264)" xlink:href="#CMR17-48"/>
      </g>
     </g>
    </g>
    <g id="xtick_7">
     <g id="line2d_13">
      <path clip-path="url(#p9f338ec41a)" d="M 501.6 720.9 
L 501.6 56.7 
" style="fill:none;stroke:#e6e6e6;stroke-linecap:square;stroke-width:0.8;"/>
     </g>
     <g id="line2d_14">
      <g>
       <use style="stroke:#000000;stroke-width:0.8;" x="501.6" xlink:href="#m2cb8d561bb" y="720.9"/>
      </g>
     </g>
     <g id="text_7">
      <!-- $\mathdefault{120}$ -->
      <g transform="translate(490.625643 734.777725)scale(0.15 -0.15)">
       <use transform="scale(0.996264)" xlink:href="#CMR17-49"/>
       <use transform="translate(45.690477 0)scale(0.996264)" xlink:href="#CMR17-50"/>
       <use transform="translate(91.380954 0)scale(0.996264)" xlink:href="#CMR17-48"/>
      </g>
     </g>
    </g>
    <g id="xtick_8">
     <g id="line2d_15">
      <path clip-path="url(#p9f338ec41a)" d="M 567.2 720.9 
L 567.2 56.7 
" style="fill:none;stroke:#e6e6e6;stroke-linecap:square;stroke-width:0.8;"/>
     </g>
     <g id="line2d_16">
      <g>
       <use style="stroke:#000000;stroke-width:0.8;" x="567.2" xlink:href="#m2cb8d561bb" y="720.9"/>
      </g>
     </g>
     <g id="text_8">
      <!-- $\mathdefault{140}$ -->
      <g transform="translate(556.225643 734.777725)scale(0.15 -0.15)">
       <use transform="scale(0.996264)" xlink:href="#CMR17-49"/>
       <use transform="translate(45.690477 0)scale(0.996264)" xlink:href="#CMR17-52"/>
       <use transform="translate(91.380954 0)scale(0.996264)" xlink:href="#CMR17-48"/>
      </g>
     </g>
    </g>
    <g id="xtick_9">
     <g id="line2d_17">
      <path clip-path="url(#p9f338ec41a)" d="M 632.8 720.9 
L 632.8 56.7 
" style="fill:none;stroke:#e6e6e6;stroke-linecap:square;stroke-width:0.8;"/>
     </g>
     <g id="line2d_18">
      <g>
       <use style="stroke:#000000;stroke-width:0.8;" x="632.8" xlink:href="#m2cb8d561bb" y="720.9"/>
      </g>
     </g>
     <g id="text_9">
      <!-- $\mathdefault{160}$ -->
      <g transform="translate(621.825643 734.777725)scale(0.15 -0.15)">
       <use transform="scale(0.996264)" xlink:href="#CMR17-49"/>
       <use transform="translate(45.690477 0)scale(0.996264)" xlink:href="#CMR17-54"/>
       <use transform="translate(91.380954 0)scale(0.996264)" xlink:href="#CMR17-48"/>
      </g>
     </g>
    </g>
    <g id="xtick_10">
     <g id="line2d_19">
      <path clip-path="url(#p9f338ec41a)" d="M 698.4 720.9 
L 698.4 56.7 
" style="fill:none;stroke:#e6e6e6;stroke-linecap:square;stroke-width:0.8;"/>
     </g>
     <g id="line2d_20">
      <g>
       <use style="stroke:#000000;stroke-width:0.8;" x="698.4" xlink:href="#m2cb8d561bb" y="720.9"/>
      </g>
     </g>
     <g id="text_10">
      <!-- $\mathdefault{180}$ -->
      <g transform="translate(687.425643 734.777725)scale(0.15 -0.15)">
       <use transform="scale(0.996264)" xlink:href="#CMR17-49"/>
       <use transform="translate(45.690477 0)scale(0.996264)" xlink:href="#CMR17-56"/>
       <use transform="translate(91.380954 0)scale(0.996264)" xlink:href="#CMR17-48"/>
      </g>
     </g>
    </g>
    <g id="text_11">
     <!-- $\theta(^{\circ})$ -->
     <g transform="translate(383.750923 760.340997)scale(0.25 -0.25)">
      <defs>
       <path d="M 44.296875 50 
C 44.296875 60.15625 41.09375 70 32.90625 70 
C 18.90625 70 4 40.859375 4 19 
C 4 14.421875 5 -1 15.5 -1 
C 29.09375 -1 44.296875 27.4375 44.296875 50 
z
M 14 36 
C 15.5 41.859375 17.59375 50.21875 21.59375 57.265625 
C 24.90625 63.234375 28.40625 68 32.796875 68 
C 36.09375 68 38.296875 65.21875 38.296875 55.6875 
C 38.296875 52.09375 38 47.140625 35.09375 36 
z
M 34.40625 33.015625 
C 31.90625 23.28125 29.796875 17 26.203125 10.734375 
C 23.296875 5.671875 19.796875 1 15.59375 1 
C 12.5 1 10 3.390625 10 13.21875 
C 10 19.6875 11.59375 26.453125 13.203125 33.015625 
z
" id="CMMI12-18"/>
       <path d="M 30.59375 -24.390625 
C 30.59375 -24.296875 30.59375 -24.09375 30.296875 -23.796875 
C 25.703125 -19.125 13.40625 -6.359375 13.40625 24.703125 
C 13.40625 55.765625 25.5 68.421875 30.40625 73.390625 
C 30.40625 73.5 30.59375 73.703125 30.59375 74 
C 30.59375 74.296875 30.296875 74.5 29.90625 74.5 
C 28.796875 74.5 20.296875 67.125 15.40625 56.15625 
C 10.40625 45.109375 9 34.359375 9 24.8125 
C 9 17.625 9.703125 5.484375 15.703125 -7.359375 
C 20.5 -17.734375 28.703125 -25 29.90625 -25 
C 30.40625 -25 30.59375 -24.796875 30.59375 -24.390625 
z
" id="CMR17-40"/>
       <path d="M 44.40625 25 
C 44.40625 35.578125 35.5 44.1875 25 44.1875 
C 14.203125 44.1875 5.5 35.375 5.5 25 
C 5.5 14.53125 14.203125 5.8125 25 5.8125 
C 35.5 5.8125 44.40625 14.421875 44.40625 25 
z
M 25 9.8125 
C 16.296875 9.8125 9.5 16.71875 9.5 25 
C 9.5 33.28125 16.40625 40.1875 25 40.1875 
C 33.296875 40.1875 40.40625 33.46875 40.40625 25 
C 40.40625 16.53125 33.296875 9.8125 25 9.8125 
z
" id="CMSY10-14"/>
       <path d="M 26.296875 24.703125 
C 26.296875 31.875 25.59375 44.015625 19.59375 56.859375 
C 14.796875 67.234375 6.59375 74.5 5.40625 74.5 
C 5.09375 74.5 4.703125 74.390625 4.703125 73.890625 
C 4.703125 73.703125 4.796875 73.59375 4.90625 73.390625 
C 9.703125 68.40625 21.90625 55.75 21.90625 24.75 
C 21.90625 -6.359375 9.796875 -19.015625 4.90625 -24.015625 
C 4.796875 -24.203125 4.703125 -24.3125 4.703125 -24.5 
C 4.703125 -25 5.09375 -25 5.40625 -25 
C 6.5 -25 15 -17.625 19.90625 -6.65625 
C 24.90625 4.390625 26.296875 15.140625 26.296875 24.703125 
z
" id="CMR17-41"/>
      </defs>
      <use transform="scale(0.996264)" xlink:href="#CMMI12-18"/>
      <use transform="translate(48.169508 0)scale(0.996264)" xlink:href="#CMR17-40"/>
      <use transform="translate(83.450276 36.153639)scale(0.697382)" xlink:href="#CMSY10-14"/>
      <use transform="translate(118.817618 0)scale(0.996264)" xlink:href="#CMR17-41"/>
     </g>
    </g>
   </g>
   <g id="matplotlib.axis_2">
    <g id="ytick_1">
     <g id="line2d_21">
      <path clip-path="url(#p9f338ec41a)" d="M 108 720.9 
L 698.4 720.9 
" style="fill:none;stroke:#e6e6e6;stroke-linecap:square;stroke-width:0.8;"/>
     </g>
     <g id="line2d_22">
      <defs>
       <path d="M 0 0 
L 3.5 0 
" id="m1ae4b11c85" style="stroke:#000000;stroke-width:0.8;"/>
      </defs>
      <g>
       <use style="stroke:#000000;stroke-width:0.8;" x="108" xlink:href="#m1ae4b11c85" y="720.9"/>
      </g>
     </g>
     <g id="text_12">
      <!-- $\mathdefault{0}$ -->
      <g transform="translate(97.183762 726.088862)scale(0.15 -0.15)">
       <use transform="scale(0.996264)" xlink:href="#CMR17-48"/>
      </g>
     </g>
    </g>
    <g id="ytick_2">
     <g id="line2d_23">
      <path clip-path="url(#p9f338ec41a)" d="M 108 639.815552 
L 698.4 639.815552 
" style="fill:none;stroke:#e6e6e6;stroke-linecap:square;stroke-width:0.8;"/>
     </g>
     <g id="line2d_24">
      <g>
       <use style="stroke:#000000;stroke-width:0.8;" x="108" xlink:href="#m1ae4b11c85" y="639.815552"/>
      </g>
     </g>
     <g id="text_13">
      <!-- $\mathdefault{2}$ -->
      <g transform="translate(97.183762 645.004415)scale(0.15 -0.15)">
       <use transform="scale(0.996264)" xlink:href="#CMR17-50"/>
      </g>
     </g>
    </g>
    <g id="ytick_3">
     <g id="line2d_25">
      <path clip-path="url(#p9f338ec41a)" d="M 108 558.731104 
L 698.4 558.731104 
" style="fill:none;stroke:#e6e6e6;stroke-linecap:square;stroke-width:0.8;"/>
     </g>
     <g id="line2d_26">
      <g>
       <use style="stroke:#000000;stroke-width:0.8;" x="108" xlink:href="#m1ae4b11c85" y="558.731104"/>
      </g>
     </g>
     <g id="text_14">
      <!-- $\mathdefault{4}$ -->
      <g transform="translate(97.183762 563.919967)scale(0.15 -0.15)">
       <use transform="scale(0.996264)" xlink:href="#CMR17-52"/>
      </g>
     </g>
    </g>
    <g id="ytick_4">
     <g id="line2d_27">
      <path clip-path="url(#p9f338ec41a)" d="M 108 477.646657 
L 698.4 477.646657 
" style="fill:none;stroke:#e6e6e6;stroke-linecap:square;stroke-width:0.8;"/>
     </g>
     <g id="line2d_28">
      <g>
       <use style="stroke:#000000;stroke-width:0.8;" x="108" xlink:href="#m1ae4b11c85" y="477.646657"/>
      </g>
     </g>
     <g id="text_15">
      <!-- $\mathdefault{6}$ -->
      <g transform="translate(97.183762 482.835519)scale(0.15 -0.15)">
       <use transform="scale(0.996264)" xlink:href="#CMR17-54"/>
      </g>
     </g>
    </g>
    <g id="ytick_5">
     <g id="line2d_29">
      <path clip-path="url(#p9f338ec41a)" d="M 108 396.562209 
L 698.4 396.562209 
" style="fill:none;stroke:#e6e6e6;stroke-linecap:square;stroke-width:0.8;"/>
     </g>
     <g id="line2d_30">
      <g>
       <use style="stroke:#000000;stroke-width:0.8;" x="108" xlink:href="#m1ae4b11c85" y="396.562209"/>
      </g>
     </g>
     <g id="text_16">
      <!-- $\mathdefault{8}$ -->
      <g transform="translate(97.183762 401.751071)scale(0.15 -0.15)">
       <use transform="scale(0.996264)" xlink:href="#CMR17-56"/>
      </g>
     </g>
    </g>
    <g id="ytick_6">
     <g id="line2d_31">
      <path clip-path="url(#p9f338ec41a)" d="M 108 315.477761 
L 698.4 315.477761 
" style="fill:none;stroke:#e6e6e6;stroke-linecap:square;stroke-width:0.8;"/>
     </g>
     <g id="line2d_32">
      <g>
       <use style="stroke:#000000;stroke-width:0.8;" x="108" xlink:href="#m1ae4b11c85" y="315.477761"/>
      </g>
     </g>
     <g id="text_17">
      <!-- $\mathdefault{10}$ -->
      <g transform="translate(89.867524 320.666623)scale(0.15 -0.15)">
       <use transform="scale(0.996264)" xlink:href="#CMR17-49"/>
       <use transform="translate(45.690477 0)scale(0.996264)" xlink:href="#CMR17-48"/>
      </g>
     </g>
    </g>
    <g id="ytick_7">
     <g id="line2d_33">
      <path clip-path="url(#p9f338ec41a)" d="M 108 234.393313 
L 698.4 234.393313 
" style="fill:none;stroke:#e6e6e6;stroke-linecap:square;stroke-width:0.8;"/>
     </g>
     <g id="line2d_34">
      <g>
       <use style="stroke:#000000;stroke-width:0.8;" x="108" xlink:href="#m1ae4b11c85" y="234.393313"/>
      </g>
     </g>
     <g id="text_18">
      <!-- $\mathdefault{12}$ -->
      <g transform="translate(89.867524 239.582176)scale(0.15 -0.15)">
       <use transform="scale(0.996264)" xlink:href="#CMR17-49"/>
       <use transform="translate(45.690477 0)scale(0.996264)" xlink:href="#CMR17-50"/>
      </g>
     </g>
    </g>
    <g id="ytick_8">
     <g id="line2d_35">
      <path clip-path="url(#p9f338ec41a)" d="M 108 153.308865 
L 698.4 153.308865 
" style="fill:none;stroke:#e6e6e6;stroke-linecap:square;stroke-width:0.8;"/>
     </g>
     <g id="line2d_36">
      <g>
       <use style="stroke:#000000;stroke-width:0.8;" x="108" xlink:href="#m1ae4b11c85" y="153.308865"/>
      </g>
     </g>
     <g id="text_19">
      <!-- $\mathdefault{14}$ -->
      <g transform="translate(89.867524 158.497728)scale(0.15 -0.15)">
       <use transform="scale(0.996264)" xlink:href="#CMR17-49"/>
       <use transform="translate(45.690477 0)scale(0.996264)" xlink:href="#CMR17-52"/>
      </g>
     </g>
    </g>
    <g id="ytick_9">
     <g id="line2d_37">
      <path clip-path="url(#p9f338ec41a)" d="M 108 72.224418 
L 698.4 72.224418 
" style="fill:none;stroke:#e6e6e6;stroke-linecap:square;stroke-width:0.8;"/>
     </g>
     <g id="line2d_38">
      <g>
       <use style="stroke:#000000;stroke-width:0.8;" x="108" xlink:href="#m1ae4b11c85" y="72.224418"/>
      </g>
     </g>
     <g id="text_20">
      <!-- $\mathdefault{16}$ -->
      <g transform="translate(89.867524 77.41328)scale(0.15 -0.15)">
       <use transform="scale(0.996264)" xlink:href="#CMR17-49"/>
       <use transform="translate(45.690477 0)scale(0.996264)" xlink:href="#CMR17-54"/>
      </g>
     </g>
    </g>
    <g id="text_21">
     <!-- $f(\theta)$ -->
     <g transform="translate(79.661716 410.9814)rotate(-90)scale(0.25 -0.25)">
      <defs>
       <path d="M 44.59375 40.09375 
C 46.59375 40.09375 47.40625 40.09375 47.40625 42 
C 47.40625 43 46.59375 43 44.796875 43 
L 36.703125 43 
C 38.59375 53.578125 40 60.890625 40.796875 64.171875 
C 41.40625 66.640625 43.5 69 46.09375 69 
C 48.203125 69 50.296875 68.09375 51.296875 67.15625 
C 47.40625 66.75 46.203125 63.78125 46.203125 62.015625 
C 46.203125 59.953125 47.703125 58.734375 49.59375 58.734375 
C 51.59375 58.734375 54.59375 60.46875 54.59375 64.359375 
C 54.59375 68.640625 50.40625 71 46 71 
C 41.703125 71 37.5 67.71875 35.5 63.71875 
C 33.703125 60.125 32.703125 56.421875 30.40625 43 
L 23.703125 43 
C 21.796875 43 20.796875 43 20.796875 41.203125 
C 20.796875 40.09375 21.40625 40.09375 23.40625 40.09375 
L 29.796875 40.09375 
C 28 30.875 23.90625 8.46875 21.59375 -2.140625 
C 19.90625 -10.765625 18.40625 -18 13.40625 -18 
C 13.09375 -18 10.203125 -18 8.40625 -16.109375 
C 13.5 -15.703125 13.5 -11.34375 13.5 -11.25 
C 13.5 -9.265625 12 -8.078125 10.09375 -8.078125 
C 8.09375 -8.078125 5.09375 -9.765625 5.09375 -13.546875 
C 5.09375 -17.8125 9.5 -20 13.40625 -20 
C 23.59375 -20 27.796875 -1.84375 28.90625 3.109375 
C 30.703125 10.75 35.59375 37.125 36.09375 40.09375 
z
" id="CMMI12-102"/>
      </defs>
      <use transform="scale(0.996264)" xlink:href="#CMMI12-102"/>
      <use transform="translate(58.720305 0)scale(0.996264)" xlink:href="#CMR17-40"/>
      <use transform="translate(94.001073 0)scale(0.996264)" xlink:href="#CMMI12-18"/>
      <use transform="translate(142.17058 0)scale(0.996264)" xlink:href="#CMR17-41"/>
     </g>
    </g>
   </g>
   <g id="line2d_39">
    <path clip-path="url(#p9f338ec41a)" d="M 108 131.525726 
L 109.64 131.689661 
L 111.28 132.194944 
L 112.92 133.081896 
L 114.56 134.417299 
L 116.2 136.293727 
L 117.84 138.828527 
L 119.48 142.162368 
L 121.12 146.457247 
L 122.76 151.893869 
L 124.4 158.668246 
L 126.04 166.987414 
L 127.68 177.064157 
L 129.32 189.110634 
L 130.96 203.330862 
L 132.6 219.912041 
L 134.24 239.014789 
L 135.88 260.762418 
L 137.52 285.229507 
L 139.16 312.430118 
L 140.8 342.306158 
L 142.44 374.716492 
L 145.72 446.106299 
L 150.64 563.078031 
L 153.92 640.311741 
L 155.56 676.36687 
L 157.2 709.595897 
L 158.84 702.615211 
L 160.48 677.41084 
L 162.12 657.220717 
L 163.76 642.514886 
L 165.4 633.561934 
L 167.04 630.394116 
L 168.68 632.783251 
L 170.32 640.231084 
L 171.96 651.977306 
L 173.6 667.027403 
L 178.52 719.693216 
L 181.8 693.55842 
L 183.44 684.467761 
L 185.08 679.641259 
L 186.72 679.217186 
L 188.36 682.929075 
L 190 690.125135 
L 191.64 699.828575 
L 193.28 710.835953 
L 194.92 719.954491 
L 196.56 710.197396 
L 198.2 702.754422 
L 199.84 698.366639 
L 201.48 697.363363 
L 203.12 699.622368 
L 204.76 704.590399 
L 206.4 711.364705 
L 208.04 718.826964 
L 209.68 715.988098 
L 211.32 710.514268 
L 212.96 707.294077 
L 214.6 706.665204 
L 216.24 708.514403 
L 217.88 712.309613 
L 219.52 717.206998 
L 221.16 719.584754 
L 222.8 715.412927 
L 224.44 712.799238 
L 226.08 712.10543 
L 227.72 713.275041 
L 229.36 715.865183 
L 231 719.162609 
L 232.64 719.441367 
L 234.28 717.05764 
L 235.92 715.934536 
L 237.56 716.163109 
L 239.2 717.477775 
L 240.84 719.353219 
L 242.48 720.627982 
L 244.12 719.384024 
L 245.76 718.975526 
L 247.4 719.330575 
L 249.04 720.081242 
L 250.68 720.706171 
L 252.32 720.827173 
L 253.96 720.102916 
L 257.24 717.750064 
L 258.88 717.660704 
L 260.52 719.497483 
L 262.16 717.985857 
L 263.8 711.261299 
L 267.08 694.543996 
L 268.72 687.854753 
L 270.36 684.572825 
L 272 685.755146 
L 273.64 691.462497 
L 275.28 700.65393 
L 276.92 711.399972 
L 278.56 720.425088 
L 280.2 713.30629 
L 281.84 710.299026 
L 283.48 711.478128 
L 285.12 715.747396 
L 286.76 720.582857 
L 288.4 715.967451 
L 290.04 713.755143 
L 291.68 714.503918 
L 293.32 717.651817 
L 294.96 720.012085 
L 296.6 716.577613 
L 298.24 715.15794 
L 299.88 716.196969 
L 301.52 719.127919 
L 303.16 719.164089 
L 304.8 716.582529 
L 306.44 715.991057 
L 308.08 717.574989 
L 309.72 720.57626 
L 311.36 718.168663 
L 313 716.429171 
L 314.64 716.775696 
L 316.28 719.034105 
L 317.92 719.643388 
L 319.56 717.113231 
L 321.2 716.379988 
L 322.84 717.832745 
L 324.48 720.837525 
L 326.12 717.806488 
L 327.76 716.044905 
L 329.4 716.64788 
L 331.04 719.51451 
L 332.68 718.36384 
L 334.32 715.244444 
L 335.96 714.661921 
L 337.6 717.472654 
L 339.24 718.556165 
L 340.88 711.429433 
L 342.52 705.12397 
L 344.16 701.5592 
L 345.8 701.687976 
L 347.44 705.196702 
L 350.72 716.434 
L 352.36 720.791264 
L 354 718.782482 
L 355.64 718.548756 
L 357.28 719.519055 
L 358.92 720.732178 
L 360.56 720.300244 
L 362.2 720.177678 
L 365.48 720.836072 
L 370.4 720.752485 
L 372.04 720.830365 
L 373.68 720.707613 
L 375.32 720.428968 
L 376.96 720.383613 
L 378.6 720.704472 
L 380.24 720.526367 
L 381.88 720.045649 
L 383.52 720.012932 
L 385.16 720.562729 
L 386.8 720.335276 
L 388.44 719.597986 
L 390.08 719.547821 
L 391.72 720.374695 
L 393.36 720.056124 
L 395 718.905911 
L 396.64 718.781917 
L 398.28 720.049144 
L 399.92 719.502786 
L 401.56 717.424109 
L 403.2 716.960009 
L 404.84 719.16959 
L 406.48 717.673887 
L 409.76 704.874003 
L 411.4 701.126269 
L 413.04 701.207955 
L 414.68 705.14933 
L 417.96 718.454395 
L 419.6 718.250132 
L 421.24 716.139179 
L 422.88 716.97734 
L 424.52 719.607019 
L 426.16 719.432021 
L 427.8 717.928176 
L 429.44 718.227907 
L 431.08 719.910127 
L 432.72 719.878866 
L 434.36 718.630472 
L 436 718.725813 
L 437.64 719.993977 
L 439.28 720.132934 
L 440.92 718.977542 
L 442.56 718.929919 
L 444.2 719.962476 
L 445.84 720.322494 
L 447.48 719.155723 
L 449.12 718.959413 
L 450.76 719.829043 
L 452.4 720.505547 
L 454.04 719.229083 
L 455.68 718.833175 
L 457.32 719.558616 
L 458.96 720.735546 
L 460.6 719.213228 
L 462.24 718.490244 
L 463.88 719.027969 
L 465.52 720.682963 
L 467.16 719.070428 
L 468.8 717.652481 
L 470.44 717.751032 
L 472.08 719.738645 
L 473.72 718.50555 
L 475.36 714.299394 
L 477 710.63164 
L 478.64 708.541349 
L 480.28 708.567378 
L 481.92 710.594501 
L 483.56 713.938101 
L 485.2 717.61607 
L 486.84 720.692203 
L 488.48 719.238178 
L 490.12 718.713013 
L 491.76 719.244761 
L 493.4 720.296855 
L 495.04 720.48834 
L 496.68 719.898928 
L 498.32 719.860647 
L 499.96 720.25618 
L 501.6 720.827464 
L 503.24 720.493142 
L 504.88 720.27728 
L 506.52 720.354841 
L 509.8 720.841074 
L 511.44 720.606379 
L 513.08 720.535824 
L 518 720.840003 
L 521.28 720.731513 
L 527.84 720.854936 
L 537.68 720.622841 
L 539.32 720.583784 
L 540.96 720.673383 
L 542.6 720.896661 
L 545.88 720.243775 
L 547.52 720.047295 
L 549.16 720.109503 
L 550.8 720.521569 
L 552.44 720.493072 
L 554.08 719.39322 
L 557.36 716.84569 
L 559 715.79064 
L 560.64 715.127928 
L 562.28 714.974479 
L 563.92 715.362928 
L 565.56 716.236455 
L 567.2 717.461403 
L 570.48 720.215201 
L 572.12 720.434681 
L 573.76 719.626748 
L 575.4 719.226074 
L 577.04 719.227284 
L 578.68 719.562827 
L 581.96 720.769332 
L 583.6 720.421233 
L 585.24 719.955898 
L 586.88 719.701987 
L 588.52 719.682985 
L 590.16 719.880434 
L 593.44 720.695321 
L 595.08 720.640588 
L 596.72 720.239428 
L 598.36 719.958478 
L 600 719.831773 
L 601.64 719.867846 
L 603.28 720.051439 
L 606.56 720.712065 
L 608.2 720.708477 
L 611.48 720.089289 
L 613.12 719.918532 
L 614.76 719.864037 
L 618.04 720.091535 
L 622.96 720.839252 
L 626.24 720.249684 
L 629.52 719.884238 
L 632.8 719.832671 
L 636.08 720.078558 
L 641 720.792083 
L 642.64 720.74113 
L 647.56 720.049431 
L 650.84 719.767021 
L 654.12 719.660518 
L 659.04 719.798374 
L 665.6 720.33502 
L 670.52 720.818769 
L 672.16 720.82635 
L 680.36 720.193991 
L 688.56 719.839339 
L 696.76 719.712482 
L 698.4 719.709057 
L 698.4 719.709057 
" style="fill:none;stroke:#0000ff;stroke-dasharray:7.4,3.2;stroke-dashoffset:0;stroke-width:2;"/>
   </g>
   <g id="line2d_40">
    <path clip-path="url(#p9f338ec41a)" d="M 108 56.7 
L 109.64 56.912978 
L 111.28 57.566771 
L 112.92 58.705806 
L 114.56 60.403624 
L 116.2 62.762076 
L 117.84 65.910107 
L 119.48 70.002038 
L 121.12 75.215246 
L 122.76 81.74711 
L 124.4 89.811102 
L 126.04 99.631903 
L 127.68 111.439401 
L 129.32 125.461516 
L 130.96 141.915762 
L 132.6 160.999574 
L 134.24 182.879469 
L 135.88 207.679197 
L 137.52 235.467175 
L 139.16 266.243597 
L 140.8 299.927731 
L 144.08 375.222118 
L 147.36 458.681733 
L 153.92 630.154337 
L 155.56 668.307662 
L 157.2 698.289595 
L 158.84 693.878452 
L 160.48 670.401242 
L 162.12 649.688479 
L 163.76 634.418338 
L 165.4 625.24429 
L 167.04 622.287422 
L 168.68 625.310645 
L 170.32 633.754747 
L 171.96 646.760268 
L 173.6 663.195014 
L 176.88 700.349019 
L 178.52 712.659497 
L 180.16 702.164776 
L 181.8 689.410756 
L 183.44 680.235509 
L 185.08 675.568183 
L 186.72 675.602292 
L 188.36 680.03035 
L 190 688.103548 
L 191.64 698.685111 
L 193.28 710.161826 
L 194.92 715.901016 
L 196.56 707.592284 
L 198.2 700.11656 
L 199.84 695.81683 
L 201.48 695.141289 
L 203.12 697.937473 
L 204.76 703.556184 
L 208.04 717.770516 
L 209.68 714.238608 
L 211.32 708.764048 
L 212.96 705.595548 
L 214.6 705.216167 
L 216.24 707.48103 
L 217.88 711.757563 
L 219.52 716.941837 
L 221.16 718.230001 
L 222.8 714.234029 
L 224.44 711.617065 
L 226.08 711.071672 
L 227.72 712.529931 
L 229.36 715.4624 
L 231 718.875502 
L 232.64 718.616048 
L 234.28 716.252715 
L 235.92 715.153494 
L 237.56 715.522453 
L 239.2 717.052726 
L 240.84 719.08748 
L 242.48 719.940319 
L 244.12 718.877303 
L 245.76 718.485728 
L 247.4 718.920813 
L 249.04 719.777064 
L 250.68 720.3547 
L 252.32 720.368059 
L 253.96 720.077349 
L 257.24 717.965724 
L 258.88 717.941362 
L 260.52 719.899017 
L 262.16 717.370732 
L 263.8 710.376791 
L 267.08 693.172912 
L 268.72 686.424829 
L 270.36 683.281049 
L 272 684.793691 
L 273.64 690.957695 
L 275.28 700.612686 
L 276.92 711.646535 
L 278.56 718.763734 
L 280.2 712.555123 
L 281.84 709.890319 
L 283.48 711.470628 
L 285.12 716.059492 
L 286.76 719.4657 
L 288.4 715.236387 
L 290.04 713.298263 
L 291.68 714.429868 
L 293.32 717.911524 
L 294.96 719.240822 
L 296.6 715.91923 
L 298.24 714.738202 
L 299.88 716.14169 
L 301.52 719.363424 
L 303.16 718.519093 
L 304.8 715.991971 
L 306.44 715.651097 
L 308.08 717.597297 
L 309.72 720.39365 
L 311.36 717.551755 
L 313 715.90582 
L 314.64 716.551971 
L 316.28 719.168082 
L 317.92 719.072883 
L 319.56 716.487772 
L 321.2 715.943045 
L 322.84 717.773384 
L 324.48 720.32701 
L 326.12 717.111618 
L 327.76 715.393295 
L 329.4 716.339622 
L 331.04 719.6588 
L 332.68 717.579577 
L 334.32 714.278932 
L 335.96 713.944898 
L 337.6 717.430038 
L 339.24 717.447399 
L 340.88 709.318575 
L 342.52 702.221859 
L 344.16 698.319791 
L 345.8 698.630173 
L 347.44 702.74532 
L 350.72 715.610181 
L 352.36 720.251432 
L 354 718.528691 
L 355.64 718.223558 
L 357.28 719.268377 
L 358.92 720.546991 
L 360.56 720.234648 
L 362.2 720.065206 
L 365.48 720.72375 
L 367.12 720.83027 
L 373.68 720.661495 
L 375.32 720.398148 
L 376.96 720.390385 
L 378.6 720.76031 
L 380.24 720.435676 
L 381.88 719.962629 
L 383.52 719.988178 
L 385.16 720.621833 
L 386.8 720.196532 
L 388.44 719.454559 
L 390.08 719.483462 
L 391.72 720.438478 
L 393.36 719.849741 
L 395 718.674127 
L 396.64 718.66207 
L 398.28 720.139883 
L 399.92 719.139101 
L 401.56 716.965836 
L 403.2 716.661756 
L 404.84 719.302566 
L 406.48 716.794751 
L 408.12 709.511651 
L 409.76 702.772808 
L 411.4 698.863183 
L 413.04 699.194247 
L 414.68 703.704029 
L 417.96 718.190506 
L 419.6 717.88716 
L 421.24 715.78176 
L 422.88 716.783904 
L 424.52 719.576472 
L 426.16 719.133331 
L 427.8 717.666811 
L 429.44 718.105177 
L 431.08 719.927742 
L 432.72 719.613087 
L 434.36 718.392565 
L 436 718.611088 
L 437.64 720.021994 
L 439.28 719.885442 
L 440.92 718.740687 
L 442.56 718.802026 
L 444.2 719.984856 
L 445.84 720.082398 
L 447.48 718.905349 
L 449.12 718.802889 
L 450.76 719.833165 
L 452.4 720.260542 
L 454.04 718.948565 
L 455.68 718.626836 
L 458.96 720.455794 
L 460.6 718.870879 
L 462.24 718.184155 
L 463.88 718.910938 
L 465.52 720.605871 
L 467.16 718.624503 
L 468.8 717.14809 
L 470.44 717.433925 
L 472.08 719.807465 
L 473.72 717.727581 
L 475.36 712.930297 
L 477 708.811436 
L 478.64 706.534137 
L 480.28 706.673302 
L 481.92 709.063794 
L 483.56 712.908106 
L 485.2 717.084281 
L 486.84 720.362331 
L 488.48 719.046493 
L 490.12 718.467683 
L 491.76 719.052987 
L 493.4 720.193875 
L 495.04 720.401636 
L 496.68 719.786948 
L 498.32 719.753262 
L 499.96 720.187245 
L 501.6 720.7487 
L 504.88 720.210463 
L 506.52 720.301409 
L 509.8 720.791319 
L 511.44 720.567381 
L 513.08 720.497877 
L 518 720.816068 
L 521.28 720.715234 
L 527.84 720.867607 
L 540.96 720.682999 
L 542.6 720.859848 
L 545.88 720.175722 
L 547.52 719.984998 
L 549.16 720.081722 
L 550.8 720.55627 
L 552.44 720.341259 
L 554.08 719.126874 
L 557.36 716.351755 
L 559 715.22366 
L 560.64 714.533591 
L 562.28 714.403269 
L 563.92 714.861483 
L 565.56 715.839699 
L 567.2 717.186694 
L 570.48 720.128367 
L 572.12 720.307332 
L 573.76 719.503406 
L 575.4 719.103777 
L 577.04 719.129398 
L 578.68 719.504853 
L 581.96 720.689202 
L 586.88 719.606751 
L 588.52 719.614869 
L 590.16 719.848148 
L 593.44 720.685214 
L 595.08 720.522405 
L 596.72 720.127881 
L 598.36 719.856289 
L 600 719.751082 
L 601.64 719.81871 
L 604.92 720.367379 
L 606.56 720.718477 
L 608.2 720.579742 
L 611.48 719.972343 
L 613.12 719.819008 
L 614.76 719.792245 
L 618.04 720.092231 
L 621.32 720.679463 
L 622.96 720.678381 
L 626.24 720.101121 
L 629.52 719.764357 
L 632.8 719.776482 
L 636.08 720.101402 
L 641 720.743549 
L 650.84 719.59104 
L 654.12 719.543039 
L 657.4 719.675704 
L 662.32 720.106865 
L 667.24 720.588946 
L 668.88 720.633903 
L 672.16 720.413044 
L 680.36 719.734042 
L 686.92 719.406401 
L 695.12 719.231831 
L 698.4 719.217677 
L 698.4 719.217677 
" style="fill:none;stroke:#0000ff;stroke-linecap:square;stroke-width:2;"/>
   </g>
   <g id="patch_3">
    <path d="M 108 720.9 
L 108 56.7 
" style="fill:none;stroke:#000000;stroke-linecap:square;stroke-linejoin:miter;stroke-width:0.8;"/>
   </g>
   <g id="patch_4">
    <path d="M 698.4 720.9 
L 698.4 56.7 
" style="fill:none;stroke:#000000;stroke-linecap:square;stroke-linejoin:miter;stroke-width:0.8;"/>
   </g>
   <g id="patch_5">
    <path d="M 108 720.9 
L 698.4 720.9 
" style="fill:none;stroke:#000000;stroke-linecap:square;stroke-linejoin:miter;stroke-width:0.8;"/>
   </g>
   <g id="patch_6">
    <path d="M 108 56.7 
L 698.4 56.7 
" style="fill:none;stroke:#000000;stroke-linecap:square;stroke-linejoin:miter;stroke-width:0.8;"/>
   </g>
   <g id="text_22">
    <!-- Scattering amplitude for $N=10$, $n_{ref}=1.01$, $ka=6.0$, $kd=18.0$ -->
    <g transform="translate(136.996344 50.7)scale(0.2 -0.2)">
     <defs>
      <path d="M 43.703125 65.140625 
C 39.296875 67.71875 34.5 70 26.40625 70 
C 13.5 70 5.203125 60.609375 5.203125 51.03125 
C 5.203125 47.265625 6.296875 43.015625 10.203125 38.671875 
C 14.09375 34.3125 18.5 33.140625 24.09375 31.765625 
C 26.40625 31.15625 30.296875 30.0625 31 29.78125 
C 36.59375 27.609375 39.296875 22.5625 39.296875 17.8125 
C 39.296875 11.59375 34.40625 4.96875 25.703125 4.96875 
C 22.703125 4.96875 13.90625 4.96875 5.59375 12.796875 
L 4.203125 4.96875 
C 12.40625 -1 21.296875 -2 25.796875 -2 
C 38.09375 -2 46.90625 7.625 46.90625 18.53125 
C 46.90625 22.5 45.703125 27.546875 41.5 32.203125 
C 37.40625 36.671875 33.796875 37.65625 25.59375 39.828125 
C 20.90625 41.03125 17.90625 41.828125 15.40625 44.890625 
C 13.703125 47.078125 12.796875 49.15625 12.796875 51.828125 
C 12.796875 57.390625 17.59375 63.4375 26.40625 63.4375 
C 30.796875 63.4375 36.5 62.53125 42.296875 57.1875 
z
" id="CMSS17-83"/>
      <path d="M 38.5 39.703125 
C 38.5 40.390625 33.90625 42.40625 32.703125 42.796875 
C 29.40625 44 25.203125 44 24.09375 44 
C 11.09375 44 3.296875 32.703125 3.296875 21.296875 
C 3.296875 9.296875 12 -1 23.703125 -1 
C 30.40625 -1 35.203125 1.1875 39.09375 3.78125 
L 38.5 10.375 
C 34.203125 7.078125 29.203125 5.265625 23.796875 5.265625 
C 16 5.265625 10.90625 12.09375 10.90625 21.390625 
C 10.90625 28.609375 14.203125 37.71875 24.203125 37.71875 
C 29.703125 37.71875 32.796875 36.609375 37.40625 33.515625 
z
" id="CMSS17-99"/>
      <path d="M 37.59375 27.984375 
C 37.59375 37.375 30.90625 43.875 21.90625 43.875 
C 17.5 43.875 12.703125 43.078125 7.203125 39.890625 
L 7.796875 33.359375 
C 10.296875 35.125 14.59375 38 21.796875 38 
C 26.90625 38 30 34.0625 30 27.84375 
L 30 24 
C 14 24 4 19.34375 4 11.34375 
C 4 7.203125 6.5 -1 14.796875 -1 
C 16.296875 -1 24.40625 -1 30.203125 3.390625 
L 30.203125 -0.296875 
L 37.59375 -0.296875 
z
M 30 12.75 
C 30 10.953125 30 8.5625 27 6.78125 
C 24.40625 5.078125 21.09375 5.078125 19.703125 5.078125 
C 14.703125 5.078125 11.296875 7.984375 11.296875 11.625 
C 11.296875 18.921875 26.90625 18.921875 30 18.921875 
z
" id="CMSS17-97"/>
      <path d="M 16.703125 37 
L 29.703125 37 
L 29.703125 42.765625 
L 16.703125 42.765625 
L 16.703125 55 
L 9.59375 55 
L 9.59375 42.765625 
L 1.703125 42.765625 
L 1.703125 37 
L 9.40625 37 
L 9.40625 11.703125 
C 9.40625 6 10.703125 -1 17.296875 -1 
C 22.296875 -1 26.90625 0.390625 31.296875 2.6875 
L 29.703125 8.5625 
C 27.296875 6.46875 24.40625 5.265625 21.296875 5.265625 
C 16.90625 5.265625 16.703125 10.875 16.703125 13.375 
z
" id="CMSS17-116"/>
      <path d="M 39.09375 21.515625 
C 39.09375 24.84375 38.90625 31.296875 35.703125 36.640625 
C 32.203125 42.390625 26.5 44 22.203125 44 
C 11.796875 44 3 34.1875 3 21.484375 
C 3 9.09375 12.09375 -1 23.59375 -1 
C 28.09375 -1 33.59375 0.296875 38.59375 3.875 
C 38.59375 4.28125 38.40625 6.46875 38.296875 6.5625 
C 38.296875 6.765625 38 9.84375 38 10.25 
C 33.203125 6.359375 27.703125 5.078125 23.703125 5.078125 
C 17.296875 5.078125 10.40625 10.421875 10.09375 21.515625 
z
M 10.90625 27 
C 12.203125 32.5625 16.59375 37.828125 22.203125 37.828125 
C 23.703125 37.828125 30.703125 37.828125 32.5 27 
z
" id="CMSS17-101"/>
      <path d="M 14.90625 21.296875 
C 14.90625 30.703125 21.796875 37 30.59375 37 
L 30.59375 43.578125 
C 24.203125 43.578125 18.203125 40.390625 14.59375 35.203125 
L 14.59375 43.09375 
L 7.5 43.09375 
L 7.5 0 
L 14.90625 0 
z
" id="CMSS17-114"/>
      <path d="M 15.296875 65.359375 
L 6.90625 65.359375 
L 6.90625 57 
L 15.296875 57 
z
M 14.796875 42.796875 
L 7.40625 42.796875 
L 7.40625 0 
L 14.796875 0 
z
" id="CMSS17-105"/>
      <path d="M 40.90625 29.328125 
C 40.90625 35.671875 39.40625 44 28.09375 44 
C 21.703125 44 17.5 40.71875 14.703125 37.328125 
L 14.703125 43.09375 
L 7.40625 43.09375 
L 7.40625 0 
L 15 0 
L 15 24.359375 
C 15 30.6875 17.40625 37.9375 24.203125 37.9375 
C 33 37.9375 33.296875 32 33.296875 28.578125 
L 33.296875 0 
L 40.90625 0 
z
" id="CMSS17-110"/>
      <path d="M 44.5 43.875 
C 38.796875 43.875 33.90625 42.78125 29.90625 40.890625 
C 26.59375 43.390625 23.203125 43.875 20.90625 43.875 
C 12.203125 43.875 5.59375 36.703125 5.59375 28.34375 
C 5.59375 22.9375 8.59375 18.859375 8.796875 18.671875 
C 7 16.171875 6 13.484375 6 10.5 
C 6 7 7.40625 4.515625 8.5 3.125 
C 3.296875 -0.046875 2.59375 -4.90625 2.59375 -6.796875 
C 2.59375 -14.03125 11.703125 -20 23.40625 -20 
C 35.203125 -20 44.296875 -14.03125 44.296875 -6.6875 
C 44.296875 7 29 7 24.796875 7 
L 16.703125 7 
C 15.203125 7 11.203125 7 11.203125 12.359375 
C 11.203125 14.390625 12.09375 15.6875 12.203125 15.78125 
C 13.703125 14.6875 16.796875 13 20.90625 13 
C 29.203125 13 36.09375 19.96875 36.09375 28.546875 
C 36.09375 33.3125 33.90625 36.796875 33 38 
L 33.296875 38 
C 33.59375 38 37.796875 38 39.296875 38 
C 42.5 38 42.796875 37.953125 45.59375 37.796875 
z
M 20.90625 18.46875 
C 17.5 18.46875 12.703125 20.546875 12.703125 28.484375 
C 12.703125 37.109375 18.203125 38.5 20.796875 38.5 
C 24.203125 38.5 29 36.421875 29 28.484375 
C 29 19.859375 23.5 18.46875 20.90625 18.46875 
z
M 24.703125 -0.15625 
C 27.09375 -0.15625 37.203125 -0.15625 37.203125 -6.90625 
C 37.203125 -11.15625 31 -14.515625 23.5 -14.515625 
C 15.90625 -14.515625 9.703125 -11.25 9.703125 -6.796875 
C 9.703125 -6.296875 9.703125 -0.15625 16.59375 -0.15625 
z
" id="CMSS17-103"/>
      <path d="M 67 29.328125 
C 67 36.0625 65.296875 44 54.09375 44 
C 46.59375 44 42.09375 39.3125 40.09375 36.421875 
C 38.296875 41.71875 34.09375 44 28.09375 44 
C 21.296875 44 17 40.125 14.703125 37.328125 
L 14.703125 43.09375 
L 7.40625 43.09375 
L 7.40625 0 
L 15 0 
L 15 24.359375 
C 15 30.296875 17.203125 37.9375 24.296875 37.9375 
C 33.40625 37.9375 33.40625 31.5 33.40625 28.578125 
L 33.40625 0 
L 41 0 
L 41 24.359375 
C 41 30.296875 43.203125 37.9375 50.296875 37.9375 
C 59.40625 37.9375 59.40625 31.5 59.40625 28.578125 
L 59.40625 0 
L 67 0 
z
" id="CMSS17-109"/>
      <path d="M 15.09375 5.203125 
C 18.40625 2.015625 22.90625 -0.078125 27.703125 -0.078125 
C 37 -0.078125 45 9.421875 45 22.0625 
C 45 33.734375 39 44 30.40625 44 
C 25.40625 44 19.40625 42.21875 14.90625 38.625 
L 14.90625 43.203125 
L 7.5 43.203125 
L 7.5 -19 
L 15.09375 -19 
z
M 15.09375 32.8125 
C 15.90625 34 19.296875 37.734375 24.796875 37.734375 
C 31.796875 37.734375 37.40625 30.625 37.40625 22.0625 
C 37.40625 12.296875 30.59375 6 23.90625 6 
C 21.90625 6 19.796875 6.484375 17.796875 8.171875 
C 15.09375 10.53125 15.09375 12 15.09375 13.390625 
z
" id="CMSS17-112"/>
      <path d="M 14.796875 69 
L 7.40625 69 
L 7.40625 0 
L 14.796875 0 
z
" id="CMSS17-108"/>
      <path d="M 40.90625 42.796875 
L 33.296875 42.796875 
L 33.296875 15.1875 
C 33.296875 7.78125 27.90625 4.78125 22.203125 4.78125 
C 15.59375 4.78125 15 6.984375 15 11.078125 
L 15 42.796875 
L 7.40625 42.796875 
L 7.40625 10.59375 
C 7.40625 2.796875 10.09375 -1 17 -1 
C 20.40625 -1 28.09375 -0.203125 33.5 4.78125 
L 33.5 0 
L 40.90625 0 
z
" id="CMSS17-117"/>
      <path d="M 40.796875 69 
L 33.40625 69 
L 33.40625 38.09375 
C 30.296875 40.671875 25.203125 43.0625 19.59375 43.0625 
C 10.5 43.0625 3.296875 33.296875 3.296875 21.046875 
C 3.296875 8.78125 10.40625 -1 19.296875 -1 
C 26.203125 -1 30.796875 2.6875 33.203125 4.78125 
L 33.203125 -0.203125 
L 40.796875 -0.203125 
z
M 33.203125 13.0625 
C 33.203125 11.671875 33.203125 10.203125 30.09375 7.53125 
C 28.09375 5.859375 25.703125 5.078125 23.40625 5.078125 
C 18 5.078125 10.90625 9 10.90625 20.9375 
C 10.90625 33.34375 18.90625 37 24.40625 37 
C 28.09375 37 31.09375 35.21875 33.203125 32.265625 
z
" id="CMSS17-100"/>
      <path d="M 16.796875 37 
L 26.90625 37 
L 26.90625 42.765625 
L 16.59375 42.765625 
L 16.59375 55.609375 
C 16.59375 62.71875 22 63.9375 25.09375 63.9375 
C 26.09375 63.9375 28.90625 63.9375 32.5 62.640625 
L 32.5 69.203125 
C 30.203125 69.703125 27.40625 70 25.203125 70 
C 15.90625 70 9.40625 62.390625 9.40625 52.484375 
L 9.40625 42.765625 
L 2.5 42.765625 
L 2.5 37 
L 9.40625 37 
L 9.40625 0 
L 16.796875 0 
z
" id="CMSS17-102"/>
      <path d="M 44.203125 21.1875 
C 44.203125 34 34.703125 44 23.5 44 
C 12 44 2.703125 33.703125 2.703125 21.1875 
C 2.703125 8.5 12.296875 -1 23.40625 -1 
C 34.796875 -1 44.203125 8.796875 44.203125 21.1875 
z
M 23.5 5.265625 
C 16.40625 5.265625 10.296875 11.078125 10.296875 22 
C 10.296875 33.609375 17.40625 37.921875 23.40625 37.921875 
C 29.90625 37.921875 36.59375 33.21875 36.59375 22 
C 36.59375 10.671875 30.09375 5.265625 23.5 5.265625 
z
" id="CMSS17-111"/>
      <path d="M 74 57.78125 
C 75.09375 62.09375 76.703125 65.09375 84.296875 65.09375 
C 84.59375 65.09375 85.796875 65.09375 85.796875 66.859375 
C 85.796875 68 84.90625 68 84.5 68 
C 82.5 68 77.40625 68 75.40625 68 
L 70.59375 68 
C 69.203125 68 67.40625 68 66 68 
C 65.40625 68 64.203125 68 64.203125 66.09375 
C 64.203125 65.09375 65 65.09375 65.703125 65.09375 
C 71.703125 65.09375 72.09375 62.796875 72.09375 60.984375 
C 72.09375 60.09375 72 59.78125 71.703125 58.390625 
L 60.40625 13.28125 
L 39 66.390625 
C 38.296875 68 38.203125 68 36 68 
L 23.796875 68 
C 21.796875 68 20.90625 68 20.90625 66.09375 
C 20.90625 65.09375 21.59375 65.09375 23.5 65.09375 
C 24 65.09375 29.90625 65.09375 29.90625 64.296875 
C 29.90625 64.09375 29.703125 63.296875 29.59375 63 
L 16.296875 9.921875 
C 15.09375 5 12.703125 2.90625 6.09375 2.90625 
C 5.59375 2.90625 4.59375 2.90625 4.59375 1.046875 
C 4.59375 0 5.59375 0 5.90625 0 
C 7.90625 0 13 0 15 0 
L 19.796875 0 
C 21.203125 0 22.90625 0 24.296875 0 
C 25 0 26.09375 0 26.09375 1.90625 
C 26.09375 2.8125 25.09375 2.90625 24.703125 2.90625 
C 21.40625 2.90625 18.203125 3.5 18.203125 7.09375 
C 18.203125 7.890625 18.40625 8.78125 18.59375 9.578125 
L 32.09375 63 
C 32.703125 62 32.703125 61.8125 33.09375 60.90625 
L 56.90625 1.796875 
C 57.40625 0.59375 57.59375 0 58.5 0 
C 59.5 0 59.59375 0.296875 60 2 
z
" id="CMMI12-78"/>
      <path d="M 64.296875 31.515625 
C 65.796875 31.515625 67.296875 31.515625 67.296875 33.203125 
C 67.296875 35 65.59375 35 63.90625 35 
L 8 35 
C 6.296875 35 4.59375 35 4.59375 33.203125 
C 4.59375 31.515625 6.09375 31.515625 7.59375 31.515625 
z
M 63.90625 14 
C 65.59375 14 67.296875 14 67.296875 15.796875 
C 67.296875 17.484375 65.796875 17.484375 64.296875 17.484375 
L 7.59375 17.484375 
C 6.09375 17.484375 4.59375 17.484375 4.59375 15.796875 
C 4.59375 14 6.296875 14 8 14 
z
" id="CMR17-61"/>
      <path d="M 17 0.09375 
L 17 7.96875 
L 9 7.96875 
L 9 0 
L 11.5 0 
L 8.90625 -12.5 
L 12.90625 -12.5 
z
" id="CMSS17-44"/>
      <path d="M 20.59375 29.234375 
C 20.796875 29.84375 23.296875 34.828125 27 38.015625 
C 29.59375 40.40625 33 42.015625 36.90625 42.015625 
C 40.90625 42.015625 42.296875 39.015625 42.296875 35.03125 
C 42.296875 29.34375 38.203125 17.96875 36.203125 12.578125 
C 35.296875 10.171875 34.796875 8.875 34.796875 7.078125 
C 34.796875 2.59375 37.90625 -1 42.703125 -1 
C 52 -1 55.5 13.671875 55.5 14.265625 
C 55.5 14.765625 55.09375 15.171875 54.5 15.171875 
C 53.59375 15.171875 53.5 14.875 53 13.171875 
C 50.703125 4.984375 46.90625 1 43 1 
C 42 1 40.40625 1 40.40625 4.203125 
C 40.40625 6.703125 41.5 9.703125 42.09375 11.09375 
C 44.09375 16.609375 48.296875 27.8125 48.296875 33.515625 
C 48.296875 39.5 44.796875 44 37.203125 44 
C 28.296875 44 23.59375 37.734375 21.796875 35.234375 
C 21.5 40.90625 17.40625 44 13 44 
C 9.796875 44 7.59375 42.109375 5.90625 38.71875 
C 4.09375 35.125 2.703125 29.140625 2.703125 28.734375 
C 2.703125 28.34375 3.09375 27.84375 3.796875 27.84375 
C 4.59375 27.84375 4.703125 27.9375 5.296875 30.234375 
C 6.90625 36.328125 8.703125 42.015625 12.703125 42.015625 
C 15 42.015625 15.796875 40.40625 15.796875 37.421875 
C 15.796875 35.21875 14.796875 31.328125 14.09375 28.234375 
L 11.296875 17.46875 
C 10.90625 15.5625 9.796875 11.078125 9.296875 9.28125 
C 8.59375 6.6875 7.5 2 7.5 1.5 
C 7.5 0.09375 8.59375 -1 10.09375 -1 
C 11.296875 -1 12.703125 -0.40625 13.5 1.09375 
C 13.703125 1.59375 14.59375 5.09375 15.09375 7.078125 
L 17.296875 16.0625 
z
" id="CMMI12-110"/>
      <path d="M 38.90625 40.8125 
C 35.796875 40.21875 34.203125 38.015625 34.203125 35.828125 
C 34.203125 33.421875 36.09375 32.625 37.5 32.625 
C 40.296875 32.625 42.59375 35.03125 42.59375 38.015625 
C 42.59375 41.21875 39.5 44 34.5 44 
C 30.5 44 25.90625 42.203125 21.703125 36.125 
C 21 41.40625 17 44 13 44 
C 9.09375 44 7.09375 41.015625 5.90625 38.8125 
C 4.203125 35.21875 2.703125 29.234375 2.703125 28.734375 
C 2.703125 28.34375 3.09375 27.84375 3.796875 27.84375 
C 4.59375 27.84375 4.703125 27.9375 5.296875 30.234375 
C 6.796875 36.21875 8.703125 42.015625 12.703125 42.015625 
C 15.09375 42.015625 15.796875 40.3125 15.796875 37.421875 
C 15.796875 35.21875 14.796875 31.328125 14.09375 28.234375 
L 11.296875 17.46875 
C 10.90625 15.5625 9.796875 11.078125 9.296875 9.28125 
C 8.59375 6.6875 7.5 2 7.5 1.5 
C 7.5 0.09375 8.59375 -1 10.09375 -1 
C 11.203125 -1 13.09375 -0.296875 13.703125 1.703125 
C 14 2.5 17.703125 17.5625 18.296875 19.859375 
C 18.796875 22.046875 19.40625 24.15625 19.90625 26.34375 
C 20.296875 27.734375 20.703125 29.34375 21 30.640625 
C 21.296875 31.53125 24 36.421875 26.5 38.625 
C 27.703125 39.71875 30.296875 42.015625 34.40625 42.015625 
C 36 42.015625 37.59375 41.71875 38.90625 40.8125 
z
" id="CMMI12-114"/>
      <path d="M 17.90625 23.109375 
C 20.59375 23.109375 27.40625 23.109375 32.203125 24.921875 
C 39.796875 27.859375 40.5 33.71875 40.5 35.53125 
C 40.5 39.96875 36.703125 44 30.09375 44 
C 19.59375 44 4.5 34.53125 4.5 16.765625 
C 4.5 6.28125 10.5 -1 19.59375 -1 
C 33.203125 -1 41.796875 9.515625 41.796875 10.8125 
C 41.796875 11.40625 41.203125 11.90625 40.796875 11.90625 
C 40.5 11.90625 40.40625 11.8125 39.5 10.921875 
C 33.09375 2.484375 23.59375 1 19.796875 1 
C 14.09375 1 11.09375 5.46875 11.09375 12.84375 
C 11.09375 14.234375 11.09375 16.734375 12.59375 23.109375 
z
M 13.09375 25 
C 17.40625 40.5 26.90625 42.015625 30.09375 42.015625 
C 34.5 42.015625 37.5 39.40625 37.5 35.578125 
C 37.5 25 21.5 25 17.296875 25 
z
" id="CMMI12-101"/>
      <path d="M 18.40625 4.796875 
C 18.40625 7.6875 16 9.671875 13.59375 9.671875 
C 10.703125 9.671875 8.703125 7.28125 8.703125 4.890625 
C 8.703125 2 11.09375 0 13.5 0 
C 16.40625 0 18.40625 2.390625 18.40625 4.796875 
z
" id="CMMI12-58"/>
      <path d="M 28.09375 66.515625 
C 28.203125 66.921875 28.40625 67.515625 28.40625 68 
C 28.40625 69 27.40625 69 27.203125 69 
C 27.09375 69 23.5 68.640625 21.703125 68.390625 
C 20 68.390625 18.5 68.09375 16.703125 68.09375 
C 14.296875 67.890625 13.59375 67.796875 13.59375 66 
C 13.59375 65 14.59375 65 15.59375 65 
C 20.703125 65 20.703125 64.109375 20.703125 63.125 
C 20.703125 62.734375 20.703125 62.53125 20.203125 60.75 
L 5.90625 3.875 
C 5.5 2.375 5.5 2.1875 5.5 1.578125 
C 5.5 -0.59375 7.203125 -1 8.203125 -1 
C 11 -1 11.59375 1.203125 12.40625 4.296875 
L 17.09375 22.953125 
C 24.296875 22.15625 28.59375 19.15625 28.59375 14.375 
C 28.59375 13.765625 28.59375 13.375 28.296875 11.875 
C 27.90625 10.375 27.90625 9.1875 27.90625 8.6875 
C 27.90625 2.890625 31.703125 -1 36.796875 -1 
C 41.40625 -1 43.796875 3.1875 44.59375 4.59375 
C 46.703125 8.28125 48 13.875 48 14.265625 
C 48 14.765625 47.59375 15.171875 47 15.171875 
C 46.09375 15.171875 46 14.765625 45.59375 13.171875 
C 44.203125 7.984375 42.09375 1 37 1 
C 35 1 33.703125 2 33.703125 5.78125 
C 33.703125 7.6875 34.09375 9.875 34.5 11.375 
C 34.90625 13.171875 34.90625 13.265625 34.90625 14.46875 
C 34.90625 20.359375 29.59375 23.65625 20.40625 24.84375 
C 24 27.046875 27.59375 30.9375 29 32.4375 
C 34.703125 38.8125 38.59375 42.015625 43.203125 42.015625 
C 45.5 42.015625 46.09375 41.40625 46.796875 40.8125 
C 43.09375 40.40625 41.703125 37.8125 41.703125 35.828125 
C 41.703125 33.421875 43.59375 32.625 45 32.625 
C 47.703125 32.625 50.09375 34.921875 50.09375 38.125 
C 50.09375 41.015625 47.796875 44 43.296875 44 
C 37.796875 44 33.296875 40.109375 26.203125 32.125 
C 25.203125 30.9375 21.5 27.140625 17.796875 25.75 
z
" id="CMMI12-107"/>
      <path d="M 30.09375 11.875 
C 29.59375 10.171875 29.59375 9.984375 28.203125 8.078125 
C 26 5.28125 21.59375 1 16.90625 1 
C 12.796875 1 10.5 4.6875 10.5 10.578125 
C 10.5 16.0625 13.59375 27.234375 15.5 31.4375 
C 18.90625 38.421875 23.59375 42.015625 27.5 42.015625 
C 34.09375 42.015625 35.40625 33.828125 35.40625 33.03125 
C 35.40625 32.9375 35.09375 31.625 35 31.4375 
z
M 36.5 37.421875 
C 35.40625 40.015625 32.703125 44 27.5 44 
C 16.203125 44 4 29.4375 4 14.671875 
C 4 4.796875 9.796875 -1 16.59375 -1 
C 22.09375 -1 26.796875 3.296875 29.59375 6.59375 
C 30.59375 0.703125 35.296875 -1 38.296875 -1 
C 41.296875 -1 43.703125 0.796875 45.5 4.390625 
C 47.09375 7.78125 48.5 13.875 48.5 14.265625 
C 48.5 14.765625 48.09375 15.171875 47.5 15.171875 
C 46.59375 15.171875 46.5 14.671875 46.09375 13.171875 
C 44.59375 7.28125 42.703125 1 38.59375 1 
C 35.703125 1 35.5 3.59375 35.5 5.59375 
C 35.5 7.890625 35.796875 8.984375 36.703125 12.875 
C 37.40625 15.375 37.90625 17.5625 38.703125 20.453125 
C 42.40625 35.421875 43.296875 39.015625 43.296875 39.609375 
C 43.296875 41.015625 42.203125 42.109375 40.703125 42.109375 
C 37.5 42.109375 36.703125 38.625 36.5 37.421875 
z
" id="CMMI12-97"/>
      <path d="M 50.296875 66.515625 
C 50.40625 66.90625 50.59375 67.5 50.59375 68 
C 50.59375 69 49.59375 69 49.40625 69 
C 49.296875 69 44.40625 68.5625 43.90625 68.4375 
C 42.203125 68.328125 40.703125 68.09375 38.90625 68.09375 
C 36.40625 67.890625 35.703125 67.796875 35.703125 66 
C 35.703125 65 36.5 65 37.90625 65 
C 42.796875 65 42.90625 64.109375 42.90625 63.125 
C 42.90625 62.53125 42.703125 61.75 42.59375 61.453125 
L 36.5 37.421875 
C 35.40625 40.015625 32.703125 44 27.5 44 
C 16.203125 44 4 29.4375 4 14.671875 
C 4 4.796875 9.796875 -1 16.59375 -1 
C 22.09375 -1 26.796875 3.296875 29.59375 6.59375 
C 30.59375 0.703125 35.296875 -1 38.296875 -1 
C 41.296875 -1 43.703125 0.796875 45.5 4.390625 
C 47.09375 7.78125 48.5 13.875 48.5 14.265625 
C 48.5 14.765625 48.09375 15.171875 47.5 15.171875 
C 46.59375 15.171875 46.5 14.671875 46.09375 13.171875 
C 44.59375 7.28125 42.703125 1 38.59375 1 
C 35.703125 1 35.5 3.578125 35.5 5.578125 
C 35.5 5.96875 35.5 8.046875 36.203125 10.84375 
z
M 30.09375 11.875 
C 29.59375 10.171875 29.59375 9.984375 28.203125 8.078125 
C 26 5.28125 21.59375 1 16.90625 1 
C 12.796875 1 10.5 4.6875 10.5 10.578125 
C 10.5 16.0625 13.59375 27.234375 15.5 31.4375 
C 18.90625 38.421875 23.59375 42.015625 27.5 42.015625 
C 34.09375 42.015625 35.40625 33.828125 35.40625 33.03125 
C 35.40625 32.9375 35.09375 31.625 35 31.4375 
z
" id="CMMI12-100"/>
     </defs>
     <use transform="scale(0.996264)" xlink:href="#CMSS17-83"/>
     <use transform="translate(52.048516 0)scale(0.996264)" xlink:href="#CMSS17-99"/>
     <use transform="translate(93.687338 0)scale(0.996264)" xlink:href="#CMSS17-97"/>
     <use transform="translate(138.609259 0)scale(0.996264)" xlink:href="#CMSS17-116"/>
     <use transform="translate(172.440826 0)scale(0.996264)" xlink:href="#CMSS17-116"/>
     <use transform="translate(206.272392 0)scale(0.996264)" xlink:href="#CMSS17-101"/>
     <use transform="translate(247.911214 0)scale(0.996264)" xlink:href="#CMSS17-114"/>
     <use transform="translate(279.820987 0)scale(0.996264)" xlink:href="#CMSS17-105"/>
     <use transform="translate(302.00171 0)scale(0.996264)" xlink:href="#CMSS17-110"/>
     <use transform="translate(350.206653 0)scale(0.996264)" xlink:href="#CMSS17-103"/>
     <use transform="translate(428.279389 0)scale(0.996264)" xlink:href="#CMSS17-97"/>
     <use transform="translate(473.20131 0)scale(0.996264)" xlink:href="#CMSS17-109"/>
     <use transform="translate(547.430564 0)scale(0.996264)" xlink:href="#CMSS17-112"/>
     <use transform="translate(595.635507 0)scale(0.996264)" xlink:href="#CMSS17-108"/>
     <use transform="translate(617.816231 0)scale(0.996264)" xlink:href="#CMSS17-105"/>
     <use transform="translate(639.996954 0)scale(0.996264)" xlink:href="#CMSS17-116"/>
     <use transform="translate(673.82852 0)scale(0.996264)" xlink:href="#CMSS17-117"/>
     <use transform="translate(722.033463 0)scale(0.996264)" xlink:href="#CMSS17-100"/>
     <use transform="translate(770.238407 0)scale(0.996264)" xlink:href="#CMSS17-101"/>
     <use transform="translate(843.106341 0)scale(0.996264)" xlink:href="#CMSS17-102"/>
     <use transform="translate(871.733 0)scale(0.996264)" xlink:href="#CMSS17-111"/>
     <use transform="translate(915.97417 0)scale(0.996264)" xlink:href="#CMSS17-114"/>
     <use transform="translate(979.113055 0)scale(0.996264)" xlink:href="#CMMI12-78"/>
     <use transform="translate(1095.308836 0)scale(0.996264)" xlink:href="#CMR17-61"/>
     <use transform="translate(1194.697634 0)scale(0.996264)" xlink:href="#CMR17-49"/>
     <use transform="translate(1240.388111 0)scale(0.996264)" xlink:href="#CMR17-48"/>
     <use transform="translate(1286.078588 0)scale(0.996264)" xlink:href="#CMSS17-44"/>
     <use transform="translate(1343.331905 0)scale(0.996264)" xlink:href="#CMMI12-110"/>
     <use transform="translate(1401.561953 -14.943915)scale(0.697382)" xlink:href="#CMMI12-114"/>
     <use transform="translate(1434.231222 -14.943915)scale(0.697382)" xlink:href="#CMMI12-101"/>
     <use transform="translate(1465.879478 -14.943915)scale(0.697382)" xlink:href="#CMMI12-102"/>
     <use transform="translate(1535.155642 0)scale(0.996264)" xlink:href="#CMR17-61"/>
     <use transform="translate(1634.544439 0)scale(0.996264)" xlink:href="#CMR17-49"/>
     <use transform="translate(1680.234916 0)scale(0.996264)" xlink:href="#CMMI12-58"/>
     <use transform="translate(1707.332093 0)scale(0.996264)" xlink:href="#CMR17-48"/>
     <use transform="translate(1753.02257 0)scale(0.996264)" xlink:href="#CMR17-49"/>
     <use transform="translate(1798.713048 0)scale(0.996264)" xlink:href="#CMSS17-44"/>
     <use transform="translate(1855.966365 0)scale(0.996264)" xlink:href="#CMMI12-107"/>
     <use transform="translate(1910.045566 0)scale(0.996264)" xlink:href="#CMMI12-97"/>
     <use transform="translate(1988.927432 0)scale(0.996264)" xlink:href="#CMR17-61"/>
     <use transform="translate(2088.316229 0)scale(0.996264)" xlink:href="#CMR17-54"/>
     <use transform="translate(2134.006706 0)scale(0.996264)" xlink:href="#CMMI12-58"/>
     <use transform="translate(2161.103884 0)scale(0.996264)" xlink:href="#CMR17-48"/>
     <use transform="translate(2206.794361 0)scale(0.996264)" xlink:href="#CMSS17-44"/>
     <use transform="translate(2264.047678 0)scale(0.996264)" xlink:href="#CMMI12-107"/>
     <use transform="translate(2318.126879 0)scale(0.996264)" xlink:href="#CMMI12-100"/>
     <use transform="translate(2396.489984 0)scale(0.996264)" xlink:href="#CMR17-61"/>
     <use transform="translate(2495.878782 0)scale(0.996264)" xlink:href="#CMR17-49"/>
     <use transform="translate(2541.569259 0)scale(0.996264)" xlink:href="#CMR17-56"/>
     <use transform="translate(2587.259736 0)scale(0.996264)" xlink:href="#CMMI12-58"/>
     <use transform="translate(2614.356913 0)scale(0.996264)" xlink:href="#CMR17-48"/>
    </g>
   </g>
   <g id="legend_1">
    <g id="patch_7">
     <path d="M 541.734683 131.950704 
L 684.4 131.950704 
Q 688.4 131.950704 688.4 127.950704 
L 688.4 70.7 
Q 688.4 66.7 684.4 66.7 
L 541.734683 66.7 
Q 537.734683 66.7 537.734683 70.7 
L 537.734683 127.950704 
Q 537.734683 131.950704 541.734683 131.950704 
z
" style="fill:#ffffff;opacity:0.8;stroke:#cccccc;stroke-linejoin:miter;"/>
    </g>
    <g id="line2d_41">
     <path d="M 545.734683 82.896875 
L 585.734683 82.896875 
" style="fill:none;stroke:#0000ff;stroke-linecap:square;stroke-width:2;"/>
    </g>
    <g id="line2d_42"/>
    <g id="text_23">
     <!-- $||$ -->
     <g transform="translate(601.734683 89.896875)scale(0.2 -0.2)">
      <defs>
       <path d="M 15.90625 71.40625 
C 15.90625 73.203125 15.90625 75 13.90625 75 
C 11.90625 75 11.90625 73.203125 11.90625 71.40625 
L 11.90625 -21.40625 
C 11.90625 -23.203125 11.90625 -25 13.90625 -25 
C 15.90625 -25 15.90625 -23.203125 15.90625 -21.40625 
z
" id="CMSY10-106"/>
      </defs>
      <use transform="scale(0.996264)" xlink:href="#CMSY10-106"/>
      <use transform="translate(27.674085 0)scale(0.996264)" xlink:href="#CMSY10-106"/>
     </g>
    </g>
    <g id="line2d_43">
     <path d="M 545.734683 113.07507 
L 585.734683 113.07507 
" style="fill:none;stroke:#000000;stroke-dasharray:7.4,3.2;stroke-dashoffset:0;stroke-width:2;"/>
    </g>
    <g id="line2d_44"/>
    <g id="text_24">
     <!-- uncoupled -->
     <g transform="translate(601.734683 120.07507)scale(0.2 -0.2)">
      <use transform="scale(0.996264)" xlink:href="#CMSS17-117"/>
      <use transform="translate(48.204943 0)scale(0.996264)" xlink:href="#CMSS17-110"/>
      <use transform="translate(96.409886 0)scale(0.996264)" xlink:href="#CMSS17-99"/>
      <use transform="translate(138.048708 0)scale(0.996264)" xlink:href="#CMSS17-111"/>
      <use transform="translate(184.892332 0)scale(0.996264)" xlink:href="#CMSS17-117"/>
      <use transform="translate(233.097275 0)scale(0.996264)" xlink:href="#CMSS17-112"/>
      <use transform="translate(281.302218 0)scale(0.996264)" xlink:href="#CMSS17-108"/>
      <use transform="translate(303.482941 0)scale(0.996264)" xlink:href="#CMSS17-101"/>
      <use transform="translate(345.121763 0)scale(0.996264)" xlink:href="#CMSS17-100"/>
     </g>
    </g>
   </g>
  </g>
 </g>
 <defs>
  <clipPath id="p9f338ec41a">
   <rect height="664.2" width="590.4" x="108" y="56.7"/>
  </clipPath>
 </defs>
</svg>
