<?xml version="1.0" encoding="utf-8" standalone="no"?>
<!DOCTYPE svg PUBLIC "-//W3C//DTD SVG 1.1//EN"
  "http://www.w3.org/Graphics/SVG/1.1/DTD/svg11.dtd">
<!-- Created with matplotlib (https://matplotlib.org/) -->
<svg height="810pt" version="1.1" viewBox="0 0 720 810" width="720pt" xmlns="http://www.w3.org/2000/svg" xmlns:xlink="http://www.w3.org/1999/xlink">
 <metadata>
  <rdf:RDF xmlns:cc="http://creativecommons.org/ns#" xmlns:dc="http://purl.org/dc/elements/1.1/" xmlns:rdf="http://www.w3.org/1999/02/22-rdf-syntax-ns#">
   <cc:Work>
    <dc:type rdf:resource="http://purl.org/dc/dcmitype/StillImage"/>
    <dc:date>2021-08-13T16:23:44.646995</dc:date>
    <dc:format>image/svg+xml</dc:format>
    <dc:creator>
     <cc:Agent>
      <dc:title>Matplotlib v3.3.1, https://matplotlib.org/</dc:title>
     </cc:Agent>
    </dc:creator>
   </cc:Work>
  </rdf:RDF>
 </metadata>
 <defs>
  <style type="text/css">*{stroke-linecap:butt;stroke-linejoin:round;}</style>
 </defs>
 <g id="figure_1">
  <g id="patch_1">
   <path d="M 0 810 
L 720 810 
L 720 0 
L 0 0 
z
" style="fill:#ffffff;"/>
  </g>
  <g id="axes_1">
   <g id="patch_2">
    <path d="M 108 720.9 
L 698.4 720.9 
L 698.4 56.7 
L 108 56.7 
z
" style="fill:#ffffff;"/>
   </g>
   <g id="matplotlib.axis_1">
    <g id="xtick_1">
     <g id="line2d_1">
      <path clip-path="url(#p7f118c2c93)" d="M 142.407751 720.9 
L 142.407751 56.7 
" style="fill:none;stroke:#e6e6e6;stroke-linecap:square;stroke-width:0.8;"/>
     </g>
     <g id="line2d_2">
      <defs>
       <path d="M 0 0 
L 0 3.5 
" id="m5543287ce8" style="stroke:#000000;stroke-width:0.8;"/>
      </defs>
      <g>
       <use style="stroke:#000000;stroke-width:0.8;" x="142.407751" xlink:href="#m5543287ce8" y="720.9"/>
      </g>
     </g>
     <g id="text_1">
      <!-- 0.0 -->
      <g transform="translate(130.480408 739.297656)scale(0.15 -0.15)">
       <defs>
        <path d="M 31.78125 66.40625 
Q 24.171875 66.40625 20.328125 58.90625 
Q 16.5 51.421875 16.5 36.375 
Q 16.5 21.390625 20.328125 13.890625 
Q 24.171875 6.390625 31.78125 6.390625 
Q 39.453125 6.390625 43.28125 13.890625 
Q 47.125 21.390625 47.125 36.375 
Q 47.125 51.421875 43.28125 58.90625 
Q 39.453125 66.40625 31.78125 66.40625 
z
M 31.78125 74.21875 
Q 44.046875 74.21875 50.515625 64.515625 
Q 56.984375 54.828125 56.984375 36.375 
Q 56.984375 17.96875 50.515625 8.265625 
Q 44.046875 -1.421875 31.78125 -1.421875 
Q 19.53125 -1.421875 13.0625 8.265625 
Q 6.59375 17.96875 6.59375 36.375 
Q 6.59375 54.828125 13.0625 64.515625 
Q 19.53125 74.21875 31.78125 74.21875 
z
" id="DejaVuSans-48"/>
        <path d="M 10.6875 12.40625 
L 21 12.40625 
L 21 0 
L 10.6875 0 
z
" id="DejaVuSans-46"/>
       </defs>
       <use xlink:href="#DejaVuSans-48"/>
       <use x="63.623047" xlink:href="#DejaVuSans-46"/>
       <use x="95.410156" xlink:href="#DejaVuSans-48"/>
      </g>
     </g>
    </g>
    <g id="xtick_2">
     <g id="line2d_3">
      <path clip-path="url(#p7f118c2c93)" d="M 226.534283 720.9 
L 226.534283 56.7 
" style="fill:none;stroke:#e6e6e6;stroke-linecap:square;stroke-width:0.8;"/>
     </g>
     <g id="line2d_4">
      <g>
       <use style="stroke:#000000;stroke-width:0.8;" x="226.534283" xlink:href="#m5543287ce8" y="720.9"/>
      </g>
     </g>
     <g id="text_2">
      <!-- 0.5 -->
      <g transform="translate(214.60694 739.297656)scale(0.15 -0.15)">
       <defs>
        <path d="M 10.796875 72.90625 
L 49.515625 72.90625 
L 49.515625 64.59375 
L 19.828125 64.59375 
L 19.828125 46.734375 
Q 21.96875 47.46875 24.109375 47.828125 
Q 26.265625 48.1875 28.421875 48.1875 
Q 40.625 48.1875 47.75 41.5 
Q 54.890625 34.8125 54.890625 23.390625 
Q 54.890625 11.625 47.5625 5.09375 
Q 40.234375 -1.421875 26.90625 -1.421875 
Q 22.3125 -1.421875 17.546875 -0.640625 
Q 12.796875 0.140625 7.71875 1.703125 
L 7.71875 11.625 
Q 12.109375 9.234375 16.796875 8.0625 
Q 21.484375 6.890625 26.703125 6.890625 
Q 35.15625 6.890625 40.078125 11.328125 
Q 45.015625 15.765625 45.015625 23.390625 
Q 45.015625 31 40.078125 35.4375 
Q 35.15625 39.890625 26.703125 39.890625 
Q 22.75 39.890625 18.8125 39.015625 
Q 14.890625 38.140625 10.796875 36.28125 
z
" id="DejaVuSans-53"/>
       </defs>
       <use xlink:href="#DejaVuSans-48"/>
       <use x="63.623047" xlink:href="#DejaVuSans-46"/>
       <use x="95.410156" xlink:href="#DejaVuSans-53"/>
      </g>
     </g>
    </g>
    <g id="xtick_3">
     <g id="line2d_5">
      <path clip-path="url(#p7f118c2c93)" d="M 310.660815 720.9 
L 310.660815 56.7 
" style="fill:none;stroke:#e6e6e6;stroke-linecap:square;stroke-width:0.8;"/>
     </g>
     <g id="line2d_6">
      <g>
       <use style="stroke:#000000;stroke-width:0.8;" x="310.660815" xlink:href="#m5543287ce8" y="720.9"/>
      </g>
     </g>
     <g id="text_3">
      <!-- 1.0 -->
      <g transform="translate(298.733471 739.297656)scale(0.15 -0.15)">
       <defs>
        <path d="M 12.40625 8.296875 
L 28.515625 8.296875 
L 28.515625 63.921875 
L 10.984375 60.40625 
L 10.984375 69.390625 
L 28.421875 72.90625 
L 38.28125 72.90625 
L 38.28125 8.296875 
L 54.390625 8.296875 
L 54.390625 0 
L 12.40625 0 
z
" id="DejaVuSans-49"/>
       </defs>
       <use xlink:href="#DejaVuSans-49"/>
       <use x="63.623047" xlink:href="#DejaVuSans-46"/>
       <use x="95.410156" xlink:href="#DejaVuSans-48"/>
      </g>
     </g>
    </g>
    <g id="xtick_4">
     <g id="line2d_7">
      <path clip-path="url(#p7f118c2c93)" d="M 394.787347 720.9 
L 394.787347 56.7 
" style="fill:none;stroke:#e6e6e6;stroke-linecap:square;stroke-width:0.8;"/>
     </g>
     <g id="line2d_8">
      <g>
       <use style="stroke:#000000;stroke-width:0.8;" x="394.787347" xlink:href="#m5543287ce8" y="720.9"/>
      </g>
     </g>
     <g id="text_4">
      <!-- 1.5 -->
      <g transform="translate(382.860003 739.297656)scale(0.15 -0.15)">
       <use xlink:href="#DejaVuSans-49"/>
       <use x="63.623047" xlink:href="#DejaVuSans-46"/>
       <use x="95.410156" xlink:href="#DejaVuSans-53"/>
      </g>
     </g>
    </g>
    <g id="xtick_5">
     <g id="line2d_9">
      <path clip-path="url(#p7f118c2c93)" d="M 478.913879 720.9 
L 478.913879 56.7 
" style="fill:none;stroke:#e6e6e6;stroke-linecap:square;stroke-width:0.8;"/>
     </g>
     <g id="line2d_10">
      <g>
       <use style="stroke:#000000;stroke-width:0.8;" x="478.913879" xlink:href="#m5543287ce8" y="720.9"/>
      </g>
     </g>
     <g id="text_5">
      <!-- 2.0 -->
      <g transform="translate(466.986535 739.297656)scale(0.15 -0.15)">
       <defs>
        <path d="M 19.1875 8.296875 
L 53.609375 8.296875 
L 53.609375 0 
L 7.328125 0 
L 7.328125 8.296875 
Q 12.9375 14.109375 22.625 23.890625 
Q 32.328125 33.6875 34.8125 36.53125 
Q 39.546875 41.84375 41.421875 45.53125 
Q 43.3125 49.21875 43.3125 52.78125 
Q 43.3125 58.59375 39.234375 62.25 
Q 35.15625 65.921875 28.609375 65.921875 
Q 23.96875 65.921875 18.8125 64.3125 
Q 13.671875 62.703125 7.8125 59.421875 
L 7.8125 69.390625 
Q 13.765625 71.78125 18.9375 73 
Q 24.125 74.21875 28.421875 74.21875 
Q 39.75 74.21875 46.484375 68.546875 
Q 53.21875 62.890625 53.21875 53.421875 
Q 53.21875 48.921875 51.53125 44.890625 
Q 49.859375 40.875 45.40625 35.40625 
Q 44.1875 33.984375 37.640625 27.21875 
Q 31.109375 20.453125 19.1875 8.296875 
z
" id="DejaVuSans-50"/>
       </defs>
       <use xlink:href="#DejaVuSans-50"/>
       <use x="63.623047" xlink:href="#DejaVuSans-46"/>
       <use x="95.410156" xlink:href="#DejaVuSans-48"/>
      </g>
     </g>
    </g>
    <g id="xtick_6">
     <g id="line2d_11">
      <path clip-path="url(#p7f118c2c93)" d="M 563.04041 720.9 
L 563.04041 56.7 
" style="fill:none;stroke:#e6e6e6;stroke-linecap:square;stroke-width:0.8;"/>
     </g>
     <g id="line2d_12">
      <g>
       <use style="stroke:#000000;stroke-width:0.8;" x="563.04041" xlink:href="#m5543287ce8" y="720.9"/>
      </g>
     </g>
     <g id="text_6">
      <!-- 2.5 -->
      <g transform="translate(551.113067 739.297656)scale(0.15 -0.15)">
       <use xlink:href="#DejaVuSans-50"/>
       <use x="63.623047" xlink:href="#DejaVuSans-46"/>
       <use x="95.410156" xlink:href="#DejaVuSans-53"/>
      </g>
     </g>
    </g>
    <g id="xtick_7">
     <g id="line2d_13">
      <path clip-path="url(#p7f118c2c93)" d="M 647.166942 720.9 
L 647.166942 56.7 
" style="fill:none;stroke:#e6e6e6;stroke-linecap:square;stroke-width:0.8;"/>
     </g>
     <g id="line2d_14">
      <g>
       <use style="stroke:#000000;stroke-width:0.8;" x="647.166942" xlink:href="#m5543287ce8" y="720.9"/>
      </g>
     </g>
     <g id="text_7">
      <!-- 3.0 -->
      <g transform="translate(635.239598 739.297656)scale(0.15 -0.15)">
       <defs>
        <path d="M 40.578125 39.3125 
Q 47.65625 37.796875 51.625 33 
Q 55.609375 28.21875 55.609375 21.1875 
Q 55.609375 10.40625 48.1875 4.484375 
Q 40.765625 -1.421875 27.09375 -1.421875 
Q 22.515625 -1.421875 17.65625 -0.515625 
Q 12.796875 0.390625 7.625 2.203125 
L 7.625 11.71875 
Q 11.71875 9.328125 16.59375 8.109375 
Q 21.484375 6.890625 26.8125 6.890625 
Q 36.078125 6.890625 40.9375 10.546875 
Q 45.796875 14.203125 45.796875 21.1875 
Q 45.796875 27.640625 41.28125 31.265625 
Q 36.765625 34.90625 28.71875 34.90625 
L 20.21875 34.90625 
L 20.21875 43.015625 
L 29.109375 43.015625 
Q 36.375 43.015625 40.234375 45.921875 
Q 44.09375 48.828125 44.09375 54.296875 
Q 44.09375 59.90625 40.109375 62.90625 
Q 36.140625 65.921875 28.71875 65.921875 
Q 24.65625 65.921875 20.015625 65.03125 
Q 15.375 64.15625 9.8125 62.3125 
L 9.8125 71.09375 
Q 15.4375 72.65625 20.34375 73.4375 
Q 25.25 74.21875 29.59375 74.21875 
Q 40.828125 74.21875 47.359375 69.109375 
Q 53.90625 64.015625 53.90625 55.328125 
Q 53.90625 49.265625 50.4375 45.09375 
Q 46.96875 40.921875 40.578125 39.3125 
z
" id="DejaVuSans-51"/>
       </defs>
       <use xlink:href="#DejaVuSans-51"/>
       <use x="63.623047" xlink:href="#DejaVuSans-46"/>
       <use x="95.410156" xlink:href="#DejaVuSans-48"/>
      </g>
     </g>
    </g>
    <g id="text_8">
     <!-- $ka$ -->
     <g transform="translate(388.2 765.413281)scale(0.25 -0.25)">
      <defs>
       <path d="M 18.3125 75.984375 
L 27.296875 75.984375 
L 18.703125 31.6875 
L 49.515625 54.6875 
L 61.1875 54.6875 
L 26.8125 28.515625 
L 51.90625 0 
L 41.015625 0 
L 17.671875 26.703125 
L 12.5 0 
L 3.515625 0 
z
" id="DejaVuSans-Oblique-107"/>
       <path d="M 53.71875 31.203125 
L 47.609375 0 
L 38.625 0 
L 40.28125 8.296875 
Q 36.328125 3.421875 31.265625 1 
Q 26.21875 -1.421875 20.015625 -1.421875 
Q 13.03125 -1.421875 8.5625 2.84375 
Q 4.109375 7.125 4.109375 13.8125 
Q 4.109375 23.390625 11.75 28.953125 
Q 19.390625 34.515625 32.8125 34.515625 
L 45.3125 34.515625 
L 45.796875 36.921875 
Q 45.90625 37.3125 45.953125 37.765625 
Q 46 38.234375 46 39.203125 
Q 46 43.5625 42.453125 45.96875 
Q 38.921875 48.390625 32.515625 48.390625 
Q 28.125 48.390625 23.5 47.265625 
Q 18.890625 46.140625 14.015625 43.890625 
L 15.578125 52.203125 
Q 20.65625 54.109375 25.515625 55.046875 
Q 30.375 56 34.90625 56 
Q 44.578125 56 49.625 51.796875 
Q 54.6875 47.609375 54.6875 39.59375 
Q 54.6875 37.984375 54.4375 35.8125 
Q 54.203125 33.640625 53.71875 31.203125 
z
M 44 27.484375 
L 35.015625 27.484375 
Q 23.96875 27.484375 18.671875 24.53125 
Q 13.375 21.578125 13.375 15.375 
Q 13.375 11.078125 16.078125 8.640625 
Q 18.796875 6.203125 23.578125 6.203125 
Q 30.90625 6.203125 36.375 11.453125 
Q 41.84375 16.703125 43.609375 25.484375 
z
" id="DejaVuSans-Oblique-97"/>
      </defs>
      <use transform="translate(0 0.015625)" xlink:href="#DejaVuSans-Oblique-107"/>
      <use transform="translate(57.910156 0.015625)" xlink:href="#DejaVuSans-Oblique-97"/>
     </g>
    </g>
   </g>
   <g id="matplotlib.axis_2">
    <g id="ytick_1">
     <g id="line2d_15">
      <path clip-path="url(#p7f118c2c93)" d="M 108 720.9 
L 698.4 720.9 
" style="fill:none;stroke:#e6e6e6;stroke-linecap:square;stroke-width:0.8;"/>
     </g>
     <g id="line2d_16">
      <defs>
       <path d="M 0 0 
L -3.5 0 
" id="m546f620c2e" style="stroke:#000000;stroke-width:0.8;"/>
      </defs>
      <g>
       <use style="stroke:#000000;stroke-width:0.8;" x="108" xlink:href="#m546f620c2e" y="720.9"/>
      </g>
     </g>
     <g id="text_9">
      <!-- $\mathdefault{10^{-8}}$ -->
      <g transform="translate(65.75 726.598828)scale(0.15 -0.15)">
       <defs>
        <path d="M 10.59375 35.5 
L 73.1875 35.5 
L 73.1875 27.203125 
L 10.59375 27.203125 
z
" id="DejaVuSans-8722"/>
        <path d="M 31.78125 34.625 
Q 24.75 34.625 20.71875 30.859375 
Q 16.703125 27.09375 16.703125 20.515625 
Q 16.703125 13.921875 20.71875 10.15625 
Q 24.75 6.390625 31.78125 6.390625 
Q 38.8125 6.390625 42.859375 10.171875 
Q 46.921875 13.96875 46.921875 20.515625 
Q 46.921875 27.09375 42.890625 30.859375 
Q 38.875 34.625 31.78125 34.625 
z
M 21.921875 38.8125 
Q 15.578125 40.375 12.03125 44.71875 
Q 8.5 49.078125 8.5 55.328125 
Q 8.5 64.0625 14.71875 69.140625 
Q 20.953125 74.21875 31.78125 74.21875 
Q 42.671875 74.21875 48.875 69.140625 
Q 55.078125 64.0625 55.078125 55.328125 
Q 55.078125 49.078125 51.53125 44.71875 
Q 48 40.375 41.703125 38.8125 
Q 48.828125 37.15625 52.796875 32.3125 
Q 56.78125 27.484375 56.78125 20.515625 
Q 56.78125 9.90625 50.3125 4.234375 
Q 43.84375 -1.421875 31.78125 -1.421875 
Q 19.734375 -1.421875 13.25 4.234375 
Q 6.78125 9.90625 6.78125 20.515625 
Q 6.78125 27.484375 10.78125 32.3125 
Q 14.796875 37.15625 21.921875 38.8125 
z
M 18.3125 54.390625 
Q 18.3125 48.734375 21.84375 45.5625 
Q 25.390625 42.390625 31.78125 42.390625 
Q 38.140625 42.390625 41.71875 45.5625 
Q 45.3125 48.734375 45.3125 54.390625 
Q 45.3125 60.0625 41.71875 63.234375 
Q 38.140625 66.40625 31.78125 66.40625 
Q 25.390625 66.40625 21.84375 63.234375 
Q 18.3125 60.0625 18.3125 54.390625 
z
" id="DejaVuSans-56"/>
       </defs>
       <use transform="translate(0 0.765625)" xlink:href="#DejaVuSans-49"/>
       <use transform="translate(63.623047 0.765625)" xlink:href="#DejaVuSans-48"/>
       <use transform="translate(128.203125 39.046875)scale(0.7)" xlink:href="#DejaVuSans-8722"/>
       <use transform="translate(186.855469 39.046875)scale(0.7)" xlink:href="#DejaVuSans-56"/>
      </g>
     </g>
    </g>
    <g id="ytick_2">
     <g id="line2d_17">
      <path clip-path="url(#p7f118c2c93)" d="M 108 578.077108 
L 698.4 578.077108 
" style="fill:none;stroke:#e6e6e6;stroke-linecap:square;stroke-width:0.8;"/>
     </g>
     <g id="line2d_18">
      <g>
       <use style="stroke:#000000;stroke-width:0.8;" x="108" xlink:href="#m546f620c2e" y="578.077108"/>
      </g>
     </g>
     <g id="text_10">
      <!-- $\mathdefault{10^{-6}}$ -->
      <g transform="translate(65.75 583.775936)scale(0.15 -0.15)">
       <defs>
        <path d="M 33.015625 40.375 
Q 26.375 40.375 22.484375 35.828125 
Q 18.609375 31.296875 18.609375 23.390625 
Q 18.609375 15.53125 22.484375 10.953125 
Q 26.375 6.390625 33.015625 6.390625 
Q 39.65625 6.390625 43.53125 10.953125 
Q 47.40625 15.53125 47.40625 23.390625 
Q 47.40625 31.296875 43.53125 35.828125 
Q 39.65625 40.375 33.015625 40.375 
z
M 52.59375 71.296875 
L 52.59375 62.3125 
Q 48.875 64.0625 45.09375 64.984375 
Q 41.3125 65.921875 37.59375 65.921875 
Q 27.828125 65.921875 22.671875 59.328125 
Q 17.53125 52.734375 16.796875 39.40625 
Q 19.671875 43.65625 24.015625 45.921875 
Q 28.375 48.1875 33.59375 48.1875 
Q 44.578125 48.1875 50.953125 41.515625 
Q 57.328125 34.859375 57.328125 23.390625 
Q 57.328125 12.15625 50.6875 5.359375 
Q 44.046875 -1.421875 33.015625 -1.421875 
Q 20.359375 -1.421875 13.671875 8.265625 
Q 6.984375 17.96875 6.984375 36.375 
Q 6.984375 53.65625 15.1875 63.9375 
Q 23.390625 74.21875 37.203125 74.21875 
Q 40.921875 74.21875 44.703125 73.484375 
Q 48.484375 72.75 52.59375 71.296875 
z
" id="DejaVuSans-54"/>
       </defs>
       <use transform="translate(0 0.765625)" xlink:href="#DejaVuSans-49"/>
       <use transform="translate(63.623047 0.765625)" xlink:href="#DejaVuSans-48"/>
       <use transform="translate(128.203125 39.046875)scale(0.7)" xlink:href="#DejaVuSans-8722"/>
       <use transform="translate(186.855469 39.046875)scale(0.7)" xlink:href="#DejaVuSans-54"/>
      </g>
     </g>
    </g>
    <g id="ytick_3">
     <g id="line2d_19">
      <path clip-path="url(#p7f118c2c93)" d="M 108 435.254217 
L 698.4 435.254217 
" style="fill:none;stroke:#e6e6e6;stroke-linecap:square;stroke-width:0.8;"/>
     </g>
     <g id="line2d_20">
      <g>
       <use style="stroke:#000000;stroke-width:0.8;" x="108" xlink:href="#m546f620c2e" y="435.254217"/>
      </g>
     </g>
     <g id="text_11">
      <!-- $\mathdefault{10^{-4}}$ -->
      <g transform="translate(65.75 440.953045)scale(0.15 -0.15)">
       <defs>
        <path d="M 37.796875 64.3125 
L 12.890625 25.390625 
L 37.796875 25.390625 
z
M 35.203125 72.90625 
L 47.609375 72.90625 
L 47.609375 25.390625 
L 58.015625 25.390625 
L 58.015625 17.1875 
L 47.609375 17.1875 
L 47.609375 0 
L 37.796875 0 
L 37.796875 17.1875 
L 4.890625 17.1875 
L 4.890625 26.703125 
z
" id="DejaVuSans-52"/>
       </defs>
       <use transform="translate(0 0.684375)" xlink:href="#DejaVuSans-49"/>
       <use transform="translate(63.623047 0.684375)" xlink:href="#DejaVuSans-48"/>
       <use transform="translate(128.203125 38.965625)scale(0.7)" xlink:href="#DejaVuSans-8722"/>
       <use transform="translate(186.855469 38.965625)scale(0.7)" xlink:href="#DejaVuSans-52"/>
      </g>
     </g>
    </g>
    <g id="ytick_4">
     <g id="line2d_21">
      <path clip-path="url(#p7f118c2c93)" d="M 108 292.431325 
L 698.4 292.431325 
" style="fill:none;stroke:#e6e6e6;stroke-linecap:square;stroke-width:0.8;"/>
     </g>
     <g id="line2d_22">
      <g>
       <use style="stroke:#000000;stroke-width:0.8;" x="108" xlink:href="#m546f620c2e" y="292.431325"/>
      </g>
     </g>
     <g id="text_12">
      <!-- $\mathdefault{10^{-2}}$ -->
      <g transform="translate(65.75 298.130153)scale(0.15 -0.15)">
       <use transform="translate(0 0.765625)" xlink:href="#DejaVuSans-49"/>
       <use transform="translate(63.623047 0.765625)" xlink:href="#DejaVuSans-48"/>
       <use transform="translate(128.203125 39.046875)scale(0.7)" xlink:href="#DejaVuSans-8722"/>
       <use transform="translate(186.855469 39.046875)scale(0.7)" xlink:href="#DejaVuSans-50"/>
      </g>
     </g>
    </g>
    <g id="ytick_5">
     <g id="line2d_23">
      <path clip-path="url(#p7f118c2c93)" d="M 108 149.608433 
L 698.4 149.608433 
" style="fill:none;stroke:#e6e6e6;stroke-linecap:square;stroke-width:0.8;"/>
     </g>
     <g id="line2d_24">
      <g>
       <use style="stroke:#000000;stroke-width:0.8;" x="108" xlink:href="#m546f620c2e" y="149.608433"/>
      </g>
     </g>
     <g id="text_13">
      <!-- $\mathdefault{10^{0}}$ -->
      <g transform="translate(74.6 155.307261)scale(0.15 -0.15)">
       <use transform="translate(0 0.765625)" xlink:href="#DejaVuSans-49"/>
       <use transform="translate(63.623047 0.765625)" xlink:href="#DejaVuSans-48"/>
       <use transform="translate(128.203125 39.046875)scale(0.7)" xlink:href="#DejaVuSans-48"/>
      </g>
     </g>
    </g>
    <g id="text_14">
     <!-- $\sigma/(ka)^2$ -->
     <g transform="translate(56.550781 431.675)rotate(-90)scale(0.25 -0.25)">
      <defs>
       <path d="M 34.671875 47.5625 
Q 27.25 47.5625 22.21875 42.1875 
Q 16.890625 36.578125 15.140625 27.296875 
Q 13.1875 17.484375 16.3125 11.8125 
Q 19.390625 6.203125 26.65625 6.203125 
Q 33.84375 6.203125 39.109375 11.859375 
Q 44.4375 17.53125 46.34375 27.296875 
Q 48.046875 36.234375 45.015625 42.1875 
Q 42.1875 47.5625 34.671875 47.5625 
z
M 36.078125 54.734375 
L 65.921875 54.6875 
L 64.15625 45.703125 
L 54.109375 45.703125 
Q 57.90625 38.09375 55.859375 27.296875 
Q 53.21875 13.875 45.0625 6.25 
Q 36.859375 -1.421875 25.140625 -1.421875 
Q 13.375 -1.421875 8.203125 6.25 
Q 3.03125 13.875 5.671875 27.296875 
Q 8.25 40.765625 16.40625 48.390625 
Q 23.1875 54.734375 36.078125 54.734375 
z
" id="DejaVuSans-Oblique-963"/>
       <path d="M 25.390625 72.90625 
L 33.6875 72.90625 
L 8.296875 -9.28125 
L 0 -9.28125 
z
" id="DejaVuSans-47"/>
       <path d="M 31 75.875 
Q 24.46875 64.65625 21.28125 53.65625 
Q 18.109375 42.671875 18.109375 31.390625 
Q 18.109375 20.125 21.3125 9.0625 
Q 24.515625 -2 31 -13.1875 
L 23.1875 -13.1875 
Q 15.875 -1.703125 12.234375 9.375 
Q 8.59375 20.453125 8.59375 31.390625 
Q 8.59375 42.28125 12.203125 53.3125 
Q 15.828125 64.359375 23.1875 75.875 
z
" id="DejaVuSans-40"/>
       <path d="M 8.015625 75.875 
L 15.828125 75.875 
Q 23.140625 64.359375 26.78125 53.3125 
Q 30.421875 42.28125 30.421875 31.390625 
Q 30.421875 20.453125 26.78125 9.375 
Q 23.140625 -1.703125 15.828125 -13.1875 
L 8.015625 -13.1875 
Q 14.5 -2 17.703125 9.0625 
Q 20.90625 20.125 20.90625 31.390625 
Q 20.90625 42.671875 17.703125 53.65625 
Q 14.5 64.65625 8.015625 75.875 
z
" id="DejaVuSans-41"/>
      </defs>
      <use transform="translate(0 0.765625)" xlink:href="#DejaVuSans-Oblique-963"/>
      <use transform="translate(63.378906 0.765625)" xlink:href="#DejaVuSans-47"/>
      <use transform="translate(97.070312 0.765625)" xlink:href="#DejaVuSans-40"/>
      <use transform="translate(136.083984 0.765625)" xlink:href="#DejaVuSans-Oblique-107"/>
      <use transform="translate(193.994141 0.765625)" xlink:href="#DejaVuSans-Oblique-97"/>
      <use transform="translate(255.273438 0.765625)" xlink:href="#DejaVuSans-41"/>
      <use transform="translate(295.244141 39.046875)scale(0.7)" xlink:href="#DejaVuSans-50"/>
     </g>
    </g>
   </g>
   <g id="line2d_25">
    <path clip-path="url(#p7f118c2c93)" d="M 159.233058 521.776601 
L 162.507782 499.74601 
L 165.782506 481.058287 
L 169.05723 464.835191 
L 172.331954 450.505216 
L 175.606678 437.675542 
L 178.881402 426.064531 
L 182.156126 415.463374 
L 185.43085 405.712968 
L 188.705574 396.6893 
L 191.980298 388.293835 
L 195.255022 380.446993 
L 198.529747 373.083579 
L 201.804471 366.149524 
L 205.079195 359.599488 
L 208.353919 353.395086 
L 211.628643 347.503537 
L 214.903367 341.89663 
L 218.178091 336.549913 
L 221.452815 331.442062 
L 224.727539 326.55437 
L 231.276987 317.37535 
L 237.826435 308.901836 
L 244.375883 301.045242 
L 250.925331 293.733823 
L 257.47478 286.908731 
L 264.024228 280.521152 
L 270.573676 274.530196 
L 277.123124 268.901299 
L 283.672572 263.605006 
L 290.22202 258.616022 
L 296.771468 253.912455 
L 303.320916 249.475219 
L 309.870364 245.287537 
L 316.419813 241.334545 
L 322.969261 237.602943 
L 329.518709 234.080722 
L 336.068157 230.756914 
L 342.617605 227.621386 
L 349.167053 224.664657 
L 355.716501 221.877747 
L 365.540673 217.997008 
L 375.364846 214.450875 
L 385.189018 211.211751 
L 395.01319 208.252068 
L 404.837362 205.543957 
L 414.661534 203.059117 
L 424.485706 200.768882 
L 437.584603 197.968291 
L 450.683499 195.395729 
L 467.057119 192.405573 
L 489.980187 188.457182 
L 542.375772 179.732597 
L 571.848289 175.010644 
L 594.771357 171.568877 
L 614.419702 168.829333 
L 637.34277 165.881659 
L 647.166942 164.691148 
L 647.166942 164.691148 
" style="fill:none;stroke:#f98e52;stroke-linecap:square;stroke-width:2;"/>
   </g>
   <g id="line2d_26">
    <path clip-path="url(#p7f118c2c93)" d="M 159.233058 475.840219 
L 162.507782 453.785424 
L 165.782506 435.069282 
L 169.05723 418.81359 
L 172.331954 404.446888 
L 175.606678 391.576406 
L 178.881402 379.920568 
L 182.156126 369.270628 
L 185.43085 359.467558 
L 188.705574 350.387424 
L 191.980298 341.931781 
L 195.255022 334.021146 
L 198.529747 326.590432 
L 201.804471 319.585683 
L 205.079195 312.961685 
L 208.353919 306.68019 
L 211.628643 300.70856 
L 214.903367 295.018742 
L 218.178091 289.586453 
L 221.452815 284.390546 
L 228.002263 274.636041 
L 234.551711 265.631846 
L 241.101159 257.280884 
L 247.650607 249.505679 
L 254.200055 242.243684 
L 260.749504 235.443924 
L 267.298952 229.064534 
L 273.8484 223.070917 
L 280.397848 217.434321 
L 286.947296 212.13073 
L 293.496744 207.139973 
L 300.046192 202.444986 
L 306.59564 198.031202 
L 313.145088 193.886012 
L 319.694537 189.998307 
L 326.243985 186.358058 
L 332.793433 182.955947 
L 339.342881 179.783029 
L 345.892329 176.830431 
L 352.441777 174.089087 
L 358.991225 171.549509 
L 365.540673 169.201597 
L 372.090121 167.034493 
L 378.63957 165.036482 
L 388.463742 162.328652 
L 398.287914 159.926306 
L 408.112086 157.779111 
L 417.936258 155.833976 
L 431.035154 153.461646 
L 457.232947 149.0356 
L 480.156015 145.076263 
L 506.353808 140.289532 
L 532.5516 135.526291 
L 548.92522 132.768441 
L 565.298841 130.272858 
L 581.672461 128.054163 
L 598.046081 126.07277 
L 620.96915 123.548912 
L 647.166942 120.75596 
L 647.166942 120.75596 
" style="fill:none;stroke:#ffffbe;stroke-linecap:square;stroke-width:2;"/>
   </g>
   <g id="line2d_27">
    <path clip-path="url(#p7f118c2c93)" d="M 159.233058 410.875316 
L 162.507782 388.734845 
L 165.782506 369.917912 
L 169.05723 353.546363 
L 172.331954 339.048798 
L 175.606678 326.03252 
L 178.881402 314.216043 
L 182.156126 303.390736 
L 185.43085 293.397702 
L 188.705574 284.113173 
L 191.980298 275.438897 
L 195.255022 267.295623 
L 198.529747 259.618536 
L 201.804471 252.354002 
L 205.079195 245.457184 
L 208.353919 238.890268 
L 211.628643 232.621127 
L 214.903367 226.62229 
L 218.178091 220.870144 
L 224.727539 210.027152 
L 231.276987 199.959657 
L 237.826435 190.567959 
L 244.375883 181.777403 
L 250.925331 173.533138 
L 257.47478 165.796439 
L 264.024228 158.541982 
L 270.573676 151.75564 
L 277.123124 145.432469 
L 283.672572 139.574641 
L 290.22202 134.18914 
L 296.771468 129.285141 
L 303.320916 124.871117 
L 309.870364 120.951842 
L 316.419813 117.525588 
L 322.969261 114.581861 
L 329.518709 112.099975 
L 336.068157 110.048625 
L 342.617605 108.386423 
L 349.167053 107.063171 
L 355.716501 106.021558 
L 362.265949 105.198997 
L 372.090121 104.230827 
L 391.738466 102.419901 
L 398.287914 101.625377 
L 404.837362 100.653621 
L 411.38681 99.477313 
L 417.936258 98.089659 
L 424.485706 96.50693 
L 434.309879 93.858176 
L 453.958223 88.391568 
L 460.507671 86.780773 
L 467.057119 85.369465 
L 473.606567 84.187104 
L 480.156015 83.242888 
L 486.705463 82.527601 
L 493.254912 82.017029 
L 503.079084 81.555855 
L 516.17798 81.275849 
L 532.5516 80.923877 
L 542.375772 80.440374 
L 548.92522 79.931111 
L 555.474669 79.251099 
L 562.024117 78.401661 
L 571.848289 76.864001 
L 594.771357 73.011863 
L 601.320805 72.133752 
L 607.870253 71.441211 
L 614.419702 70.948809 
L 620.96915 70.6506 
L 627.518598 70.524659 
L 637.34277 70.586217 
L 647.166942 70.831821 
L 647.166942 70.831821 
" style="fill:none;stroke:#86cfa5;stroke-linecap:square;stroke-width:2;"/>
   </g>
   <g id="line2d_28">
    <path clip-path="url(#p7f118c2c93)" d="M 159.233058 294.034693 
L 162.507782 271.152825 
L 165.782506 251.450987 
L 169.05723 234.044971 
L 172.331954 218.356293 
L 175.606678 203.984134 
L 178.881402 190.637864 
L 182.156126 178.098769 
L 185.43085 166.197131 
L 191.980298 143.792316 
L 198.529747 122.62548 
L 205.079195 102.211205 
L 211.628643 82.44484 
L 214.903367 72.950869 
L 218.178091 63.933254 
L 221.452815 55.674733 
L 224.727539 48.547804 
L 228.002263 42.949267 
L 231.276987 39.173074 
L 234.551711 37.279932 
L 237.826435 37.061788 
L 241.101159 38.132136 
L 244.375883 40.065999 
L 247.650607 42.499973 
L 260.749504 53.103165 
L 264.024228 55.482623 
L 267.298952 57.665796 
L 270.573676 59.622657 
L 273.8484 61.314327 
L 277.123124 62.682436 
L 280.397848 63.635562 
L 283.672572 64.031122 
L 286.947296 63.652898 
L 290.22202 62.190968 
L 293.496744 59.248898 
L 296.771468 54.440462 
L 300.046192 47.686412 
L 303.320916 39.795433 
L 306.59564 33.001748 
L 309.870364 30.106373 
L 313.145088 31.838385 
L 316.419813 36.366365 
L 319.694537 41.662502 
L 322.969261 46.682933 
L 326.243985 51.100869 
L 329.518709 54.898264 
L 332.793433 58.154888 
L 336.068157 60.966681 
L 339.342881 63.419361 
L 342.617605 65.582184 
L 345.892329 67.508024 
L 349.167053 69.234527 
L 352.441777 70.78413 
L 355.716501 72.161326 
L 358.991225 73.344601 
L 362.265949 74.267513 
L 365.540673 74.775951 
L 368.815397 74.530856 
L 372.090121 72.789072 
L 375.364846 67.97567 
L 378.63957 57.466878 
L 381.914294 41.874372 
L 385.189018 38.361825 
L 391.738466 63.903127 
L 395.01319 73.414158 
L 398.287914 80.780249 
L 401.562638 86.680886 
L 404.837362 91.137374 
L 408.112086 93.896463 
L 411.38681 94.96453 
L 414.661534 94.815511 
L 424.485706 92.701025 
L 427.76043 92.349432 
L 431.035154 92.254565 
L 434.309879 92.376184 
L 444.134051 93.093879 
L 447.408775 92.327804 
L 450.683499 88.026973 
L 453.958223 68.319903 
L 457.232947 49.661294 
L 460.507671 81.643043 
L 463.782395 94.439916 
L 467.057119 101.018761 
L 470.331843 105.492149 
L 473.606567 108.445106 
L 476.881291 109.149389 
L 480.156015 106.538473 
L 483.430739 100.641705 
L 486.705463 93.215475 
L 489.980187 86.419314 
L 493.254912 81.426154 
L 496.529636 78.331525 
L 499.80436 76.713732 
L 503.079084 76.084221 
L 506.353808 76.063714 
L 509.628532 76.3987 
L 519.452704 78.025074 
L 522.727428 77.52736 
L 526.002152 47.810726 
L 529.276876 77.589256 
L 532.5516 80.705983 
L 535.826324 81.91351 
L 539.101048 82.753985 
L 542.375772 83.346479 
L 545.650496 83.587491 
L 548.92522 83.220161 
L 552.199945 81.8159 
L 555.474669 78.856906 
L 558.749393 74.154364 
L 562.024117 68.552487 
L 565.298841 63.886265 
L 568.573565 61.503904 
L 571.848289 61.282725 
L 575.123013 62.375539 
L 578.397737 64.093976 
L 588.221909 70.124236 
L 591.496633 71.827898 
L 594.771357 66.900911 
L 598.046081 75.000673 
L 601.320805 76.374805 
L 604.595529 77.495771 
L 607.870253 78.459198 
L 611.144978 79.29048 
L 614.419702 79.988522 
L 617.694426 80.51915 
L 620.96915 80.791058 
L 624.243874 80.604032 
L 627.518598 79.552619 
L 630.793322 76.91703 
L 634.068046 71.89285 
L 637.34277 65.194056 
L 640.617494 60.900678 
L 643.892218 61.848695 
L 647.166942 65.768617 
L 647.166942 65.768617 
" style="fill:none;stroke:#5e4fa2;stroke-linecap:square;stroke-width:2;"/>
   </g>
   <g id="patch_3">
    <path d="M 108 720.9 
L 108 56.7 
" style="fill:none;stroke:#000000;stroke-linecap:square;stroke-linejoin:miter;stroke-width:0.8;"/>
   </g>
   <g id="patch_4">
    <path d="M 698.4 720.9 
L 698.4 56.7 
" style="fill:none;stroke:#000000;stroke-linecap:square;stroke-linejoin:miter;stroke-width:0.8;"/>
   </g>
   <g id="patch_5">
    <path d="M 108 720.9 
L 698.4 720.9 
" style="fill:none;stroke:#000000;stroke-linecap:square;stroke-linejoin:miter;stroke-width:0.8;"/>
   </g>
   <g id="patch_6">
    <path d="M 108 56.7 
L 698.4 56.7 
" style="fill:none;stroke:#000000;stroke-linecap:square;stroke-linejoin:miter;stroke-width:0.8;"/>
   </g>
   <g id="legend_1">
    <g id="patch_7">
     <path d="M 122 710.9 
L 313.2 710.9 
Q 317.2 710.9 317.2 706.9 
L 317.2 591.475 
Q 317.2 587.475 313.2 587.475 
L 122 587.475 
Q 118 587.475 118 591.475 
L 118 706.9 
Q 118 710.9 122 710.9 
z
" style="fill:#ffffff;opacity:0.8;stroke:#cccccc;stroke-linejoin:miter;"/>
    </g>
    <g id="line2d_29">
     <path d="M 126 603.671875 
L 166 603.671875 
" style="fill:none;stroke:#f98e52;stroke-linecap:square;stroke-width:2;"/>
    </g>
    <g id="line2d_30"/>
    <g id="text_15">
     <!-- $n_{ref}=1.1000$ -->
     <g transform="translate(182 610.671875)scale(0.2 -0.2)">
      <defs>
       <path d="M 55.71875 33.015625 
L 49.3125 0 
L 40.28125 0 
L 46.6875 32.671875 
Q 47.125 34.96875 47.359375 36.71875 
Q 47.609375 38.484375 47.609375 39.5 
Q 47.609375 43.609375 45.015625 45.890625 
Q 42.4375 48.1875 37.796875 48.1875 
Q 30.5625 48.1875 25.34375 43.375 
Q 20.125 38.578125 18.5 30.328125 
L 12.5 0 
L 3.515625 0 
L 14.109375 54.6875 
L 23.09375 54.6875 
L 21.296875 46.09375 
Q 25.046875 50.828125 30.3125 53.40625 
Q 35.59375 56 41.40625 56 
Q 48.640625 56 52.609375 52.09375 
Q 56.59375 48.1875 56.59375 41.109375 
Q 56.59375 39.359375 56.375 37.359375 
Q 56.15625 35.359375 55.71875 33.015625 
z
" id="DejaVuSans-Oblique-110"/>
       <path d="M 44.578125 46.390625 
Q 43.21875 47.125 41.453125 47.515625 
Q 39.703125 47.90625 37.703125 47.90625 
Q 30.515625 47.90625 25.140625 42.453125 
Q 19.78125 37.015625 18.015625 27.875 
L 12.5 0 
L 3.515625 0 
L 14.203125 54.6875 
L 23.1875 54.6875 
L 21.484375 46.1875 
Q 25.046875 50.921875 30 53.453125 
Q 34.96875 56 40.578125 56 
Q 42.046875 56 43.453125 55.828125 
Q 44.875 55.671875 46.296875 55.28125 
z
" id="DejaVuSans-Oblique-114"/>
       <path d="M 48.09375 32.234375 
Q 48.25 33.015625 48.3125 33.84375 
Q 48.390625 34.671875 48.390625 35.5 
Q 48.390625 41.453125 44.890625 44.921875 
Q 41.40625 48.390625 35.40625 48.390625 
Q 28.71875 48.390625 23.578125 44.15625 
Q 18.453125 39.9375 15.828125 32.171875 
z
M 55.90625 25.203125 
L 14.109375 25.203125 
Q 13.8125 23.34375 13.71875 22.265625 
Q 13.625 21.1875 13.625 20.40625 
Q 13.625 13.625 17.796875 9.90625 
Q 21.96875 6.203125 29.59375 6.203125 
Q 35.453125 6.203125 40.671875 7.515625 
Q 45.90625 8.84375 50.390625 11.375 
L 48.6875 2.484375 
Q 43.84375 0.53125 38.6875 -0.4375 
Q 33.546875 -1.421875 28.21875 -1.421875 
Q 16.84375 -1.421875 10.71875 4.015625 
Q 4.59375 9.46875 4.59375 19.484375 
Q 4.59375 28.03125 7.640625 35.375 
Q 10.6875 42.71875 16.609375 48.484375 
Q 20.40625 52.09375 25.65625 54.046875 
Q 30.90625 56 36.8125 56 
Q 46.09375 56 51.578125 50.4375 
Q 57.078125 44.875 57.078125 35.5 
Q 57.078125 33.25 56.78125 30.6875 
Q 56.5 28.125 55.90625 25.203125 
z
" id="DejaVuSans-Oblique-101"/>
       <path d="M 47.796875 75.984375 
L 46.390625 68.5 
L 37.796875 68.5 
Q 32.90625 68.5 30.6875 66.578125 
Q 28.46875 64.65625 27.390625 59.515625 
L 26.421875 54.6875 
L 41.21875 54.6875 
L 39.890625 47.703125 
L 25.09375 47.703125 
L 15.828125 0 
L 6.78125 0 
L 16.109375 47.703125 
L 7.515625 47.703125 
L 8.796875 54.6875 
L 17.390625 54.6875 
L 18.109375 58.5 
Q 19.96875 68.171875 24.625 72.078125 
Q 29.296875 75.984375 39.3125 75.984375 
z
" id="DejaVuSans-Oblique-102"/>
       <path d="M 10.59375 45.40625 
L 73.1875 45.40625 
L 73.1875 37.203125 
L 10.59375 37.203125 
z
M 10.59375 25.484375 
L 73.1875 25.484375 
L 73.1875 17.1875 
L 10.59375 17.1875 
z
" id="DejaVuSans-61"/>
      </defs>
      <use transform="translate(0 0.78125)" xlink:href="#DejaVuSans-Oblique-110"/>
      <use transform="translate(63.378906 -15.625)scale(0.7)" xlink:href="#DejaVuSans-Oblique-114"/>
      <use transform="translate(92.158203 -15.625)scale(0.7)" xlink:href="#DejaVuSans-Oblique-101"/>
      <use transform="translate(135.224609 -15.625)scale(0.7)" xlink:href="#DejaVuSans-Oblique-102"/>
      <use transform="translate(182.084961 0.78125)" xlink:href="#DejaVuSans-61"/>
      <use transform="translate(285.356445 0.78125)" xlink:href="#DejaVuSans-49"/>
      <use transform="translate(348.979492 0.78125)" xlink:href="#DejaVuSans-46"/>
      <use transform="translate(380.766602 0.78125)" xlink:href="#DejaVuSans-49"/>
      <use transform="translate(444.389648 0.78125)" xlink:href="#DejaVuSans-48"/>
      <use transform="translate(508.012695 0.78125)" xlink:href="#DejaVuSans-48"/>
      <use transform="translate(571.635742 0.78125)" xlink:href="#DejaVuSans-48"/>
     </g>
    </g>
    <g id="line2d_31">
     <path d="M 126 633.028125 
L 166 633.028125 
" style="fill:none;stroke:#ffffbe;stroke-linecap:square;stroke-width:2;"/>
    </g>
    <g id="line2d_32"/>
    <g id="text_16">
     <!-- $n_{ref}=1.2000$ -->
     <g transform="translate(182 640.028125)scale(0.2 -0.2)">
      <use transform="translate(0 0.78125)" xlink:href="#DejaVuSans-Oblique-110"/>
      <use transform="translate(63.378906 -15.625)scale(0.7)" xlink:href="#DejaVuSans-Oblique-114"/>
      <use transform="translate(92.158203 -15.625)scale(0.7)" xlink:href="#DejaVuSans-Oblique-101"/>
      <use transform="translate(135.224609 -15.625)scale(0.7)" xlink:href="#DejaVuSans-Oblique-102"/>
      <use transform="translate(182.084961 0.78125)" xlink:href="#DejaVuSans-61"/>
      <use transform="translate(285.356445 0.78125)" xlink:href="#DejaVuSans-49"/>
      <use transform="translate(348.979492 0.78125)" xlink:href="#DejaVuSans-46"/>
      <use transform="translate(375.266602 0.78125)" xlink:href="#DejaVuSans-50"/>
      <use transform="translate(438.889648 0.78125)" xlink:href="#DejaVuSans-48"/>
      <use transform="translate(502.512695 0.78125)" xlink:href="#DejaVuSans-48"/>
      <use transform="translate(566.135742 0.78125)" xlink:href="#DejaVuSans-48"/>
     </g>
    </g>
    <g id="line2d_33">
     <path d="M 126 662.384375 
L 166 662.384375 
" style="fill:none;stroke:#86cfa5;stroke-linecap:square;stroke-width:2;"/>
    </g>
    <g id="line2d_34"/>
    <g id="text_17">
     <!-- $n_{ref}=1.5000$ -->
     <g transform="translate(182 669.384375)scale(0.2 -0.2)">
      <use transform="translate(0 0.78125)" xlink:href="#DejaVuSans-Oblique-110"/>
      <use transform="translate(63.378906 -15.625)scale(0.7)" xlink:href="#DejaVuSans-Oblique-114"/>
      <use transform="translate(92.158203 -15.625)scale(0.7)" xlink:href="#DejaVuSans-Oblique-101"/>
      <use transform="translate(135.224609 -15.625)scale(0.7)" xlink:href="#DejaVuSans-Oblique-102"/>
      <use transform="translate(182.084961 0.78125)" xlink:href="#DejaVuSans-61"/>
      <use transform="translate(285.356445 0.78125)" xlink:href="#DejaVuSans-49"/>
      <use transform="translate(348.979492 0.78125)" xlink:href="#DejaVuSans-46"/>
      <use transform="translate(380.766602 0.78125)" xlink:href="#DejaVuSans-53"/>
      <use transform="translate(444.389648 0.78125)" xlink:href="#DejaVuSans-48"/>
      <use transform="translate(508.012695 0.78125)" xlink:href="#DejaVuSans-48"/>
      <use transform="translate(571.635742 0.78125)" xlink:href="#DejaVuSans-48"/>
     </g>
    </g>
    <g id="line2d_35">
     <path d="M 126 691.740625 
L 166 691.740625 
" style="fill:none;stroke:#5e4fa2;stroke-linecap:square;stroke-width:2;"/>
    </g>
    <g id="line2d_36"/>
    <g id="text_18">
     <!-- $n_{ref}=3.0000$ -->
     <g transform="translate(182 698.740625)scale(0.2 -0.2)">
      <use transform="translate(0 0.78125)" xlink:href="#DejaVuSans-Oblique-110"/>
      <use transform="translate(63.378906 -15.625)scale(0.7)" xlink:href="#DejaVuSans-Oblique-114"/>
      <use transform="translate(92.158203 -15.625)scale(0.7)" xlink:href="#DejaVuSans-Oblique-101"/>
      <use transform="translate(135.224609 -15.625)scale(0.7)" xlink:href="#DejaVuSans-Oblique-102"/>
      <use transform="translate(182.084961 0.78125)" xlink:href="#DejaVuSans-61"/>
      <use transform="translate(285.356445 0.78125)" xlink:href="#DejaVuSans-51"/>
      <use transform="translate(348.979492 0.78125)" xlink:href="#DejaVuSans-46"/>
      <use transform="translate(380.766602 0.78125)" xlink:href="#DejaVuSans-48"/>
      <use transform="translate(444.389648 0.78125)" xlink:href="#DejaVuSans-48"/>
      <use transform="translate(508.012695 0.78125)" xlink:href="#DejaVuSans-48"/>
      <use transform="translate(571.635742 0.78125)" xlink:href="#DejaVuSans-48"/>
     </g>
    </g>
   </g>
  </g>
 </g>
 <defs>
  <clipPath id="p7f118c2c93">
   <rect height="664.2" width="590.4" x="108" y="56.7"/>
  </clipPath>
 </defs>
</svg>
