<?xml version="1.0" encoding="utf-8" standalone="no"?>
<!DOCTYPE svg PUBLIC "-//W3C//DTD SVG 1.1//EN"
  "http://www.w3.org/Graphics/SVG/1.1/DTD/svg11.dtd">
<!-- Created with matplotlib (https://matplotlib.org/) -->
<svg height="810pt" version="1.1" viewBox="0 0 720 810" width="720pt" xmlns="http://www.w3.org/2000/svg" xmlns:xlink="http://www.w3.org/1999/xlink">
 <metadata>
  <rdf:RDF xmlns:cc="http://creativecommons.org/ns#" xmlns:dc="http://purl.org/dc/elements/1.1/" xmlns:rdf="http://www.w3.org/1999/02/22-rdf-syntax-ns#">
   <cc:Work>
    <dc:type rdf:resource="http://purl.org/dc/dcmitype/StillImage"/>
    <dc:date>2020-12-03T00:18:41.188704</dc:date>
    <dc:format>image/svg+xml</dc:format>
    <dc:creator>
     <cc:Agent>
      <dc:title>Matplotlib v3.3.1, https://matplotlib.org/</dc:title>
     </cc:Agent>
    </dc:creator>
   </cc:Work>
  </rdf:RDF>
 </metadata>
 <defs>
  <style type="text/css">*{stroke-linecap:butt;stroke-linejoin:round;}</style>
 </defs>
 <g id="figure_1">
  <g id="patch_1">
   <path d="M 0 810 
L 720 810 
L 720 0 
L 0 0 
z
" style="fill:#ffffff;"/>
  </g>
  <g id="axes_1">
   <g id="patch_2">
    <path d="M 108 720.9 
L 698.4 720.9 
L 698.4 56.7 
L 108 56.7 
z
" style="fill:#ffffff;"/>
   </g>
   <g id="matplotlib.axis_1">
    <g id="xtick_1">
     <g id="line2d_1">
      <path clip-path="url(#p7866fd045a)" d="M 108 720.9 
L 108 56.7 
" style="fill:none;stroke:#e6e6e6;stroke-linecap:square;stroke-width:0.8;"/>
     </g>
     <g id="line2d_2">
      <defs>
       <path d="M 0 0 
L 0 -3.5 
" id="mf6f52fba4a" style="stroke:#000000;stroke-width:0.8;"/>
      </defs>
      <g>
       <use style="stroke:#000000;stroke-width:0.8;" x="108" xlink:href="#mf6f52fba4a" y="720.9"/>
      </g>
     </g>
     <g id="text_1">
      <!-- $\mathdefault{0}$ -->
      <g transform="translate(104.341881 734.777725)scale(0.15 -0.15)">
       <defs>
        <path d="M 42 31.640625 
C 42 37.75 41.90625 48.125 37.703125 56.109375 
C 34 63.109375 28.09375 65.59375 22.90625 65.59375 
C 18.09375 65.59375 12 63.40625 8.203125 56.203125 
C 4.203125 48.71875 3.796875 39.4375 3.796875 31.640625 
C 3.796875 25.953125 3.90625 17.28125 7 9.671875 
C 11.296875 -0.609375 19 -2 22.90625 -2 
C 27.5 -2 34.5 -0.109375 38.59375 9.375 
C 41.59375 16.28125 42 24.359375 42 31.640625 
z
M 22.90625 -0.40625 
C 16.5 -0.40625 12.703125 5.078125 11.296875 12.6875 
C 10.203125 18.5625 10.203125 27.15625 10.203125 32.75 
C 10.203125 40.4375 10.203125 46.828125 11.5 52.921875 
C 13.40625 61.390625 19 64 22.90625 64 
C 27 64 32.296875 61.296875 34.203125 53.125 
C 35.5 47.4375 35.59375 40.734375 35.59375 32.75 
C 35.59375 26.25 35.59375 18.265625 34.40625 12.375 
C 32.296875 1.484375 26.40625 -0.40625 22.90625 -0.40625 
z
" id="CMR17-48"/>
       </defs>
       <use transform="scale(0.996264)" xlink:href="#CMR17-48"/>
      </g>
     </g>
    </g>
    <g id="xtick_2">
     <g id="line2d_3">
      <path clip-path="url(#p7866fd045a)" d="M 206.4 720.9 
L 206.4 56.7 
" style="fill:none;stroke:#e6e6e6;stroke-linecap:square;stroke-width:0.8;"/>
     </g>
     <g id="line2d_4">
      <g>
       <use style="stroke:#000000;stroke-width:0.8;" x="206.4" xlink:href="#mf6f52fba4a" y="720.9"/>
      </g>
     </g>
     <g id="text_2">
      <!-- $\mathdefault{10}$ -->
      <g transform="translate(199.083762 734.777725)scale(0.15 -0.15)">
       <defs>
        <path d="M 26.59375 63.40625 
C 26.59375 65.5 26.5 65.5 25.09375 65.5 
C 21.203125 61.1875 15.296875 59.796875 9.703125 59.796875 
C 9.40625 59.796875 8.90625 59.796875 8.796875 59.5 
C 8.703125 59.296875 8.703125 59.09375 8.703125 57 
C 11.796875 57 17 57.59375 21 59.984375 
L 21 7.203125 
C 21 3.6875 20.796875 2.5 12.203125 2.5 
L 9.203125 2.5 
L 9.203125 0 
C 14 0 19 0 23.796875 0 
C 28.59375 0 33.59375 0 38.40625 0 
L 38.40625 2.5 
L 35.40625 2.5 
C 26.796875 2.5 26.59375 3.59375 26.59375 7.15625 
z
" id="CMR17-49"/>
       </defs>
       <use transform="scale(0.996264)" xlink:href="#CMR17-49"/>
       <use transform="translate(45.690477 0)scale(0.996264)" xlink:href="#CMR17-48"/>
      </g>
     </g>
    </g>
    <g id="xtick_3">
     <g id="line2d_5">
      <path clip-path="url(#p7866fd045a)" d="M 304.8 720.9 
L 304.8 56.7 
" style="fill:none;stroke:#e6e6e6;stroke-linecap:square;stroke-width:0.8;"/>
     </g>
     <g id="line2d_6">
      <g>
       <use style="stroke:#000000;stroke-width:0.8;" x="304.8" xlink:href="#mf6f52fba4a" y="720.9"/>
      </g>
     </g>
     <g id="text_3">
      <!-- $\mathdefault{20}$ -->
      <g transform="translate(297.483762 734.777725)scale(0.15 -0.15)">
       <defs>
        <path d="M 41.703125 15.453125 
L 39.90625 15.453125 
C 38.90625 8.375 38.09375 7.171875 37.703125 6.5625 
C 37.203125 5.765625 30 5.765625 28.59375 5.765625 
L 9.40625 5.765625 
C 13 9.671875 20 16.75 28.5 24.953125 
C 34.59375 30.734375 41.703125 37.53125 41.703125 47.421875 
C 41.703125 59.21875 32.296875 66 21.796875 66 
C 10.796875 66 4.09375 56.3125 4.09375 47.34375 
C 4.09375 43.4375 7 42.9375 8.203125 42.9375 
C 9.203125 42.9375 12.203125 43.546875 12.203125 47.03125 
C 12.203125 50.109375 9.59375 51 8.203125 51 
C 7.59375 51 7 50.90625 6.59375 50.703125 
C 8.5 59.21875 14.296875 63.40625 20.40625 63.40625 
C 29.09375 63.40625 34.796875 56.515625 34.796875 47.421875 
C 34.796875 38.734375 29.703125 31.25 24 24.75 
L 4.09375 2.28125 
L 4.09375 0 
L 39.296875 0 
z
" id="CMR17-50"/>
       </defs>
       <use transform="scale(0.996264)" xlink:href="#CMR17-50"/>
       <use transform="translate(45.690477 0)scale(0.996264)" xlink:href="#CMR17-48"/>
      </g>
     </g>
    </g>
    <g id="xtick_4">
     <g id="line2d_7">
      <path clip-path="url(#p7866fd045a)" d="M 403.2 720.9 
L 403.2 56.7 
" style="fill:none;stroke:#e6e6e6;stroke-linecap:square;stroke-width:0.8;"/>
     </g>
     <g id="line2d_8">
      <g>
       <use style="stroke:#000000;stroke-width:0.8;" x="403.2" xlink:href="#mf6f52fba4a" y="720.9"/>
      </g>
     </g>
     <g id="text_4">
      <!-- $\mathdefault{30}$ -->
      <g transform="translate(395.883762 734.777725)scale(0.15 -0.15)">
       <defs>
        <path d="M 22.09375 33.703125 
C 31 33.703125 34.90625 25.96875 34.90625 17.03125 
C 34.90625 5 28.5 0.390625 22.703125 0.390625 
C 17.40625 0.390625 8.796875 3.03125 6.09375 10.828125 
C 6.59375 10.625 7.09375 10.625 7.59375 10.625 
C 10 10.625 11.796875 12.21875 11.796875 14.8125 
C 11.796875 17.703125 9.59375 19 7.59375 19 
C 5.90625 19 3.296875 18.203125 3.296875 14.46875 
C 3.296875 5.234375 12.296875 -2 22.90625 -2 
C 34 -2 42.5 6.71875 42.5 16.953125 
C 42.5 26.671875 34.5 33.703125 25 34.796875 
C 32.59375 36.375 39.90625 43.0625 39.90625 52.015625 
C 39.90625 59.6875 32 65.296875 23 65.296875 
C 13.90625 65.296875 5.90625 59.828125 5.90625 52.015625 
C 5.90625 48.59375 8.5 48 9.796875 48 
C 11.90625 48 13.703125 49.296875 13.703125 51.890625 
C 13.703125 54.46875 11.90625 55.765625 9.796875 55.765625 
C 9.40625 55.765625 8.90625 55.765625 8.5 55.578125 
C 11.40625 61.859375 19.296875 63 22.796875 63 
C 26.296875 63 32.90625 61.328125 32.90625 51.875 
C 32.90625 49.109375 32.5 44.1875 29.09375 39.84375 
C 26.09375 36 22.703125 36 19.40625 35.6875 
C 18.90625 35.6875 16.59375 35.453125 16.203125 35.453125 
C 15.5 35.359375 15.09375 35.265625 15.09375 34.5 
C 15.09375 33.796875 15.203125 33.703125 17.203125 33.703125 
z
" id="CMR17-51"/>
       </defs>
       <use transform="scale(0.996264)" xlink:href="#CMR17-51"/>
       <use transform="translate(45.690477 0)scale(0.996264)" xlink:href="#CMR17-48"/>
      </g>
     </g>
    </g>
    <g id="xtick_5">
     <g id="line2d_9">
      <path clip-path="url(#p7866fd045a)" d="M 501.6 720.9 
L 501.6 56.7 
" style="fill:none;stroke:#e6e6e6;stroke-linecap:square;stroke-width:0.8;"/>
     </g>
     <g id="line2d_10">
      <g>
       <use style="stroke:#000000;stroke-width:0.8;" x="501.6" xlink:href="#mf6f52fba4a" y="720.9"/>
      </g>
     </g>
     <g id="text_5">
      <!-- $\mathdefault{40}$ -->
      <g transform="translate(494.283762 734.777725)scale(0.15 -0.15)">
       <defs>
        <path d="M 33.59375 64.40625 
C 33.59375 66.5 33.5 66.5 31.703125 66.5 
L 2 19.59375 
L 2 17 
L 27.796875 17 
L 27.796875 7.140625 
C 27.796875 3.5 27.59375 2.5 20.59375 2.5 
L 18.703125 2.5 
L 18.703125 0 
C 21.90625 0 27.296875 0 30.703125 0 
C 34.09375 0 39.5 0 42.703125 0 
L 42.703125 2.5 
L 40.796875 2.5 
C 33.796875 2.5 33.59375 3.5 33.59375 7.140625 
L 33.59375 17 
L 43.796875 17 
L 43.796875 19.59375 
L 33.59375 19.59375 
z
M 28.09375 57.859375 
L 28.09375 19.59375 
L 4 19.59375 
z
" id="CMR17-52"/>
       </defs>
       <use transform="scale(0.996264)" xlink:href="#CMR17-52"/>
       <use transform="translate(45.690477 0)scale(0.996264)" xlink:href="#CMR17-48"/>
      </g>
     </g>
    </g>
    <g id="xtick_6">
     <g id="line2d_11">
      <path clip-path="url(#p7866fd045a)" d="M 600 720.9 
L 600 56.7 
" style="fill:none;stroke:#e6e6e6;stroke-linecap:square;stroke-width:0.8;"/>
     </g>
     <g id="line2d_12">
      <g>
       <use style="stroke:#000000;stroke-width:0.8;" x="600" xlink:href="#mf6f52fba4a" y="720.9"/>
      </g>
     </g>
     <g id="text_6">
      <!-- $\mathdefault{50}$ -->
      <g transform="translate(592.683762 734.777725)scale(0.15 -0.15)">
       <defs>
        <path d="M 11.40625 57.6875 
C 12.40625 57.28125 16.5 56 20.703125 56 
C 30 56 35.09375 61.109375 38 64.0625 
C 38 64.953125 38 65.5 37.40625 65.5 
C 37.296875 65.5 37.09375 65.5 36.296875 65.046875 
C 32.796875 63.40625 28.703125 62.078125 23.703125 62.078125 
C 20.703125 62.078125 16.203125 62.484375 11.296875 64.671875 
C 10.203125 65.171875 10 65.171875 9.90625 65.171875 
C 9.40625 65.171875 9.296875 65.0625 9.296875 63.078125 
L 9.296875 34.421875 
C 9.296875 32.640625 9.296875 32.140625 10.296875 32.140625 
C 10.796875 32.140625 11 32.34375 11.5 33.03125 
C 14.703125 37.515625 19.09375 39.40625 24.09375 39.40625 
C 27.59375 39.40625 35.09375 37.21875 35.09375 20.140625 
C 35.09375 16.953125 35.09375 11.171875 32.09375 6.578125 
C 29.59375 2.484375 25.703125 0.390625 21.40625 0.390625 
C 14.796875 0.390625 8.09375 5 6.296875 12.71875 
C 6.703125 12.609375 7.5 12.421875 7.90625 12.421875 
C 9.203125 12.421875 11.703125 13.125 11.703125 16.21875 
C 11.703125 18.90625 9.796875 20 7.90625 20 
C 5.59375 20 4.09375 18.59375 4.09375 15.796875 
C 4.09375 7.09375 11 -2 21.59375 -2 
C 31.90625 -2 41.703125 6.875 41.703125 19.75 
C 41.703125 31.71875 33.90625 41 24.203125 41 
C 19.09375 41 14.796875 39.109375 11.40625 35.53125 
z
" id="CMR17-53"/>
       </defs>
       <use transform="scale(0.996264)" xlink:href="#CMR17-53"/>
       <use transform="translate(45.690477 0)scale(0.996264)" xlink:href="#CMR17-48"/>
      </g>
     </g>
    </g>
    <g id="xtick_7">
     <g id="line2d_13">
      <path clip-path="url(#p7866fd045a)" d="M 698.4 720.9 
L 698.4 56.7 
" style="fill:none;stroke:#e6e6e6;stroke-linecap:square;stroke-width:0.8;"/>
     </g>
     <g id="line2d_14">
      <g>
       <use style="stroke:#000000;stroke-width:0.8;" x="698.4" xlink:href="#mf6f52fba4a" y="720.9"/>
      </g>
     </g>
     <g id="text_7">
      <!-- $\mathdefault{60}$ -->
      <g transform="translate(691.083762 734.777725)scale(0.15 -0.15)">
       <defs>
        <path d="M 10.59375 34 
C 10.59375 57.65625 21.796875 63 28.296875 63 
C 30.40625 63 35.5 62.640625 37.5 59 
C 35.90625 59 32.90625 59 32.90625 55.515625 
C 32.90625 52.828125 35.09375 51.921875 36.5 51.921875 
C 37.40625 51.921875 40.09375 52.3125 40.09375 55.625 
C 40.09375 61.78125 35.09375 65.296875 28.203125 65.296875 
C 16.296875 65.296875 3.796875 52.96875 3.796875 31 
C 3.796875 3.953125 15.09375 -2 23.09375 -2 
C 32.796875 -2 42 6.671875 42 20.046875 
C 42 32.515625 33.90625 41.59375 23.703125 41.59375 
C 17.59375 41.59375 13.09375 37.609375 10.59375 30.625 
z
M 23.09375 0.390625 
C 10.796875 0.390625 10.796875 18.75 10.796875 22.4375 
C 10.796875 29.625 14.203125 40 23.5 40 
C 25.203125 40 30.09375 40 33.40625 33.125 
C 35.203125 29.21875 35.203125 25.140625 35.203125 20.140625 
C 35.203125 14.75 35.203125 10.78125 33.09375 6.78125 
C 30.90625 2.671875 27.703125 0.390625 23.09375 0.390625 
z
" id="CMR17-54"/>
       </defs>
       <use transform="scale(0.996264)" xlink:href="#CMR17-54"/>
       <use transform="translate(45.690477 0)scale(0.996264)" xlink:href="#CMR17-48"/>
      </g>
     </g>
    </g>
    <g id="text_8">
     <!-- $\theta(^{\circ})$ -->
     <g transform="translate(383.750923 760.340997)scale(0.25 -0.25)">
      <defs>
       <path d="M 44.296875 50 
C 44.296875 60.15625 41.09375 70 32.90625 70 
C 18.90625 70 4 40.859375 4 19 
C 4 14.421875 5 -1 15.5 -1 
C 29.09375 -1 44.296875 27.4375 44.296875 50 
z
M 14 36 
C 15.5 41.859375 17.59375 50.21875 21.59375 57.265625 
C 24.90625 63.234375 28.40625 68 32.796875 68 
C 36.09375 68 38.296875 65.21875 38.296875 55.6875 
C 38.296875 52.09375 38 47.140625 35.09375 36 
z
M 34.40625 33.015625 
C 31.90625 23.28125 29.796875 17 26.203125 10.734375 
C 23.296875 5.671875 19.796875 1 15.59375 1 
C 12.5 1 10 3.390625 10 13.21875 
C 10 19.6875 11.59375 26.453125 13.203125 33.015625 
z
" id="CMMI12-18"/>
       <path d="M 30.59375 -24.390625 
C 30.59375 -24.296875 30.59375 -24.09375 30.296875 -23.796875 
C 25.703125 -19.125 13.40625 -6.359375 13.40625 24.703125 
C 13.40625 55.765625 25.5 68.421875 30.40625 73.390625 
C 30.40625 73.5 30.59375 73.703125 30.59375 74 
C 30.59375 74.296875 30.296875 74.5 29.90625 74.5 
C 28.796875 74.5 20.296875 67.125 15.40625 56.15625 
C 10.40625 45.109375 9 34.359375 9 24.8125 
C 9 17.625 9.703125 5.484375 15.703125 -7.359375 
C 20.5 -17.734375 28.703125 -25 29.90625 -25 
C 30.40625 -25 30.59375 -24.796875 30.59375 -24.390625 
z
" id="CMR17-40"/>
       <path d="M 44.40625 25 
C 44.40625 35.578125 35.5 44.1875 25 44.1875 
C 14.203125 44.1875 5.5 35.375 5.5 25 
C 5.5 14.53125 14.203125 5.8125 25 5.8125 
C 35.5 5.8125 44.40625 14.421875 44.40625 25 
z
M 25 9.8125 
C 16.296875 9.8125 9.5 16.71875 9.5 25 
C 9.5 33.28125 16.40625 40.1875 25 40.1875 
C 33.296875 40.1875 40.40625 33.46875 40.40625 25 
C 40.40625 16.53125 33.296875 9.8125 25 9.8125 
z
" id="CMSY10-14"/>
       <path d="M 26.296875 24.703125 
C 26.296875 31.875 25.59375 44.015625 19.59375 56.859375 
C 14.796875 67.234375 6.59375 74.5 5.40625 74.5 
C 5.09375 74.5 4.703125 74.390625 4.703125 73.890625 
C 4.703125 73.703125 4.796875 73.59375 4.90625 73.390625 
C 9.703125 68.40625 21.90625 55.75 21.90625 24.75 
C 21.90625 -6.359375 9.796875 -19.015625 4.90625 -24.015625 
C 4.796875 -24.203125 4.703125 -24.3125 4.703125 -24.5 
C 4.703125 -25 5.09375 -25 5.40625 -25 
C 6.5 -25 15 -17.625 19.90625 -6.65625 
C 24.90625 4.390625 26.296875 15.140625 26.296875 24.703125 
z
" id="CMR17-41"/>
      </defs>
      <use transform="scale(0.996264)" xlink:href="#CMMI12-18"/>
      <use transform="translate(48.169508 0)scale(0.996264)" xlink:href="#CMR17-40"/>
      <use transform="translate(83.450276 36.153639)scale(0.697382)" xlink:href="#CMSY10-14"/>
      <use transform="translate(118.817618 0)scale(0.996264)" xlink:href="#CMR17-41"/>
     </g>
    </g>
   </g>
   <g id="matplotlib.axis_2">
    <g id="ytick_1">
     <g id="line2d_15">
      <path clip-path="url(#p7866fd045a)" d="M 108 663.264014 
L 698.4 663.264014 
" style="fill:none;stroke:#e6e6e6;stroke-linecap:square;stroke-width:0.8;"/>
     </g>
     <g id="line2d_16">
      <defs>
       <path d="M 0 0 
L 3.5 0 
" id="m1ec72e6f27" style="stroke:#000000;stroke-width:0.8;"/>
      </defs>
      <g>
       <use style="stroke:#000000;stroke-width:0.8;" x="108" xlink:href="#m1ec72e6f27" y="663.264014"/>
      </g>
     </g>
     <g id="text_9">
      <!-- $\mathdefault{0.0}$ -->
      <g transform="translate(85.802948 668.452877)scale(0.15 -0.15)">
       <defs>
        <path d="M 18.40625 4.796875 
C 18.40625 7.6875 16 9.671875 13.59375 9.671875 
C 10.703125 9.671875 8.703125 7.28125 8.703125 4.890625 
C 8.703125 2 11.09375 0 13.5 0 
C 16.40625 0 18.40625 2.390625 18.40625 4.796875 
z
" id="CMMI12-58"/>
       </defs>
       <use transform="scale(0.996264)" xlink:href="#CMR17-48"/>
       <use transform="translate(45.690477 0)scale(0.996264)" xlink:href="#CMMI12-58"/>
       <use transform="translate(72.787654 0)scale(0.996264)" xlink:href="#CMR17-48"/>
      </g>
     </g>
    </g>
    <g id="ytick_2">
     <g id="line2d_17">
      <path clip-path="url(#p7866fd045a)" d="M 108 553.47865 
L 698.4 553.47865 
" style="fill:none;stroke:#e6e6e6;stroke-linecap:square;stroke-width:0.8;"/>
     </g>
     <g id="line2d_18">
      <g>
       <use style="stroke:#000000;stroke-width:0.8;" x="108" xlink:href="#m1ec72e6f27" y="553.47865"/>
      </g>
     </g>
     <g id="text_10">
      <!-- $\mathdefault{0.2}$ -->
      <g transform="translate(85.802948 558.667512)scale(0.15 -0.15)">
       <use transform="scale(0.996264)" xlink:href="#CMR17-48"/>
       <use transform="translate(45.690477 0)scale(0.996264)" xlink:href="#CMMI12-58"/>
       <use transform="translate(72.787654 0)scale(0.996264)" xlink:href="#CMR17-50"/>
      </g>
     </g>
    </g>
    <g id="ytick_3">
     <g id="line2d_19">
      <path clip-path="url(#p7866fd045a)" d="M 108 443.693285 
L 698.4 443.693285 
" style="fill:none;stroke:#e6e6e6;stroke-linecap:square;stroke-width:0.8;"/>
     </g>
     <g id="line2d_20">
      <g>
       <use style="stroke:#000000;stroke-width:0.8;" x="108" xlink:href="#m1ec72e6f27" y="443.693285"/>
      </g>
     </g>
     <g id="text_11">
      <!-- $\mathdefault{0.4}$ -->
      <g transform="translate(85.802948 448.882147)scale(0.15 -0.15)">
       <use transform="scale(0.996264)" xlink:href="#CMR17-48"/>
       <use transform="translate(45.690477 0)scale(0.996264)" xlink:href="#CMMI12-58"/>
       <use transform="translate(72.787654 0)scale(0.996264)" xlink:href="#CMR17-52"/>
      </g>
     </g>
    </g>
    <g id="ytick_4">
     <g id="line2d_21">
      <path clip-path="url(#p7866fd045a)" d="M 108 333.90792 
L 698.4 333.90792 
" style="fill:none;stroke:#e6e6e6;stroke-linecap:square;stroke-width:0.8;"/>
     </g>
     <g id="line2d_22">
      <g>
       <use style="stroke:#000000;stroke-width:0.8;" x="108" xlink:href="#m1ec72e6f27" y="333.90792"/>
      </g>
     </g>
     <g id="text_12">
      <!-- $\mathdefault{0.6}$ -->
      <g transform="translate(85.802948 339.096782)scale(0.15 -0.15)">
       <use transform="scale(0.996264)" xlink:href="#CMR17-48"/>
       <use transform="translate(45.690477 0)scale(0.996264)" xlink:href="#CMMI12-58"/>
       <use transform="translate(72.787654 0)scale(0.996264)" xlink:href="#CMR17-54"/>
      </g>
     </g>
    </g>
    <g id="ytick_5">
     <g id="line2d_23">
      <path clip-path="url(#p7866fd045a)" d="M 108 224.122555 
L 698.4 224.122555 
" style="fill:none;stroke:#e6e6e6;stroke-linecap:square;stroke-width:0.8;"/>
     </g>
     <g id="line2d_24">
      <g>
       <use style="stroke:#000000;stroke-width:0.8;" x="108" xlink:href="#m1ec72e6f27" y="224.122555"/>
      </g>
     </g>
     <g id="text_13">
      <!-- $\mathdefault{0.8}$ -->
      <g transform="translate(85.802948 229.311417)scale(0.15 -0.15)">
       <defs>
        <path d="M 27.203125 35.375 
C 33.5 38.546875 39.90625 43.328125 39.90625 50.984375 
C 39.90625 60.015625 31.09375 65.296875 23 65.296875 
C 13.90625 65.296875 5.90625 58.734375 5.90625 49.6875 
C 5.90625 47.203125 6.5 42.921875 10.40625 39.140625 
C 11.40625 38.15625 15.59375 35.171875 18.296875 33.28125 
C 13.796875 30.984375 3.296875 25.53125 3.296875 14.59375 
C 3.296875 4.359375 13.09375 -2 22.796875 -2 
C 33.5 -2 42.5 5.65625 42.5 15.78125 
C 42.5 24.84375 36.40625 29.015625 32.40625 31.703125 
z
M 14.09375 44.09375 
C 13.296875 44.59375 9.296875 47.671875 9.296875 52.359375 
C 9.296875 58.421875 15.59375 63 22.796875 63 
C 30.703125 63 36.5 57.4375 36.5 50.96875 
C 36.5 41.703125 26.09375 36.421875 25.59375 36.421875 
C 25.5 36.421875 25.40625 36.421875 24.59375 37.03125 
z
M 32.5 23.734375 
C 34 22.640625 38.796875 19.375 38.796875 13.296875 
C 38.796875 5.953125 31.40625 0.390625 23 0.390625 
C 13.90625 0.390625 7 6.84375 7 14.6875 
C 7 22.546875 13.09375 29.09375 20 32.1875 
z
" id="CMR17-56"/>
       </defs>
       <use transform="scale(0.996264)" xlink:href="#CMR17-48"/>
       <use transform="translate(45.690477 0)scale(0.996264)" xlink:href="#CMMI12-58"/>
       <use transform="translate(72.787654 0)scale(0.996264)" xlink:href="#CMR17-56"/>
      </g>
     </g>
    </g>
    <g id="ytick_6">
     <g id="line2d_25">
      <path clip-path="url(#p7866fd045a)" d="M 108 114.33719 
L 698.4 114.33719 
" style="fill:none;stroke:#e6e6e6;stroke-linecap:square;stroke-width:0.8;"/>
     </g>
     <g id="line2d_26">
      <g>
       <use style="stroke:#000000;stroke-width:0.8;" x="108" xlink:href="#m1ec72e6f27" y="114.33719"/>
      </g>
     </g>
     <g id="text_14">
      <!-- $\mathdefault{1.0}$ -->
      <g transform="translate(85.802948 119.526052)scale(0.15 -0.15)">
       <use transform="scale(0.996264)" xlink:href="#CMR17-49"/>
       <use transform="translate(45.690477 0)scale(0.996264)" xlink:href="#CMMI12-58"/>
       <use transform="translate(72.787654 0)scale(0.996264)" xlink:href="#CMR17-48"/>
      </g>
     </g>
    </g>
    <g id="text_15">
     <!-- $|f(\theta)|$ -->
     <g transform="translate(75.576298 417.899913)rotate(-90)scale(0.25 -0.25)">
      <defs>
       <path d="M 15.90625 71.40625 
C 15.90625 73.203125 15.90625 75 13.90625 75 
C 11.90625 75 11.90625 73.203125 11.90625 71.40625 
L 11.90625 -21.40625 
C 11.90625 -23.203125 11.90625 -25 13.90625 -25 
C 15.90625 -25 15.90625 -23.203125 15.90625 -21.40625 
z
" id="CMSY10-106"/>
       <path d="M 44.59375 40.09375 
C 46.59375 40.09375 47.40625 40.09375 47.40625 42 
C 47.40625 43 46.59375 43 44.796875 43 
L 36.703125 43 
C 38.59375 53.578125 40 60.890625 40.796875 64.171875 
C 41.40625 66.640625 43.5 69 46.09375 69 
C 48.203125 69 50.296875 68.09375 51.296875 67.15625 
C 47.40625 66.75 46.203125 63.78125 46.203125 62.015625 
C 46.203125 59.953125 47.703125 58.734375 49.59375 58.734375 
C 51.59375 58.734375 54.59375 60.46875 54.59375 64.359375 
C 54.59375 68.640625 50.40625 71 46 71 
C 41.703125 71 37.5 67.71875 35.5 63.71875 
C 33.703125 60.125 32.703125 56.421875 30.40625 43 
L 23.703125 43 
C 21.796875 43 20.796875 43 20.796875 41.203125 
C 20.796875 40.09375 21.40625 40.09375 23.40625 40.09375 
L 29.796875 40.09375 
C 28 30.875 23.90625 8.46875 21.59375 -2.140625 
C 19.90625 -10.765625 18.40625 -18 13.40625 -18 
C 13.09375 -18 10.203125 -18 8.40625 -16.109375 
C 13.5 -15.703125 13.5 -11.34375 13.5 -11.25 
C 13.5 -9.265625 12 -8.078125 10.09375 -8.078125 
C 8.09375 -8.078125 5.09375 -9.765625 5.09375 -13.546875 
C 5.09375 -17.8125 9.5 -20 13.40625 -20 
C 23.59375 -20 27.796875 -1.84375 28.90625 3.109375 
C 30.703125 10.75 35.59375 37.125 36.09375 40.09375 
z
" id="CMMI12-102"/>
      </defs>
      <use transform="scale(0.996264)" xlink:href="#CMSY10-106"/>
      <use transform="translate(27.674085 0)scale(0.996264)" xlink:href="#CMMI12-102"/>
      <use transform="translate(86.39439 0)scale(0.996264)" xlink:href="#CMR17-40"/>
      <use transform="translate(121.675157 0)scale(0.996264)" xlink:href="#CMMI12-18"/>
      <use transform="translate(169.844665 0)scale(0.996264)" xlink:href="#CMR17-41"/>
      <use transform="translate(205.125433 0)scale(0.996264)" xlink:href="#CMSY10-106"/>
     </g>
    </g>
   </g>
   <g id="line2d_27">
    <path clip-path="url(#p7866fd045a)" d="M 108.00984 114.33719 
L 109.649813 116.792591 
L 111.289785 124.058185 
L 112.929758 136.008273 
L 114.569731 152.435898 
L 116.209703 173.056006 
L 117.849676 197.509607 
L 119.489649 225.368578 
L 121.129621 256.14066 
L 124.409567 324.158933 
L 130.969457 466.700912 
L 132.60943 498.493573 
L 134.249403 526.132509 
L 135.889375 547.624204 
L 137.529348 560.811184 
L 139.169321 564.613122 
L 140.809293 560.402826 
L 142.449266 551.340343 
L 145.729211 529.947906 
L 147.369184 520.978128 
L 149.009157 514.268048 
L 150.649129 510.157118 
L 152.289102 508.757375 
L 153.929075 510.023823 
L 155.569047 513.795494 
L 157.20902 519.820512 
L 158.848993 527.771766 
L 160.488965 537.25613 
L 163.768911 558.938114 
L 167.048856 580.411283 
L 168.688829 589.361428 
L 170.328801 596.148173 
L 171.968774 600.234925 
L 173.608747 601.52873 
L 175.248719 600.489713 
L 176.888692 597.945632 
L 180.168637 591.712431 
L 181.80861 589.272798 
L 183.448583 587.793173 
L 185.088555 587.460986 
L 186.728528 588.349705 
L 188.368501 590.443407 
L 190.008473 593.653672 
L 191.648446 597.830615 
L 193.288419 602.769104 
L 198.208337 619.27799 
L 199.848309 624.086542 
L 201.488282 627.79461 
L 203.128255 630.008062 
L 204.768227 630.586277 
L 206.4082 629.751998 
L 208.048173 627.992455 
L 211.328118 623.766999 
L 212.968091 622.073445 
L 214.608063 620.975548 
L 216.248036 620.592381 
L 217.888009 620.973412 
L 219.527981 622.112589 
L 221.167954 623.957601 
L 222.807927 626.415454 
L 224.447899 629.354813 
L 229.367817 639.121844 
L 231.00779 641.798796 
L 232.647763 643.640734 
L 234.287735 644.401839 
L 235.927708 644.080486 
L 237.567681 642.942906 
L 242.487599 638.26313 
L 244.127571 637.155455 
L 245.767544 636.510999 
L 247.407517 636.384686 
L 249.047489 636.79112 
L 250.687462 637.711634 
L 252.327435 639.098471 
L 253.967407 640.876635 
L 257.247353 645.163614 
L 258.887325 647.363238 
L 260.527298 649.318588 
L 262.167271 650.763861 
L 263.807243 651.456469 
L 265.447216 651.314678 
L 267.087189 650.494758 
L 273.647079 645.796526 
L 275.287052 645.152649 
L 276.927025 644.882303 
L 278.566997 645.003502 
L 280.20697 645.510141 
L 281.846943 646.37505 
L 283.486915 647.551346 
L 285.126888 648.971999 
L 290.046806 653.638718 
L 291.686779 654.787956 
L 293.326751 655.385885 
L 294.966724 655.320907 
L 296.606697 654.690095 
L 299.886642 652.663269 
L 301.526615 651.664617 
L 303.166587 650.84112 
L 304.80656 650.260854 
L 306.446533 649.9627 
L 308.086505 649.963579 
L 309.726478 650.262537 
L 311.366451 650.842994 
L 313.006423 651.673729 
L 314.646396 652.708586 
L 319.566314 656.28151 
L 321.206287 657.221215 
L 322.846259 657.742211 
L 324.486232 657.720435 
L 326.126205 657.21633 
L 329.40615 655.544557 
L 331.046123 654.709232 
L 332.686095 654.008206 
L 334.326068 653.49596 
L 335.966041 653.20425 
L 337.606013 653.148059 
L 339.245986 653.328783 
L 340.885959 653.735919 
L 342.525931 654.347807 
L 344.165904 655.131447 
L 350.725795 658.748696 
L 352.365767 659.217193 
L 354.00574 659.233915 
L 355.645713 658.830102 
L 358.925658 657.432432 
L 362.205603 656.121165 
L 363.845576 655.668116 
L 365.485549 655.391571 
L 367.125521 655.30487 
L 368.765494 655.410726 
L 370.405467 655.702541 
L 372.045439 656.164989 
L 375.325385 657.495244 
L 380.245303 659.745817 
L 381.885275 660.179719 
L 383.525248 660.234792 
L 385.165221 659.915119 
L 388.445166 658.732009 
L 391.725111 657.593259 
L 393.365084 657.186252 
L 395.005057 656.922967 
L 396.645029 656.815563 
L 398.285002 656.86766 
L 399.924975 657.075407 
L 401.564947 657.427966 
L 404.844893 658.488426 
L 409.764811 660.394251 
L 411.404783 660.810393 
L 413.044756 660.913765 
L 414.684729 660.677876 
L 417.964674 659.677426 
L 421.244619 658.674021 
L 422.884592 658.301863 
L 424.524565 658.04777 
L 426.164537 657.92326 
L 427.80451 657.932759 
L 429.444483 658.074532 
L 432.724428 658.719313 
L 436.004373 659.7256 
L 439.284319 660.817511 
L 440.924291 661.220099 
L 442.564264 661.37324 
L 444.204237 661.220461 
L 447.484182 660.380355 
L 450.764127 659.483985 
L 454.044073 658.888077 
L 455.684045 658.747416 
L 457.324018 658.720645 
L 460.603963 659.004084 
L 463.883909 659.68107 
L 470.443799 661.474748 
L 472.083772 661.682098 
L 473.723745 661.62036 
L 477.00369 660.934313 
L 480.283635 660.124158 
L 483.563581 659.545336 
L 486.843526 659.326103 
L 490.123471 659.498778 
L 493.403417 660.026946 
L 501.60328 661.855332 
L 503.243253 661.890845 
L 504.883225 661.699611 
L 513.083089 660.074571 
L 516.363034 659.805558 
L 519.642979 659.878527 
L 522.922925 660.275336 
L 526.20287 660.919098 
L 531.122788 661.929055 
L 532.762761 662.056831 
L 534.402733 661.973709 
L 537.682679 661.406992 
L 542.602597 660.513167 
L 545.882542 660.192965 
L 549.162487 660.170508 
L 552.442433 660.444352 
L 555.722378 660.962421 
L 560.642296 661.904132 
L 562.282269 662.108344 
L 563.922241 662.147305 
L 565.562214 662.007475 
L 575.40205 660.536107 
L 578.681995 660.42127 
L 581.961941 660.576145 
L 585.241886 660.970154 
L 593.441749 662.194367 
L 595.081722 662.182131 
L 598.361667 661.784225 
L 603.281585 661.03034 
L 606.561531 660.716317 
L 609.841476 660.633858 
L 613.121421 660.79315 
L 616.401367 661.163254 
L 622.961257 662.125707 
L 624.60123 662.23572 
L 626.241203 662.207756 
L 629.521148 661.836389 
L 634.441066 661.152864 
L 637.721011 660.867958 
L 641.000957 660.792528 
L 644.280902 660.93594 
L 647.560847 661.269906 
L 654.120738 662.13635 
L 655.760711 662.239854 
L 659.040656 662.100063 
L 668.880492 661.007377 
L 672.160437 660.920188 
L 675.440383 661.032241 
L 680.360301 661.513358 
L 685.280219 662.106441 
L 688.560164 662.231849 
L 691.840109 661.985764 
L 698.4 661.253598 
L 698.4 661.253598 
" style="fill:none;stroke:#000000;stroke-linecap:square;stroke-width:2;"/>
   </g>
   <g id="line2d_28">
    <path clip-path="url(#p7866fd045a)" d="M 108.00984 114.33719 
L 109.649813 116.754958 
L 111.289785 123.910443 
L 112.929758 135.683558 
L 114.569731 151.876504 
L 116.209703 172.21669 
L 117.849676 196.360555 
L 119.489649 223.897989 
L 121.129621 254.356906 
L 124.409567 321.863101 
L 130.969457 464.53683 
L 132.60943 496.764103 
L 134.249403 525.044276 
L 135.889375 547.347309 
L 137.529348 561.338716 
L 139.169321 565.608487 
L 140.809293 561.305757 
L 142.449266 551.658644 
L 145.729211 528.296373 
L 147.369184 518.155593 
L 149.009157 510.226368 
L 150.649129 504.88503 
L 152.289102 502.275649 
L 153.929075 502.383472 
L 155.569047 505.077055 
L 157.20902 510.133703 
L 158.848993 517.255459 
L 160.488965 526.079014 
L 162.128938 536.180834 
L 167.048856 569.005982 
L 168.688829 578.74703 
L 170.328801 586.746183 
L 171.968774 592.390842 
L 173.608747 595.353642 
L 175.248719 595.770313 
L 176.888692 594.223931 
L 178.528665 591.521158 
L 180.168637 588.445365 
L 181.80861 585.624096 
L 183.448583 583.502579 
L 185.088555 582.365252 
L 186.728528 582.367162 
L 188.368501 583.561069 
L 190.008473 585.91769 
L 191.648446 589.339917 
L 193.288419 593.672292 
L 194.928391 598.706466 
L 199.848309 615.162665 
L 201.488282 619.888541 
L 203.128255 623.547621 
L 204.768227 625.805066 
L 206.4082 626.547206 
L 208.048173 625.959772 
L 209.688145 624.457024 
L 212.968091 620.575462 
L 214.608063 618.941904 
L 216.248036 617.837987 
L 217.888009 617.395628 
L 219.527981 617.677641 
L 221.167954 618.690827 
L 222.807927 620.395166 
L 224.447899 622.709794 
L 226.087872 625.516221 
L 232.647763 637.947093 
L 234.287735 640.093673 
L 235.927708 641.326571 
L 237.567681 641.557768 
L 239.207653 640.917953 
L 240.847626 639.697857 
L 244.127571 636.781527 
L 245.767544 635.572716 
L 247.407517 634.738034 
L 249.047489 634.360916 
L 250.687462 634.480553 
L 252.327435 635.09994 
L 253.967407 636.1912 
L 255.60738 637.698746 
L 257.247353 639.540514 
L 262.167271 645.821743 
L 263.807243 647.587453 
L 265.447216 648.835756 
L 267.087189 649.398447 
L 268.727161 649.248277 
L 270.367134 648.526278 
L 276.927025 644.351239 
L 278.566997 643.774829 
L 280.20697 643.54192 
L 281.846943 643.672476 
L 283.486915 644.162672 
L 285.126888 644.987796 
L 286.766861 646.10369 
L 290.046806 648.932106 
L 293.326751 651.861245 
L 294.966724 652.998828 
L 296.606697 653.694258 
L 298.246669 653.844296 
L 299.886642 653.479143 
L 301.526615 652.749586 
L 306.446533 650.120931 
L 308.086505 649.502941 
L 309.726478 649.125281 
L 311.366451 649.015128 
L 313.006423 649.180643 
L 314.646396 649.61371 
L 316.286369 650.291439 
L 317.926341 651.176603 
L 321.206287 653.342509 
L 324.486232 655.458032 
L 326.126205 656.191634 
L 327.766177 656.536077 
L 329.40615 656.443856 
L 331.046123 655.985926 
L 337.606013 653.230602 
L 339.245986 652.794792 
L 340.885959 652.556535 
L 342.525931 652.530688 
L 344.165904 652.7189 
L 345.805877 653.111167 
L 347.445849 653.686534 
L 350.725795 655.246212 
L 354.00574 656.976283 
L 355.645713 657.692314 
L 357.285685 658.158348 
L 358.925658 658.283779 
L 360.565631 658.064658 
L 362.205603 657.591481 
L 367.125521 655.803085 
L 368.765494 655.349151 
L 370.405467 655.038991 
L 372.045439 654.891859 
L 373.685412 654.915748 
L 375.325385 655.109068 
L 376.965357 655.461524 
L 380.245303 656.560072 
L 385.165221 658.604477 
L 386.805193 659.129177 
L 388.445166 659.42154 
L 390.085139 659.420594 
L 391.725111 659.150433 
L 395.005057 658.183981 
L 398.285002 657.221847 
L 399.924975 656.871776 
L 401.564947 656.64414 
L 403.20492 656.551609 
L 404.844893 656.59854 
L 406.484865 656.782056 
L 409.764811 657.513768 
L 413.044756 658.585531 
L 416.324701 659.685118 
L 417.964674 660.08283 
L 419.604647 660.271003 
L 421.244619 660.209138 
L 422.884592 659.934298 
L 431.084455 658.011472 
L 432.724428 657.834283 
L 434.364401 657.769635 
L 436.004373 657.820174 
L 439.284319 658.249508 
L 442.564264 659.03366 
L 447.484182 660.414673 
L 449.124155 660.734329 
L 450.764127 660.870711 
L 452.4041 660.793268 
L 455.684045 660.187638 
L 460.603963 659.130458 
L 463.883909 658.743037 
L 467.163854 658.727403 
L 470.443799 659.083075 
L 473.723745 659.738543 
L 478.643663 660.90952 
L 480.283635 661.18766 
L 481.923608 661.311313 
L 483.563581 661.250103 
L 486.843526 660.731447 
L 491.763444 659.809638 
L 495.043389 659.456955 
L 498.323335 659.416408 
L 501.60328 659.692048 
L 504.883225 660.230084 
L 511.443116 661.499378 
L 513.083089 661.638069 
L 514.723061 661.617276 
L 518.003007 661.198986 
L 522.922925 660.379535 
L 526.20287 660.03674 
L 529.482815 659.954957 
L 532.762761 660.145629 
L 536.042706 660.572391 
L 544.242569 661.866765 
L 545.882542 661.905748 
L 549.162487 661.609131 
L 555.722378 660.678546 
L 559.002323 660.432022 
L 562.282269 660.416094 
L 565.562214 660.630452 
L 570.482132 661.286263 
L 575.40205 661.996188 
L 577.042023 662.105077 
L 578.681995 662.091302 
L 581.961941 661.769757 
L 588.521831 660.966843 
L 591.801777 660.775846 
L 595.081722 660.78588 
L 598.361667 660.992639 
L 603.281585 661.581708 
L 608.201503 662.19299 
L 611.481449 662.248156 
L 614.761394 661.946955 
L 621.321285 661.238801 
L 624.60123 661.07125 
L 627.881175 661.0781 
L 631.161121 661.255879 
L 636.081039 661.768737 
L 641.000957 662.319434 
L 644.280902 662.393739 
L 647.560847 662.140142 
L 654.120738 661.497 
L 659.040656 661.300952 
L 662.320601 661.360171 
L 667.240519 661.707163 
L 675.440383 662.491275 
L 678.720328 662.463392 
L 685.280219 661.882287 
L 690.200137 661.565785 
L 695.120055 661.53071 
L 698.4 661.670594 
L 698.4 661.670594 
" style="fill:none;stroke:#ff0000;stroke-dasharray:7.4,3.2;stroke-dashoffset:0;stroke-width:2;"/>
   </g>
   <g id="line2d_29">
    <path clip-path="url(#p7866fd045a)" d="M 108.00984 114.33719 
L 109.649813 116.027463 
L 111.289785 121.036198 
L 112.929758 129.298164 
L 114.569731 140.706045 
L 116.209703 155.11225 
L 117.849676 172.3314 
L 119.489649 192.143431 
L 121.129621 214.297277 
L 122.769594 238.515036 
L 126.049539 291.924329 
L 129.329485 349.793004 
L 135.889375 468.211702 
L 139.169321 523.715176 
L 142.449266 573.880026 
L 144.089239 596.439264 
L 145.729211 617.102825 
L 147.369184 635.753552 
L 149.009157 652.309542 
L 150.649129 659.803928 
L 152.289102 647.542961 
L 153.929075 637.414482 
L 155.569047 629.365954 
L 157.20902 623.315741 
L 158.848993 619.155889 
L 160.488965 616.755284 
L 162.128938 615.963118 
L 163.768911 616.612578 
L 165.408883 618.524685 
L 167.048856 621.5122 
L 168.688829 625.383515 
L 170.328801 629.946447 
L 173.608747 640.397177 
L 178.528665 656.805735 
L 180.168637 661.874868 
L 181.80861 659.98424 
L 183.448583 655.807304 
L 185.088555 652.194236 
L 186.728528 649.19688 
L 188.368501 646.847322 
L 190.008473 645.158577 
L 191.648446 644.125664 
L 193.288419 643.726994 
L 194.928391 643.92607 
L 196.568364 644.673404 
L 198.208337 645.908627 
L 199.848309 647.562723 
L 201.488282 649.560333 
L 204.768227 654.266777 
L 209.688145 661.905898 
L 211.328118 662.218765 
L 212.968091 659.993673 
L 214.608063 657.998809 
L 216.248036 656.276721 
L 217.888009 654.859968 
L 219.527981 653.770831 
L 221.167954 653.021302 
L 222.807927 652.613336 
L 224.447899 652.53935 
L 226.087872 652.782947 
L 227.727845 653.31983 
L 229.367817 654.118871 
L 231.00779 655.143318 
L 232.647763 656.352075 
L 235.927708 659.144474 
L 239.207653 662.131375 
L 240.847626 662.941283 
L 244.127571 660.304599 
L 245.767544 659.189579 
L 247.407517 658.245465 
L 249.047489 657.491402 
L 250.687462 656.940299 
L 252.327435 656.598752 
L 253.967407 656.467146 
L 255.60738 656.539923 
L 257.247353 656.805995 
L 258.887325 657.249294 
L 260.527298 657.849437 
L 263.807243 659.421713 
L 268.727161 662.286641 
L 270.367134 663.259084 
L 273.647079 661.464315 
L 276.927025 660.001196 
L 278.566997 659.443243 
L 280.20697 659.017617 
L 281.846943 658.731552 
L 283.486915 658.58804 
L 285.126888 658.585904 
L 286.766861 658.719989 
L 288.406833 658.981455 
L 291.686779 659.835131 
L 294.966724 661.018942 
L 299.886642 663.07028 
L 301.526615 662.782315 
L 304.80656 661.557875 
L 308.086505 660.605373 
L 311.366451 660.014041 
L 314.646396 659.827158 
L 317.926341 660.040266 
L 321.206287 660.604723 
L 324.486232 661.435858 
L 329.40615 662.940528 
L 331.046123 663.077227 
L 335.966041 661.719446 
L 339.245986 661.074017 
L 342.525931 660.710355 
L 345.805877 660.653365 
L 349.085822 660.892539 
L 352.365767 661.385125 
L 357.285685 662.444507 
L 360.565631 663.237201 
L 368.765494 661.645738 
L 372.045439 661.301583 
L 375.325385 661.192672 
L 378.60533 661.319478 
L 381.885275 661.656486 
L 386.805193 662.448024 
L 390.085139 663.071268 
L 391.725111 663.143289 
L 396.645029 662.298329 
L 399.924975 661.886917 
L 403.20492 661.645385 
L 406.484865 661.592607 
L 409.764811 661.725975 
L 414.684729 662.220473 
L 421.244619 663.192243 
L 422.884592 663.083068 
L 427.80451 662.411534 
L 432.724428 661.984397 
L 436.004373 661.881832 
L 439.284319 661.933391 
L 444.204237 662.269749 
L 450.764127 663.033071 
L 452.4041 663.244407 
L 462.243936 662.268356 
L 467.163854 662.102524 
L 472.083772 662.219305 
L 477.00369 662.575716 
L 483.563581 663.252345 
L 493.403417 662.420305 
L 498.323335 662.27541 
L 503.243253 662.366834 
L 509.803143 662.792109 
L 514.723061 663.231033 
L 518.003007 663.005138 
L 524.562897 662.55462 
L 529.482815 662.414673 
L 534.402733 662.474388 
L 540.962624 662.818806 
L 547.522515 663.209869 
L 555.722378 662.677421 
L 562.282269 662.520985 
L 568.842159 662.661043 
L 577.042023 663.135452 
L 578.681995 663.246591 
L 593.441749 662.616185 
L 600.00164 662.692634 
L 608.201503 663.072838 
L 611.481449 663.26281 
L 621.321285 662.784763 
L 627.881175 662.686143 
L 634.441066 662.805611 
L 645.920875 663.188133 
L 655.760711 662.804226 
L 662.320601 662.754005 
L 670.520465 662.946093 
L 678.720328 663.227596 
L 688.560164 662.870109 
L 696.760027 662.811239 
L 698.4 662.830667 
L 698.4 662.830667 
" style="fill:none;stroke:#0000ff;stroke-dasharray:12.8,3.2,2,3.2;stroke-dashoffset:0;stroke-width:2;"/>
   </g>
   <g id="patch_3">
    <path d="M 108 720.9 
L 108 56.7 
" style="fill:none;stroke:#000000;stroke-linecap:square;stroke-linejoin:miter;stroke-width:0.8;"/>
   </g>
   <g id="patch_4">
    <path d="M 698.4 720.9 
L 698.4 56.7 
" style="fill:none;stroke:#000000;stroke-linecap:square;stroke-linejoin:miter;stroke-width:0.8;"/>
   </g>
   <g id="patch_5">
    <path d="M 108 720.9 
L 698.4 720.9 
" style="fill:none;stroke:#000000;stroke-linecap:square;stroke-linejoin:miter;stroke-width:0.8;"/>
   </g>
   <g id="patch_6">
    <path d="M 108 56.7 
L 698.4 56.7 
" style="fill:none;stroke:#000000;stroke-linecap:square;stroke-linejoin:miter;stroke-width:0.8;"/>
   </g>
   <g id="text_16">
    <!-- $ka=60.0$, $\epsilon=0.10$, $n_{ref}=1.049$ -->
    <g transform="translate(268.729252 50.7)scale(0.2 -0.2)">
     <defs>
      <path d="M 28.09375 66.515625 
C 28.203125 66.921875 28.40625 67.515625 28.40625 68 
C 28.40625 69 27.40625 69 27.203125 69 
C 27.09375 69 23.5 68.640625 21.703125 68.390625 
C 20 68.390625 18.5 68.09375 16.703125 68.09375 
C 14.296875 67.890625 13.59375 67.796875 13.59375 66 
C 13.59375 65 14.59375 65 15.59375 65 
C 20.703125 65 20.703125 64.109375 20.703125 63.125 
C 20.703125 62.734375 20.703125 62.53125 20.203125 60.75 
L 5.90625 3.875 
C 5.5 2.375 5.5 2.1875 5.5 1.578125 
C 5.5 -0.59375 7.203125 -1 8.203125 -1 
C 11 -1 11.59375 1.203125 12.40625 4.296875 
L 17.09375 22.953125 
C 24.296875 22.15625 28.59375 19.15625 28.59375 14.375 
C 28.59375 13.765625 28.59375 13.375 28.296875 11.875 
C 27.90625 10.375 27.90625 9.1875 27.90625 8.6875 
C 27.90625 2.890625 31.703125 -1 36.796875 -1 
C 41.40625 -1 43.796875 3.1875 44.59375 4.59375 
C 46.703125 8.28125 48 13.875 48 14.265625 
C 48 14.765625 47.59375 15.171875 47 15.171875 
C 46.09375 15.171875 46 14.765625 45.59375 13.171875 
C 44.203125 7.984375 42.09375 1 37 1 
C 35 1 33.703125 2 33.703125 5.78125 
C 33.703125 7.6875 34.09375 9.875 34.5 11.375 
C 34.90625 13.171875 34.90625 13.265625 34.90625 14.46875 
C 34.90625 20.359375 29.59375 23.65625 20.40625 24.84375 
C 24 27.046875 27.59375 30.9375 29 32.4375 
C 34.703125 38.8125 38.59375 42.015625 43.203125 42.015625 
C 45.5 42.015625 46.09375 41.40625 46.796875 40.8125 
C 43.09375 40.40625 41.703125 37.8125 41.703125 35.828125 
C 41.703125 33.421875 43.59375 32.625 45 32.625 
C 47.703125 32.625 50.09375 34.921875 50.09375 38.125 
C 50.09375 41.015625 47.796875 44 43.296875 44 
C 37.796875 44 33.296875 40.109375 26.203125 32.125 
C 25.203125 30.9375 21.5 27.140625 17.796875 25.75 
z
" id="CMMI12-107"/>
      <path d="M 30.09375 11.875 
C 29.59375 10.171875 29.59375 9.984375 28.203125 8.078125 
C 26 5.28125 21.59375 1 16.90625 1 
C 12.796875 1 10.5 4.6875 10.5 10.578125 
C 10.5 16.0625 13.59375 27.234375 15.5 31.4375 
C 18.90625 38.421875 23.59375 42.015625 27.5 42.015625 
C 34.09375 42.015625 35.40625 33.828125 35.40625 33.03125 
C 35.40625 32.9375 35.09375 31.625 35 31.4375 
z
M 36.5 37.421875 
C 35.40625 40.015625 32.703125 44 27.5 44 
C 16.203125 44 4 29.4375 4 14.671875 
C 4 4.796875 9.796875 -1 16.59375 -1 
C 22.09375 -1 26.796875 3.296875 29.59375 6.59375 
C 30.59375 0.703125 35.296875 -1 38.296875 -1 
C 41.296875 -1 43.703125 0.796875 45.5 4.390625 
C 47.09375 7.78125 48.5 13.875 48.5 14.265625 
C 48.5 14.765625 48.09375 15.171875 47.5 15.171875 
C 46.59375 15.171875 46.5 14.671875 46.09375 13.171875 
C 44.59375 7.28125 42.703125 1 38.59375 1 
C 35.703125 1 35.5 3.59375 35.5 5.59375 
C 35.5 7.890625 35.796875 8.984375 36.703125 12.875 
C 37.40625 15.375 37.90625 17.5625 38.703125 20.453125 
C 42.40625 35.421875 43.296875 39.015625 43.296875 39.609375 
C 43.296875 41.015625 42.203125 42.109375 40.703125 42.109375 
C 37.5 42.109375 36.703125 38.625 36.5 37.421875 
z
" id="CMMI12-97"/>
      <path d="M 64.296875 31.515625 
C 65.796875 31.515625 67.296875 31.515625 67.296875 33.203125 
C 67.296875 35 65.59375 35 63.90625 35 
L 8 35 
C 6.296875 35 4.59375 35 4.59375 33.203125 
C 4.59375 31.515625 6.09375 31.515625 7.59375 31.515625 
z
M 63.90625 14 
C 65.59375 14 67.296875 14 67.296875 15.796875 
C 67.296875 17.484375 65.796875 17.484375 64.296875 17.484375 
L 7.59375 17.484375 
C 6.09375 17.484375 4.59375 17.484375 4.59375 15.796875 
C 4.59375 14 6.296875 14 8 14 
z
" id="CMR17-61"/>
      <path d="M 17 0.09375 
L 17 7.96875 
L 9 7.96875 
L 9 0 
L 11.5 0 
L 8.90625 -12.5 
L 12.90625 -12.5 
z
" id="CMSS17-44"/>
      <path d="M 29.09375 22.921875 
C 30.59375 22.921875 32.296875 22.921875 32.296875 24.515625 
C 32.296875 25.8125 31.296875 25.8125 29.5 25.8125 
L 13.296875 25.8125 
C 15.796875 34.78125 21.703125 40.203125 30.59375 40.203125 
L 33.5 40.203125 
C 35.203125 40.203125 36.703125 40.203125 36.703125 41.796875 
C 36.703125 43.09375 35.59375 43.09375 33.796875 43.09375 
L 30.40625 43.09375 
C 18.09375 43.09375 4.59375 33.296875 4.59375 17.59375 
C 4.59375 6.5 12.09375 -1 22 -1 
C 28.40625 -1 34.703125 3.03125 34.703125 4.03125 
C 34.703125 4.625 34.40625 5.25 33.796875 5.25 
C 33.5 5.25 33.296875 5.140625 32.796875 4.75 
C 29 2.21875 25.296875 1 22.296875 1 
C 17 1 11.40625 4.53125 11.40625 14.34375 
C 11.40625 16.25 11.59375 18.875 12.5 22.921875 
z
" id="CMMI12-15"/>
      <path d="M 20.59375 29.234375 
C 20.796875 29.84375 23.296875 34.828125 27 38.015625 
C 29.59375 40.40625 33 42.015625 36.90625 42.015625 
C 40.90625 42.015625 42.296875 39.015625 42.296875 35.03125 
C 42.296875 29.34375 38.203125 17.96875 36.203125 12.578125 
C 35.296875 10.171875 34.796875 8.875 34.796875 7.078125 
C 34.796875 2.59375 37.90625 -1 42.703125 -1 
C 52 -1 55.5 13.671875 55.5 14.265625 
C 55.5 14.765625 55.09375 15.171875 54.5 15.171875 
C 53.59375 15.171875 53.5 14.875 53 13.171875 
C 50.703125 4.984375 46.90625 1 43 1 
C 42 1 40.40625 1 40.40625 4.203125 
C 40.40625 6.703125 41.5 9.703125 42.09375 11.09375 
C 44.09375 16.609375 48.296875 27.8125 48.296875 33.515625 
C 48.296875 39.5 44.796875 44 37.203125 44 
C 28.296875 44 23.59375 37.734375 21.796875 35.234375 
C 21.5 40.90625 17.40625 44 13 44 
C 9.796875 44 7.59375 42.109375 5.90625 38.71875 
C 4.09375 35.125 2.703125 29.140625 2.703125 28.734375 
C 2.703125 28.34375 3.09375 27.84375 3.796875 27.84375 
C 4.59375 27.84375 4.703125 27.9375 5.296875 30.234375 
C 6.90625 36.328125 8.703125 42.015625 12.703125 42.015625 
C 15 42.015625 15.796875 40.40625 15.796875 37.421875 
C 15.796875 35.21875 14.796875 31.328125 14.09375 28.234375 
L 11.296875 17.46875 
C 10.90625 15.5625 9.796875 11.078125 9.296875 9.28125 
C 8.59375 6.6875 7.5 2 7.5 1.5 
C 7.5 0.09375 8.59375 -1 10.09375 -1 
C 11.296875 -1 12.703125 -0.40625 13.5 1.09375 
C 13.703125 1.59375 14.59375 5.09375 15.09375 7.078125 
L 17.296875 16.0625 
z
" id="CMMI12-110"/>
      <path d="M 38.90625 40.8125 
C 35.796875 40.21875 34.203125 38.015625 34.203125 35.828125 
C 34.203125 33.421875 36.09375 32.625 37.5 32.625 
C 40.296875 32.625 42.59375 35.03125 42.59375 38.015625 
C 42.59375 41.21875 39.5 44 34.5 44 
C 30.5 44 25.90625 42.203125 21.703125 36.125 
C 21 41.40625 17 44 13 44 
C 9.09375 44 7.09375 41.015625 5.90625 38.8125 
C 4.203125 35.21875 2.703125 29.234375 2.703125 28.734375 
C 2.703125 28.34375 3.09375 27.84375 3.796875 27.84375 
C 4.59375 27.84375 4.703125 27.9375 5.296875 30.234375 
C 6.796875 36.21875 8.703125 42.015625 12.703125 42.015625 
C 15.09375 42.015625 15.796875 40.3125 15.796875 37.421875 
C 15.796875 35.21875 14.796875 31.328125 14.09375 28.234375 
L 11.296875 17.46875 
C 10.90625 15.5625 9.796875 11.078125 9.296875 9.28125 
C 8.59375 6.6875 7.5 2 7.5 1.5 
C 7.5 0.09375 8.59375 -1 10.09375 -1 
C 11.203125 -1 13.09375 -0.296875 13.703125 1.703125 
C 14 2.5 17.703125 17.5625 18.296875 19.859375 
C 18.796875 22.046875 19.40625 24.15625 19.90625 26.34375 
C 20.296875 27.734375 20.703125 29.34375 21 30.640625 
C 21.296875 31.53125 24 36.421875 26.5 38.625 
C 27.703125 39.71875 30.296875 42.015625 34.40625 42.015625 
C 36 42.015625 37.59375 41.71875 38.90625 40.8125 
z
" id="CMMI12-114"/>
      <path d="M 17.90625 23.109375 
C 20.59375 23.109375 27.40625 23.109375 32.203125 24.921875 
C 39.796875 27.859375 40.5 33.71875 40.5 35.53125 
C 40.5 39.96875 36.703125 44 30.09375 44 
C 19.59375 44 4.5 34.53125 4.5 16.765625 
C 4.5 6.28125 10.5 -1 19.59375 -1 
C 33.203125 -1 41.796875 9.515625 41.796875 10.8125 
C 41.796875 11.40625 41.203125 11.90625 40.796875 11.90625 
C 40.5 11.90625 40.40625 11.8125 39.5 10.921875 
C 33.09375 2.484375 23.59375 1 19.796875 1 
C 14.09375 1 11.09375 5.46875 11.09375 12.84375 
C 11.09375 14.234375 11.09375 16.734375 12.59375 23.109375 
z
M 13.09375 25 
C 17.40625 40.5 26.90625 42.015625 30.09375 42.015625 
C 34.5 42.015625 37.5 39.40625 37.5 35.578125 
C 37.5 25 21.5 25 17.296875 25 
z
" id="CMMI12-101"/>
      <path d="M 35.203125 29.125 
C 35.203125 7.25 26.09375 0.484375 18.59375 0.484375 
C 16.296875 0.484375 10.703125 0.484375 8.40625 4.59375 
C 11 4.1875 12.90625 5.578125 12.90625 8.09375 
C 12.90625 10.8125 10.703125 11.703125 9.296875 11.703125 
C 8.40625 11.703125 5.703125 11.296875 5.703125 7.90625 
C 5.703125 1.109375 11.59375 -2 18.796875 -2 
C 30.296875 -2 42 10.53125 42 32.390625 
C 42 59.640625 30.796875 65.296875 23.203125 65.296875 
C 13.296875 65.296875 3.796875 56.6875 3.796875 43.40625 
C 3.796875 31.109375 11.90625 22 22.09375 22 
C 30.5 22 34.203125 29.734375 35.203125 33 
z
M 22.296875 23.59375 
C 19.59375 23.59375 15.796875 24.09375 12.703125 30.03125 
C 10.59375 33.890625 10.59375 38.453125 10.59375 43.296875 
C 10.59375 49.15625 10.59375 53.203125 13.40625 57.5625 
C 14.796875 59.640625 17.40625 63 23.203125 63 
C 35 63 35 45.078125 35 41.125 
C 35 34.09375 31.796875 23.59375 22.296875 23.59375 
z
" id="CMR17-57"/>
     </defs>
     <use transform="scale(0.996264)" xlink:href="#CMMI12-107"/>
     <use transform="translate(54.079201 0)scale(0.996264)" xlink:href="#CMMI12-97"/>
     <use transform="translate(132.961067 0)scale(0.996264)" xlink:href="#CMR17-61"/>
     <use transform="translate(232.349864 0)scale(0.996264)" xlink:href="#CMR17-54"/>
     <use transform="translate(278.040341 0)scale(0.996264)" xlink:href="#CMR17-48"/>
     <use transform="translate(323.730818 0)scale(0.996264)" xlink:href="#CMMI12-58"/>
     <use transform="translate(350.827995 0)scale(0.996264)" xlink:href="#CMR17-48"/>
     <use transform="translate(396.518473 0)scale(0.996264)" xlink:href="#CMSS17-44"/>
     <use transform="translate(453.77179 0)scale(0.996264)" xlink:href="#CMMI12-15"/>
     <use transform="translate(520.834757 0)scale(0.996264)" xlink:href="#CMR17-61"/>
     <use transform="translate(620.223554 0)scale(0.996264)" xlink:href="#CMR17-48"/>
     <use transform="translate(665.914031 0)scale(0.996264)" xlink:href="#CMMI12-58"/>
     <use transform="translate(693.011209 0)scale(0.996264)" xlink:href="#CMR17-49"/>
     <use transform="translate(738.701686 0)scale(0.996264)" xlink:href="#CMR17-48"/>
     <use transform="translate(784.392163 0)scale(0.996264)" xlink:href="#CMSS17-44"/>
     <use transform="translate(841.64548 0)scale(0.996264)" xlink:href="#CMMI12-110"/>
     <use transform="translate(899.875528 -14.943915)scale(0.697382)" xlink:href="#CMMI12-114"/>
     <use transform="translate(932.544797 -14.943915)scale(0.697382)" xlink:href="#CMMI12-101"/>
     <use transform="translate(964.193053 -14.943915)scale(0.697382)" xlink:href="#CMMI12-102"/>
     <use transform="translate(1033.469217 0)scale(0.996264)" xlink:href="#CMR17-61"/>
     <use transform="translate(1132.858014 0)scale(0.996264)" xlink:href="#CMR17-49"/>
     <use transform="translate(1178.548491 0)scale(0.996264)" xlink:href="#CMMI12-58"/>
     <use transform="translate(1205.645668 0)scale(0.996264)" xlink:href="#CMR17-48"/>
     <use transform="translate(1251.336145 0)scale(0.996264)" xlink:href="#CMR17-52"/>
     <use transform="translate(1297.026623 0)scale(0.996264)" xlink:href="#CMR17-57"/>
    </g>
   </g>
   <g id="legend_1">
    <g id="patch_7">
     <path d="M 579.393754 160.485009 
L 684.4 160.485009 
Q 688.4 160.485009 688.4 156.485009 
L 688.4 70.7 
Q 688.4 66.7 684.4 66.7 
L 579.393754 66.7 
Q 575.393754 66.7 575.393754 70.7 
L 575.393754 156.485009 
Q 575.393754 160.485009 579.393754 160.485009 
z
" style="fill:#ffffff;opacity:0.8;stroke:#cccccc;stroke-linejoin:miter;"/>
    </g>
    <g id="line2d_30">
     <path d="M 583.393754 82.896875 
L 623.393754 82.896875 
" style="fill:none;stroke:#000000;stroke-linecap:square;stroke-width:2;"/>
    </g>
    <g id="line2d_31"/>
    <g id="text_17">
     <!-- exact -->
     <g transform="translate(639.393754 89.896875)scale(0.2 -0.2)">
      <defs>
       <path d="M 39.09375 21.515625 
C 39.09375 24.84375 38.90625 31.296875 35.703125 36.640625 
C 32.203125 42.390625 26.5 44 22.203125 44 
C 11.796875 44 3 34.1875 3 21.484375 
C 3 9.09375 12.09375 -1 23.59375 -1 
C 28.09375 -1 33.59375 0.296875 38.59375 3.875 
C 38.59375 4.28125 38.40625 6.46875 38.296875 6.5625 
C 38.296875 6.765625 38 9.84375 38 10.25 
C 33.203125 6.359375 27.703125 5.078125 23.703125 5.078125 
C 17.296875 5.078125 10.40625 10.421875 10.09375 21.515625 
z
M 10.90625 27 
C 12.203125 32.5625 16.59375 37.828125 22.203125 37.828125 
C 23.703125 37.828125 30.703125 37.828125 32.5 27 
z
" id="CMSS17-101"/>
       <path d="M 24.796875 22.09375 
L 41.5 42.796875 
L 32.796875 42.796875 
L 21.296875 27.765625 
L 9.40625 42.796875 
L 0.5 42.796875 
L 17.796875 22.09375 
L 0 0 
L 8.796875 0 
L 21.296875 17.515625 
L 34.296875 0 
L 43.09375 0 
z
" id="CMSS17-120"/>
       <path d="M 37.59375 27.984375 
C 37.59375 37.375 30.90625 43.875 21.90625 43.875 
C 17.5 43.875 12.703125 43.078125 7.203125 39.890625 
L 7.796875 33.359375 
C 10.296875 35.125 14.59375 38 21.796875 38 
C 26.90625 38 30 34.0625 30 27.84375 
L 30 24 
C 14 24 4 19.34375 4 11.34375 
C 4 7.203125 6.5 -1 14.796875 -1 
C 16.296875 -1 24.40625 -1 30.203125 3.390625 
L 30.203125 -0.296875 
L 37.59375 -0.296875 
z
M 30 12.75 
C 30 10.953125 30 8.5625 27 6.78125 
C 24.40625 5.078125 21.09375 5.078125 19.703125 5.078125 
C 14.703125 5.078125 11.296875 7.984375 11.296875 11.625 
C 11.296875 18.921875 26.90625 18.921875 30 18.921875 
z
" id="CMSS17-97"/>
       <path d="M 38.5 39.703125 
C 38.5 40.390625 33.90625 42.40625 32.703125 42.796875 
C 29.40625 44 25.203125 44 24.09375 44 
C 11.09375 44 3.296875 32.703125 3.296875 21.296875 
C 3.296875 9.296875 12 -1 23.703125 -1 
C 30.40625 -1 35.203125 1.1875 39.09375 3.78125 
L 38.5 10.375 
C 34.203125 7.078125 29.203125 5.265625 23.796875 5.265625 
C 16 5.265625 10.90625 12.09375 10.90625 21.390625 
C 10.90625 28.609375 14.203125 37.71875 24.203125 37.71875 
C 29.703125 37.71875 32.796875 36.609375 37.40625 33.515625 
z
" id="CMSS17-99"/>
       <path d="M 16.703125 37 
L 29.703125 37 
L 29.703125 42.765625 
L 16.703125 42.765625 
L 16.703125 55 
L 9.59375 55 
L 9.59375 42.765625 
L 1.703125 42.765625 
L 1.703125 37 
L 9.40625 37 
L 9.40625 11.703125 
C 9.40625 6 10.703125 -1 17.296875 -1 
C 22.296875 -1 26.90625 0.390625 31.296875 2.6875 
L 29.703125 8.5625 
C 27.296875 6.46875 24.40625 5.265625 21.296875 5.265625 
C 16.90625 5.265625 16.703125 10.875 16.703125 13.375 
z
" id="CMSS17-116"/>
      </defs>
      <use transform="scale(0.996264)" xlink:href="#CMSS17-101"/>
      <use transform="translate(41.638822 0)scale(0.996264)" xlink:href="#CMSS17-120"/>
      <use transform="translate(84.638964 0)scale(0.996264)" xlink:href="#CMSS17-97"/>
      <use transform="translate(129.560884 0)scale(0.996264)" xlink:href="#CMSS17-99"/>
      <use transform="translate(171.199706 0)scale(0.996264)" xlink:href="#CMSS17-116"/>
     </g>
    </g>
    <g id="line2d_32">
     <path d="M 583.393754 112.253125 
L 623.393754 112.253125 
" style="fill:none;stroke:#ff0000;stroke-dasharray:7.4,3.2;stroke-dashoffset:0;stroke-width:2;"/>
    </g>
    <g id="line2d_33"/>
    <g id="text_18">
     <!-- MS -->
     <g transform="translate(639.393754 119.253125)scale(0.2 -0.2)">
      <defs>
       <path d="M 49.90625 37.046875 
L 45.09375 23.015625 
C 44.296875 20.421875 41.59375 12.359375 41 9.171875 
L 40.90625 9.171875 
C 40.59375 11.171875 40 13.265625 38.40625 18.34375 
C 37.5 21.328125 36.5 24.40625 35.5 27.203125 
L 20.703125 69 
L 9 69 
L 9 0 
L 16.796875 0 
L 16.796875 60.9375 
L 16.90625 60.9375 
C 16.90625 60.84375 17.796875 56.453125 23.90625 39.046875 
L 37.09375 1.5 
L 44.5 1.5 
L 56.40625 34.859375 
C 57.203125 37.15625 59.703125 44.421875 60.796875 47.90625 
C 61.796875 50.890625 64.296875 58.25 64.90625 61.140625 
L 65 61.140625 
L 65 0 
L 72.90625 0 
L 72.90625 69 
L 61.296875 69 
z
" id="CMSS17-77"/>
       <path d="M 43.703125 65.140625 
C 39.296875 67.71875 34.5 70 26.40625 70 
C 13.5 70 5.203125 60.609375 5.203125 51.03125 
C 5.203125 47.265625 6.296875 43.015625 10.203125 38.671875 
C 14.09375 34.3125 18.5 33.140625 24.09375 31.765625 
C 26.40625 31.15625 30.296875 30.0625 31 29.78125 
C 36.59375 27.609375 39.296875 22.5625 39.296875 17.8125 
C 39.296875 11.59375 34.40625 4.96875 25.703125 4.96875 
C 22.703125 4.96875 13.90625 4.96875 5.59375 12.796875 
L 4.203125 4.96875 
C 12.40625 -1 21.296875 -2 25.796875 -2 
C 38.09375 -2 46.90625 7.625 46.90625 18.53125 
C 46.90625 22.5 45.703125 27.546875 41.5 32.203125 
C 37.40625 36.671875 33.796875 37.65625 25.59375 39.828125 
C 20.90625 41.03125 17.90625 41.828125 15.40625 44.890625 
C 13.703125 47.078125 12.796875 49.15625 12.796875 51.828125 
C 12.796875 57.390625 17.59375 63.4375 26.40625 63.4375 
C 30.796875 63.4375 36.5 62.53125 42.296875 57.1875 
z
" id="CMSS17-83"/>
      </defs>
      <use transform="scale(0.996264)" xlink:href="#CMSS17-77"/>
      <use transform="translate(81.67603 0)scale(0.996264)" xlink:href="#CMSS17-83"/>
     </g>
    </g>
    <g id="line2d_34">
     <path d="M 583.393754 141.609375 
L 623.393754 141.609375 
" style="fill:none;stroke:#0000ff;stroke-dasharray:12.8,3.2,2,3.2;stroke-dashoffset:0;stroke-width:2;"/>
    </g>
    <g id="line2d_35"/>
    <g id="text_19">
     <!-- Born -->
     <g transform="translate(639.393754 148.609375)scale(0.2 -0.2)">
      <defs>
       <path d="M 8.90625 69 
L 8.90625 0 
L 33.796875 0 
C 47.40625 0 57.296875 8.96875 57.296875 18.75 
C 57.296875 26.328125 50.796875 34 39.09375 36.203125 
C 52.09375 39.96875 54.703125 47.5 54.703125 51.765625 
C 54.703125 60.671875 44.90625 69 31.203125 69 
z
M 17 39 
L 17 63.421875 
L 28.5 63.421875 
C 38.796875 63.421875 46.90625 58.1875 46.90625 51.65625 
C 46.90625 45.71875 40.5 39 27.59375 39 
z
M 17 5.578125 
L 17 32.921875 
L 30.296875 32.921875 
C 41.09375 32.921875 49.40625 26.234375 49.40625 18.84375 
C 49.40625 12.0625 42.09375 5.578125 31 5.578125 
z
" id="CMSS17-66"/>
       <path d="M 44.203125 21.1875 
C 44.203125 34 34.703125 44 23.5 44 
C 12 44 2.703125 33.703125 2.703125 21.1875 
C 2.703125 8.5 12.296875 -1 23.40625 -1 
C 34.796875 -1 44.203125 8.796875 44.203125 21.1875 
z
M 23.5 5.265625 
C 16.40625 5.265625 10.296875 11.078125 10.296875 22 
C 10.296875 33.609375 17.40625 37.921875 23.40625 37.921875 
C 29.90625 37.921875 36.59375 33.21875 36.59375 22 
C 36.59375 10.671875 30.09375 5.265625 23.5 5.265625 
z
" id="CMSS17-111"/>
       <path d="M 14.90625 21.296875 
C 14.90625 30.703125 21.796875 37 30.59375 37 
L 30.59375 43.578125 
C 24.203125 43.578125 18.203125 40.390625 14.59375 35.203125 
L 14.59375 43.09375 
L 7.5 43.09375 
L 7.5 0 
L 14.90625 0 
z
" id="CMSS17-114"/>
       <path d="M 40.90625 29.328125 
C 40.90625 35.671875 39.40625 44 28.09375 44 
C 21.703125 44 17.5 40.71875 14.703125 37.328125 
L 14.703125 43.09375 
L 7.40625 43.09375 
L 7.40625 0 
L 15 0 
L 15 24.359375 
C 15 30.6875 17.40625 37.9375 24.203125 37.9375 
C 33 37.9375 33.296875 32 33.296875 28.578125 
L 33.296875 0 
L 40.90625 0 
z
" id="CMSS17-110"/>
      </defs>
      <use transform="scale(0.996264)" xlink:href="#CMSS17-66"/>
      <use transform="translate(62.33804 0)scale(0.996264)" xlink:href="#CMSS17-111"/>
      <use transform="translate(106.57921 0)scale(0.996264)" xlink:href="#CMSS17-114"/>
      <use transform="translate(138.488982 0)scale(0.996264)" xlink:href="#CMSS17-110"/>
     </g>
    </g>
   </g>
  </g>
 </g>
 <defs>
  <clipPath id="p7866fd045a">
   <rect height="664.2" width="590.4" x="108" y="56.7"/>
  </clipPath>
 </defs>
</svg>
