<?xml version="1.0" encoding="utf-8" standalone="no"?>
<!DOCTYPE svg PUBLIC "-//W3C//DTD SVG 1.1//EN"
  "http://www.w3.org/Graphics/SVG/1.1/DTD/svg11.dtd">
<!-- Created with matplotlib (https://matplotlib.org/) -->
<svg height="810pt" version="1.1" viewBox="0 0 720 810" width="720pt" xmlns="http://www.w3.org/2000/svg" xmlns:xlink="http://www.w3.org/1999/xlink">
 <metadata>
  <rdf:RDF xmlns:cc="http://creativecommons.org/ns#" xmlns:dc="http://purl.org/dc/elements/1.1/" xmlns:rdf="http://www.w3.org/1999/02/22-rdf-syntax-ns#">
   <cc:Work>
    <dc:type rdf:resource="http://purl.org/dc/dcmitype/StillImage"/>
    <dc:date>2021-08-13T16:04:58.933966</dc:date>
    <dc:format>image/svg+xml</dc:format>
    <dc:creator>
     <cc:Agent>
      <dc:title>Matplotlib v3.3.1, https://matplotlib.org/</dc:title>
     </cc:Agent>
    </dc:creator>
   </cc:Work>
  </rdf:RDF>
 </metadata>
 <defs>
  <style type="text/css">*{stroke-linecap:butt;stroke-linejoin:round;}</style>
 </defs>
 <g id="figure_1">
  <g id="patch_1">
   <path d="M 0 810 
L 720 810 
L 720 0 
L 0 0 
z
" style="fill:#ffffff;"/>
  </g>
  <g id="axes_1">
   <g id="patch_2">
    <path d="M 108 720.9 
L 698.4 720.9 
L 698.4 56.7 
L 108 56.7 
z
" style="fill:#ffffff;"/>
   </g>
   <g id="matplotlib.axis_1">
    <g id="xtick_1">
     <g id="line2d_1">
      <path clip-path="url(#p87ce9203ee)" d="M 108 720.9 
L 108 56.7 
" style="fill:none;stroke:#e6e6e6;stroke-linecap:square;stroke-width:0.8;"/>
     </g>
     <g id="line2d_2">
      <defs>
       <path d="M 0 0 
L 0 3.5 
" id="m05aa7a344c" style="stroke:#000000;stroke-width:0.8;"/>
      </defs>
      <g>
       <use style="stroke:#000000;stroke-width:0.8;" x="108" xlink:href="#m05aa7a344c" y="720.9"/>
      </g>
     </g>
     <g id="text_1">
      <!-- 0 -->
      <g transform="translate(103.228125 739.297656)scale(0.15 -0.15)">
       <defs>
        <path d="M 31.78125 66.40625 
Q 24.171875 66.40625 20.328125 58.90625 
Q 16.5 51.421875 16.5 36.375 
Q 16.5 21.390625 20.328125 13.890625 
Q 24.171875 6.390625 31.78125 6.390625 
Q 39.453125 6.390625 43.28125 13.890625 
Q 47.125 21.390625 47.125 36.375 
Q 47.125 51.421875 43.28125 58.90625 
Q 39.453125 66.40625 31.78125 66.40625 
z
M 31.78125 74.21875 
Q 44.046875 74.21875 50.515625 64.515625 
Q 56.984375 54.828125 56.984375 36.375 
Q 56.984375 17.96875 50.515625 8.265625 
Q 44.046875 -1.421875 31.78125 -1.421875 
Q 19.53125 -1.421875 13.0625 8.265625 
Q 6.59375 17.96875 6.59375 36.375 
Q 6.59375 54.828125 13.0625 64.515625 
Q 19.53125 74.21875 31.78125 74.21875 
z
" id="DejaVuSans-48"/>
       </defs>
       <use xlink:href="#DejaVuSans-48"/>
      </g>
     </g>
    </g>
    <g id="xtick_2">
     <g id="line2d_3">
      <path clip-path="url(#p87ce9203ee)" d="M 173.6 720.9 
L 173.6 56.7 
" style="fill:none;stroke:#e6e6e6;stroke-linecap:square;stroke-width:0.8;"/>
     </g>
     <g id="line2d_4">
      <g>
       <use style="stroke:#000000;stroke-width:0.8;" x="173.6" xlink:href="#m05aa7a344c" y="720.9"/>
      </g>
     </g>
     <g id="text_2">
      <!-- 20 -->
      <g transform="translate(164.05625 739.297656)scale(0.15 -0.15)">
       <defs>
        <path d="M 19.1875 8.296875 
L 53.609375 8.296875 
L 53.609375 0 
L 7.328125 0 
L 7.328125 8.296875 
Q 12.9375 14.109375 22.625 23.890625 
Q 32.328125 33.6875 34.8125 36.53125 
Q 39.546875 41.84375 41.421875 45.53125 
Q 43.3125 49.21875 43.3125 52.78125 
Q 43.3125 58.59375 39.234375 62.25 
Q 35.15625 65.921875 28.609375 65.921875 
Q 23.96875 65.921875 18.8125 64.3125 
Q 13.671875 62.703125 7.8125 59.421875 
L 7.8125 69.390625 
Q 13.765625 71.78125 18.9375 73 
Q 24.125 74.21875 28.421875 74.21875 
Q 39.75 74.21875 46.484375 68.546875 
Q 53.21875 62.890625 53.21875 53.421875 
Q 53.21875 48.921875 51.53125 44.890625 
Q 49.859375 40.875 45.40625 35.40625 
Q 44.1875 33.984375 37.640625 27.21875 
Q 31.109375 20.453125 19.1875 8.296875 
z
" id="DejaVuSans-50"/>
       </defs>
       <use xlink:href="#DejaVuSans-50"/>
       <use x="63.623047" xlink:href="#DejaVuSans-48"/>
      </g>
     </g>
    </g>
    <g id="xtick_3">
     <g id="line2d_5">
      <path clip-path="url(#p87ce9203ee)" d="M 239.2 720.9 
L 239.2 56.7 
" style="fill:none;stroke:#e6e6e6;stroke-linecap:square;stroke-width:0.8;"/>
     </g>
     <g id="line2d_6">
      <g>
       <use style="stroke:#000000;stroke-width:0.8;" x="239.2" xlink:href="#m05aa7a344c" y="720.9"/>
      </g>
     </g>
     <g id="text_3">
      <!-- 40 -->
      <g transform="translate(229.65625 739.297656)scale(0.15 -0.15)">
       <defs>
        <path d="M 37.796875 64.3125 
L 12.890625 25.390625 
L 37.796875 25.390625 
z
M 35.203125 72.90625 
L 47.609375 72.90625 
L 47.609375 25.390625 
L 58.015625 25.390625 
L 58.015625 17.1875 
L 47.609375 17.1875 
L 47.609375 0 
L 37.796875 0 
L 37.796875 17.1875 
L 4.890625 17.1875 
L 4.890625 26.703125 
z
" id="DejaVuSans-52"/>
       </defs>
       <use xlink:href="#DejaVuSans-52"/>
       <use x="63.623047" xlink:href="#DejaVuSans-48"/>
      </g>
     </g>
    </g>
    <g id="xtick_4">
     <g id="line2d_7">
      <path clip-path="url(#p87ce9203ee)" d="M 304.8 720.9 
L 304.8 56.7 
" style="fill:none;stroke:#e6e6e6;stroke-linecap:square;stroke-width:0.8;"/>
     </g>
     <g id="line2d_8">
      <g>
       <use style="stroke:#000000;stroke-width:0.8;" x="304.8" xlink:href="#m05aa7a344c" y="720.9"/>
      </g>
     </g>
     <g id="text_4">
      <!-- 60 -->
      <g transform="translate(295.25625 739.297656)scale(0.15 -0.15)">
       <defs>
        <path d="M 33.015625 40.375 
Q 26.375 40.375 22.484375 35.828125 
Q 18.609375 31.296875 18.609375 23.390625 
Q 18.609375 15.53125 22.484375 10.953125 
Q 26.375 6.390625 33.015625 6.390625 
Q 39.65625 6.390625 43.53125 10.953125 
Q 47.40625 15.53125 47.40625 23.390625 
Q 47.40625 31.296875 43.53125 35.828125 
Q 39.65625 40.375 33.015625 40.375 
z
M 52.59375 71.296875 
L 52.59375 62.3125 
Q 48.875 64.0625 45.09375 64.984375 
Q 41.3125 65.921875 37.59375 65.921875 
Q 27.828125 65.921875 22.671875 59.328125 
Q 17.53125 52.734375 16.796875 39.40625 
Q 19.671875 43.65625 24.015625 45.921875 
Q 28.375 48.1875 33.59375 48.1875 
Q 44.578125 48.1875 50.953125 41.515625 
Q 57.328125 34.859375 57.328125 23.390625 
Q 57.328125 12.15625 50.6875 5.359375 
Q 44.046875 -1.421875 33.015625 -1.421875 
Q 20.359375 -1.421875 13.671875 8.265625 
Q 6.984375 17.96875 6.984375 36.375 
Q 6.984375 53.65625 15.1875 63.9375 
Q 23.390625 74.21875 37.203125 74.21875 
Q 40.921875 74.21875 44.703125 73.484375 
Q 48.484375 72.75 52.59375 71.296875 
z
" id="DejaVuSans-54"/>
       </defs>
       <use xlink:href="#DejaVuSans-54"/>
       <use x="63.623047" xlink:href="#DejaVuSans-48"/>
      </g>
     </g>
    </g>
    <g id="xtick_5">
     <g id="line2d_9">
      <path clip-path="url(#p87ce9203ee)" d="M 370.4 720.9 
L 370.4 56.7 
" style="fill:none;stroke:#e6e6e6;stroke-linecap:square;stroke-width:0.8;"/>
     </g>
     <g id="line2d_10">
      <g>
       <use style="stroke:#000000;stroke-width:0.8;" x="370.4" xlink:href="#m05aa7a344c" y="720.9"/>
      </g>
     </g>
     <g id="text_5">
      <!-- 80 -->
      <g transform="translate(360.85625 739.297656)scale(0.15 -0.15)">
       <defs>
        <path d="M 31.78125 34.625 
Q 24.75 34.625 20.71875 30.859375 
Q 16.703125 27.09375 16.703125 20.515625 
Q 16.703125 13.921875 20.71875 10.15625 
Q 24.75 6.390625 31.78125 6.390625 
Q 38.8125 6.390625 42.859375 10.171875 
Q 46.921875 13.96875 46.921875 20.515625 
Q 46.921875 27.09375 42.890625 30.859375 
Q 38.875 34.625 31.78125 34.625 
z
M 21.921875 38.8125 
Q 15.578125 40.375 12.03125 44.71875 
Q 8.5 49.078125 8.5 55.328125 
Q 8.5 64.0625 14.71875 69.140625 
Q 20.953125 74.21875 31.78125 74.21875 
Q 42.671875 74.21875 48.875 69.140625 
Q 55.078125 64.0625 55.078125 55.328125 
Q 55.078125 49.078125 51.53125 44.71875 
Q 48 40.375 41.703125 38.8125 
Q 48.828125 37.15625 52.796875 32.3125 
Q 56.78125 27.484375 56.78125 20.515625 
Q 56.78125 9.90625 50.3125 4.234375 
Q 43.84375 -1.421875 31.78125 -1.421875 
Q 19.734375 -1.421875 13.25 4.234375 
Q 6.78125 9.90625 6.78125 20.515625 
Q 6.78125 27.484375 10.78125 32.3125 
Q 14.796875 37.15625 21.921875 38.8125 
z
M 18.3125 54.390625 
Q 18.3125 48.734375 21.84375 45.5625 
Q 25.390625 42.390625 31.78125 42.390625 
Q 38.140625 42.390625 41.71875 45.5625 
Q 45.3125 48.734375 45.3125 54.390625 
Q 45.3125 60.0625 41.71875 63.234375 
Q 38.140625 66.40625 31.78125 66.40625 
Q 25.390625 66.40625 21.84375 63.234375 
Q 18.3125 60.0625 18.3125 54.390625 
z
" id="DejaVuSans-56"/>
       </defs>
       <use xlink:href="#DejaVuSans-56"/>
       <use x="63.623047" xlink:href="#DejaVuSans-48"/>
      </g>
     </g>
    </g>
    <g id="xtick_6">
     <g id="line2d_11">
      <path clip-path="url(#p87ce9203ee)" d="M 436 720.9 
L 436 56.7 
" style="fill:none;stroke:#e6e6e6;stroke-linecap:square;stroke-width:0.8;"/>
     </g>
     <g id="line2d_12">
      <g>
       <use style="stroke:#000000;stroke-width:0.8;" x="436" xlink:href="#m05aa7a344c" y="720.9"/>
      </g>
     </g>
     <g id="text_6">
      <!-- 100 -->
      <g transform="translate(421.684375 739.297656)scale(0.15 -0.15)">
       <defs>
        <path d="M 12.40625 8.296875 
L 28.515625 8.296875 
L 28.515625 63.921875 
L 10.984375 60.40625 
L 10.984375 69.390625 
L 28.421875 72.90625 
L 38.28125 72.90625 
L 38.28125 8.296875 
L 54.390625 8.296875 
L 54.390625 0 
L 12.40625 0 
z
" id="DejaVuSans-49"/>
       </defs>
       <use xlink:href="#DejaVuSans-49"/>
       <use x="63.623047" xlink:href="#DejaVuSans-48"/>
       <use x="127.246094" xlink:href="#DejaVuSans-48"/>
      </g>
     </g>
    </g>
    <g id="xtick_7">
     <g id="line2d_13">
      <path clip-path="url(#p87ce9203ee)" d="M 501.6 720.9 
L 501.6 56.7 
" style="fill:none;stroke:#e6e6e6;stroke-linecap:square;stroke-width:0.8;"/>
     </g>
     <g id="line2d_14">
      <g>
       <use style="stroke:#000000;stroke-width:0.8;" x="501.6" xlink:href="#m05aa7a344c" y="720.9"/>
      </g>
     </g>
     <g id="text_7">
      <!-- 120 -->
      <g transform="translate(487.284375 739.297656)scale(0.15 -0.15)">
       <use xlink:href="#DejaVuSans-49"/>
       <use x="63.623047" xlink:href="#DejaVuSans-50"/>
       <use x="127.246094" xlink:href="#DejaVuSans-48"/>
      </g>
     </g>
    </g>
    <g id="xtick_8">
     <g id="line2d_15">
      <path clip-path="url(#p87ce9203ee)" d="M 567.2 720.9 
L 567.2 56.7 
" style="fill:none;stroke:#e6e6e6;stroke-linecap:square;stroke-width:0.8;"/>
     </g>
     <g id="line2d_16">
      <g>
       <use style="stroke:#000000;stroke-width:0.8;" x="567.2" xlink:href="#m05aa7a344c" y="720.9"/>
      </g>
     </g>
     <g id="text_8">
      <!-- 140 -->
      <g transform="translate(552.884375 739.297656)scale(0.15 -0.15)">
       <use xlink:href="#DejaVuSans-49"/>
       <use x="63.623047" xlink:href="#DejaVuSans-52"/>
       <use x="127.246094" xlink:href="#DejaVuSans-48"/>
      </g>
     </g>
    </g>
    <g id="xtick_9">
     <g id="line2d_17">
      <path clip-path="url(#p87ce9203ee)" d="M 632.8 720.9 
L 632.8 56.7 
" style="fill:none;stroke:#e6e6e6;stroke-linecap:square;stroke-width:0.8;"/>
     </g>
     <g id="line2d_18">
      <g>
       <use style="stroke:#000000;stroke-width:0.8;" x="632.8" xlink:href="#m05aa7a344c" y="720.9"/>
      </g>
     </g>
     <g id="text_9">
      <!-- 160 -->
      <g transform="translate(618.484375 739.297656)scale(0.15 -0.15)">
       <use xlink:href="#DejaVuSans-49"/>
       <use x="63.623047" xlink:href="#DejaVuSans-54"/>
       <use x="127.246094" xlink:href="#DejaVuSans-48"/>
      </g>
     </g>
    </g>
    <g id="xtick_10">
     <g id="line2d_19">
      <path clip-path="url(#p87ce9203ee)" d="M 698.4 720.9 
L 698.4 56.7 
" style="fill:none;stroke:#e6e6e6;stroke-linecap:square;stroke-width:0.8;"/>
     </g>
     <g id="line2d_20">
      <g>
       <use style="stroke:#000000;stroke-width:0.8;" x="698.4" xlink:href="#m05aa7a344c" y="720.9"/>
      </g>
     </g>
     <g id="text_10">
      <!-- 180 -->
      <g transform="translate(684.084375 739.297656)scale(0.15 -0.15)">
       <use xlink:href="#DejaVuSans-49"/>
       <use x="63.623047" xlink:href="#DejaVuSans-56"/>
       <use x="127.246094" xlink:href="#DejaVuSans-48"/>
      </g>
     </g>
    </g>
    <g id="text_11">
     <!-- $\theta(^{\circ})$ -->
     <g transform="translate(379.825 765.413281)scale(0.25 -0.25)">
      <defs>
       <path d="M 45.515625 34.671875 
L 14.453125 34.671875 
Q 12.359375 20.0625 14.5 13.875 
Q 17.1875 6.25 24.46875 6.25 
Q 31.78125 6.25 37.359375 13.921875 
Q 42.234375 20.65625 45.515625 34.671875 
z
M 47.015625 42.96875 
Q 48.34375 56.84375 46.625 61.71875 
Q 43.953125 69.4375 36.765625 69.4375 
Q 29.296875 69.4375 23.828125 61.8125 
Q 19.53125 55.671875 16.15625 42.96875 
z
M 38.1875 76.765625 
Q 49.90625 76.765625 54.59375 66.40625 
Q 59.28125 56.109375 55.71875 37.84375 
Q 52.203125 19.625 43.453125 9.28125 
Q 34.765625 -1.125 23.046875 -1.125 
Q 11.28125 -1.125 6.640625 9.28125 
Q 2 19.625 5.515625 37.84375 
Q 9.078125 56.109375 17.71875 66.40625 
Q 26.421875 76.765625 38.1875 76.765625 
z
" id="DejaVuSans-Oblique-952"/>
       <path d="M 31 75.875 
Q 24.46875 64.65625 21.28125 53.65625 
Q 18.109375 42.671875 18.109375 31.390625 
Q 18.109375 20.125 21.3125 9.0625 
Q 24.515625 -2 31 -13.1875 
L 23.1875 -13.1875 
Q 15.875 -1.703125 12.234375 9.375 
Q 8.59375 20.453125 8.59375 31.390625 
Q 8.59375 42.28125 12.203125 53.3125 
Q 15.828125 64.359375 23.1875 75.875 
z
" id="DejaVuSans-40"/>
       <path d="M 31.25 40.921875 
Q 27.34375 40.921875 24.65625 38.203125 
Q 21.96875 35.5 21.96875 31.59375 
Q 21.96875 27.734375 24.65625 25.078125 
Q 27.34375 22.421875 31.25 22.421875 
Q 35.15625 22.421875 37.84375 25.078125 
Q 40.53125 27.734375 40.53125 31.59375 
Q 40.53125 35.453125 37.8125 38.1875 
Q 35.109375 40.921875 31.25 40.921875 
z
M 31.25 47.21875 
Q 34.375 47.21875 37.25 46.015625 
Q 40.140625 44.828125 42.234375 42.578125 
Q 44.484375 40.390625 45.609375 37.59375 
Q 46.734375 34.8125 46.734375 31.59375 
Q 46.734375 25.15625 42.21875 20.6875 
Q 37.703125 16.21875 31.15625 16.21875 
Q 24.5625 16.21875 20.15625 20.609375 
Q 15.765625 25 15.765625 31.59375 
Q 15.765625 38.140625 20.25 42.671875 
Q 24.75 47.21875 31.25 47.21875 
z
" id="DejaVuSans-8728"/>
       <path d="M 8.015625 75.875 
L 15.828125 75.875 
Q 23.140625 64.359375 26.78125 53.3125 
Q 30.421875 42.28125 30.421875 31.390625 
Q 30.421875 20.453125 26.78125 9.375 
Q 23.140625 -1.703125 15.828125 -13.1875 
L 8.015625 -13.1875 
Q 14.5 -2 17.703125 9.0625 
Q 20.90625 20.125 20.90625 31.390625 
Q 20.90625 42.671875 17.703125 53.65625 
Q 14.5 64.65625 8.015625 75.875 
z
" id="DejaVuSans-41"/>
      </defs>
      <use transform="translate(0 0.234375)" xlink:href="#DejaVuSans-Oblique-952"/>
      <use transform="translate(61.181641 0.234375)" xlink:href="#DejaVuSans-40"/>
      <use transform="translate(101.152344 38.515625)scale(0.7)" xlink:href="#DejaVuSans-8728"/>
      <use transform="translate(147.705078 0.234375)" xlink:href="#DejaVuSans-41"/>
     </g>
    </g>
   </g>
   <g id="matplotlib.axis_2">
    <g id="ytick_1">
     <g id="line2d_21">
      <path clip-path="url(#p87ce9203ee)" d="M 108 663.339924 
L 698.4 663.339924 
" style="fill:none;stroke:#e6e6e6;stroke-linecap:square;stroke-width:0.8;"/>
     </g>
     <g id="line2d_22">
      <defs>
       <path d="M 0 0 
L -3.5 0 
" id="m4d41210ffb" style="stroke:#000000;stroke-width:0.8;"/>
      </defs>
      <g>
       <use style="stroke:#000000;stroke-width:0.8;" x="108" xlink:href="#m4d41210ffb" y="663.339924"/>
      </g>
     </g>
     <g id="text_12">
      <!-- 0.0 -->
      <g transform="translate(77.145313 669.038752)scale(0.15 -0.15)">
       <defs>
        <path d="M 10.6875 12.40625 
L 21 12.40625 
L 21 0 
L 10.6875 0 
z
" id="DejaVuSans-46"/>
       </defs>
       <use xlink:href="#DejaVuSans-48"/>
       <use x="63.623047" xlink:href="#DejaVuSans-46"/>
       <use x="95.410156" xlink:href="#DejaVuSans-48"/>
      </g>
     </g>
    </g>
    <g id="ytick_2">
     <g id="line2d_23">
      <path clip-path="url(#p87ce9203ee)" d="M 108 553.539377 
L 698.4 553.539377 
" style="fill:none;stroke:#e6e6e6;stroke-linecap:square;stroke-width:0.8;"/>
     </g>
     <g id="line2d_24">
      <g>
       <use style="stroke:#000000;stroke-width:0.8;" x="108" xlink:href="#m4d41210ffb" y="553.539377"/>
      </g>
     </g>
     <g id="text_13">
      <!-- 0.2 -->
      <g transform="translate(77.145313 559.238205)scale(0.15 -0.15)">
       <use xlink:href="#DejaVuSans-48"/>
       <use x="63.623047" xlink:href="#DejaVuSans-46"/>
       <use x="95.410156" xlink:href="#DejaVuSans-50"/>
      </g>
     </g>
    </g>
    <g id="ytick_3">
     <g id="line2d_25">
      <path clip-path="url(#p87ce9203ee)" d="M 108 443.73883 
L 698.4 443.73883 
" style="fill:none;stroke:#e6e6e6;stroke-linecap:square;stroke-width:0.8;"/>
     </g>
     <g id="line2d_26">
      <g>
       <use style="stroke:#000000;stroke-width:0.8;" x="108" xlink:href="#m4d41210ffb" y="443.73883"/>
      </g>
     </g>
     <g id="text_14">
      <!-- 0.4 -->
      <g transform="translate(77.145313 449.437658)scale(0.15 -0.15)">
       <use xlink:href="#DejaVuSans-48"/>
       <use x="63.623047" xlink:href="#DejaVuSans-46"/>
       <use x="95.410156" xlink:href="#DejaVuSans-52"/>
      </g>
     </g>
    </g>
    <g id="ytick_4">
     <g id="line2d_27">
      <path clip-path="url(#p87ce9203ee)" d="M 108 333.938284 
L 698.4 333.938284 
" style="fill:none;stroke:#e6e6e6;stroke-linecap:square;stroke-width:0.8;"/>
     </g>
     <g id="line2d_28">
      <g>
       <use style="stroke:#000000;stroke-width:0.8;" x="108" xlink:href="#m4d41210ffb" y="333.938284"/>
      </g>
     </g>
     <g id="text_15">
      <!-- 0.6 -->
      <g transform="translate(77.145313 339.637112)scale(0.15 -0.15)">
       <use xlink:href="#DejaVuSans-48"/>
       <use x="63.623047" xlink:href="#DejaVuSans-46"/>
       <use x="95.410156" xlink:href="#DejaVuSans-54"/>
      </g>
     </g>
    </g>
    <g id="ytick_5">
     <g id="line2d_29">
      <path clip-path="url(#p87ce9203ee)" d="M 108 224.137737 
L 698.4 224.137737 
" style="fill:none;stroke:#e6e6e6;stroke-linecap:square;stroke-width:0.8;"/>
     </g>
     <g id="line2d_30">
      <g>
       <use style="stroke:#000000;stroke-width:0.8;" x="108" xlink:href="#m4d41210ffb" y="224.137737"/>
      </g>
     </g>
     <g id="text_16">
      <!-- 0.8 -->
      <g transform="translate(77.145313 229.836565)scale(0.15 -0.15)">
       <use xlink:href="#DejaVuSans-48"/>
       <use x="63.623047" xlink:href="#DejaVuSans-46"/>
       <use x="95.410156" xlink:href="#DejaVuSans-56"/>
      </g>
     </g>
    </g>
    <g id="ytick_6">
     <g id="line2d_31">
      <path clip-path="url(#p87ce9203ee)" d="M 108 114.33719 
L 698.4 114.33719 
" style="fill:none;stroke:#e6e6e6;stroke-linecap:square;stroke-width:0.8;"/>
     </g>
     <g id="line2d_32">
      <g>
       <use style="stroke:#000000;stroke-width:0.8;" x="108" xlink:href="#m4d41210ffb" y="114.33719"/>
      </g>
     </g>
     <g id="text_17">
      <!-- 1.0 -->
      <g transform="translate(77.145313 120.036018)scale(0.15 -0.15)">
       <use xlink:href="#DejaVuSans-49"/>
       <use x="63.623047" xlink:href="#DejaVuSans-46"/>
       <use x="95.410156" xlink:href="#DejaVuSans-48"/>
      </g>
     </g>
    </g>
    <g id="text_18">
     <!-- $|f(\theta)|$ -->
     <g transform="translate(67.145313 419.05)rotate(-90)scale(0.25 -0.25)">
      <defs>
       <path d="M 21 76.421875 
L 21 -23.578125 
L 12.703125 -23.578125 
L 12.703125 76.421875 
z
" id="DejaVuSans-124"/>
       <path d="M 47.796875 75.984375 
L 46.390625 68.5 
L 37.796875 68.5 
Q 32.90625 68.5 30.6875 66.578125 
Q 28.46875 64.65625 27.390625 59.515625 
L 26.421875 54.6875 
L 41.21875 54.6875 
L 39.890625 47.703125 
L 25.09375 47.703125 
L 15.828125 0 
L 6.78125 0 
L 16.109375 47.703125 
L 7.515625 47.703125 
L 8.796875 54.6875 
L 17.390625 54.6875 
L 18.109375 58.5 
Q 19.96875 68.171875 24.625 72.078125 
Q 29.296875 75.984375 39.3125 75.984375 
z
" id="DejaVuSans-Oblique-102"/>
      </defs>
      <use transform="translate(0 0.234375)" xlink:href="#DejaVuSans-124"/>
      <use transform="translate(33.691406 0.234375)" xlink:href="#DejaVuSans-Oblique-102"/>
      <use transform="translate(68.896484 0.234375)" xlink:href="#DejaVuSans-40"/>
      <use transform="translate(107.910156 0.234375)" xlink:href="#DejaVuSans-Oblique-952"/>
      <use transform="translate(169.091797 0.234375)" xlink:href="#DejaVuSans-41"/>
      <use transform="translate(208.105469 0.234375)" xlink:href="#DejaVuSans-124"/>
     </g>
    </g>
   </g>
   <g id="line2d_33">
    <path clip-path="url(#p87ce9203ee)" d="M 108.18793 114.33719 
L 112.122677 114.446663 
L 116.057424 114.755864 
L 119.992172 115.264431 
L 123.926919 115.971771 
L 127.861666 116.877056 
L 131.796413 117.979233 
L 135.73116 119.277017 
L 139.665907 120.768901 
L 144.584341 122.904052 
L 149.502775 125.335909 
L 154.421209 128.060097 
L 159.339643 131.071734 
L 164.258077 134.365451 
L 169.176511 137.935404 
L 174.094945 141.775297 
L 179.013379 145.878402 
L 183.931812 150.237575 
L 189.833933 155.795964 
L 195.736054 161.698521 
L 201.638175 167.930839 
L 207.540295 174.477874 
L 213.442416 181.324011 
L 220.328223 189.667669 
L 227.214031 198.37013 
L 234.099838 207.40438 
L 241.969333 218.10017 
L 249.838827 229.151657 
L 258.692008 241.957391 
L 268.528876 256.57862 
L 280.333117 274.558235 
L 294.104732 295.95803 
L 319.680589 336.220849 
L 339.354324 367.001856 
L 353.125939 388.148386 
L 364.930181 405.879453 
L 375.750735 421.737417 
L 385.587603 435.776113 
L 395.424471 449.416393 
L 404.277652 461.324924 
L 413.130833 472.863626 
L 421.984014 484.014782 
L 429.853508 493.589421 
L 437.723002 502.837219 
L 445.592497 511.750926 
L 453.461991 520.324715 
L 461.331485 528.554079 
L 469.20098 536.435724 
L 477.070474 543.967456 
L 483.956281 550.269718 
L 490.842089 556.302909 
L 497.727896 562.067266 
L 504.613704 567.563453 
L 511.499511 572.792524 
L 518.385319 577.755892 
L 525.271126 582.455302 
L 532.156934 586.892822 
L 539.042741 591.070844 
L 545.928549 594.992095 
L 552.814356 598.659673 
L 559.700164 602.077092 
L 566.585971 605.248348 
L 573.471779 608.177993 
L 580.357586 610.871228 
L 587.243394 613.333989 
L 594.129201 615.573032 
L 601.015008 617.595995 
L 607.900816 619.411431 
L 615.77031 621.244264 
L 623.639804 622.83383 
L 631.509299 624.19668 
L 639.378793 625.350092 
L 648.231974 626.419092 
L 657.085155 627.269365 
L 666.922023 627.984812 
L 676.758891 628.484496 
L 687.579445 628.809436 
L 698.4 628.915754 
L 698.4 628.915754 
" style="fill:none;stroke:#c6dbef;stroke-linecap:square;stroke-width:2;"/>
   </g>
   <g id="line2d_34">
    <path clip-path="url(#p87ce9203ee)" d="M 108.18793 114.33719 
L 110.155304 114.530334 
L 112.122677 115.047553 
L 114.090051 115.888154 
L 116.057424 117.051013 
L 118.024798 118.534576 
L 119.992172 120.336861 
L 121.959545 122.455466 
L 123.926919 124.887566 
L 125.894292 127.629925 
L 127.861666 130.6789 
L 129.829039 134.030446 
L 132.7801 139.615279 
L 135.73116 145.854243 
L 138.68222 152.728881 
L 141.633281 160.21894 
L 144.584341 168.302456 
L 147.535401 176.955846 
L 151.470149 189.336575 
L 155.404896 202.622249 
L 159.339643 216.745482 
L 163.27439 231.635357 
L 168.192824 251.212903 
L 173.111258 271.722844 
L 179.013379 297.348112 
L 185.899186 328.297627 
L 195.736054 373.654701 
L 210.491356 441.745898 
L 218.36085 476.913125 
L 224.262971 502.333277 
L 230.165091 526.704445 
L 235.083525 546.073644 
L 240.001959 564.474719 
L 243.936706 578.426699 
L 247.871453 591.630673 
L 251.8062 604.013823 
L 254.757261 612.702927 
L 257.708321 620.809279 
L 260.659382 628.230601 
L 262.626755 632.716609 
L 264.594129 636.744048 
L 266.561502 640.19856 
L 267.545189 641.664275 
L 268.528876 642.926543 
L 269.512563 643.962974 
L 270.496249 644.753555 
L 271.479936 645.283923 
L 272.463623 645.548627 
L 273.44731 645.553241 
L 274.430996 645.314365 
L 275.414683 644.857425 
L 276.39837 644.213099 
L 278.365744 642.489955 
L 280.333117 640.377595 
L 284.267864 635.638697 
L 289.186298 629.670703 
L 293.121045 625.270935 
L 296.072106 622.28508 
L 299.023166 619.598616 
L 301.974226 617.223852 
L 304.925287 615.164922 
L 307.876347 613.42065 
L 310.827407 611.986253 
L 313.778468 610.854403 
L 316.729528 610.015919 
L 319.680589 609.460239 
L 322.631649 609.175757 
L 325.582709 609.150068 
L 328.53377 609.370162 
L 331.48483 609.822571 
L 334.43589 610.493494 
L 337.386951 611.368902 
L 340.338011 612.434621 
L 344.272758 614.127002 
L 348.207505 616.098654 
L 352.142252 618.316045 
L 357.060686 621.382917 
L 361.97912 624.718442 
L 367.881241 628.988282 
L 376.734422 635.721109 
L 389.52235 645.473624 
L 394.440784 648.984699 
L 398.375531 651.565477 
L 401.326592 653.287792 
L 404.277652 654.733452 
L 406.245025 655.484423 
L 408.212399 656.01724 
L 410.179773 656.296944 
L 412.147146 656.308874 
L 414.11452 656.067471 
L 416.081893 655.611773 
L 419.032954 654.634501 
L 422.967701 653.00938 
L 441.65775 644.806592 
L 447.55987 642.642788 
L 452.478304 641.064659 
L 457.396738 639.698836 
L 462.315172 638.546918 
L 467.233606 637.606872 
L 472.15204 636.874014 
L 477.070474 636.34168 
L 481.988908 636.001693 
L 487.891028 635.834419 
L 493.793149 635.912964 
L 499.69527 636.218439 
L 505.597391 636.731236 
L 512.483198 637.564915 
L 519.369005 638.62196 
L 527.2385 640.063538 
L 536.091681 641.929177 
L 545.928549 644.232991 
L 558.716477 647.464304 
L 589.210767 655.278252 
L 597.080261 657.04125 
L 602.982382 658.168781 
L 607.900816 658.902759 
L 611.835563 659.29976 
L 615.77031 659.488215 
L 619.705057 659.456845 
L 624.623491 659.148268 
L 630.525612 658.509932 
L 640.36248 657.170515 
L 655.117782 655.178767 
L 664.954649 654.073312 
L 673.80783 653.291399 
L 682.661011 652.735575 
L 691.514193 652.419576 
L 698.4 652.344347 
L 698.4 652.344347 
" style="fill:none;stroke:#6aaed6;stroke-linecap:square;stroke-width:2;"/>
   </g>
   <g id="line2d_35">
    <path clip-path="url(#p87ce9203ee)" d="M 108.18793 114.33719 
L 109.171617 114.566893 
L 110.155304 115.128702 
L 111.138991 116.021879 
L 112.122677 117.245252 
L 113.106364 118.797216 
L 114.090051 120.675734 
L 115.073738 122.878346 
L 116.057424 125.402167 
L 118.024798 131.399816 
L 119.992172 138.637359 
L 121.959545 147.077096 
L 123.926919 156.675202 
L 125.894292 167.382022 
L 127.861666 179.142396 
L 130.812726 198.625156 
L 133.763787 220.118544 
L 136.714847 243.378732 
L 140.649594 276.687387 
L 144.584341 312.016537 
L 150.486462 367.302977 
L 160.32333 459.795714 
L 164.258077 494.94061 
L 168.192824 528.040695 
L 171.143884 551.117931 
L 174.094945 572.339442 
L 176.062318 585.257342 
L 178.029692 597.004574 
L 179.997065 607.356966 
L 181.964439 616.007084 
L 182.948126 619.573541 
L 183.931812 622.564674 
L 184.915499 624.93417 
L 185.899186 626.651399 
L 186.882873 627.711698 
L 187.86656 628.143241 
L 188.850246 628.006687 
L 189.833933 627.387072 
L 190.81762 626.381333 
L 191.801307 625.086316 
L 193.76868 621.969518 
L 197.703427 615.308702 
L 199.670801 612.345278 
L 201.638175 609.827711 
L 203.605548 607.826505 
L 205.572922 606.375604 
L 206.556608 605.860351 
L 207.540295 605.485032 
L 208.523982 605.248423 
L 209.507669 605.148602 
L 210.491356 605.183057 
L 211.475042 605.348769 
L 212.458729 605.64229 
L 214.426103 606.597132 
L 216.393476 608.013362 
L 218.36085 609.852811 
L 220.328223 612.07431 
L 222.295597 614.634402 
L 224.262971 617.487853 
L 227.214031 622.215622 
L 231.148778 629.099045 
L 239.018272 643.213633 
L 240.985646 646.395659 
L 242.953019 649.202631 
L 243.936706 650.402082 
L 244.920393 651.422195 
L 245.90408 652.226872 
L 246.887767 652.782944 
L 247.871453 653.068501 
L 248.85514 653.081106 
L 249.838827 652.840794 
L 250.822514 652.385354 
L 252.789887 651.013107 
L 255.740948 648.393824 
L 259.675695 644.854102 
L 262.626755 642.560319 
L 264.594129 641.281147 
L 266.561502 640.225504 
L 268.528876 639.403691 
L 270.496249 638.820008 
L 272.463623 638.4742 
L 274.430996 638.362389 
L 276.39837 638.477717 
L 278.365744 638.810807 
L 280.333117 639.350128 
L 282.300491 640.082279 
L 284.267864 640.992218 
L 287.218925 642.654024 
L 290.169985 644.617179 
L 294.104732 647.585085 
L 304.925287 656.113626 
L 306.89266 657.268335 
L 308.860034 658.035737 
L 309.843721 658.225556 
L 310.827407 658.270995 
L 311.811094 658.17514 
L 313.778468 657.62724 
L 315.745841 656.760525 
L 319.680589 654.668151 
L 323.615336 652.616999 
L 326.566396 651.277933 
L 329.517456 650.170739 
L 332.468517 649.323308 
L 335.419577 648.749151 
L 338.370637 648.451678 
L 341.321698 648.426435 
L 344.272758 648.662473 
L 347.223818 649.143274 
L 350.174879 649.847416 
L 353.125939 650.749027 
L 357.060686 652.205551 
L 361.97912 654.312434 
L 369.848614 657.76807 
L 372.799675 658.783836 
L 374.767048 659.237538 
L 376.734422 659.438683 
L 378.701796 659.361189 
L 380.669169 659.038391 
L 383.620229 658.250116 
L 397.391844 654.028894 
L 401.326592 653.223504 
L 405.261339 652.683334 
L 409.196086 652.418038 
L 413.130833 652.424829 
L 417.06558 652.690782 
L 421.000327 653.194248 
L 424.935074 653.905689 
L 429.853508 655.02991 
L 436.739316 656.868622 
L 443.625123 658.655312 
L 446.576184 659.242961 
L 449.527244 659.613238 
L 452.478304 659.700303 
L 455.429365 659.501251 
L 458.380425 659.082505 
L 463.298859 658.1316 
L 473.135727 656.195969 
L 478.054161 655.455337 
L 482.972595 654.934613 
L 487.891028 654.651059 
L 492.809462 654.605528 
L 497.727896 654.786387 
L 502.64633 655.171995 
L 508.548451 655.862562 
L 515.434258 656.900059 
L 535.107994 660.068392 
L 540.026428 660.559772 
L 544.944862 660.789845 
L 549.863296 660.767521 
L 557.73279 660.440343 
L 569.537031 659.948254 
L 578.390212 659.816835 
L 588.22708 659.907822 
L 602.982382 660.303341 
L 619.705057 660.718701 
L 627.574552 660.688526 
L 633.476672 660.464014 
L 639.378793 660.035123 
L 646.2646 659.301109 
L 655.117782 658.103627 
L 675.775204 655.192523 
L 682.661011 654.469587 
L 689.546819 653.976493 
L 695.44894 653.7667 
L 698.4 653.740189 
L 698.4 653.740189 
" style="fill:none;stroke:#2070b4;stroke-linecap:square;stroke-width:2;"/>
   </g>
   <g id="line2d_36">
    <path clip-path="url(#p87ce9203ee)" d="M 108.18793 114.33719 
L 109.171617 115.320066 
L 110.155304 117.720054 
L 111.138991 121.524117 
L 112.122677 126.711599 
L 113.106364 133.254357 
L 114.090051 141.116924 
L 115.073738 150.256732 
L 117.041111 172.16383 
L 119.008485 198.503612 
L 120.975858 228.710338 
L 122.943232 262.13712 
L 125.894292 316.736368 
L 134.747473 486.920417 
L 136.714847 520.15576 
L 138.68222 549.242636 
L 139.665907 561.718142 
L 140.649594 572.484644 
L 141.633281 581.276851 
L 142.616968 587.865339 
L 143.600654 592.133957 
L 144.584341 594.159633 
L 145.568028 594.237428 
L 146.551715 592.819698 
L 147.535401 590.407373 
L 151.470149 578.665391 
L 152.453835 576.437092 
L 153.437522 574.753557 
L 154.421209 573.670408 
L 155.404896 573.216752 
L 156.388583 573.401499 
L 157.372269 574.217924 
L 158.355956 575.646968 
L 159.339643 577.65968 
L 160.32333 580.219028 
L 161.307016 583.281267 
L 163.27439 590.711676 
L 165.241764 599.497966 
L 172.127571 632.26423 
L 173.111258 635.747188 
L 174.094945 638.428524 
L 175.078631 640.119012 
L 176.062318 640.723488 
L 177.046005 640.309132 
L 178.029692 639.091647 
L 179.013379 637.347043 
L 182.948126 629.363773 
L 183.931812 627.749423 
L 184.915499 626.419384 
L 185.899186 625.403608 
L 186.882873 624.719927 
L 187.86656 624.376802 
L 188.850246 624.375198 
L 189.833933 624.709886 
L 190.81762 625.3704 
L 191.801307 626.341741 
L 192.784994 627.604911 
L 193.76868 629.137316 
L 195.736054 632.902987 
L 197.703427 637.39257 
L 202.621861 649.469155 
L 203.605548 651.44374 
L 204.589235 652.954047 
L 205.572922 653.800931 
L 206.556608 653.8614 
L 207.540295 653.199326 
L 208.523982 652.028942 
L 210.491356 649.02694 
L 212.458729 646.025525 
L 214.426103 643.543815 
L 215.40979 642.575848 
L 216.393476 641.81217 
L 217.377163 641.262021 
L 218.36085 640.930115 
L 219.344537 640.817376 
L 220.328223 640.921444 
L 221.31191 641.237033 
L 222.295597 641.756216 
L 223.279284 642.468644 
L 224.262971 643.361719 
L 226.230344 645.628896 
L 228.197718 648.414934 
L 234.099838 657.536363 
L 235.083525 658.454242 
L 236.067212 658.7708 
L 237.050899 658.409045 
L 238.034586 657.547362 
L 240.001959 655.217359 
L 241.969333 652.856492 
L 243.936706 650.846205 
L 245.90408 649.345622 
L 246.887767 648.81224 
L 247.871453 648.430723 
L 248.85514 648.203415 
L 249.838827 648.130511 
L 250.822514 648.210239 
L 251.8062 648.438998 
L 252.789887 648.811477 
L 253.773574 649.320754 
L 255.740948 650.714434 
L 257.708321 652.534971 
L 259.675695 654.67258 
L 263.610442 659.201148 
L 264.594129 660.094798 
L 265.577815 660.610974 
L 266.561502 660.546768 
L 267.545189 659.966278 
L 269.512563 658.165941 
L 272.463623 655.419292 
L 274.430996 653.94141 
L 276.39837 652.860462 
L 278.365744 652.221797 
L 279.34943 652.074684 
L 280.333117 652.04276 
L 282.300491 652.317396 
L 284.267864 653.018889 
L 286.235238 654.10132 
L 288.202611 655.500617 
L 291.153672 658.001437 
L 294.104732 660.513404 
L 295.088419 661.105679 
L 296.072106 661.332386 
L 297.055793 661.093051 
L 298.039479 660.527021 
L 303.9416 656.341851 
L 305.908974 655.36351 
L 307.876347 654.712318 
L 309.843721 654.410085 
L 311.811094 654.459899 
L 313.778468 654.847947 
L 315.745841 655.5446 
L 317.713215 656.504857 
L 320.664275 658.298059 
L 323.615336 660.192854 
L 324.599022 660.719601 
L 325.582709 661.092736 
L 326.566396 661.225083 
L 327.550083 661.081291 
L 328.53377 660.721394 
L 331.48483 659.157948 
L 334.43589 657.670451 
L 336.403264 656.912023 
L 338.370637 656.392425 
L 340.338011 656.130405 
L 342.305385 656.12816 
L 344.272758 656.373307 
L 346.240132 656.839633 
L 349.191192 657.861275 
L 354.109626 659.818156 
L 356.076999 660.322708 
L 357.060686 660.42836 
L 359.02806 660.306316 
L 360.995433 659.848846 
L 366.897554 658.154386 
L 369.848614 657.653881 
L 371.815988 657.512355 
L 374.767048 657.575681 
L 377.718109 657.90312 
L 386.57129 659.127298 
L 389.52235 659.197567 
L 394.440784 658.985386 
L 400.342905 658.764723 
L 409.196086 658.590907 
L 414.11452 658.198719 
L 419.032954 657.818229 
L 421.984014 657.779842 
L 424.935074 657.965854 
L 427.886135 658.385662 
L 435.755629 659.850808 
L 437.723002 659.90764 
L 439.690376 659.7087 
L 441.65775 659.295048 
L 450.510931 657.041789 
L 452.478304 656.812095 
L 454.445678 656.750357 
L 456.413051 656.866659 
L 458.380425 657.160679 
L 460.347798 657.621506 
L 463.298859 658.572659 
L 469.20098 660.704348 
L 471.168353 661.008016 
L 472.15204 660.979833 
L 474.119413 660.594838 
L 477.070474 659.60613 
L 481.005221 658.313094 
L 483.956281 657.657973 
L 485.923655 657.426666 
L 487.891028 657.372906 
L 489.858402 657.49669 
L 491.825776 657.789078 
L 494.776836 658.503917 
L 497.727896 659.46558 
L 503.630017 661.470718 
L 505.597391 661.798885 
L 507.564764 661.742051 
L 510.515824 661.217699 
L 514.450572 660.530926 
L 517.401632 660.294004 
L 520.352692 660.349642 
L 523.303753 660.676312 
L 527.2385 661.404533 
L 531.173247 662.125463 
L 533.14062 662.259149 
L 535.107994 662.15712 
L 541.993801 661.434272 
L 544.944862 661.438578 
L 547.895922 661.726671 
L 550.846983 662.279324 
L 553.798043 662.910859 
L 554.78173 662.913854 
L 556.749103 662.420875 
L 566.585971 659.224292 
L 569.537031 658.640483 
L 571.504405 658.425043 
L 573.471779 658.363585 
L 575.439152 658.461066 
L 577.406526 658.714697 
L 580.357586 659.360625 
L 584.292333 660.570996 
L 587.243394 661.46726 
L 589.210767 661.770657 
L 590.194454 661.751123 
L 592.161827 661.397972 
L 600.031322 659.290368 
L 601.998695 659.015467 
L 603.966069 658.900019 
L 605.933442 658.950035 
L 607.900816 659.161447 
L 610.851876 659.746421 
L 618.721371 661.694987 
L 620.688744 661.645184 
L 622.656118 661.277369 
L 627.574552 660.125268 
L 629.541925 659.828178 
L 631.509299 659.693946 
L 633.476672 659.744846 
L 635.444046 659.991654 
L 637.411419 660.434791 
L 639.378793 661.064926 
L 642.329853 662.31743 
L 644.297227 663.26281 
L 646.2646 662.268396 
L 653.150408 658.400949 
L 656.101468 657.068598 
L 658.068842 656.400812 
L 660.036215 655.952603 
L 662.003589 655.752919 
L 663.970963 655.821823 
L 665.938336 656.169081 
L 667.90571 656.792583 
L 669.873083 657.675784 
L 671.840457 658.781107 
L 675.775204 661.160833 
L 676.758891 661.455424 
L 677.742578 661.366775 
L 678.726264 660.906722 
L 680.693638 659.418186 
L 688.563132 652.636513 
L 690.530506 651.279249 
L 692.497879 650.17194 
L 694.465253 649.352849 
L 696.432626 648.84998 
L 698.4 648.680439 
L 698.4 648.680439 
" style="fill:none;stroke:#08306b;stroke-linecap:square;stroke-width:2;"/>
   </g>
   <g id="patch_3">
    <path d="M 108 720.9 
L 108 56.7 
" style="fill:none;stroke:#000000;stroke-linecap:square;stroke-linejoin:miter;stroke-width:0.8;"/>
   </g>
   <g id="patch_4">
    <path d="M 698.4 720.9 
L 698.4 56.7 
" style="fill:none;stroke:#000000;stroke-linecap:square;stroke-linejoin:miter;stroke-width:0.8;"/>
   </g>
   <g id="patch_5">
    <path d="M 108 720.9 
L 698.4 720.9 
" style="fill:none;stroke:#000000;stroke-linecap:square;stroke-linejoin:miter;stroke-width:0.8;"/>
   </g>
   <g id="patch_6">
    <path d="M 108 56.7 
L 698.4 56.7 
" style="fill:none;stroke:#000000;stroke-linecap:square;stroke-linejoin:miter;stroke-width:0.8;"/>
   </g>
   <g id="text_19">
    <!-- Scattering amplitudes $n_{ref}=1.1000$ for different $ka$ -->
    <g transform="translate(147.9 50.7)scale(0.2 -0.2)">
     <defs>
      <path d="M 53.515625 70.515625 
L 53.515625 60.890625 
Q 47.90625 63.578125 42.921875 64.890625 
Q 37.9375 66.21875 33.296875 66.21875 
Q 25.25 66.21875 20.875 63.09375 
Q 16.5 59.96875 16.5 54.203125 
Q 16.5 49.359375 19.40625 46.890625 
Q 22.3125 44.4375 30.421875 42.921875 
L 36.375 41.703125 
Q 47.40625 39.59375 52.65625 34.296875 
Q 57.90625 29 57.90625 20.125 
Q 57.90625 9.515625 50.796875 4.046875 
Q 43.703125 -1.421875 29.984375 -1.421875 
Q 24.8125 -1.421875 18.96875 -0.25 
Q 13.140625 0.921875 6.890625 3.21875 
L 6.890625 13.375 
Q 12.890625 10.015625 18.65625 8.296875 
Q 24.421875 6.59375 29.984375 6.59375 
Q 38.421875 6.59375 43.015625 9.90625 
Q 47.609375 13.234375 47.609375 19.390625 
Q 47.609375 24.75 44.3125 27.78125 
Q 41.015625 30.8125 33.5 32.328125 
L 27.484375 33.5 
Q 16.453125 35.6875 11.515625 40.375 
Q 6.59375 45.0625 6.59375 53.421875 
Q 6.59375 63.09375 13.40625 68.65625 
Q 20.21875 74.21875 32.171875 74.21875 
Q 37.3125 74.21875 42.625 73.28125 
Q 47.953125 72.359375 53.515625 70.515625 
z
" id="DejaVuSans-83"/>
      <path d="M 48.78125 52.59375 
L 48.78125 44.1875 
Q 44.96875 46.296875 41.140625 47.34375 
Q 37.3125 48.390625 33.40625 48.390625 
Q 24.65625 48.390625 19.8125 42.84375 
Q 14.984375 37.3125 14.984375 27.296875 
Q 14.984375 17.28125 19.8125 11.734375 
Q 24.65625 6.203125 33.40625 6.203125 
Q 37.3125 6.203125 41.140625 7.25 
Q 44.96875 8.296875 48.78125 10.40625 
L 48.78125 2.09375 
Q 45.015625 0.34375 40.984375 -0.53125 
Q 36.96875 -1.421875 32.421875 -1.421875 
Q 20.0625 -1.421875 12.78125 6.34375 
Q 5.515625 14.109375 5.515625 27.296875 
Q 5.515625 40.671875 12.859375 48.328125 
Q 20.21875 56 33.015625 56 
Q 37.15625 56 41.109375 55.140625 
Q 45.0625 54.296875 48.78125 52.59375 
z
" id="DejaVuSans-99"/>
      <path d="M 34.28125 27.484375 
Q 23.390625 27.484375 19.1875 25 
Q 14.984375 22.515625 14.984375 16.5 
Q 14.984375 11.71875 18.140625 8.90625 
Q 21.296875 6.109375 26.703125 6.109375 
Q 34.1875 6.109375 38.703125 11.40625 
Q 43.21875 16.703125 43.21875 25.484375 
L 43.21875 27.484375 
z
M 52.203125 31.203125 
L 52.203125 0 
L 43.21875 0 
L 43.21875 8.296875 
Q 40.140625 3.328125 35.546875 0.953125 
Q 30.953125 -1.421875 24.3125 -1.421875 
Q 15.921875 -1.421875 10.953125 3.296875 
Q 6 8.015625 6 15.921875 
Q 6 25.140625 12.171875 29.828125 
Q 18.359375 34.515625 30.609375 34.515625 
L 43.21875 34.515625 
L 43.21875 35.40625 
Q 43.21875 41.609375 39.140625 45 
Q 35.0625 48.390625 27.6875 48.390625 
Q 23 48.390625 18.546875 47.265625 
Q 14.109375 46.140625 10.015625 43.890625 
L 10.015625 52.203125 
Q 14.9375 54.109375 19.578125 55.046875 
Q 24.21875 56 28.609375 56 
Q 40.484375 56 46.34375 49.84375 
Q 52.203125 43.703125 52.203125 31.203125 
z
" id="DejaVuSans-97"/>
      <path d="M 18.3125 70.21875 
L 18.3125 54.6875 
L 36.8125 54.6875 
L 36.8125 47.703125 
L 18.3125 47.703125 
L 18.3125 18.015625 
Q 18.3125 11.328125 20.140625 9.421875 
Q 21.96875 7.515625 27.59375 7.515625 
L 36.8125 7.515625 
L 36.8125 0 
L 27.59375 0 
Q 17.1875 0 13.234375 3.875 
Q 9.28125 7.765625 9.28125 18.015625 
L 9.28125 47.703125 
L 2.6875 47.703125 
L 2.6875 54.6875 
L 9.28125 54.6875 
L 9.28125 70.21875 
z
" id="DejaVuSans-116"/>
      <path d="M 56.203125 29.59375 
L 56.203125 25.203125 
L 14.890625 25.203125 
Q 15.484375 15.921875 20.484375 11.0625 
Q 25.484375 6.203125 34.421875 6.203125 
Q 39.59375 6.203125 44.453125 7.46875 
Q 49.3125 8.734375 54.109375 11.28125 
L 54.109375 2.78125 
Q 49.265625 0.734375 44.1875 -0.34375 
Q 39.109375 -1.421875 33.890625 -1.421875 
Q 20.796875 -1.421875 13.15625 6.1875 
Q 5.515625 13.8125 5.515625 26.8125 
Q 5.515625 40.234375 12.765625 48.109375 
Q 20.015625 56 32.328125 56 
Q 43.359375 56 49.78125 48.890625 
Q 56.203125 41.796875 56.203125 29.59375 
z
M 47.21875 32.234375 
Q 47.125 39.59375 43.09375 43.984375 
Q 39.0625 48.390625 32.421875 48.390625 
Q 24.90625 48.390625 20.390625 44.140625 
Q 15.875 39.890625 15.1875 32.171875 
z
" id="DejaVuSans-101"/>
      <path d="M 41.109375 46.296875 
Q 39.59375 47.171875 37.8125 47.578125 
Q 36.03125 48 33.890625 48 
Q 26.265625 48 22.1875 43.046875 
Q 18.109375 38.09375 18.109375 28.8125 
L 18.109375 0 
L 9.078125 0 
L 9.078125 54.6875 
L 18.109375 54.6875 
L 18.109375 46.1875 
Q 20.953125 51.171875 25.484375 53.578125 
Q 30.03125 56 36.53125 56 
Q 37.453125 56 38.578125 55.875 
Q 39.703125 55.765625 41.0625 55.515625 
z
" id="DejaVuSans-114"/>
      <path d="M 9.421875 54.6875 
L 18.40625 54.6875 
L 18.40625 0 
L 9.421875 0 
z
M 9.421875 75.984375 
L 18.40625 75.984375 
L 18.40625 64.59375 
L 9.421875 64.59375 
z
" id="DejaVuSans-105"/>
      <path d="M 54.890625 33.015625 
L 54.890625 0 
L 45.90625 0 
L 45.90625 32.71875 
Q 45.90625 40.484375 42.875 44.328125 
Q 39.84375 48.1875 33.796875 48.1875 
Q 26.515625 48.1875 22.3125 43.546875 
Q 18.109375 38.921875 18.109375 30.90625 
L 18.109375 0 
L 9.078125 0 
L 9.078125 54.6875 
L 18.109375 54.6875 
L 18.109375 46.1875 
Q 21.34375 51.125 25.703125 53.5625 
Q 30.078125 56 35.796875 56 
Q 45.21875 56 50.046875 50.171875 
Q 54.890625 44.34375 54.890625 33.015625 
z
" id="DejaVuSans-110"/>
      <path d="M 45.40625 27.984375 
Q 45.40625 37.75 41.375 43.109375 
Q 37.359375 48.484375 30.078125 48.484375 
Q 22.859375 48.484375 18.828125 43.109375 
Q 14.796875 37.75 14.796875 27.984375 
Q 14.796875 18.265625 18.828125 12.890625 
Q 22.859375 7.515625 30.078125 7.515625 
Q 37.359375 7.515625 41.375 12.890625 
Q 45.40625 18.265625 45.40625 27.984375 
z
M 54.390625 6.78125 
Q 54.390625 -7.171875 48.1875 -13.984375 
Q 42 -20.796875 29.203125 -20.796875 
Q 24.46875 -20.796875 20.265625 -20.09375 
Q 16.0625 -19.390625 12.109375 -17.921875 
L 12.109375 -9.1875 
Q 16.0625 -11.328125 19.921875 -12.34375 
Q 23.78125 -13.375 27.78125 -13.375 
Q 36.625 -13.375 41.015625 -8.765625 
Q 45.40625 -4.15625 45.40625 5.171875 
L 45.40625 9.625 
Q 42.625 4.78125 38.28125 2.390625 
Q 33.9375 0 27.875 0 
Q 17.828125 0 11.671875 7.65625 
Q 5.515625 15.328125 5.515625 27.984375 
Q 5.515625 40.671875 11.671875 48.328125 
Q 17.828125 56 27.875 56 
Q 33.9375 56 38.28125 53.609375 
Q 42.625 51.21875 45.40625 46.390625 
L 45.40625 54.6875 
L 54.390625 54.6875 
z
" id="DejaVuSans-103"/>
      <path id="DejaVuSans-32"/>
      <path d="M 52 44.1875 
Q 55.375 50.25 60.0625 53.125 
Q 64.75 56 71.09375 56 
Q 79.640625 56 84.28125 50.015625 
Q 88.921875 44.046875 88.921875 33.015625 
L 88.921875 0 
L 79.890625 0 
L 79.890625 32.71875 
Q 79.890625 40.578125 77.09375 44.375 
Q 74.3125 48.1875 68.609375 48.1875 
Q 61.625 48.1875 57.5625 43.546875 
Q 53.515625 38.921875 53.515625 30.90625 
L 53.515625 0 
L 44.484375 0 
L 44.484375 32.71875 
Q 44.484375 40.625 41.703125 44.40625 
Q 38.921875 48.1875 33.109375 48.1875 
Q 26.21875 48.1875 22.15625 43.53125 
Q 18.109375 38.875 18.109375 30.90625 
L 18.109375 0 
L 9.078125 0 
L 9.078125 54.6875 
L 18.109375 54.6875 
L 18.109375 46.1875 
Q 21.1875 51.21875 25.484375 53.609375 
Q 29.78125 56 35.6875 56 
Q 41.65625 56 45.828125 52.96875 
Q 50 49.953125 52 44.1875 
z
" id="DejaVuSans-109"/>
      <path d="M 18.109375 8.203125 
L 18.109375 -20.796875 
L 9.078125 -20.796875 
L 9.078125 54.6875 
L 18.109375 54.6875 
L 18.109375 46.390625 
Q 20.953125 51.265625 25.265625 53.625 
Q 29.59375 56 35.59375 56 
Q 45.5625 56 51.78125 48.09375 
Q 58.015625 40.1875 58.015625 27.296875 
Q 58.015625 14.40625 51.78125 6.484375 
Q 45.5625 -1.421875 35.59375 -1.421875 
Q 29.59375 -1.421875 25.265625 0.953125 
Q 20.953125 3.328125 18.109375 8.203125 
z
M 48.6875 27.296875 
Q 48.6875 37.203125 44.609375 42.84375 
Q 40.53125 48.484375 33.40625 48.484375 
Q 26.265625 48.484375 22.1875 42.84375 
Q 18.109375 37.203125 18.109375 27.296875 
Q 18.109375 17.390625 22.1875 11.75 
Q 26.265625 6.109375 33.40625 6.109375 
Q 40.53125 6.109375 44.609375 11.75 
Q 48.6875 17.390625 48.6875 27.296875 
z
" id="DejaVuSans-112"/>
      <path d="M 9.421875 75.984375 
L 18.40625 75.984375 
L 18.40625 0 
L 9.421875 0 
z
" id="DejaVuSans-108"/>
      <path d="M 8.5 21.578125 
L 8.5 54.6875 
L 17.484375 54.6875 
L 17.484375 21.921875 
Q 17.484375 14.15625 20.5 10.265625 
Q 23.53125 6.390625 29.59375 6.390625 
Q 36.859375 6.390625 41.078125 11.03125 
Q 45.3125 15.671875 45.3125 23.6875 
L 45.3125 54.6875 
L 54.296875 54.6875 
L 54.296875 0 
L 45.3125 0 
L 45.3125 8.40625 
Q 42.046875 3.421875 37.71875 1 
Q 33.40625 -1.421875 27.6875 -1.421875 
Q 18.265625 -1.421875 13.375 4.4375 
Q 8.5 10.296875 8.5 21.578125 
z
M 31.109375 56 
z
" id="DejaVuSans-117"/>
      <path d="M 45.40625 46.390625 
L 45.40625 75.984375 
L 54.390625 75.984375 
L 54.390625 0 
L 45.40625 0 
L 45.40625 8.203125 
Q 42.578125 3.328125 38.25 0.953125 
Q 33.9375 -1.421875 27.875 -1.421875 
Q 17.96875 -1.421875 11.734375 6.484375 
Q 5.515625 14.40625 5.515625 27.296875 
Q 5.515625 40.1875 11.734375 48.09375 
Q 17.96875 56 27.875 56 
Q 33.9375 56 38.25 53.625 
Q 42.578125 51.265625 45.40625 46.390625 
z
M 14.796875 27.296875 
Q 14.796875 17.390625 18.875 11.75 
Q 22.953125 6.109375 30.078125 6.109375 
Q 37.203125 6.109375 41.296875 11.75 
Q 45.40625 17.390625 45.40625 27.296875 
Q 45.40625 37.203125 41.296875 42.84375 
Q 37.203125 48.484375 30.078125 48.484375 
Q 22.953125 48.484375 18.875 42.84375 
Q 14.796875 37.203125 14.796875 27.296875 
z
" id="DejaVuSans-100"/>
      <path d="M 44.28125 53.078125 
L 44.28125 44.578125 
Q 40.484375 46.53125 36.375 47.5 
Q 32.28125 48.484375 27.875 48.484375 
Q 21.1875 48.484375 17.84375 46.4375 
Q 14.5 44.390625 14.5 40.28125 
Q 14.5 37.15625 16.890625 35.375 
Q 19.28125 33.59375 26.515625 31.984375 
L 29.59375 31.296875 
Q 39.15625 29.25 43.1875 25.515625 
Q 47.21875 21.78125 47.21875 15.09375 
Q 47.21875 7.46875 41.1875 3.015625 
Q 35.15625 -1.421875 24.609375 -1.421875 
Q 20.21875 -1.421875 15.453125 -0.5625 
Q 10.6875 0.296875 5.421875 2 
L 5.421875 11.28125 
Q 10.40625 8.6875 15.234375 7.390625 
Q 20.0625 6.109375 24.8125 6.109375 
Q 31.15625 6.109375 34.5625 8.28125 
Q 37.984375 10.453125 37.984375 14.40625 
Q 37.984375 18.0625 35.515625 20.015625 
Q 33.0625 21.96875 24.703125 23.78125 
L 21.578125 24.515625 
Q 13.234375 26.265625 9.515625 29.90625 
Q 5.8125 33.546875 5.8125 39.890625 
Q 5.8125 47.609375 11.28125 51.796875 
Q 16.75 56 26.8125 56 
Q 31.78125 56 36.171875 55.265625 
Q 40.578125 54.546875 44.28125 53.078125 
z
" id="DejaVuSans-115"/>
      <path d="M 55.71875 33.015625 
L 49.3125 0 
L 40.28125 0 
L 46.6875 32.671875 
Q 47.125 34.96875 47.359375 36.71875 
Q 47.609375 38.484375 47.609375 39.5 
Q 47.609375 43.609375 45.015625 45.890625 
Q 42.4375 48.1875 37.796875 48.1875 
Q 30.5625 48.1875 25.34375 43.375 
Q 20.125 38.578125 18.5 30.328125 
L 12.5 0 
L 3.515625 0 
L 14.109375 54.6875 
L 23.09375 54.6875 
L 21.296875 46.09375 
Q 25.046875 50.828125 30.3125 53.40625 
Q 35.59375 56 41.40625 56 
Q 48.640625 56 52.609375 52.09375 
Q 56.59375 48.1875 56.59375 41.109375 
Q 56.59375 39.359375 56.375 37.359375 
Q 56.15625 35.359375 55.71875 33.015625 
z
" id="DejaVuSans-Oblique-110"/>
      <path d="M 44.578125 46.390625 
Q 43.21875 47.125 41.453125 47.515625 
Q 39.703125 47.90625 37.703125 47.90625 
Q 30.515625 47.90625 25.140625 42.453125 
Q 19.78125 37.015625 18.015625 27.875 
L 12.5 0 
L 3.515625 0 
L 14.203125 54.6875 
L 23.1875 54.6875 
L 21.484375 46.1875 
Q 25.046875 50.921875 30 53.453125 
Q 34.96875 56 40.578125 56 
Q 42.046875 56 43.453125 55.828125 
Q 44.875 55.671875 46.296875 55.28125 
z
" id="DejaVuSans-Oblique-114"/>
      <path d="M 48.09375 32.234375 
Q 48.25 33.015625 48.3125 33.84375 
Q 48.390625 34.671875 48.390625 35.5 
Q 48.390625 41.453125 44.890625 44.921875 
Q 41.40625 48.390625 35.40625 48.390625 
Q 28.71875 48.390625 23.578125 44.15625 
Q 18.453125 39.9375 15.828125 32.171875 
z
M 55.90625 25.203125 
L 14.109375 25.203125 
Q 13.8125 23.34375 13.71875 22.265625 
Q 13.625 21.1875 13.625 20.40625 
Q 13.625 13.625 17.796875 9.90625 
Q 21.96875 6.203125 29.59375 6.203125 
Q 35.453125 6.203125 40.671875 7.515625 
Q 45.90625 8.84375 50.390625 11.375 
L 48.6875 2.484375 
Q 43.84375 0.53125 38.6875 -0.4375 
Q 33.546875 -1.421875 28.21875 -1.421875 
Q 16.84375 -1.421875 10.71875 4.015625 
Q 4.59375 9.46875 4.59375 19.484375 
Q 4.59375 28.03125 7.640625 35.375 
Q 10.6875 42.71875 16.609375 48.484375 
Q 20.40625 52.09375 25.65625 54.046875 
Q 30.90625 56 36.8125 56 
Q 46.09375 56 51.578125 50.4375 
Q 57.078125 44.875 57.078125 35.5 
Q 57.078125 33.25 56.78125 30.6875 
Q 56.5 28.125 55.90625 25.203125 
z
" id="DejaVuSans-Oblique-101"/>
      <path d="M 10.59375 45.40625 
L 73.1875 45.40625 
L 73.1875 37.203125 
L 10.59375 37.203125 
z
M 10.59375 25.484375 
L 73.1875 25.484375 
L 73.1875 17.1875 
L 10.59375 17.1875 
z
" id="DejaVuSans-61"/>
      <path d="M 37.109375 75.984375 
L 37.109375 68.5 
L 28.515625 68.5 
Q 23.6875 68.5 21.796875 66.546875 
Q 19.921875 64.59375 19.921875 59.515625 
L 19.921875 54.6875 
L 34.71875 54.6875 
L 34.71875 47.703125 
L 19.921875 47.703125 
L 19.921875 0 
L 10.890625 0 
L 10.890625 47.703125 
L 2.296875 47.703125 
L 2.296875 54.6875 
L 10.890625 54.6875 
L 10.890625 58.5 
Q 10.890625 67.625 15.140625 71.796875 
Q 19.390625 75.984375 28.609375 75.984375 
z
" id="DejaVuSans-102"/>
      <path d="M 30.609375 48.390625 
Q 23.390625 48.390625 19.1875 42.75 
Q 14.984375 37.109375 14.984375 27.296875 
Q 14.984375 17.484375 19.15625 11.84375 
Q 23.34375 6.203125 30.609375 6.203125 
Q 37.796875 6.203125 41.984375 11.859375 
Q 46.1875 17.53125 46.1875 27.296875 
Q 46.1875 37.015625 41.984375 42.703125 
Q 37.796875 48.390625 30.609375 48.390625 
z
M 30.609375 56 
Q 42.328125 56 49.015625 48.375 
Q 55.71875 40.765625 55.71875 27.296875 
Q 55.71875 13.875 49.015625 6.21875 
Q 42.328125 -1.421875 30.609375 -1.421875 
Q 18.84375 -1.421875 12.171875 6.21875 
Q 5.515625 13.875 5.515625 27.296875 
Q 5.515625 40.765625 12.171875 48.375 
Q 18.84375 56 30.609375 56 
z
" id="DejaVuSans-111"/>
      <path d="M 18.3125 75.984375 
L 27.296875 75.984375 
L 18.703125 31.6875 
L 49.515625 54.6875 
L 61.1875 54.6875 
L 26.8125 28.515625 
L 51.90625 0 
L 41.015625 0 
L 17.671875 26.703125 
L 12.5 0 
L 3.515625 0 
z
" id="DejaVuSans-Oblique-107"/>
      <path d="M 53.71875 31.203125 
L 47.609375 0 
L 38.625 0 
L 40.28125 8.296875 
Q 36.328125 3.421875 31.265625 1 
Q 26.21875 -1.421875 20.015625 -1.421875 
Q 13.03125 -1.421875 8.5625 2.84375 
Q 4.109375 7.125 4.109375 13.8125 
Q 4.109375 23.390625 11.75 28.953125 
Q 19.390625 34.515625 32.8125 34.515625 
L 45.3125 34.515625 
L 45.796875 36.921875 
Q 45.90625 37.3125 45.953125 37.765625 
Q 46 38.234375 46 39.203125 
Q 46 43.5625 42.453125 45.96875 
Q 38.921875 48.390625 32.515625 48.390625 
Q 28.125 48.390625 23.5 47.265625 
Q 18.890625 46.140625 14.015625 43.890625 
L 15.578125 52.203125 
Q 20.65625 54.109375 25.515625 55.046875 
Q 30.375 56 34.90625 56 
Q 44.578125 56 49.625 51.796875 
Q 54.6875 47.609375 54.6875 39.59375 
Q 54.6875 37.984375 54.4375 35.8125 
Q 54.203125 33.640625 53.71875 31.203125 
z
M 44 27.484375 
L 35.015625 27.484375 
Q 23.96875 27.484375 18.671875 24.53125 
Q 13.375 21.578125 13.375 15.375 
Q 13.375 11.078125 16.078125 8.640625 
Q 18.796875 6.203125 23.578125 6.203125 
Q 30.90625 6.203125 36.375 11.453125 
Q 41.84375 16.703125 43.609375 25.484375 
z
" id="DejaVuSans-Oblique-97"/>
     </defs>
     <use transform="translate(0 0.015625)" xlink:href="#DejaVuSans-83"/>
     <use transform="translate(63.476562 0.015625)" xlink:href="#DejaVuSans-99"/>
     <use transform="translate(118.457031 0.015625)" xlink:href="#DejaVuSans-97"/>
     <use transform="translate(179.736328 0.015625)" xlink:href="#DejaVuSans-116"/>
     <use transform="translate(218.945312 0.015625)" xlink:href="#DejaVuSans-116"/>
     <use transform="translate(258.154297 0.015625)" xlink:href="#DejaVuSans-101"/>
     <use transform="translate(319.677734 0.015625)" xlink:href="#DejaVuSans-114"/>
     <use transform="translate(360.791016 0.015625)" xlink:href="#DejaVuSans-105"/>
     <use transform="translate(388.574219 0.015625)" xlink:href="#DejaVuSans-110"/>
     <use transform="translate(451.953125 0.015625)" xlink:href="#DejaVuSans-103"/>
     <use transform="translate(515.429688 0.015625)" xlink:href="#DejaVuSans-32"/>
     <use transform="translate(547.216797 0.015625)" xlink:href="#DejaVuSans-97"/>
     <use transform="translate(608.496094 0.015625)" xlink:href="#DejaVuSans-109"/>
     <use transform="translate(705.908203 0.015625)" xlink:href="#DejaVuSans-112"/>
     <use transform="translate(769.384766 0.015625)" xlink:href="#DejaVuSans-108"/>
     <use transform="translate(797.167969 0.015625)" xlink:href="#DejaVuSans-105"/>
     <use transform="translate(824.951172 0.015625)" xlink:href="#DejaVuSans-116"/>
     <use transform="translate(864.160156 0.015625)" xlink:href="#DejaVuSans-117"/>
     <use transform="translate(927.539062 0.015625)" xlink:href="#DejaVuSans-100"/>
     <use transform="translate(991.015625 0.015625)" xlink:href="#DejaVuSans-101"/>
     <use transform="translate(1052.539062 0.015625)" xlink:href="#DejaVuSans-115"/>
     <use transform="translate(1104.638672 0.015625)" xlink:href="#DejaVuSans-32"/>
     <use transform="translate(1136.425781 0.015625)" xlink:href="#DejaVuSans-Oblique-110"/>
     <use transform="translate(1199.804688 -16.390625)scale(0.7)" xlink:href="#DejaVuSans-Oblique-114"/>
     <use transform="translate(1228.583984 -16.390625)scale(0.7)" xlink:href="#DejaVuSans-Oblique-101"/>
     <use transform="translate(1271.650391 -16.390625)scale(0.7)" xlink:href="#DejaVuSans-Oblique-102"/>
     <use transform="translate(1318.510742 0.015625)" xlink:href="#DejaVuSans-61"/>
     <use transform="translate(1421.782227 0.015625)" xlink:href="#DejaVuSans-49"/>
     <use transform="translate(1485.405273 0.015625)" xlink:href="#DejaVuSans-46"/>
     <use transform="translate(1517.192383 0.015625)" xlink:href="#DejaVuSans-49"/>
     <use transform="translate(1580.81543 0.015625)" xlink:href="#DejaVuSans-48"/>
     <use transform="translate(1644.438477 0.015625)" xlink:href="#DejaVuSans-48"/>
     <use transform="translate(1708.061523 0.015625)" xlink:href="#DejaVuSans-48"/>
     <use transform="translate(1771.68457 0.015625)" xlink:href="#DejaVuSans-32"/>
     <use transform="translate(1803.47168 0.015625)" xlink:href="#DejaVuSans-102"/>
     <use transform="translate(1838.676758 0.015625)" xlink:href="#DejaVuSans-111"/>
     <use transform="translate(1899.858398 0.015625)" xlink:href="#DejaVuSans-114"/>
     <use transform="translate(1940.97168 0.015625)" xlink:href="#DejaVuSans-32"/>
     <use transform="translate(1972.758789 0.015625)" xlink:href="#DejaVuSans-100"/>
     <use transform="translate(2036.235352 0.015625)" xlink:href="#DejaVuSans-105"/>
     <use transform="translate(2064.018555 0.015625)" xlink:href="#DejaVuSans-102"/>
     <use transform="translate(2099.223633 0.015625)" xlink:href="#DejaVuSans-102"/>
     <use transform="translate(2134.428711 0.015625)" xlink:href="#DejaVuSans-101"/>
     <use transform="translate(2195.952148 0.015625)" xlink:href="#DejaVuSans-114"/>
     <use transform="translate(2237.06543 0.015625)" xlink:href="#DejaVuSans-101"/>
     <use transform="translate(2298.588867 0.015625)" xlink:href="#DejaVuSans-110"/>
     <use transform="translate(2361.967773 0.015625)" xlink:href="#DejaVuSans-116"/>
     <use transform="translate(2401.176758 0.015625)" xlink:href="#DejaVuSans-32"/>
     <use transform="translate(2432.963867 0.015625)" xlink:href="#DejaVuSans-Oblique-107"/>
     <use transform="translate(2490.874023 0.015625)" xlink:href="#DejaVuSans-Oblique-97"/>
    </g>
   </g>
   <g id="legend_1">
    <g id="patch_7">
     <path d="M 527.4 190.125 
L 684.4 190.125 
Q 688.4 190.125 688.4 186.125 
L 688.4 70.7 
Q 688.4 66.7 684.4 66.7 
L 527.4 66.7 
Q 523.4 66.7 523.4 70.7 
L 523.4 186.125 
Q 523.4 190.125 527.4 190.125 
z
" style="fill:#ffffff;opacity:0.8;stroke:#cccccc;stroke-linejoin:miter;"/>
    </g>
    <g id="line2d_37">
     <path d="M 531.4 82.896875 
L 571.4 82.896875 
" style="fill:none;stroke:#c6dbef;stroke-linecap:square;stroke-width:2;"/>
    </g>
    <g id="line2d_38"/>
    <g id="text_20">
     <!-- $ka=2.0$ -->
     <g transform="translate(587.4 89.896875)scale(0.2 -0.2)">
      <use transform="translate(0 0.015625)" xlink:href="#DejaVuSans-Oblique-107"/>
      <use transform="translate(57.910156 0.015625)" xlink:href="#DejaVuSans-Oblique-97"/>
      <use transform="translate(138.671875 0.015625)" xlink:href="#DejaVuSans-61"/>
      <use transform="translate(241.943359 0.015625)" xlink:href="#DejaVuSans-50"/>
      <use transform="translate(305.566406 0.015625)" xlink:href="#DejaVuSans-46"/>
      <use transform="translate(337.353516 0.015625)" xlink:href="#DejaVuSans-48"/>
     </g>
    </g>
    <g id="line2d_39">
     <path d="M 531.4 112.253125 
L 571.4 112.253125 
" style="fill:none;stroke:#6aaed6;stroke-linecap:square;stroke-width:2;"/>
    </g>
    <g id="line2d_40"/>
    <g id="text_21">
     <!-- $ka=5.0$ -->
     <g transform="translate(587.4 119.253125)scale(0.2 -0.2)">
      <defs>
       <path d="M 10.796875 72.90625 
L 49.515625 72.90625 
L 49.515625 64.59375 
L 19.828125 64.59375 
L 19.828125 46.734375 
Q 21.96875 47.46875 24.109375 47.828125 
Q 26.265625 48.1875 28.421875 48.1875 
Q 40.625 48.1875 47.75 41.5 
Q 54.890625 34.8125 54.890625 23.390625 
Q 54.890625 11.625 47.5625 5.09375 
Q 40.234375 -1.421875 26.90625 -1.421875 
Q 22.3125 -1.421875 17.546875 -0.640625 
Q 12.796875 0.140625 7.71875 1.703125 
L 7.71875 11.625 
Q 12.109375 9.234375 16.796875 8.0625 
Q 21.484375 6.890625 26.703125 6.890625 
Q 35.15625 6.890625 40.078125 11.328125 
Q 45.015625 15.765625 45.015625 23.390625 
Q 45.015625 31 40.078125 35.4375 
Q 35.15625 39.890625 26.703125 39.890625 
Q 22.75 39.890625 18.8125 39.015625 
Q 14.890625 38.140625 10.796875 36.28125 
z
" id="DejaVuSans-53"/>
      </defs>
      <use transform="translate(0 0.015625)" xlink:href="#DejaVuSans-Oblique-107"/>
      <use transform="translate(57.910156 0.015625)" xlink:href="#DejaVuSans-Oblique-97"/>
      <use transform="translate(138.671875 0.015625)" xlink:href="#DejaVuSans-61"/>
      <use transform="translate(241.943359 0.015625)" xlink:href="#DejaVuSans-53"/>
      <use transform="translate(305.566406 0.015625)" xlink:href="#DejaVuSans-46"/>
      <use transform="translate(337.353516 0.015625)" xlink:href="#DejaVuSans-48"/>
     </g>
    </g>
    <g id="line2d_41">
     <path d="M 531.4 141.609375 
L 571.4 141.609375 
" style="fill:none;stroke:#2070b4;stroke-linecap:square;stroke-width:2;"/>
    </g>
    <g id="line2d_42"/>
    <g id="text_22">
     <!-- $ka=10.0$ -->
     <g transform="translate(587.4 148.609375)scale(0.2 -0.2)">
      <use transform="translate(0 0.015625)" xlink:href="#DejaVuSans-Oblique-107"/>
      <use transform="translate(57.910156 0.015625)" xlink:href="#DejaVuSans-Oblique-97"/>
      <use transform="translate(138.671875 0.015625)" xlink:href="#DejaVuSans-61"/>
      <use transform="translate(241.943359 0.015625)" xlink:href="#DejaVuSans-49"/>
      <use transform="translate(305.566406 0.015625)" xlink:href="#DejaVuSans-48"/>
      <use transform="translate(369.189453 0.015625)" xlink:href="#DejaVuSans-46"/>
      <use transform="translate(400.976562 0.015625)" xlink:href="#DejaVuSans-48"/>
     </g>
    </g>
    <g id="line2d_43">
     <path d="M 531.4 170.965625 
L 571.4 170.965625 
" style="fill:none;stroke:#08306b;stroke-linecap:square;stroke-width:2;"/>
    </g>
    <g id="line2d_44"/>
    <g id="text_23">
     <!-- $ka=20.0$ -->
     <g transform="translate(587.4 177.965625)scale(0.2 -0.2)">
      <use transform="translate(0 0.015625)" xlink:href="#DejaVuSans-Oblique-107"/>
      <use transform="translate(57.910156 0.015625)" xlink:href="#DejaVuSans-Oblique-97"/>
      <use transform="translate(138.671875 0.015625)" xlink:href="#DejaVuSans-61"/>
      <use transform="translate(241.943359 0.015625)" xlink:href="#DejaVuSans-50"/>
      <use transform="translate(305.566406 0.015625)" xlink:href="#DejaVuSans-48"/>
      <use transform="translate(369.189453 0.015625)" xlink:href="#DejaVuSans-46"/>
      <use transform="translate(400.976562 0.015625)" xlink:href="#DejaVuSans-48"/>
     </g>
    </g>
   </g>
  </g>
 </g>
 <defs>
  <clipPath id="p87ce9203ee">
   <rect height="664.2" width="590.4" x="108" y="56.7"/>
  </clipPath>
 </defs>
</svg>
