<?xml version="1.0" encoding="utf-8" standalone="no"?>
<!DOCTYPE svg PUBLIC "-//W3C//DTD SVG 1.1//EN"
  "http://www.w3.org/Graphics/SVG/1.1/DTD/svg11.dtd">
<!-- Created with matplotlib (https://matplotlib.org/) -->
<svg height="810pt" version="1.1" viewBox="0 0 720 810" width="720pt" xmlns="http://www.w3.org/2000/svg" xmlns:xlink="http://www.w3.org/1999/xlink">
 <metadata>
  <rdf:RDF xmlns:cc="http://creativecommons.org/ns#" xmlns:dc="http://purl.org/dc/elements/1.1/" xmlns:rdf="http://www.w3.org/1999/02/22-rdf-syntax-ns#">
   <cc:Work>
    <dc:type rdf:resource="http://purl.org/dc/dcmitype/StillImage"/>
    <dc:date>2020-11-30T00:34:16.536653</dc:date>
    <dc:format>image/svg+xml</dc:format>
    <dc:creator>
     <cc:Agent>
      <dc:title>Matplotlib v3.3.1, https://matplotlib.org/</dc:title>
     </cc:Agent>
    </dc:creator>
   </cc:Work>
  </rdf:RDF>
 </metadata>
 <defs>
  <style type="text/css">*{stroke-linecap:butt;stroke-linejoin:round;}</style>
 </defs>
 <g id="figure_1">
  <g id="patch_1">
   <path d="M 0 810 
L 720 810 
L 720 0 
L 0 0 
z
" style="fill:#ffffff;"/>
  </g>
  <g id="axes_1">
   <g id="patch_2">
    <path d="M 108 720.9 
L 698.4 720.9 
L 698.4 56.7 
L 108 56.7 
z
" style="fill:#ffffff;"/>
   </g>
   <g id="matplotlib.axis_1">
    <g id="xtick_1">
     <g id="line2d_1">
      <path clip-path="url(#p701445d584)" d="M 108 720.9 
L 108 56.7 
" style="fill:none;stroke:#e6e6e6;stroke-linecap:square;stroke-width:0.8;"/>
     </g>
     <g id="line2d_2">
      <defs>
       <path d="M 0 0 
L 0 -3.5 
" id="mcb356b8642" style="stroke:#000000;stroke-width:0.8;"/>
      </defs>
      <g>
       <use style="stroke:#000000;stroke-width:0.8;" x="108" xlink:href="#mcb356b8642" y="720.9"/>
      </g>
     </g>
     <g id="text_1">
      <!-- $\mathdefault{0}$ -->
      <g transform="translate(104.341881 734.777725)scale(0.15 -0.15)">
       <defs>
        <path d="M 42 31.640625 
C 42 37.75 41.90625 48.125 37.703125 56.109375 
C 34 63.109375 28.09375 65.59375 22.90625 65.59375 
C 18.09375 65.59375 12 63.40625 8.203125 56.203125 
C 4.203125 48.71875 3.796875 39.4375 3.796875 31.640625 
C 3.796875 25.953125 3.90625 17.28125 7 9.671875 
C 11.296875 -0.609375 19 -2 22.90625 -2 
C 27.5 -2 34.5 -0.109375 38.59375 9.375 
C 41.59375 16.28125 42 24.359375 42 31.640625 
z
M 22.90625 -0.40625 
C 16.5 -0.40625 12.703125 5.078125 11.296875 12.6875 
C 10.203125 18.5625 10.203125 27.15625 10.203125 32.75 
C 10.203125 40.4375 10.203125 46.828125 11.5 52.921875 
C 13.40625 61.390625 19 64 22.90625 64 
C 27 64 32.296875 61.296875 34.203125 53.125 
C 35.5 47.4375 35.59375 40.734375 35.59375 32.75 
C 35.59375 26.25 35.59375 18.265625 34.40625 12.375 
C 32.296875 1.484375 26.40625 -0.40625 22.90625 -0.40625 
z
" id="CMR17-48"/>
       </defs>
       <use transform="scale(0.996264)" xlink:href="#CMR17-48"/>
      </g>
     </g>
    </g>
    <g id="xtick_2">
     <g id="line2d_3">
      <path clip-path="url(#p701445d584)" d="M 173.6 720.9 
L 173.6 56.7 
" style="fill:none;stroke:#e6e6e6;stroke-linecap:square;stroke-width:0.8;"/>
     </g>
     <g id="line2d_4">
      <g>
       <use style="stroke:#000000;stroke-width:0.8;" x="173.6" xlink:href="#mcb356b8642" y="720.9"/>
      </g>
     </g>
     <g id="text_2">
      <!-- $\mathdefault{20}$ -->
      <g transform="translate(166.283762 734.777725)scale(0.15 -0.15)">
       <defs>
        <path d="M 41.703125 15.453125 
L 39.90625 15.453125 
C 38.90625 8.375 38.09375 7.171875 37.703125 6.5625 
C 37.203125 5.765625 30 5.765625 28.59375 5.765625 
L 9.40625 5.765625 
C 13 9.671875 20 16.75 28.5 24.953125 
C 34.59375 30.734375 41.703125 37.53125 41.703125 47.421875 
C 41.703125 59.21875 32.296875 66 21.796875 66 
C 10.796875 66 4.09375 56.3125 4.09375 47.34375 
C 4.09375 43.4375 7 42.9375 8.203125 42.9375 
C 9.203125 42.9375 12.203125 43.546875 12.203125 47.03125 
C 12.203125 50.109375 9.59375 51 8.203125 51 
C 7.59375 51 7 50.90625 6.59375 50.703125 
C 8.5 59.21875 14.296875 63.40625 20.40625 63.40625 
C 29.09375 63.40625 34.796875 56.515625 34.796875 47.421875 
C 34.796875 38.734375 29.703125 31.25 24 24.75 
L 4.09375 2.28125 
L 4.09375 0 
L 39.296875 0 
z
" id="CMR17-50"/>
       </defs>
       <use transform="scale(0.996264)" xlink:href="#CMR17-50"/>
       <use transform="translate(45.690477 0)scale(0.996264)" xlink:href="#CMR17-48"/>
      </g>
     </g>
    </g>
    <g id="xtick_3">
     <g id="line2d_5">
      <path clip-path="url(#p701445d584)" d="M 239.2 720.9 
L 239.2 56.7 
" style="fill:none;stroke:#e6e6e6;stroke-linecap:square;stroke-width:0.8;"/>
     </g>
     <g id="line2d_6">
      <g>
       <use style="stroke:#000000;stroke-width:0.8;" x="239.2" xlink:href="#mcb356b8642" y="720.9"/>
      </g>
     </g>
     <g id="text_3">
      <!-- $\mathdefault{40}$ -->
      <g transform="translate(231.883762 734.777725)scale(0.15 -0.15)">
       <defs>
        <path d="M 33.59375 64.40625 
C 33.59375 66.5 33.5 66.5 31.703125 66.5 
L 2 19.59375 
L 2 17 
L 27.796875 17 
L 27.796875 7.140625 
C 27.796875 3.5 27.59375 2.5 20.59375 2.5 
L 18.703125 2.5 
L 18.703125 0 
C 21.90625 0 27.296875 0 30.703125 0 
C 34.09375 0 39.5 0 42.703125 0 
L 42.703125 2.5 
L 40.796875 2.5 
C 33.796875 2.5 33.59375 3.5 33.59375 7.140625 
L 33.59375 17 
L 43.796875 17 
L 43.796875 19.59375 
L 33.59375 19.59375 
z
M 28.09375 57.859375 
L 28.09375 19.59375 
L 4 19.59375 
z
" id="CMR17-52"/>
       </defs>
       <use transform="scale(0.996264)" xlink:href="#CMR17-52"/>
       <use transform="translate(45.690477 0)scale(0.996264)" xlink:href="#CMR17-48"/>
      </g>
     </g>
    </g>
    <g id="xtick_4">
     <g id="line2d_7">
      <path clip-path="url(#p701445d584)" d="M 304.8 720.9 
L 304.8 56.7 
" style="fill:none;stroke:#e6e6e6;stroke-linecap:square;stroke-width:0.8;"/>
     </g>
     <g id="line2d_8">
      <g>
       <use style="stroke:#000000;stroke-width:0.8;" x="304.8" xlink:href="#mcb356b8642" y="720.9"/>
      </g>
     </g>
     <g id="text_4">
      <!-- $\mathdefault{60}$ -->
      <g transform="translate(297.483762 734.777725)scale(0.15 -0.15)">
       <defs>
        <path d="M 10.59375 34 
C 10.59375 57.65625 21.796875 63 28.296875 63 
C 30.40625 63 35.5 62.640625 37.5 59 
C 35.90625 59 32.90625 59 32.90625 55.515625 
C 32.90625 52.828125 35.09375 51.921875 36.5 51.921875 
C 37.40625 51.921875 40.09375 52.3125 40.09375 55.625 
C 40.09375 61.78125 35.09375 65.296875 28.203125 65.296875 
C 16.296875 65.296875 3.796875 52.96875 3.796875 31 
C 3.796875 3.953125 15.09375 -2 23.09375 -2 
C 32.796875 -2 42 6.671875 42 20.046875 
C 42 32.515625 33.90625 41.59375 23.703125 41.59375 
C 17.59375 41.59375 13.09375 37.609375 10.59375 30.625 
z
M 23.09375 0.390625 
C 10.796875 0.390625 10.796875 18.75 10.796875 22.4375 
C 10.796875 29.625 14.203125 40 23.5 40 
C 25.203125 40 30.09375 40 33.40625 33.125 
C 35.203125 29.21875 35.203125 25.140625 35.203125 20.140625 
C 35.203125 14.75 35.203125 10.78125 33.09375 6.78125 
C 30.90625 2.671875 27.703125 0.390625 23.09375 0.390625 
z
" id="CMR17-54"/>
       </defs>
       <use transform="scale(0.996264)" xlink:href="#CMR17-54"/>
       <use transform="translate(45.690477 0)scale(0.996264)" xlink:href="#CMR17-48"/>
      </g>
     </g>
    </g>
    <g id="xtick_5">
     <g id="line2d_9">
      <path clip-path="url(#p701445d584)" d="M 370.4 720.9 
L 370.4 56.7 
" style="fill:none;stroke:#e6e6e6;stroke-linecap:square;stroke-width:0.8;"/>
     </g>
     <g id="line2d_10">
      <g>
       <use style="stroke:#000000;stroke-width:0.8;" x="370.4" xlink:href="#mcb356b8642" y="720.9"/>
      </g>
     </g>
     <g id="text_5">
      <!-- $\mathdefault{80}$ -->
      <g transform="translate(363.083762 734.777725)scale(0.15 -0.15)">
       <defs>
        <path d="M 27.203125 35.375 
C 33.5 38.546875 39.90625 43.328125 39.90625 50.984375 
C 39.90625 60.015625 31.09375 65.296875 23 65.296875 
C 13.90625 65.296875 5.90625 58.734375 5.90625 49.6875 
C 5.90625 47.203125 6.5 42.921875 10.40625 39.140625 
C 11.40625 38.15625 15.59375 35.171875 18.296875 33.28125 
C 13.796875 30.984375 3.296875 25.53125 3.296875 14.59375 
C 3.296875 4.359375 13.09375 -2 22.796875 -2 
C 33.5 -2 42.5 5.65625 42.5 15.78125 
C 42.5 24.84375 36.40625 29.015625 32.40625 31.703125 
z
M 14.09375 44.09375 
C 13.296875 44.59375 9.296875 47.671875 9.296875 52.359375 
C 9.296875 58.421875 15.59375 63 22.796875 63 
C 30.703125 63 36.5 57.4375 36.5 50.96875 
C 36.5 41.703125 26.09375 36.421875 25.59375 36.421875 
C 25.5 36.421875 25.40625 36.421875 24.59375 37.03125 
z
M 32.5 23.734375 
C 34 22.640625 38.796875 19.375 38.796875 13.296875 
C 38.796875 5.953125 31.40625 0.390625 23 0.390625 
C 13.90625 0.390625 7 6.84375 7 14.6875 
C 7 22.546875 13.09375 29.09375 20 32.1875 
z
" id="CMR17-56"/>
       </defs>
       <use transform="scale(0.996264)" xlink:href="#CMR17-56"/>
       <use transform="translate(45.690477 0)scale(0.996264)" xlink:href="#CMR17-48"/>
      </g>
     </g>
    </g>
    <g id="xtick_6">
     <g id="line2d_11">
      <path clip-path="url(#p701445d584)" d="M 436 720.9 
L 436 56.7 
" style="fill:none;stroke:#e6e6e6;stroke-linecap:square;stroke-width:0.8;"/>
     </g>
     <g id="line2d_12">
      <g>
       <use style="stroke:#000000;stroke-width:0.8;" x="436" xlink:href="#mcb356b8642" y="720.9"/>
      </g>
     </g>
     <g id="text_6">
      <!-- $\mathdefault{100}$ -->
      <g transform="translate(425.025643 734.777725)scale(0.15 -0.15)">
       <defs>
        <path d="M 26.59375 63.40625 
C 26.59375 65.5 26.5 65.5 25.09375 65.5 
C 21.203125 61.1875 15.296875 59.796875 9.703125 59.796875 
C 9.40625 59.796875 8.90625 59.796875 8.796875 59.5 
C 8.703125 59.296875 8.703125 59.09375 8.703125 57 
C 11.796875 57 17 57.59375 21 59.984375 
L 21 7.203125 
C 21 3.6875 20.796875 2.5 12.203125 2.5 
L 9.203125 2.5 
L 9.203125 0 
C 14 0 19 0 23.796875 0 
C 28.59375 0 33.59375 0 38.40625 0 
L 38.40625 2.5 
L 35.40625 2.5 
C 26.796875 2.5 26.59375 3.59375 26.59375 7.15625 
z
" id="CMR17-49"/>
       </defs>
       <use transform="scale(0.996264)" xlink:href="#CMR17-49"/>
       <use transform="translate(45.690477 0)scale(0.996264)" xlink:href="#CMR17-48"/>
       <use transform="translate(91.380954 0)scale(0.996264)" xlink:href="#CMR17-48"/>
      </g>
     </g>
    </g>
    <g id="xtick_7">
     <g id="line2d_13">
      <path clip-path="url(#p701445d584)" d="M 501.6 720.9 
L 501.6 56.7 
" style="fill:none;stroke:#e6e6e6;stroke-linecap:square;stroke-width:0.8;"/>
     </g>
     <g id="line2d_14">
      <g>
       <use style="stroke:#000000;stroke-width:0.8;" x="501.6" xlink:href="#mcb356b8642" y="720.9"/>
      </g>
     </g>
     <g id="text_7">
      <!-- $\mathdefault{120}$ -->
      <g transform="translate(490.625643 734.777725)scale(0.15 -0.15)">
       <use transform="scale(0.996264)" xlink:href="#CMR17-49"/>
       <use transform="translate(45.690477 0)scale(0.996264)" xlink:href="#CMR17-50"/>
       <use transform="translate(91.380954 0)scale(0.996264)" xlink:href="#CMR17-48"/>
      </g>
     </g>
    </g>
    <g id="xtick_8">
     <g id="line2d_15">
      <path clip-path="url(#p701445d584)" d="M 567.2 720.9 
L 567.2 56.7 
" style="fill:none;stroke:#e6e6e6;stroke-linecap:square;stroke-width:0.8;"/>
     </g>
     <g id="line2d_16">
      <g>
       <use style="stroke:#000000;stroke-width:0.8;" x="567.2" xlink:href="#mcb356b8642" y="720.9"/>
      </g>
     </g>
     <g id="text_8">
      <!-- $\mathdefault{140}$ -->
      <g transform="translate(556.225643 734.777725)scale(0.15 -0.15)">
       <use transform="scale(0.996264)" xlink:href="#CMR17-49"/>
       <use transform="translate(45.690477 0)scale(0.996264)" xlink:href="#CMR17-52"/>
       <use transform="translate(91.380954 0)scale(0.996264)" xlink:href="#CMR17-48"/>
      </g>
     </g>
    </g>
    <g id="xtick_9">
     <g id="line2d_17">
      <path clip-path="url(#p701445d584)" d="M 632.8 720.9 
L 632.8 56.7 
" style="fill:none;stroke:#e6e6e6;stroke-linecap:square;stroke-width:0.8;"/>
     </g>
     <g id="line2d_18">
      <g>
       <use style="stroke:#000000;stroke-width:0.8;" x="632.8" xlink:href="#mcb356b8642" y="720.9"/>
      </g>
     </g>
     <g id="text_9">
      <!-- $\mathdefault{160}$ -->
      <g transform="translate(621.825643 734.777725)scale(0.15 -0.15)">
       <use transform="scale(0.996264)" xlink:href="#CMR17-49"/>
       <use transform="translate(45.690477 0)scale(0.996264)" xlink:href="#CMR17-54"/>
       <use transform="translate(91.380954 0)scale(0.996264)" xlink:href="#CMR17-48"/>
      </g>
     </g>
    </g>
    <g id="xtick_10">
     <g id="line2d_19">
      <path clip-path="url(#p701445d584)" d="M 698.4 720.9 
L 698.4 56.7 
" style="fill:none;stroke:#e6e6e6;stroke-linecap:square;stroke-width:0.8;"/>
     </g>
     <g id="line2d_20">
      <g>
       <use style="stroke:#000000;stroke-width:0.8;" x="698.4" xlink:href="#mcb356b8642" y="720.9"/>
      </g>
     </g>
     <g id="text_10">
      <!-- $\mathdefault{180}$ -->
      <g transform="translate(687.425643 734.777725)scale(0.15 -0.15)">
       <use transform="scale(0.996264)" xlink:href="#CMR17-49"/>
       <use transform="translate(45.690477 0)scale(0.996264)" xlink:href="#CMR17-56"/>
       <use transform="translate(91.380954 0)scale(0.996264)" xlink:href="#CMR17-48"/>
      </g>
     </g>
    </g>
    <g id="text_11">
     <!-- $\theta(^{\circ})$ -->
     <g transform="translate(383.750923 760.340997)scale(0.25 -0.25)">
      <defs>
       <path d="M 44.296875 50 
C 44.296875 60.15625 41.09375 70 32.90625 70 
C 18.90625 70 4 40.859375 4 19 
C 4 14.421875 5 -1 15.5 -1 
C 29.09375 -1 44.296875 27.4375 44.296875 50 
z
M 14 36 
C 15.5 41.859375 17.59375 50.21875 21.59375 57.265625 
C 24.90625 63.234375 28.40625 68 32.796875 68 
C 36.09375 68 38.296875 65.21875 38.296875 55.6875 
C 38.296875 52.09375 38 47.140625 35.09375 36 
z
M 34.40625 33.015625 
C 31.90625 23.28125 29.796875 17 26.203125 10.734375 
C 23.296875 5.671875 19.796875 1 15.59375 1 
C 12.5 1 10 3.390625 10 13.21875 
C 10 19.6875 11.59375 26.453125 13.203125 33.015625 
z
" id="CMMI12-18"/>
       <path d="M 30.59375 -24.390625 
C 30.59375 -24.296875 30.59375 -24.09375 30.296875 -23.796875 
C 25.703125 -19.125 13.40625 -6.359375 13.40625 24.703125 
C 13.40625 55.765625 25.5 68.421875 30.40625 73.390625 
C 30.40625 73.5 30.59375 73.703125 30.59375 74 
C 30.59375 74.296875 30.296875 74.5 29.90625 74.5 
C 28.796875 74.5 20.296875 67.125 15.40625 56.15625 
C 10.40625 45.109375 9 34.359375 9 24.8125 
C 9 17.625 9.703125 5.484375 15.703125 -7.359375 
C 20.5 -17.734375 28.703125 -25 29.90625 -25 
C 30.40625 -25 30.59375 -24.796875 30.59375 -24.390625 
z
" id="CMR17-40"/>
       <path d="M 44.40625 25 
C 44.40625 35.578125 35.5 44.1875 25 44.1875 
C 14.203125 44.1875 5.5 35.375 5.5 25 
C 5.5 14.53125 14.203125 5.8125 25 5.8125 
C 35.5 5.8125 44.40625 14.421875 44.40625 25 
z
M 25 9.8125 
C 16.296875 9.8125 9.5 16.71875 9.5 25 
C 9.5 33.28125 16.40625 40.1875 25 40.1875 
C 33.296875 40.1875 40.40625 33.46875 40.40625 25 
C 40.40625 16.53125 33.296875 9.8125 25 9.8125 
z
" id="CMSY10-14"/>
       <path d="M 26.296875 24.703125 
C 26.296875 31.875 25.59375 44.015625 19.59375 56.859375 
C 14.796875 67.234375 6.59375 74.5 5.40625 74.5 
C 5.09375 74.5 4.703125 74.390625 4.703125 73.890625 
C 4.703125 73.703125 4.796875 73.59375 4.90625 73.390625 
C 9.703125 68.40625 21.90625 55.75 21.90625 24.75 
C 21.90625 -6.359375 9.796875 -19.015625 4.90625 -24.015625 
C 4.796875 -24.203125 4.703125 -24.3125 4.703125 -24.5 
C 4.703125 -25 5.09375 -25 5.40625 -25 
C 6.5 -25 15 -17.625 19.90625 -6.65625 
C 24.90625 4.390625 26.296875 15.140625 26.296875 24.703125 
z
" id="CMR17-41"/>
      </defs>
      <use transform="scale(0.996264)" xlink:href="#CMMI12-18"/>
      <use transform="translate(48.169508 0)scale(0.996264)" xlink:href="#CMR17-40"/>
      <use transform="translate(83.450276 36.153639)scale(0.697382)" xlink:href="#CMSY10-14"/>
      <use transform="translate(118.817618 0)scale(0.996264)" xlink:href="#CMR17-41"/>
     </g>
    </g>
   </g>
   <g id="matplotlib.axis_2">
    <g id="ytick_1">
     <g id="line2d_21">
      <path clip-path="url(#p701445d584)" d="M 108 663.326889 
L 698.4 663.326889 
" style="fill:none;stroke:#e6e6e6;stroke-linecap:square;stroke-width:0.8;"/>
     </g>
     <g id="line2d_22">
      <defs>
       <path d="M 0 0 
L 3.5 0 
" id="m680e18b49c" style="stroke:#000000;stroke-width:0.8;"/>
      </defs>
      <g>
       <use style="stroke:#000000;stroke-width:0.8;" x="108" xlink:href="#m680e18b49c" y="663.326889"/>
      </g>
     </g>
     <g id="text_12">
      <!-- $\mathdefault{0}$ -->
      <g transform="translate(97.183762 668.515752)scale(0.15 -0.15)">
       <use transform="scale(0.996264)" xlink:href="#CMR17-48"/>
      </g>
     </g>
    </g>
    <g id="ytick_2">
     <g id="line2d_23">
      <path clip-path="url(#p701445d584)" d="M 108 583.856031 
L 698.4 583.856031 
" style="fill:none;stroke:#e6e6e6;stroke-linecap:square;stroke-width:0.8;"/>
     </g>
     <g id="line2d_24">
      <g>
       <use style="stroke:#000000;stroke-width:0.8;" x="108" xlink:href="#m680e18b49c" y="583.856031"/>
      </g>
     </g>
     <g id="text_13">
      <!-- $\mathdefault{10}$ -->
      <g transform="translate(89.867524 589.044894)scale(0.15 -0.15)">
       <use transform="scale(0.996264)" xlink:href="#CMR17-49"/>
       <use transform="translate(45.690477 0)scale(0.996264)" xlink:href="#CMR17-48"/>
      </g>
     </g>
    </g>
    <g id="ytick_3">
     <g id="line2d_25">
      <path clip-path="url(#p701445d584)" d="M 108 504.385174 
L 698.4 504.385174 
" style="fill:none;stroke:#e6e6e6;stroke-linecap:square;stroke-width:0.8;"/>
     </g>
     <g id="line2d_26">
      <g>
       <use style="stroke:#000000;stroke-width:0.8;" x="108" xlink:href="#m680e18b49c" y="504.385174"/>
      </g>
     </g>
     <g id="text_14">
      <!-- $\mathdefault{20}$ -->
      <g transform="translate(89.867524 509.574036)scale(0.15 -0.15)">
       <use transform="scale(0.996264)" xlink:href="#CMR17-50"/>
       <use transform="translate(45.690477 0)scale(0.996264)" xlink:href="#CMR17-48"/>
      </g>
     </g>
    </g>
    <g id="ytick_4">
     <g id="line2d_27">
      <path clip-path="url(#p701445d584)" d="M 108 424.914316 
L 698.4 424.914316 
" style="fill:none;stroke:#e6e6e6;stroke-linecap:square;stroke-width:0.8;"/>
     </g>
     <g id="line2d_28">
      <g>
       <use style="stroke:#000000;stroke-width:0.8;" x="108" xlink:href="#m680e18b49c" y="424.914316"/>
      </g>
     </g>
     <g id="text_15">
      <!-- $\mathdefault{30}$ -->
      <g transform="translate(89.867524 430.103178)scale(0.15 -0.15)">
       <defs>
        <path d="M 22.09375 33.703125 
C 31 33.703125 34.90625 25.96875 34.90625 17.03125 
C 34.90625 5 28.5 0.390625 22.703125 0.390625 
C 17.40625 0.390625 8.796875 3.03125 6.09375 10.828125 
C 6.59375 10.625 7.09375 10.625 7.59375 10.625 
C 10 10.625 11.796875 12.21875 11.796875 14.8125 
C 11.796875 17.703125 9.59375 19 7.59375 19 
C 5.90625 19 3.296875 18.203125 3.296875 14.46875 
C 3.296875 5.234375 12.296875 -2 22.90625 -2 
C 34 -2 42.5 6.71875 42.5 16.953125 
C 42.5 26.671875 34.5 33.703125 25 34.796875 
C 32.59375 36.375 39.90625 43.0625 39.90625 52.015625 
C 39.90625 59.6875 32 65.296875 23 65.296875 
C 13.90625 65.296875 5.90625 59.828125 5.90625 52.015625 
C 5.90625 48.59375 8.5 48 9.796875 48 
C 11.90625 48 13.703125 49.296875 13.703125 51.890625 
C 13.703125 54.46875 11.90625 55.765625 9.796875 55.765625 
C 9.40625 55.765625 8.90625 55.765625 8.5 55.578125 
C 11.40625 61.859375 19.296875 63 22.796875 63 
C 26.296875 63 32.90625 61.328125 32.90625 51.875 
C 32.90625 49.109375 32.5 44.1875 29.09375 39.84375 
C 26.09375 36 22.703125 36 19.40625 35.6875 
C 18.90625 35.6875 16.59375 35.453125 16.203125 35.453125 
C 15.5 35.359375 15.09375 35.265625 15.09375 34.5 
C 15.09375 33.796875 15.203125 33.703125 17.203125 33.703125 
z
" id="CMR17-51"/>
       </defs>
       <use transform="scale(0.996264)" xlink:href="#CMR17-51"/>
       <use transform="translate(45.690477 0)scale(0.996264)" xlink:href="#CMR17-48"/>
      </g>
     </g>
    </g>
    <g id="ytick_5">
     <g id="line2d_29">
      <path clip-path="url(#p701445d584)" d="M 108 345.443458 
L 698.4 345.443458 
" style="fill:none;stroke:#e6e6e6;stroke-linecap:square;stroke-width:0.8;"/>
     </g>
     <g id="line2d_30">
      <g>
       <use style="stroke:#000000;stroke-width:0.8;" x="108" xlink:href="#m680e18b49c" y="345.443458"/>
      </g>
     </g>
     <g id="text_16">
      <!-- $\mathdefault{40}$ -->
      <g transform="translate(89.867524 350.63232)scale(0.15 -0.15)">
       <use transform="scale(0.996264)" xlink:href="#CMR17-52"/>
       <use transform="translate(45.690477 0)scale(0.996264)" xlink:href="#CMR17-48"/>
      </g>
     </g>
    </g>
    <g id="ytick_6">
     <g id="line2d_31">
      <path clip-path="url(#p701445d584)" d="M 108 265.9726 
L 698.4 265.9726 
" style="fill:none;stroke:#e6e6e6;stroke-linecap:square;stroke-width:0.8;"/>
     </g>
     <g id="line2d_32">
      <g>
       <use style="stroke:#000000;stroke-width:0.8;" x="108" xlink:href="#m680e18b49c" y="265.9726"/>
      </g>
     </g>
     <g id="text_17">
      <!-- $\mathdefault{50}$ -->
      <g transform="translate(89.867524 271.161463)scale(0.15 -0.15)">
       <defs>
        <path d="M 11.40625 57.6875 
C 12.40625 57.28125 16.5 56 20.703125 56 
C 30 56 35.09375 61.109375 38 64.0625 
C 38 64.953125 38 65.5 37.40625 65.5 
C 37.296875 65.5 37.09375 65.5 36.296875 65.046875 
C 32.796875 63.40625 28.703125 62.078125 23.703125 62.078125 
C 20.703125 62.078125 16.203125 62.484375 11.296875 64.671875 
C 10.203125 65.171875 10 65.171875 9.90625 65.171875 
C 9.40625 65.171875 9.296875 65.0625 9.296875 63.078125 
L 9.296875 34.421875 
C 9.296875 32.640625 9.296875 32.140625 10.296875 32.140625 
C 10.796875 32.140625 11 32.34375 11.5 33.03125 
C 14.703125 37.515625 19.09375 39.40625 24.09375 39.40625 
C 27.59375 39.40625 35.09375 37.21875 35.09375 20.140625 
C 35.09375 16.953125 35.09375 11.171875 32.09375 6.578125 
C 29.59375 2.484375 25.703125 0.390625 21.40625 0.390625 
C 14.796875 0.390625 8.09375 5 6.296875 12.71875 
C 6.703125 12.609375 7.5 12.421875 7.90625 12.421875 
C 9.203125 12.421875 11.703125 13.125 11.703125 16.21875 
C 11.703125 18.90625 9.796875 20 7.90625 20 
C 5.59375 20 4.09375 18.59375 4.09375 15.796875 
C 4.09375 7.09375 11 -2 21.59375 -2 
C 31.90625 -2 41.703125 6.875 41.703125 19.75 
C 41.703125 31.71875 33.90625 41 24.203125 41 
C 19.09375 41 14.796875 39.109375 11.40625 35.53125 
z
" id="CMR17-53"/>
       </defs>
       <use transform="scale(0.996264)" xlink:href="#CMR17-53"/>
       <use transform="translate(45.690477 0)scale(0.996264)" xlink:href="#CMR17-48"/>
      </g>
     </g>
    </g>
    <g id="ytick_7">
     <g id="line2d_33">
      <path clip-path="url(#p701445d584)" d="M 108 186.501742 
L 698.4 186.501742 
" style="fill:none;stroke:#e6e6e6;stroke-linecap:square;stroke-width:0.8;"/>
     </g>
     <g id="line2d_34">
      <g>
       <use style="stroke:#000000;stroke-width:0.8;" x="108" xlink:href="#m680e18b49c" y="186.501742"/>
      </g>
     </g>
     <g id="text_18">
      <!-- $\mathdefault{60}$ -->
      <g transform="translate(89.867524 191.690605)scale(0.15 -0.15)">
       <use transform="scale(0.996264)" xlink:href="#CMR17-54"/>
       <use transform="translate(45.690477 0)scale(0.996264)" xlink:href="#CMR17-48"/>
      </g>
     </g>
    </g>
    <g id="ytick_8">
     <g id="line2d_35">
      <path clip-path="url(#p701445d584)" d="M 108 107.030885 
L 698.4 107.030885 
" style="fill:none;stroke:#e6e6e6;stroke-linecap:square;stroke-width:0.8;"/>
     </g>
     <g id="line2d_36">
      <g>
       <use style="stroke:#000000;stroke-width:0.8;" x="108" xlink:href="#m680e18b49c" y="107.030885"/>
      </g>
     </g>
     <g id="text_19">
      <!-- $\mathdefault{70}$ -->
      <g transform="translate(89.867524 112.219747)scale(0.15 -0.15)">
       <defs>
        <path d="M 45.09375 61.578125 
L 45.09375 63.765625 
L 21.59375 63.765625 
C 9.90625 63.765625 9.703125 65.078125 9.296875 67 
L 7.5 67 
L 4.59375 48.34375 
L 6.40625 48.34375 
C 6.703125 50.234375 7.40625 55.3125 8.59375 57.203125 
C 9.203125 58 16.59375 58 18.296875 58 
L 40.296875 58 
L 29.203125 41.578125 
C 21.796875 30.53125 16.703125 15.609375 16.703125 2.578125 
C 16.703125 1.390625 16.703125 -2 20.296875 -2 
C 23.90625 -2 23.90625 1.390625 23.90625 2.671875 
L 23.90625 7.265625 
C 23.90625 23.5625 26.703125 34.3125 31.296875 41.1875 
z
" id="CMR17-55"/>
       </defs>
       <use transform="scale(0.996264)" xlink:href="#CMR17-55"/>
       <use transform="translate(45.690477 0)scale(0.996264)" xlink:href="#CMR17-48"/>
      </g>
     </g>
    </g>
    <g id="text_20">
     <!-- $|f(\theta)|$ -->
     <g transform="translate(79.640874 417.899913)rotate(-90)scale(0.25 -0.25)">
      <defs>
       <path d="M 15.90625 71.40625 
C 15.90625 73.203125 15.90625 75 13.90625 75 
C 11.90625 75 11.90625 73.203125 11.90625 71.40625 
L 11.90625 -21.40625 
C 11.90625 -23.203125 11.90625 -25 13.90625 -25 
C 15.90625 -25 15.90625 -23.203125 15.90625 -21.40625 
z
" id="CMSY10-106"/>
       <path d="M 44.59375 40.09375 
C 46.59375 40.09375 47.40625 40.09375 47.40625 42 
C 47.40625 43 46.59375 43 44.796875 43 
L 36.703125 43 
C 38.59375 53.578125 40 60.890625 40.796875 64.171875 
C 41.40625 66.640625 43.5 69 46.09375 69 
C 48.203125 69 50.296875 68.09375 51.296875 67.15625 
C 47.40625 66.75 46.203125 63.78125 46.203125 62.015625 
C 46.203125 59.953125 47.703125 58.734375 49.59375 58.734375 
C 51.59375 58.734375 54.59375 60.46875 54.59375 64.359375 
C 54.59375 68.640625 50.40625 71 46 71 
C 41.703125 71 37.5 67.71875 35.5 63.71875 
C 33.703125 60.125 32.703125 56.421875 30.40625 43 
L 23.703125 43 
C 21.796875 43 20.796875 43 20.796875 41.203125 
C 20.796875 40.09375 21.40625 40.09375 23.40625 40.09375 
L 29.796875 40.09375 
C 28 30.875 23.90625 8.46875 21.59375 -2.140625 
C 19.90625 -10.765625 18.40625 -18 13.40625 -18 
C 13.09375 -18 10.203125 -18 8.40625 -16.109375 
C 13.5 -15.703125 13.5 -11.34375 13.5 -11.25 
C 13.5 -9.265625 12 -8.078125 10.09375 -8.078125 
C 8.09375 -8.078125 5.09375 -9.765625 5.09375 -13.546875 
C 5.09375 -17.8125 9.5 -20 13.40625 -20 
C 23.59375 -20 27.796875 -1.84375 28.90625 3.109375 
C 30.703125 10.75 35.59375 37.125 36.09375 40.09375 
z
" id="CMMI12-102"/>
      </defs>
      <use transform="scale(0.996264)" xlink:href="#CMSY10-106"/>
      <use transform="translate(27.674085 0)scale(0.996264)" xlink:href="#CMMI12-102"/>
      <use transform="translate(86.39439 0)scale(0.996264)" xlink:href="#CMR17-40"/>
      <use transform="translate(121.675157 0)scale(0.996264)" xlink:href="#CMMI12-18"/>
      <use transform="translate(169.844665 0)scale(0.996264)" xlink:href="#CMR17-41"/>
      <use transform="translate(205.125433 0)scale(0.996264)" xlink:href="#CMSY10-106"/>
     </g>
    </g>
   </g>
   <g id="line2d_37">
    <path clip-path="url(#p701445d584)" d="M 108 663.256064 
L 698.4 663.26281 
L 698.4 663.26281 
" style="fill:none;stroke:#d0e1f2;stroke-linecap:square;stroke-width:2;"/>
   </g>
   <g id="line2d_38">
    <path clip-path="url(#p701445d584)" d="M 108 658.701731 
L 153.92 658.814893 
L 203.12 659.166844 
L 263.8 659.840458 
L 455.68 662.141871 
L 524.56 662.641478 
L 595.08 662.92693 
L 680.36 663.034367 
L 698.4 663.036878 
L 698.4 663.036878 
" style="fill:none;stroke:#94c4df;stroke-linecap:square;stroke-width:2;"/>
   </g>
   <g id="line2d_39">
    <path clip-path="url(#p701445d584)" d="M 108 592.908853 
L 112.92 593.038862 
L 117.84 593.427802 
L 122.76 594.072427 
L 127.68 594.967366 
L 132.6 596.105193 
L 137.52 597.476511 
L 142.44 599.070064 
L 147.36 600.872869 
L 152.28 602.870366 
L 158.84 605.80877 
L 165.4 609.023606 
L 171.96 612.470663 
L 180.16 617.035204 
L 191.64 623.735338 
L 216.24 638.215378 
L 224.44 642.771214 
L 232.64 647.066137 
L 239.2 650.270144 
L 245.76 653.232721 
L 252.32 655.916438 
L 257.24 657.712137 
L 262.16 659.267353 
L 265.44 660.116122 
L 268.72 660.736749 
L 272 661.033121 
L 275.28 660.965768 
L 278.56 660.627605 
L 285.12 659.638803 
L 294.96 658.200936 
L 301.52 657.45606 
L 308.08 656.910028 
L 314.64 656.559603 
L 322.84 656.378219 
L 331.04 656.4519 
L 339.24 656.743923 
L 349.08 657.327984 
L 360.56 658.246595 
L 376.96 659.806692 
L 398.28 661.809033 
L 404.84 662.253058 
L 409.76 662.418739 
L 414.68 662.379831 
L 422.88 662.006789 
L 449.12 660.605051 
L 463.88 660.105527 
L 478.64 659.847417 
L 493.4 659.807366 
L 509.8 659.975559 
L 529.48 660.399088 
L 557.36 661.245583 
L 603.28 662.6701 
L 616.4 662.834074 
L 629.52 662.723122 
L 683.64 661.960704 
L 698.4 661.916541 
L 698.4 661.916541 
" style="fill:none;stroke:#4a98c9;stroke-linecap:square;stroke-width:2;"/>
   </g>
   <g id="line2d_40">
    <path clip-path="url(#p701445d584)" d="M 108 150.042205 
L 109.64 150.474034 
L 111.28 151.767947 
L 112.92 153.919223 
L 114.56 156.92002 
L 116.2 160.759414 
L 117.84 165.423444 
L 119.48 170.895181 
L 121.12 177.154808 
L 122.76 184.179709 
L 124.4 191.944577 
L 126.04 200.42153 
L 127.68 209.580238 
L 130.96 229.81021 
L 134.24 252.348426 
L 137.52 276.879476 
L 140.8 303.064159 
L 145.72 344.656999 
L 153.92 417.04952 
L 160.48 474.363328 
L 165.4 515.089646 
L 168.68 540.498898 
L 171.96 564.081644 
L 175.24 585.400091 
L 176.88 595.033053 
L 178.52 603.851679 
L 180.16 611.721363 
L 181.8 618.467358 
L 183.44 623.876602 
L 185.08 627.731195 
L 186.72 629.894005 
L 188.36 630.417531 
L 190 629.576735 
L 191.64 627.775045 
L 193.28 625.411056 
L 198.2 617.686979 
L 199.84 615.429625 
L 201.48 613.467998 
L 203.12 611.839789 
L 204.76 610.565782 
L 206.4 609.654935 
L 208.04 609.107725 
L 209.68 608.918404 
L 211.32 609.076547 
L 212.96 609.568154 
L 214.6 610.376439 
L 216.24 611.482434 
L 217.88 612.865436 
L 219.52 614.503368 
L 221.16 616.373052 
L 222.8 618.450427 
L 226.08 623.1285 
L 229.36 628.332008 
L 240.84 647.275044 
L 242.48 649.519997 
L 244.12 651.422283 
L 245.76 652.840541 
L 247.4 653.627969 
L 249.04 653.710476 
L 250.68 653.157652 
L 252.32 652.148076 
L 255.6 649.475659 
L 258.88 646.683074 
L 262.16 644.212521 
L 263.8 643.162266 
L 265.44 642.253254 
L 267.08 641.493005 
L 268.72 640.885818 
L 270.36 640.433503 
L 272 640.135873 
L 273.64 639.99109 
L 275.28 639.995913 
L 276.92 640.14589 
L 278.56 640.435513 
L 280.2 640.858337 
L 281.84 641.407086 
L 285.12 642.849601 
L 288.4 644.691106 
L 291.68 646.850109 
L 296.6 650.480061 
L 303.16 655.407904 
L 304.8 656.493155 
L 306.44 657.42854 
L 308.08 658.13672 
L 309.72 658.53062 
L 311.36 658.555372 
L 313 658.234628 
L 314.64 657.657973 
L 317.92 656.115883 
L 322.84 653.661376 
L 326.12 652.226057 
L 329.4 651.051141 
L 332.68 650.175024 
L 335.96 649.614968 
L 339.24 649.374013 
L 342.52 649.444365 
L 345.8 649.809378 
L 349.08 650.444866 
L 352.36 651.320013 
L 355.64 652.397822 
L 360.56 654.297367 
L 370.4 658.315807 
L 373.68 659.282664 
L 375.32 659.569883 
L 376.96 659.68396 
L 378.6 659.616474 
L 380.24 659.387019 
L 383.52 658.596407 
L 396.64 654.791942 
L 399.92 654.110253 
L 403.2 653.596504 
L 406.48 653.259401 
L 409.76 653.101262 
L 413.04 653.119208 
L 416.32 653.305908 
L 421.24 653.87674 
L 426.16 654.748045 
L 431.08 655.84887 
L 445.84 659.375577 
L 449.12 659.809987 
L 452.4 659.925928 
L 455.68 659.711982 
L 458.96 659.253174 
L 465.52 658.024721 
L 472.08 656.820161 
L 477 656.087345 
L 481.92 655.554279 
L 486.84 655.241132 
L 491.76 655.151603 
L 496.68 655.277058 
L 501.6 655.599062 
L 508.16 656.287551 
L 516.36 657.448657 
L 534.4 660.184655 
L 539.32 660.67527 
L 544.24 660.92724 
L 549.16 660.936413 
L 557.36 660.633316 
L 570.48 660.132538 
L 580.32 660.033269 
L 591.8 660.190416 
L 624.6 660.887684 
L 631.16 660.742871 
L 637.72 660.368673 
L 644.28 659.769271 
L 652.48 658.783591 
L 678.72 655.397446 
L 685.28 654.830869 
L 691.84 654.473913 
L 698.4 654.352032 
L 698.4 654.352032 
" style="fill:none;stroke:#1764ab;stroke-linecap:square;stroke-width:2;"/>
   </g>
   <g id="line2d_41">
    <path clip-path="url(#p701445d584)" d="M 108 114.33719 
L 109.64 115.716025 
L 111.28 119.83995 
L 112.92 126.671365 
L 114.56 136.148058 
L 116.2 148.183884 
L 117.84 162.669696 
L 119.48 179.474537 
L 121.12 198.447046 
L 122.76 219.41709 
L 124.4 242.197588 
L 127.68 292.368902 
L 130.96 347.20393 
L 137.52 463.242549 
L 142.44 548.139123 
L 145.72 599.860037 
L 147.36 622.977166 
L 149 641.623145 
L 150.64 644.506065 
L 152.28 630.685706 
L 155.56 599.096802 
L 157.2 585.386906 
L 158.84 573.520099 
L 160.48 563.587686 
L 162.12 555.620957 
L 163.76 549.614217 
L 165.4 545.533975 
L 167.04 543.323569 
L 168.68 542.906096 
L 170.32 544.186683 
L 171.96 547.054524 
L 173.6 551.384835 
L 175.24 557.040805 
L 176.88 563.875559 
L 178.52 571.7341 
L 180.16 580.455204 
L 183.44 599.81912 
L 191.64 650.807588 
L 193.28 656.885843 
L 194.92 652.626631 
L 198.2 637.024054 
L 199.84 629.878078 
L 201.48 623.52396 
L 203.12 618.053048 
L 204.76 613.521439 
L 206.4 609.962486 
L 208.04 607.391217 
L 209.68 605.8064 
L 211.32 605.19187 
L 212.96 605.517626 
L 214.6 606.740912 
L 216.24 608.807335 
L 217.88 611.65206 
L 219.52 615.201065 
L 221.16 619.372447 
L 222.8 624.077726 
L 226.08 634.710241 
L 232.64 657.732863 
L 234.28 660.575066 
L 235.92 656.388994 
L 239.2 646.508116 
L 240.84 642.07657 
L 242.48 638.118617 
L 244.12 634.689756 
L 245.76 631.831137 
L 247.4 629.572118 
L 249.04 627.931127 
L 250.68 626.916093 
L 252.32 626.524798 
L 253.96 626.745284 
L 255.6 627.556347 
L 257.24 628.928128 
L 258.88 630.822812 
L 260.52 633.195406 
L 262.16 635.994598 
L 263.8 639.163667 
L 267.08 646.3629 
L 273.64 661.958932 
L 275.28 660.10796 
L 278.56 652.818869 
L 280.2 649.489406 
L 281.84 646.461392 
L 283.48 643.779323 
L 285.12 641.479598 
L 286.76 639.591136 
L 288.4 638.135415 
L 290.04 637.12642 
L 291.68 636.57064 
L 293.32 636.467157 
L 294.96 636.807827 
L 296.6 637.577573 
L 298.24 638.754763 
L 299.88 640.311693 
L 301.52 642.215146 
L 303.16 644.427026 
L 304.8 646.905056 
L 308.08 652.474022 
L 313 661.604058 
L 314.64 661.968855 
L 317.92 656.163681 
L 321.2 651.027762 
L 322.84 648.813116 
L 324.48 646.877932 
L 326.12 645.248829 
L 327.76 643.946996 
L 329.4 642.987949 
L 331.04 642.381387 
L 332.68 642.131134 
L 334.32 642.235178 
L 335.96 642.685799 
L 337.6 643.469789 
L 339.24 644.568749 
L 340.88 645.959471 
L 342.52 647.614387 
L 344.16 649.502081 
L 347.44 653.834321 
L 350.72 658.650249 
L 352.36 661.136984 
L 354 663.018858 
L 357.28 658.227701 
L 360.56 653.904308 
L 362.2 652.007219 
L 363.84 650.3257 
L 365.48 648.884293 
L 367.12 647.703263 
L 368.76 646.798328 
L 370.4 646.180473 
L 372.04 645.855827 
L 373.68 645.825639 
L 375.32 646.086313 
L 376.96 646.629539 
L 378.6 647.442484 
L 380.24 648.508063 
L 381.88 649.805269 
L 383.52 651.309567 
L 386.8 654.826335 
L 390.08 658.809096 
L 393.36 662.962144 
L 395 661.585715 
L 398.28 657.640616 
L 401.56 654.166689 
L 403.2 652.676885 
L 404.84 651.383103 
L 406.48 650.304445 
L 408.12 649.456218 
L 409.76 648.849731 
L 411.4 648.492156 
L 413.04 648.386451 
L 414.68 648.531366 
L 416.32 648.921499 
L 417.96 649.54744 
L 419.6 650.395962 
L 421.24 651.450286 
L 422.88 652.690389 
L 426.16 655.633881 
L 429.44 659.016299 
L 432.72 662.600039 
L 434.36 662.25202 
L 437.64 658.813804 
L 440.92 655.757191 
L 442.56 654.435219 
L 444.2 653.279276 
L 445.84 652.307009 
L 447.48 651.532779 
L 449.12 650.967446 
L 450.76 650.618218 
L 452.4 650.488561 
L 454.04 650.578175 
L 455.68 650.883026 
L 457.32 651.395448 
L 458.96 652.1043 
L 460.6 652.995184 
L 462.24 654.050708 
L 465.52 656.573052 
L 468.8 659.484753 
L 472.08 662.557627 
L 473.72 662.492015 
L 477 659.550318 
L 480.28 656.935943 
L 481.92 655.814001 
L 483.56 654.841296 
L 485.2 654.033586 
L 486.84 653.403545 
L 488.48 652.960562 
L 490.12 652.710596 
L 491.76 652.65608 
L 493.4 652.795876 
L 495.04 653.125289 
L 496.68 653.636128 
L 498.32 654.316801 
L 499.96 655.152426 
L 503.24 657.212682 
L 509.8 661.936109 
L 511.44 662.127702 
L 513.08 661.209054 
L 518 657.85381 
L 519.64 656.903516 
L 521.28 656.089099 
L 522.92 655.429317 
L 524.56 654.938879 
L 526.2 654.628726 
L 527.84 654.50601 
L 529.48 654.573985 
L 531.12 654.831856 
L 532.76 655.274558 
L 534.4 655.892402 
L 536.04 656.670344 
L 539.32 658.606393 
L 542.6 660.651314 
L 544.24 661.212702 
L 545.88 660.910541 
L 547.52 659.934629 
L 555.72 653.863248 
L 557.36 652.927176 
L 559 652.162962 
L 560.64 651.593737 
L 562.28 651.238947 
L 563.92 651.114251 
L 565.56 651.23133 
L 567.2 651.597683 
L 568.84 652.216423 
L 570.48 653.086067 
L 572.12 654.200276 
L 573.76 655.547327 
L 575.4 657.108673 
L 578.68 660.706307 
L 580.32 662.138791 
L 581.96 660.974435 
L 585.24 656.41688 
L 591.8 646.953218 
L 595.08 642.827148 
L 596.72 641.051711 
L 598.36 639.514741 
L 600 638.247906 
L 601.64 637.279559 
L 603.28 636.634248 
L 604.92 636.332279 
L 606.56 636.389317 
L 608.2 636.816059 
L 609.84 637.61796 
L 611.48 638.795035 
L 613.12 640.341716 
L 614.76 642.246773 
L 616.4 644.493265 
L 618.04 647.05844 
L 619.68 649.913378 
L 622.96 656.332065 
L 624.6 659.730722 
L 626.24 661.863993 
L 627.88 658.932638 
L 636.08 640.544213 
L 637.72 637.261657 
L 639.36 634.237158 
L 641 631.517369 
L 642.64 629.145477 
L 644.28 627.160649 
L 645.92 625.597482 
L 647.56 624.485479 
L 649.2 623.848586 
L 650.84 623.704785 
L 652.48 624.065753 
L 654.12 624.936597 
L 655.76 626.315655 
L 657.4 628.194347 
L 659.04 630.557063 
L 660.68 633.381008 
L 662.32 636.63588 
L 663.96 640.282984 
L 667.24 648.536558 
L 670.52 657.191483 
L 672.16 659.390169 
L 673.8 656.581426 
L 677.08 646.970837 
L 680.36 637.069708 
L 683.64 627.85531 
L 685.28 623.672758 
L 686.92 619.847656 
L 688.56 616.428901 
L 690.2 613.459834 
L 691.84 610.977929 
L 693.48 609.014438 
L 695.12 607.594051 
L 696.76 606.734618 
L 698.4 606.446936 
L 698.4 606.446936 
" style="fill:none;stroke:#08306b;stroke-linecap:square;stroke-width:2;"/>
   </g>
   <g id="patch_3">
    <path d="M 108 720.9 
L 108 56.7 
" style="fill:none;stroke:#000000;stroke-linecap:square;stroke-linejoin:miter;stroke-width:0.8;"/>
   </g>
   <g id="patch_4">
    <path d="M 698.4 720.9 
L 698.4 56.7 
" style="fill:none;stroke:#000000;stroke-linecap:square;stroke-linejoin:miter;stroke-width:0.8;"/>
   </g>
   <g id="patch_5">
    <path d="M 108 720.9 
L 698.4 720.9 
" style="fill:none;stroke:#000000;stroke-linecap:square;stroke-linejoin:miter;stroke-width:0.8;"/>
   </g>
   <g id="patch_6">
    <path d="M 108 56.7 
L 698.4 56.7 
" style="fill:none;stroke:#000000;stroke-linecap:square;stroke-linejoin:miter;stroke-width:0.8;"/>
   </g>
   <g id="text_21">
    <!-- Scattering amplitudes $n_{ref}=1.1000$ for different $ka$ -->
    <g transform="translate(197.821435 50.7)scale(0.2 -0.2)">
     <defs>
      <path d="M 43.703125 65.140625 
C 39.296875 67.71875 34.5 70 26.40625 70 
C 13.5 70 5.203125 60.609375 5.203125 51.03125 
C 5.203125 47.265625 6.296875 43.015625 10.203125 38.671875 
C 14.09375 34.3125 18.5 33.140625 24.09375 31.765625 
C 26.40625 31.15625 30.296875 30.0625 31 29.78125 
C 36.59375 27.609375 39.296875 22.5625 39.296875 17.8125 
C 39.296875 11.59375 34.40625 4.96875 25.703125 4.96875 
C 22.703125 4.96875 13.90625 4.96875 5.59375 12.796875 
L 4.203125 4.96875 
C 12.40625 -1 21.296875 -2 25.796875 -2 
C 38.09375 -2 46.90625 7.625 46.90625 18.53125 
C 46.90625 22.5 45.703125 27.546875 41.5 32.203125 
C 37.40625 36.671875 33.796875 37.65625 25.59375 39.828125 
C 20.90625 41.03125 17.90625 41.828125 15.40625 44.890625 
C 13.703125 47.078125 12.796875 49.15625 12.796875 51.828125 
C 12.796875 57.390625 17.59375 63.4375 26.40625 63.4375 
C 30.796875 63.4375 36.5 62.53125 42.296875 57.1875 
z
" id="CMSS17-83"/>
      <path d="M 38.5 39.703125 
C 38.5 40.390625 33.90625 42.40625 32.703125 42.796875 
C 29.40625 44 25.203125 44 24.09375 44 
C 11.09375 44 3.296875 32.703125 3.296875 21.296875 
C 3.296875 9.296875 12 -1 23.703125 -1 
C 30.40625 -1 35.203125 1.1875 39.09375 3.78125 
L 38.5 10.375 
C 34.203125 7.078125 29.203125 5.265625 23.796875 5.265625 
C 16 5.265625 10.90625 12.09375 10.90625 21.390625 
C 10.90625 28.609375 14.203125 37.71875 24.203125 37.71875 
C 29.703125 37.71875 32.796875 36.609375 37.40625 33.515625 
z
" id="CMSS17-99"/>
      <path d="M 37.59375 27.984375 
C 37.59375 37.375 30.90625 43.875 21.90625 43.875 
C 17.5 43.875 12.703125 43.078125 7.203125 39.890625 
L 7.796875 33.359375 
C 10.296875 35.125 14.59375 38 21.796875 38 
C 26.90625 38 30 34.0625 30 27.84375 
L 30 24 
C 14 24 4 19.34375 4 11.34375 
C 4 7.203125 6.5 -1 14.796875 -1 
C 16.296875 -1 24.40625 -1 30.203125 3.390625 
L 30.203125 -0.296875 
L 37.59375 -0.296875 
z
M 30 12.75 
C 30 10.953125 30 8.5625 27 6.78125 
C 24.40625 5.078125 21.09375 5.078125 19.703125 5.078125 
C 14.703125 5.078125 11.296875 7.984375 11.296875 11.625 
C 11.296875 18.921875 26.90625 18.921875 30 18.921875 
z
" id="CMSS17-97"/>
      <path d="M 16.703125 37 
L 29.703125 37 
L 29.703125 42.765625 
L 16.703125 42.765625 
L 16.703125 55 
L 9.59375 55 
L 9.59375 42.765625 
L 1.703125 42.765625 
L 1.703125 37 
L 9.40625 37 
L 9.40625 11.703125 
C 9.40625 6 10.703125 -1 17.296875 -1 
C 22.296875 -1 26.90625 0.390625 31.296875 2.6875 
L 29.703125 8.5625 
C 27.296875 6.46875 24.40625 5.265625 21.296875 5.265625 
C 16.90625 5.265625 16.703125 10.875 16.703125 13.375 
z
" id="CMSS17-116"/>
      <path d="M 39.09375 21.515625 
C 39.09375 24.84375 38.90625 31.296875 35.703125 36.640625 
C 32.203125 42.390625 26.5 44 22.203125 44 
C 11.796875 44 3 34.1875 3 21.484375 
C 3 9.09375 12.09375 -1 23.59375 -1 
C 28.09375 -1 33.59375 0.296875 38.59375 3.875 
C 38.59375 4.28125 38.40625 6.46875 38.296875 6.5625 
C 38.296875 6.765625 38 9.84375 38 10.25 
C 33.203125 6.359375 27.703125 5.078125 23.703125 5.078125 
C 17.296875 5.078125 10.40625 10.421875 10.09375 21.515625 
z
M 10.90625 27 
C 12.203125 32.5625 16.59375 37.828125 22.203125 37.828125 
C 23.703125 37.828125 30.703125 37.828125 32.5 27 
z
" id="CMSS17-101"/>
      <path d="M 14.90625 21.296875 
C 14.90625 30.703125 21.796875 37 30.59375 37 
L 30.59375 43.578125 
C 24.203125 43.578125 18.203125 40.390625 14.59375 35.203125 
L 14.59375 43.09375 
L 7.5 43.09375 
L 7.5 0 
L 14.90625 0 
z
" id="CMSS17-114"/>
      <path d="M 15.296875 65.359375 
L 6.90625 65.359375 
L 6.90625 57 
L 15.296875 57 
z
M 14.796875 42.796875 
L 7.40625 42.796875 
L 7.40625 0 
L 14.796875 0 
z
" id="CMSS17-105"/>
      <path d="M 40.90625 29.328125 
C 40.90625 35.671875 39.40625 44 28.09375 44 
C 21.703125 44 17.5 40.71875 14.703125 37.328125 
L 14.703125 43.09375 
L 7.40625 43.09375 
L 7.40625 0 
L 15 0 
L 15 24.359375 
C 15 30.6875 17.40625 37.9375 24.203125 37.9375 
C 33 37.9375 33.296875 32 33.296875 28.578125 
L 33.296875 0 
L 40.90625 0 
z
" id="CMSS17-110"/>
      <path d="M 44.5 43.875 
C 38.796875 43.875 33.90625 42.78125 29.90625 40.890625 
C 26.59375 43.390625 23.203125 43.875 20.90625 43.875 
C 12.203125 43.875 5.59375 36.703125 5.59375 28.34375 
C 5.59375 22.9375 8.59375 18.859375 8.796875 18.671875 
C 7 16.171875 6 13.484375 6 10.5 
C 6 7 7.40625 4.515625 8.5 3.125 
C 3.296875 -0.046875 2.59375 -4.90625 2.59375 -6.796875 
C 2.59375 -14.03125 11.703125 -20 23.40625 -20 
C 35.203125 -20 44.296875 -14.03125 44.296875 -6.6875 
C 44.296875 7 29 7 24.796875 7 
L 16.703125 7 
C 15.203125 7 11.203125 7 11.203125 12.359375 
C 11.203125 14.390625 12.09375 15.6875 12.203125 15.78125 
C 13.703125 14.6875 16.796875 13 20.90625 13 
C 29.203125 13 36.09375 19.96875 36.09375 28.546875 
C 36.09375 33.3125 33.90625 36.796875 33 38 
L 33.296875 38 
C 33.59375 38 37.796875 38 39.296875 38 
C 42.5 38 42.796875 37.953125 45.59375 37.796875 
z
M 20.90625 18.46875 
C 17.5 18.46875 12.703125 20.546875 12.703125 28.484375 
C 12.703125 37.109375 18.203125 38.5 20.796875 38.5 
C 24.203125 38.5 29 36.421875 29 28.484375 
C 29 19.859375 23.5 18.46875 20.90625 18.46875 
z
M 24.703125 -0.15625 
C 27.09375 -0.15625 37.203125 -0.15625 37.203125 -6.90625 
C 37.203125 -11.15625 31 -14.515625 23.5 -14.515625 
C 15.90625 -14.515625 9.703125 -11.25 9.703125 -6.796875 
C 9.703125 -6.296875 9.703125 -0.15625 16.59375 -0.15625 
z
" id="CMSS17-103"/>
      <path d="M 67 29.328125 
C 67 36.0625 65.296875 44 54.09375 44 
C 46.59375 44 42.09375 39.3125 40.09375 36.421875 
C 38.296875 41.71875 34.09375 44 28.09375 44 
C 21.296875 44 17 40.125 14.703125 37.328125 
L 14.703125 43.09375 
L 7.40625 43.09375 
L 7.40625 0 
L 15 0 
L 15 24.359375 
C 15 30.296875 17.203125 37.9375 24.296875 37.9375 
C 33.40625 37.9375 33.40625 31.5 33.40625 28.578125 
L 33.40625 0 
L 41 0 
L 41 24.359375 
C 41 30.296875 43.203125 37.9375 50.296875 37.9375 
C 59.40625 37.9375 59.40625 31.5 59.40625 28.578125 
L 59.40625 0 
L 67 0 
z
" id="CMSS17-109"/>
      <path d="M 15.09375 5.203125 
C 18.40625 2.015625 22.90625 -0.078125 27.703125 -0.078125 
C 37 -0.078125 45 9.421875 45 22.0625 
C 45 33.734375 39 44 30.40625 44 
C 25.40625 44 19.40625 42.21875 14.90625 38.625 
L 14.90625 43.203125 
L 7.5 43.203125 
L 7.5 -19 
L 15.09375 -19 
z
M 15.09375 32.8125 
C 15.90625 34 19.296875 37.734375 24.796875 37.734375 
C 31.796875 37.734375 37.40625 30.625 37.40625 22.0625 
C 37.40625 12.296875 30.59375 6 23.90625 6 
C 21.90625 6 19.796875 6.484375 17.796875 8.171875 
C 15.09375 10.53125 15.09375 12 15.09375 13.390625 
z
" id="CMSS17-112"/>
      <path d="M 14.796875 69 
L 7.40625 69 
L 7.40625 0 
L 14.796875 0 
z
" id="CMSS17-108"/>
      <path d="M 40.90625 42.796875 
L 33.296875 42.796875 
L 33.296875 15.1875 
C 33.296875 7.78125 27.90625 4.78125 22.203125 4.78125 
C 15.59375 4.78125 15 6.984375 15 11.078125 
L 15 42.796875 
L 7.40625 42.796875 
L 7.40625 10.59375 
C 7.40625 2.796875 10.09375 -1 17 -1 
C 20.40625 -1 28.09375 -0.203125 33.5 4.78125 
L 33.5 0 
L 40.90625 0 
z
" id="CMSS17-117"/>
      <path d="M 40.796875 69 
L 33.40625 69 
L 33.40625 38.09375 
C 30.296875 40.671875 25.203125 43.0625 19.59375 43.0625 
C 10.5 43.0625 3.296875 33.296875 3.296875 21.046875 
C 3.296875 8.78125 10.40625 -1 19.296875 -1 
C 26.203125 -1 30.796875 2.6875 33.203125 4.78125 
L 33.203125 -0.203125 
L 40.796875 -0.203125 
z
M 33.203125 13.0625 
C 33.203125 11.671875 33.203125 10.203125 30.09375 7.53125 
C 28.09375 5.859375 25.703125 5.078125 23.40625 5.078125 
C 18 5.078125 10.90625 9 10.90625 20.9375 
C 10.90625 33.34375 18.90625 37 24.40625 37 
C 28.09375 37 31.09375 35.21875 33.203125 32.265625 
z
" id="CMSS17-100"/>
      <path d="M 32.203125 41.046875 
C 26.296875 43.859375 21.703125 43.859375 18.703125 43.859375 
C 11.59375 43.859375 3.09375 41.375 3.09375 31.296875 
C 3.09375 21.234375 14.09375 19.03125 17.09375 18.421875 
C 21.703125 17.53125 26.796875 16.53125 26.796875 11.5625 
C 26.796875 5.265625 19.59375 5.265625 18.296875 5.265625 
C 14.296875 5.265625 8.796875 6.359375 3.796875 9.96875 
L 2.59375 3.28125 
C 8.296875 0 13.796875 -1 18.40625 -1 
C 30.703125 -1 33.796875 6.5 33.796875 12.203125 
C 33.796875 17.09375 31 20.390625 29.09375 21.890625 
C 25.796875 24.5 24.59375 24.796875 16.40625 26.5 
C 15 26.703125 10.09375 27.796875 10.09375 32.28125 
C 10.09375 38 16.40625 38 17.796875 38 
C 24.296875 38 28.296875 35.984375 31 34.5 
z
" id="CMSS17-115"/>
      <path d="M 20.59375 29.234375 
C 20.796875 29.84375 23.296875 34.828125 27 38.015625 
C 29.59375 40.40625 33 42.015625 36.90625 42.015625 
C 40.90625 42.015625 42.296875 39.015625 42.296875 35.03125 
C 42.296875 29.34375 38.203125 17.96875 36.203125 12.578125 
C 35.296875 10.171875 34.796875 8.875 34.796875 7.078125 
C 34.796875 2.59375 37.90625 -1 42.703125 -1 
C 52 -1 55.5 13.671875 55.5 14.265625 
C 55.5 14.765625 55.09375 15.171875 54.5 15.171875 
C 53.59375 15.171875 53.5 14.875 53 13.171875 
C 50.703125 4.984375 46.90625 1 43 1 
C 42 1 40.40625 1 40.40625 4.203125 
C 40.40625 6.703125 41.5 9.703125 42.09375 11.09375 
C 44.09375 16.609375 48.296875 27.8125 48.296875 33.515625 
C 48.296875 39.5 44.796875 44 37.203125 44 
C 28.296875 44 23.59375 37.734375 21.796875 35.234375 
C 21.5 40.90625 17.40625 44 13 44 
C 9.796875 44 7.59375 42.109375 5.90625 38.71875 
C 4.09375 35.125 2.703125 29.140625 2.703125 28.734375 
C 2.703125 28.34375 3.09375 27.84375 3.796875 27.84375 
C 4.59375 27.84375 4.703125 27.9375 5.296875 30.234375 
C 6.90625 36.328125 8.703125 42.015625 12.703125 42.015625 
C 15 42.015625 15.796875 40.40625 15.796875 37.421875 
C 15.796875 35.21875 14.796875 31.328125 14.09375 28.234375 
L 11.296875 17.46875 
C 10.90625 15.5625 9.796875 11.078125 9.296875 9.28125 
C 8.59375 6.6875 7.5 2 7.5 1.5 
C 7.5 0.09375 8.59375 -1 10.09375 -1 
C 11.296875 -1 12.703125 -0.40625 13.5 1.09375 
C 13.703125 1.59375 14.59375 5.09375 15.09375 7.078125 
L 17.296875 16.0625 
z
" id="CMMI12-110"/>
      <path d="M 38.90625 40.8125 
C 35.796875 40.21875 34.203125 38.015625 34.203125 35.828125 
C 34.203125 33.421875 36.09375 32.625 37.5 32.625 
C 40.296875 32.625 42.59375 35.03125 42.59375 38.015625 
C 42.59375 41.21875 39.5 44 34.5 44 
C 30.5 44 25.90625 42.203125 21.703125 36.125 
C 21 41.40625 17 44 13 44 
C 9.09375 44 7.09375 41.015625 5.90625 38.8125 
C 4.203125 35.21875 2.703125 29.234375 2.703125 28.734375 
C 2.703125 28.34375 3.09375 27.84375 3.796875 27.84375 
C 4.59375 27.84375 4.703125 27.9375 5.296875 30.234375 
C 6.796875 36.21875 8.703125 42.015625 12.703125 42.015625 
C 15.09375 42.015625 15.796875 40.3125 15.796875 37.421875 
C 15.796875 35.21875 14.796875 31.328125 14.09375 28.234375 
L 11.296875 17.46875 
C 10.90625 15.5625 9.796875 11.078125 9.296875 9.28125 
C 8.59375 6.6875 7.5 2 7.5 1.5 
C 7.5 0.09375 8.59375 -1 10.09375 -1 
C 11.203125 -1 13.09375 -0.296875 13.703125 1.703125 
C 14 2.5 17.703125 17.5625 18.296875 19.859375 
C 18.796875 22.046875 19.40625 24.15625 19.90625 26.34375 
C 20.296875 27.734375 20.703125 29.34375 21 30.640625 
C 21.296875 31.53125 24 36.421875 26.5 38.625 
C 27.703125 39.71875 30.296875 42.015625 34.40625 42.015625 
C 36 42.015625 37.59375 41.71875 38.90625 40.8125 
z
" id="CMMI12-114"/>
      <path d="M 17.90625 23.109375 
C 20.59375 23.109375 27.40625 23.109375 32.203125 24.921875 
C 39.796875 27.859375 40.5 33.71875 40.5 35.53125 
C 40.5 39.96875 36.703125 44 30.09375 44 
C 19.59375 44 4.5 34.53125 4.5 16.765625 
C 4.5 6.28125 10.5 -1 19.59375 -1 
C 33.203125 -1 41.796875 9.515625 41.796875 10.8125 
C 41.796875 11.40625 41.203125 11.90625 40.796875 11.90625 
C 40.5 11.90625 40.40625 11.8125 39.5 10.921875 
C 33.09375 2.484375 23.59375 1 19.796875 1 
C 14.09375 1 11.09375 5.46875 11.09375 12.84375 
C 11.09375 14.234375 11.09375 16.734375 12.59375 23.109375 
z
M 13.09375 25 
C 17.40625 40.5 26.90625 42.015625 30.09375 42.015625 
C 34.5 42.015625 37.5 39.40625 37.5 35.578125 
C 37.5 25 21.5 25 17.296875 25 
z
" id="CMMI12-101"/>
      <path d="M 64.296875 31.515625 
C 65.796875 31.515625 67.296875 31.515625 67.296875 33.203125 
C 67.296875 35 65.59375 35 63.90625 35 
L 8 35 
C 6.296875 35 4.59375 35 4.59375 33.203125 
C 4.59375 31.515625 6.09375 31.515625 7.59375 31.515625 
z
M 63.90625 14 
C 65.59375 14 67.296875 14 67.296875 15.796875 
C 67.296875 17.484375 65.796875 17.484375 64.296875 17.484375 
L 7.59375 17.484375 
C 6.09375 17.484375 4.59375 17.484375 4.59375 15.796875 
C 4.59375 14 6.296875 14 8 14 
z
" id="CMR17-61"/>
      <path d="M 18.40625 4.796875 
C 18.40625 7.6875 16 9.671875 13.59375 9.671875 
C 10.703125 9.671875 8.703125 7.28125 8.703125 4.890625 
C 8.703125 2 11.09375 0 13.5 0 
C 16.40625 0 18.40625 2.390625 18.40625 4.796875 
z
" id="CMMI12-58"/>
      <path d="M 16.796875 37 
L 26.90625 37 
L 26.90625 42.765625 
L 16.59375 42.765625 
L 16.59375 55.609375 
C 16.59375 62.71875 22 63.9375 25.09375 63.9375 
C 26.09375 63.9375 28.90625 63.9375 32.5 62.640625 
L 32.5 69.203125 
C 30.203125 69.703125 27.40625 70 25.203125 70 
C 15.90625 70 9.40625 62.390625 9.40625 52.484375 
L 9.40625 42.765625 
L 2.5 42.765625 
L 2.5 37 
L 9.40625 37 
L 9.40625 0 
L 16.796875 0 
z
" id="CMSS17-102"/>
      <path d="M 44.203125 21.1875 
C 44.203125 34 34.703125 44 23.5 44 
C 12 44 2.703125 33.703125 2.703125 21.1875 
C 2.703125 8.5 12.296875 -1 23.40625 -1 
C 34.796875 -1 44.203125 8.796875 44.203125 21.1875 
z
M 23.5 5.265625 
C 16.40625 5.265625 10.296875 11.078125 10.296875 22 
C 10.296875 33.609375 17.40625 37.921875 23.40625 37.921875 
C 29.90625 37.921875 36.59375 33.21875 36.59375 22 
C 36.59375 10.671875 30.09375 5.265625 23.5 5.265625 
z
" id="CMSS17-111"/>
      <path d="M 16.796875 37 
L 27.09375 37 
L 27.09375 42.765625 
L 16.59375 42.765625 
L 16.59375 55.609375 
C 16.59375 62.515625 21.796875 63.9375 25.203125 63.9375 
C 28.703125 63.9375 31.59375 63.03125 32.703125 62.640625 
L 32.703125 69.203125 
C 31.59375 69.40625 28.59375 70 25.296875 70 
C 16.09375 70 9.40625 62.484375 9.40625 52.484375 
L 9.40625 42.765625 
L 2.5 42.765625 
L 2.5 37 
L 9.40625 37 
L 9.40625 0 
L 16.796875 0 
z
M 42.796875 37 
L 53.09375 37 
L 53.09375 42.765625 
L 42.59375 42.765625 
L 42.59375 55.609375 
C 42.59375 62.515625 47.796875 63.9375 51.203125 63.9375 
C 54.703125 63.9375 57.59375 63.03125 58.703125 62.640625 
L 58.703125 69.203125 
C 57.59375 69.40625 54.59375 70 51.296875 70 
C 42.09375 70 35.40625 62.515625 35.40625 52.546875 
L 35.40625 0 
L 42.796875 0 
z
" id="CMSS17-11"/>
      <path d="M 28.09375 66.515625 
C 28.203125 66.921875 28.40625 67.515625 28.40625 68 
C 28.40625 69 27.40625 69 27.203125 69 
C 27.09375 69 23.5 68.640625 21.703125 68.390625 
C 20 68.390625 18.5 68.09375 16.703125 68.09375 
C 14.296875 67.890625 13.59375 67.796875 13.59375 66 
C 13.59375 65 14.59375 65 15.59375 65 
C 20.703125 65 20.703125 64.109375 20.703125 63.125 
C 20.703125 62.734375 20.703125 62.53125 20.203125 60.75 
L 5.90625 3.875 
C 5.5 2.375 5.5 2.1875 5.5 1.578125 
C 5.5 -0.59375 7.203125 -1 8.203125 -1 
C 11 -1 11.59375 1.203125 12.40625 4.296875 
L 17.09375 22.953125 
C 24.296875 22.15625 28.59375 19.15625 28.59375 14.375 
C 28.59375 13.765625 28.59375 13.375 28.296875 11.875 
C 27.90625 10.375 27.90625 9.1875 27.90625 8.6875 
C 27.90625 2.890625 31.703125 -1 36.796875 -1 
C 41.40625 -1 43.796875 3.1875 44.59375 4.59375 
C 46.703125 8.28125 48 13.875 48 14.265625 
C 48 14.765625 47.59375 15.171875 47 15.171875 
C 46.09375 15.171875 46 14.765625 45.59375 13.171875 
C 44.203125 7.984375 42.09375 1 37 1 
C 35 1 33.703125 2 33.703125 5.78125 
C 33.703125 7.6875 34.09375 9.875 34.5 11.375 
C 34.90625 13.171875 34.90625 13.265625 34.90625 14.46875 
C 34.90625 20.359375 29.59375 23.65625 20.40625 24.84375 
C 24 27.046875 27.59375 30.9375 29 32.4375 
C 34.703125 38.8125 38.59375 42.015625 43.203125 42.015625 
C 45.5 42.015625 46.09375 41.40625 46.796875 40.8125 
C 43.09375 40.40625 41.703125 37.8125 41.703125 35.828125 
C 41.703125 33.421875 43.59375 32.625 45 32.625 
C 47.703125 32.625 50.09375 34.921875 50.09375 38.125 
C 50.09375 41.015625 47.796875 44 43.296875 44 
C 37.796875 44 33.296875 40.109375 26.203125 32.125 
C 25.203125 30.9375 21.5 27.140625 17.796875 25.75 
z
" id="CMMI12-107"/>
      <path d="M 30.09375 11.875 
C 29.59375 10.171875 29.59375 9.984375 28.203125 8.078125 
C 26 5.28125 21.59375 1 16.90625 1 
C 12.796875 1 10.5 4.6875 10.5 10.578125 
C 10.5 16.0625 13.59375 27.234375 15.5 31.4375 
C 18.90625 38.421875 23.59375 42.015625 27.5 42.015625 
C 34.09375 42.015625 35.40625 33.828125 35.40625 33.03125 
C 35.40625 32.9375 35.09375 31.625 35 31.4375 
z
M 36.5 37.421875 
C 35.40625 40.015625 32.703125 44 27.5 44 
C 16.203125 44 4 29.4375 4 14.671875 
C 4 4.796875 9.796875 -1 16.59375 -1 
C 22.09375 -1 26.796875 3.296875 29.59375 6.59375 
C 30.59375 0.703125 35.296875 -1 38.296875 -1 
C 41.296875 -1 43.703125 0.796875 45.5 4.390625 
C 47.09375 7.78125 48.5 13.875 48.5 14.265625 
C 48.5 14.765625 48.09375 15.171875 47.5 15.171875 
C 46.59375 15.171875 46.5 14.671875 46.09375 13.171875 
C 44.59375 7.28125 42.703125 1 38.59375 1 
C 35.703125 1 35.5 3.59375 35.5 5.59375 
C 35.5 7.890625 35.796875 8.984375 36.703125 12.875 
C 37.40625 15.375 37.90625 17.5625 38.703125 20.453125 
C 42.40625 35.421875 43.296875 39.015625 43.296875 39.609375 
C 43.296875 41.015625 42.203125 42.109375 40.703125 42.109375 
C 37.5 42.109375 36.703125 38.625 36.5 37.421875 
z
" id="CMMI12-97"/>
     </defs>
     <use transform="scale(0.996264)" xlink:href="#CMSS17-83"/>
     <use transform="translate(52.048516 0)scale(0.996264)" xlink:href="#CMSS17-99"/>
     <use transform="translate(93.687338 0)scale(0.996264)" xlink:href="#CMSS17-97"/>
     <use transform="translate(138.609259 0)scale(0.996264)" xlink:href="#CMSS17-116"/>
     <use transform="translate(172.440826 0)scale(0.996264)" xlink:href="#CMSS17-116"/>
     <use transform="translate(206.272392 0)scale(0.996264)" xlink:href="#CMSS17-101"/>
     <use transform="translate(247.911214 0)scale(0.996264)" xlink:href="#CMSS17-114"/>
     <use transform="translate(279.820987 0)scale(0.996264)" xlink:href="#CMSS17-105"/>
     <use transform="translate(302.00171 0)scale(0.996264)" xlink:href="#CMSS17-110"/>
     <use transform="translate(350.206653 0)scale(0.996264)" xlink:href="#CMSS17-103"/>
     <use transform="translate(428.279389 0)scale(0.996264)" xlink:href="#CMSS17-97"/>
     <use transform="translate(473.20131 0)scale(0.996264)" xlink:href="#CMSS17-109"/>
     <use transform="translate(547.430564 0)scale(0.996264)" xlink:href="#CMSS17-112"/>
     <use transform="translate(595.635507 0)scale(0.996264)" xlink:href="#CMSS17-108"/>
     <use transform="translate(617.816231 0)scale(0.996264)" xlink:href="#CMSS17-105"/>
     <use transform="translate(639.996954 0)scale(0.996264)" xlink:href="#CMSS17-116"/>
     <use transform="translate(673.82852 0)scale(0.996264)" xlink:href="#CMSS17-117"/>
     <use transform="translate(722.033463 0)scale(0.996264)" xlink:href="#CMSS17-100"/>
     <use transform="translate(770.238407 0)scale(0.996264)" xlink:href="#CMSS17-101"/>
     <use transform="translate(811.877229 0)scale(0.996264)" xlink:href="#CMSS17-115"/>
     <use transform="translate(879.019883 0)scale(0.996264)" xlink:href="#CMMI12-110"/>
     <use transform="translate(937.249931 -14.943915)scale(0.697382)" xlink:href="#CMMI12-114"/>
     <use transform="translate(969.919199 -14.943915)scale(0.697382)" xlink:href="#CMMI12-101"/>
     <use transform="translate(1001.567456 -14.943915)scale(0.697382)" xlink:href="#CMMI12-102"/>
     <use transform="translate(1070.84362 0)scale(0.996264)" xlink:href="#CMR17-61"/>
     <use transform="translate(1170.232417 0)scale(0.996264)" xlink:href="#CMR17-49"/>
     <use transform="translate(1215.922894 0)scale(0.996264)" xlink:href="#CMMI12-58"/>
     <use transform="translate(1243.020071 0)scale(0.996264)" xlink:href="#CMR17-49"/>
     <use transform="translate(1288.710548 0)scale(0.996264)" xlink:href="#CMR17-48"/>
     <use transform="translate(1334.401025 0)scale(0.996264)" xlink:href="#CMR17-48"/>
     <use transform="translate(1380.091503 0)scale(0.996264)" xlink:href="#CMR17-48"/>
     <use transform="translate(1457.011092 0)scale(0.996264)" xlink:href="#CMSS17-102"/>
     <use transform="translate(1485.637751 0)scale(0.996264)" xlink:href="#CMSS17-111"/>
     <use transform="translate(1529.878921 0)scale(0.996264)" xlink:href="#CMSS17-114"/>
     <use transform="translate(1593.017806 0)scale(0.996264)" xlink:href="#CMSS17-100"/>
     <use transform="translate(1641.222749 0)scale(0.996264)" xlink:href="#CMSS17-105"/>
     <use transform="translate(1663.403472 0)scale(0.996264)" xlink:href="#CMSS17-11"/>
     <use transform="translate(1718.054442 0)scale(0.996264)" xlink:href="#CMSS17-101"/>
     <use transform="translate(1759.693265 0)scale(0.996264)" xlink:href="#CMSS17-114"/>
     <use transform="translate(1791.603037 0)scale(0.996264)" xlink:href="#CMSS17-101"/>
     <use transform="translate(1833.241859 0)scale(0.996264)" xlink:href="#CMSS17-110"/>
     <use transform="translate(1881.446802 0)scale(0.996264)" xlink:href="#CMSS17-116"/>
     <use transform="translate(1946.507482 0)scale(0.996264)" xlink:href="#CMMI12-107"/>
     <use transform="translate(2000.586682 0)scale(0.996264)" xlink:href="#CMMI12-97"/>
    </g>
   </g>
   <g id="legend_1">
    <g id="patch_7">
     <path d="M 541.096436 219.197509 
L 684.4 219.197509 
Q 688.4 219.197509 688.4 215.197509 
L 688.4 70.7 
Q 688.4 66.7 684.4 66.7 
L 541.096436 66.7 
Q 537.096436 66.7 537.096436 70.7 
L 537.096436 215.197509 
Q 537.096436 219.197509 541.096436 219.197509 
z
" style="fill:#ffffff;opacity:0.8;stroke:#cccccc;stroke-linejoin:miter;"/>
    </g>
    <g id="line2d_42">
     <path d="M 545.096436 82.896875 
L 585.096436 82.896875 
" style="fill:none;stroke:#d0e1f2;stroke-linecap:square;stroke-width:2;"/>
    </g>
    <g id="line2d_43"/>
    <g id="text_22">
     <!-- $ka=0.5$ -->
     <g transform="translate(601.096436 89.896875)scale(0.2 -0.2)">
      <use transform="scale(0.996264)" xlink:href="#CMMI12-107"/>
      <use transform="translate(54.079201 0)scale(0.996264)" xlink:href="#CMMI12-97"/>
      <use transform="translate(132.961067 0)scale(0.996264)" xlink:href="#CMR17-61"/>
      <use transform="translate(232.349864 0)scale(0.996264)" xlink:href="#CMR17-48"/>
      <use transform="translate(278.040341 0)scale(0.996264)" xlink:href="#CMMI12-58"/>
      <use transform="translate(305.137518 0)scale(0.996264)" xlink:href="#CMR17-53"/>
     </g>
    </g>
    <g id="line2d_44">
     <path d="M 545.096436 112.253125 
L 585.096436 112.253125 
" style="fill:none;stroke:#94c4df;stroke-linecap:square;stroke-width:2;"/>
    </g>
    <g id="line2d_45"/>
    <g id="text_23">
     <!-- $ka=2.0$ -->
     <g transform="translate(601.096436 119.253125)scale(0.2 -0.2)">
      <use transform="scale(0.996264)" xlink:href="#CMMI12-107"/>
      <use transform="translate(54.079201 0)scale(0.996264)" xlink:href="#CMMI12-97"/>
      <use transform="translate(132.961067 0)scale(0.996264)" xlink:href="#CMR17-61"/>
      <use transform="translate(232.349864 0)scale(0.996264)" xlink:href="#CMR17-50"/>
      <use transform="translate(278.040341 0)scale(0.996264)" xlink:href="#CMMI12-58"/>
      <use transform="translate(305.137518 0)scale(0.996264)" xlink:href="#CMR17-48"/>
     </g>
    </g>
    <g id="line2d_46">
     <path d="M 545.096436 141.609375 
L 585.096436 141.609375 
" style="fill:none;stroke:#4a98c9;stroke-linecap:square;stroke-width:2;"/>
    </g>
    <g id="line2d_47"/>
    <g id="text_24">
     <!-- $ka=5.0$ -->
     <g transform="translate(601.096436 148.609375)scale(0.2 -0.2)">
      <use transform="scale(0.996264)" xlink:href="#CMMI12-107"/>
      <use transform="translate(54.079201 0)scale(0.996264)" xlink:href="#CMMI12-97"/>
      <use transform="translate(132.961067 0)scale(0.996264)" xlink:href="#CMR17-61"/>
      <use transform="translate(232.349864 0)scale(0.996264)" xlink:href="#CMR17-53"/>
      <use transform="translate(278.040341 0)scale(0.996264)" xlink:href="#CMMI12-58"/>
      <use transform="translate(305.137518 0)scale(0.996264)" xlink:href="#CMR17-48"/>
     </g>
    </g>
    <g id="line2d_48">
     <path d="M 545.096436 170.965625 
L 585.096436 170.965625 
" style="fill:none;stroke:#1764ab;stroke-linecap:square;stroke-width:2;"/>
    </g>
    <g id="line2d_49"/>
    <g id="text_25">
     <!-- $ka=10.0$ -->
     <g transform="translate(601.096436 177.965625)scale(0.2 -0.2)">
      <use transform="scale(0.996264)" xlink:href="#CMMI12-107"/>
      <use transform="translate(54.079201 0)scale(0.996264)" xlink:href="#CMMI12-97"/>
      <use transform="translate(132.961067 0)scale(0.996264)" xlink:href="#CMR17-61"/>
      <use transform="translate(232.349864 0)scale(0.996264)" xlink:href="#CMR17-49"/>
      <use transform="translate(278.040341 0)scale(0.996264)" xlink:href="#CMR17-48"/>
      <use transform="translate(323.730818 0)scale(0.996264)" xlink:href="#CMMI12-58"/>
      <use transform="translate(350.827995 0)scale(0.996264)" xlink:href="#CMR17-48"/>
     </g>
    </g>
    <g id="line2d_50">
     <path d="M 545.096436 200.321875 
L 585.096436 200.321875 
" style="fill:none;stroke:#08306b;stroke-linecap:square;stroke-width:2;"/>
    </g>
    <g id="line2d_51"/>
    <g id="text_26">
     <!-- $ka=30.0$ -->
     <g transform="translate(601.096436 207.321875)scale(0.2 -0.2)">
      <use transform="scale(0.996264)" xlink:href="#CMMI12-107"/>
      <use transform="translate(54.079201 0)scale(0.996264)" xlink:href="#CMMI12-97"/>
      <use transform="translate(132.961067 0)scale(0.996264)" xlink:href="#CMR17-61"/>
      <use transform="translate(232.349864 0)scale(0.996264)" xlink:href="#CMR17-51"/>
      <use transform="translate(278.040341 0)scale(0.996264)" xlink:href="#CMR17-48"/>
      <use transform="translate(323.730818 0)scale(0.996264)" xlink:href="#CMMI12-58"/>
      <use transform="translate(350.827995 0)scale(0.996264)" xlink:href="#CMR17-48"/>
     </g>
    </g>
   </g>
  </g>
 </g>
 <defs>
  <clipPath id="p701445d584">
   <rect height="664.2" width="590.4" x="108" y="56.7"/>
  </clipPath>
 </defs>
</svg>
