<?xml version="1.0" encoding="utf-8" standalone="no"?>
<!DOCTYPE svg PUBLIC "-//W3C//DTD SVG 1.1//EN"
  "http://www.w3.org/Graphics/SVG/1.1/DTD/svg11.dtd">
<!-- Created with matplotlib (https://matplotlib.org/) -->
<svg height="810pt" version="1.1" viewBox="0 0 720 810" width="720pt" xmlns="http://www.w3.org/2000/svg" xmlns:xlink="http://www.w3.org/1999/xlink">
 <metadata>
  <rdf:RDF xmlns:cc="http://creativecommons.org/ns#" xmlns:dc="http://purl.org/dc/elements/1.1/" xmlns:rdf="http://www.w3.org/1999/02/22-rdf-syntax-ns#">
   <cc:Work>
    <dc:type rdf:resource="http://purl.org/dc/dcmitype/StillImage"/>
    <dc:date>2021-08-13T17:25:54.502367</dc:date>
    <dc:format>image/svg+xml</dc:format>
    <dc:creator>
     <cc:Agent>
      <dc:title>Matplotlib v3.3.1, https://matplotlib.org/</dc:title>
     </cc:Agent>
    </dc:creator>
   </cc:Work>
  </rdf:RDF>
 </metadata>
 <defs>
  <style type="text/css">*{stroke-linecap:butt;stroke-linejoin:round;}</style>
 </defs>
 <g id="figure_1">
  <g id="patch_1">
   <path d="M 0 810 
L 720 810 
L 720 0 
L 0 0 
z
" style="fill:#ffffff;"/>
  </g>
  <g id="axes_1">
   <g id="patch_2">
    <path d="M 108 720.9 
L 698.4 720.9 
L 698.4 56.7 
L 108 56.7 
z
" style="fill:#ffffff;"/>
   </g>
   <g id="matplotlib.axis_1">
    <g id="xtick_1">
     <g id="line2d_1">
      <path clip-path="url(#p58fb42f033)" d="M 158.744636 720.9 
L 158.744636 56.7 
" style="fill:none;stroke:#e6e6e6;stroke-linecap:square;stroke-width:0.8;"/>
     </g>
     <g id="line2d_2">
      <defs>
       <path d="M 0 0 
L 0 3.5 
" id="mfe24babfff" style="stroke:#000000;stroke-width:0.8;"/>
      </defs>
      <g>
       <use style="stroke:#000000;stroke-width:0.8;" x="158.744636" xlink:href="#mfe24babfff" y="720.9"/>
      </g>
     </g>
     <g id="text_1">
      <!-- 0 -->
      <g transform="translate(153.972761 739.297656)scale(0.15 -0.15)">
       <defs>
        <path d="M 31.78125 66.40625 
Q 24.171875 66.40625 20.328125 58.90625 
Q 16.5 51.421875 16.5 36.375 
Q 16.5 21.390625 20.328125 13.890625 
Q 24.171875 6.390625 31.78125 6.390625 
Q 39.453125 6.390625 43.28125 13.890625 
Q 47.125 21.390625 47.125 36.375 
Q 47.125 51.421875 43.28125 58.90625 
Q 39.453125 66.40625 31.78125 66.40625 
z
M 31.78125 74.21875 
Q 44.046875 74.21875 50.515625 64.515625 
Q 56.984375 54.828125 56.984375 36.375 
Q 56.984375 17.96875 50.515625 8.265625 
Q 44.046875 -1.421875 31.78125 -1.421875 
Q 19.53125 -1.421875 13.0625 8.265625 
Q 6.59375 17.96875 6.59375 36.375 
Q 6.59375 54.828125 13.0625 64.515625 
Q 19.53125 74.21875 31.78125 74.21875 
z
" id="DejaVuSans-48"/>
       </defs>
       <use xlink:href="#DejaVuSans-48"/>
      </g>
     </g>
    </g>
    <g id="xtick_2">
     <g id="line2d_3">
      <path clip-path="url(#p58fb42f033)" d="M 256.429097 720.9 
L 256.429097 56.7 
" style="fill:none;stroke:#e6e6e6;stroke-linecap:square;stroke-width:0.8;"/>
     </g>
     <g id="line2d_4">
      <g>
       <use style="stroke:#000000;stroke-width:0.8;" x="256.429097" xlink:href="#mfe24babfff" y="720.9"/>
      </g>
     </g>
     <g id="text_2">
      <!-- 20 -->
      <g transform="translate(246.885347 739.297656)scale(0.15 -0.15)">
       <defs>
        <path d="M 19.1875 8.296875 
L 53.609375 8.296875 
L 53.609375 0 
L 7.328125 0 
L 7.328125 8.296875 
Q 12.9375 14.109375 22.625 23.890625 
Q 32.328125 33.6875 34.8125 36.53125 
Q 39.546875 41.84375 41.421875 45.53125 
Q 43.3125 49.21875 43.3125 52.78125 
Q 43.3125 58.59375 39.234375 62.25 
Q 35.15625 65.921875 28.609375 65.921875 
Q 23.96875 65.921875 18.8125 64.3125 
Q 13.671875 62.703125 7.8125 59.421875 
L 7.8125 69.390625 
Q 13.765625 71.78125 18.9375 73 
Q 24.125 74.21875 28.421875 74.21875 
Q 39.75 74.21875 46.484375 68.546875 
Q 53.21875 62.890625 53.21875 53.421875 
Q 53.21875 48.921875 51.53125 44.890625 
Q 49.859375 40.875 45.40625 35.40625 
Q 44.1875 33.984375 37.640625 27.21875 
Q 31.109375 20.453125 19.1875 8.296875 
z
" id="DejaVuSans-50"/>
       </defs>
       <use xlink:href="#DejaVuSans-50"/>
       <use x="63.623047" xlink:href="#DejaVuSans-48"/>
      </g>
     </g>
    </g>
    <g id="xtick_3">
     <g id="line2d_5">
      <path clip-path="url(#p58fb42f033)" d="M 354.113558 720.9 
L 354.113558 56.7 
" style="fill:none;stroke:#e6e6e6;stroke-linecap:square;stroke-width:0.8;"/>
     </g>
     <g id="line2d_6">
      <g>
       <use style="stroke:#000000;stroke-width:0.8;" x="354.113558" xlink:href="#mfe24babfff" y="720.9"/>
      </g>
     </g>
     <g id="text_3">
      <!-- 40 -->
      <g transform="translate(344.569808 739.297656)scale(0.15 -0.15)">
       <defs>
        <path d="M 37.796875 64.3125 
L 12.890625 25.390625 
L 37.796875 25.390625 
z
M 35.203125 72.90625 
L 47.609375 72.90625 
L 47.609375 25.390625 
L 58.015625 25.390625 
L 58.015625 17.1875 
L 47.609375 17.1875 
L 47.609375 0 
L 37.796875 0 
L 37.796875 17.1875 
L 4.890625 17.1875 
L 4.890625 26.703125 
z
" id="DejaVuSans-52"/>
       </defs>
       <use xlink:href="#DejaVuSans-52"/>
       <use x="63.623047" xlink:href="#DejaVuSans-48"/>
      </g>
     </g>
    </g>
    <g id="xtick_4">
     <g id="line2d_7">
      <path clip-path="url(#p58fb42f033)" d="M 451.79802 720.9 
L 451.79802 56.7 
" style="fill:none;stroke:#e6e6e6;stroke-linecap:square;stroke-width:0.8;"/>
     </g>
     <g id="line2d_8">
      <g>
       <use style="stroke:#000000;stroke-width:0.8;" x="451.79802" xlink:href="#mfe24babfff" y="720.9"/>
      </g>
     </g>
     <g id="text_4">
      <!-- 60 -->
      <g transform="translate(442.25427 739.297656)scale(0.15 -0.15)">
       <defs>
        <path d="M 33.015625 40.375 
Q 26.375 40.375 22.484375 35.828125 
Q 18.609375 31.296875 18.609375 23.390625 
Q 18.609375 15.53125 22.484375 10.953125 
Q 26.375 6.390625 33.015625 6.390625 
Q 39.65625 6.390625 43.53125 10.953125 
Q 47.40625 15.53125 47.40625 23.390625 
Q 47.40625 31.296875 43.53125 35.828125 
Q 39.65625 40.375 33.015625 40.375 
z
M 52.59375 71.296875 
L 52.59375 62.3125 
Q 48.875 64.0625 45.09375 64.984375 
Q 41.3125 65.921875 37.59375 65.921875 
Q 27.828125 65.921875 22.671875 59.328125 
Q 17.53125 52.734375 16.796875 39.40625 
Q 19.671875 43.65625 24.015625 45.921875 
Q 28.375 48.1875 33.59375 48.1875 
Q 44.578125 48.1875 50.953125 41.515625 
Q 57.328125 34.859375 57.328125 23.390625 
Q 57.328125 12.15625 50.6875 5.359375 
Q 44.046875 -1.421875 33.015625 -1.421875 
Q 20.359375 -1.421875 13.671875 8.265625 
Q 6.984375 17.96875 6.984375 36.375 
Q 6.984375 53.65625 15.1875 63.9375 
Q 23.390625 74.21875 37.203125 74.21875 
Q 40.921875 74.21875 44.703125 73.484375 
Q 48.484375 72.75 52.59375 71.296875 
z
" id="DejaVuSans-54"/>
       </defs>
       <use xlink:href="#DejaVuSans-54"/>
       <use x="63.623047" xlink:href="#DejaVuSans-48"/>
      </g>
     </g>
    </g>
    <g id="xtick_5">
     <g id="line2d_9">
      <path clip-path="url(#p58fb42f033)" d="M 549.482481 720.9 
L 549.482481 56.7 
" style="fill:none;stroke:#e6e6e6;stroke-linecap:square;stroke-width:0.8;"/>
     </g>
     <g id="line2d_10">
      <g>
       <use style="stroke:#000000;stroke-width:0.8;" x="549.482481" xlink:href="#mfe24babfff" y="720.9"/>
      </g>
     </g>
     <g id="text_5">
      <!-- 80 -->
      <g transform="translate(539.938731 739.297656)scale(0.15 -0.15)">
       <defs>
        <path d="M 31.78125 34.625 
Q 24.75 34.625 20.71875 30.859375 
Q 16.703125 27.09375 16.703125 20.515625 
Q 16.703125 13.921875 20.71875 10.15625 
Q 24.75 6.390625 31.78125 6.390625 
Q 38.8125 6.390625 42.859375 10.171875 
Q 46.921875 13.96875 46.921875 20.515625 
Q 46.921875 27.09375 42.890625 30.859375 
Q 38.875 34.625 31.78125 34.625 
z
M 21.921875 38.8125 
Q 15.578125 40.375 12.03125 44.71875 
Q 8.5 49.078125 8.5 55.328125 
Q 8.5 64.0625 14.71875 69.140625 
Q 20.953125 74.21875 31.78125 74.21875 
Q 42.671875 74.21875 48.875 69.140625 
Q 55.078125 64.0625 55.078125 55.328125 
Q 55.078125 49.078125 51.53125 44.71875 
Q 48 40.375 41.703125 38.8125 
Q 48.828125 37.15625 52.796875 32.3125 
Q 56.78125 27.484375 56.78125 20.515625 
Q 56.78125 9.90625 50.3125 4.234375 
Q 43.84375 -1.421875 31.78125 -1.421875 
Q 19.734375 -1.421875 13.25 4.234375 
Q 6.78125 9.90625 6.78125 20.515625 
Q 6.78125 27.484375 10.78125 32.3125 
Q 14.796875 37.15625 21.921875 38.8125 
z
M 18.3125 54.390625 
Q 18.3125 48.734375 21.84375 45.5625 
Q 25.390625 42.390625 31.78125 42.390625 
Q 38.140625 42.390625 41.71875 45.5625 
Q 45.3125 48.734375 45.3125 54.390625 
Q 45.3125 60.0625 41.71875 63.234375 
Q 38.140625 66.40625 31.78125 66.40625 
Q 25.390625 66.40625 21.84375 63.234375 
Q 18.3125 60.0625 18.3125 54.390625 
z
" id="DejaVuSans-56"/>
       </defs>
       <use xlink:href="#DejaVuSans-56"/>
       <use x="63.623047" xlink:href="#DejaVuSans-48"/>
      </g>
     </g>
    </g>
    <g id="xtick_6">
     <g id="line2d_11">
      <path clip-path="url(#p58fb42f033)" d="M 647.166942 720.9 
L 647.166942 56.7 
" style="fill:none;stroke:#e6e6e6;stroke-linecap:square;stroke-width:0.8;"/>
     </g>
     <g id="line2d_12">
      <g>
       <use style="stroke:#000000;stroke-width:0.8;" x="647.166942" xlink:href="#mfe24babfff" y="720.9"/>
      </g>
     </g>
     <g id="text_6">
      <!-- 100 -->
      <g transform="translate(632.851317 739.297656)scale(0.15 -0.15)">
       <defs>
        <path d="M 12.40625 8.296875 
L 28.515625 8.296875 
L 28.515625 63.921875 
L 10.984375 60.40625 
L 10.984375 69.390625 
L 28.421875 72.90625 
L 38.28125 72.90625 
L 38.28125 8.296875 
L 54.390625 8.296875 
L 54.390625 0 
L 12.40625 0 
z
" id="DejaVuSans-49"/>
       </defs>
       <use xlink:href="#DejaVuSans-49"/>
       <use x="63.623047" xlink:href="#DejaVuSans-48"/>
       <use x="127.246094" xlink:href="#DejaVuSans-48"/>
      </g>
     </g>
    </g>
    <g id="text_7">
     <!-- $ka$ -->
     <g transform="translate(388.2 765.413281)scale(0.25 -0.25)">
      <defs>
       <path d="M 18.3125 75.984375 
L 27.296875 75.984375 
L 18.703125 31.6875 
L 49.515625 54.6875 
L 61.1875 54.6875 
L 26.8125 28.515625 
L 51.90625 0 
L 41.015625 0 
L 17.671875 26.703125 
L 12.5 0 
L 3.515625 0 
z
" id="DejaVuSans-Oblique-107"/>
       <path d="M 53.71875 31.203125 
L 47.609375 0 
L 38.625 0 
L 40.28125 8.296875 
Q 36.328125 3.421875 31.265625 1 
Q 26.21875 -1.421875 20.015625 -1.421875 
Q 13.03125 -1.421875 8.5625 2.84375 
Q 4.109375 7.125 4.109375 13.8125 
Q 4.109375 23.390625 11.75 28.953125 
Q 19.390625 34.515625 32.8125 34.515625 
L 45.3125 34.515625 
L 45.796875 36.921875 
Q 45.90625 37.3125 45.953125 37.765625 
Q 46 38.234375 46 39.203125 
Q 46 43.5625 42.453125 45.96875 
Q 38.921875 48.390625 32.515625 48.390625 
Q 28.125 48.390625 23.5 47.265625 
Q 18.890625 46.140625 14.015625 43.890625 
L 15.578125 52.203125 
Q 20.65625 54.109375 25.515625 55.046875 
Q 30.375 56 34.90625 56 
Q 44.578125 56 49.625 51.796875 
Q 54.6875 47.609375 54.6875 39.59375 
Q 54.6875 37.984375 54.4375 35.8125 
Q 54.203125 33.640625 53.71875 31.203125 
z
M 44 27.484375 
L 35.015625 27.484375 
Q 23.96875 27.484375 18.671875 24.53125 
Q 13.375 21.578125 13.375 15.375 
Q 13.375 11.078125 16.078125 8.640625 
Q 18.796875 6.203125 23.578125 6.203125 
Q 30.90625 6.203125 36.375 11.453125 
Q 41.84375 16.703125 43.609375 25.484375 
z
" id="DejaVuSans-Oblique-97"/>
      </defs>
      <use transform="translate(0 0.015625)" xlink:href="#DejaVuSans-Oblique-107"/>
      <use transform="translate(57.910156 0.015625)" xlink:href="#DejaVuSans-Oblique-97"/>
     </g>
    </g>
   </g>
   <g id="matplotlib.axis_2">
    <g id="ytick_1">
     <g id="line2d_13">
      <path clip-path="url(#p58fb42f033)" d="M 108 720.9 
L 698.4 720.9 
" style="fill:none;stroke:#e6e6e6;stroke-linecap:square;stroke-width:0.8;"/>
     </g>
     <g id="line2d_14">
      <defs>
       <path d="M 0 0 
L -3.5 0 
" id="m1bced641b9" style="stroke:#000000;stroke-width:0.8;"/>
      </defs>
      <g>
       <use style="stroke:#000000;stroke-width:0.8;" x="108" xlink:href="#m1bced641b9" y="720.9"/>
      </g>
     </g>
     <g id="text_8">
      <!-- $\mathdefault{10^{-8}}$ -->
      <g transform="translate(65.75 726.598828)scale(0.15 -0.15)">
       <defs>
        <path d="M 10.59375 35.5 
L 73.1875 35.5 
L 73.1875 27.203125 
L 10.59375 27.203125 
z
" id="DejaVuSans-8722"/>
       </defs>
       <use transform="translate(0 0.765625)" xlink:href="#DejaVuSans-49"/>
       <use transform="translate(63.623047 0.765625)" xlink:href="#DejaVuSans-48"/>
       <use transform="translate(128.203125 39.046875)scale(0.7)" xlink:href="#DejaVuSans-8722"/>
       <use transform="translate(186.855469 39.046875)scale(0.7)" xlink:href="#DejaVuSans-56"/>
      </g>
     </g>
    </g>
    <g id="ytick_2">
     <g id="line2d_15">
      <path clip-path="url(#p58fb42f033)" d="M 108 578.077108 
L 698.4 578.077108 
" style="fill:none;stroke:#e6e6e6;stroke-linecap:square;stroke-width:0.8;"/>
     </g>
     <g id="line2d_16">
      <g>
       <use style="stroke:#000000;stroke-width:0.8;" x="108" xlink:href="#m1bced641b9" y="578.077108"/>
      </g>
     </g>
     <g id="text_9">
      <!-- $\mathdefault{10^{-6}}$ -->
      <g transform="translate(65.75 583.775936)scale(0.15 -0.15)">
       <use transform="translate(0 0.765625)" xlink:href="#DejaVuSans-49"/>
       <use transform="translate(63.623047 0.765625)" xlink:href="#DejaVuSans-48"/>
       <use transform="translate(128.203125 39.046875)scale(0.7)" xlink:href="#DejaVuSans-8722"/>
       <use transform="translate(186.855469 39.046875)scale(0.7)" xlink:href="#DejaVuSans-54"/>
      </g>
     </g>
    </g>
    <g id="ytick_3">
     <g id="line2d_17">
      <path clip-path="url(#p58fb42f033)" d="M 108 435.254217 
L 698.4 435.254217 
" style="fill:none;stroke:#e6e6e6;stroke-linecap:square;stroke-width:0.8;"/>
     </g>
     <g id="line2d_18">
      <g>
       <use style="stroke:#000000;stroke-width:0.8;" x="108" xlink:href="#m1bced641b9" y="435.254217"/>
      </g>
     </g>
     <g id="text_10">
      <!-- $\mathdefault{10^{-4}}$ -->
      <g transform="translate(65.75 440.953045)scale(0.15 -0.15)">
       <use transform="translate(0 0.684375)" xlink:href="#DejaVuSans-49"/>
       <use transform="translate(63.623047 0.684375)" xlink:href="#DejaVuSans-48"/>
       <use transform="translate(128.203125 38.965625)scale(0.7)" xlink:href="#DejaVuSans-8722"/>
       <use transform="translate(186.855469 38.965625)scale(0.7)" xlink:href="#DejaVuSans-52"/>
      </g>
     </g>
    </g>
    <g id="ytick_4">
     <g id="line2d_19">
      <path clip-path="url(#p58fb42f033)" d="M 108 292.431325 
L 698.4 292.431325 
" style="fill:none;stroke:#e6e6e6;stroke-linecap:square;stroke-width:0.8;"/>
     </g>
     <g id="line2d_20">
      <g>
       <use style="stroke:#000000;stroke-width:0.8;" x="108" xlink:href="#m1bced641b9" y="292.431325"/>
      </g>
     </g>
     <g id="text_11">
      <!-- $\mathdefault{10^{-2}}$ -->
      <g transform="translate(65.75 298.130153)scale(0.15 -0.15)">
       <use transform="translate(0 0.765625)" xlink:href="#DejaVuSans-49"/>
       <use transform="translate(63.623047 0.765625)" xlink:href="#DejaVuSans-48"/>
       <use transform="translate(128.203125 39.046875)scale(0.7)" xlink:href="#DejaVuSans-8722"/>
       <use transform="translate(186.855469 39.046875)scale(0.7)" xlink:href="#DejaVuSans-50"/>
      </g>
     </g>
    </g>
    <g id="ytick_5">
     <g id="line2d_21">
      <path clip-path="url(#p58fb42f033)" d="M 108 149.608433 
L 698.4 149.608433 
" style="fill:none;stroke:#e6e6e6;stroke-linecap:square;stroke-width:0.8;"/>
     </g>
     <g id="line2d_22">
      <g>
       <use style="stroke:#000000;stroke-width:0.8;" x="108" xlink:href="#m1bced641b9" y="149.608433"/>
      </g>
     </g>
     <g id="text_12">
      <!-- $\mathdefault{10^{0}}$ -->
      <g transform="translate(74.6 155.307261)scale(0.15 -0.15)">
       <use transform="translate(0 0.765625)" xlink:href="#DejaVuSans-49"/>
       <use transform="translate(63.623047 0.765625)" xlink:href="#DejaVuSans-48"/>
       <use transform="translate(128.203125 39.046875)scale(0.7)" xlink:href="#DejaVuSans-48"/>
      </g>
     </g>
    </g>
    <g id="text_13">
     <!-- $\sigma/(ka)^2$ -->
     <g transform="translate(56.550781 431.675)rotate(-90)scale(0.25 -0.25)">
      <defs>
       <path d="M 34.671875 47.5625 
Q 27.25 47.5625 22.21875 42.1875 
Q 16.890625 36.578125 15.140625 27.296875 
Q 13.1875 17.484375 16.3125 11.8125 
Q 19.390625 6.203125 26.65625 6.203125 
Q 33.84375 6.203125 39.109375 11.859375 
Q 44.4375 17.53125 46.34375 27.296875 
Q 48.046875 36.234375 45.015625 42.1875 
Q 42.1875 47.5625 34.671875 47.5625 
z
M 36.078125 54.734375 
L 65.921875 54.6875 
L 64.15625 45.703125 
L 54.109375 45.703125 
Q 57.90625 38.09375 55.859375 27.296875 
Q 53.21875 13.875 45.0625 6.25 
Q 36.859375 -1.421875 25.140625 -1.421875 
Q 13.375 -1.421875 8.203125 6.25 
Q 3.03125 13.875 5.671875 27.296875 
Q 8.25 40.765625 16.40625 48.390625 
Q 23.1875 54.734375 36.078125 54.734375 
z
" id="DejaVuSans-Oblique-963"/>
       <path d="M 25.390625 72.90625 
L 33.6875 72.90625 
L 8.296875 -9.28125 
L 0 -9.28125 
z
" id="DejaVuSans-47"/>
       <path d="M 31 75.875 
Q 24.46875 64.65625 21.28125 53.65625 
Q 18.109375 42.671875 18.109375 31.390625 
Q 18.109375 20.125 21.3125 9.0625 
Q 24.515625 -2 31 -13.1875 
L 23.1875 -13.1875 
Q 15.875 -1.703125 12.234375 9.375 
Q 8.59375 20.453125 8.59375 31.390625 
Q 8.59375 42.28125 12.203125 53.3125 
Q 15.828125 64.359375 23.1875 75.875 
z
" id="DejaVuSans-40"/>
       <path d="M 8.015625 75.875 
L 15.828125 75.875 
Q 23.140625 64.359375 26.78125 53.3125 
Q 30.421875 42.28125 30.421875 31.390625 
Q 30.421875 20.453125 26.78125 9.375 
Q 23.140625 -1.703125 15.828125 -13.1875 
L 8.015625 -13.1875 
Q 14.5 -2 17.703125 9.0625 
Q 20.90625 20.125 20.90625 31.390625 
Q 20.90625 42.671875 17.703125 53.65625 
Q 14.5 64.65625 8.015625 75.875 
z
" id="DejaVuSans-41"/>
      </defs>
      <use transform="translate(0 0.765625)" xlink:href="#DejaVuSans-Oblique-963"/>
      <use transform="translate(63.378906 0.765625)" xlink:href="#DejaVuSans-47"/>
      <use transform="translate(97.070312 0.765625)" xlink:href="#DejaVuSans-40"/>
      <use transform="translate(136.083984 0.765625)" xlink:href="#DejaVuSans-Oblique-107"/>
      <use transform="translate(193.994141 0.765625)" xlink:href="#DejaVuSans-Oblique-97"/>
      <use transform="translate(255.273438 0.765625)" xlink:href="#DejaVuSans-41"/>
      <use transform="translate(295.244141 39.046875)scale(0.7)" xlink:href="#DejaVuSans-50"/>
     </g>
    </g>
   </g>
   <g id="line2d_23">
    <path clip-path="url(#p58fb42f033)" d="M 161.702987 811 
L 164.161683 669.32693 
L 169.090308 618.849387 
L 174.018933 593.985806 
L 178.947558 576.333018 
L 183.876183 562.556845 
L 188.804808 551.395387 
L 193.733434 541.920561 
L 198.662059 533.699845 
L 203.590684 526.465195 
L 208.519309 519.97598 
L 213.447934 514.104744 
L 218.376559 508.748214 
L 223.305184 503.811923 
L 228.233809 499.242984 
L 233.162434 494.989284 
L 238.091059 491.005784 
L 243.019684 487.265348 
L 247.94831 483.737573 
L 252.876935 480.39845 
L 257.80556 477.231722 
L 262.734185 474.218145 
L 267.66281 471.343905 
L 272.591435 468.59806 
L 277.52006 465.967867 
L 282.448685 463.444836 
L 287.37731 461.020989 
L 292.305935 458.687676 
L 297.23456 456.439321 
L 302.163186 454.26981 
L 307.091811 452.173194 
L 312.020436 450.14553 
L 316.949061 448.182017 
L 321.877686 446.278526 
L 326.806311 444.432055 
L 331.734936 442.638809 
L 336.663561 440.895881 
L 341.592186 439.200838 
L 346.520811 437.550693 
L 351.449437 435.943352 
L 356.378062 434.376756 
L 361.306687 432.848575 
L 366.235312 431.357244 
L 371.163937 429.900981 
L 376.092562 428.47799 
L 381.021187 427.087041 
L 385.949812 425.726583 
L 390.878437 424.395247 
L 395.807062 423.092005 
L 400.735687 421.815524 
L 405.664313 420.564758 
L 410.592938 419.338807 
L 415.521563 418.13654 
L 420.450188 416.957153 
L 425.378813 415.799827 
L 430.307438 414.663627 
L 435.236063 413.54791 
L 440.164688 412.451928 
L 445.093313 411.374918 
L 450.021938 410.316346 
L 454.950563 409.275527 
L 459.879189 408.251852 
L 464.807814 407.244851 
L 469.736439 406.253909 
L 474.665064 405.278539 
L 479.593689 404.318313 
L 484.522314 403.372687 
L 489.450939 402.441271 
L 494.379564 401.523662 
L 499.308189 400.619393 
L 504.236814 399.728141 
L 509.16544 398.849523 
L 514.094065 397.983148 
L 519.02269 397.128737 
L 523.951315 396.28593 
L 528.87994 395.454405 
L 533.808565 394.633908 
L 538.73719 393.824107 
L 543.665815 393.024738 
L 548.59444 392.235563 
L 553.523065 391.456281 
L 558.45169 390.686675 
L 563.380316 389.926516 
L 568.308941 389.175539 
L 573.237566 388.433559 
L 578.166191 387.700356 
L 583.094816 386.975701 
L 588.023441 386.259432 
L 592.952066 385.551337 
L 597.880691 384.851224 
L 602.809316 384.158943 
L 607.737941 383.474293 
L 612.666566 382.797116 
L 617.595192 382.127266 
L 622.523817 381.46456 
L 627.452442 380.808863 
L 632.381067 380.160035 
L 637.309692 379.51791 
L 642.238317 378.882375 
L 647.166942 378.253287 
" style="fill:none;stroke:#414487;stroke-linecap:square;stroke-width:2;"/>
   </g>
   <g id="line2d_24">
    <path clip-path="url(#p58fb42f033)" d="M 159.233058 810.469108 
L 164.161683 526.44556 
L 169.090308 475.987359 
L 174.018933 451.121798 
L 178.947558 433.474352 
L 183.876183 419.699086 
L 188.804808 408.537848 
L 193.733434 399.064569 
L 198.662059 390.843968 
L 203.590684 383.60975 
L 208.519309 377.121383 
L 213.447934 371.250292 
L 218.376559 365.89425 
L 223.305184 360.958476 
L 228.233809 356.389701 
L 233.162434 352.136485 
L 238.091059 348.153384 
L 243.019684 344.413202 
L 247.94831 340.885908 
L 252.876935 337.547124 
L 257.80556 334.38071 
L 262.734185 331.367601 
L 267.66281 328.493698 
L 272.591435 325.74824 
L 277.52006 323.118511 
L 282.448685 320.595835 
L 287.37731 318.172423 
L 292.305935 315.839573 
L 297.23456 313.591612 
L 302.163186 311.422586 
L 307.091811 309.326442 
L 312.020436 307.299217 
L 316.949061 305.336224 
L 321.877686 303.433221 
L 326.806311 301.58724 
L 331.734936 299.794548 
L 336.663561 298.052135 
L 341.592186 296.357633 
L 346.520811 294.708068 
L 351.449437 293.101274 
L 356.378062 291.535267 
L 361.306687 290.007695 
L 366.235312 288.516952 
L 371.163937 287.061323 
L 376.092562 285.638969 
L 381.021187 284.248649 
L 385.949812 282.888867 
L 390.878437 281.5582 
L 395.807062 280.255635 
L 400.735687 278.979867 
L 405.664313 277.729803 
L 410.592938 276.504574 
L 415.521563 275.303058 
L 420.450188 274.12441 
L 425.378813 272.967853 
L 430.307438 271.832438 
L 435.236063 270.7175 
L 440.164688 269.62233 
L 445.093313 268.54614 
L 450.021938 267.48839 
L 454.950563 266.448427 
L 459.879189 265.425607 
L 464.807814 264.419472 
L 469.736439 263.429424 
L 474.665064 262.454947 
L 479.593689 261.495632 
L 484.522314 260.55094 
L 489.450939 259.620456 
L 494.379564 258.703802 
L 499.308189 257.800503 
L 504.236814 256.910224 
L 509.16544 256.032605 
L 514.094065 255.167239 
L 519.02269 254.313843 
L 523.951315 253.472077 
L 528.87994 252.641597 
L 533.808565 251.822159 
L 538.73719 251.01344 
L 543.665815 250.215156 
L 548.59444 249.427083 
L 553.523065 248.648923 
L 558.45169 247.880442 
L 563.380316 247.121428 
L 568.308941 246.371612 
L 573.237566 245.630799 
L 578.166191 244.898783 
L 583.094816 244.175328 
L 588.023441 243.460268 
L 592.952066 242.753403 
L 597.880691 242.054529 
L 602.809316 241.3635 
L 607.737941 240.680122 
L 612.666566 240.004223 
L 617.595192 239.335667 
L 622.523817 238.674273 
L 627.452442 238.019896 
L 632.381067 237.372405 
L 637.309692 236.731633 
L 642.238317 236.097457 
L 647.166942 235.46975 
" style="fill:none;stroke:#2a788e;stroke-linecap:square;stroke-width:2;"/>
   </g>
   <g id="line2d_25">
    <path clip-path="url(#p58fb42f033)" d="M 159.233058 667.363387 
L 164.161683 383.037525 
L 169.090308 332.782409 
L 174.018933 307.897452 
L 178.947558 290.305931 
L 183.876183 276.548411 
L 188.804808 265.395585 
L 193.733434 255.946281 
L 198.662059 247.737753 
L 203.590684 240.517395 
L 208.519309 234.049818 
L 213.447934 228.194141 
L 218.376559 222.856767 
L 223.305184 217.942686 
L 228.233809 213.392879 
L 233.162434 209.162127 
L 238.091059 205.203151 
L 243.019684 201.486233 
L 247.94831 197.985479 
L 252.876935 194.674073 
L 257.80556 191.535149 
L 262.734185 188.552367 
L 267.66281 185.709363 
L 272.591435 182.995712 
L 277.52006 180.400265 
L 282.448685 177.912367 
L 287.37731 175.525055 
L 292.305935 173.230356 
L 297.23456 171.021111 
L 302.163186 168.892436 
L 307.091811 166.838411 
L 312.020436 164.854028 
L 316.949061 162.935635 
L 321.877686 161.078718 
L 326.806311 159.279709 
L 331.734936 157.535801 
L 336.663561 155.843504 
L 341.592186 154.2002 
L 346.520811 152.60362 
L 351.449437 151.051011 
L 356.378062 149.540416 
L 361.306687 148.069978 
L 366.235312 146.637528 
L 371.163937 145.241568 
L 376.092562 143.880522 
L 381.021187 142.552654 
L 385.949812 141.256784 
L 390.878437 139.99157 
L 395.807062 138.755635 
L 400.735687 137.548033 
L 405.664313 136.367602 
L 410.592938 135.213228 
L 415.521563 134.084124 
L 420.450188 132.979281 
L 425.378813 131.897812 
L 430.307438 130.839052 
L 435.236063 129.802126 
L 440.164688 128.786311 
L 445.093313 127.791023 
L 450.021938 126.815499 
L 454.950563 125.859158 
L 459.879189 124.921483 
L 464.807814 124.001817 
L 469.736439 123.099681 
L 474.665064 122.214606 
L 479.593689 121.346019 
L 484.522314 120.493527 
L 489.450939 119.656701 
L 494.379564 118.835057 
L 499.308189 118.028262 
L 504.236814 117.235919 
L 509.16544 116.45761 
L 514.094065 115.69305 
L 519.02269 114.941875 
L 523.951315 114.203733 
L 528.87994 113.478374 
L 533.808565 112.765465 
L 538.73719 112.064703 
L 543.665815 111.375862 
L 548.59444 110.698636 
L 553.523065 110.032774 
L 558.45169 109.37807 
L 563.380316 108.734245 
L 568.308941 108.101085 
L 573.237566 107.478396 
L 578.166191 106.865924 
L 583.094816 106.26349 
L 588.023441 105.670913 
L 592.952066 105.087967 
L 597.880691 104.514497 
L 602.809316 103.950328 
L 607.737941 103.395258 
L 612.666566 102.849153 
L 617.595192 102.311849 
L 622.523817 101.783169 
L 627.452442 101.262994 
L 632.381067 100.751166 
L 637.309692 100.247529 
L 642.238317 99.751976 
L 647.166942 99.264357 
" style="fill:none;stroke:#22a884;stroke-linecap:square;stroke-width:2;"/>
   </g>
   <g id="line2d_26">
    <path clip-path="url(#p58fb42f033)" d="M 159.233058 521.776601 
L 164.161683 234.34407 
L 169.090308 186.973335 
L 174.018933 162.215166 
L 178.947558 145.337461 
L 183.876183 132.473126 
L 188.804808 122.15251 
L 193.733434 113.69067 
L 198.662059 106.644169 
L 203.590684 100.689984 
L 208.519309 95.623965 
L 213.447934 91.320881 
L 218.376559 87.679675 
L 223.305184 84.612203 
L 228.233809 82.056965 
L 233.162434 79.973516 
L 238.091059 78.324369 
L 243.019684 77.073613 
L 247.94831 76.196134 
L 252.876935 75.674956 
L 257.80556 75.491165 
L 262.734185 75.624672 
L 267.66281 76.060852 
L 272.591435 76.787499 
L 277.52006 77.787009 
L 282.448685 79.037741 
L 287.37731 80.518978 
L 292.305935 82.206263 
L 297.23456 84.063749 
L 302.163186 86.046219 
L 307.091811 88.1034 
L 312.020436 90.174426 
L 316.949061 92.182662 
L 321.877686 94.043916 
L 326.806311 95.676648 
L 331.734936 97.002722 
L 336.663561 97.952577 
L 341.592186 98.482692 
L 346.520811 98.584823 
L 351.449437 98.278692 
L 356.378062 97.606911 
L 361.306687 96.635735 
L 366.235312 95.445129 
L 371.163937 94.112551 
L 376.092562 92.708537 
L 381.021187 91.299507 
L 385.949812 89.943844 
L 390.878437 88.686578 
L 395.807062 87.563045 
L 400.735687 86.604107 
L 405.664313 85.833899 
L 410.592938 85.266714 
L 415.521563 84.910096 
L 420.450188 84.767647 
L 425.378813 84.835999 
L 430.307438 85.102882 
L 435.236063 85.550983 
L 440.164688 86.160583 
L 445.093313 86.906841 
L 450.021938 87.759021 
L 454.950563 88.685175 
L 459.879189 89.654902 
L 464.807814 90.637692 
L 469.736439 91.604147 
L 474.665064 92.530165 
L 479.593689 93.394261 
L 484.522314 94.168858 
L 489.450939 94.818002 
L 494.379564 95.303707 
L 499.308189 95.591556 
L 504.236814 95.654575 
L 509.16544 95.480603 
L 514.094065 95.07756 
L 519.02269 94.469613 
L 523.951315 93.691777 
L 528.87994 92.791524 
L 533.808565 91.831144 
L 538.73719 90.882621 
L 543.665815 90.015513 
L 548.59444 89.280712 
L 553.523065 88.697563 
L 558.45169 88.256876 
L 563.380316 87.938987 
L 568.308941 87.729899 
L 573.237566 87.623668 
L 578.166191 87.615621 
L 583.094816 87.697842 
L 588.023441 87.859401 
L 592.952066 88.087344 
L 597.880691 88.37281 
L 602.809316 88.731039 
L 607.737941 89.217265 
L 612.666566 89.885449 
L 617.595192 90.710268 
L 622.523817 91.595321 
L 627.452442 92.448012 
L 632.381067 93.209388 
L 637.309692 93.842268 
L 642.238317 94.319821 
L 647.166942 94.620807 
" style="fill:none;stroke:#7ad151;stroke-linecap:square;stroke-width:2;"/>
   </g>
   <g id="line2d_27">
    <path clip-path="url(#p58fb42f033)" d="M 159.233058 475.840219 
L 164.161683 184.889751 
L 169.090308 141.687735 
L 174.018933 118.413374 
L 178.947558 103.070503 
L 183.876183 92.253788 
L 188.804808 84.50234 
L 193.733434 79.063629 
L 198.662059 75.513176 
L 203.590684 73.591123 
L 208.519309 73.115346 
L 213.447934 73.926268 
L 218.376559 75.850304 
L 223.305184 78.683346 
L 228.233809 82.198282 
L 233.162434 86.169492 
L 238.091059 90.340936 
L 243.019684 94.264805 
L 247.94831 97.176996 
L 252.876935 98.231072 
L 257.80556 97.051671 
L 262.734185 94.085705 
L 267.66281 90.457519 
L 272.591435 87.431935 
L 277.52006 85.565942 
L 282.448685 84.594556 
L 287.37731 84.195152 
L 292.305935 84.216875 
L 297.23456 84.477725 
L 302.163186 84.826032 
L 307.091811 86.100738 
L 312.020436 89.06659 
L 316.949061 92.246151 
L 321.877686 94.623549 
L 326.806311 95.796823 
L 331.734936 95.402659 
L 336.663561 92.974382 
L 341.592186 90.81503 
L 346.520811 90.698833 
L 351.449437 89.692573 
L 356.378062 88.473888 
L 361.306687 87.487845 
L 366.235312 86.735744 
L 371.163937 85.285944 
L 376.092562 86.296951 
L 381.021187 88.175259 
L 385.949812 89.721207 
L 390.878437 91.355833 
L 395.807062 92.860021 
L 400.735687 93.684775 
L 405.664313 92.06655 
L 410.592938 93.832986 
L 415.521563 93.065662 
L 420.450188 91.960612 
L 425.378813 90.864682 
L 430.307438 89.849179 
L 435.236063 87.964172 
L 440.164688 88.275358 
L 445.093313 87.872339 
L 450.021938 87.749887 
L 454.950563 88.255497 
L 459.879189 89.364078 
L 464.807814 90.612903 
L 469.736439 92.0808 
L 474.665064 93.107018 
L 479.593689 93.403918 
L 484.522314 93.01826 
L 489.450939 92.62823 
L 494.379564 92.309117 
L 499.308189 91.801735 
L 504.236814 91.059083 
L 509.16544 90.210282 
L 514.094065 89.262112 
L 519.02269 88.227357 
L 523.951315 88.075139 
L 528.87994 88.814536 
L 533.808565 89.684906 
L 538.73719 90.661385 
L 543.665815 91.655896 
L 548.59444 92.353255 
L 553.523065 92.141663 
L 558.45169 92.583424 
L 563.380316 93.105691 
L 568.308941 92.898297 
L 573.237566 92.367325 
L 578.166191 91.679971 
L 583.094816 90.81375 
L 588.023441 89.234733 
L 592.952066 89.238009 
L 597.880691 89.243538 
L 602.809316 89.305466 
L 607.737941 89.719485 
L 612.666566 90.417879 
L 617.595192 91.151723 
L 622.523817 90.831366 
L 627.452442 92.502221 
L 632.381067 92.850788 
L 637.309692 92.915628 
L 642.238317 92.864273 
L 647.166942 92.607602 
" style="fill:none;stroke:#fde725;stroke-linecap:square;stroke-width:2;"/>
   </g>
   <g id="patch_3">
    <path d="M 108 720.9 
L 108 56.7 
" style="fill:none;stroke:#000000;stroke-linecap:square;stroke-linejoin:miter;stroke-width:0.8;"/>
   </g>
   <g id="patch_4">
    <path d="M 698.4 720.9 
L 698.4 56.7 
" style="fill:none;stroke:#000000;stroke-linecap:square;stroke-linejoin:miter;stroke-width:0.8;"/>
   </g>
   <g id="patch_5">
    <path d="M 108 720.9 
L 698.4 720.9 
" style="fill:none;stroke:#000000;stroke-linecap:square;stroke-linejoin:miter;stroke-width:0.8;"/>
   </g>
   <g id="patch_6">
    <path d="M 108 56.7 
L 698.4 56.7 
" style="fill:none;stroke:#000000;stroke-linecap:square;stroke-linejoin:miter;stroke-width:0.8;"/>
   </g>
   <g id="legend_1">
    <g id="patch_7">
     <path d="M 493.2 710.9 
L 684.4 710.9 
Q 688.4 710.9 688.4 706.9 
L 688.4 562.11875 
Q 688.4 558.11875 684.4 558.11875 
L 493.2 558.11875 
Q 489.2 558.11875 489.2 562.11875 
L 489.2 706.9 
Q 489.2 710.9 493.2 710.9 
z
" style="fill:#ffffff;opacity:0.8;stroke:#cccccc;stroke-linejoin:miter;"/>
    </g>
    <g id="line2d_28">
     <path d="M 497.2 574.315625 
L 537.2 574.315625 
" style="fill:none;stroke:#414487;stroke-linecap:square;stroke-width:2;"/>
    </g>
    <g id="line2d_29"/>
    <g id="text_14">
     <!-- $n_{ref}=1.0001$ -->
     <g transform="translate(553.2 581.315625)scale(0.2 -0.2)">
      <defs>
       <path d="M 55.71875 33.015625 
L 49.3125 0 
L 40.28125 0 
L 46.6875 32.671875 
Q 47.125 34.96875 47.359375 36.71875 
Q 47.609375 38.484375 47.609375 39.5 
Q 47.609375 43.609375 45.015625 45.890625 
Q 42.4375 48.1875 37.796875 48.1875 
Q 30.5625 48.1875 25.34375 43.375 
Q 20.125 38.578125 18.5 30.328125 
L 12.5 0 
L 3.515625 0 
L 14.109375 54.6875 
L 23.09375 54.6875 
L 21.296875 46.09375 
Q 25.046875 50.828125 30.3125 53.40625 
Q 35.59375 56 41.40625 56 
Q 48.640625 56 52.609375 52.09375 
Q 56.59375 48.1875 56.59375 41.109375 
Q 56.59375 39.359375 56.375 37.359375 
Q 56.15625 35.359375 55.71875 33.015625 
z
" id="DejaVuSans-Oblique-110"/>
       <path d="M 44.578125 46.390625 
Q 43.21875 47.125 41.453125 47.515625 
Q 39.703125 47.90625 37.703125 47.90625 
Q 30.515625 47.90625 25.140625 42.453125 
Q 19.78125 37.015625 18.015625 27.875 
L 12.5 0 
L 3.515625 0 
L 14.203125 54.6875 
L 23.1875 54.6875 
L 21.484375 46.1875 
Q 25.046875 50.921875 30 53.453125 
Q 34.96875 56 40.578125 56 
Q 42.046875 56 43.453125 55.828125 
Q 44.875 55.671875 46.296875 55.28125 
z
" id="DejaVuSans-Oblique-114"/>
       <path d="M 48.09375 32.234375 
Q 48.25 33.015625 48.3125 33.84375 
Q 48.390625 34.671875 48.390625 35.5 
Q 48.390625 41.453125 44.890625 44.921875 
Q 41.40625 48.390625 35.40625 48.390625 
Q 28.71875 48.390625 23.578125 44.15625 
Q 18.453125 39.9375 15.828125 32.171875 
z
M 55.90625 25.203125 
L 14.109375 25.203125 
Q 13.8125 23.34375 13.71875 22.265625 
Q 13.625 21.1875 13.625 20.40625 
Q 13.625 13.625 17.796875 9.90625 
Q 21.96875 6.203125 29.59375 6.203125 
Q 35.453125 6.203125 40.671875 7.515625 
Q 45.90625 8.84375 50.390625 11.375 
L 48.6875 2.484375 
Q 43.84375 0.53125 38.6875 -0.4375 
Q 33.546875 -1.421875 28.21875 -1.421875 
Q 16.84375 -1.421875 10.71875 4.015625 
Q 4.59375 9.46875 4.59375 19.484375 
Q 4.59375 28.03125 7.640625 35.375 
Q 10.6875 42.71875 16.609375 48.484375 
Q 20.40625 52.09375 25.65625 54.046875 
Q 30.90625 56 36.8125 56 
Q 46.09375 56 51.578125 50.4375 
Q 57.078125 44.875 57.078125 35.5 
Q 57.078125 33.25 56.78125 30.6875 
Q 56.5 28.125 55.90625 25.203125 
z
" id="DejaVuSans-Oblique-101"/>
       <path d="M 47.796875 75.984375 
L 46.390625 68.5 
L 37.796875 68.5 
Q 32.90625 68.5 30.6875 66.578125 
Q 28.46875 64.65625 27.390625 59.515625 
L 26.421875 54.6875 
L 41.21875 54.6875 
L 39.890625 47.703125 
L 25.09375 47.703125 
L 15.828125 0 
L 6.78125 0 
L 16.109375 47.703125 
L 7.515625 47.703125 
L 8.796875 54.6875 
L 17.390625 54.6875 
L 18.109375 58.5 
Q 19.96875 68.171875 24.625 72.078125 
Q 29.296875 75.984375 39.3125 75.984375 
z
" id="DejaVuSans-Oblique-102"/>
       <path d="M 10.59375 45.40625 
L 73.1875 45.40625 
L 73.1875 37.203125 
L 10.59375 37.203125 
z
M 10.59375 25.484375 
L 73.1875 25.484375 
L 73.1875 17.1875 
L 10.59375 17.1875 
z
" id="DejaVuSans-61"/>
       <path d="M 10.6875 12.40625 
L 21 12.40625 
L 21 0 
L 10.6875 0 
z
" id="DejaVuSans-46"/>
      </defs>
      <use transform="translate(0 0.78125)" xlink:href="#DejaVuSans-Oblique-110"/>
      <use transform="translate(63.378906 -15.625)scale(0.7)" xlink:href="#DejaVuSans-Oblique-114"/>
      <use transform="translate(92.158203 -15.625)scale(0.7)" xlink:href="#DejaVuSans-Oblique-101"/>
      <use transform="translate(135.224609 -15.625)scale(0.7)" xlink:href="#DejaVuSans-Oblique-102"/>
      <use transform="translate(182.084961 0.78125)" xlink:href="#DejaVuSans-61"/>
      <use transform="translate(285.356445 0.78125)" xlink:href="#DejaVuSans-49"/>
      <use transform="translate(348.979492 0.78125)" xlink:href="#DejaVuSans-46"/>
      <use transform="translate(380.766602 0.78125)" xlink:href="#DejaVuSans-48"/>
      <use transform="translate(444.389648 0.78125)" xlink:href="#DejaVuSans-48"/>
      <use transform="translate(508.012695 0.78125)" xlink:href="#DejaVuSans-48"/>
      <use transform="translate(571.635742 0.78125)" xlink:href="#DejaVuSans-49"/>
     </g>
    </g>
    <g id="line2d_30">
     <path d="M 497.2 603.671875 
L 537.2 603.671875 
" style="fill:none;stroke:#2a788e;stroke-linecap:square;stroke-width:2;"/>
    </g>
    <g id="line2d_31"/>
    <g id="text_15">
     <!-- $n_{ref}=1.0010$ -->
     <g transform="translate(553.2 610.671875)scale(0.2 -0.2)">
      <use transform="translate(0 0.78125)" xlink:href="#DejaVuSans-Oblique-110"/>
      <use transform="translate(63.378906 -15.625)scale(0.7)" xlink:href="#DejaVuSans-Oblique-114"/>
      <use transform="translate(92.158203 -15.625)scale(0.7)" xlink:href="#DejaVuSans-Oblique-101"/>
      <use transform="translate(135.224609 -15.625)scale(0.7)" xlink:href="#DejaVuSans-Oblique-102"/>
      <use transform="translate(182.084961 0.78125)" xlink:href="#DejaVuSans-61"/>
      <use transform="translate(285.356445 0.78125)" xlink:href="#DejaVuSans-49"/>
      <use transform="translate(348.979492 0.78125)" xlink:href="#DejaVuSans-46"/>
      <use transform="translate(380.766602 0.78125)" xlink:href="#DejaVuSans-48"/>
      <use transform="translate(444.389648 0.78125)" xlink:href="#DejaVuSans-48"/>
      <use transform="translate(508.012695 0.78125)" xlink:href="#DejaVuSans-49"/>
      <use transform="translate(571.635742 0.78125)" xlink:href="#DejaVuSans-48"/>
     </g>
    </g>
    <g id="line2d_32">
     <path d="M 497.2 633.028125 
L 537.2 633.028125 
" style="fill:none;stroke:#22a884;stroke-linecap:square;stroke-width:2;"/>
    </g>
    <g id="line2d_33"/>
    <g id="text_16">
     <!-- $n_{ref}=1.0100$ -->
     <g transform="translate(553.2 640.028125)scale(0.2 -0.2)">
      <use transform="translate(0 0.78125)" xlink:href="#DejaVuSans-Oblique-110"/>
      <use transform="translate(63.378906 -15.625)scale(0.7)" xlink:href="#DejaVuSans-Oblique-114"/>
      <use transform="translate(92.158203 -15.625)scale(0.7)" xlink:href="#DejaVuSans-Oblique-101"/>
      <use transform="translate(135.224609 -15.625)scale(0.7)" xlink:href="#DejaVuSans-Oblique-102"/>
      <use transform="translate(182.084961 0.78125)" xlink:href="#DejaVuSans-61"/>
      <use transform="translate(285.356445 0.78125)" xlink:href="#DejaVuSans-49"/>
      <use transform="translate(348.979492 0.78125)" xlink:href="#DejaVuSans-46"/>
      <use transform="translate(380.766602 0.78125)" xlink:href="#DejaVuSans-48"/>
      <use transform="translate(444.389648 0.78125)" xlink:href="#DejaVuSans-49"/>
      <use transform="translate(508.012695 0.78125)" xlink:href="#DejaVuSans-48"/>
      <use transform="translate(571.635742 0.78125)" xlink:href="#DejaVuSans-48"/>
     </g>
    </g>
    <g id="line2d_34">
     <path d="M 497.2 662.384375 
L 537.2 662.384375 
" style="fill:none;stroke:#7ad151;stroke-linecap:square;stroke-width:2;"/>
    </g>
    <g id="line2d_35"/>
    <g id="text_17">
     <!-- $n_{ref}=1.1000$ -->
     <g transform="translate(553.2 669.384375)scale(0.2 -0.2)">
      <use transform="translate(0 0.78125)" xlink:href="#DejaVuSans-Oblique-110"/>
      <use transform="translate(63.378906 -15.625)scale(0.7)" xlink:href="#DejaVuSans-Oblique-114"/>
      <use transform="translate(92.158203 -15.625)scale(0.7)" xlink:href="#DejaVuSans-Oblique-101"/>
      <use transform="translate(135.224609 -15.625)scale(0.7)" xlink:href="#DejaVuSans-Oblique-102"/>
      <use transform="translate(182.084961 0.78125)" xlink:href="#DejaVuSans-61"/>
      <use transform="translate(285.356445 0.78125)" xlink:href="#DejaVuSans-49"/>
      <use transform="translate(348.979492 0.78125)" xlink:href="#DejaVuSans-46"/>
      <use transform="translate(380.766602 0.78125)" xlink:href="#DejaVuSans-49"/>
      <use transform="translate(444.389648 0.78125)" xlink:href="#DejaVuSans-48"/>
      <use transform="translate(508.012695 0.78125)" xlink:href="#DejaVuSans-48"/>
      <use transform="translate(571.635742 0.78125)" xlink:href="#DejaVuSans-48"/>
     </g>
    </g>
    <g id="line2d_36">
     <path d="M 497.2 691.740625 
L 537.2 691.740625 
" style="fill:none;stroke:#fde725;stroke-linecap:square;stroke-width:2;"/>
    </g>
    <g id="line2d_37"/>
    <g id="text_18">
     <!-- $n_{ref}=1.2000$ -->
     <g transform="translate(553.2 698.740625)scale(0.2 -0.2)">
      <use transform="translate(0 0.78125)" xlink:href="#DejaVuSans-Oblique-110"/>
      <use transform="translate(63.378906 -15.625)scale(0.7)" xlink:href="#DejaVuSans-Oblique-114"/>
      <use transform="translate(92.158203 -15.625)scale(0.7)" xlink:href="#DejaVuSans-Oblique-101"/>
      <use transform="translate(135.224609 -15.625)scale(0.7)" xlink:href="#DejaVuSans-Oblique-102"/>
      <use transform="translate(182.084961 0.78125)" xlink:href="#DejaVuSans-61"/>
      <use transform="translate(285.356445 0.78125)" xlink:href="#DejaVuSans-49"/>
      <use transform="translate(348.979492 0.78125)" xlink:href="#DejaVuSans-46"/>
      <use transform="translate(375.266602 0.78125)" xlink:href="#DejaVuSans-50"/>
      <use transform="translate(438.889648 0.78125)" xlink:href="#DejaVuSans-48"/>
      <use transform="translate(502.512695 0.78125)" xlink:href="#DejaVuSans-48"/>
      <use transform="translate(566.135742 0.78125)" xlink:href="#DejaVuSans-48"/>
     </g>
    </g>
   </g>
  </g>
 </g>
 <defs>
  <clipPath id="p58fb42f033">
   <rect height="664.2" width="590.4" x="108" y="56.7"/>
  </clipPath>
 </defs>
</svg>
