<?xml version="1.0" encoding="utf-8" standalone="no"?>
<!DOCTYPE svg PUBLIC "-//W3C//DTD SVG 1.1//EN"
  "http://www.w3.org/Graphics/SVG/1.1/DTD/svg11.dtd">
<!-- Created with matplotlib (https://matplotlib.org/) -->
<svg height="810pt" version="1.1" viewBox="0 0 720 810" width="720pt" xmlns="http://www.w3.org/2000/svg" xmlns:xlink="http://www.w3.org/1999/xlink">
 <metadata>
  <rdf:RDF xmlns:cc="http://creativecommons.org/ns#" xmlns:dc="http://purl.org/dc/elements/1.1/" xmlns:rdf="http://www.w3.org/1999/02/22-rdf-syntax-ns#">
   <cc:Work>
    <dc:type rdf:resource="http://purl.org/dc/dcmitype/StillImage"/>
    <dc:date>2021-08-18T13:41:37.895118</dc:date>
    <dc:format>image/svg+xml</dc:format>
    <dc:creator>
     <cc:Agent>
      <dc:title>Matplotlib v3.3.1, https://matplotlib.org/</dc:title>
     </cc:Agent>
    </dc:creator>
   </cc:Work>
  </rdf:RDF>
 </metadata>
 <defs>
  <style type="text/css">*{stroke-linecap:butt;stroke-linejoin:round;}</style>
 </defs>
 <g id="figure_1">
  <g id="patch_1">
   <path d="M 0 810 
L 720 810 
L 720 0 
L 0 0 
z
" style="fill:#ffffff;"/>
  </g>
  <g id="axes_1">
   <g id="patch_2">
    <path d="M 108 720.9 
L 698.4 720.9 
L 698.4 56.7 
L 108 56.7 
z
" style="fill:#ffffff;"/>
   </g>
   <g id="matplotlib.axis_1">
    <g id="xtick_1">
     <g id="line2d_1">
      <path clip-path="url(#p1f799252c6)" d="M 159.233058 720.9 
L 159.233058 56.7 
" style="fill:none;stroke:#e6e6e6;stroke-linecap:square;stroke-width:0.8;"/>
     </g>
     <g id="line2d_2">
      <defs>
       <path d="M 0 0 
L 0 3.5 
" id="m7fe7e31c6b" style="stroke:#000000;stroke-width:0.8;"/>
      </defs>
      <g>
       <use style="stroke:#000000;stroke-width:0.8;" x="159.233058" xlink:href="#m7fe7e31c6b" y="720.9"/>
      </g>
     </g>
     <g id="text_1">
      <!-- 0 -->
      <g transform="translate(154.461183 739.297656)scale(0.15 -0.15)">
       <defs>
        <path d="M 31.78125 66.40625 
Q 24.171875 66.40625 20.328125 58.90625 
Q 16.5 51.421875 16.5 36.375 
Q 16.5 21.390625 20.328125 13.890625 
Q 24.171875 6.390625 31.78125 6.390625 
Q 39.453125 6.390625 43.28125 13.890625 
Q 47.125 21.390625 47.125 36.375 
Q 47.125 51.421875 43.28125 58.90625 
Q 39.453125 66.40625 31.78125 66.40625 
z
M 31.78125 74.21875 
Q 44.046875 74.21875 50.515625 64.515625 
Q 56.984375 54.828125 56.984375 36.375 
Q 56.984375 17.96875 50.515625 8.265625 
Q 44.046875 -1.421875 31.78125 -1.421875 
Q 19.53125 -1.421875 13.0625 8.265625 
Q 6.59375 17.96875 6.59375 36.375 
Q 6.59375 54.828125 13.0625 64.515625 
Q 19.53125 74.21875 31.78125 74.21875 
z
" id="DejaVuSans-48"/>
       </defs>
       <use xlink:href="#DejaVuSans-48"/>
      </g>
     </g>
    </g>
    <g id="xtick_2">
     <g id="line2d_3">
      <path clip-path="url(#p1f799252c6)" d="M 240.555372 720.9 
L 240.555372 56.7 
" style="fill:none;stroke:#e6e6e6;stroke-linecap:square;stroke-width:0.8;"/>
     </g>
     <g id="line2d_4">
      <g>
       <use style="stroke:#000000;stroke-width:0.8;" x="240.555372" xlink:href="#m7fe7e31c6b" y="720.9"/>
      </g>
     </g>
     <g id="text_2">
      <!-- 5 -->
      <g transform="translate(235.783497 739.297656)scale(0.15 -0.15)">
       <defs>
        <path d="M 10.796875 72.90625 
L 49.515625 72.90625 
L 49.515625 64.59375 
L 19.828125 64.59375 
L 19.828125 46.734375 
Q 21.96875 47.46875 24.109375 47.828125 
Q 26.265625 48.1875 28.421875 48.1875 
Q 40.625 48.1875 47.75 41.5 
Q 54.890625 34.8125 54.890625 23.390625 
Q 54.890625 11.625 47.5625 5.09375 
Q 40.234375 -1.421875 26.90625 -1.421875 
Q 22.3125 -1.421875 17.546875 -0.640625 
Q 12.796875 0.140625 7.71875 1.703125 
L 7.71875 11.625 
Q 12.109375 9.234375 16.796875 8.0625 
Q 21.484375 6.890625 26.703125 6.890625 
Q 35.15625 6.890625 40.078125 11.328125 
Q 45.015625 15.765625 45.015625 23.390625 
Q 45.015625 31 40.078125 35.4375 
Q 35.15625 39.890625 26.703125 39.890625 
Q 22.75 39.890625 18.8125 39.015625 
Q 14.890625 38.140625 10.796875 36.28125 
z
" id="DejaVuSans-53"/>
       </defs>
       <use xlink:href="#DejaVuSans-53"/>
      </g>
     </g>
    </g>
    <g id="xtick_3">
     <g id="line2d_5">
      <path clip-path="url(#p1f799252c6)" d="M 321.877686 720.9 
L 321.877686 56.7 
" style="fill:none;stroke:#e6e6e6;stroke-linecap:square;stroke-width:0.8;"/>
     </g>
     <g id="line2d_6">
      <g>
       <use style="stroke:#000000;stroke-width:0.8;" x="321.877686" xlink:href="#m7fe7e31c6b" y="720.9"/>
      </g>
     </g>
     <g id="text_3">
      <!-- 10 -->
      <g transform="translate(312.333936 739.297656)scale(0.15 -0.15)">
       <defs>
        <path d="M 12.40625 8.296875 
L 28.515625 8.296875 
L 28.515625 63.921875 
L 10.984375 60.40625 
L 10.984375 69.390625 
L 28.421875 72.90625 
L 38.28125 72.90625 
L 38.28125 8.296875 
L 54.390625 8.296875 
L 54.390625 0 
L 12.40625 0 
z
" id="DejaVuSans-49"/>
       </defs>
       <use xlink:href="#DejaVuSans-49"/>
       <use x="63.623047" xlink:href="#DejaVuSans-48"/>
      </g>
     </g>
    </g>
    <g id="xtick_4">
     <g id="line2d_7">
      <path clip-path="url(#p1f799252c6)" d="M 403.2 720.9 
L 403.2 56.7 
" style="fill:none;stroke:#e6e6e6;stroke-linecap:square;stroke-width:0.8;"/>
     </g>
     <g id="line2d_8">
      <g>
       <use style="stroke:#000000;stroke-width:0.8;" x="403.2" xlink:href="#m7fe7e31c6b" y="720.9"/>
      </g>
     </g>
     <g id="text_4">
      <!-- 15 -->
      <g transform="translate(393.65625 739.297656)scale(0.15 -0.15)">
       <use xlink:href="#DejaVuSans-49"/>
       <use x="63.623047" xlink:href="#DejaVuSans-53"/>
      </g>
     </g>
    </g>
    <g id="xtick_5">
     <g id="line2d_9">
      <path clip-path="url(#p1f799252c6)" d="M 484.522314 720.9 
L 484.522314 56.7 
" style="fill:none;stroke:#e6e6e6;stroke-linecap:square;stroke-width:0.8;"/>
     </g>
     <g id="line2d_10">
      <g>
       <use style="stroke:#000000;stroke-width:0.8;" x="484.522314" xlink:href="#m7fe7e31c6b" y="720.9"/>
      </g>
     </g>
     <g id="text_5">
      <!-- 20 -->
      <g transform="translate(474.978564 739.297656)scale(0.15 -0.15)">
       <defs>
        <path d="M 19.1875 8.296875 
L 53.609375 8.296875 
L 53.609375 0 
L 7.328125 0 
L 7.328125 8.296875 
Q 12.9375 14.109375 22.625 23.890625 
Q 32.328125 33.6875 34.8125 36.53125 
Q 39.546875 41.84375 41.421875 45.53125 
Q 43.3125 49.21875 43.3125 52.78125 
Q 43.3125 58.59375 39.234375 62.25 
Q 35.15625 65.921875 28.609375 65.921875 
Q 23.96875 65.921875 18.8125 64.3125 
Q 13.671875 62.703125 7.8125 59.421875 
L 7.8125 69.390625 
Q 13.765625 71.78125 18.9375 73 
Q 24.125 74.21875 28.421875 74.21875 
Q 39.75 74.21875 46.484375 68.546875 
Q 53.21875 62.890625 53.21875 53.421875 
Q 53.21875 48.921875 51.53125 44.890625 
Q 49.859375 40.875 45.40625 35.40625 
Q 44.1875 33.984375 37.640625 27.21875 
Q 31.109375 20.453125 19.1875 8.296875 
z
" id="DejaVuSans-50"/>
       </defs>
       <use xlink:href="#DejaVuSans-50"/>
       <use x="63.623047" xlink:href="#DejaVuSans-48"/>
      </g>
     </g>
    </g>
    <g id="xtick_6">
     <g id="line2d_11">
      <path clip-path="url(#p1f799252c6)" d="M 565.844628 720.9 
L 565.844628 56.7 
" style="fill:none;stroke:#e6e6e6;stroke-linecap:square;stroke-width:0.8;"/>
     </g>
     <g id="line2d_12">
      <g>
       <use style="stroke:#000000;stroke-width:0.8;" x="565.844628" xlink:href="#m7fe7e31c6b" y="720.9"/>
      </g>
     </g>
     <g id="text_6">
      <!-- 25 -->
      <g transform="translate(556.300878 739.297656)scale(0.15 -0.15)">
       <use xlink:href="#DejaVuSans-50"/>
       <use x="63.623047" xlink:href="#DejaVuSans-53"/>
      </g>
     </g>
    </g>
    <g id="xtick_7">
     <g id="line2d_13">
      <path clip-path="url(#p1f799252c6)" d="M 647.166942 720.9 
L 647.166942 56.7 
" style="fill:none;stroke:#e6e6e6;stroke-linecap:square;stroke-width:0.8;"/>
     </g>
     <g id="line2d_14">
      <g>
       <use style="stroke:#000000;stroke-width:0.8;" x="647.166942" xlink:href="#m7fe7e31c6b" y="720.9"/>
      </g>
     </g>
     <g id="text_7">
      <!-- 30 -->
      <g transform="translate(637.623192 739.297656)scale(0.15 -0.15)">
       <defs>
        <path d="M 40.578125 39.3125 
Q 47.65625 37.796875 51.625 33 
Q 55.609375 28.21875 55.609375 21.1875 
Q 55.609375 10.40625 48.1875 4.484375 
Q 40.765625 -1.421875 27.09375 -1.421875 
Q 22.515625 -1.421875 17.65625 -0.515625 
Q 12.796875 0.390625 7.625 2.203125 
L 7.625 11.71875 
Q 11.71875 9.328125 16.59375 8.109375 
Q 21.484375 6.890625 26.8125 6.890625 
Q 36.078125 6.890625 40.9375 10.546875 
Q 45.796875 14.203125 45.796875 21.1875 
Q 45.796875 27.640625 41.28125 31.265625 
Q 36.765625 34.90625 28.71875 34.90625 
L 20.21875 34.90625 
L 20.21875 43.015625 
L 29.109375 43.015625 
Q 36.375 43.015625 40.234375 45.921875 
Q 44.09375 48.828125 44.09375 54.296875 
Q 44.09375 59.90625 40.109375 62.90625 
Q 36.140625 65.921875 28.71875 65.921875 
Q 24.65625 65.921875 20.015625 65.03125 
Q 15.375 64.15625 9.8125 62.3125 
L 9.8125 71.09375 
Q 15.4375 72.65625 20.34375 73.4375 
Q 25.25 74.21875 29.59375 74.21875 
Q 40.828125 74.21875 47.359375 69.109375 
Q 53.90625 64.015625 53.90625 55.328125 
Q 53.90625 49.265625 50.4375 45.09375 
Q 46.96875 40.921875 40.578125 39.3125 
z
" id="DejaVuSans-51"/>
       </defs>
       <use xlink:href="#DejaVuSans-51"/>
       <use x="63.623047" xlink:href="#DejaVuSans-48"/>
      </g>
     </g>
    </g>
    <g id="text_8">
     <!-- $\theta(^{\circ})$ -->
     <g transform="translate(379.825 765.413281)scale(0.25 -0.25)">
      <defs>
       <path d="M 45.515625 34.671875 
L 14.453125 34.671875 
Q 12.359375 20.0625 14.5 13.875 
Q 17.1875 6.25 24.46875 6.25 
Q 31.78125 6.25 37.359375 13.921875 
Q 42.234375 20.65625 45.515625 34.671875 
z
M 47.015625 42.96875 
Q 48.34375 56.84375 46.625 61.71875 
Q 43.953125 69.4375 36.765625 69.4375 
Q 29.296875 69.4375 23.828125 61.8125 
Q 19.53125 55.671875 16.15625 42.96875 
z
M 38.1875 76.765625 
Q 49.90625 76.765625 54.59375 66.40625 
Q 59.28125 56.109375 55.71875 37.84375 
Q 52.203125 19.625 43.453125 9.28125 
Q 34.765625 -1.125 23.046875 -1.125 
Q 11.28125 -1.125 6.640625 9.28125 
Q 2 19.625 5.515625 37.84375 
Q 9.078125 56.109375 17.71875 66.40625 
Q 26.421875 76.765625 38.1875 76.765625 
z
" id="DejaVuSans-Oblique-952"/>
       <path d="M 31 75.875 
Q 24.46875 64.65625 21.28125 53.65625 
Q 18.109375 42.671875 18.109375 31.390625 
Q 18.109375 20.125 21.3125 9.0625 
Q 24.515625 -2 31 -13.1875 
L 23.1875 -13.1875 
Q 15.875 -1.703125 12.234375 9.375 
Q 8.59375 20.453125 8.59375 31.390625 
Q 8.59375 42.28125 12.203125 53.3125 
Q 15.828125 64.359375 23.1875 75.875 
z
" id="DejaVuSans-40"/>
       <path d="M 31.25 40.921875 
Q 27.34375 40.921875 24.65625 38.203125 
Q 21.96875 35.5 21.96875 31.59375 
Q 21.96875 27.734375 24.65625 25.078125 
Q 27.34375 22.421875 31.25 22.421875 
Q 35.15625 22.421875 37.84375 25.078125 
Q 40.53125 27.734375 40.53125 31.59375 
Q 40.53125 35.453125 37.8125 38.1875 
Q 35.109375 40.921875 31.25 40.921875 
z
M 31.25 47.21875 
Q 34.375 47.21875 37.25 46.015625 
Q 40.140625 44.828125 42.234375 42.578125 
Q 44.484375 40.390625 45.609375 37.59375 
Q 46.734375 34.8125 46.734375 31.59375 
Q 46.734375 25.15625 42.21875 20.6875 
Q 37.703125 16.21875 31.15625 16.21875 
Q 24.5625 16.21875 20.15625 20.609375 
Q 15.765625 25 15.765625 31.59375 
Q 15.765625 38.140625 20.25 42.671875 
Q 24.75 47.21875 31.25 47.21875 
z
" id="DejaVuSans-8728"/>
       <path d="M 8.015625 75.875 
L 15.828125 75.875 
Q 23.140625 64.359375 26.78125 53.3125 
Q 30.421875 42.28125 30.421875 31.390625 
Q 30.421875 20.453125 26.78125 9.375 
Q 23.140625 -1.703125 15.828125 -13.1875 
L 8.015625 -13.1875 
Q 14.5 -2 17.703125 9.0625 
Q 20.90625 20.125 20.90625 31.390625 
Q 20.90625 42.671875 17.703125 53.65625 
Q 14.5 64.65625 8.015625 75.875 
z
" id="DejaVuSans-41"/>
      </defs>
      <use transform="translate(0 0.234375)" xlink:href="#DejaVuSans-Oblique-952"/>
      <use transform="translate(61.181641 0.234375)" xlink:href="#DejaVuSans-40"/>
      <use transform="translate(101.152344 38.515625)scale(0.7)" xlink:href="#DejaVuSans-8728"/>
      <use transform="translate(147.705078 0.234375)" xlink:href="#DejaVuSans-41"/>
     </g>
    </g>
   </g>
   <g id="matplotlib.axis_2">
    <g id="ytick_1">
     <g id="line2d_15">
      <path clip-path="url(#p1f799252c6)" d="M 108 720.9 
L 698.4 720.9 
" style="fill:none;stroke:#e6e6e6;stroke-linecap:square;stroke-width:0.8;"/>
     </g>
     <g id="line2d_16">
      <defs>
       <path d="M 0 0 
L -3.5 0 
" id="m4058fd19c8" style="stroke:#000000;stroke-width:0.8;"/>
      </defs>
      <g>
       <use style="stroke:#000000;stroke-width:0.8;" x="108" xlink:href="#m4058fd19c8" y="720.9"/>
      </g>
     </g>
     <g id="text_9">
      <!-- −10 -->
      <g transform="translate(69.342969 726.598828)scale(0.15 -0.15)">
       <defs>
        <path d="M 10.59375 35.5 
L 73.1875 35.5 
L 73.1875 27.203125 
L 10.59375 27.203125 
z
" id="DejaVuSans-8722"/>
       </defs>
       <use xlink:href="#DejaVuSans-8722"/>
       <use x="83.789062" xlink:href="#DejaVuSans-49"/>
       <use x="147.412109" xlink:href="#DejaVuSans-48"/>
      </g>
     </g>
    </g>
    <g id="ytick_2">
     <g id="line2d_17">
      <path clip-path="url(#p1f799252c6)" d="M 108 588.06 
L 698.4 588.06 
" style="fill:none;stroke:#e6e6e6;stroke-linecap:square;stroke-width:0.8;"/>
     </g>
     <g id="line2d_18">
      <g>
       <use style="stroke:#000000;stroke-width:0.8;" x="108" xlink:href="#m4058fd19c8" y="588.06"/>
      </g>
     </g>
     <g id="text_10">
      <!-- −8 -->
      <g transform="translate(78.886719 593.758828)scale(0.15 -0.15)">
       <defs>
        <path d="M 31.78125 34.625 
Q 24.75 34.625 20.71875 30.859375 
Q 16.703125 27.09375 16.703125 20.515625 
Q 16.703125 13.921875 20.71875 10.15625 
Q 24.75 6.390625 31.78125 6.390625 
Q 38.8125 6.390625 42.859375 10.171875 
Q 46.921875 13.96875 46.921875 20.515625 
Q 46.921875 27.09375 42.890625 30.859375 
Q 38.875 34.625 31.78125 34.625 
z
M 21.921875 38.8125 
Q 15.578125 40.375 12.03125 44.71875 
Q 8.5 49.078125 8.5 55.328125 
Q 8.5 64.0625 14.71875 69.140625 
Q 20.953125 74.21875 31.78125 74.21875 
Q 42.671875 74.21875 48.875 69.140625 
Q 55.078125 64.0625 55.078125 55.328125 
Q 55.078125 49.078125 51.53125 44.71875 
Q 48 40.375 41.703125 38.8125 
Q 48.828125 37.15625 52.796875 32.3125 
Q 56.78125 27.484375 56.78125 20.515625 
Q 56.78125 9.90625 50.3125 4.234375 
Q 43.84375 -1.421875 31.78125 -1.421875 
Q 19.734375 -1.421875 13.25 4.234375 
Q 6.78125 9.90625 6.78125 20.515625 
Q 6.78125 27.484375 10.78125 32.3125 
Q 14.796875 37.15625 21.921875 38.8125 
z
M 18.3125 54.390625 
Q 18.3125 48.734375 21.84375 45.5625 
Q 25.390625 42.390625 31.78125 42.390625 
Q 38.140625 42.390625 41.71875 45.5625 
Q 45.3125 48.734375 45.3125 54.390625 
Q 45.3125 60.0625 41.71875 63.234375 
Q 38.140625 66.40625 31.78125 66.40625 
Q 25.390625 66.40625 21.84375 63.234375 
Q 18.3125 60.0625 18.3125 54.390625 
z
" id="DejaVuSans-56"/>
       </defs>
       <use xlink:href="#DejaVuSans-8722"/>
       <use x="83.789062" xlink:href="#DejaVuSans-56"/>
      </g>
     </g>
    </g>
    <g id="ytick_3">
     <g id="line2d_19">
      <path clip-path="url(#p1f799252c6)" d="M 108 455.22 
L 698.4 455.22 
" style="fill:none;stroke:#e6e6e6;stroke-linecap:square;stroke-width:0.8;"/>
     </g>
     <g id="line2d_20">
      <g>
       <use style="stroke:#000000;stroke-width:0.8;" x="108" xlink:href="#m4058fd19c8" y="455.22"/>
      </g>
     </g>
     <g id="text_11">
      <!-- −6 -->
      <g transform="translate(78.886719 460.918828)scale(0.15 -0.15)">
       <defs>
        <path d="M 33.015625 40.375 
Q 26.375 40.375 22.484375 35.828125 
Q 18.609375 31.296875 18.609375 23.390625 
Q 18.609375 15.53125 22.484375 10.953125 
Q 26.375 6.390625 33.015625 6.390625 
Q 39.65625 6.390625 43.53125 10.953125 
Q 47.40625 15.53125 47.40625 23.390625 
Q 47.40625 31.296875 43.53125 35.828125 
Q 39.65625 40.375 33.015625 40.375 
z
M 52.59375 71.296875 
L 52.59375 62.3125 
Q 48.875 64.0625 45.09375 64.984375 
Q 41.3125 65.921875 37.59375 65.921875 
Q 27.828125 65.921875 22.671875 59.328125 
Q 17.53125 52.734375 16.796875 39.40625 
Q 19.671875 43.65625 24.015625 45.921875 
Q 28.375 48.1875 33.59375 48.1875 
Q 44.578125 48.1875 50.953125 41.515625 
Q 57.328125 34.859375 57.328125 23.390625 
Q 57.328125 12.15625 50.6875 5.359375 
Q 44.046875 -1.421875 33.015625 -1.421875 
Q 20.359375 -1.421875 13.671875 8.265625 
Q 6.984375 17.96875 6.984375 36.375 
Q 6.984375 53.65625 15.1875 63.9375 
Q 23.390625 74.21875 37.203125 74.21875 
Q 40.921875 74.21875 44.703125 73.484375 
Q 48.484375 72.75 52.59375 71.296875 
z
" id="DejaVuSans-54"/>
       </defs>
       <use xlink:href="#DejaVuSans-8722"/>
       <use x="83.789062" xlink:href="#DejaVuSans-54"/>
      </g>
     </g>
    </g>
    <g id="ytick_4">
     <g id="line2d_21">
      <path clip-path="url(#p1f799252c6)" d="M 108 322.38 
L 698.4 322.38 
" style="fill:none;stroke:#e6e6e6;stroke-linecap:square;stroke-width:0.8;"/>
     </g>
     <g id="line2d_22">
      <g>
       <use style="stroke:#000000;stroke-width:0.8;" x="108" xlink:href="#m4058fd19c8" y="322.38"/>
      </g>
     </g>
     <g id="text_12">
      <!-- −4 -->
      <g transform="translate(78.886719 328.078828)scale(0.15 -0.15)">
       <defs>
        <path d="M 37.796875 64.3125 
L 12.890625 25.390625 
L 37.796875 25.390625 
z
M 35.203125 72.90625 
L 47.609375 72.90625 
L 47.609375 25.390625 
L 58.015625 25.390625 
L 58.015625 17.1875 
L 47.609375 17.1875 
L 47.609375 0 
L 37.796875 0 
L 37.796875 17.1875 
L 4.890625 17.1875 
L 4.890625 26.703125 
z
" id="DejaVuSans-52"/>
       </defs>
       <use xlink:href="#DejaVuSans-8722"/>
       <use x="83.789062" xlink:href="#DejaVuSans-52"/>
      </g>
     </g>
    </g>
    <g id="ytick_5">
     <g id="line2d_23">
      <path clip-path="url(#p1f799252c6)" d="M 108 189.54 
L 698.4 189.54 
" style="fill:none;stroke:#e6e6e6;stroke-linecap:square;stroke-width:0.8;"/>
     </g>
     <g id="line2d_24">
      <g>
       <use style="stroke:#000000;stroke-width:0.8;" x="108" xlink:href="#m4058fd19c8" y="189.54"/>
      </g>
     </g>
     <g id="text_13">
      <!-- −2 -->
      <g transform="translate(78.886719 195.238828)scale(0.15 -0.15)">
       <use xlink:href="#DejaVuSans-8722"/>
       <use x="83.789062" xlink:href="#DejaVuSans-50"/>
      </g>
     </g>
    </g>
    <g id="ytick_6">
     <g id="line2d_25">
      <path clip-path="url(#p1f799252c6)" d="M 108 56.7 
L 698.4 56.7 
" style="fill:none;stroke:#e6e6e6;stroke-linecap:square;stroke-width:0.8;"/>
     </g>
     <g id="line2d_26">
      <g>
       <use style="stroke:#000000;stroke-width:0.8;" x="108" xlink:href="#m4058fd19c8" y="56.7"/>
      </g>
     </g>
     <g id="text_14">
      <!-- 0 -->
      <g transform="translate(91.45625 62.398828)scale(0.15 -0.15)">
       <use xlink:href="#DejaVuSans-48"/>
      </g>
     </g>
    </g>
    <g id="text_15">
     <!-- $f(\theta)$ -->
     <g transform="translate(60.14375 410.675)rotate(-90)scale(0.25 -0.25)">
      <defs>
       <path d="M 47.796875 75.984375 
L 46.390625 68.5 
L 37.796875 68.5 
Q 32.90625 68.5 30.6875 66.578125 
Q 28.46875 64.65625 27.390625 59.515625 
L 26.421875 54.6875 
L 41.21875 54.6875 
L 39.890625 47.703125 
L 25.09375 47.703125 
L 15.828125 0 
L 6.78125 0 
L 16.109375 47.703125 
L 7.515625 47.703125 
L 8.796875 54.6875 
L 17.390625 54.6875 
L 18.109375 58.5 
Q 19.96875 68.171875 24.625 72.078125 
Q 29.296875 75.984375 39.3125 75.984375 
z
" id="DejaVuSans-Oblique-102"/>
      </defs>
      <use transform="translate(0 0.234375)" xlink:href="#DejaVuSans-Oblique-102"/>
      <use transform="translate(35.205078 0.234375)" xlink:href="#DejaVuSans-40"/>
      <use transform="translate(74.21875 0.234375)" xlink:href="#DejaVuSans-Oblique-952"/>
      <use transform="translate(135.400391 0.234375)" xlink:href="#DejaVuSans-41"/>
     </g>
    </g>
   </g>
   <g id="line2d_27">
    <path clip-path="url(#p1f799252c6)" d="M 159.233058 557.801516 
L 176.319287 557.690278 
L 191.696893 557.374853 
L 204.877698 556.891462 
L 216.349881 556.254609 
L 226.11344 555.497498 
L 234.412466 554.636167 
L 241.002868 553.741407 
L 246.372826 552.79349 
L 250.522339 551.835006 
L 253.695496 550.871595 
L 256.136386 549.895979 
L 258.089097 548.867417 
L 259.553631 547.861001 
L 260.774076 546.781678 
L 261.994521 545.364028 
L 262.970877 543.855435 
L 263.947233 541.826037 
L 264.6795 539.784248 
L 265.411767 537.067406 
L 266.144034 533.339274 
L 266.876301 528.082388 
L 267.608568 520.624214 
L 269.073102 502.930347 
L 269.317191 502.653662 
L 269.56128 504.166507 
L 270.049458 511.535393 
L 271.025814 529.496737 
L 271.758081 538.563679 
L 272.246259 542.509215 
L 272.734437 545.260728 
L 273.222615 547.168914 
L 273.954882 548.98974 
L 274.687149 550.032924 
L 275.419415 550.615508 
L 276.151682 550.917706 
L 277.128038 551.058931 
L 278.348483 550.995785 
L 280.301195 550.622237 
L 283.230263 549.798735 
L 287.623865 548.320272 
L 292.017467 546.615935 
L 295.434712 545.072023 
L 298.36378 543.507968 
L 300.560581 542.108636 
L 302.513293 540.614783 
L 304.221916 539.014751 
L 305.68645 537.311415 
L 306.906895 535.53731 
L 307.883251 533.77391 
L 308.859607 531.559771 
L 309.835963 528.669245 
L 310.56823 525.831626 
L 311.300497 522.125012 
L 312.032763 517.105902 
L 312.76503 510.061675 
L 313.497297 500.030765 
L 314.473653 483.94001 
L 314.717742 482.216582 
L 314.961831 483.231234 
L 315.20592 487.281082 
L 315.938187 508.808401 
L 316.670454 527.64352 
L 317.158632 535.802035 
L 317.64681 541.058272 
L 318.134988 544.250607 
L 318.623166 546.079149 
L 319.111344 547.040176 
L 319.599522 547.458721 
L 320.0877 547.540003 
L 320.575878 547.41189 
L 321.308145 546.992691 
L 322.772679 545.79914 
L 333.756683 535.882289 
L 336.197573 533.342707 
L 338.150285 530.999131 
L 339.858908 528.578872 
L 341.323442 526.075464 
L 342.543887 523.525077 
L 343.520243 521.030309 
L 344.496599 517.934889 
L 345.472955 513.927461 
L 346.205222 510.00493 
L 346.937489 504.86881 
L 347.669756 497.856788 
L 348.402022 487.905678 
L 349.134289 474.075093 
L 349.622467 464.965304 
L 349.866556 463.080319 
L 350.110645 464.92072 
L 350.354734 470.815161 
L 352.063357 528.517276 
L 352.551535 536.448849 
L 353.039713 540.928901 
L 353.527891 543.068954 
L 353.77198 543.556015 
L 354.016069 543.773797 
L 354.260158 543.789307 
L 354.748336 543.409416 
L 355.480603 542.277944 
L 357.433315 538.448797 
L 359.630116 534.366454 
L 362.315095 529.873888 
L 367.196874 521.813149 
L 369.149586 518.122962 
L 370.61412 514.937818 
L 371.834565 511.847755 
L 373.05501 508.151198 
L 374.031366 504.534862 
L 375.007722 500.018681 
L 375.739989 495.743561 
L 376.472256 490.31602 
L 377.204523 483.138354 
L 377.93679 473.237571 
L 378.669057 459.471796 
L 379.401324 445.50482 
L 379.645413 444.82219 
L 379.889502 448.384727 
L 380.37768 465.736285 
L 381.354036 504.662355 
L 381.842214 518.199953 
L 382.330392 527.121891 
L 382.81857 532.100952 
L 383.306748 534.233674 
L 383.550837 534.574456 
L 383.794926 534.581159 
L 384.039015 534.340422 
L 384.527193 533.371801 
L 385.503548 530.542185 
L 388.432616 521.645636 
L 390.873506 515.163842 
L 395.511197 503.090404 
L 397.21982 497.947149 
L 398.684354 492.787119 
L 399.904799 487.603048 
L 400.881155 482.537943 
L 401.857511 476.195782 
L 402.589778 470.164609 
L 403.322044 462.483702 
L 404.054311 452.40485 
L 405.030667 434.602845 
L 405.518845 426.805011 
L 405.762934 425.513729 
L 406.007023 427.194268 
L 406.251112 431.966563 
L 406.983379 455.931687 
L 407.715646 478.975076 
L 408.447913 494.970346 
L 408.936091 501.596089 
L 409.424269 505.523529 
L 409.912447 507.407316 
L 410.156536 507.783741 
L 410.400625 507.875737 
L 410.644714 507.740715 
L 411.132892 506.972134 
L 411.865159 505.051383 
L 413.085604 500.969721 
L 416.746939 487.558745 
L 419.187829 477.985863 
L 420.896452 470.420432 
L 422.360985 462.887283 
L 423.58143 455.440302 
L 424.801875 446.395939 
L 425.778231 437.554748 
L 426.998676 424.041688 
L 428.46321 406.849334 
L 428.951388 403.341201 
L 429.195477 402.525161 
L 429.439566 402.419306 
L 429.683655 403.008039 
L 430.171833 405.90342 
L 432.368634 423.749936 
L 432.856812 425.835886 
L 433.34499 427.042783 
L 433.589079 427.335624 
L 433.833168 427.433213 
L 434.077257 427.344321 
L 434.321346 427.077135 
L 434.809524 426.035931 
L 435.297702 424.353338 
L 436.029969 420.662927 
L 436.762236 415.502392 
L 437.494503 408.572666 
L 438.22677 399.128224 
L 438.714948 390.616031 
L 439.203126 379.113457 
L 439.691304 365.983074 
L 439.935392 375.66916 
L 440.179481 330.844363 
L 440.667659 362.623685 
L 441.155837 378.866265 
L 441.644015 388.980952 
L 442.376282 399.051912 
L 443.108549 405.938882 
L 443.840816 411.001972 
L 444.817172 415.981551 
L 445.793528 419.662758 
L 447.013973 423.292084 
L 447.990329 426.344176 
L 448.478507 428.533417 
L 448.966685 432.036456 
L 449.210774 434.816701 
L 449.454863 438.953485 
L 449.698952 445.715297 
L 449.943041 458.88766 
L 450.18713 508.447624 
L 450.675308 429.903697 
L 451.163486 396.421155 
L 451.651664 376.488187 
L 451.895753 372.485619 
L 452.139842 372.706439 
L 452.383931 376.088594 
L 453.360287 399.037864 
L 454.580732 424.848688 
L 457.5098 481.740778 
L 457.997978 496.410125 
L 458.486155 519.761437 
L 458.730244 542.898744 
L 458.974333 599.344771 
L 459.218422 537.52553 
L 459.7066 509.93753 
L 460.194778 497.327181 
L 460.682956 489.303502 
L 461.415223 481.081365 
L 462.14749 475.165462 
L 463.123846 469.072445 
L 464.58838 461.672908 
L 467.273359 448.605155 
L 468.249715 442.754887 
L 469.226071 435.354232 
L 469.958338 427.937608 
L 470.690605 417.376349 
L 471.178783 406.848386 
L 471.666961 391.689579 
L 471.91105 444.348211 
L 472.155139 346.555709 
L 472.643317 392.362338 
L 473.131495 411.738401 
L 473.863762 429.266915 
L 474.840118 445.251227 
L 476.304651 464.097475 
L 478.013274 486.211391 
L 478.745541 498.292734 
L 479.233719 508.764839 
L 479.721897 523.611857 
L 479.965986 534.696465 
L 480.210075 552.179408 
L 480.454164 600.289766 
L 480.942342 542.841194 
L 481.43052 521.414656 
L 481.918698 509.416829 
L 482.650965 497.508148 
L 483.627321 486.390373 
L 484.847766 475.600571 
L 487.776834 451.362974 
L 488.75319 440.668696 
L 489.485457 429.762344 
L 489.973635 419.557279 
L 490.461813 403.908207 
L 490.705902 391.243905 
L 491.19408 345.819886 
L 491.438169 388.127092 
L 491.926347 410.818754 
L 492.414525 424.528874 
L 493.146792 438.216936 
L 494.123148 451.170369 
L 495.343592 464.008227 
L 497.784482 488.87097 
L 498.516749 498.543995 
L 499.249016 511.649536 
L 499.737194 524.807054 
L 499.981283 534.464345 
L 500.225372 548.988253 
L 500.469461 579.573673 
L 500.71355 582.865908 
L 500.957639 549.908431 
L 501.445817 524.820666 
L 501.933995 511.213011 
L 502.666262 497.5583 
L 503.642618 484.327402 
L 505.59533 462.562995 
L 506.815775 447.550892 
L 507.548042 435.901207 
L 508.03622 425.589214 
L 508.524398 410.823823 
L 508.768487 399.942391 
L 509.256665 361.893098 
L 509.500754 432.84641 
L 509.744843 404.952476 
L 510.47711 424.779009 
L 511.209377 437.701292 
L 511.941644 446.972465 
L 512.917999 456.668617 
L 514.626622 470.840706 
L 516.091156 483.278578 
L 517.067512 493.564906 
L 517.799779 504.008458 
L 518.287957 513.828558 
L 518.776135 529.098957 
L 519.020224 541.803014 
L 519.508402 598.06438 
L 519.752491 550.613173 
L 520.240669 521.961151 
L 520.728847 506.900278 
L 521.461114 491.596068 
L 522.43747 476.137587 
L 524.634271 442.926525 
L 525.366538 427.151512 
L 525.854716 411.694018 
L 526.342894 385.217149 
L 526.586983 369.674663 
L 526.831072 437.497356 
L 527.075161 407.774419 
L 528.051517 429.062571 
L 528.783784 439.4451 
L 529.76014 449.337645 
L 530.980585 458.865276 
L 534.153741 481.772861 
L 534.886008 488.913203 
L 535.618275 498.496569 
L 536.106453 507.671149 
L 536.594631 522.125331 
L 536.83872 534.202277 
L 537.082809 556.689235 
L 537.326898 598.384309 
L 537.570987 544.309056 
L 538.059165 514.100792 
L 538.547343 498.039575 
L 539.27961 481.182953 
L 541.964589 427.483035 
L 542.452767 411.201177 
L 543.185034 374.836676 
L 543.429123 424.699236 
L 543.673212 407.040559 
L 544.649568 426.738881 
L 545.381835 436.266289 
L 546.114102 443.205358 
L 547.090458 450.417289 
L 548.554992 459.305657 
L 550.507703 471.020966 
L 551.484059 478.385604 
L 552.216326 485.734773 
L 552.704504 492.369264 
L 553.192682 501.772781 
L 553.68086 517.682817 
L 553.924949 532.461687 
L 554.169038 568.634597 
L 554.413127 553.459624 
L 554.657216 524.570361 
L 555.145394 498.733453 
L 555.877661 476.454265 
L 558.074462 422.145234 
L 558.56264 402.560623 
L 559.050818 375.500509 
L 559.294907 554.363188 
L 559.538996 403.731149 
L 560.027174 412.952965 
L 560.759441 425.282805 
L 561.491708 433.312545 
L 562.223975 439.178352 
L 563.200331 445.258729 
L 564.664865 452.706917 
L 566.617577 462.49806 
L 567.593933 468.681964 
L 568.326199 474.867442 
L 568.814377 480.431504 
L 569.302555 488.207369 
L 569.790733 500.753742 
L 570.034822 511.275375 
L 570.278911 530.154343 
L 570.523 648.05249 
L 570.767089 526.233422 
L 571.255267 491.302191 
L 571.987534 464.713617 
L 573.696157 411.635351 
L 574.428424 376.109333 
L 574.672513 431.715892 
L 574.916602 399.455152 
L 576.381136 422.93633 
L 577.113403 429.319774 
L 577.84567 434.02497 
L 578.822026 438.916662 
L 580.28656 444.922407 
L 581.995183 451.832794 
L 582.971539 456.71679 
L 583.703806 461.549502 
L 584.191984 465.830797 
L 584.680162 471.655241 
L 585.16834 480.476666 
L 585.412429 487.135191 
L 585.656518 496.976935 
L 585.900607 514.606044 
L 586.144695 606.114285 
L 586.388784 512.893683 
L 586.876962 475.516173 
L 587.609229 445.662095 
L 588.585585 408.475455 
L 589.073763 381.975656 
L 589.317852 379.289974 
L 589.561941 404.719486 
L 589.80603 394.425527 
L 590.782386 411.154585 
L 591.514653 418.419506 
L 592.24692 423.273285 
L 592.979187 426.859638 
L 593.955543 430.575621 
L 595.420077 435.124575 
L 597.1287 440.460271 
L 598.105056 444.399537 
L 598.837323 448.466004 
L 599.325501 452.202596 
L 599.813679 457.467552 
L 600.301857 465.790996 
L 600.545946 472.325854 
L 600.790035 482.372616 
L 601.034124 501.724011 
L 601.278213 558.560713 
L 601.522302 489.58578 
L 602.01048 452.897708 
L 603.475014 379.066403 
L 603.719103 382.426115 
L 603.963192 394.228534 
L 604.20728 387.883556 
L 604.939547 400.073477 
L 605.427725 405.426618 
L 606.159992 410.682062 
L 606.892259 414.156092 
L 607.624526 416.667898 
L 608.600882 419.191123 
L 610.065416 422.169812 
L 611.52995 425.123883 
L 612.262217 426.957254 
L 612.994484 429.370193 
L 613.482662 431.55391 
L 613.97084 434.543315 
L 614.459018 438.968438 
L 614.947196 446.360061 
L 615.191285 452.432622 
L 615.435374 462.15071 
L 615.679463 482.089666 
L 615.923552 519.663644 
L 616.167641 462.889909 
L 616.655819 423.878808 
L 617.388086 379.766535 
L 617.632175 376.468055 
L 617.876264 395.771412 
L 618.120353 378.751463 
L 619.584887 394.545943 
L 620.073065 397.034876 
L 620.805332 399.484362 
L 621.537599 401.030482 
L 622.269866 402.04545 
L 623.002132 402.733532 
L 623.978488 403.360653 
L 625.9312 404.461531 
L 626.663467 405.177099 
L 627.151645 405.915103 
L 627.639823 407.017663 
L 628.128001 408.737723 
L 628.616179 411.588585 
L 629.104357 416.82158 
L 629.348446 421.349631 
L 629.592535 428.735422 
L 629.836624 443.391124 
L 630.080713 522.216934 
L 630.324802 435.557543 
L 630.81298 388.188974 
L 631.057069 374.935761 
L 631.301158 399.043203 
L 631.545247 373.82098 
L 631.789336 365.718846 
L 632.033425 366.70405 
L 632.765692 371.472214 
L 633.25387 373.116623 
L 633.742048 373.912219 
L 634.230226 374.143958 
L 634.718404 373.977918 
L 635.206582 373.512226 
L 635.938849 372.375491 
L 636.671116 370.805892 
L 637.647472 368.120651 
L 638.623828 364.773563 
L 639.600184 360.717726 
L 640.820628 354.555628 
L 642.285162 346.879026 
L 642.529251 346.451337 
L 642.77334 347.027942 
L 643.017429 349.462964 
L 643.261518 355.199421 
L 643.505607 366.362832 
L 644.481963 433.972129 
L 644.726052 476.989727 
L 644.970141 387.207852 
L 645.458319 335.631778 
L 645.702408 325.742272 
L 645.946497 322.399933 
L 646.190586 322.797623 
L 646.678764 327.733971 
L 647.166942 333.584688 
L 647.166942 333.584688 
" style="fill:none;stroke:#008000;stroke-dasharray:7.4,3.2;stroke-dashoffset:0;stroke-width:2;"/>
   </g>
   <g id="line2d_28">
    <path clip-path="url(#p1f799252c6)" d="M 159.233058 248.85429 
L 162.162126 248.962389 
L 165.091194 249.289262 
L 168.020261 249.842868 
L 170.949329 250.637226 
L 173.634308 251.594977 
L 176.319287 252.796253 
L 178.760177 254.126542 
L 181.201067 255.717417 
L 183.397868 257.408451 
L 185.594668 259.390236 
L 187.54738 261.443795 
L 189.500092 263.831632 
L 191.208715 266.257389 
L 192.917338 269.075018 
L 194.381872 271.882077 
L 195.846406 275.152184 
L 197.31094 279.028393 
L 198.531385 282.878672 
L 199.75183 287.506496 
L 200.728186 291.988573 
L 201.704542 297.47093 
L 202.680897 304.471401 
L 203.413164 311.317276 
L 204.145431 320.541627 
L 204.633609 329.062327 
L 205.121787 341.426545 
L 205.365876 350.522807 
L 205.609965 364.005948 
L 206.098143 409.777908 
L 206.342232 369.965188 
L 206.83041 343.383779 
L 207.318588 329.63332 
L 208.050855 316.456957 
L 208.783122 307.278733 
L 209.759478 298.143174 
L 210.735834 291.036724 
L 211.956279 283.871726 
L 213.176724 277.945363 
L 214.641258 271.926051 
L 216.349881 265.940228 
L 218.058504 260.73903 
L 220.011216 255.483589 
L 222.208016 250.211569 
L 224.648906 244.932775 
L 227.333885 239.635677 
L 230.507042 233.860803 
L 234.412466 227.225469 
L 240.758779 216.963498 
L 246.861004 206.975381 
L 250.27825 200.98549 
L 253.207318 195.402453 
L 255.648208 190.26135 
L 257.845008 185.07907 
L 259.79772 179.844783 
L 261.506343 174.587302 
L 262.970877 169.397766 
L 264.435411 163.396527 
L 267.12039 151.520558 
L 267.364479 151.087424 
L 267.608568 151.201041 
L 267.852657 152.258051 
L 268.096746 155.029024 
L 268.340835 161.253302 
L 268.584924 176.417113 
L 268.829013 260.629251 
L 269.073102 165.370576 
L 269.317191 144.116193 
L 269.56128 132.941761 
L 269.805369 127.188389 
L 270.049458 124.912869 
L 270.293547 124.82932 
L 270.537636 126.039949 
L 271.269903 132.630432 
L 272.734437 146.109026 
L 273.954882 154.936436 
L 275.175327 162.097285 
L 276.63986 169.223039 
L 278.104394 175.288095 
L 279.813017 181.496652 
L 282.009818 188.653087 
L 289.332488 211.748411 
L 290.797022 217.38145 
L 292.017467 222.814163 
L 293.237912 229.324733 
L 294.214267 235.781019 
L 294.946534 241.79877 
L 295.678801 249.473357 
L 296.411068 260.12347 
L 296.899246 270.503359 
L 297.387424 287.212047 
L 297.631513 301.82578 
L 297.875602 333.459433 
L 298.119691 333.038759 
L 298.36378 301.277017 
L 298.851958 276.51923 
L 299.340136 263.116214 
L 300.072403 249.946717 
L 300.80467 240.538138 
L 301.781026 230.882578 
L 303.001471 221.285859 
L 304.466005 211.657402 
L 306.662806 198.881535 
L 309.591874 181.846838 
L 311.300497 170.421914 
L 313.253208 156.387764 
L 313.497297 155.526336 
L 313.741386 155.72055 
L 313.985475 158.079158 
L 314.229564 165.416049 
L 314.473653 189.482617 
L 314.717742 188.737453 
L 314.961831 153.981571 
L 315.20592 140.631496 
L 315.450009 135.273651 
L 315.694098 134.109723 
L 315.938187 135.108759 
L 316.426365 139.602999 
L 317.890899 153.991709 
L 318.867255 161.375815 
L 320.0877 168.74654 
L 321.308145 174.766528 
L 322.772679 180.870666 
L 324.481302 187.059807 
L 327.166281 195.840776 
L 330.339437 206.34388 
L 332.04806 212.875941 
L 333.268505 218.393694 
L 334.244861 223.67558 
L 335.221217 230.220169 
L 335.953484 236.485099 
L 336.685751 244.773589 
L 337.173929 252.275311 
L 337.662107 262.819035 
L 338.150285 280.431869 
L 338.394374 296.809035 
L 338.638463 340.561682 
L 339.126641 287.183501 
L 339.614819 264.225865 
L 340.102997 251.03043 
L 340.835264 237.559762 
L 341.81162 224.659931 
L 343.032065 212.080907 
L 344.984777 194.942481 
L 347.425667 173.405251 
L 348.402022 165.022083 
L 348.646111 163.718142 
L 348.8902 163.516073 
L 349.134289 165.729804 
L 349.378378 174.099828 
L 349.622467 211.099532 
L 350.110645 150.37761 
L 350.354734 139.778154 
L 350.598823 136.539251 
L 350.842912 137.012611 
L 351.33109 141.970233 
L 352.551535 155.629371 
L 353.527891 163.823148 
L 354.504247 170.235791 
L 355.724692 176.675482 
L 357.189226 183.002955 
L 358.897849 189.309529 
L 364.755985 209.85109 
L 365.97643 215.383246 
L 366.952785 220.761245 
L 367.929141 227.596023 
L 368.661408 234.374777 
L 369.393675 243.812889 
L 369.881853 252.979351 
L 370.370031 267.399162 
L 370.61412 279.30405 
L 370.858209 300.876527 
L 371.102298 355.845606 
L 371.346387 292.497004 
L 371.834565 262.007066 
L 372.322743 246.590867 
L 373.05501 231.375907 
L 374.031366 216.841406 
L 375.251811 202.321249 
L 377.448612 179.391596 
L 377.93679 175.217276 
L 378.180879 173.790676 
L 378.424968 173.387137 
L 378.669057 175.145727 
L 378.913146 182.264312 
L 379.157235 211.867119 
L 379.889502 142.542434 
L 380.133591 137.201933 
L 380.37768 136.726833 
L 380.621769 138.629558 
L 382.574481 160.444686 
L 383.550837 167.725919 
L 384.527193 173.417899 
L 385.747637 179.157283 
L 387.212171 184.846175 
L 389.164883 191.399066 
L 392.826218 203.456005 
L 394.046663 208.2715 
L 395.023019 212.863512 
L 395.999375 218.585776 
L 396.731642 224.124301 
L 397.463909 231.551054 
L 397.952087 238.354804 
L 398.440265 247.995669 
L 398.928443 264.071405 
L 399.172532 278.619917 
L 399.416621 311.913682 
L 399.66071 304.989518 
L 399.904799 274.552374 
L 400.392977 249.242477 
L 400.881155 234.817866 
L 401.613422 219.873005 
L 402.589778 205.36984 
L 403.322044 197.116661 
L 403.810222 193.41076 
L 404.054311 192.636554 
L 404.2984 193.269594 
L 404.542489 196.659682 
L 404.786578 206.902689 
L 405.030667 260.00505 
L 405.274756 198.95328 
L 405.762934 152.915386 
L 406.007023 142.618001 
L 406.251112 137.578233 
L 406.495201 136.32019 
L 406.73929 137.349744 
L 407.227468 142.193967 
L 408.447913 154.776477 
L 409.424269 162.051023 
L 410.400625 167.50514 
L 411.376981 171.77431 
L 412.597426 176.031925 
L 413.817871 179.511401 
L 415.282405 183.047655 
L 417.479206 187.665617 
L 420.896452 194.743196 
L 422.849163 199.432561 
L 424.069608 202.310815 
L 424.557786 203.111815 
L 424.801875 203.331403 
L 425.045964 203.37068 
L 425.290053 203.171597 
L 425.534142 202.665402 
L 425.778231 201.774607 
L 426.266409 198.516517 
L 426.754587 192.852658 
L 427.242765 184.63885 
L 428.219121 163.127322 
L 428.951388 147.827487 
L 429.439566 140.803317 
L 429.927744 137.032265 
L 430.171833 136.213176 
L 430.415922 135.934573 
L 430.660011 136.058209 
L 431.148189 137.037005 
L 432.856812 141.466614 
L 433.34499 142.192147 
L 433.833168 142.581157 
L 434.321346 142.62338 
L 434.809524 142.308643 
L 435.297702 141.619871 
L 435.78588 140.527751 
L 436.274058 138.984921 
L 437.006325 135.654161 
L 437.738592 130.694362 
L 438.22677 126.085181 
L 438.714948 119.965037 
L 439.447215 108.925135 
L 439.691304 120.180439 
L 439.935392 74.232608 
L 440.179481 64.02733 
L 440.667659 97.649892 
L 441.155837 116.021315 
L 441.888104 133.433289 
L 442.620371 145.839862 
L 443.596727 158.983739 
L 446.281706 192.381245 
L 446.769884 201.121342 
L 447.258062 213.598764 
L 447.502151 223.01117 
L 447.74624 237.804551 
L 447.990329 273.322948 
L 448.234418 259.630579 
L 448.478507 230.190014 
L 448.966685 203.494493 
L 449.698952 178.938909 
L 451.163486 137.956038 
L 451.407575 133.107639 
L 451.651664 130.99273 
L 451.895753 132.90624 
L 452.139842 139.160655 
L 452.62802 161.082661 
L 453.116198 191.779034 
L 453.360287 213.511764 
L 453.604376 255.467501 
L 453.848465 248.860353 
L 454.092554 225.498404 
L 454.580732 210.803679 
L 455.06891 205.549254 
L 455.557088 203.277071 
L 456.045266 202.306853 
L 456.533444 201.986254 
L 457.021622 202.009213 
L 457.753889 202.355198 
L 460.438867 203.946764 
L 461.415223 204.168959 
L 462.14749 204.135182 
L 462.879757 203.905278 
L 463.612024 203.456306 
L 464.344291 202.761234 
L 465.076558 201.785608 
L 465.808825 200.483003 
L 466.541092 198.788027 
L 467.273359 196.604552 
L 468.005626 193.784277 
L 468.737893 190.083994 
L 469.47016 185.069829 
L 470.202427 177.864476 
L 470.690605 170.890034 
L 471.178783 160.509033 
L 471.666961 142.788747 
L 471.91105 144.775413 
L 472.155139 107.690419 
L 472.643317 151.81928 
L 473.131495 171.587733 
L 473.863762 190.447696 
L 474.840118 209.101296 
L 476.54874 240.231971 
L 477.281007 258.821042 
L 477.769185 278.725078 
L 478.013274 296.044266 
L 478.257363 339.440506 
L 478.745541 290.239286 
L 479.233719 269.002547 
L 479.721897 257.524484 
L 480.454164 246.487932 
L 481.186431 238.755845 
L 482.162787 230.852411 
L 483.383232 222.797612 
L 487.044567 200.010422 
L 488.020923 192.09234 
L 488.75319 184.5962 
L 489.485457 174.53248 
L 489.973635 165.03795 
L 490.461813 150.527227 
L 490.705902 138.976615 
L 490.949991 119.834337 
L 491.19408 119.914678 
L 491.438169 126.492444 
L 491.926347 154.398666 
L 492.414525 169.381819 
L 493.146792 184.196367 
L 494.123148 198.429647 
L 496.075859 221.782683 
L 497.052215 234.564009 
L 497.784482 246.693817 
L 498.27266 257.579856 
L 498.760838 273.85381 
L 499.004927 286.986692 
L 499.249016 311.074647 
L 499.493105 347.148723 
L 499.737194 298.260842 
L 500.225372 270.481409 
L 500.71355 256.57565 
L 501.445817 243.236871 
L 502.422173 230.934315 
L 503.642618 218.962525 
L 506.327597 193.895891 
L 507.059864 185.091303 
L 507.792131 173.572612 
L 508.280309 162.804205 
L 508.768487 146.318796 
L 509.256665 122.34036 
L 509.500754 127.576157 
L 510.47711 164.855886 
L 511.209377 179.808531 
L 512.185733 193.525515 
L 513.406177 207.018085 
L 515.358889 228.065104 
L 516.091156 237.964033 
L 516.823423 251.314501 
L 517.311601 264.728042 
L 517.55569 274.620091 
L 517.799779 289.646417 
L 518.043868 322.627732 
L 518.287957 318.880878 
L 518.532046 288.297592 
L 519.020224 263.931599 
L 519.508402 250.554199 
L 520.240669 237.078074 
L 521.217025 223.990638 
L 524.634271 183.543883 
L 525.366538 170.066964 
L 525.854716 157.016505 
L 526.342894 136.826973 
L 526.586983 137.553222 
L 526.831072 130.465772 
L 528.051517 170.223124 
L 528.783784 182.872504 
L 529.76014 195.117993 
L 531.224673 209.986929 
L 532.689207 225.030158 
L 533.421474 234.200686 
L 534.153741 246.316189 
L 534.641919 258.029383 
L 535.130097 277.714984 
L 535.374186 297.14292 
L 535.618275 396.155875 
L 535.862364 298.734575 
L 536.350542 265.890874 
L 536.83872 250.342219 
L 537.570987 235.304856 
L 538.547343 220.84632 
L 541.232322 185.288673 
L 541.964589 171.364996 
L 542.452767 158.198845 
L 542.940945 139.529471 
L 543.185034 155.608493 
L 543.429123 131.375878 
L 544.405479 165.106418 
L 545.137746 179.180227 
L 545.870013 189.16201 
L 547.090458 202.144854 
L 549.531347 226.538747 
L 550.263614 236.246156 
L 550.751792 244.654226 
L 551.23997 256.279492 
L 551.728148 276.030996 
L 551.972237 295.854243 
L 552.216326 479.212238 
L 552.460415 295.222651 
L 552.948593 262.83648 
L 553.436771 247.166908 
L 554.169038 231.750551 
L 555.145394 216.52575 
L 557.342195 184.202991 
L 558.074462 168.740819 
L 558.56264 153.876773 
L 558.806729 144.751772 
L 559.050818 147.467314 
L 559.294907 134.597465 
L 559.538996 137.51783 
L 560.027174 156.810136 
L 560.515352 169.221459 
L 561.247619 181.776685 
L 562.223975 193.673972 
L 563.688509 207.868502 
L 565.153043 222.119228 
L 565.88531 230.819507 
L 566.617577 242.353002 
L 567.105755 253.524987 
L 567.593933 272.195532 
L 567.838021 290.159047 
L 568.08211 351.47947 
L 568.326199 297.21455 
L 568.814377 261.769635 
L 569.302555 245.331578 
L 570.034822 229.198372 
L 571.011178 213.031395 
L 572.719801 185.769678 
L 573.452068 169.902116 
L 574.184335 146.779144 
L 574.428424 159.706536 
L 574.672513 133.018716 
L 574.916602 138.685273 
L 575.40478 157.575823 
L 575.892958 169.6949 
L 576.625225 181.958742 
L 577.601581 193.565782 
L 579.066115 207.412595 
L 580.530649 221.392285 
L 581.262916 230.013168 
L 581.995183 241.588086 
L 582.483361 253.003797 
L 582.971539 272.720344 
L 583.215628 292.981019 
L 583.459717 381.829296 
L 583.703806 289.549618 
L 584.191984 257.487831 
L 584.680162 241.455605 
L 585.412429 225.168414 
L 586.876962 200.067437 
L 587.853318 182.035602 
L 588.585585 163.549507 
L 589.073763 149.095225 
L 589.317852 228.400379 
L 589.561941 131.937589 
L 590.538297 165.216802 
L 591.270564 178.805846 
L 592.002831 188.263871 
L 592.979187 198.137944 
L 595.908255 225.724106 
L 596.640522 235.82182 
L 597.1287 245.200743 
L 597.616878 259.58669 
L 597.860967 271.289834 
L 598.105056 292.162407 
L 598.349145 358.668442 
L 598.593234 285.817816 
L 599.081412 254.265587 
L 599.56959 238.055384 
L 600.301857 221.208054 
L 602.742747 172.161568 
L 603.475014 153.700455 
L 603.719103 180.273927 
L 603.963192 131.72768 
L 604.695458 158.926087 
L 605.183636 170.249541 
L 605.915903 181.691546 
L 606.892259 192.423424 
L 608.356793 205.034589 
L 609.821327 217.562949 
L 610.553594 225.199658 
L 611.285861 235.312028 
L 611.774039 245.02472 
L 612.262217 260.707526 
L 612.506306 274.502099 
L 612.750395 303.998666 
L 612.994484 307.935394 
L 613.238573 273.721848 
L 613.726751 246.824897 
L 614.459018 224.990248 
L 615.679463 198.757708 
L 616.655819 176.631038 
L 617.143997 163.556266 
L 617.388086 160.635879 
L 617.632175 205.240963 
L 617.876264 130.996464 
L 618.120353 137.672886 
L 618.608531 156.024133 
L 619.096709 167.636071 
L 619.828976 178.974111 
L 620.561243 186.918211 
L 621.537599 195.103144 
L 624.954844 220.932608 
L 625.687111 229.541416 
L 626.175289 237.712485 
L 626.663467 250.411962 
L 626.907556 260.705642 
L 627.151645 278.367082 
L 627.395734 347.69465 
L 627.639823 281.471261 
L 628.128001 244.963388 
L 628.616179 226.425532 
L 629.592535 200.066586 
L 630.568891 177.633991 
L 630.81298 177.030225 
L 631.057069 231.906366 
L 631.301158 140.769075 
L 631.545247 129.112517 
L 632.521603 158.977761 
L 633.009781 167.212851 
L 633.742048 175.319338 
L 634.474315 180.722851 
L 635.206582 184.592672 
L 635.938849 187.467408 
L 636.671116 189.622081 
L 637.403383 191.198837 
L 638.13565 192.25653 
L 638.623828 192.669725 
L 639.112006 192.821438 
L 639.600184 192.656853 
L 640.088362 192.072383 
L 640.57654 190.874313 
L 641.064717 188.696223 
L 641.552895 184.846879 
L 642.041073 178.105056 
L 642.529251 166.780608 
L 643.993785 122.721266 
L 644.237874 120.982733 
L 644.481963 120.343438 
L 644.726052 120.446707 
L 644.970141 121.858619 
L 645.21423 126.338609 
L 645.458319 136.719235 
L 645.702408 156.415116 
L 645.946497 195.374329 
L 646.190586 210.10029 
L 646.434675 187.233596 
L 646.678764 182.080647 
L 646.922853 181.389971 
L 647.166942 182.442102 
L 647.166942 182.442102 
" style="fill:none;stroke:#00bfbf;stroke-dasharray:7.4,3.2;stroke-dashoffset:0;stroke-width:2;"/>
   </g>
   <g id="line2d_29">
    <path clip-path="url(#p1f799252c6)" d="M 159.233058 135.258025 
L 170.949329 135.368166 
L 182.90969 135.702634 
L 195.358228 136.273983 
L 208.539033 137.105124 
L 222.208016 138.190683 
L 237.097445 139.603555 
L 251.010517 140.909108 
L 254.427763 141.020951 
L 256.624564 140.903997 
L 258.333186 140.599178 
L 259.553631 140.177321 
L 260.529987 139.641598 
L 261.506343 138.8353 
L 262.23861 137.968986 
L 262.970877 136.776715 
L 263.703144 135.117486 
L 264.435411 132.776855 
L 265.167678 129.4248 
L 265.899945 124.551916 
L 266.632212 117.383699 
L 267.364479 106.81019 
L 268.096746 91.56366 
L 269.317191 58.86166 
L 269.56128 60.134276 
L 271.025814 95.518057 
L 271.758081 107.440257 
L 272.490348 115.818341 
L 273.222615 121.781059 
L 273.954882 126.127105 
L 274.687149 129.378855 
L 275.663504 132.58047 
L 276.63986 134.927971 
L 277.616216 136.717362 
L 278.836661 138.438553 
L 280.057106 139.782176 
L 281.52164 141.073695 
L 283.474352 142.459034 
L 285.915242 143.88779 
L 290.064755 146.004724 
L 294.946534 148.538358 
L 297.631513 150.158063 
L 299.828314 151.716948 
L 301.781026 153.372468 
L 303.489649 155.121633 
L 304.954183 156.928763 
L 306.418717 159.105933 
L 307.883251 161.698032 
L 309.591874 164.822347 
L 310.080052 165.401454 
L 310.324141 165.5367 
L 310.56823 165.516299 
L 310.812319 165.286536 
L 311.056408 164.780005 
L 311.300497 163.914288 
L 311.788675 160.703377 
L 312.276852 154.761441 
L 312.76503 145.239564 
L 313.253208 131.626039 
L 313.985475 103.672098 
L 314.961831 62.09863 
L 315.20592 58.481371 
L 316.182276 84.668846 
L 316.914543 98.270807 
L 317.64681 107.57353 
L 318.379077 114.193713 
L 319.111344 119.118135 
L 320.0877 124.010199 
L 321.064056 127.676879 
L 322.040412 130.551932 
L 323.260857 133.413085 
L 324.481302 135.732757 
L 325.945836 138.051526 
L 327.654459 140.352331 
L 330.095349 143.231085 
L 335.465306 149.398593 
L 337.173929 151.72296 
L 338.638463 154.058428 
L 339.858908 156.379508 
L 341.079353 159.213412 
L 342.055709 162.022738 
L 343.032065 165.541118 
L 344.008421 170.099264 
L 344.740688 174.482025 
L 345.717044 181.934624 
L 346.6934 189.526379 
L 346.937489 190.251367 
L 347.181578 189.675743 
L 347.425667 187.23119 
L 347.669756 182.48799 
L 348.157934 166.077316 
L 348.8902 129.705339 
L 350.110645 62.981948 
L 350.354734 58.606605 
L 351.33109 85.945927 
L 352.063357 99.053663 
L 352.795624 107.822562 
L 353.527891 114.044046 
L 354.260158 118.698898 
L 355.236514 123.380337 
L 356.21287 126.953222 
L 357.433315 130.446364 
L 358.65376 133.251937 
L 360.118294 136.055087 
L 362.071006 139.240894 
L 368.661408 149.413074 
L 370.125942 152.356753 
L 371.346387 155.349181 
L 372.322743 158.289404 
L 373.299099 161.952809 
L 374.275455 166.66694 
L 375.251811 172.791393 
L 376.472256 181.023876 
L 376.716345 181.68819 
L 376.960434 181.295526 
L 377.204523 179.337201 
L 377.448612 175.343296 
L 377.93679 160.543118 
L 378.669057 124.991385 
L 379.889502 59.603523 
L 380.133591 61.518125 
L 380.865858 82.499987 
L 381.598125 96.656912 
L 382.330392 105.957891 
L 383.062659 112.446399 
L 383.794926 117.240462 
L 384.771282 122.015047 
L 385.747637 125.634777 
L 386.968082 129.164321 
L 388.188527 132.004155 
L 389.653061 134.86218 
L 391.605773 138.166051 
L 396.487553 146.199537 
L 397.952087 149.122259 
L 399.416621 152.553951 
L 401.613422 157.947738 
L 401.857511 158.261915 
L 402.1016 158.382677 
L 402.345689 158.229758 
L 402.589778 157.699328 
L 402.833867 156.662181 
L 403.077956 154.965934 
L 403.566133 148.930725 
L 404.054311 138.416242 
L 404.542489 122.930783 
L 405.518845 80.875688 
L 406.007023 61.683558 
L 406.251112 58.580873 
L 407.227468 82.962933 
L 407.959735 95.427475 
L 408.692002 103.941093 
L 409.424269 110.00463 
L 410.156536 114.524343 
L 411.132892 119.030288 
L 412.109248 122.424551 
L 413.085604 125.100211 
L 414.306049 127.776864 
L 415.526494 129.953251 
L 416.991028 132.115822 
L 418.455562 133.91272 
L 419.920096 135.361562 
L 420.896452 136.068479 
L 421.628718 136.38554 
L 422.360985 136.418368 
L 422.849163 136.208705 
L 423.337341 135.737465 
L 423.825519 134.913127 
L 424.313697 133.614973 
L 424.801875 131.68925 
L 425.290053 128.950171 
L 425.778231 125.190447 
L 426.510498 117.202585 
L 427.242765 106.039938 
L 428.219121 86.916729 
L 429.439566 63.210629 
L 429.927744 56.924831 
L 431.392278 73.386861 
L 432.124545 79.470791 
L 432.856812 83.954903 
L 433.589079 87.063571 
L 434.077257 88.473953 
L 434.565435 89.404568 
L 435.053613 89.878505 
L 435.541791 89.899999 
L 436.029969 89.452169 
L 436.518147 88.492649 
L 437.006325 86.946036 
L 437.494503 84.692832 
L 437.982681 81.562966 
L 438.959037 73.201543 
L 439.203126 74.046039 
L 439.447215 88.025648 
L 439.691304 83.238073 
L 439.935392 28.067173 
L 440.179481 27.855872 
L 440.667659 60.204055 
L 441.155837 78.661859 
L 441.888104 97.502212 
L 442.86446 116.657624 
L 444.573083 148.349691 
L 445.30535 166.998549 
L 445.793528 187.30658 
L 446.037617 205.803722 
L 446.281706 264.215157 
L 446.525795 215.395244 
L 447.013973 180.45906 
L 447.502151 164.553358 
L 448.234418 148.423087 
L 449.943041 114.368863 
L 450.675308 94.424201 
L 451.651664 60.392696 
L 451.895753 60.733566 
L 453.604376 121.412676 
L 454.336643 137.681083 
L 455.06891 149.100864 
L 455.801177 157.083598 
L 456.533444 162.687496 
L 457.265711 166.696712 
L 457.997978 169.676979 
L 458.974333 172.722871 
L 462.391579 182.236826 
L 463.123846 185.174977 
L 463.856113 188.978083 
L 464.58838 194.221851 
L 465.076558 199.074643 
L 465.564736 205.857704 
L 466.052914 216.415235 
L 466.297003 224.638286 
L 466.541092 237.422568 
L 466.785181 264.401448 
L 467.02927 274.976115 
L 467.273359 237.363137 
L 467.761537 208.74284 
L 468.493804 185.270501 
L 469.714249 156.876941 
L 470.690605 133.06187 
L 471.178783 117.159278 
L 471.666961 92.088697 
L 472.155139 57.045063 
L 472.399228 83.99773 
L 472.887406 106.363003 
L 473.375584 117.563205 
L 473.863762 124.78445 
L 474.596029 132.140675 
L 475.328296 137.321988 
L 476.304651 142.456972 
L 477.525096 147.371859 
L 478.98963 152.244238 
L 481.918698 161.773634 
L 482.895054 165.74248 
L 483.87141 170.801264 
L 484.603677 175.91036 
L 485.335944 183.208582 
L 485.824122 190.461403 
L 486.3123 201.974832 
L 486.556389 211.29667 
L 486.800478 226.834584 
L 487.044567 271.104069 
L 487.532745 212.859252 
L 488.020923 187.123289 
L 488.75319 163.255328 
L 490.217724 120.058984 
L 490.705902 96.95501 
L 491.19408 63.591924 
L 491.438169 71.053433 
L 491.926347 99.884779 
L 492.414525 112.399697 
L 492.902703 120.10351 
L 493.63497 127.755496 
L 494.367237 133.072175 
L 495.343592 138.322539 
L 496.564037 143.370637 
L 498.27266 149.238548 
L 500.469461 156.738982 
L 501.445817 160.736212 
L 502.422173 165.76081 
L 503.15444 170.785767 
L 503.886707 177.91558 
L 504.374885 184.966883 
L 504.863063 196.100242 
L 505.107152 205.042847 
L 505.351241 219.715667 
L 505.59533 257.829554 
L 506.571686 181.721161 
L 507.303953 156.712014 
L 508.524398 117.726794 
L 509.256665 85.652034 
L 509.500754 57.321561 
L 509.988932 93.754732 
L 510.47711 108.535842 
L 510.965288 117.13929 
L 511.697555 125.393244 
L 512.429822 130.995642 
L 513.406177 136.45546 
L 514.626622 141.674748 
L 516.335245 147.772143 
L 518.287957 154.790165 
L 519.264313 159.005913 
L 519.99658 162.883528 
L 520.728847 167.864366 
L 521.461114 174.910004 
L 521.949292 181.87179 
L 522.43747 192.86659 
L 522.681559 201.699874 
L 522.925648 216.178854 
L 523.169737 253.362147 
L 523.413826 234.089232 
L 523.902004 189.523331 
L 524.634271 160.114906 
L 526.098805 110.091306 
L 526.342894 99.411402 
L 526.586983 113.269764 
L 526.831072 57.866641 
L 527.31925 93.303209 
L 527.807428 108.019766 
L 528.295606 116.608009 
L 529.027873 124.838043 
L 529.76014 130.423295 
L 530.736496 135.881501 
L 531.95694 141.14177 
L 534.153741 149.16808 
L 535.618275 154.925177 
L 536.594631 159.690267 
L 537.326898 164.29622 
L 538.059165 170.610419 
L 538.547343 176.615898 
L 539.035521 185.575252 
L 539.523699 201.920943 
L 539.767788 218.761498 
L 540.011877 281.753388 
L 540.255966 222.072681 
L 540.744144 183.638223 
L 541.476411 154.737953 
L 542.940945 103.843988 
L 543.185034 171.573965 
L 543.429123 60.308077 
L 543.917301 93.714481 
L 544.405479 108.112409 
L 544.893657 116.57014 
L 545.625924 124.693168 
L 546.358191 130.21873 
L 547.334547 135.642426 
L 548.554992 140.918513 
L 552.216326 155.383795 
L 553.192682 160.79789 
L 553.924949 166.344568 
L 554.413127 171.397265 
L 554.901305 178.509584 
L 555.389483 190.000278 
L 555.633572 199.539441 
L 555.877661 216.066423 
L 556.12175 274.909579 
L 556.365839 220.40951 
L 556.854017 181.264524 
L 557.586284 151.685421 
L 558.806729 109.228806 
L 559.050818 134.178727 
L 559.294907 60.262355 
L 559.783085 90.820414 
L 560.271263 106.573515 
L 560.759441 115.535247 
L 561.491708 123.964775 
L 562.223975 129.617673 
L 563.200331 135.123025 
L 564.420776 140.46659 
L 567.838021 154.253936 
L 568.570288 158.220166 
L 569.302555 163.33994 
L 569.790733 167.892605 
L 570.278911 174.115958 
L 570.767089 183.654483 
L 571.011178 190.998561 
L 571.255267 202.208055 
L 571.499356 224.181021 
L 571.743445 259.145167 
L 571.987534 207.352897 
L 572.475712 174.372179 
L 573.207979 145.393397 
L 574.184335 112.751425 
L 574.428424 173.68416 
L 574.672513 57.192492 
L 575.160691 91.785361 
L 575.648869 107.07381 
L 576.137047 115.828078 
L 576.869314 124.081814 
L 577.601581 129.628007 
L 578.577937 135.048538 
L 579.798382 140.350842 
L 582.971539 153.325447 
L 583.703806 157.358589 
L 584.436073 162.624972 
L 584.924251 167.382497 
L 585.412429 174.025826 
L 585.900607 184.605205 
L 586.144695 193.185323 
L 586.388784 207.376585 
L 586.632873 244.268497 
L 586.876962 224.491231 
L 587.36514 178.931983 
L 588.097407 147.118474 
L 588.829674 120.937188 
L 589.073763 118.447982 
L 589.317852 105.95045 
L 589.561941 61.191942 
L 590.050119 93.738041 
L 590.538297 108.100346 
L 591.026475 116.451186 
L 591.758742 124.384226 
L 592.491009 129.743053 
L 593.467365 135.007969 
L 594.68781 140.202478 
L 597.372789 150.972472 
L 598.349145 156.140015 
L 599.081412 161.401687 
L 599.56959 166.202622 
L 600.057768 172.998514 
L 600.545946 184.087695 
L 600.790035 193.385403 
L 601.034124 209.639031 
L 601.278213 268.231197 
L 601.522302 213.270886 
L 602.01048 173.200802 
L 602.742747 141.639303 
L 603.230925 125.238308 
L 603.475014 128.891924 
L 603.963192 63.070366 
L 604.451369 94.375606 
L 604.939547 108.39753 
L 605.427725 116.555243 
L 606.159992 124.280469 
L 606.892259 129.477504 
L 607.868615 134.565863 
L 609.08906 139.57745 
L 611.774039 150.068907 
L 612.506306 153.793187 
L 613.238573 158.638013 
L 613.726751 163.011173 
L 614.214929 169.115376 
L 614.703107 178.796932 
L 614.947196 186.557562 
L 615.191285 199.042252 
L 615.435374 227.33032 
L 615.679463 228.738909 
L 615.923552 193.078818 
L 616.41173 162.153508 
L 616.899908 142.202724 
L 617.143997 135.554874 
L 617.388086 143.169078 
L 617.876264 57.963484 
L 618.364442 91.643598 
L 618.85262 106.757554 
L 619.340798 115.260633 
L 620.073065 123.069423 
L 620.805332 128.168219 
L 621.781688 133.018426 
L 623.002132 137.634846 
L 626.175289 148.749668 
L 626.907556 152.339939 
L 627.639823 157.237214 
L 628.128001 161.894639 
L 628.616179 168.794234 
L 629.104357 180.802759 
L 629.348446 191.624631 
L 629.592535 212.855418 
L 629.836624 254.610999 
L 630.080713 199.565567 
L 630.324802 182.566085 
L 630.568891 178.872739 
L 630.81298 223.233953 
L 631.057069 119.507421 
L 631.301158 72.846625 
L 631.545247 64.522429 
L 632.033425 92.464705 
L 632.521603 105.99591 
L 633.009781 113.6776 
L 633.497959 118.646501 
L 634.230226 123.522036 
L 634.962493 126.719987 
L 635.69476 128.949831 
L 636.427027 130.538958 
L 637.159294 131.645243 
L 637.891561 132.332017 
L 638.379739 132.555293 
L 638.867917 132.567425 
L 639.356095 132.324302 
L 639.844273 131.748034 
L 640.332451 130.704246 
L 640.820628 128.958906 
L 641.308806 126.09782 
L 641.796984 121.389862 
L 642.285162 113.63071 
L 642.77334 101.324962 
L 643.993785 62.665251 
L 644.237874 59.503502 
L 644.726052 57.075574 
L 644.970141 60.452863 
L 645.21423 66.727289 
L 645.702408 90.706148 
L 646.922853 166.279643 
L 647.166942 174.456694 
L 647.166942 174.456694 
" style="fill:none;stroke:#ff0000;stroke-dasharray:7.4,3.2;stroke-dashoffset:0;stroke-width:2;"/>
   </g>
   <g id="patch_3">
    <path d="M 108 720.9 
L 108 56.7 
" style="fill:none;stroke:#000000;stroke-linecap:square;stroke-linejoin:miter;stroke-width:0.8;"/>
   </g>
   <g id="patch_4">
    <path d="M 698.4 720.9 
L 698.4 56.7 
" style="fill:none;stroke:#000000;stroke-linecap:square;stroke-linejoin:miter;stroke-width:0.8;"/>
   </g>
   <g id="patch_5">
    <path d="M 108 720.9 
L 698.4 720.9 
" style="fill:none;stroke:#000000;stroke-linecap:square;stroke-linejoin:miter;stroke-width:0.8;"/>
   </g>
   <g id="patch_6">
    <path d="M 108 56.7 
L 698.4 56.7 
" style="fill:none;stroke:#000000;stroke-linecap:square;stroke-linejoin:miter;stroke-width:0.8;"/>
   </g>
   <g id="text_16">
    <!-- $N=20, ka=15, k_p=1.0010, kd=45$  -->
    <g transform="translate(220.3 50.5)scale(0.2 -0.2)">
     <defs>
      <path d="M 16.890625 72.90625 
L 30.171875 72.90625 
L 50.296875 10.40625 
L 62.5 72.90625 
L 72.125 72.90625 
L 57.90625 0 
L 44.578125 0 
L 24.515625 62.890625 
L 12.3125 0 
L 2.6875 0 
z
" id="DejaVuSans-Oblique-78"/>
      <path d="M 10.59375 45.40625 
L 73.1875 45.40625 
L 73.1875 37.203125 
L 10.59375 37.203125 
z
M 10.59375 25.484375 
L 73.1875 25.484375 
L 73.1875 17.1875 
L 10.59375 17.1875 
z
" id="DejaVuSans-61"/>
      <path d="M 11.71875 12.40625 
L 22.015625 12.40625 
L 22.015625 4 
L 14.015625 -11.625 
L 7.71875 -11.625 
L 11.71875 4 
z
" id="DejaVuSans-44"/>
      <path d="M 18.3125 75.984375 
L 27.296875 75.984375 
L 18.703125 31.6875 
L 49.515625 54.6875 
L 61.1875 54.6875 
L 26.8125 28.515625 
L 51.90625 0 
L 41.015625 0 
L 17.671875 26.703125 
L 12.5 0 
L 3.515625 0 
z
" id="DejaVuSans-Oblique-107"/>
      <path d="M 53.71875 31.203125 
L 47.609375 0 
L 38.625 0 
L 40.28125 8.296875 
Q 36.328125 3.421875 31.265625 1 
Q 26.21875 -1.421875 20.015625 -1.421875 
Q 13.03125 -1.421875 8.5625 2.84375 
Q 4.109375 7.125 4.109375 13.8125 
Q 4.109375 23.390625 11.75 28.953125 
Q 19.390625 34.515625 32.8125 34.515625 
L 45.3125 34.515625 
L 45.796875 36.921875 
Q 45.90625 37.3125 45.953125 37.765625 
Q 46 38.234375 46 39.203125 
Q 46 43.5625 42.453125 45.96875 
Q 38.921875 48.390625 32.515625 48.390625 
Q 28.125 48.390625 23.5 47.265625 
Q 18.890625 46.140625 14.015625 43.890625 
L 15.578125 52.203125 
Q 20.65625 54.109375 25.515625 55.046875 
Q 30.375 56 34.90625 56 
Q 44.578125 56 49.625 51.796875 
Q 54.6875 47.609375 54.6875 39.59375 
Q 54.6875 37.984375 54.4375 35.8125 
Q 54.203125 33.640625 53.71875 31.203125 
z
M 44 27.484375 
L 35.015625 27.484375 
Q 23.96875 27.484375 18.671875 24.53125 
Q 13.375 21.578125 13.375 15.375 
Q 13.375 11.078125 16.078125 8.640625 
Q 18.796875 6.203125 23.578125 6.203125 
Q 30.90625 6.203125 36.375 11.453125 
Q 41.84375 16.703125 43.609375 25.484375 
z
" id="DejaVuSans-Oblique-97"/>
      <path d="M 49.609375 33.6875 
Q 49.609375 40.875 46.484375 44.671875 
Q 43.359375 48.484375 37.5 48.484375 
Q 33.5 48.484375 29.859375 46.4375 
Q 26.21875 44.390625 23.390625 40.484375 
Q 20.609375 36.625 18.9375 31.15625 
Q 17.28125 25.6875 17.28125 20.3125 
Q 17.28125 13.484375 20.40625 9.796875 
Q 23.53125 6.109375 29.296875 6.109375 
Q 33.546875 6.109375 37.1875 8.109375 
Q 40.828125 10.109375 43.40625 13.921875 
Q 46.1875 17.921875 47.890625 23.34375 
Q 49.609375 28.765625 49.609375 33.6875 
z
M 21.78125 46.390625 
Q 25.390625 51.125 30.296875 53.5625 
Q 35.203125 56 41.21875 56 
Q 49.609375 56 54.25 50.5 
Q 58.890625 45.015625 58.890625 35.109375 
Q 58.890625 27 56 19.65625 
Q 53.125 12.3125 47.703125 6.5 
Q 44.09375 2.640625 39.546875 0.609375 
Q 35.015625 -1.421875 29.984375 -1.421875 
Q 24.171875 -1.421875 20.21875 1 
Q 16.265625 3.421875 14.3125 8.203125 
L 8.6875 -20.796875 
L -0.296875 -20.796875 
L 14.40625 54.6875 
L 23.390625 54.6875 
z
" id="DejaVuSans-Oblique-112"/>
      <path d="M 10.6875 12.40625 
L 21 12.40625 
L 21 0 
L 10.6875 0 
z
" id="DejaVuSans-46"/>
      <path d="M 41.796875 8.203125 
Q 38.1875 3.46875 33.25 1.015625 
Q 28.328125 -1.421875 22.3125 -1.421875 
Q 14.109375 -1.421875 9.34375 4.171875 
Q 4.59375 9.765625 4.59375 19.484375 
Q 4.59375 27.59375 7.46875 34.9375 
Q 10.359375 42.28125 15.828125 48.09375 
Q 19.4375 51.953125 23.96875 53.96875 
Q 28.515625 56 33.5 56 
Q 38.765625 56 42.796875 53.453125 
Q 46.828125 50.921875 49.03125 46.1875 
L 54.890625 75.984375 
L 63.921875 75.984375 
L 49.125 0 
L 40.09375 0 
z
M 13.921875 21.09375 
Q 13.921875 14.015625 17.109375 10.0625 
Q 20.3125 6.109375 25.984375 6.109375 
Q 30.171875 6.109375 33.765625 8.125 
Q 37.359375 10.15625 40.09375 14.109375 
Q 42.96875 18.21875 44.625 23.578125 
Q 46.296875 28.953125 46.296875 34.1875 
Q 46.296875 40.96875 43.09375 44.765625 
Q 39.890625 48.578125 34.28125 48.578125 
Q 30.03125 48.578125 26.359375 46.578125 
Q 22.703125 44.578125 20.125 40.828125 
Q 17.28125 36.765625 15.59375 31.390625 
Q 13.921875 26.03125 13.921875 21.09375 
z
" id="DejaVuSans-Oblique-100"/>
      <path id="DejaVuSans-32"/>
     </defs>
     <use transform="translate(0 0.015625)" xlink:href="#DejaVuSans-Oblique-78"/>
     <use transform="translate(94.287109 0.015625)" xlink:href="#DejaVuSans-61"/>
     <use transform="translate(197.558594 0.015625)" xlink:href="#DejaVuSans-50"/>
     <use transform="translate(261.181641 0.015625)" xlink:href="#DejaVuSans-48"/>
     <use transform="translate(324.804688 0.015625)" xlink:href="#DejaVuSans-44"/>
     <use transform="translate(376.074219 0.015625)" xlink:href="#DejaVuSans-Oblique-107"/>
     <use transform="translate(433.984375 0.015625)" xlink:href="#DejaVuSans-Oblique-97"/>
     <use transform="translate(514.746094 0.015625)" xlink:href="#DejaVuSans-61"/>
     <use transform="translate(618.017578 0.015625)" xlink:href="#DejaVuSans-49"/>
     <use transform="translate(681.640625 0.015625)" xlink:href="#DejaVuSans-53"/>
     <use transform="translate(745.263672 0.015625)" xlink:href="#DejaVuSans-44"/>
     <use transform="translate(796.533203 0.015625)" xlink:href="#DejaVuSans-Oblique-107"/>
     <use transform="translate(854.443359 -16.390625)scale(0.7)" xlink:href="#DejaVuSans-Oblique-112"/>
     <use transform="translate(921.09375 0.015625)" xlink:href="#DejaVuSans-61"/>
     <use transform="translate(1024.365234 0.015625)" xlink:href="#DejaVuSans-49"/>
     <use transform="translate(1087.988281 0.015625)" xlink:href="#DejaVuSans-46"/>
     <use transform="translate(1119.775391 0.015625)" xlink:href="#DejaVuSans-48"/>
     <use transform="translate(1183.398438 0.015625)" xlink:href="#DejaVuSans-48"/>
     <use transform="translate(1247.021484 0.015625)" xlink:href="#DejaVuSans-49"/>
     <use transform="translate(1310.644531 0.015625)" xlink:href="#DejaVuSans-48"/>
     <use transform="translate(1374.267578 0.015625)" xlink:href="#DejaVuSans-44"/>
     <use transform="translate(1425.537109 0.015625)" xlink:href="#DejaVuSans-Oblique-107"/>
     <use transform="translate(1483.447266 0.015625)" xlink:href="#DejaVuSans-Oblique-100"/>
     <use transform="translate(1566.40625 0.015625)" xlink:href="#DejaVuSans-61"/>
     <use transform="translate(1669.677734 0.015625)" xlink:href="#DejaVuSans-52"/>
     <use transform="translate(1733.300781 0.015625)" xlink:href="#DejaVuSans-53"/>
     <use transform="translate(1796.923828 0.015625)" xlink:href="#DejaVuSans-32"/>
    </g>
   </g>
   <g id="legend_1">
    <g id="patch_7">
     <path d="M 122 710.9 
L 290.515625 710.9 
Q 294.515625 710.9 294.515625 706.9 
L 294.515625 620.83125 
Q 294.515625 616.83125 290.515625 616.83125 
L 122 616.83125 
Q 118 616.83125 118 620.83125 
L 118 706.9 
Q 118 710.9 122 710.9 
z
" style="fill:#ffffff;opacity:0.8;stroke:#cccccc;stroke-linejoin:miter;"/>
    </g>
    <g id="line2d_30">
     <path d="M 126 633.028125 
L 166 633.028125 
" style="fill:none;stroke:#008000;stroke-dasharray:7.4,3.2;stroke-dashoffset:0;stroke-width:2;"/>
    </g>
    <g id="line2d_31"/>
    <g id="text_17">
     <!-- forward -->
     <g transform="translate(182 640.028125)scale(0.2 -0.2)">
      <defs>
       <path d="M 37.109375 75.984375 
L 37.109375 68.5 
L 28.515625 68.5 
Q 23.6875 68.5 21.796875 66.546875 
Q 19.921875 64.59375 19.921875 59.515625 
L 19.921875 54.6875 
L 34.71875 54.6875 
L 34.71875 47.703125 
L 19.921875 47.703125 
L 19.921875 0 
L 10.890625 0 
L 10.890625 47.703125 
L 2.296875 47.703125 
L 2.296875 54.6875 
L 10.890625 54.6875 
L 10.890625 58.5 
Q 10.890625 67.625 15.140625 71.796875 
Q 19.390625 75.984375 28.609375 75.984375 
z
" id="DejaVuSans-102"/>
       <path d="M 30.609375 48.390625 
Q 23.390625 48.390625 19.1875 42.75 
Q 14.984375 37.109375 14.984375 27.296875 
Q 14.984375 17.484375 19.15625 11.84375 
Q 23.34375 6.203125 30.609375 6.203125 
Q 37.796875 6.203125 41.984375 11.859375 
Q 46.1875 17.53125 46.1875 27.296875 
Q 46.1875 37.015625 41.984375 42.703125 
Q 37.796875 48.390625 30.609375 48.390625 
z
M 30.609375 56 
Q 42.328125 56 49.015625 48.375 
Q 55.71875 40.765625 55.71875 27.296875 
Q 55.71875 13.875 49.015625 6.21875 
Q 42.328125 -1.421875 30.609375 -1.421875 
Q 18.84375 -1.421875 12.171875 6.21875 
Q 5.515625 13.875 5.515625 27.296875 
Q 5.515625 40.765625 12.171875 48.375 
Q 18.84375 56 30.609375 56 
z
" id="DejaVuSans-111"/>
       <path d="M 41.109375 46.296875 
Q 39.59375 47.171875 37.8125 47.578125 
Q 36.03125 48 33.890625 48 
Q 26.265625 48 22.1875 43.046875 
Q 18.109375 38.09375 18.109375 28.8125 
L 18.109375 0 
L 9.078125 0 
L 9.078125 54.6875 
L 18.109375 54.6875 
L 18.109375 46.1875 
Q 20.953125 51.171875 25.484375 53.578125 
Q 30.03125 56 36.53125 56 
Q 37.453125 56 38.578125 55.875 
Q 39.703125 55.765625 41.0625 55.515625 
z
" id="DejaVuSans-114"/>
       <path d="M 4.203125 54.6875 
L 13.1875 54.6875 
L 24.421875 12.015625 
L 35.59375 54.6875 
L 46.1875 54.6875 
L 57.421875 12.015625 
L 68.609375 54.6875 
L 77.59375 54.6875 
L 63.28125 0 
L 52.6875 0 
L 40.921875 44.828125 
L 29.109375 0 
L 18.5 0 
z
" id="DejaVuSans-119"/>
       <path d="M 34.28125 27.484375 
Q 23.390625 27.484375 19.1875 25 
Q 14.984375 22.515625 14.984375 16.5 
Q 14.984375 11.71875 18.140625 8.90625 
Q 21.296875 6.109375 26.703125 6.109375 
Q 34.1875 6.109375 38.703125 11.40625 
Q 43.21875 16.703125 43.21875 25.484375 
L 43.21875 27.484375 
z
M 52.203125 31.203125 
L 52.203125 0 
L 43.21875 0 
L 43.21875 8.296875 
Q 40.140625 3.328125 35.546875 0.953125 
Q 30.953125 -1.421875 24.3125 -1.421875 
Q 15.921875 -1.421875 10.953125 3.296875 
Q 6 8.015625 6 15.921875 
Q 6 25.140625 12.171875 29.828125 
Q 18.359375 34.515625 30.609375 34.515625 
L 43.21875 34.515625 
L 43.21875 35.40625 
Q 43.21875 41.609375 39.140625 45 
Q 35.0625 48.390625 27.6875 48.390625 
Q 23 48.390625 18.546875 47.265625 
Q 14.109375 46.140625 10.015625 43.890625 
L 10.015625 52.203125 
Q 14.9375 54.109375 19.578125 55.046875 
Q 24.21875 56 28.609375 56 
Q 40.484375 56 46.34375 49.84375 
Q 52.203125 43.703125 52.203125 31.203125 
z
" id="DejaVuSans-97"/>
       <path d="M 45.40625 46.390625 
L 45.40625 75.984375 
L 54.390625 75.984375 
L 54.390625 0 
L 45.40625 0 
L 45.40625 8.203125 
Q 42.578125 3.328125 38.25 0.953125 
Q 33.9375 -1.421875 27.875 -1.421875 
Q 17.96875 -1.421875 11.734375 6.484375 
Q 5.515625 14.40625 5.515625 27.296875 
Q 5.515625 40.1875 11.734375 48.09375 
Q 17.96875 56 27.875 56 
Q 33.9375 56 38.25 53.625 
Q 42.578125 51.265625 45.40625 46.390625 
z
M 14.796875 27.296875 
Q 14.796875 17.390625 18.875 11.75 
Q 22.953125 6.109375 30.078125 6.109375 
Q 37.203125 6.109375 41.296875 11.75 
Q 45.40625 17.390625 45.40625 27.296875 
Q 45.40625 37.203125 41.296875 42.84375 
Q 37.203125 48.484375 30.078125 48.484375 
Q 22.953125 48.484375 18.875 42.84375 
Q 14.796875 37.203125 14.796875 27.296875 
z
" id="DejaVuSans-100"/>
      </defs>
      <use xlink:href="#DejaVuSans-102"/>
      <use x="35.205078" xlink:href="#DejaVuSans-111"/>
      <use x="96.386719" xlink:href="#DejaVuSans-114"/>
      <use x="137.5" xlink:href="#DejaVuSans-119"/>
      <use x="219.287109" xlink:href="#DejaVuSans-97"/>
      <use x="280.566406" xlink:href="#DejaVuSans-114"/>
      <use x="319.929688" xlink:href="#DejaVuSans-100"/>
     </g>
    </g>
    <g id="line2d_32">
     <path d="M 126 662.384375 
L 166 662.384375 
" style="fill:none;stroke:#00bfbf;stroke-dasharray:7.4,3.2;stroke-dashoffset:0;stroke-width:2;"/>
    </g>
    <g id="line2d_33"/>
    <g id="text_18">
     <!-- secondary -->
     <g transform="translate(182 669.384375)scale(0.2 -0.2)">
      <defs>
       <path d="M 44.28125 53.078125 
L 44.28125 44.578125 
Q 40.484375 46.53125 36.375 47.5 
Q 32.28125 48.484375 27.875 48.484375 
Q 21.1875 48.484375 17.84375 46.4375 
Q 14.5 44.390625 14.5 40.28125 
Q 14.5 37.15625 16.890625 35.375 
Q 19.28125 33.59375 26.515625 31.984375 
L 29.59375 31.296875 
Q 39.15625 29.25 43.1875 25.515625 
Q 47.21875 21.78125 47.21875 15.09375 
Q 47.21875 7.46875 41.1875 3.015625 
Q 35.15625 -1.421875 24.609375 -1.421875 
Q 20.21875 -1.421875 15.453125 -0.5625 
Q 10.6875 0.296875 5.421875 2 
L 5.421875 11.28125 
Q 10.40625 8.6875 15.234375 7.390625 
Q 20.0625 6.109375 24.8125 6.109375 
Q 31.15625 6.109375 34.5625 8.28125 
Q 37.984375 10.453125 37.984375 14.40625 
Q 37.984375 18.0625 35.515625 20.015625 
Q 33.0625 21.96875 24.703125 23.78125 
L 21.578125 24.515625 
Q 13.234375 26.265625 9.515625 29.90625 
Q 5.8125 33.546875 5.8125 39.890625 
Q 5.8125 47.609375 11.28125 51.796875 
Q 16.75 56 26.8125 56 
Q 31.78125 56 36.171875 55.265625 
Q 40.578125 54.546875 44.28125 53.078125 
z
" id="DejaVuSans-115"/>
       <path d="M 56.203125 29.59375 
L 56.203125 25.203125 
L 14.890625 25.203125 
Q 15.484375 15.921875 20.484375 11.0625 
Q 25.484375 6.203125 34.421875 6.203125 
Q 39.59375 6.203125 44.453125 7.46875 
Q 49.3125 8.734375 54.109375 11.28125 
L 54.109375 2.78125 
Q 49.265625 0.734375 44.1875 -0.34375 
Q 39.109375 -1.421875 33.890625 -1.421875 
Q 20.796875 -1.421875 13.15625 6.1875 
Q 5.515625 13.8125 5.515625 26.8125 
Q 5.515625 40.234375 12.765625 48.109375 
Q 20.015625 56 32.328125 56 
Q 43.359375 56 49.78125 48.890625 
Q 56.203125 41.796875 56.203125 29.59375 
z
M 47.21875 32.234375 
Q 47.125 39.59375 43.09375 43.984375 
Q 39.0625 48.390625 32.421875 48.390625 
Q 24.90625 48.390625 20.390625 44.140625 
Q 15.875 39.890625 15.1875 32.171875 
z
" id="DejaVuSans-101"/>
       <path d="M 48.78125 52.59375 
L 48.78125 44.1875 
Q 44.96875 46.296875 41.140625 47.34375 
Q 37.3125 48.390625 33.40625 48.390625 
Q 24.65625 48.390625 19.8125 42.84375 
Q 14.984375 37.3125 14.984375 27.296875 
Q 14.984375 17.28125 19.8125 11.734375 
Q 24.65625 6.203125 33.40625 6.203125 
Q 37.3125 6.203125 41.140625 7.25 
Q 44.96875 8.296875 48.78125 10.40625 
L 48.78125 2.09375 
Q 45.015625 0.34375 40.984375 -0.53125 
Q 36.96875 -1.421875 32.421875 -1.421875 
Q 20.0625 -1.421875 12.78125 6.34375 
Q 5.515625 14.109375 5.515625 27.296875 
Q 5.515625 40.671875 12.859375 48.328125 
Q 20.21875 56 33.015625 56 
Q 37.15625 56 41.109375 55.140625 
Q 45.0625 54.296875 48.78125 52.59375 
z
" id="DejaVuSans-99"/>
       <path d="M 54.890625 33.015625 
L 54.890625 0 
L 45.90625 0 
L 45.90625 32.71875 
Q 45.90625 40.484375 42.875 44.328125 
Q 39.84375 48.1875 33.796875 48.1875 
Q 26.515625 48.1875 22.3125 43.546875 
Q 18.109375 38.921875 18.109375 30.90625 
L 18.109375 0 
L 9.078125 0 
L 9.078125 54.6875 
L 18.109375 54.6875 
L 18.109375 46.1875 
Q 21.34375 51.125 25.703125 53.5625 
Q 30.078125 56 35.796875 56 
Q 45.21875 56 50.046875 50.171875 
Q 54.890625 44.34375 54.890625 33.015625 
z
" id="DejaVuSans-110"/>
       <path d="M 32.171875 -5.078125 
Q 28.375 -14.84375 24.75 -17.8125 
Q 21.140625 -20.796875 15.09375 -20.796875 
L 7.90625 -20.796875 
L 7.90625 -13.28125 
L 13.1875 -13.28125 
Q 16.890625 -13.28125 18.9375 -11.515625 
Q 21 -9.765625 23.484375 -3.21875 
L 25.09375 0.875 
L 2.984375 54.6875 
L 12.5 54.6875 
L 29.59375 11.921875 
L 46.6875 54.6875 
L 56.203125 54.6875 
z
" id="DejaVuSans-121"/>
      </defs>
      <use xlink:href="#DejaVuSans-115"/>
      <use x="52.099609" xlink:href="#DejaVuSans-101"/>
      <use x="113.623047" xlink:href="#DejaVuSans-99"/>
      <use x="168.603516" xlink:href="#DejaVuSans-111"/>
      <use x="229.785156" xlink:href="#DejaVuSans-110"/>
      <use x="293.164062" xlink:href="#DejaVuSans-100"/>
      <use x="356.640625" xlink:href="#DejaVuSans-97"/>
      <use x="417.919922" xlink:href="#DejaVuSans-114"/>
      <use x="459.033203" xlink:href="#DejaVuSans-121"/>
     </g>
    </g>
    <g id="line2d_34">
     <path d="M 126 691.740625 
L 166 691.740625 
" style="fill:none;stroke:#ff0000;stroke-dasharray:7.4,3.2;stroke-dashoffset:0;stroke-width:2;"/>
    </g>
    <g id="line2d_35"/>
    <g id="text_19">
     <!-- uncoupled -->
     <g transform="translate(182 698.740625)scale(0.2 -0.2)">
      <defs>
       <path d="M 8.5 21.578125 
L 8.5 54.6875 
L 17.484375 54.6875 
L 17.484375 21.921875 
Q 17.484375 14.15625 20.5 10.265625 
Q 23.53125 6.390625 29.59375 6.390625 
Q 36.859375 6.390625 41.078125 11.03125 
Q 45.3125 15.671875 45.3125 23.6875 
L 45.3125 54.6875 
L 54.296875 54.6875 
L 54.296875 0 
L 45.3125 0 
L 45.3125 8.40625 
Q 42.046875 3.421875 37.71875 1 
Q 33.40625 -1.421875 27.6875 -1.421875 
Q 18.265625 -1.421875 13.375 4.4375 
Q 8.5 10.296875 8.5 21.578125 
z
M 31.109375 56 
z
" id="DejaVuSans-117"/>
       <path d="M 18.109375 8.203125 
L 18.109375 -20.796875 
L 9.078125 -20.796875 
L 9.078125 54.6875 
L 18.109375 54.6875 
L 18.109375 46.390625 
Q 20.953125 51.265625 25.265625 53.625 
Q 29.59375 56 35.59375 56 
Q 45.5625 56 51.78125 48.09375 
Q 58.015625 40.1875 58.015625 27.296875 
Q 58.015625 14.40625 51.78125 6.484375 
Q 45.5625 -1.421875 35.59375 -1.421875 
Q 29.59375 -1.421875 25.265625 0.953125 
Q 20.953125 3.328125 18.109375 8.203125 
z
M 48.6875 27.296875 
Q 48.6875 37.203125 44.609375 42.84375 
Q 40.53125 48.484375 33.40625 48.484375 
Q 26.265625 48.484375 22.1875 42.84375 
Q 18.109375 37.203125 18.109375 27.296875 
Q 18.109375 17.390625 22.1875 11.75 
Q 26.265625 6.109375 33.40625 6.109375 
Q 40.53125 6.109375 44.609375 11.75 
Q 48.6875 17.390625 48.6875 27.296875 
z
" id="DejaVuSans-112"/>
       <path d="M 9.421875 75.984375 
L 18.40625 75.984375 
L 18.40625 0 
L 9.421875 0 
z
" id="DejaVuSans-108"/>
      </defs>
      <use xlink:href="#DejaVuSans-117"/>
      <use x="63.378906" xlink:href="#DejaVuSans-110"/>
      <use x="126.757812" xlink:href="#DejaVuSans-99"/>
      <use x="181.738281" xlink:href="#DejaVuSans-111"/>
      <use x="242.919922" xlink:href="#DejaVuSans-117"/>
      <use x="306.298828" xlink:href="#DejaVuSans-112"/>
      <use x="369.775391" xlink:href="#DejaVuSans-108"/>
      <use x="397.558594" xlink:href="#DejaVuSans-101"/>
      <use x="459.082031" xlink:href="#DejaVuSans-100"/>
     </g>
    </g>
   </g>
  </g>
 </g>
 <defs>
  <clipPath id="p1f799252c6">
   <rect height="664.2" width="590.4" x="108" y="56.7"/>
  </clipPath>
 </defs>
</svg>
