<?xml version="1.0" encoding="utf-8" standalone="no"?>
<!DOCTYPE svg PUBLIC "-//W3C//DTD SVG 1.1//EN"
  "http://www.w3.org/Graphics/SVG/1.1/DTD/svg11.dtd">
<!-- Created with matplotlib (https://matplotlib.org/) -->
<svg height="810pt" version="1.1" viewBox="0 0 720 810" width="720pt" xmlns="http://www.w3.org/2000/svg" xmlns:xlink="http://www.w3.org/1999/xlink">
 <metadata>
  <rdf:RDF xmlns:cc="http://creativecommons.org/ns#" xmlns:dc="http://purl.org/dc/elements/1.1/" xmlns:rdf="http://www.w3.org/1999/02/22-rdf-syntax-ns#">
   <cc:Work>
    <dc:type rdf:resource="http://purl.org/dc/dcmitype/StillImage"/>
    <dc:date>2021-08-18T13:41:31.170635</dc:date>
    <dc:format>image/svg+xml</dc:format>
    <dc:creator>
     <cc:Agent>
      <dc:title>Matplotlib v3.3.1, https://matplotlib.org/</dc:title>
     </cc:Agent>
    </dc:creator>
   </cc:Work>
  </rdf:RDF>
 </metadata>
 <defs>
  <style type="text/css">*{stroke-linecap:butt;stroke-linejoin:round;}</style>
 </defs>
 <g id="figure_1">
  <g id="patch_1">
   <path d="M 0 810 
L 720 810 
L 720 0 
L 0 0 
z
" style="fill:#ffffff;"/>
  </g>
  <g id="axes_1">
   <g id="patch_2">
    <path d="M 108 720.9 
L 698.4 720.9 
L 698.4 56.7 
L 108 56.7 
z
" style="fill:#ffffff;"/>
   </g>
   <g id="matplotlib.axis_1">
    <g id="xtick_1">
     <g id="line2d_1">
      <path clip-path="url(#pc218e52626)" d="M 159.233058 720.9 
L 159.233058 56.7 
" style="fill:none;stroke:#e6e6e6;stroke-linecap:square;stroke-width:0.8;"/>
     </g>
     <g id="line2d_2">
      <defs>
       <path d="M 0 0 
L 0 3.5 
" id="mb97810a7d5" style="stroke:#000000;stroke-width:0.8;"/>
      </defs>
      <g>
       <use style="stroke:#000000;stroke-width:0.8;" x="159.233058" xlink:href="#mb97810a7d5" y="720.9"/>
      </g>
     </g>
     <g id="text_1">
      <!-- 0 -->
      <g transform="translate(154.461183 739.297656)scale(0.15 -0.15)">
       <defs>
        <path d="M 31.78125 66.40625 
Q 24.171875 66.40625 20.328125 58.90625 
Q 16.5 51.421875 16.5 36.375 
Q 16.5 21.390625 20.328125 13.890625 
Q 24.171875 6.390625 31.78125 6.390625 
Q 39.453125 6.390625 43.28125 13.890625 
Q 47.125 21.390625 47.125 36.375 
Q 47.125 51.421875 43.28125 58.90625 
Q 39.453125 66.40625 31.78125 66.40625 
z
M 31.78125 74.21875 
Q 44.046875 74.21875 50.515625 64.515625 
Q 56.984375 54.828125 56.984375 36.375 
Q 56.984375 17.96875 50.515625 8.265625 
Q 44.046875 -1.421875 31.78125 -1.421875 
Q 19.53125 -1.421875 13.0625 8.265625 
Q 6.59375 17.96875 6.59375 36.375 
Q 6.59375 54.828125 13.0625 64.515625 
Q 19.53125 74.21875 31.78125 74.21875 
z
" id="DejaVuSans-48"/>
       </defs>
       <use xlink:href="#DejaVuSans-48"/>
      </g>
     </g>
    </g>
    <g id="xtick_2">
     <g id="line2d_3">
      <path clip-path="url(#pc218e52626)" d="M 240.555372 720.9 
L 240.555372 56.7 
" style="fill:none;stroke:#e6e6e6;stroke-linecap:square;stroke-width:0.8;"/>
     </g>
     <g id="line2d_4">
      <g>
       <use style="stroke:#000000;stroke-width:0.8;" x="240.555372" xlink:href="#mb97810a7d5" y="720.9"/>
      </g>
     </g>
     <g id="text_2">
      <!-- 5 -->
      <g transform="translate(235.783497 739.297656)scale(0.15 -0.15)">
       <defs>
        <path d="M 10.796875 72.90625 
L 49.515625 72.90625 
L 49.515625 64.59375 
L 19.828125 64.59375 
L 19.828125 46.734375 
Q 21.96875 47.46875 24.109375 47.828125 
Q 26.265625 48.1875 28.421875 48.1875 
Q 40.625 48.1875 47.75 41.5 
Q 54.890625 34.8125 54.890625 23.390625 
Q 54.890625 11.625 47.5625 5.09375 
Q 40.234375 -1.421875 26.90625 -1.421875 
Q 22.3125 -1.421875 17.546875 -0.640625 
Q 12.796875 0.140625 7.71875 1.703125 
L 7.71875 11.625 
Q 12.109375 9.234375 16.796875 8.0625 
Q 21.484375 6.890625 26.703125 6.890625 
Q 35.15625 6.890625 40.078125 11.328125 
Q 45.015625 15.765625 45.015625 23.390625 
Q 45.015625 31 40.078125 35.4375 
Q 35.15625 39.890625 26.703125 39.890625 
Q 22.75 39.890625 18.8125 39.015625 
Q 14.890625 38.140625 10.796875 36.28125 
z
" id="DejaVuSans-53"/>
       </defs>
       <use xlink:href="#DejaVuSans-53"/>
      </g>
     </g>
    </g>
    <g id="xtick_3">
     <g id="line2d_5">
      <path clip-path="url(#pc218e52626)" d="M 321.877686 720.9 
L 321.877686 56.7 
" style="fill:none;stroke:#e6e6e6;stroke-linecap:square;stroke-width:0.8;"/>
     </g>
     <g id="line2d_6">
      <g>
       <use style="stroke:#000000;stroke-width:0.8;" x="321.877686" xlink:href="#mb97810a7d5" y="720.9"/>
      </g>
     </g>
     <g id="text_3">
      <!-- 10 -->
      <g transform="translate(312.333936 739.297656)scale(0.15 -0.15)">
       <defs>
        <path d="M 12.40625 8.296875 
L 28.515625 8.296875 
L 28.515625 63.921875 
L 10.984375 60.40625 
L 10.984375 69.390625 
L 28.421875 72.90625 
L 38.28125 72.90625 
L 38.28125 8.296875 
L 54.390625 8.296875 
L 54.390625 0 
L 12.40625 0 
z
" id="DejaVuSans-49"/>
       </defs>
       <use xlink:href="#DejaVuSans-49"/>
       <use x="63.623047" xlink:href="#DejaVuSans-48"/>
      </g>
     </g>
    </g>
    <g id="xtick_4">
     <g id="line2d_7">
      <path clip-path="url(#pc218e52626)" d="M 403.2 720.9 
L 403.2 56.7 
" style="fill:none;stroke:#e6e6e6;stroke-linecap:square;stroke-width:0.8;"/>
     </g>
     <g id="line2d_8">
      <g>
       <use style="stroke:#000000;stroke-width:0.8;" x="403.2" xlink:href="#mb97810a7d5" y="720.9"/>
      </g>
     </g>
     <g id="text_4">
      <!-- 15 -->
      <g transform="translate(393.65625 739.297656)scale(0.15 -0.15)">
       <use xlink:href="#DejaVuSans-49"/>
       <use x="63.623047" xlink:href="#DejaVuSans-53"/>
      </g>
     </g>
    </g>
    <g id="xtick_5">
     <g id="line2d_9">
      <path clip-path="url(#pc218e52626)" d="M 484.522314 720.9 
L 484.522314 56.7 
" style="fill:none;stroke:#e6e6e6;stroke-linecap:square;stroke-width:0.8;"/>
     </g>
     <g id="line2d_10">
      <g>
       <use style="stroke:#000000;stroke-width:0.8;" x="484.522314" xlink:href="#mb97810a7d5" y="720.9"/>
      </g>
     </g>
     <g id="text_5">
      <!-- 20 -->
      <g transform="translate(474.978564 739.297656)scale(0.15 -0.15)">
       <defs>
        <path d="M 19.1875 8.296875 
L 53.609375 8.296875 
L 53.609375 0 
L 7.328125 0 
L 7.328125 8.296875 
Q 12.9375 14.109375 22.625 23.890625 
Q 32.328125 33.6875 34.8125 36.53125 
Q 39.546875 41.84375 41.421875 45.53125 
Q 43.3125 49.21875 43.3125 52.78125 
Q 43.3125 58.59375 39.234375 62.25 
Q 35.15625 65.921875 28.609375 65.921875 
Q 23.96875 65.921875 18.8125 64.3125 
Q 13.671875 62.703125 7.8125 59.421875 
L 7.8125 69.390625 
Q 13.765625 71.78125 18.9375 73 
Q 24.125 74.21875 28.421875 74.21875 
Q 39.75 74.21875 46.484375 68.546875 
Q 53.21875 62.890625 53.21875 53.421875 
Q 53.21875 48.921875 51.53125 44.890625 
Q 49.859375 40.875 45.40625 35.40625 
Q 44.1875 33.984375 37.640625 27.21875 
Q 31.109375 20.453125 19.1875 8.296875 
z
" id="DejaVuSans-50"/>
       </defs>
       <use xlink:href="#DejaVuSans-50"/>
       <use x="63.623047" xlink:href="#DejaVuSans-48"/>
      </g>
     </g>
    </g>
    <g id="xtick_6">
     <g id="line2d_11">
      <path clip-path="url(#pc218e52626)" d="M 565.844628 720.9 
L 565.844628 56.7 
" style="fill:none;stroke:#e6e6e6;stroke-linecap:square;stroke-width:0.8;"/>
     </g>
     <g id="line2d_12">
      <g>
       <use style="stroke:#000000;stroke-width:0.8;" x="565.844628" xlink:href="#mb97810a7d5" y="720.9"/>
      </g>
     </g>
     <g id="text_6">
      <!-- 25 -->
      <g transform="translate(556.300878 739.297656)scale(0.15 -0.15)">
       <use xlink:href="#DejaVuSans-50"/>
       <use x="63.623047" xlink:href="#DejaVuSans-53"/>
      </g>
     </g>
    </g>
    <g id="xtick_7">
     <g id="line2d_13">
      <path clip-path="url(#pc218e52626)" d="M 647.166942 720.9 
L 647.166942 56.7 
" style="fill:none;stroke:#e6e6e6;stroke-linecap:square;stroke-width:0.8;"/>
     </g>
     <g id="line2d_14">
      <g>
       <use style="stroke:#000000;stroke-width:0.8;" x="647.166942" xlink:href="#mb97810a7d5" y="720.9"/>
      </g>
     </g>
     <g id="text_7">
      <!-- 30 -->
      <g transform="translate(637.623192 739.297656)scale(0.15 -0.15)">
       <defs>
        <path d="M 40.578125 39.3125 
Q 47.65625 37.796875 51.625 33 
Q 55.609375 28.21875 55.609375 21.1875 
Q 55.609375 10.40625 48.1875 4.484375 
Q 40.765625 -1.421875 27.09375 -1.421875 
Q 22.515625 -1.421875 17.65625 -0.515625 
Q 12.796875 0.390625 7.625 2.203125 
L 7.625 11.71875 
Q 11.71875 9.328125 16.59375 8.109375 
Q 21.484375 6.890625 26.8125 6.890625 
Q 36.078125 6.890625 40.9375 10.546875 
Q 45.796875 14.203125 45.796875 21.1875 
Q 45.796875 27.640625 41.28125 31.265625 
Q 36.765625 34.90625 28.71875 34.90625 
L 20.21875 34.90625 
L 20.21875 43.015625 
L 29.109375 43.015625 
Q 36.375 43.015625 40.234375 45.921875 
Q 44.09375 48.828125 44.09375 54.296875 
Q 44.09375 59.90625 40.109375 62.90625 
Q 36.140625 65.921875 28.71875 65.921875 
Q 24.65625 65.921875 20.015625 65.03125 
Q 15.375 64.15625 9.8125 62.3125 
L 9.8125 71.09375 
Q 15.4375 72.65625 20.34375 73.4375 
Q 25.25 74.21875 29.59375 74.21875 
Q 40.828125 74.21875 47.359375 69.109375 
Q 53.90625 64.015625 53.90625 55.328125 
Q 53.90625 49.265625 50.4375 45.09375 
Q 46.96875 40.921875 40.578125 39.3125 
z
" id="DejaVuSans-51"/>
       </defs>
       <use xlink:href="#DejaVuSans-51"/>
       <use x="63.623047" xlink:href="#DejaVuSans-48"/>
      </g>
     </g>
    </g>
    <g id="text_8">
     <!-- $\theta(^{\circ})$ -->
     <g transform="translate(379.825 765.413281)scale(0.25 -0.25)">
      <defs>
       <path d="M 45.515625 34.671875 
L 14.453125 34.671875 
Q 12.359375 20.0625 14.5 13.875 
Q 17.1875 6.25 24.46875 6.25 
Q 31.78125 6.25 37.359375 13.921875 
Q 42.234375 20.65625 45.515625 34.671875 
z
M 47.015625 42.96875 
Q 48.34375 56.84375 46.625 61.71875 
Q 43.953125 69.4375 36.765625 69.4375 
Q 29.296875 69.4375 23.828125 61.8125 
Q 19.53125 55.671875 16.15625 42.96875 
z
M 38.1875 76.765625 
Q 49.90625 76.765625 54.59375 66.40625 
Q 59.28125 56.109375 55.71875 37.84375 
Q 52.203125 19.625 43.453125 9.28125 
Q 34.765625 -1.125 23.046875 -1.125 
Q 11.28125 -1.125 6.640625 9.28125 
Q 2 19.625 5.515625 37.84375 
Q 9.078125 56.109375 17.71875 66.40625 
Q 26.421875 76.765625 38.1875 76.765625 
z
" id="DejaVuSans-Oblique-952"/>
       <path d="M 31 75.875 
Q 24.46875 64.65625 21.28125 53.65625 
Q 18.109375 42.671875 18.109375 31.390625 
Q 18.109375 20.125 21.3125 9.0625 
Q 24.515625 -2 31 -13.1875 
L 23.1875 -13.1875 
Q 15.875 -1.703125 12.234375 9.375 
Q 8.59375 20.453125 8.59375 31.390625 
Q 8.59375 42.28125 12.203125 53.3125 
Q 15.828125 64.359375 23.1875 75.875 
z
" id="DejaVuSans-40"/>
       <path d="M 31.25 40.921875 
Q 27.34375 40.921875 24.65625 38.203125 
Q 21.96875 35.5 21.96875 31.59375 
Q 21.96875 27.734375 24.65625 25.078125 
Q 27.34375 22.421875 31.25 22.421875 
Q 35.15625 22.421875 37.84375 25.078125 
Q 40.53125 27.734375 40.53125 31.59375 
Q 40.53125 35.453125 37.8125 38.1875 
Q 35.109375 40.921875 31.25 40.921875 
z
M 31.25 47.21875 
Q 34.375 47.21875 37.25 46.015625 
Q 40.140625 44.828125 42.234375 42.578125 
Q 44.484375 40.390625 45.609375 37.59375 
Q 46.734375 34.8125 46.734375 31.59375 
Q 46.734375 25.15625 42.21875 20.6875 
Q 37.703125 16.21875 31.15625 16.21875 
Q 24.5625 16.21875 20.15625 20.609375 
Q 15.765625 25 15.765625 31.59375 
Q 15.765625 38.140625 20.25 42.671875 
Q 24.75 47.21875 31.25 47.21875 
z
" id="DejaVuSans-8728"/>
       <path d="M 8.015625 75.875 
L 15.828125 75.875 
Q 23.140625 64.359375 26.78125 53.3125 
Q 30.421875 42.28125 30.421875 31.390625 
Q 30.421875 20.453125 26.78125 9.375 
Q 23.140625 -1.703125 15.828125 -13.1875 
L 8.015625 -13.1875 
Q 14.5 -2 17.703125 9.0625 
Q 20.90625 20.125 20.90625 31.390625 
Q 20.90625 42.671875 17.703125 53.65625 
Q 14.5 64.65625 8.015625 75.875 
z
" id="DejaVuSans-41"/>
      </defs>
      <use transform="translate(0 0.234375)" xlink:href="#DejaVuSans-Oblique-952"/>
      <use transform="translate(61.181641 0.234375)" xlink:href="#DejaVuSans-40"/>
      <use transform="translate(101.152344 38.515625)scale(0.7)" xlink:href="#DejaVuSans-8728"/>
      <use transform="translate(147.705078 0.234375)" xlink:href="#DejaVuSans-41"/>
     </g>
    </g>
   </g>
   <g id="matplotlib.axis_2">
    <g id="ytick_1">
     <g id="line2d_15">
      <path clip-path="url(#pc218e52626)" d="M 108 720.9 
L 698.4 720.9 
" style="fill:none;stroke:#e6e6e6;stroke-linecap:square;stroke-width:0.8;"/>
     </g>
     <g id="line2d_16">
      <defs>
       <path d="M 0 0 
L -3.5 0 
" id="me9db9a6897" style="stroke:#000000;stroke-width:0.8;"/>
      </defs>
      <g>
       <use style="stroke:#000000;stroke-width:0.8;" x="108" xlink:href="#me9db9a6897" y="720.9"/>
      </g>
     </g>
     <g id="text_9">
      <!-- −10 -->
      <g transform="translate(69.342969 726.598828)scale(0.15 -0.15)">
       <defs>
        <path d="M 10.59375 35.5 
L 73.1875 35.5 
L 73.1875 27.203125 
L 10.59375 27.203125 
z
" id="DejaVuSans-8722"/>
       </defs>
       <use xlink:href="#DejaVuSans-8722"/>
       <use x="83.789062" xlink:href="#DejaVuSans-49"/>
       <use x="147.412109" xlink:href="#DejaVuSans-48"/>
      </g>
     </g>
    </g>
    <g id="ytick_2">
     <g id="line2d_17">
      <path clip-path="url(#pc218e52626)" d="M 108 588.06 
L 698.4 588.06 
" style="fill:none;stroke:#e6e6e6;stroke-linecap:square;stroke-width:0.8;"/>
     </g>
     <g id="line2d_18">
      <g>
       <use style="stroke:#000000;stroke-width:0.8;" x="108" xlink:href="#me9db9a6897" y="588.06"/>
      </g>
     </g>
     <g id="text_10">
      <!-- −8 -->
      <g transform="translate(78.886719 593.758828)scale(0.15 -0.15)">
       <defs>
        <path d="M 31.78125 34.625 
Q 24.75 34.625 20.71875 30.859375 
Q 16.703125 27.09375 16.703125 20.515625 
Q 16.703125 13.921875 20.71875 10.15625 
Q 24.75 6.390625 31.78125 6.390625 
Q 38.8125 6.390625 42.859375 10.171875 
Q 46.921875 13.96875 46.921875 20.515625 
Q 46.921875 27.09375 42.890625 30.859375 
Q 38.875 34.625 31.78125 34.625 
z
M 21.921875 38.8125 
Q 15.578125 40.375 12.03125 44.71875 
Q 8.5 49.078125 8.5 55.328125 
Q 8.5 64.0625 14.71875 69.140625 
Q 20.953125 74.21875 31.78125 74.21875 
Q 42.671875 74.21875 48.875 69.140625 
Q 55.078125 64.0625 55.078125 55.328125 
Q 55.078125 49.078125 51.53125 44.71875 
Q 48 40.375 41.703125 38.8125 
Q 48.828125 37.15625 52.796875 32.3125 
Q 56.78125 27.484375 56.78125 20.515625 
Q 56.78125 9.90625 50.3125 4.234375 
Q 43.84375 -1.421875 31.78125 -1.421875 
Q 19.734375 -1.421875 13.25 4.234375 
Q 6.78125 9.90625 6.78125 20.515625 
Q 6.78125 27.484375 10.78125 32.3125 
Q 14.796875 37.15625 21.921875 38.8125 
z
M 18.3125 54.390625 
Q 18.3125 48.734375 21.84375 45.5625 
Q 25.390625 42.390625 31.78125 42.390625 
Q 38.140625 42.390625 41.71875 45.5625 
Q 45.3125 48.734375 45.3125 54.390625 
Q 45.3125 60.0625 41.71875 63.234375 
Q 38.140625 66.40625 31.78125 66.40625 
Q 25.390625 66.40625 21.84375 63.234375 
Q 18.3125 60.0625 18.3125 54.390625 
z
" id="DejaVuSans-56"/>
       </defs>
       <use xlink:href="#DejaVuSans-8722"/>
       <use x="83.789062" xlink:href="#DejaVuSans-56"/>
      </g>
     </g>
    </g>
    <g id="ytick_3">
     <g id="line2d_19">
      <path clip-path="url(#pc218e52626)" d="M 108 455.22 
L 698.4 455.22 
" style="fill:none;stroke:#e6e6e6;stroke-linecap:square;stroke-width:0.8;"/>
     </g>
     <g id="line2d_20">
      <g>
       <use style="stroke:#000000;stroke-width:0.8;" x="108" xlink:href="#me9db9a6897" y="455.22"/>
      </g>
     </g>
     <g id="text_11">
      <!-- −6 -->
      <g transform="translate(78.886719 460.918828)scale(0.15 -0.15)">
       <defs>
        <path d="M 33.015625 40.375 
Q 26.375 40.375 22.484375 35.828125 
Q 18.609375 31.296875 18.609375 23.390625 
Q 18.609375 15.53125 22.484375 10.953125 
Q 26.375 6.390625 33.015625 6.390625 
Q 39.65625 6.390625 43.53125 10.953125 
Q 47.40625 15.53125 47.40625 23.390625 
Q 47.40625 31.296875 43.53125 35.828125 
Q 39.65625 40.375 33.015625 40.375 
z
M 52.59375 71.296875 
L 52.59375 62.3125 
Q 48.875 64.0625 45.09375 64.984375 
Q 41.3125 65.921875 37.59375 65.921875 
Q 27.828125 65.921875 22.671875 59.328125 
Q 17.53125 52.734375 16.796875 39.40625 
Q 19.671875 43.65625 24.015625 45.921875 
Q 28.375 48.1875 33.59375 48.1875 
Q 44.578125 48.1875 50.953125 41.515625 
Q 57.328125 34.859375 57.328125 23.390625 
Q 57.328125 12.15625 50.6875 5.359375 
Q 44.046875 -1.421875 33.015625 -1.421875 
Q 20.359375 -1.421875 13.671875 8.265625 
Q 6.984375 17.96875 6.984375 36.375 
Q 6.984375 53.65625 15.1875 63.9375 
Q 23.390625 74.21875 37.203125 74.21875 
Q 40.921875 74.21875 44.703125 73.484375 
Q 48.484375 72.75 52.59375 71.296875 
z
" id="DejaVuSans-54"/>
       </defs>
       <use xlink:href="#DejaVuSans-8722"/>
       <use x="83.789062" xlink:href="#DejaVuSans-54"/>
      </g>
     </g>
    </g>
    <g id="ytick_4">
     <g id="line2d_21">
      <path clip-path="url(#pc218e52626)" d="M 108 322.38 
L 698.4 322.38 
" style="fill:none;stroke:#e6e6e6;stroke-linecap:square;stroke-width:0.8;"/>
     </g>
     <g id="line2d_22">
      <g>
       <use style="stroke:#000000;stroke-width:0.8;" x="108" xlink:href="#me9db9a6897" y="322.38"/>
      </g>
     </g>
     <g id="text_12">
      <!-- −4 -->
      <g transform="translate(78.886719 328.078828)scale(0.15 -0.15)">
       <defs>
        <path d="M 37.796875 64.3125 
L 12.890625 25.390625 
L 37.796875 25.390625 
z
M 35.203125 72.90625 
L 47.609375 72.90625 
L 47.609375 25.390625 
L 58.015625 25.390625 
L 58.015625 17.1875 
L 47.609375 17.1875 
L 47.609375 0 
L 37.796875 0 
L 37.796875 17.1875 
L 4.890625 17.1875 
L 4.890625 26.703125 
z
" id="DejaVuSans-52"/>
       </defs>
       <use xlink:href="#DejaVuSans-8722"/>
       <use x="83.789062" xlink:href="#DejaVuSans-52"/>
      </g>
     </g>
    </g>
    <g id="ytick_5">
     <g id="line2d_23">
      <path clip-path="url(#pc218e52626)" d="M 108 189.54 
L 698.4 189.54 
" style="fill:none;stroke:#e6e6e6;stroke-linecap:square;stroke-width:0.8;"/>
     </g>
     <g id="line2d_24">
      <g>
       <use style="stroke:#000000;stroke-width:0.8;" x="108" xlink:href="#me9db9a6897" y="189.54"/>
      </g>
     </g>
     <g id="text_13">
      <!-- −2 -->
      <g transform="translate(78.886719 195.238828)scale(0.15 -0.15)">
       <use xlink:href="#DejaVuSans-8722"/>
       <use x="83.789062" xlink:href="#DejaVuSans-50"/>
      </g>
     </g>
    </g>
    <g id="ytick_6">
     <g id="line2d_25">
      <path clip-path="url(#pc218e52626)" d="M 108 56.7 
L 698.4 56.7 
" style="fill:none;stroke:#e6e6e6;stroke-linecap:square;stroke-width:0.8;"/>
     </g>
     <g id="line2d_26">
      <g>
       <use style="stroke:#000000;stroke-width:0.8;" x="108" xlink:href="#me9db9a6897" y="56.7"/>
      </g>
     </g>
     <g id="text_14">
      <!-- 0 -->
      <g transform="translate(91.45625 62.398828)scale(0.15 -0.15)">
       <use xlink:href="#DejaVuSans-48"/>
      </g>
     </g>
    </g>
    <g id="text_15">
     <!-- $f(\theta)$ -->
     <g transform="translate(60.14375 410.675)rotate(-90)scale(0.25 -0.25)">
      <defs>
       <path d="M 47.796875 75.984375 
L 46.390625 68.5 
L 37.796875 68.5 
Q 32.90625 68.5 30.6875 66.578125 
Q 28.46875 64.65625 27.390625 59.515625 
L 26.421875 54.6875 
L 41.21875 54.6875 
L 39.890625 47.703125 
L 25.09375 47.703125 
L 15.828125 0 
L 6.78125 0 
L 16.109375 47.703125 
L 7.515625 47.703125 
L 8.796875 54.6875 
L 17.390625 54.6875 
L 18.109375 58.5 
Q 19.96875 68.171875 24.625 72.078125 
Q 29.296875 75.984375 39.3125 75.984375 
z
" id="DejaVuSans-Oblique-102"/>
      </defs>
      <use transform="translate(0 0.234375)" xlink:href="#DejaVuSans-Oblique-102"/>
      <use transform="translate(35.205078 0.234375)" xlink:href="#DejaVuSans-40"/>
      <use transform="translate(74.21875 0.234375)" xlink:href="#DejaVuSans-Oblique-952"/>
      <use transform="translate(135.400391 0.234375)" xlink:href="#DejaVuSans-41"/>
     </g>
    </g>
   </g>
   <g id="line2d_27">
    <path clip-path="url(#pc218e52626)" d="M 159.233058 628.316018 
L 173.390219 628.202696 
L 186.815113 627.874765 
L 199.263652 627.35089 
L 210.491745 626.659507 
L 220.499393 625.824417 
L 229.286597 624.869981 
L 236.609267 623.858811 
L 242.711491 622.799141 
L 247.593271 621.734494 
L 251.498695 620.661591 
L 254.427763 619.648776 
L 256.868653 618.58458 
L 258.821364 617.50313 
L 260.529987 616.287789 
L 261.750432 615.179008 
L 262.970877 613.755139 
L 263.947233 612.264109 
L 264.923589 610.267834 
L 265.655856 608.235714 
L 266.388123 605.434705 
L 266.876301 602.86942 
L 267.364479 599.372532 
L 267.852657 594.271597 
L 268.340835 585.995469 
L 268.584924 579.464166 
L 268.829013 569.658113 
L 269.073102 552.98036 
L 269.317191 521.412679 
L 269.56128 561.106621 
L 269.805369 641.123425 
L 270.049458 626.912761 
L 270.293547 635.410695 
L 270.781725 666.368286 
L 271.025814 700.593208 
L 271.269903 705.882907 
L 271.513992 676.189122 
L 272.00217 656.431025 
L 272.490348 647.537449 
L 272.978526 642.226394 
L 273.710793 637.222775 
L 274.44306 633.985552 
L 275.175327 631.685203 
L 276.151682 629.451468 
L 277.128038 627.788123 
L 278.348483 626.189181 
L 279.813017 624.697531 
L 281.52164 623.307262 
L 283.718441 621.837348 
L 286.647509 620.169063 
L 292.749734 617.03418 
L 297.143335 614.655839 
L 300.072403 612.836187 
L 302.513293 611.050853 
L 304.466005 609.332737 
L 305.930539 607.779053 
L 307.395073 605.873574 
L 308.615518 603.870774 
L 309.591874 601.845864 
L 310.56823 599.229426 
L 311.300497 596.65809 
L 312.032763 593.239186 
L 312.76503 588.372162 
L 313.253208 583.702066 
L 313.741386 576.893667 
L 314.229564 565.650575 
L 314.473653 556.403649 
L 314.717742 541.463741 
L 314.961831 511.780894 
L 315.20592 517.841145 
L 315.450009 598.739109 
L 315.694098 590.989598 
L 316.426365 615.0909 
L 317.158632 645.283472 
L 317.402721 659.797339 
L 317.64681 682.561673 
L 317.890899 797.342103 
L 318.134988 685.786665 
L 318.623166 658.22411 
L 319.111344 646.840706 
L 319.599522 640.067476 
L 320.331789 633.599249 
L 321.064056 629.319386 
L 321.796323 626.205561 
L 322.772679 623.099447 
L 323.749035 620.714743 
L 324.96948 618.344373 
L 326.434014 616.042014 
L 328.142637 613.792415 
L 330.583526 611.006933 
L 338.638463 602.176393 
L 340.347086 599.869963 
L 341.81162 597.566269 
L 343.032065 595.289171 
L 344.25251 592.507134 
L 345.228866 589.715107 
L 346.205222 586.107118 
L 346.937489 582.531638 
L 347.669756 577.687607 
L 348.157934 573.276925 
L 348.646111 567.217632 
L 349.134289 558.083443 
L 349.622467 541.694614 
L 349.866556 526.216862 
L 350.110645 494.770646 
L 350.354734 500.839746 
L 350.598823 575.958125 
L 350.842912 571.803961 
L 352.307446 615.872335 
L 352.795624 633.504028 
L 353.283802 660.377993 
L 353.77198 711.910848 
L 354.016069 672.618225 
L 354.504247 648.951949 
L 354.992425 637.953838 
L 355.480603 631.07198 
L 356.21287 624.223527 
L 356.945137 619.507517 
L 357.921493 614.948984 
L 358.897849 611.505287 
L 360.118294 608.093386 
L 361.582828 604.753226 
L 363.291451 601.425538 
L 365.97643 596.736308 
L 369.637764 590.305035 
L 371.346387 586.884191 
L 372.810921 583.47212 
L 374.031366 580.056092 
L 375.007722 576.713478 
L 375.984078 572.482381 
L 376.716345 568.353262 
L 377.448612 562.813421 
L 377.93679 557.787708 
L 378.424968 550.864222 
L 378.913146 540.283646 
L 379.157235 532.264718 
L 379.401324 520.454572 
L 379.645413 500.126844 
L 379.889502 455.290596 
L 380.133591 527.387021 
L 380.37768 560.521078 
L 380.621769 560.39591 
L 381.842214 593.175229 
L 382.574481 615.739072 
L 383.062659 637.623377 
L 383.306748 655.743755 
L 383.550837 699.299788 
L 384.283104 640.494081 
L 384.771282 626.8051 
L 385.259459 618.622721 
L 385.991726 610.610757 
L 386.723993 605.097799 
L 387.700349 599.711366 
L 388.676705 595.563069 
L 389.89715 591.346028 
L 391.361684 587.075409 
L 393.558485 581.428985 
L 397.707998 570.925052 
L 399.172532 566.63152 
L 400.392977 562.462776 
L 401.369333 558.473752 
L 402.345689 553.502156 
L 403.077956 548.683903 
L 403.810222 542.196702 
L 404.2984 536.228492 
L 404.786578 527.791232 
L 405.274756 514.216512 
L 405.518845 503.212833 
L 405.762934 485.567369 
L 406.007023 450.847853 
L 406.251112 452.678452 
L 406.495201 545.623545 
L 406.73929 563.52896 
L 406.983379 558.022825 
L 407.227468 561.679799 
L 407.959735 580.75787 
L 408.447913 597.792034 
L 408.936091 625.215857 
L 409.18018 656.620763 
L 409.424269 663.985195 
L 409.668358 631.506574 
L 410.156536 608.850373 
L 410.644714 597.686885 
L 411.376981 587.570919 
L 412.109248 580.847473 
L 413.085604 574.31265 
L 414.06196 569.211945 
L 415.526494 562.909745 
L 417.479206 555.648667 
L 422.116896 538.797808 
L 423.58143 532.551866 
L 424.801875 526.436485 
L 425.778231 520.479534 
L 426.510498 514.929679 
L 427.242765 507.738936 
L 427.730943 501.36678 
L 428.219121 492.746483 
L 428.707299 479.966674 
L 429.195477 458.2186 
L 429.927744 403.646681 
L 430.660011 483.044702 
L 431.148189 506.255094 
L 431.636367 515.54084 
L 431.880456 517.178256 
L 432.124545 517.627504 
L 432.368634 517.287166 
L 432.856812 515.215394 
L 433.589079 510.430296 
L 434.809524 500.57959 
L 436.029969 488.737391 
L 437.006325 476.801536 
L 437.738592 465.010741 
L 438.22677 454.479791 
L 438.714948 439.365222 
L 438.959037 428.067607 
L 439.447215 384.973665 
L 439.691304 398.619231 
L 440.179481 432.192231 
L 440.667659 446.442577 
L 441.155837 455.244535 
L 441.888104 463.891131 
L 442.620371 469.621761 
L 443.352638 473.612599 
L 444.084905 476.401028 
L 444.817172 478.261967 
L 445.30535 479.060433 
L 445.793528 479.530469 
L 446.281706 479.678017 
L 446.769884 479.495833 
L 447.258062 478.962351 
L 447.74624 478.038478 
L 448.234418 476.661378 
L 448.722596 474.733071 
L 449.210774 472.099139 
L 449.698952 468.506513 
L 450.18713 463.512209 
L 450.675308 456.266299 
L 451.163486 445.094773 
L 451.407575 438.354507 
L 451.651664 459.40268 
L 451.895753 388.86207 
L 452.139842 421.634916 
L 452.62802 451.136568 
L 453.116198 467.705957 
L 453.848465 484.941181 
L 454.824821 502.427152 
L 457.5098 546.528593 
L 458.242066 563.885748 
L 458.730244 581.468077 
L 458.974333 595.255812 
L 459.462511 656.12458 
L 459.7066 608.241389 
L 460.194778 581.734838 
L 460.682956 569.052423 
L 461.415223 557.541004 
L 462.14749 549.835089 
L 463.123846 542.256649 
L 464.344291 534.807271 
L 468.005626 514.201268 
L 468.981982 506.876722 
L 469.714249 499.827079 
L 470.446516 490.223744 
L 470.934694 481.060939 
L 471.422872 466.920766 
L 471.666961 455.520292 
L 471.91105 435.763597 
L 472.155139 348.399284 
L 472.399228 437.421909 
L 472.887406 469.665561 
L 473.375584 485.351919 
L 474.107851 500.615167 
L 475.084207 515.102222 
L 476.54874 532.471491 
L 478.257363 552.624851 
L 478.98963 563.22102 
L 479.721897 577.26104 
L 480.210075 591.111711 
L 480.454164 601.194069 
L 480.698253 616.335096 
L 480.942342 648.862054 
L 481.186431 647.372131 
L 481.43052 616.425868 
L 481.918698 592.414153 
L 482.406876 579.551055 
L 483.139143 566.95589 
L 484.115499 555.244373 
L 485.335944 543.84463 
L 488.020923 520.244457 
L 488.997279 509.063199 
L 489.729546 497.635741 
L 490.217724 486.825388 
L 490.705902 469.716287 
L 490.949991 454.858659 
L 491.19408 422.664066 
L 491.438169 424.900428 
L 491.682258 455.746117 
L 492.170436 480.201378 
L 492.658614 493.52562 
L 493.390881 506.774268 
L 494.367237 519.286895 
L 495.587681 531.618249 
L 498.028571 554.992716 
L 499.004927 567.148605 
L 499.737194 579.985691 
L 500.225372 592.906771 
L 500.469461 602.38352 
L 500.71355 616.576067 
L 500.957639 645.849906 
L 501.201728 653.34678 
L 501.445817 618.717151 
L 501.933995 593.079184 
L 502.422173 579.226565 
L 503.15444 565.29153 
L 504.130796 551.698689 
L 507.548042 508.657207 
L 508.280309 493.539865 
L 508.768487 477.742766 
L 509.012576 465.319993 
L 509.256665 443.830852 
L 509.500754 409.001261 
L 509.744843 448.447611 
L 510.233021 478.035924 
L 510.721199 492.198444 
L 511.453466 505.44126 
L 512.185733 514.689947 
L 513.162088 524.237009 
L 514.626622 536.109168 
L 516.579334 552.043408 
L 517.55569 562.277815 
L 518.287957 572.840091 
L 518.776135 582.949289 
L 519.264313 599.118657 
L 519.508402 613.198514 
L 519.752491 643.036169 
L 519.99658 647.190353 
L 520.240669 613.391838 
L 520.728847 587.370346 
L 521.217025 572.857758 
L 521.949292 557.715811 
L 523.169737 538.433664 
L 524.634271 515.762099 
L 525.366538 501.124411 
L 525.854716 487.564901 
L 526.342894 465.168806 
L 526.831072 419.754668 
L 527.31925 467.480167 
L 527.807428 485.590783 
L 528.295606 496.259105 
L 529.027873 506.964248 
L 529.76014 514.687401 
L 530.736496 522.764981 
L 532.201029 532.867111 
L 534.153741 546.456057 
L 535.130097 555.161885 
L 535.862364 564.033742 
L 536.350542 572.293884 
L 536.83872 584.679505 
L 537.082809 594.23967 
L 537.326898 609.423248 
L 537.570987 646.697411 
L 537.815076 630.06573 
L 538.059165 601.915696 
L 538.547343 576.965747 
L 539.27961 556.14031 
L 540.255966 536.314716 
L 541.7205 507.482196 
L 542.208678 494.882023 
L 542.696856 477.023253 
L 542.940945 463.108236 
L 543.429123 412.238407 
L 543.673212 450.744442 
L 544.16139 476.797174 
L 544.649568 489.393679 
L 545.381835 500.88415 
L 546.114102 508.619548 
L 547.090458 516.278231 
L 548.310903 523.891414 
L 550.995881 539.688392 
L 551.972237 547.267071 
L 552.704504 555.058309 
L 553.192682 562.323041 
L 553.68086 573.100578 
L 553.924949 581.198846 
L 554.169038 593.367118 
L 554.657216 645.491937 
L 554.901305 599.163989 
L 555.389483 569.117576 
L 556.12175 545.354724 
L 558.318551 488.644071 
L 558.806729 465.861088 
L 559.050818 444.903719 
L 559.294907 375.709885 
L 559.538996 442.02337 
L 560.027174 471.546478 
L 560.515352 484.482563 
L 561.00353 492.596741 
L 561.735797 500.842216 
L 562.468064 506.739527 
L 563.44442 512.786667 
L 564.908954 520.132558 
L 566.861666 529.717001 
L 567.838021 535.735986 
L 568.570288 541.728533 
L 569.058466 547.090574 
L 569.546644 554.527197 
L 570.034822 566.335399 
L 570.278911 575.982123 
L 570.523 592.398027 
L 570.767089 646.158831 
L 571.011178 599.392308 
L 571.499356 560.31987 
L 572.231623 532.598928 
L 573.696157 486.849388 
L 574.184335 462.254512 
L 574.672513 420.374131 
L 575.160691 458.293765 
L 575.648869 475.05951 
L 576.137047 484.265174 
L 576.869314 492.871997 
L 577.601581 498.622233 
L 578.577937 504.185264 
L 579.798382 509.541208 
L 582.72745 521.436772 
L 583.459717 525.418339 
L 584.191984 530.696221 
L 584.680162 535.550338 
L 585.16834 542.465665 
L 585.656518 553.823411 
L 585.900607 563.409364 
L 586.144695 580.370969 
L 586.388784 650.878981 
L 586.632873 581.284554 
L 587.121051 542.740767 
L 587.853318 512.159682 
L 588.585585 483.751302 
L 589.073763 456.071714 
L 589.561941 404.118416 
L 589.80603 440.915548 
L 590.294208 464.359796 
L 590.782386 474.967257 
L 591.270564 481.480195 
L 592.002831 487.85706 
L 592.735098 492.200872 
L 593.711454 496.417609 
L 594.931899 500.468358 
L 597.616878 508.766168 
L 598.349145 511.792063 
L 599.081412 515.833958 
L 599.56959 519.56349 
L 600.057768 524.844561 
L 600.545946 533.259867 
L 600.790035 539.930574 
L 601.034124 550.318333 
L 601.278213 570.981061 
L 601.522302 610.190407 
L 601.766391 554.069464 
L 602.254569 518.145263 
L 603.475014 451.026789 
L 603.963192 403.566813 
L 604.20728 436.572495 
L 604.695458 457.905377 
L 605.183636 467.370595 
L 605.671814 473.016986 
L 606.404081 478.344132 
L 607.136348 481.803818 
L 607.868615 484.286678 
L 608.844971 486.770556 
L 610.309505 489.697985 
L 611.774039 492.612142 
L 612.506306 494.432779 
L 613.238573 496.84482 
L 613.726751 499.042922 
L 614.214929 502.074907 
L 614.703107 506.612246 
L 615.191285 514.333229 
L 615.435374 520.829934 
L 615.679463 531.592965 
L 615.923552 555.986812 
L 616.167641 565.173258 
L 616.41173 523.753214 
L 617.143997 469.586406 
L 617.388086 451.19832 
L 617.876264 393.138329 
L 618.120353 424.193526 
L 618.608531 446.725812 
L 619.096709 455.572562 
L 619.584887 460.453002 
L 620.073065 463.53413 
L 620.805332 466.429864 
L 621.537599 468.198311 
L 622.269866 469.333876 
L 623.002132 470.087236 
L 623.978488 470.747308 
L 626.419378 472.123079 
L 627.151645 472.963781 
L 627.639823 473.86687 
L 628.128001 475.261075 
L 628.616179 477.5292 
L 629.104357 481.543402 
L 629.348446 484.854029 
L 629.592535 489.915082 
L 629.836624 498.633945 
L 630.324802 539.845453 
L 630.568891 488.255978 
L 631.545247 391.083689 
L 631.789336 415.521069 
L 632.277514 430.958357 
L 632.765692 436.746877 
L 633.25387 439.500212 
L 633.742048 440.841266 
L 634.230226 441.383893 
L 634.718404 441.413726 
L 635.206582 441.080933 
L 635.69476 440.470625 
L 636.427027 439.138833 
L 637.403383 436.708508 
L 638.379739 433.583064 
L 639.356095 429.722534 
L 640.332451 424.996965 
L 641.308806 419.177761 
L 642.285162 411.985576 
L 643.261518 404.430191 
L 643.505607 404.054944 
L 643.749696 407.970745 
L 643.993785 443.996397 
L 644.237874 387.190829 
L 644.481963 373.263937 
L 644.726052 374.285087 
L 644.970141 344.993083 
L 645.21423 347.429493 
L 645.702408 368.71834 
L 646.190586 382.853727 
L 646.922853 396.625027 
L 647.166942 400.115416 
L 647.166942 400.115416 
" style="fill:none;stroke:#008000;stroke-dasharray:7.4,3.2;stroke-dashoffset:0;stroke-width:2;"/>
   </g>
   <g id="line2d_28">
    <path clip-path="url(#pc218e52626)" d="M 159.233058 378.57599 
L 162.406215 378.694705 
L 165.335283 379.017631 
L 168.26435 379.552876 
L 171.193418 380.313215 
L 174.122486 381.31789 
L 176.807465 382.476817 
L 179.492444 383.893398 
L 181.933334 385.438279 
L 184.130134 387.07254 
L 186.326935 388.979135 
L 188.279647 390.945941 
L 190.232359 393.22221 
L 191.940982 395.523019 
L 193.649605 398.18056 
L 195.358228 401.287309 
L 196.822762 404.408757 
L 198.287296 408.085162 
L 199.507741 411.709258 
L 200.728186 416.024388 
L 201.948631 421.309337 
L 202.924986 426.553334 
L 203.901342 433.179733 
L 204.633609 439.567763 
L 205.365876 447.994013 
L 205.854054 455.543793 
L 206.342232 465.977619 
L 206.83041 482.811631 
L 207.074499 497.572255 
L 207.318588 529.813164 
L 207.562677 527.789121 
L 207.806766 496.620547 
L 208.294944 472.152196 
L 208.783122 458.954619 
L 209.515389 446.112898 
L 210.247656 437.091068 
L 211.224012 428.066093 
L 212.200368 421.021248 
L 213.420813 413.900453 
L 214.641258 407.998575 
L 216.105792 401.99356 
L 217.814415 396.011322 
L 219.523038 390.804052 
L 221.475749 385.532763 
L 223.67255 380.233462 
L 226.11344 374.913669 
L 229.042508 369.091993 
L 232.459754 362.827712 
L 236.853356 355.272849 
L 248.081449 336.229493 
L 251.254606 330.284276 
L 253.939585 324.76093 
L 256.136386 319.730729 
L 258.089097 314.696299 
L 259.79772 309.669558 
L 261.262254 304.703898 
L 262.726788 298.860627 
L 263.947233 293.003138 
L 264.923589 287.348278 
L 265.899945 280.371739 
L 266.632212 273.78716 
L 267.364479 265.279465 
L 268.096746 253.236821 
L 268.584924 241.197385 
L 269.073102 222.300772 
L 269.317191 235.411909 
L 269.56128 193.020764 
L 270.049458 228.769541 
L 270.537636 245.760423 
L 271.269903 260.756165 
L 272.00217 270.684725 
L 272.978526 280.266196 
L 273.954882 287.568273 
L 275.175327 294.845205 
L 276.395771 300.840649 
L 277.860305 306.960877 
L 279.568928 313.154602 
L 281.765729 320.233093 
L 289.576577 344.484905 
L 291.041111 350.14882 
L 292.261556 355.660311 
L 293.482001 362.335703 
L 294.458356 369.042244 
L 295.190623 375.385229 
L 295.92289 383.633142 
L 296.411068 390.936614 
L 296.899246 400.904432 
L 297.387424 416.602652 
L 297.631513 429.783902 
L 298.119691 479.707563 
L 298.36378 437.097586 
L 298.851958 409.832 
L 299.340136 395.759519 
L 300.072403 382.157034 
L 300.80467 372.517562 
L 301.781026 362.660127 
L 303.001471 352.872499 
L 304.466005 343.034731 
L 306.906895 328.458926 
L 309.347785 313.511444 
L 310.56823 304.857321 
L 311.544586 296.690552 
L 312.520941 286.514039 
L 313.253208 276.442177 
L 313.741386 267.538962 
L 314.229564 255.198073 
L 314.717742 234.925701 
L 314.961831 220.587122 
L 315.20592 199.537811 
L 315.694098 238.573095 
L 316.182276 256.314973 
L 316.670454 267.148727 
L 317.402721 278.109097 
L 318.134988 285.918348 
L 319.111344 293.756495 
L 320.0877 299.884369 
L 321.308145 306.110923 
L 322.772679 312.305618 
L 324.481302 318.509617 
L 326.922192 326.459509 
L 330.339437 337.595027 
L 332.04806 344.018047 
L 333.268505 349.433614 
L 334.244861 354.608941 
L 335.221217 361.007551 
L 335.953484 367.114329 
L 336.685751 375.156138 
L 337.173929 382.384751 
L 337.662107 392.432417 
L 338.150285 408.770646 
L 338.394374 423.166459 
L 338.638463 454.437485 
L 338.882552 454.335897 
L 339.126641 422.196772 
L 339.614819 396.954986 
L 340.102997 383.06816 
L 340.835264 369.108592 
L 341.81162 355.82913 
L 343.032065 342.863771 
L 345.472955 320.438615 
L 346.937489 305.786944 
L 347.913845 293.658528 
L 348.646111 281.696579 
L 349.134289 270.8794 
L 349.622467 254.985482 
L 350.110645 227.140832 
L 350.354734 203.200254 
L 350.842912 246.04409 
L 351.33109 263.584593 
L 351.819268 274.144444 
L 352.551535 284.707653 
L 353.283802 292.155861 
L 354.260158 299.570386 
L 355.236514 305.336813 
L 356.456959 311.193918 
L 357.921493 317.063983 
L 359.874205 323.882339 
L 364.023718 338.065226 
L 365.488252 344.144266 
L 366.464608 349.023273 
L 367.440963 355.047814 
L 368.17323 360.80846 
L 368.905497 368.421325 
L 369.393675 375.287499 
L 369.881853 384.847156 
L 370.370031 400.329427 
L 370.61412 413.746628 
L 370.858209 441.079905 
L 371.102298 454.122923 
L 371.346387 416.61979 
L 371.834565 389.66286 
L 372.322743 374.986886 
L 373.05501 360.054469 
L 374.031366 345.39608 
L 375.739989 324.407165 
L 377.204523 305.912833 
L 378.180879 290.31506 
L 378.913146 273.594518 
L 379.401324 255.935329 
L 379.645413 242.415124 
L 379.889502 256.138911 
L 380.133591 216.91813 
L 380.621769 253.404651 
L 381.109947 268.876356 
L 381.598125 278.461162 
L 382.330392 288.140979 
L 383.062659 294.978345 
L 384.039015 301.771892 
L 385.01537 307.042341 
L 386.235815 312.392557 
L 387.700349 317.778723 
L 390.141239 325.690297 
L 392.33804 332.946025 
L 393.802574 338.617771 
L 394.77893 343.215714 
L 395.755286 348.998263 
L 396.487553 354.668511 
L 397.21982 362.415501 
L 397.707998 369.693087 
L 398.196176 380.395238 
L 398.440265 388.289602 
L 398.684354 399.828873 
L 398.928443 420.798405 
L 399.172532 480.59662 
L 399.416621 412.892782 
L 399.904799 381.414829 
L 400.392977 365.161674 
L 401.125244 348.540954 
L 402.1016 331.591459 
L 404.2984 295.339866 
L 405.030667 278.548402 
L 405.518845 262.409822 
L 405.762934 251.397532 
L 406.007023 246.940296 
L 406.251112 204.742704 
L 406.73929 248.041846 
L 407.227468 265.140456 
L 407.715646 275.090477 
L 408.447913 284.678821 
L 409.18018 291.162055 
L 409.912447 295.979142 
L 410.888803 300.878495 
L 411.865159 304.702898 
L 413.085604 308.558243 
L 414.550138 312.374972 
L 416.746939 317.333479 
L 418.94374 322.375342 
L 420.164185 325.745876 
L 421.140541 329.134141 
L 421.872807 332.392265 
L 422.605074 336.702906 
L 423.337341 342.896291 
L 423.825519 348.980044 
L 424.313697 358.264898 
L 424.557786 365.280874 
L 424.801875 375.649512 
L 425.045964 394.320821 
L 425.290053 534.008575 
L 425.534142 390.804391 
L 426.02232 355.820287 
L 426.754587 329.889996 
L 427.975032 299.27633 
L 429.195477 271.604335 
L 429.439566 276.920681 
L 429.683655 253.280983 
L 429.927744 202.076055 
L 430.9041 244.596841 
L 431.392278 253.857436 
L 431.880456 259.487723 
L 432.368634 263.087514 
L 432.856812 265.379596 
L 433.34499 266.735683 
L 433.833168 267.360141 
L 434.077257 267.435627 
L 434.321346 267.365304 
L 434.809524 266.805219 
L 435.297702 265.690305 
L 435.78588 263.990977 
L 436.274058 261.631973 
L 436.762236 258.47441 
L 437.250414 254.274815 
L 437.738592 248.589416 
L 438.22677 240.516829 
L 438.714948 227.795555 
L 438.959037 217.680778 
L 439.447215 178.562176 
L 439.691304 191.543337 
L 440.179481 227.418991 
L 440.667659 243.903736 
L 441.399926 259.358045 
L 442.132193 270.148826 
L 443.108549 281.029996 
L 444.084905 289.651033 
L 445.30535 298.551674 
L 446.769884 307.635425 
L 448.966685 321.031726 
L 449.454863 325.200657 
L 449.943041 331.57087 
L 450.18713 336.929581 
L 450.431219 346.448095 
L 450.675308 372.90918 
L 450.919397 357.99403 
L 451.651664 222.404512 
L 451.895753 232.197646 
L 452.383931 352.863991 
L 452.62802 357.227113 
L 452.872109 340.03595 
L 453.116198 334.836132 
L 453.360287 332.693041 
L 453.604376 331.765852 
L 453.848465 331.422235 
L 454.092554 331.389775 
L 454.580732 331.782323 
L 455.557088 333.179581 
L 457.265711 335.646397 
L 458.486155 336.99737 
L 459.462511 337.765951 
L 460.438867 338.234716 
L 461.171134 338.377799 
L 461.903401 338.331326 
L 462.635668 338.082878 
L 463.367935 337.616349 
L 464.100202 336.910392 
L 464.832469 335.936143 
L 465.564736 334.653752 
L 466.297003 333.006823 
L 467.02927 330.913052 
L 467.761537 328.247468 
L 468.493804 324.810004 
L 469.226071 320.255935 
L 469.958338 313.923185 
L 470.446516 308.040293 
L 470.934694 299.746594 
L 471.422872 286.440209 
L 471.666961 275.411205 
L 471.91105 255.850521 
L 472.155139 174.26518 
L 472.399228 259.367342 
L 472.887406 292.334941 
L 473.375584 309.027718 
L 474.107851 326.056849 
L 475.328296 347.597188 
L 476.792829 373.2959 
L 477.525096 390.890061 
L 478.013274 409.092367 
L 478.257363 423.914031 
L 478.501452 453.153887 
L 478.745541 464.547396 
L 478.98963 429.418397 
L 479.477808 404.984615 
L 479.965986 392.556135 
L 480.698253 380.863842 
L 481.43052 372.764886 
L 482.406876 364.536209 
L 483.627321 356.183921 
L 487.288656 332.614607 
L 488.265012 324.387186 
L 488.997279 316.541836 
L 489.729546 305.867389 
L 490.217724 295.560531 
L 490.705902 279.023046 
L 490.949991 264.575678 
L 491.19408 233.508011 
L 491.438169 232.99016 
L 491.682258 265.137408 
L 492.170436 290.337095 
L 492.658614 304.211996 
L 493.390881 318.274118 
L 494.367237 332.006481 
L 497.784482 374.819043 
L 498.516749 389.726882 
L 499.004927 405.342324 
L 499.249016 417.657107 
L 499.493105 439.05506 
L 499.737194 509.878365 
L 499.981283 434.720514 
L 500.469461 404.59158 
L 500.957639 390.120595 
L 501.689906 376.403992 
L 502.422173 366.619383 
L 503.642618 353.873815 
L 506.571686 325.762385 
L 507.303953 316.532823 
L 508.03622 304.191858 
L 508.524398 292.181107 
L 509.012576 271.834798 
L 509.256665 251.377418 
L 509.500754 196.138943 
L 509.744843 253.545951 
L 510.233021 284.672131 
L 510.721199 299.597211 
L 511.453466 313.84055 
L 512.429822 327.073594 
L 513.894355 342.696085 
L 515.602978 360.92725 
L 516.335245 370.714958 
L 517.067512 383.943485 
L 517.55569 397.24622 
L 517.799779 407.050864 
L 518.043868 421.910094 
L 518.287957 454.14274 
L 518.532046 452.398846 
L 518.776135 421.150676 
L 519.264313 396.536366 
L 519.752491 383.04484 
L 520.484758 369.435947 
L 521.461114 356.173101 
L 524.87836 314.274362 
L 525.610627 299.45807 
L 526.098805 283.880902 
L 526.342894 271.575116 
L 526.586983 250.214106 
L 526.831072 196.310989 
L 527.075161 255.016089 
L 527.563339 284.93368 
L 528.051517 299.40914 
L 528.783784 313.179167 
L 529.76014 325.887364 
L 530.980585 338.420137 
L 532.933296 357.950335 
L 533.665563 367.07502 
L 534.39783 379.209912 
L 534.886008 391.036341 
L 535.374186 411.192145 
L 535.618275 431.661718 
L 535.862364 522.553338 
L 536.106453 428.912448 
L 536.594631 397.415086 
L 537.082809 382.074758 
L 537.815076 367.070342 
L 538.791432 352.491054 
L 541.476411 315.550918 
L 542.208678 300.069449 
L 542.696856 283.872619 
L 542.940945 270.990176 
L 543.185034 248.06553 
L 543.429123 207.712505 
L 543.673212 257.619074 
L 544.16139 285.930484 
L 544.649568 299.913402 
L 545.381835 313.255173 
L 546.358191 325.56365 
L 547.578636 337.700605 
L 549.531347 356.713027 
L 550.263614 365.687031 
L 550.995881 377.74794 
L 551.484059 389.666725 
L 551.972237 410.476146 
L 552.216326 432.67456 
L 552.460415 482.430485 
L 552.704504 423.342164 
L 553.192682 393.460387 
L 553.68086 378.244301 
L 554.413127 362.976887 
L 555.389483 347.639052 
L 557.342195 318.325207 
L 558.074462 302.907101 
L 558.56264 287.444928 
L 558.806729 275.717894 
L 559.050818 256.600514 
L 559.294907 212.952371 
L 559.538996 251.199187 
L 560.027174 283.897215 
L 560.515352 298.658573 
L 561.247619 312.29544 
L 561.979886 321.874033 
L 563.200331 334.307409 
L 565.641221 357.82128 
L 566.373488 367.307707 
L 566.861666 375.602081 
L 567.349844 387.198853 
L 567.838021 407.301452 
L 568.08211 428.216102 
L 568.326199 497.924519 
L 568.570288 422.730925 
L 569.058466 391.4847 
L 569.546644 375.767623 
L 570.278911 359.893129 
L 571.499356 339.794765 
L 572.719801 319.612235 
L 573.452068 303.544451 
L 573.940246 287.49014 
L 574.184335 275.227768 
L 574.428424 254.795085 
L 574.672513 201.558943 
L 574.916602 254.475553 
L 575.40478 285.153268 
L 575.892958 299.398258 
L 576.625225 312.626827 
L 577.357492 321.930301 
L 578.577937 334.019405 
L 580.774738 354.415764 
L 581.507005 363.120572 
L 582.239272 375.022442 
L 582.72745 387.068182 
L 582.971539 395.90442 
L 583.215628 409.025088 
L 583.703806 455.481016 
L 583.947895 414.333011 
L 584.436073 386.469917 
L 584.924251 371.269843 
L 585.656518 355.274641 
L 588.341496 303.499925 
L 588.829674 286.41971 
L 589.073763 273.060275 
L 589.317852 249.454094 
L 589.561941 213.095371 
L 589.80603 259.76514 
L 590.294208 287.113464 
L 590.782386 300.504807 
L 591.514653 313.111268 
L 592.24692 322.02473 
L 593.467365 333.639009 
L 595.664166 353.377634 
L 596.396433 361.910646 
L 597.1287 373.728851 
L 597.616878 385.900393 
L 597.860967 394.991414 
L 598.105056 408.824429 
L 598.349145 438.03363 
L 598.593234 443.565949 
L 598.837323 408.962219 
L 599.325501 382.269392 
L 600.057768 361.030049 
L 601.034124 341.051025 
L 602.254569 316.716898 
L 602.742747 304.232118 
L 603.230925 286.477136 
L 603.475014 272.538242 
L 603.963192 220.768153 
L 604.20728 261.698016 
L 604.695458 287.731047 
L 605.183636 300.630292 
L 605.915903 312.74561 
L 606.64817 321.255385 
L 607.868615 332.234413 
L 610.309505 352.961483 
L 611.041772 361.444256 
L 611.52995 368.940816 
L 612.018128 379.509775 
L 612.506306 397.804661 
L 612.750395 416.168103 
L 612.994484 495.676786 
L 613.238573 418.281191 
L 613.726751 383.21154 
L 614.214929 365.726544 
L 614.947196 347.211292 
L 616.655819 307.282676 
L 617.143997 289.827058 
L 617.388086 276.843782 
L 617.632175 255.518306 
L 617.876264 197.869026 
L 618.120353 256.172994 
L 618.608531 285.173605 
L 619.096709 298.4126 
L 619.828976 310.328262 
L 620.561243 318.380975 
L 621.537599 326.522935 
L 623.246221 338.324614 
L 624.466666 347.293231 
L 625.198933 354.054677 
L 625.9312 363.383759 
L 626.419378 372.7695 
L 626.907556 388.884529 
L 627.151645 404.299853 
L 627.395734 446.109463 
L 627.883912 392.058808 
L 628.37209 366.262946 
L 629.104357 342.447755 
L 630.324802 306.966907 
L 630.81298 286.891469 
L 631.057069 271.73556 
L 631.545247 226.543472 
L 631.789336 261.015488 
L 632.277514 284.40133 
L 632.765692 295.520148 
L 633.25387 302.515391 
L 633.986137 309.44286 
L 634.718404 314.110285 
L 635.450671 317.47651 
L 636.182938 319.987528 
L 636.915205 321.879294 
L 637.647472 323.286679 
L 638.379739 324.29153 
L 639.112006 324.949164 
L 639.844273 325.310088 
L 640.820628 325.474498 
L 641.552895 325.629958 
L 642.041073 326.033958 
L 642.529251 327.012806 
L 643.017429 328.181344 
L 643.261518 326.7414 
L 643.505607 318.447391 
L 643.749696 295.805765 
L 644.481963 188.07992 
L 644.726052 185.869537 
L 644.970141 203.977459 
L 645.21423 278.229884 
L 645.458319 277.645808 
L 645.702408 276.170172 
L 647.166942 306.709599 
L 647.166942 306.709599 
" style="fill:none;stroke:#00bfbf;stroke-dasharray:7.4,3.2;stroke-dashoffset:0;stroke-width:2;"/>
   </g>
   <g id="line2d_29">
    <path clip-path="url(#pc218e52626)" d="M 159.233058 200.683207 
L 171.681596 200.793914 
L 184.618312 201.135568 
L 198.287296 201.72273 
L 213.420813 202.600357 
L 231.483398 203.882497 
L 251.986873 205.334118 
L 256.624564 205.434618 
L 259.309542 205.295019 
L 261.262254 204.974283 
L 262.482699 204.586107 
L 263.459055 204.087266 
L 264.191322 203.532536 
L 264.923589 202.727165 
L 265.655856 201.50578 
L 266.144034 200.307333 
L 266.632212 198.596798 
L 267.12039 196.030538 
L 267.608568 191.913601 
L 268.096746 184.665134 
L 268.340835 178.760626 
L 268.584924 170.026431 
L 268.829013 156.258815 
L 269.073102 132.254967 
L 269.317191 83.005924 
L 269.56128 99.732401 
L 269.805369 146.623426 
L 270.293547 185.664876 
L 270.781725 199.992168 
L 271.269903 205.860952 
L 271.758081 208.501341 
L 272.246259 209.794015 
L 272.734437 210.472437 
L 273.466704 210.973991 
L 274.44306 211.256803 
L 276.395771 211.480698 
L 281.033462 211.98703 
L 284.938886 212.662339 
L 288.600221 213.516825 
L 292.017467 214.547008 
L 294.702445 215.569789 
L 297.143335 216.733278 
L 299.096047 217.895864 
L 300.80467 219.15943 
L 302.269204 220.507284 
L 303.489649 221.899294 
L 304.710094 223.64661 
L 305.68645 225.416891 
L 306.662806 227.682104 
L 307.395073 229.862151 
L 308.12734 232.666542 
L 308.859607 236.445829 
L 309.591874 241.900185 
L 310.080052 247.212386 
L 310.56823 255.137835 
L 311.056408 269.047759 
L 311.300497 281.998313 
L 311.544586 310.992134 
L 311.788675 312.420091 
L 312.032763 277.730925 
L 312.520941 248.778277 
L 313.253208 223.136345 
L 314.229564 195.917571 
L 314.473653 191.288617 
L 314.717742 201.76226 
L 315.20592 76.734332 
L 315.450009 123.907885 
L 315.938187 155.896321 
L 316.426365 169.579115 
L 316.914543 177.646511 
L 317.64681 185.249785 
L 318.379077 190.199387 
L 319.111344 193.739655 
L 320.0877 197.197313 
L 321.064056 199.782743 
L 322.284501 202.274178 
L 323.504946 204.251498 
L 324.96948 206.204393 
L 326.922192 208.387514 
L 329.85126 211.243617 
L 333.756683 215.053238 
L 335.709395 217.276365 
L 337.173929 219.251469 
L 338.394374 221.220962 
L 339.614819 223.64278 
L 340.591175 226.075021 
L 341.567531 229.192723 
L 342.299798 232.22632 
L 343.032065 236.210412 
L 343.764332 241.788171 
L 344.25251 247.052379 
L 344.740688 254.625089 
L 345.228866 267.107227 
L 345.472955 277.703465 
L 345.717044 296.926846 
L 345.961133 387.3354 
L 346.205222 291.672683 
L 346.6934 257.39463 
L 347.425667 231.654599 
L 349.866556 165.179475 
L 350.110645 180.680562 
L 350.354734 77.408105 
L 350.598823 122.96867 
L 351.087001 152.821946 
L 351.575179 165.943861 
L 352.063357 173.893436 
L 352.795624 181.590568 
L 353.527891 186.740039 
L 354.260158 190.508063 
L 355.236514 194.272617 
L 356.21287 197.154963 
L 357.433315 200.001918 
L 358.897849 202.744349 
L 360.606472 205.412066 
L 363.291451 209.089922 
L 366.220519 213.134703 
L 367.929141 215.884193 
L 369.149586 218.233811 
L 370.370031 221.133367 
L 371.346387 224.095314 
L 372.078654 226.913162 
L 372.810921 230.536626 
L 373.543188 235.480063 
L 374.031366 240.011452 
L 374.519544 246.288157 
L 375.007722 255.918637 
L 375.251811 263.266676 
L 375.4959 274.303502 
L 375.739989 295.096552 
L 375.984078 346.030112 
L 376.228167 283.818212 
L 376.716345 250.965459 
L 377.448612 225.049779 
L 379.645413 163.914787 
L 379.889502 103.63138 
L 380.133591 100.895992 
L 380.37768 131.368246 
L 380.865858 155.420191 
L 381.354036 166.978904 
L 381.842214 174.201037 
L 382.574481 181.323229 
L 383.306748 186.153045 
L 384.039015 189.721706 
L 385.01537 193.322143 
L 385.991726 196.110424 
L 387.212171 198.903856 
L 388.676705 201.652137 
L 390.629417 204.788154 
L 394.534841 210.870171 
L 395.999375 213.636252 
L 397.21982 216.486539 
L 398.196176 219.388991 
L 398.928443 222.159514 
L 399.66071 225.750399 
L 400.392977 230.718334 
L 400.881155 235.354468 
L 401.369333 241.924662 
L 401.857511 252.40383 
L 402.1016 260.810564 
L 402.345689 274.400505 
L 402.589778 306.640519 
L 402.833867 298.650781 
L 403.077956 266.971495 
L 403.566133 238.816941 
L 404.2984 213.162568 
L 405.518845 177.368802 
L 405.762934 176.936639 
L 406.007023 138.109376 
L 406.251112 77.513295 
L 406.495201 120.404744 
L 406.983379 150.188658 
L 407.471557 163.18395 
L 407.959735 170.93271 
L 408.692002 178.306674 
L 409.424269 183.152571 
L 410.156536 186.64672 
L 411.132892 190.088975 
L 412.109248 192.689509 
L 413.329693 195.229405 
L 414.794227 197.658725 
L 416.50285 200.037581 
L 420.408274 205.268066 
L 421.628718 207.341088 
L 422.605074 209.424014 
L 423.337341 211.398497 
L 424.069608 213.935089 
L 424.801875 217.374889 
L 425.290053 220.473693 
L 425.778231 224.615336 
L 426.266409 230.4764 
L 426.754587 239.530628 
L 427.242765 256.030062 
L 427.486854 271.925645 
L 427.730943 311.547013 
L 428.219121 274.494844 
L 428.46321 277.988822 
L 428.707299 278.427249 
L 429.195477 179.517255 
L 429.927744 59.165771 
L 430.415922 113.241189 
L 430.9041 135.842008 
L 431.392278 147.355346 
L 431.880456 154.188061 
L 432.368634 158.543195 
L 432.856812 161.382661 
L 433.34499 163.189371 
L 433.833168 164.224885 
L 434.321346 164.633156 
L 434.565435 164.626859 
L 434.809524 164.486717 
L 435.297702 163.807282 
L 435.78588 162.572359 
L 436.274058 160.711066 
L 436.762236 158.086761 
L 437.250414 154.455731 
L 437.738592 149.369416 
L 438.22677 141.90932 
L 438.714948 129.746351 
L 438.959037 119.798976 
L 439.203126 103.199123 
L 439.447215 103.533034 
L 439.691304 97.227276 
L 440.179481 132.973958 
L 440.667659 150.233151 
L 441.399926 167.171448 
L 442.376282 183.279363 
L 443.596727 198.972498 
L 445.061261 214.698733 
L 446.525795 228.162343 
L 447.502151 235.475901 
L 448.234418 239.461471 
L 448.722596 241.088135 
L 448.966685 241.535115 
L 449.210774 241.729779 
L 449.454863 241.690486 
L 449.943041 241.229593 
L 450.18713 241.280262 
L 450.431219 242.473994 
L 450.675308 247.583415 
L 450.919397 276.198799 
L 451.407575 175.351599 
L 451.651664 105.028717 
L 451.895753 100.899787 
L 452.139842 146.365201 
L 452.62802 181.130194 
L 453.116198 196.993339 
L 453.604376 206.35283 
L 454.092554 212.537404 
L 454.824821 218.636182 
L 455.557088 222.626122 
L 456.289355 225.44703 
L 457.265711 228.197784 
L 458.486155 230.821741 
L 461.903401 237.613416 
L 462.879757 240.206303 
L 463.856113 243.554578 
L 464.58838 246.879132 
L 465.320647 251.374269 
L 465.808825 255.436921 
L 466.297003 260.945567 
L 466.785181 269.061613 
L 467.273359 283.077689 
L 467.517448 295.902144 
L 467.761537 323.689852 
L 468.005626 330.101799 
L 468.249715 293.831811 
L 468.737893 264.923788 
L 469.47016 240.09877 
L 471.178783 190.197158 
L 471.666961 166.112471 
L 471.91105 143.797633 
L 472.155139 60.461974 
L 472.399228 143.239364 
L 472.887406 171.381057 
L 473.375584 183.526644 
L 473.863762 190.983676 
L 474.596029 198.338393 
L 475.328296 203.386317 
L 476.304651 208.285642 
L 477.281007 212.047038 
L 478.501452 215.917736 
L 482.895054 228.971941 
L 483.87141 233.03438 
L 484.603677 236.952978 
L 485.335944 242.209619 
L 485.824122 247.010401 
L 486.3123 253.708546 
L 486.800478 264.234118 
L 487.044567 272.580629 
L 487.288656 285.913092 
L 487.532745 316.461018 
L 487.776834 313.387403 
L 488.020923 280.28182 
L 488.509101 251.7486 
L 489.241368 225.830767 
L 490.461813 184.910866 
L 490.949991 156.514359 
L 491.19408 123.899906 
L 491.438169 119.494794 
L 491.682258 150.450932 
L 492.170436 172.269216 
L 492.658614 182.84913 
L 493.146792 189.587651 
L 493.879059 196.40035 
L 494.611325 201.183691 
L 495.587681 205.935058 
L 496.808126 210.521393 
L 498.516749 215.866294 
L 500.71355 222.701584 
L 501.689906 226.335117 
L 502.666262 230.881753 
L 503.398529 235.394159 
L 504.130796 241.712851 
L 504.618974 247.831739 
L 505.107152 257.132939 
L 505.351241 264.186722 
L 505.59533 274.708262 
L 505.839419 294.120349 
L 506.083508 367.484983 
L 506.327597 286.473768 
L 506.815775 251.687458 
L 507.548042 223.51377 
L 508.524398 189.824723 
L 509.012576 165.066981 
L 509.256665 143.048303 
L 509.500754 65.486111 
L 509.744843 139.509501 
L 510.233021 167.974492 
L 510.721199 179.985905 
L 511.209377 187.306781 
L 511.941644 194.523507 
L 512.673911 199.511814 
L 513.650266 204.431423 
L 514.870711 209.180414 
L 516.823423 215.551022 
L 518.532046 221.276072 
L 519.508402 225.200919 
L 520.240669 228.820172 
L 520.972936 233.475686 
L 521.705203 240.058624 
L 522.193381 246.539186 
L 522.681559 256.665635 
L 522.925648 264.642616 
L 523.169737 277.234344 
L 523.413826 304.671198 
L 523.657915 311.067632 
L 523.902004 274.271902 
L 524.390182 244.232614 
L 525.366538 208.095728 
L 526.098805 178.85947 
L 526.342894 164.582276 
L 526.586983 141.912978 
L 526.831072 68.432975 
L 527.075161 140.555892 
L 527.563339 168.09343 
L 528.051517 179.862321 
L 528.539695 187.056789 
L 529.271962 194.16824 
L 530.004229 199.104687 
L 530.980585 204.00687 
L 532.201029 208.798691 
L 536.350542 223.765046 
L 537.082809 227.510493 
L 537.815076 232.368131 
L 538.303254 236.680685 
L 538.791432 242.532325 
L 539.27961 251.341328 
L 539.523699 257.94485 
L 539.767788 267.630334 
L 540.011877 284.711133 
L 540.255966 355.809262 
L 540.500055 285.751697 
L 540.988233 247.497429 
L 541.7205 217.412738 
L 542.696856 178.423865 
L 542.940945 163.62328 
L 543.185034 139.627803 
L 543.429123 87.118531 
L 543.673212 142.728775 
L 544.16139 168.749282 
L 544.649568 180.143747 
L 545.137746 187.154956 
L 545.870013 194.117735 
L 546.60228 198.977204 
L 547.578636 203.839146 
L 548.799081 208.65295 
L 552.216326 221.164113 
L 553.192682 226.039194 
L 553.924949 230.937139 
L 554.413127 235.301683 
L 554.901305 241.263208 
L 555.389483 250.352286 
L 555.633572 257.280613 
L 555.877661 267.67644 
L 556.12175 287.043625 
L 556.365839 355.836586 
L 556.609928 278.252384 
L 557.098106 242.838891 
L 557.830373 212.545122 
L 558.56264 182.437615 
L 558.806729 168.646747 
L 559.294907 125.985399 
L 559.538996 136.090031 
L 559.783085 156.193225 
L 560.271263 173.897408 
L 560.759441 183.11186 
L 561.491708 191.487116 
L 562.223975 196.992252 
L 563.200331 202.283927 
L 564.420776 207.360457 
L 568.08211 221.322887 
L 568.814377 225.207556 
L 569.546644 230.311519 
L 570.034822 234.93851 
L 570.523 241.408623 
L 571.011178 251.701206 
L 571.255267 260.01216 
L 571.499356 273.618859 
L 571.743445 307.174779 
L 571.987534 294.58916 
L 572.231623 263.499183 
L 572.719801 234.145345 
L 574.184335 168.00566 
L 574.428424 146.278945 
L 574.672513 62.928364 
L 574.916602 139.2448 
L 575.40478 167.891576 
L 575.892958 179.653825 
L 576.381136 186.73839 
L 577.113403 193.688823 
L 577.84567 198.511057 
L 578.822026 203.342732 
L 580.042471 208.184023 
L 582.72745 218.299551 
L 583.703806 223.095598 
L 584.436073 227.891022 
L 584.924251 232.170124 
L 585.412429 238.044922 
L 585.900607 247.096455 
L 586.144695 254.087577 
L 586.388784 264.752125 
L 586.632873 285.377084 
L 586.876962 330.311912 
L 587.121051 271.125 
L 587.609229 236.282843 
L 589.073763 165.754047 
L 589.317852 141.182276 
L 589.561941 93.419062 
L 589.80603 144.549698 
L 590.294208 169.712448 
L 590.782386 180.668549 
L 591.270564 187.369018 
L 592.002831 194.0003 
L 592.735098 198.634256 
L 593.711454 203.312276 
L 595.175988 208.937948 
L 597.1287 216.212992 
L 598.105056 220.709679 
L 598.837323 225.100018 
L 599.56959 231.295116 
L 600.057768 237.45666 
L 600.545946 247.289092 
L 600.790035 255.240743 
L 601.034124 268.220124 
L 601.278213 299.237435 
L 601.522302 292.141666 
L 601.766391 259.06186 
L 602.254569 228.14587 
L 603.475014 165.721973 
L 603.963192 103.291382 
L 604.20728 146.813072 
L 604.695458 170.638284 
L 605.183636 181.160946 
L 605.671814 187.603629 
L 606.404081 193.973676 
L 607.136348 198.419079 
L 608.112704 202.904351 
L 609.577238 208.312178 
L 611.52995 215.413698 
L 612.506306 219.935517 
L 613.238573 224.494872 
L 613.726751 228.620668 
L 614.214929 234.394665 
L 614.703107 243.576542 
L 614.947196 250.939933 
L 615.191285 262.736799 
L 615.435374 288.698192 
L 615.679463 297.008096 
L 615.923552 257.995243 
L 616.41173 224.691338 
L 617.388086 171.886325 
L 617.632175 149.279898 
L 617.876264 70.048345 
L 618.120353 142.338904 
L 618.364442 159.848136 
L 618.85262 175.708214 
L 619.340798 183.914616 
L 619.828976 189.213026 
L 620.561243 194.609278 
L 621.29351 198.443135 
L 622.269866 202.34612 
L 623.734399 207.075722 
L 625.687111 213.364485 
L 626.419378 216.339802 
L 627.151645 220.211739 
L 627.639823 223.719352 
L 628.128001 228.631886 
L 628.616179 236.40646 
L 628.860268 242.54632 
L 629.104357 252.051287 
L 629.348446 270.47256 
L 629.592535 334.340709 
L 629.836624 258.198573 
L 630.324802 218.325757 
L 631.057069 170.88556 
L 631.545247 113.655328 
L 631.789336 150.000701 
L 632.277514 171.518862 
L 632.765692 180.698846 
L 633.25387 186.057434 
L 633.986137 191.00896 
L 634.718404 194.12291 
L 635.450671 196.235025 
L 636.182938 197.707613 
L 636.915205 198.71417 
L 637.647472 199.33431 
L 638.379739 199.588467 
L 638.867917 199.541857 
L 639.356095 199.297188 
L 639.844273 198.815754 
L 640.332451 198.035917 
L 640.820628 196.859365 
L 641.308806 195.124289 
L 641.796984 192.549001 
L 642.285162 188.601063 
L 642.77334 182.152896 
L 643.261518 170.437629 
L 643.505607 160.548958 
L 643.749696 145.578911 
L 644.237874 89.236479 
L 644.481963 61.667181 
L 644.726052 57.646714 
L 644.970141 79.104809 
L 645.458319 156.325003 
L 645.946497 203.592716 
L 646.434675 227.181544 
L 646.922853 235.958307 
L 647.166942 237.499892 
L 647.166942 237.499892 
" style="fill:none;stroke:#ff0000;stroke-dasharray:7.4,3.2;stroke-dashoffset:0;stroke-width:2;"/>
   </g>
   <g id="patch_3">
    <path d="M 108 720.9 
L 108 56.7 
" style="fill:none;stroke:#000000;stroke-linecap:square;stroke-linejoin:miter;stroke-width:0.8;"/>
   </g>
   <g id="patch_4">
    <path d="M 698.4 720.9 
L 698.4 56.7 
" style="fill:none;stroke:#000000;stroke-linecap:square;stroke-linejoin:miter;stroke-width:0.8;"/>
   </g>
   <g id="patch_5">
    <path d="M 108 720.9 
L 698.4 720.9 
" style="fill:none;stroke:#000000;stroke-linecap:square;stroke-linejoin:miter;stroke-width:0.8;"/>
   </g>
   <g id="patch_6">
    <path d="M 108 56.7 
L 698.4 56.7 
" style="fill:none;stroke:#000000;stroke-linecap:square;stroke-linejoin:miter;stroke-width:0.8;"/>
   </g>
   <g id="text_16">
    <!-- $N=20, ka=15, k_p=1.0001, kd=45$  -->
    <g transform="translate(220.3 50.5)scale(0.2 -0.2)">
     <defs>
      <path d="M 16.890625 72.90625 
L 30.171875 72.90625 
L 50.296875 10.40625 
L 62.5 72.90625 
L 72.125 72.90625 
L 57.90625 0 
L 44.578125 0 
L 24.515625 62.890625 
L 12.3125 0 
L 2.6875 0 
z
" id="DejaVuSans-Oblique-78"/>
      <path d="M 10.59375 45.40625 
L 73.1875 45.40625 
L 73.1875 37.203125 
L 10.59375 37.203125 
z
M 10.59375 25.484375 
L 73.1875 25.484375 
L 73.1875 17.1875 
L 10.59375 17.1875 
z
" id="DejaVuSans-61"/>
      <path d="M 11.71875 12.40625 
L 22.015625 12.40625 
L 22.015625 4 
L 14.015625 -11.625 
L 7.71875 -11.625 
L 11.71875 4 
z
" id="DejaVuSans-44"/>
      <path d="M 18.3125 75.984375 
L 27.296875 75.984375 
L 18.703125 31.6875 
L 49.515625 54.6875 
L 61.1875 54.6875 
L 26.8125 28.515625 
L 51.90625 0 
L 41.015625 0 
L 17.671875 26.703125 
L 12.5 0 
L 3.515625 0 
z
" id="DejaVuSans-Oblique-107"/>
      <path d="M 53.71875 31.203125 
L 47.609375 0 
L 38.625 0 
L 40.28125 8.296875 
Q 36.328125 3.421875 31.265625 1 
Q 26.21875 -1.421875 20.015625 -1.421875 
Q 13.03125 -1.421875 8.5625 2.84375 
Q 4.109375 7.125 4.109375 13.8125 
Q 4.109375 23.390625 11.75 28.953125 
Q 19.390625 34.515625 32.8125 34.515625 
L 45.3125 34.515625 
L 45.796875 36.921875 
Q 45.90625 37.3125 45.953125 37.765625 
Q 46 38.234375 46 39.203125 
Q 46 43.5625 42.453125 45.96875 
Q 38.921875 48.390625 32.515625 48.390625 
Q 28.125 48.390625 23.5 47.265625 
Q 18.890625 46.140625 14.015625 43.890625 
L 15.578125 52.203125 
Q 20.65625 54.109375 25.515625 55.046875 
Q 30.375 56 34.90625 56 
Q 44.578125 56 49.625 51.796875 
Q 54.6875 47.609375 54.6875 39.59375 
Q 54.6875 37.984375 54.4375 35.8125 
Q 54.203125 33.640625 53.71875 31.203125 
z
M 44 27.484375 
L 35.015625 27.484375 
Q 23.96875 27.484375 18.671875 24.53125 
Q 13.375 21.578125 13.375 15.375 
Q 13.375 11.078125 16.078125 8.640625 
Q 18.796875 6.203125 23.578125 6.203125 
Q 30.90625 6.203125 36.375 11.453125 
Q 41.84375 16.703125 43.609375 25.484375 
z
" id="DejaVuSans-Oblique-97"/>
      <path d="M 49.609375 33.6875 
Q 49.609375 40.875 46.484375 44.671875 
Q 43.359375 48.484375 37.5 48.484375 
Q 33.5 48.484375 29.859375 46.4375 
Q 26.21875 44.390625 23.390625 40.484375 
Q 20.609375 36.625 18.9375 31.15625 
Q 17.28125 25.6875 17.28125 20.3125 
Q 17.28125 13.484375 20.40625 9.796875 
Q 23.53125 6.109375 29.296875 6.109375 
Q 33.546875 6.109375 37.1875 8.109375 
Q 40.828125 10.109375 43.40625 13.921875 
Q 46.1875 17.921875 47.890625 23.34375 
Q 49.609375 28.765625 49.609375 33.6875 
z
M 21.78125 46.390625 
Q 25.390625 51.125 30.296875 53.5625 
Q 35.203125 56 41.21875 56 
Q 49.609375 56 54.25 50.5 
Q 58.890625 45.015625 58.890625 35.109375 
Q 58.890625 27 56 19.65625 
Q 53.125 12.3125 47.703125 6.5 
Q 44.09375 2.640625 39.546875 0.609375 
Q 35.015625 -1.421875 29.984375 -1.421875 
Q 24.171875 -1.421875 20.21875 1 
Q 16.265625 3.421875 14.3125 8.203125 
L 8.6875 -20.796875 
L -0.296875 -20.796875 
L 14.40625 54.6875 
L 23.390625 54.6875 
z
" id="DejaVuSans-Oblique-112"/>
      <path d="M 10.6875 12.40625 
L 21 12.40625 
L 21 0 
L 10.6875 0 
z
" id="DejaVuSans-46"/>
      <path d="M 41.796875 8.203125 
Q 38.1875 3.46875 33.25 1.015625 
Q 28.328125 -1.421875 22.3125 -1.421875 
Q 14.109375 -1.421875 9.34375 4.171875 
Q 4.59375 9.765625 4.59375 19.484375 
Q 4.59375 27.59375 7.46875 34.9375 
Q 10.359375 42.28125 15.828125 48.09375 
Q 19.4375 51.953125 23.96875 53.96875 
Q 28.515625 56 33.5 56 
Q 38.765625 56 42.796875 53.453125 
Q 46.828125 50.921875 49.03125 46.1875 
L 54.890625 75.984375 
L 63.921875 75.984375 
L 49.125 0 
L 40.09375 0 
z
M 13.921875 21.09375 
Q 13.921875 14.015625 17.109375 10.0625 
Q 20.3125 6.109375 25.984375 6.109375 
Q 30.171875 6.109375 33.765625 8.125 
Q 37.359375 10.15625 40.09375 14.109375 
Q 42.96875 18.21875 44.625 23.578125 
Q 46.296875 28.953125 46.296875 34.1875 
Q 46.296875 40.96875 43.09375 44.765625 
Q 39.890625 48.578125 34.28125 48.578125 
Q 30.03125 48.578125 26.359375 46.578125 
Q 22.703125 44.578125 20.125 40.828125 
Q 17.28125 36.765625 15.59375 31.390625 
Q 13.921875 26.03125 13.921875 21.09375 
z
" id="DejaVuSans-Oblique-100"/>
      <path id="DejaVuSans-32"/>
     </defs>
     <use transform="translate(0 0.015625)" xlink:href="#DejaVuSans-Oblique-78"/>
     <use transform="translate(94.287109 0.015625)" xlink:href="#DejaVuSans-61"/>
     <use transform="translate(197.558594 0.015625)" xlink:href="#DejaVuSans-50"/>
     <use transform="translate(261.181641 0.015625)" xlink:href="#DejaVuSans-48"/>
     <use transform="translate(324.804688 0.015625)" xlink:href="#DejaVuSans-44"/>
     <use transform="translate(376.074219 0.015625)" xlink:href="#DejaVuSans-Oblique-107"/>
     <use transform="translate(433.984375 0.015625)" xlink:href="#DejaVuSans-Oblique-97"/>
     <use transform="translate(514.746094 0.015625)" xlink:href="#DejaVuSans-61"/>
     <use transform="translate(618.017578 0.015625)" xlink:href="#DejaVuSans-49"/>
     <use transform="translate(681.640625 0.015625)" xlink:href="#DejaVuSans-53"/>
     <use transform="translate(745.263672 0.015625)" xlink:href="#DejaVuSans-44"/>
     <use transform="translate(796.533203 0.015625)" xlink:href="#DejaVuSans-Oblique-107"/>
     <use transform="translate(854.443359 -16.390625)scale(0.7)" xlink:href="#DejaVuSans-Oblique-112"/>
     <use transform="translate(921.09375 0.015625)" xlink:href="#DejaVuSans-61"/>
     <use transform="translate(1024.365234 0.015625)" xlink:href="#DejaVuSans-49"/>
     <use transform="translate(1087.988281 0.015625)" xlink:href="#DejaVuSans-46"/>
     <use transform="translate(1119.775391 0.015625)" xlink:href="#DejaVuSans-48"/>
     <use transform="translate(1183.398438 0.015625)" xlink:href="#DejaVuSans-48"/>
     <use transform="translate(1247.021484 0.015625)" xlink:href="#DejaVuSans-48"/>
     <use transform="translate(1310.644531 0.015625)" xlink:href="#DejaVuSans-49"/>
     <use transform="translate(1374.267578 0.015625)" xlink:href="#DejaVuSans-44"/>
     <use transform="translate(1425.537109 0.015625)" xlink:href="#DejaVuSans-Oblique-107"/>
     <use transform="translate(1483.447266 0.015625)" xlink:href="#DejaVuSans-Oblique-100"/>
     <use transform="translate(1566.40625 0.015625)" xlink:href="#DejaVuSans-61"/>
     <use transform="translate(1669.677734 0.015625)" xlink:href="#DejaVuSans-52"/>
     <use transform="translate(1733.300781 0.015625)" xlink:href="#DejaVuSans-53"/>
     <use transform="translate(1796.923828 0.015625)" xlink:href="#DejaVuSans-32"/>
    </g>
   </g>
   <g id="legend_1">
    <g id="patch_7">
     <path d="M 122 160.76875 
L 290.515625 160.76875 
Q 294.515625 160.76875 294.515625 156.76875 
L 294.515625 70.7 
Q 294.515625 66.7 290.515625 66.7 
L 122 66.7 
Q 118 66.7 118 70.7 
L 118 156.76875 
Q 118 160.76875 122 160.76875 
z
" style="fill:#ffffff;opacity:0.8;stroke:#cccccc;stroke-linejoin:miter;"/>
    </g>
    <g id="line2d_30">
     <path d="M 126 82.896875 
L 166 82.896875 
" style="fill:none;stroke:#008000;stroke-dasharray:7.4,3.2;stroke-dashoffset:0;stroke-width:2;"/>
    </g>
    <g id="line2d_31"/>
    <g id="text_17">
     <!-- forward -->
     <g transform="translate(182 89.896875)scale(0.2 -0.2)">
      <defs>
       <path d="M 37.109375 75.984375 
L 37.109375 68.5 
L 28.515625 68.5 
Q 23.6875 68.5 21.796875 66.546875 
Q 19.921875 64.59375 19.921875 59.515625 
L 19.921875 54.6875 
L 34.71875 54.6875 
L 34.71875 47.703125 
L 19.921875 47.703125 
L 19.921875 0 
L 10.890625 0 
L 10.890625 47.703125 
L 2.296875 47.703125 
L 2.296875 54.6875 
L 10.890625 54.6875 
L 10.890625 58.5 
Q 10.890625 67.625 15.140625 71.796875 
Q 19.390625 75.984375 28.609375 75.984375 
z
" id="DejaVuSans-102"/>
       <path d="M 30.609375 48.390625 
Q 23.390625 48.390625 19.1875 42.75 
Q 14.984375 37.109375 14.984375 27.296875 
Q 14.984375 17.484375 19.15625 11.84375 
Q 23.34375 6.203125 30.609375 6.203125 
Q 37.796875 6.203125 41.984375 11.859375 
Q 46.1875 17.53125 46.1875 27.296875 
Q 46.1875 37.015625 41.984375 42.703125 
Q 37.796875 48.390625 30.609375 48.390625 
z
M 30.609375 56 
Q 42.328125 56 49.015625 48.375 
Q 55.71875 40.765625 55.71875 27.296875 
Q 55.71875 13.875 49.015625 6.21875 
Q 42.328125 -1.421875 30.609375 -1.421875 
Q 18.84375 -1.421875 12.171875 6.21875 
Q 5.515625 13.875 5.515625 27.296875 
Q 5.515625 40.765625 12.171875 48.375 
Q 18.84375 56 30.609375 56 
z
" id="DejaVuSans-111"/>
       <path d="M 41.109375 46.296875 
Q 39.59375 47.171875 37.8125 47.578125 
Q 36.03125 48 33.890625 48 
Q 26.265625 48 22.1875 43.046875 
Q 18.109375 38.09375 18.109375 28.8125 
L 18.109375 0 
L 9.078125 0 
L 9.078125 54.6875 
L 18.109375 54.6875 
L 18.109375 46.1875 
Q 20.953125 51.171875 25.484375 53.578125 
Q 30.03125 56 36.53125 56 
Q 37.453125 56 38.578125 55.875 
Q 39.703125 55.765625 41.0625 55.515625 
z
" id="DejaVuSans-114"/>
       <path d="M 4.203125 54.6875 
L 13.1875 54.6875 
L 24.421875 12.015625 
L 35.59375 54.6875 
L 46.1875 54.6875 
L 57.421875 12.015625 
L 68.609375 54.6875 
L 77.59375 54.6875 
L 63.28125 0 
L 52.6875 0 
L 40.921875 44.828125 
L 29.109375 0 
L 18.5 0 
z
" id="DejaVuSans-119"/>
       <path d="M 34.28125 27.484375 
Q 23.390625 27.484375 19.1875 25 
Q 14.984375 22.515625 14.984375 16.5 
Q 14.984375 11.71875 18.140625 8.90625 
Q 21.296875 6.109375 26.703125 6.109375 
Q 34.1875 6.109375 38.703125 11.40625 
Q 43.21875 16.703125 43.21875 25.484375 
L 43.21875 27.484375 
z
M 52.203125 31.203125 
L 52.203125 0 
L 43.21875 0 
L 43.21875 8.296875 
Q 40.140625 3.328125 35.546875 0.953125 
Q 30.953125 -1.421875 24.3125 -1.421875 
Q 15.921875 -1.421875 10.953125 3.296875 
Q 6 8.015625 6 15.921875 
Q 6 25.140625 12.171875 29.828125 
Q 18.359375 34.515625 30.609375 34.515625 
L 43.21875 34.515625 
L 43.21875 35.40625 
Q 43.21875 41.609375 39.140625 45 
Q 35.0625 48.390625 27.6875 48.390625 
Q 23 48.390625 18.546875 47.265625 
Q 14.109375 46.140625 10.015625 43.890625 
L 10.015625 52.203125 
Q 14.9375 54.109375 19.578125 55.046875 
Q 24.21875 56 28.609375 56 
Q 40.484375 56 46.34375 49.84375 
Q 52.203125 43.703125 52.203125 31.203125 
z
" id="DejaVuSans-97"/>
       <path d="M 45.40625 46.390625 
L 45.40625 75.984375 
L 54.390625 75.984375 
L 54.390625 0 
L 45.40625 0 
L 45.40625 8.203125 
Q 42.578125 3.328125 38.25 0.953125 
Q 33.9375 -1.421875 27.875 -1.421875 
Q 17.96875 -1.421875 11.734375 6.484375 
Q 5.515625 14.40625 5.515625 27.296875 
Q 5.515625 40.1875 11.734375 48.09375 
Q 17.96875 56 27.875 56 
Q 33.9375 56 38.25 53.625 
Q 42.578125 51.265625 45.40625 46.390625 
z
M 14.796875 27.296875 
Q 14.796875 17.390625 18.875 11.75 
Q 22.953125 6.109375 30.078125 6.109375 
Q 37.203125 6.109375 41.296875 11.75 
Q 45.40625 17.390625 45.40625 27.296875 
Q 45.40625 37.203125 41.296875 42.84375 
Q 37.203125 48.484375 30.078125 48.484375 
Q 22.953125 48.484375 18.875 42.84375 
Q 14.796875 37.203125 14.796875 27.296875 
z
" id="DejaVuSans-100"/>
      </defs>
      <use xlink:href="#DejaVuSans-102"/>
      <use x="35.205078" xlink:href="#DejaVuSans-111"/>
      <use x="96.386719" xlink:href="#DejaVuSans-114"/>
      <use x="137.5" xlink:href="#DejaVuSans-119"/>
      <use x="219.287109" xlink:href="#DejaVuSans-97"/>
      <use x="280.566406" xlink:href="#DejaVuSans-114"/>
      <use x="319.929688" xlink:href="#DejaVuSans-100"/>
     </g>
    </g>
    <g id="line2d_32">
     <path d="M 126 112.253125 
L 166 112.253125 
" style="fill:none;stroke:#00bfbf;stroke-dasharray:7.4,3.2;stroke-dashoffset:0;stroke-width:2;"/>
    </g>
    <g id="line2d_33"/>
    <g id="text_18">
     <!-- secondary -->
     <g transform="translate(182 119.253125)scale(0.2 -0.2)">
      <defs>
       <path d="M 44.28125 53.078125 
L 44.28125 44.578125 
Q 40.484375 46.53125 36.375 47.5 
Q 32.28125 48.484375 27.875 48.484375 
Q 21.1875 48.484375 17.84375 46.4375 
Q 14.5 44.390625 14.5 40.28125 
Q 14.5 37.15625 16.890625 35.375 
Q 19.28125 33.59375 26.515625 31.984375 
L 29.59375 31.296875 
Q 39.15625 29.25 43.1875 25.515625 
Q 47.21875 21.78125 47.21875 15.09375 
Q 47.21875 7.46875 41.1875 3.015625 
Q 35.15625 -1.421875 24.609375 -1.421875 
Q 20.21875 -1.421875 15.453125 -0.5625 
Q 10.6875 0.296875 5.421875 2 
L 5.421875 11.28125 
Q 10.40625 8.6875 15.234375 7.390625 
Q 20.0625 6.109375 24.8125 6.109375 
Q 31.15625 6.109375 34.5625 8.28125 
Q 37.984375 10.453125 37.984375 14.40625 
Q 37.984375 18.0625 35.515625 20.015625 
Q 33.0625 21.96875 24.703125 23.78125 
L 21.578125 24.515625 
Q 13.234375 26.265625 9.515625 29.90625 
Q 5.8125 33.546875 5.8125 39.890625 
Q 5.8125 47.609375 11.28125 51.796875 
Q 16.75 56 26.8125 56 
Q 31.78125 56 36.171875 55.265625 
Q 40.578125 54.546875 44.28125 53.078125 
z
" id="DejaVuSans-115"/>
       <path d="M 56.203125 29.59375 
L 56.203125 25.203125 
L 14.890625 25.203125 
Q 15.484375 15.921875 20.484375 11.0625 
Q 25.484375 6.203125 34.421875 6.203125 
Q 39.59375 6.203125 44.453125 7.46875 
Q 49.3125 8.734375 54.109375 11.28125 
L 54.109375 2.78125 
Q 49.265625 0.734375 44.1875 -0.34375 
Q 39.109375 -1.421875 33.890625 -1.421875 
Q 20.796875 -1.421875 13.15625 6.1875 
Q 5.515625 13.8125 5.515625 26.8125 
Q 5.515625 40.234375 12.765625 48.109375 
Q 20.015625 56 32.328125 56 
Q 43.359375 56 49.78125 48.890625 
Q 56.203125 41.796875 56.203125 29.59375 
z
M 47.21875 32.234375 
Q 47.125 39.59375 43.09375 43.984375 
Q 39.0625 48.390625 32.421875 48.390625 
Q 24.90625 48.390625 20.390625 44.140625 
Q 15.875 39.890625 15.1875 32.171875 
z
" id="DejaVuSans-101"/>
       <path d="M 48.78125 52.59375 
L 48.78125 44.1875 
Q 44.96875 46.296875 41.140625 47.34375 
Q 37.3125 48.390625 33.40625 48.390625 
Q 24.65625 48.390625 19.8125 42.84375 
Q 14.984375 37.3125 14.984375 27.296875 
Q 14.984375 17.28125 19.8125 11.734375 
Q 24.65625 6.203125 33.40625 6.203125 
Q 37.3125 6.203125 41.140625 7.25 
Q 44.96875 8.296875 48.78125 10.40625 
L 48.78125 2.09375 
Q 45.015625 0.34375 40.984375 -0.53125 
Q 36.96875 -1.421875 32.421875 -1.421875 
Q 20.0625 -1.421875 12.78125 6.34375 
Q 5.515625 14.109375 5.515625 27.296875 
Q 5.515625 40.671875 12.859375 48.328125 
Q 20.21875 56 33.015625 56 
Q 37.15625 56 41.109375 55.140625 
Q 45.0625 54.296875 48.78125 52.59375 
z
" id="DejaVuSans-99"/>
       <path d="M 54.890625 33.015625 
L 54.890625 0 
L 45.90625 0 
L 45.90625 32.71875 
Q 45.90625 40.484375 42.875 44.328125 
Q 39.84375 48.1875 33.796875 48.1875 
Q 26.515625 48.1875 22.3125 43.546875 
Q 18.109375 38.921875 18.109375 30.90625 
L 18.109375 0 
L 9.078125 0 
L 9.078125 54.6875 
L 18.109375 54.6875 
L 18.109375 46.1875 
Q 21.34375 51.125 25.703125 53.5625 
Q 30.078125 56 35.796875 56 
Q 45.21875 56 50.046875 50.171875 
Q 54.890625 44.34375 54.890625 33.015625 
z
" id="DejaVuSans-110"/>
       <path d="M 32.171875 -5.078125 
Q 28.375 -14.84375 24.75 -17.8125 
Q 21.140625 -20.796875 15.09375 -20.796875 
L 7.90625 -20.796875 
L 7.90625 -13.28125 
L 13.1875 -13.28125 
Q 16.890625 -13.28125 18.9375 -11.515625 
Q 21 -9.765625 23.484375 -3.21875 
L 25.09375 0.875 
L 2.984375 54.6875 
L 12.5 54.6875 
L 29.59375 11.921875 
L 46.6875 54.6875 
L 56.203125 54.6875 
z
" id="DejaVuSans-121"/>
      </defs>
      <use xlink:href="#DejaVuSans-115"/>
      <use x="52.099609" xlink:href="#DejaVuSans-101"/>
      <use x="113.623047" xlink:href="#DejaVuSans-99"/>
      <use x="168.603516" xlink:href="#DejaVuSans-111"/>
      <use x="229.785156" xlink:href="#DejaVuSans-110"/>
      <use x="293.164062" xlink:href="#DejaVuSans-100"/>
      <use x="356.640625" xlink:href="#DejaVuSans-97"/>
      <use x="417.919922" xlink:href="#DejaVuSans-114"/>
      <use x="459.033203" xlink:href="#DejaVuSans-121"/>
     </g>
    </g>
    <g id="line2d_34">
     <path d="M 126 141.609375 
L 166 141.609375 
" style="fill:none;stroke:#ff0000;stroke-dasharray:7.4,3.2;stroke-dashoffset:0;stroke-width:2;"/>
    </g>
    <g id="line2d_35"/>
    <g id="text_19">
     <!-- uncoupled -->
     <g transform="translate(182 148.609375)scale(0.2 -0.2)">
      <defs>
       <path d="M 8.5 21.578125 
L 8.5 54.6875 
L 17.484375 54.6875 
L 17.484375 21.921875 
Q 17.484375 14.15625 20.5 10.265625 
Q 23.53125 6.390625 29.59375 6.390625 
Q 36.859375 6.390625 41.078125 11.03125 
Q 45.3125 15.671875 45.3125 23.6875 
L 45.3125 54.6875 
L 54.296875 54.6875 
L 54.296875 0 
L 45.3125 0 
L 45.3125 8.40625 
Q 42.046875 3.421875 37.71875 1 
Q 33.40625 -1.421875 27.6875 -1.421875 
Q 18.265625 -1.421875 13.375 4.4375 
Q 8.5 10.296875 8.5 21.578125 
z
M 31.109375 56 
z
" id="DejaVuSans-117"/>
       <path d="M 18.109375 8.203125 
L 18.109375 -20.796875 
L 9.078125 -20.796875 
L 9.078125 54.6875 
L 18.109375 54.6875 
L 18.109375 46.390625 
Q 20.953125 51.265625 25.265625 53.625 
Q 29.59375 56 35.59375 56 
Q 45.5625 56 51.78125 48.09375 
Q 58.015625 40.1875 58.015625 27.296875 
Q 58.015625 14.40625 51.78125 6.484375 
Q 45.5625 -1.421875 35.59375 -1.421875 
Q 29.59375 -1.421875 25.265625 0.953125 
Q 20.953125 3.328125 18.109375 8.203125 
z
M 48.6875 27.296875 
Q 48.6875 37.203125 44.609375 42.84375 
Q 40.53125 48.484375 33.40625 48.484375 
Q 26.265625 48.484375 22.1875 42.84375 
Q 18.109375 37.203125 18.109375 27.296875 
Q 18.109375 17.390625 22.1875 11.75 
Q 26.265625 6.109375 33.40625 6.109375 
Q 40.53125 6.109375 44.609375 11.75 
Q 48.6875 17.390625 48.6875 27.296875 
z
" id="DejaVuSans-112"/>
       <path d="M 9.421875 75.984375 
L 18.40625 75.984375 
L 18.40625 0 
L 9.421875 0 
z
" id="DejaVuSans-108"/>
      </defs>
      <use xlink:href="#DejaVuSans-117"/>
      <use x="63.378906" xlink:href="#DejaVuSans-110"/>
      <use x="126.757812" xlink:href="#DejaVuSans-99"/>
      <use x="181.738281" xlink:href="#DejaVuSans-111"/>
      <use x="242.919922" xlink:href="#DejaVuSans-117"/>
      <use x="306.298828" xlink:href="#DejaVuSans-112"/>
      <use x="369.775391" xlink:href="#DejaVuSans-108"/>
      <use x="397.558594" xlink:href="#DejaVuSans-101"/>
      <use x="459.082031" xlink:href="#DejaVuSans-100"/>
     </g>
    </g>
   </g>
  </g>
 </g>
 <defs>
  <clipPath id="pc218e52626">
   <rect height="664.2" width="590.4" x="108" y="56.7"/>
  </clipPath>
 </defs>
</svg>
