<?xml version="1.0" encoding="utf-8" standalone="no"?>
<!DOCTYPE svg PUBLIC "-//W3C//DTD SVG 1.1//EN"
  "http://www.w3.org/Graphics/SVG/1.1/DTD/svg11.dtd">
<!-- Created with matplotlib (https://matplotlib.org/) -->
<svg height="810pt" version="1.1" viewBox="0 0 720 810" width="720pt" xmlns="http://www.w3.org/2000/svg" xmlns:xlink="http://www.w3.org/1999/xlink">
 <metadata>
  <rdf:RDF xmlns:cc="http://creativecommons.org/ns#" xmlns:dc="http://purl.org/dc/elements/1.1/" xmlns:rdf="http://www.w3.org/1999/02/22-rdf-syntax-ns#">
   <cc:Work>
    <dc:type rdf:resource="http://purl.org/dc/dcmitype/StillImage"/>
    <dc:date>2020-12-08T08:37:36.116486</dc:date>
    <dc:format>image/svg+xml</dc:format>
    <dc:creator>
     <cc:Agent>
      <dc:title>Matplotlib v3.3.1, https://matplotlib.org/</dc:title>
     </cc:Agent>
    </dc:creator>
   </cc:Work>
  </rdf:RDF>
 </metadata>
 <defs>
  <style type="text/css">*{stroke-linecap:butt;stroke-linejoin:round;}</style>
 </defs>
 <g id="figure_1">
  <g id="patch_1">
   <path d="M 0 810 
L 720 810 
L 720 0 
L 0 0 
z
" style="fill:#ffffff;"/>
  </g>
  <g id="axes_1">
   <g id="patch_2">
    <path d="M 108 720.9 
L 698.4 720.9 
L 698.4 56.7 
L 108 56.7 
z
" style="fill:#ffffff;"/>
   </g>
   <g id="matplotlib.axis_1">
    <g id="xtick_1">
     <g id="line2d_1">
      <path clip-path="url(#p593ee9ddf5)" d="M 108 720.9 
L 108 56.7 
" style="fill:none;stroke:#e6e6e6;stroke-linecap:square;stroke-width:0.8;"/>
     </g>
     <g id="line2d_2">
      <defs>
       <path d="M 0 0 
L 0 -3.5 
" id="ma9ff58e1e9" style="stroke:#000000;stroke-width:0.8;"/>
      </defs>
      <g>
       <use style="stroke:#000000;stroke-width:0.8;" x="108" xlink:href="#ma9ff58e1e9" y="720.9"/>
      </g>
     </g>
     <g id="text_1">
      <!-- $\mathdefault{0}$ -->
      <g transform="translate(104.341881 734.777725)scale(0.15 -0.15)">
       <defs>
        <path d="M 42 31.640625 
C 42 37.75 41.90625 48.125 37.703125 56.109375 
C 34 63.109375 28.09375 65.59375 22.90625 65.59375 
C 18.09375 65.59375 12 63.40625 8.203125 56.203125 
C 4.203125 48.71875 3.796875 39.4375 3.796875 31.640625 
C 3.796875 25.953125 3.90625 17.28125 7 9.671875 
C 11.296875 -0.609375 19 -2 22.90625 -2 
C 27.5 -2 34.5 -0.109375 38.59375 9.375 
C 41.59375 16.28125 42 24.359375 42 31.640625 
z
M 22.90625 -0.40625 
C 16.5 -0.40625 12.703125 5.078125 11.296875 12.6875 
C 10.203125 18.5625 10.203125 27.15625 10.203125 32.75 
C 10.203125 40.4375 10.203125 46.828125 11.5 52.921875 
C 13.40625 61.390625 19 64 22.90625 64 
C 27 64 32.296875 61.296875 34.203125 53.125 
C 35.5 47.4375 35.59375 40.734375 35.59375 32.75 
C 35.59375 26.25 35.59375 18.265625 34.40625 12.375 
C 32.296875 1.484375 26.40625 -0.40625 22.90625 -0.40625 
z
" id="CMR17-48"/>
       </defs>
       <use transform="scale(0.996264)" xlink:href="#CMR17-48"/>
      </g>
     </g>
    </g>
    <g id="xtick_2">
     <g id="line2d_3">
      <path clip-path="url(#p593ee9ddf5)" d="M 206.4 720.9 
L 206.4 56.7 
" style="fill:none;stroke:#e6e6e6;stroke-linecap:square;stroke-width:0.8;"/>
     </g>
     <g id="line2d_4">
      <g>
       <use style="stroke:#000000;stroke-width:0.8;" x="206.4" xlink:href="#ma9ff58e1e9" y="720.9"/>
      </g>
     </g>
     <g id="text_2">
      <!-- $\mathdefault{5}$ -->
      <g transform="translate(202.741881 734.777725)scale(0.15 -0.15)">
       <defs>
        <path d="M 11.40625 57.6875 
C 12.40625 57.28125 16.5 56 20.703125 56 
C 30 56 35.09375 61.109375 38 64.0625 
C 38 64.953125 38 65.5 37.40625 65.5 
C 37.296875 65.5 37.09375 65.5 36.296875 65.046875 
C 32.796875 63.40625 28.703125 62.078125 23.703125 62.078125 
C 20.703125 62.078125 16.203125 62.484375 11.296875 64.671875 
C 10.203125 65.171875 10 65.171875 9.90625 65.171875 
C 9.40625 65.171875 9.296875 65.0625 9.296875 63.078125 
L 9.296875 34.421875 
C 9.296875 32.640625 9.296875 32.140625 10.296875 32.140625 
C 10.796875 32.140625 11 32.34375 11.5 33.03125 
C 14.703125 37.515625 19.09375 39.40625 24.09375 39.40625 
C 27.59375 39.40625 35.09375 37.21875 35.09375 20.140625 
C 35.09375 16.953125 35.09375 11.171875 32.09375 6.578125 
C 29.59375 2.484375 25.703125 0.390625 21.40625 0.390625 
C 14.796875 0.390625 8.09375 5 6.296875 12.71875 
C 6.703125 12.609375 7.5 12.421875 7.90625 12.421875 
C 9.203125 12.421875 11.703125 13.125 11.703125 16.21875 
C 11.703125 18.90625 9.796875 20 7.90625 20 
C 5.59375 20 4.09375 18.59375 4.09375 15.796875 
C 4.09375 7.09375 11 -2 21.59375 -2 
C 31.90625 -2 41.703125 6.875 41.703125 19.75 
C 41.703125 31.71875 33.90625 41 24.203125 41 
C 19.09375 41 14.796875 39.109375 11.40625 35.53125 
z
" id="CMR17-53"/>
       </defs>
       <use transform="scale(0.996264)" xlink:href="#CMR17-53"/>
      </g>
     </g>
    </g>
    <g id="xtick_3">
     <g id="line2d_5">
      <path clip-path="url(#p593ee9ddf5)" d="M 304.8 720.9 
L 304.8 56.7 
" style="fill:none;stroke:#e6e6e6;stroke-linecap:square;stroke-width:0.8;"/>
     </g>
     <g id="line2d_6">
      <g>
       <use style="stroke:#000000;stroke-width:0.8;" x="304.8" xlink:href="#ma9ff58e1e9" y="720.9"/>
      </g>
     </g>
     <g id="text_3">
      <!-- $\mathdefault{10}$ -->
      <g transform="translate(297.483762 734.777725)scale(0.15 -0.15)">
       <defs>
        <path d="M 26.59375 63.40625 
C 26.59375 65.5 26.5 65.5 25.09375 65.5 
C 21.203125 61.1875 15.296875 59.796875 9.703125 59.796875 
C 9.40625 59.796875 8.90625 59.796875 8.796875 59.5 
C 8.703125 59.296875 8.703125 59.09375 8.703125 57 
C 11.796875 57 17 57.59375 21 59.984375 
L 21 7.203125 
C 21 3.6875 20.796875 2.5 12.203125 2.5 
L 9.203125 2.5 
L 9.203125 0 
C 14 0 19 0 23.796875 0 
C 28.59375 0 33.59375 0 38.40625 0 
L 38.40625 2.5 
L 35.40625 2.5 
C 26.796875 2.5 26.59375 3.59375 26.59375 7.15625 
z
" id="CMR17-49"/>
       </defs>
       <use transform="scale(0.996264)" xlink:href="#CMR17-49"/>
       <use transform="translate(45.690477 0)scale(0.996264)" xlink:href="#CMR17-48"/>
      </g>
     </g>
    </g>
    <g id="xtick_4">
     <g id="line2d_7">
      <path clip-path="url(#p593ee9ddf5)" d="M 403.2 720.9 
L 403.2 56.7 
" style="fill:none;stroke:#e6e6e6;stroke-linecap:square;stroke-width:0.8;"/>
     </g>
     <g id="line2d_8">
      <g>
       <use style="stroke:#000000;stroke-width:0.8;" x="403.2" xlink:href="#ma9ff58e1e9" y="720.9"/>
      </g>
     </g>
     <g id="text_4">
      <!-- $\mathdefault{15}$ -->
      <g transform="translate(395.883762 734.777725)scale(0.15 -0.15)">
       <use transform="scale(0.996264)" xlink:href="#CMR17-49"/>
       <use transform="translate(45.690477 0)scale(0.996264)" xlink:href="#CMR17-53"/>
      </g>
     </g>
    </g>
    <g id="xtick_5">
     <g id="line2d_9">
      <path clip-path="url(#p593ee9ddf5)" d="M 501.6 720.9 
L 501.6 56.7 
" style="fill:none;stroke:#e6e6e6;stroke-linecap:square;stroke-width:0.8;"/>
     </g>
     <g id="line2d_10">
      <g>
       <use style="stroke:#000000;stroke-width:0.8;" x="501.6" xlink:href="#ma9ff58e1e9" y="720.9"/>
      </g>
     </g>
     <g id="text_5">
      <!-- $\mathdefault{20}$ -->
      <g transform="translate(494.283762 734.777725)scale(0.15 -0.15)">
       <defs>
        <path d="M 41.703125 15.453125 
L 39.90625 15.453125 
C 38.90625 8.375 38.09375 7.171875 37.703125 6.5625 
C 37.203125 5.765625 30 5.765625 28.59375 5.765625 
L 9.40625 5.765625 
C 13 9.671875 20 16.75 28.5 24.953125 
C 34.59375 30.734375 41.703125 37.53125 41.703125 47.421875 
C 41.703125 59.21875 32.296875 66 21.796875 66 
C 10.796875 66 4.09375 56.3125 4.09375 47.34375 
C 4.09375 43.4375 7 42.9375 8.203125 42.9375 
C 9.203125 42.9375 12.203125 43.546875 12.203125 47.03125 
C 12.203125 50.109375 9.59375 51 8.203125 51 
C 7.59375 51 7 50.90625 6.59375 50.703125 
C 8.5 59.21875 14.296875 63.40625 20.40625 63.40625 
C 29.09375 63.40625 34.796875 56.515625 34.796875 47.421875 
C 34.796875 38.734375 29.703125 31.25 24 24.75 
L 4.09375 2.28125 
L 4.09375 0 
L 39.296875 0 
z
" id="CMR17-50"/>
       </defs>
       <use transform="scale(0.996264)" xlink:href="#CMR17-50"/>
       <use transform="translate(45.690477 0)scale(0.996264)" xlink:href="#CMR17-48"/>
      </g>
     </g>
    </g>
    <g id="xtick_6">
     <g id="line2d_11">
      <path clip-path="url(#p593ee9ddf5)" d="M 600 720.9 
L 600 56.7 
" style="fill:none;stroke:#e6e6e6;stroke-linecap:square;stroke-width:0.8;"/>
     </g>
     <g id="line2d_12">
      <g>
       <use style="stroke:#000000;stroke-width:0.8;" x="600" xlink:href="#ma9ff58e1e9" y="720.9"/>
      </g>
     </g>
     <g id="text_6">
      <!-- $\mathdefault{25}$ -->
      <g transform="translate(592.683762 734.777725)scale(0.15 -0.15)">
       <use transform="scale(0.996264)" xlink:href="#CMR17-50"/>
       <use transform="translate(45.690477 0)scale(0.996264)" xlink:href="#CMR17-53"/>
      </g>
     </g>
    </g>
    <g id="xtick_7">
     <g id="line2d_13">
      <path clip-path="url(#p593ee9ddf5)" d="M 698.4 720.9 
L 698.4 56.7 
" style="fill:none;stroke:#e6e6e6;stroke-linecap:square;stroke-width:0.8;"/>
     </g>
     <g id="line2d_14">
      <g>
       <use style="stroke:#000000;stroke-width:0.8;" x="698.4" xlink:href="#ma9ff58e1e9" y="720.9"/>
      </g>
     </g>
     <g id="text_7">
      <!-- $\mathdefault{30}$ -->
      <g transform="translate(691.083762 734.777725)scale(0.15 -0.15)">
       <defs>
        <path d="M 22.09375 33.703125 
C 31 33.703125 34.90625 25.96875 34.90625 17.03125 
C 34.90625 5 28.5 0.390625 22.703125 0.390625 
C 17.40625 0.390625 8.796875 3.03125 6.09375 10.828125 
C 6.59375 10.625 7.09375 10.625 7.59375 10.625 
C 10 10.625 11.796875 12.21875 11.796875 14.8125 
C 11.796875 17.703125 9.59375 19 7.59375 19 
C 5.90625 19 3.296875 18.203125 3.296875 14.46875 
C 3.296875 5.234375 12.296875 -2 22.90625 -2 
C 34 -2 42.5 6.71875 42.5 16.953125 
C 42.5 26.671875 34.5 33.703125 25 34.796875 
C 32.59375 36.375 39.90625 43.0625 39.90625 52.015625 
C 39.90625 59.6875 32 65.296875 23 65.296875 
C 13.90625 65.296875 5.90625 59.828125 5.90625 52.015625 
C 5.90625 48.59375 8.5 48 9.796875 48 
C 11.90625 48 13.703125 49.296875 13.703125 51.890625 
C 13.703125 54.46875 11.90625 55.765625 9.796875 55.765625 
C 9.40625 55.765625 8.90625 55.765625 8.5 55.578125 
C 11.40625 61.859375 19.296875 63 22.796875 63 
C 26.296875 63 32.90625 61.328125 32.90625 51.875 
C 32.90625 49.109375 32.5 44.1875 29.09375 39.84375 
C 26.09375 36 22.703125 36 19.40625 35.6875 
C 18.90625 35.6875 16.59375 35.453125 16.203125 35.453125 
C 15.5 35.359375 15.09375 35.265625 15.09375 34.5 
C 15.09375 33.796875 15.203125 33.703125 17.203125 33.703125 
z
" id="CMR17-51"/>
       </defs>
       <use transform="scale(0.996264)" xlink:href="#CMR17-51"/>
       <use transform="translate(45.690477 0)scale(0.996264)" xlink:href="#CMR17-48"/>
      </g>
     </g>
    </g>
    <g id="text_8">
     <!-- $\theta(^{\circ})$ -->
     <g transform="translate(383.750923 760.340997)scale(0.25 -0.25)">
      <defs>
       <path d="M 44.296875 50 
C 44.296875 60.15625 41.09375 70 32.90625 70 
C 18.90625 70 4 40.859375 4 19 
C 4 14.421875 5 -1 15.5 -1 
C 29.09375 -1 44.296875 27.4375 44.296875 50 
z
M 14 36 
C 15.5 41.859375 17.59375 50.21875 21.59375 57.265625 
C 24.90625 63.234375 28.40625 68 32.796875 68 
C 36.09375 68 38.296875 65.21875 38.296875 55.6875 
C 38.296875 52.09375 38 47.140625 35.09375 36 
z
M 34.40625 33.015625 
C 31.90625 23.28125 29.796875 17 26.203125 10.734375 
C 23.296875 5.671875 19.796875 1 15.59375 1 
C 12.5 1 10 3.390625 10 13.21875 
C 10 19.6875 11.59375 26.453125 13.203125 33.015625 
z
" id="CMMI12-18"/>
       <path d="M 30.59375 -24.390625 
C 30.59375 -24.296875 30.59375 -24.09375 30.296875 -23.796875 
C 25.703125 -19.125 13.40625 -6.359375 13.40625 24.703125 
C 13.40625 55.765625 25.5 68.421875 30.40625 73.390625 
C 30.40625 73.5 30.59375 73.703125 30.59375 74 
C 30.59375 74.296875 30.296875 74.5 29.90625 74.5 
C 28.796875 74.5 20.296875 67.125 15.40625 56.15625 
C 10.40625 45.109375 9 34.359375 9 24.8125 
C 9 17.625 9.703125 5.484375 15.703125 -7.359375 
C 20.5 -17.734375 28.703125 -25 29.90625 -25 
C 30.40625 -25 30.59375 -24.796875 30.59375 -24.390625 
z
" id="CMR17-40"/>
       <path d="M 44.40625 25 
C 44.40625 35.578125 35.5 44.1875 25 44.1875 
C 14.203125 44.1875 5.5 35.375 5.5 25 
C 5.5 14.53125 14.203125 5.8125 25 5.8125 
C 35.5 5.8125 44.40625 14.421875 44.40625 25 
z
M 25 9.8125 
C 16.296875 9.8125 9.5 16.71875 9.5 25 
C 9.5 33.28125 16.40625 40.1875 25 40.1875 
C 33.296875 40.1875 40.40625 33.46875 40.40625 25 
C 40.40625 16.53125 33.296875 9.8125 25 9.8125 
z
" id="CMSY10-14"/>
       <path d="M 26.296875 24.703125 
C 26.296875 31.875 25.59375 44.015625 19.59375 56.859375 
C 14.796875 67.234375 6.59375 74.5 5.40625 74.5 
C 5.09375 74.5 4.703125 74.390625 4.703125 73.890625 
C 4.703125 73.703125 4.796875 73.59375 4.90625 73.390625 
C 9.703125 68.40625 21.90625 55.75 21.90625 24.75 
C 21.90625 -6.359375 9.796875 -19.015625 4.90625 -24.015625 
C 4.796875 -24.203125 4.703125 -24.3125 4.703125 -24.5 
C 4.703125 -25 5.09375 -25 5.40625 -25 
C 6.5 -25 15 -17.625 19.90625 -6.65625 
C 24.90625 4.390625 26.296875 15.140625 26.296875 24.703125 
z
" id="CMR17-41"/>
      </defs>
      <use transform="scale(0.996264)" xlink:href="#CMMI12-18"/>
      <use transform="translate(48.169508 0)scale(0.996264)" xlink:href="#CMR17-40"/>
      <use transform="translate(83.450276 36.153639)scale(0.697382)" xlink:href="#CMSY10-14"/>
      <use transform="translate(118.817618 0)scale(0.996264)" xlink:href="#CMR17-41"/>
     </g>
    </g>
   </g>
   <g id="matplotlib.axis_2">
    <g id="ytick_1">
     <g id="line2d_15">
      <path clip-path="url(#p593ee9ddf5)" d="M 108 645.292211 
L 698.4 645.292211 
" style="fill:none;stroke:#e6e6e6;stroke-linecap:square;stroke-width:0.8;"/>
     </g>
     <g id="line2d_16">
      <defs>
       <path d="M 0 0 
L 3.5 0 
" id="mcbb139f58e" style="stroke:#000000;stroke-width:0.8;"/>
      </defs>
      <g>
       <use style="stroke:#000000;stroke-width:0.8;" x="108" xlink:href="#mcbb139f58e" y="645.292211"/>
      </g>
     </g>
     <g id="text_9">
      <!-- $\mathdefault{0}$ -->
      <g transform="translate(97.183762 650.481073)scale(0.15 -0.15)">
       <use transform="scale(0.996264)" xlink:href="#CMR17-48"/>
      </g>
     </g>
    </g>
    <g id="ytick_2">
     <g id="line2d_17">
      <path clip-path="url(#p593ee9ddf5)" d="M 108 558.795102 
L 698.4 558.795102 
" style="fill:none;stroke:#e6e6e6;stroke-linecap:square;stroke-width:0.8;"/>
     </g>
     <g id="line2d_18">
      <g>
       <use style="stroke:#000000;stroke-width:0.8;" x="108" xlink:href="#mcbb139f58e" y="558.795102"/>
      </g>
     </g>
     <g id="text_10">
      <!-- $\mathdefault{100}$ -->
      <g transform="translate(82.551287 563.983965)scale(0.15 -0.15)">
       <use transform="scale(0.996264)" xlink:href="#CMR17-49"/>
       <use transform="translate(45.690477 0)scale(0.996264)" xlink:href="#CMR17-48"/>
       <use transform="translate(91.380954 0)scale(0.996264)" xlink:href="#CMR17-48"/>
      </g>
     </g>
    </g>
    <g id="ytick_3">
     <g id="line2d_19">
      <path clip-path="url(#p593ee9ddf5)" d="M 108 472.297994 
L 698.4 472.297994 
" style="fill:none;stroke:#e6e6e6;stroke-linecap:square;stroke-width:0.8;"/>
     </g>
     <g id="line2d_20">
      <g>
       <use style="stroke:#000000;stroke-width:0.8;" x="108" xlink:href="#mcbb139f58e" y="472.297994"/>
      </g>
     </g>
     <g id="text_11">
      <!-- $\mathdefault{200}$ -->
      <g transform="translate(82.551287 477.486856)scale(0.15 -0.15)">
       <use transform="scale(0.996264)" xlink:href="#CMR17-50"/>
       <use transform="translate(45.690477 0)scale(0.996264)" xlink:href="#CMR17-48"/>
       <use transform="translate(91.380954 0)scale(0.996264)" xlink:href="#CMR17-48"/>
      </g>
     </g>
    </g>
    <g id="ytick_4">
     <g id="line2d_21">
      <path clip-path="url(#p593ee9ddf5)" d="M 108 385.800885 
L 698.4 385.800885 
" style="fill:none;stroke:#e6e6e6;stroke-linecap:square;stroke-width:0.8;"/>
     </g>
     <g id="line2d_22">
      <g>
       <use style="stroke:#000000;stroke-width:0.8;" x="108" xlink:href="#mcbb139f58e" y="385.800885"/>
      </g>
     </g>
     <g id="text_12">
      <!-- $\mathdefault{300}$ -->
      <g transform="translate(82.551287 390.989748)scale(0.15 -0.15)">
       <use transform="scale(0.996264)" xlink:href="#CMR17-51"/>
       <use transform="translate(45.690477 0)scale(0.996264)" xlink:href="#CMR17-48"/>
       <use transform="translate(91.380954 0)scale(0.996264)" xlink:href="#CMR17-48"/>
      </g>
     </g>
    </g>
    <g id="ytick_5">
     <g id="line2d_23">
      <path clip-path="url(#p593ee9ddf5)" d="M 108 299.303777 
L 698.4 299.303777 
" style="fill:none;stroke:#e6e6e6;stroke-linecap:square;stroke-width:0.8;"/>
     </g>
     <g id="line2d_24">
      <g>
       <use style="stroke:#000000;stroke-width:0.8;" x="108" xlink:href="#mcbb139f58e" y="299.303777"/>
      </g>
     </g>
     <g id="text_13">
      <!-- $\mathdefault{400}$ -->
      <g transform="translate(82.551287 304.492639)scale(0.15 -0.15)">
       <defs>
        <path d="M 33.59375 64.40625 
C 33.59375 66.5 33.5 66.5 31.703125 66.5 
L 2 19.59375 
L 2 17 
L 27.796875 17 
L 27.796875 7.140625 
C 27.796875 3.5 27.59375 2.5 20.59375 2.5 
L 18.703125 2.5 
L 18.703125 0 
C 21.90625 0 27.296875 0 30.703125 0 
C 34.09375 0 39.5 0 42.703125 0 
L 42.703125 2.5 
L 40.796875 2.5 
C 33.796875 2.5 33.59375 3.5 33.59375 7.140625 
L 33.59375 17 
L 43.796875 17 
L 43.796875 19.59375 
L 33.59375 19.59375 
z
M 28.09375 57.859375 
L 28.09375 19.59375 
L 4 19.59375 
z
" id="CMR17-52"/>
       </defs>
       <use transform="scale(0.996264)" xlink:href="#CMR17-52"/>
       <use transform="translate(45.690477 0)scale(0.996264)" xlink:href="#CMR17-48"/>
       <use transform="translate(91.380954 0)scale(0.996264)" xlink:href="#CMR17-48"/>
      </g>
     </g>
    </g>
    <g id="ytick_6">
     <g id="line2d_25">
      <path clip-path="url(#p593ee9ddf5)" d="M 108 212.806668 
L 698.4 212.806668 
" style="fill:none;stroke:#e6e6e6;stroke-linecap:square;stroke-width:0.8;"/>
     </g>
     <g id="line2d_26">
      <g>
       <use style="stroke:#000000;stroke-width:0.8;" x="108" xlink:href="#mcbb139f58e" y="212.806668"/>
      </g>
     </g>
     <g id="text_14">
      <!-- $\mathdefault{500}$ -->
      <g transform="translate(82.551287 217.995531)scale(0.15 -0.15)">
       <use transform="scale(0.996264)" xlink:href="#CMR17-53"/>
       <use transform="translate(45.690477 0)scale(0.996264)" xlink:href="#CMR17-48"/>
       <use transform="translate(91.380954 0)scale(0.996264)" xlink:href="#CMR17-48"/>
      </g>
     </g>
    </g>
    <g id="ytick_7">
     <g id="line2d_27">
      <path clip-path="url(#p593ee9ddf5)" d="M 108 126.30956 
L 698.4 126.30956 
" style="fill:none;stroke:#e6e6e6;stroke-linecap:square;stroke-width:0.8;"/>
     </g>
     <g id="line2d_28">
      <g>
       <use style="stroke:#000000;stroke-width:0.8;" x="108" xlink:href="#mcbb139f58e" y="126.30956"/>
      </g>
     </g>
     <g id="text_15">
      <!-- $\mathdefault{600}$ -->
      <g transform="translate(82.551287 131.498422)scale(0.15 -0.15)">
       <defs>
        <path d="M 10.59375 34 
C 10.59375 57.65625 21.796875 63 28.296875 63 
C 30.40625 63 35.5 62.640625 37.5 59 
C 35.90625 59 32.90625 59 32.90625 55.515625 
C 32.90625 52.828125 35.09375 51.921875 36.5 51.921875 
C 37.40625 51.921875 40.09375 52.3125 40.09375 55.625 
C 40.09375 61.78125 35.09375 65.296875 28.203125 65.296875 
C 16.296875 65.296875 3.796875 52.96875 3.796875 31 
C 3.796875 3.953125 15.09375 -2 23.09375 -2 
C 32.796875 -2 42 6.671875 42 20.046875 
C 42 32.515625 33.90625 41.59375 23.703125 41.59375 
C 17.59375 41.59375 13.09375 37.609375 10.59375 30.625 
z
M 23.09375 0.390625 
C 10.796875 0.390625 10.796875 18.75 10.796875 22.4375 
C 10.796875 29.625 14.203125 40 23.5 40 
C 25.203125 40 30.09375 40 33.40625 33.125 
C 35.203125 29.21875 35.203125 25.140625 35.203125 20.140625 
C 35.203125 14.75 35.203125 10.78125 33.09375 6.78125 
C 30.90625 2.671875 27.703125 0.390625 23.09375 0.390625 
z
" id="CMR17-54"/>
       </defs>
       <use transform="scale(0.996264)" xlink:href="#CMR17-54"/>
       <use transform="translate(45.690477 0)scale(0.996264)" xlink:href="#CMR17-48"/>
       <use transform="translate(91.380954 0)scale(0.996264)" xlink:href="#CMR17-48"/>
      </g>
     </g>
    </g>
    <g id="text_16">
     <!-- $|f(\theta)|$ -->
     <g transform="translate(72.324636 417.899913)rotate(-90)scale(0.25 -0.25)">
      <defs>
       <path d="M 15.90625 71.40625 
C 15.90625 73.203125 15.90625 75 13.90625 75 
C 11.90625 75 11.90625 73.203125 11.90625 71.40625 
L 11.90625 -21.40625 
C 11.90625 -23.203125 11.90625 -25 13.90625 -25 
C 15.90625 -25 15.90625 -23.203125 15.90625 -21.40625 
z
" id="CMSY10-106"/>
       <path d="M 44.59375 40.09375 
C 46.59375 40.09375 47.40625 40.09375 47.40625 42 
C 47.40625 43 46.59375 43 44.796875 43 
L 36.703125 43 
C 38.59375 53.578125 40 60.890625 40.796875 64.171875 
C 41.40625 66.640625 43.5 69 46.09375 69 
C 48.203125 69 50.296875 68.09375 51.296875 67.15625 
C 47.40625 66.75 46.203125 63.78125 46.203125 62.015625 
C 46.203125 59.953125 47.703125 58.734375 49.59375 58.734375 
C 51.59375 58.734375 54.59375 60.46875 54.59375 64.359375 
C 54.59375 68.640625 50.40625 71 46 71 
C 41.703125 71 37.5 67.71875 35.5 63.71875 
C 33.703125 60.125 32.703125 56.421875 30.40625 43 
L 23.703125 43 
C 21.796875 43 20.796875 43 20.796875 41.203125 
C 20.796875 40.09375 21.40625 40.09375 23.40625 40.09375 
L 29.796875 40.09375 
C 28 30.875 23.90625 8.46875 21.59375 -2.140625 
C 19.90625 -10.765625 18.40625 -18 13.40625 -18 
C 13.09375 -18 10.203125 -18 8.40625 -16.109375 
C 13.5 -15.703125 13.5 -11.34375 13.5 -11.25 
C 13.5 -9.265625 12 -8.078125 10.09375 -8.078125 
C 8.09375 -8.078125 5.09375 -9.765625 5.09375 -13.546875 
C 5.09375 -17.8125 9.5 -20 13.40625 -20 
C 23.59375 -20 27.796875 -1.84375 28.90625 3.109375 
C 30.703125 10.75 35.59375 37.125 36.09375 40.09375 
z
" id="CMMI12-102"/>
      </defs>
      <use transform="scale(0.996264)" xlink:href="#CMSY10-106"/>
      <use transform="translate(27.674085 0)scale(0.996264)" xlink:href="#CMMI12-102"/>
      <use transform="translate(86.39439 0)scale(0.996264)" xlink:href="#CMR17-40"/>
      <use transform="translate(121.675157 0)scale(0.996264)" xlink:href="#CMMI12-18"/>
      <use transform="translate(169.844665 0)scale(0.996264)" xlink:href="#CMR17-41"/>
      <use transform="translate(205.125433 0)scale(0.996264)" xlink:href="#CMSY10-106"/>
     </g>
    </g>
   </g>
   <g id="line2d_29">
    <path clip-path="url(#p593ee9ddf5)" d="M 108.01968 114.33719 
L 109.659625 115.82601 
L 111.299571 120.201777 
L 112.939516 127.402931 
L 114.579461 137.328545 
L 116.219407 149.840285 
L 117.859352 164.765103 
L 119.499297 181.898577 
L 121.139243 201.008833 
L 122.779188 221.840956 
L 126.059079 267.565001 
L 130.978915 341.918484 
L 135.898751 416.258384 
L 139.178641 462.358866 
L 142.458532 503.778981 
L 144.098477 522.360489 
L 145.738423 539.38497 
L 147.378368 554.787908 
L 149.018313 568.535432 
L 150.658259 580.623143 
L 152.298204 591.074393 
L 153.938149 599.938054 
L 155.578095 607.285871 
L 157.21804 613.209469 
L 158.857985 617.817104 
L 160.497931 621.230249 
L 162.137876 623.580091 
L 163.777821 625.004049 
L 165.417767 625.642374 
L 167.057712 625.634922 
L 168.697657 625.118158 
L 170.337603 624.222464 
L 171.977548 623.069784 
L 178.537329 617.933973 
L 180.177275 616.915372 
L 181.81722 616.112795 
L 183.457165 615.556975 
L 185.097111 615.265749 
L 186.737056 615.245088 
L 188.377001 615.490352 
L 190.016947 615.987715 
L 191.656892 616.715709 
L 193.296837 617.646841 
L 194.936783 618.749208 
L 198.216673 621.327455 
L 208.056345 629.606164 
L 211.336236 631.846883 
L 214.616127 633.644981 
L 217.896017 634.994576 
L 221.175908 635.943595 
L 224.455799 636.574951 
L 227.735689 636.986456 
L 234.295471 637.510723 
L 244.135143 638.320375 
L 253.974815 639.173314 
L 260.534596 639.507678 
L 276.934049 640.057292 
L 281.853885 640.484938 
L 298.253339 642.24242 
L 301.533229 642.340824 
L 304.81312 642.274848 
L 308.093011 642.041959 
L 313.012847 641.427132 
L 326.132409 639.43308 
L 329.4123 639.161706 
L 332.692191 639.056824 
L 335.972081 639.120474 
L 340.891917 639.478997 
L 354.01148 640.708858 
L 357.291371 640.76424 
L 360.571261 640.644612 
L 363.851152 640.349861 
L 368.770988 639.637075 
L 380.250605 637.676252 
L 383.530496 637.325917 
L 386.810387 637.160496 
L 390.090277 637.200769 
L 393.370168 637.44502 
L 396.650059 637.86997 
L 401.569895 638.752349 
L 413.049512 640.973791 
L 417.969348 641.600169 
L 422.889184 641.921177 
L 427.80902 641.971098 
L 436.008747 641.730002 
L 444.208473 641.55978 
L 450.768255 641.703714 
L 458.967981 642.198939 
L 470.447599 642.926931 
L 477.00738 643.106851 
L 485.207107 643.060957 
L 506.526396 642.731621 
L 539.325303 642.904602 
L 573.764155 642.990691 
L 588.523663 642.947349 
L 598.363335 643.180185 
L 619.682624 643.85894 
L 629.522296 643.839061 
L 644.281804 643.780543 
L 652.481531 644.016135 
L 677.080711 645.029009 
L 683.640492 644.96506 
L 693.480164 644.616995 
L 698.4 644.421681 
L 698.4 644.421681 
" style="fill:none;stroke:#000000;stroke-linecap:square;stroke-width:2;"/>
   </g>
   <g id="line2d_30">
    <path clip-path="url(#p593ee9ddf5)" d="M 108.01968 640.71501 
L 196.576728 640.825496 
L 290.053612 641.16812 
L 396.650059 641.789498 
L 552.444865 642.949779 
L 698.4 644.046213 
L 698.4 644.046213 
" style="fill:none;stroke:#0010ff;stroke-dasharray:7.4,3.2;stroke-dashoffset:0;stroke-width:2;"/>
   </g>
   <g id="line2d_31">
    <path clip-path="url(#p593ee9ddf5)" d="M 108.01968 641.28716 
L 155.578095 641.398621 
L 206.4164 641.748436 
L 265.454432 642.390637 
L 375.330769 643.874552 
L 452.4082 644.789488 
L 513.086177 645.290379 
L 573.764155 645.564845 
L 641.001913 645.634856 
L 698.4 645.559627 
L 698.4 645.559627 
" style="fill:none;stroke:#00a4ff;stroke-dasharray:7.4,3.2;stroke-dashoffset:0;stroke-width:2;"/>
   </g>
   <g id="line2d_32">
    <path clip-path="url(#p593ee9ddf5)" d="M 108.01968 606.672085 
L 112.939516 606.77731 
L 117.859352 607.090096 
L 122.779188 607.60682 
L 127.699024 608.32151 
L 132.61886 609.225938 
L 137.538696 610.309738 
L 144.098477 612.012231 
L 150.658259 613.977325 
L 157.21804 616.166119 
L 165.417767 619.151443 
L 175.257439 622.981674 
L 201.496564 633.367122 
L 209.696291 636.344482 
L 217.896017 639.071181 
L 224.455799 641.036391 
L 231.01558 642.787093 
L 237.575361 644.309107 
L 244.135143 645.594428 
L 250.694924 646.641111 
L 257.254705 647.452999 
L 263.814487 648.039296 
L 270.374268 648.414003 
L 276.934049 648.595247 
L 285.133776 648.582744 
L 293.333503 648.349074 
L 303.173175 647.848601 
L 317.932683 646.833598 
L 342.531863 645.10147 
L 355.651425 644.428598 
L 367.131043 644.064021 
L 378.61066 643.920491 
L 391.730223 644.003693 
L 406.489731 644.339064 
L 465.527763 645.978984 
L 481.927216 646.042102 
L 499.966615 645.87519 
L 529.485631 645.325343 
L 555.724756 644.915202 
L 577.044045 644.814582 
L 600.00328 644.951254 
L 673.80082 645.622348 
L 698.4 645.522016 
L 698.4 645.522016 
" style="fill:none;stroke:#40ffb7;stroke-dasharray:7.4,3.2;stroke-dashoffset:0;stroke-width:2;"/>
   </g>
   <g id="line2d_33">
    <path clip-path="url(#p593ee9ddf5)" d="M 108.01968 609.532838 
L 111.299571 609.653572 
L 114.579461 610.011187 
L 117.859352 610.600579 
L 121.139243 611.413357 
L 124.419133 612.438001 
L 127.699024 613.660076 
L 130.978915 615.062492 
L 135.898751 617.461204 
L 140.818587 620.147965 
L 147.378368 624.038476 
L 165.417767 635.015869 
L 170.337603 637.717018 
L 175.257439 640.171617 
L 180.177275 642.334485 
L 185.097111 644.173888 
L 190.016947 645.672018 
L 194.936783 646.824837 
L 199.856619 647.641333 
L 204.776455 648.142242 
L 209.696291 648.358315 
L 214.616127 648.328251 
L 219.535963 648.096385 
L 226.095744 647.555689 
L 235.935416 646.478452 
L 249.054979 645.069358 
L 257.254705 644.439375 
L 263.814487 644.136693 
L 270.374268 644.020954 
L 278.573995 644.114364 
L 288.413667 644.486342 
L 317.932683 645.842065 
L 327.772355 645.988397 
L 337.612027 645.925346 
L 350.731589 645.607593 
L 375.330769 644.945869 
L 388.450332 644.850469 
L 403.20984 645.001535 
L 442.568528 645.596018 
L 458.967981 645.512409 
L 506.526396 645.0745 
L 529.485631 645.259023 
L 557.364701 645.461622 
L 580.323936 645.372814 
L 621.322569 645.159653 
L 652.481531 645.319804 
L 682.000547 645.395919 
L 698.4 645.334676 
L 698.4 645.334676 
" style="fill:none;stroke:#b7ff40;stroke-dasharray:7.4,3.2;stroke-dashoffset:0;stroke-width:2;"/>
   </g>
   <g id="line2d_34">
    <path clip-path="url(#p593ee9ddf5)" d="M 108.01968 596.230357 
L 109.659625 596.312536 
L 111.299571 596.554649 
L 112.939516 596.954998 
L 114.579461 597.510783 
L 116.219407 598.218124 
L 117.859352 599.072098 
L 119.499297 600.066782 
L 122.779188 602.44992 
L 126.059079 605.3024 
L 129.338969 608.54733 
L 132.61886 612.098782 
L 137.538696 617.798657 
L 147.378368 629.377988 
L 150.658259 632.968507 
L 153.938149 636.299002 
L 157.21804 639.311028 
L 160.497931 641.95955 
L 163.777821 644.213793 
L 167.057712 646.057518 
L 170.337603 647.48874 
L 173.617493 648.518912 
L 176.897384 649.171633 
L 180.177275 649.480951 
L 183.457165 649.489356 
L 186.737056 649.24555 
L 190.016947 648.802106 
L 194.936783 647.880812 
L 209.696291 644.818391 
L 214.616127 644.117048 
L 219.535963 643.690013 
L 224.455799 643.545568 
L 229.375635 643.657079 
L 235.935416 644.108963 
L 258.894651 646.095696 
L 265.454432 646.250657 
L 272.014213 646.15645 
L 280.21394 645.782252 
L 298.253339 644.832398 
L 306.453065 644.685404 
L 314.652792 644.780567 
L 326.132409 645.175972 
L 340.891917 645.646688 
L 350.731589 645.702683 
L 362.211207 645.498555 
L 385.170441 644.997672 
L 396.650059 645.037242 
L 436.008747 645.500448 
L 457.328036 645.200579 
L 472.087544 645.108211 
L 488.486997 645.24729 
L 511.446232 645.44201 
L 529.485631 645.328486 
L 554.084811 645.169148 
L 575.4041 645.303631 
L 598.363335 645.390428 
L 659.041312 645.306218 
L 685.280437 645.354086 
L 698.4 645.29202 
L 698.4 645.29202 
" style="fill:none;stroke:#ffb900;stroke-dasharray:7.4,3.2;stroke-dashoffset:0;stroke-width:2;"/>
   </g>
   <g id="line2d_35">
    <path clip-path="url(#p593ee9ddf5)" d="M 108.01968 436.743605 
L 109.659625 437.320831 
L 111.299571 439.018792 
L 112.939516 441.817849 
L 114.579461 445.685702 
L 116.219407 450.577876 
L 117.859352 456.438383 
L 119.499297 463.200556 
L 121.139243 470.788043 
L 122.779188 479.115928 
L 126.059079 497.618012 
L 129.338969 517.90593 
L 139.178641 581.025007 
L 142.458532 600.170118 
L 145.738423 617.275534 
L 147.378368 624.916325 
L 149.018313 631.890824 
L 150.658259 638.168377 
L 152.298204 643.728927 
L 153.938149 648.562904 
L 155.578095 652.670956 
L 157.21804 656.063523 
L 158.857985 658.760268 
L 160.497931 660.789376 
L 162.137876 662.18674 
L 163.777821 662.995052 
L 165.417767 663.26281 
L 167.057712 663.04327 
L 168.697657 662.393361 
L 170.337603 661.372578 
L 171.977548 660.041874 
L 173.617493 658.462585 
L 176.897384 654.799282 
L 183.457165 647.000068 
L 186.737056 643.602889 
L 188.377001 642.151053 
L 190.016947 640.894357 
L 191.656892 639.848244 
L 193.296837 639.022221 
L 194.936783 638.420069 
L 196.576728 638.040149 
L 198.216673 637.8758 
L 199.856619 637.915814 
L 201.496564 638.144977 
L 203.136509 638.544661 
L 204.776455 639.093452 
L 208.056345 640.542697 
L 212.976181 643.212011 
L 217.896017 645.876929 
L 221.175908 647.366502 
L 224.455799 648.483351 
L 226.095744 648.878407 
L 227.735689 649.158194 
L 229.375635 649.321784 
L 232.655525 649.311065 
L 235.935416 648.893343 
L 239.215307 648.150259 
L 244.135143 646.659199 
L 250.694924 644.576844 
L 253.974815 643.730558 
L 257.254705 643.11658 
L 260.534596 642.776745 
L 263.814487 642.722336 
L 267.094377 642.935493 
L 270.374268 643.373279 
L 275.294104 644.312515 
L 283.493831 646.01082 
L 286.773721 646.53444 
L 290.053612 646.893331 
L 293.333503 647.062626 
L 296.613393 647.038224 
L 299.893284 646.835772 
L 304.81312 646.272941 
L 319.572628 644.275537 
L 324.492464 644.005993 
L 329.4123 644.050685 
L 334.332136 644.372462 
L 342.531863 645.249044 
L 349.091644 645.912516 
L 354.01148 646.214662 
L 358.931316 646.284467 
L 363.851152 646.123986 
L 370.410933 645.649758 
L 381.890551 644.731987 
L 386.810387 644.534932 
L 391.730223 644.523193 
L 398.290004 644.772807 
L 417.969348 645.894652 
L 424.529129 645.896372 
L 431.088911 645.660368 
L 449.128309 644.805482 
L 455.688091 644.784495 
L 463.887817 645.032343 
L 480.287271 645.689543 
L 486.847052 645.725012 
L 495.046779 645.533561 
L 514.726123 644.923122 
L 522.925849 644.983855 
L 536.045412 645.389786 
L 545.885084 645.604619 
L 554.084811 645.571407 
L 567.204373 645.229938 
L 578.683991 645.015123 
L 588.523663 645.088414 
L 614.762788 645.535534 
L 626.242405 645.360296 
L 642.641859 645.078172 
L 654.121476 645.152487 
L 678.720656 645.486252 
L 691.840219 645.328274 
L 698.4 645.214264 
L 698.4 645.214264 
" style="fill:none;stroke:#ff3000;stroke-dasharray:7.4,3.2;stroke-dashoffset:0;stroke-width:2;"/>
   </g>
   <g id="line2d_36">
    <path clip-path="url(#p593ee9ddf5)" d="M 108.01968 454.909398 
L 109.659625 455.69618 
L 111.299571 458.006098 
L 112.939516 461.799298 
L 114.579461 467.010558 
L 116.219407 473.550752 
L 117.859352 481.308826 
L 119.499297 490.154261 
L 121.139243 499.939946 
L 124.419133 521.680205 
L 129.338969 557.085425 
L 132.61886 580.500871 
L 135.898751 602.26627 
L 137.538696 612.193326 
L 139.178641 621.338433 
L 140.818587 629.61773 
L 142.458532 636.968446 
L 144.098477 643.349335 
L 145.738423 648.740606 
L 147.378368 653.143333 
L 149.018313 656.578404 
L 150.658259 659.085022 
L 152.298204 660.718843 
L 153.938149 661.549783 
L 155.578095 661.659578 
L 157.21804 661.139164 
L 158.857985 660.085951 
L 160.497931 658.601075 
L 162.137876 656.786686 
L 165.417767 652.567672 
L 168.697657 648.17283 
L 171.977548 644.219682 
L 173.617493 642.555797 
L 175.257439 641.155092 
L 176.897384 640.043279 
L 178.537329 639.234027 
L 180.177275 638.729536 
L 181.81722 638.521405 
L 183.457165 638.59175 
L 185.097111 638.914533 
L 186.737056 639.457048 
L 188.377001 640.181506 
L 191.656892 642.00952 
L 198.216673 645.999394 
L 201.496564 647.574329 
L 203.136509 648.164473 
L 204.776455 648.603673 
L 206.4164 648.885331 
L 208.056345 649.00905 
L 209.696291 648.980259 
L 211.336236 648.809662 
L 214.616127 648.107912 
L 217.896017 647.065524 
L 226.095744 644.221082 
L 229.375635 643.431646 
L 232.655525 643.00372 
L 235.935416 642.964129 
L 239.215307 643.280363 
L 242.495197 643.870991 
L 253.974815 646.388479 
L 257.254705 646.784574 
L 260.534596 646.920377 
L 263.814487 646.797191 
L 267.094377 646.454741 
L 272.014213 645.686325 
L 278.573995 644.643241 
L 281.853885 644.290106 
L 285.133776 644.115723 
L 288.413667 644.133602 
L 291.693557 644.327389 
L 296.613393 644.851734 
L 304.81312 645.828617 
L 309.732956 646.157247 
L 314.652792 646.166656 
L 319.572628 645.883159 
L 334.332136 644.652843 
L 339.251972 644.579904 
L 344.171808 644.751491 
L 352.371535 645.347885 
L 358.931316 645.761756 
L 363.851152 645.873411 
L 368.770988 645.781811 
L 376.970715 645.324586 
L 385.170441 644.89181 
L 390.090277 644.812244 
L 396.650059 644.959597 
L 414.689457 645.691502 
L 421.249239 645.612975 
L 444.208473 644.963665 
L 452.4082 645.187339 
L 463.887817 645.556066 
L 470.447599 645.572586 
L 480.287271 645.319684 
L 491.766888 645.041985 
L 499.966615 645.102125 
L 521.285904 645.515191 
L 531.125576 645.345308 
L 544.245139 645.095854 
L 554.084811 645.178212 
L 572.124209 645.471072 
L 581.963881 645.363127 
L 598.363335 645.131705 
L 609.842952 645.257189 
L 624.60246 645.437047 
L 636.082077 645.325144 
L 652.481531 645.162815 
L 667.241039 645.332094 
L 680.360601 645.404956 
L 698.4 645.20613 
L 698.4 645.20613 
" style="fill:none;stroke:#800000;stroke-dasharray:7.4,3.2;stroke-dashoffset:0;stroke-width:2;"/>
   </g>
   <g id="patch_3">
    <path d="M 108 720.9 
L 108 56.7 
" style="fill:none;stroke:#000000;stroke-linecap:square;stroke-linejoin:miter;stroke-width:0.8;"/>
   </g>
   <g id="patch_4">
    <path d="M 698.4 720.9 
L 698.4 56.7 
" style="fill:none;stroke:#000000;stroke-linecap:square;stroke-linejoin:miter;stroke-width:0.8;"/>
   </g>
   <g id="patch_5">
    <path d="M 108 720.9 
L 698.4 720.9 
" style="fill:none;stroke:#000000;stroke-linecap:square;stroke-linejoin:miter;stroke-width:0.8;"/>
   </g>
   <g id="patch_6">
    <path d="M 108 56.7 
L 698.4 56.7 
" style="fill:none;stroke:#000000;stroke-linecap:square;stroke-linejoin:miter;stroke-width:0.8;"/>
   </g>
   <g id="legend_1">
    <g id="patch_7">
     <path d="M 546.515872 307.266259 
L 684.4 307.266259 
Q 688.4 307.266259 688.4 303.266259 
L 688.4 70.7 
Q 688.4 66.7 684.4 66.7 
L 546.515872 66.7 
Q 542.515872 66.7 542.515872 70.7 
L 542.515872 303.266259 
Q 542.515872 307.266259 546.515872 307.266259 
z
" style="fill:#ffffff;opacity:0.8;stroke:#cccccc;stroke-linejoin:miter;"/>
    </g>
    <g id="line2d_37">
     <path d="M 550.515872 82.896875 
L 590.515872 82.896875 
" style="fill:none;stroke:#000000;stroke-linecap:square;stroke-width:2;"/>
    </g>
    <g id="line2d_38"/>
    <g id="text_17">
     <!-- total -->
     <g transform="translate(606.515872 89.896875)scale(0.2 -0.2)">
      <defs>
       <path d="M 16.703125 37 
L 29.703125 37 
L 29.703125 42.765625 
L 16.703125 42.765625 
L 16.703125 55 
L 9.59375 55 
L 9.59375 42.765625 
L 1.703125 42.765625 
L 1.703125 37 
L 9.40625 37 
L 9.40625 11.703125 
C 9.40625 6 10.703125 -1 17.296875 -1 
C 22.296875 -1 26.90625 0.390625 31.296875 2.6875 
L 29.703125 8.5625 
C 27.296875 6.46875 24.40625 5.265625 21.296875 5.265625 
C 16.90625 5.265625 16.703125 10.875 16.703125 13.375 
z
" id="CMSS17-116"/>
       <path d="M 44.203125 21.1875 
C 44.203125 34 34.703125 44 23.5 44 
C 12 44 2.703125 33.703125 2.703125 21.1875 
C 2.703125 8.5 12.296875 -1 23.40625 -1 
C 34.796875 -1 44.203125 8.796875 44.203125 21.1875 
z
M 23.5 5.265625 
C 16.40625 5.265625 10.296875 11.078125 10.296875 22 
C 10.296875 33.609375 17.40625 37.921875 23.40625 37.921875 
C 29.90625 37.921875 36.59375 33.21875 36.59375 22 
C 36.59375 10.671875 30.09375 5.265625 23.5 5.265625 
z
" id="CMSS17-111"/>
       <path d="M 37.59375 27.984375 
C 37.59375 37.375 30.90625 43.875 21.90625 43.875 
C 17.5 43.875 12.703125 43.078125 7.203125 39.890625 
L 7.796875 33.359375 
C 10.296875 35.125 14.59375 38 21.796875 38 
C 26.90625 38 30 34.0625 30 27.84375 
L 30 24 
C 14 24 4 19.34375 4 11.34375 
C 4 7.203125 6.5 -1 14.796875 -1 
C 16.296875 -1 24.40625 -1 30.203125 3.390625 
L 30.203125 -0.296875 
L 37.59375 -0.296875 
z
M 30 12.75 
C 30 10.953125 30 8.5625 27 6.78125 
C 24.40625 5.078125 21.09375 5.078125 19.703125 5.078125 
C 14.703125 5.078125 11.296875 7.984375 11.296875 11.625 
C 11.296875 18.921875 26.90625 18.921875 30 18.921875 
z
" id="CMSS17-97"/>
       <path d="M 14.796875 69 
L 7.40625 69 
L 7.40625 0 
L 14.796875 0 
z
" id="CMSS17-108"/>
      </defs>
      <use transform="scale(0.996264)" xlink:href="#CMSS17-116"/>
      <use transform="translate(33.831567 0)scale(0.996264)" xlink:href="#CMSS17-111"/>
      <use transform="translate(80.67519 0)scale(0.996264)" xlink:href="#CMSS17-116"/>
      <use transform="translate(114.506757 0)scale(0.996264)" xlink:href="#CMSS17-97"/>
      <use transform="translate(159.428677 0)scale(0.996264)" xlink:href="#CMSS17-108"/>
     </g>
    </g>
    <g id="line2d_39">
     <path d="M 550.515872 112.253125 
L 590.515872 112.253125 
" style="fill:none;stroke:#0010ff;stroke-dasharray:7.4,3.2;stroke-dashoffset:0;stroke-width:2;"/>
    </g>
    <g id="line2d_40"/>
    <g id="text_18">
     <!-- $ka=6$ -->
     <g transform="translate(606.515872 119.253125)scale(0.2 -0.2)">
      <defs>
       <path d="M 28.09375 66.515625 
C 28.203125 66.921875 28.40625 67.515625 28.40625 68 
C 28.40625 69 27.40625 69 27.203125 69 
C 27.09375 69 23.5 68.640625 21.703125 68.390625 
C 20 68.390625 18.5 68.09375 16.703125 68.09375 
C 14.296875 67.890625 13.59375 67.796875 13.59375 66 
C 13.59375 65 14.59375 65 15.59375 65 
C 20.703125 65 20.703125 64.109375 20.703125 63.125 
C 20.703125 62.734375 20.703125 62.53125 20.203125 60.75 
L 5.90625 3.875 
C 5.5 2.375 5.5 2.1875 5.5 1.578125 
C 5.5 -0.59375 7.203125 -1 8.203125 -1 
C 11 -1 11.59375 1.203125 12.40625 4.296875 
L 17.09375 22.953125 
C 24.296875 22.15625 28.59375 19.15625 28.59375 14.375 
C 28.59375 13.765625 28.59375 13.375 28.296875 11.875 
C 27.90625 10.375 27.90625 9.1875 27.90625 8.6875 
C 27.90625 2.890625 31.703125 -1 36.796875 -1 
C 41.40625 -1 43.796875 3.1875 44.59375 4.59375 
C 46.703125 8.28125 48 13.875 48 14.265625 
C 48 14.765625 47.59375 15.171875 47 15.171875 
C 46.09375 15.171875 46 14.765625 45.59375 13.171875 
C 44.203125 7.984375 42.09375 1 37 1 
C 35 1 33.703125 2 33.703125 5.78125 
C 33.703125 7.6875 34.09375 9.875 34.5 11.375 
C 34.90625 13.171875 34.90625 13.265625 34.90625 14.46875 
C 34.90625 20.359375 29.59375 23.65625 20.40625 24.84375 
C 24 27.046875 27.59375 30.9375 29 32.4375 
C 34.703125 38.8125 38.59375 42.015625 43.203125 42.015625 
C 45.5 42.015625 46.09375 41.40625 46.796875 40.8125 
C 43.09375 40.40625 41.703125 37.8125 41.703125 35.828125 
C 41.703125 33.421875 43.59375 32.625 45 32.625 
C 47.703125 32.625 50.09375 34.921875 50.09375 38.125 
C 50.09375 41.015625 47.796875 44 43.296875 44 
C 37.796875 44 33.296875 40.109375 26.203125 32.125 
C 25.203125 30.9375 21.5 27.140625 17.796875 25.75 
z
" id="CMMI12-107"/>
       <path d="M 30.09375 11.875 
C 29.59375 10.171875 29.59375 9.984375 28.203125 8.078125 
C 26 5.28125 21.59375 1 16.90625 1 
C 12.796875 1 10.5 4.6875 10.5 10.578125 
C 10.5 16.0625 13.59375 27.234375 15.5 31.4375 
C 18.90625 38.421875 23.59375 42.015625 27.5 42.015625 
C 34.09375 42.015625 35.40625 33.828125 35.40625 33.03125 
C 35.40625 32.9375 35.09375 31.625 35 31.4375 
z
M 36.5 37.421875 
C 35.40625 40.015625 32.703125 44 27.5 44 
C 16.203125 44 4 29.4375 4 14.671875 
C 4 4.796875 9.796875 -1 16.59375 -1 
C 22.09375 -1 26.796875 3.296875 29.59375 6.59375 
C 30.59375 0.703125 35.296875 -1 38.296875 -1 
C 41.296875 -1 43.703125 0.796875 45.5 4.390625 
C 47.09375 7.78125 48.5 13.875 48.5 14.265625 
C 48.5 14.765625 48.09375 15.171875 47.5 15.171875 
C 46.59375 15.171875 46.5 14.671875 46.09375 13.171875 
C 44.59375 7.28125 42.703125 1 38.59375 1 
C 35.703125 1 35.5 3.59375 35.5 5.59375 
C 35.5 7.890625 35.796875 8.984375 36.703125 12.875 
C 37.40625 15.375 37.90625 17.5625 38.703125 20.453125 
C 42.40625 35.421875 43.296875 39.015625 43.296875 39.609375 
C 43.296875 41.015625 42.203125 42.109375 40.703125 42.109375 
C 37.5 42.109375 36.703125 38.625 36.5 37.421875 
z
" id="CMMI12-97"/>
       <path d="M 64.296875 31.515625 
C 65.796875 31.515625 67.296875 31.515625 67.296875 33.203125 
C 67.296875 35 65.59375 35 63.90625 35 
L 8 35 
C 6.296875 35 4.59375 35 4.59375 33.203125 
C 4.59375 31.515625 6.09375 31.515625 7.59375 31.515625 
z
M 63.90625 14 
C 65.59375 14 67.296875 14 67.296875 15.796875 
C 67.296875 17.484375 65.796875 17.484375 64.296875 17.484375 
L 7.59375 17.484375 
C 6.09375 17.484375 4.59375 17.484375 4.59375 15.796875 
C 4.59375 14 6.296875 14 8 14 
z
" id="CMR17-61"/>
      </defs>
      <use transform="scale(0.996264)" xlink:href="#CMMI12-107"/>
      <use transform="translate(54.079201 0)scale(0.996264)" xlink:href="#CMMI12-97"/>
      <use transform="translate(132.961067 0)scale(0.996264)" xlink:href="#CMR17-61"/>
      <use transform="translate(232.349864 0)scale(0.996264)" xlink:href="#CMR17-54"/>
     </g>
    </g>
    <g id="line2d_41">
     <path d="M 550.515872 141.609375 
L 590.515872 141.609375 
" style="fill:none;stroke:#00a4ff;stroke-dasharray:7.4,3.2;stroke-dashoffset:0;stroke-width:2;"/>
    </g>
    <g id="line2d_42"/>
    <g id="text_19">
     <!-- $ka=12$ -->
     <g transform="translate(606.515872 148.609375)scale(0.2 -0.2)">
      <use transform="scale(0.996264)" xlink:href="#CMMI12-107"/>
      <use transform="translate(54.079201 0)scale(0.996264)" xlink:href="#CMMI12-97"/>
      <use transform="translate(132.961067 0)scale(0.996264)" xlink:href="#CMR17-61"/>
      <use transform="translate(232.349864 0)scale(0.996264)" xlink:href="#CMR17-49"/>
      <use transform="translate(278.040341 0)scale(0.996264)" xlink:href="#CMR17-50"/>
     </g>
    </g>
    <g id="line2d_43">
     <path d="M 550.515872 170.965625 
L 590.515872 170.965625 
" style="fill:none;stroke:#40ffb7;stroke-dasharray:7.4,3.2;stroke-dashoffset:0;stroke-width:2;"/>
    </g>
    <g id="line2d_44"/>
    <g id="text_20">
     <!-- $ka=37$ -->
     <g transform="translate(606.515872 177.965625)scale(0.2 -0.2)">
      <defs>
       <path d="M 45.09375 61.578125 
L 45.09375 63.765625 
L 21.59375 63.765625 
C 9.90625 63.765625 9.703125 65.078125 9.296875 67 
L 7.5 67 
L 4.59375 48.34375 
L 6.40625 48.34375 
C 6.703125 50.234375 7.40625 55.3125 8.59375 57.203125 
C 9.203125 58 16.59375 58 18.296875 58 
L 40.296875 58 
L 29.203125 41.578125 
C 21.796875 30.53125 16.703125 15.609375 16.703125 2.578125 
C 16.703125 1.390625 16.703125 -2 20.296875 -2 
C 23.90625 -2 23.90625 1.390625 23.90625 2.671875 
L 23.90625 7.265625 
C 23.90625 23.5625 26.703125 34.3125 31.296875 41.1875 
z
" id="CMR17-55"/>
      </defs>
      <use transform="scale(0.996264)" xlink:href="#CMMI12-107"/>
      <use transform="translate(54.079201 0)scale(0.996264)" xlink:href="#CMMI12-97"/>
      <use transform="translate(132.961067 0)scale(0.996264)" xlink:href="#CMR17-61"/>
      <use transform="translate(232.349864 0)scale(0.996264)" xlink:href="#CMR17-51"/>
      <use transform="translate(278.040341 0)scale(0.996264)" xlink:href="#CMR17-55"/>
     </g>
    </g>
    <g id="line2d_45">
     <path d="M 550.515872 200.321875 
L 590.515872 200.321875 
" style="fill:none;stroke:#b7ff40;stroke-dasharray:7.4,3.2;stroke-dashoffset:0;stroke-width:2;"/>
    </g>
    <g id="line2d_46"/>
    <g id="text_21">
     <!-- $ka=62$ -->
     <g transform="translate(606.515872 207.321875)scale(0.2 -0.2)">
      <use transform="scale(0.996264)" xlink:href="#CMMI12-107"/>
      <use transform="translate(54.079201 0)scale(0.996264)" xlink:href="#CMMI12-97"/>
      <use transform="translate(132.961067 0)scale(0.996264)" xlink:href="#CMR17-61"/>
      <use transform="translate(232.349864 0)scale(0.996264)" xlink:href="#CMR17-54"/>
      <use transform="translate(278.040341 0)scale(0.996264)" xlink:href="#CMR17-50"/>
     </g>
    </g>
    <g id="line2d_47">
     <path d="M 550.515872 229.678125 
L 590.515872 229.678125 
" style="fill:none;stroke:#ffb900;stroke-dasharray:7.4,3.2;stroke-dashoffset:0;stroke-width:2;"/>
    </g>
    <g id="line2d_48"/>
    <g id="text_22">
     <!-- $ka=87$ -->
     <g transform="translate(606.515872 236.678125)scale(0.2 -0.2)">
      <defs>
       <path d="M 27.203125 35.375 
C 33.5 38.546875 39.90625 43.328125 39.90625 50.984375 
C 39.90625 60.015625 31.09375 65.296875 23 65.296875 
C 13.90625 65.296875 5.90625 58.734375 5.90625 49.6875 
C 5.90625 47.203125 6.5 42.921875 10.40625 39.140625 
C 11.40625 38.15625 15.59375 35.171875 18.296875 33.28125 
C 13.796875 30.984375 3.296875 25.53125 3.296875 14.59375 
C 3.296875 4.359375 13.09375 -2 22.796875 -2 
C 33.5 -2 42.5 5.65625 42.5 15.78125 
C 42.5 24.84375 36.40625 29.015625 32.40625 31.703125 
z
M 14.09375 44.09375 
C 13.296875 44.59375 9.296875 47.671875 9.296875 52.359375 
C 9.296875 58.421875 15.59375 63 22.796875 63 
C 30.703125 63 36.5 57.4375 36.5 50.96875 
C 36.5 41.703125 26.09375 36.421875 25.59375 36.421875 
C 25.5 36.421875 25.40625 36.421875 24.59375 37.03125 
z
M 32.5 23.734375 
C 34 22.640625 38.796875 19.375 38.796875 13.296875 
C 38.796875 5.953125 31.40625 0.390625 23 0.390625 
C 13.90625 0.390625 7 6.84375 7 14.6875 
C 7 22.546875 13.09375 29.09375 20 32.1875 
z
" id="CMR17-56"/>
      </defs>
      <use transform="scale(0.996264)" xlink:href="#CMMI12-107"/>
      <use transform="translate(54.079201 0)scale(0.996264)" xlink:href="#CMMI12-97"/>
      <use transform="translate(132.961067 0)scale(0.996264)" xlink:href="#CMR17-61"/>
      <use transform="translate(232.349864 0)scale(0.996264)" xlink:href="#CMR17-56"/>
      <use transform="translate(278.040341 0)scale(0.996264)" xlink:href="#CMR17-55"/>
     </g>
    </g>
    <g id="line2d_49">
     <path d="M 550.515872 259.034375 
L 590.515872 259.034375 
" style="fill:none;stroke:#ff3000;stroke-dasharray:7.4,3.2;stroke-dashoffset:0;stroke-width:2;"/>
    </g>
    <g id="line2d_50"/>
    <g id="text_23">
     <!-- $ka=113$ -->
     <g transform="translate(606.515872 266.034375)scale(0.2 -0.2)">
      <use transform="scale(0.996264)" xlink:href="#CMMI12-107"/>
      <use transform="translate(54.079201 0)scale(0.996264)" xlink:href="#CMMI12-97"/>
      <use transform="translate(132.961067 0)scale(0.996264)" xlink:href="#CMR17-61"/>
      <use transform="translate(232.349864 0)scale(0.996264)" xlink:href="#CMR17-49"/>
      <use transform="translate(278.040341 0)scale(0.996264)" xlink:href="#CMR17-49"/>
      <use transform="translate(323.730818 0)scale(0.996264)" xlink:href="#CMR17-51"/>
     </g>
    </g>
    <g id="line2d_51">
     <path d="M 550.515872 288.390625 
L 590.515872 288.390625 
" style="fill:none;stroke:#800000;stroke-dasharray:7.4,3.2;stroke-dashoffset:0;stroke-width:2;"/>
    </g>
    <g id="line2d_52"/>
    <g id="text_24">
     <!-- $ka=138$ -->
     <g transform="translate(606.515872 295.390625)scale(0.2 -0.2)">
      <use transform="scale(0.996264)" xlink:href="#CMMI12-107"/>
      <use transform="translate(54.079201 0)scale(0.996264)" xlink:href="#CMMI12-97"/>
      <use transform="translate(132.961067 0)scale(0.996264)" xlink:href="#CMR17-61"/>
      <use transform="translate(232.349864 0)scale(0.996264)" xlink:href="#CMR17-49"/>
      <use transform="translate(278.040341 0)scale(0.996264)" xlink:href="#CMR17-51"/>
      <use transform="translate(323.730818 0)scale(0.996264)" xlink:href="#CMR17-56"/>
     </g>
    </g>
   </g>
  </g>
 </g>
 <defs>
  <clipPath id="p593ee9ddf5">
   <rect height="664.2" width="590.4" x="108" y="56.7"/>
  </clipPath>
 </defs>
</svg>
