<?xml version="1.0" encoding="utf-8" standalone="no"?>
<!DOCTYPE svg PUBLIC "-//W3C//DTD SVG 1.1//EN"
  "http://www.w3.org/Graphics/SVG/1.1/DTD/svg11.dtd">
<!-- Created with matplotlib (https://matplotlib.org/) -->
<svg height="810pt" version="1.1" viewBox="0 0 720 810" width="720pt" xmlns="http://www.w3.org/2000/svg" xmlns:xlink="http://www.w3.org/1999/xlink">
 <metadata>
  <rdf:RDF xmlns:cc="http://creativecommons.org/ns#" xmlns:dc="http://purl.org/dc/elements/1.1/" xmlns:rdf="http://www.w3.org/1999/02/22-rdf-syntax-ns#">
   <cc:Work>
    <dc:type rdf:resource="http://purl.org/dc/dcmitype/StillImage"/>
    <dc:date>2021-08-13T16:05:00.038660</dc:date>
    <dc:format>image/svg+xml</dc:format>
    <dc:creator>
     <cc:Agent>
      <dc:title>Matplotlib v3.3.1, https://matplotlib.org/</dc:title>
     </cc:Agent>
    </dc:creator>
   </cc:Work>
  </rdf:RDF>
 </metadata>
 <defs>
  <style type="text/css">*{stroke-linecap:butt;stroke-linejoin:round;}</style>
 </defs>
 <g id="figure_1">
  <g id="patch_1">
   <path d="M 0 810 
L 720 810 
L 720 0 
L 0 0 
z
" style="fill:#ffffff;"/>
  </g>
  <g id="axes_1">
   <g id="patch_2">
    <path d="M 108 720.9 
L 698.4 720.9 
L 698.4 56.7 
L 108 56.7 
z
" style="fill:#ffffff;"/>
   </g>
   <g id="matplotlib.axis_1">
    <g id="xtick_1">
     <g id="line2d_1">
      <path clip-path="url(#p854ec31659)" d="M 108 720.9 
L 108 56.7 
" style="fill:none;stroke:#e6e6e6;stroke-linecap:square;stroke-width:0.8;"/>
     </g>
     <g id="line2d_2">
      <defs>
       <path d="M 0 0 
L 0 3.5 
" id="m7f6591fda5" style="stroke:#000000;stroke-width:0.8;"/>
      </defs>
      <g>
       <use style="stroke:#000000;stroke-width:0.8;" x="108" xlink:href="#m7f6591fda5" y="720.9"/>
      </g>
     </g>
     <g id="text_1">
      <!-- 0 -->
      <g transform="translate(103.228125 739.297656)scale(0.15 -0.15)">
       <defs>
        <path d="M 31.78125 66.40625 
Q 24.171875 66.40625 20.328125 58.90625 
Q 16.5 51.421875 16.5 36.375 
Q 16.5 21.390625 20.328125 13.890625 
Q 24.171875 6.390625 31.78125 6.390625 
Q 39.453125 6.390625 43.28125 13.890625 
Q 47.125 21.390625 47.125 36.375 
Q 47.125 51.421875 43.28125 58.90625 
Q 39.453125 66.40625 31.78125 66.40625 
z
M 31.78125 74.21875 
Q 44.046875 74.21875 50.515625 64.515625 
Q 56.984375 54.828125 56.984375 36.375 
Q 56.984375 17.96875 50.515625 8.265625 
Q 44.046875 -1.421875 31.78125 -1.421875 
Q 19.53125 -1.421875 13.0625 8.265625 
Q 6.59375 17.96875 6.59375 36.375 
Q 6.59375 54.828125 13.0625 64.515625 
Q 19.53125 74.21875 31.78125 74.21875 
z
" id="DejaVuSans-48"/>
       </defs>
       <use xlink:href="#DejaVuSans-48"/>
      </g>
     </g>
    </g>
    <g id="xtick_2">
     <g id="line2d_3">
      <path clip-path="url(#p854ec31659)" d="M 173.6 720.9 
L 173.6 56.7 
" style="fill:none;stroke:#e6e6e6;stroke-linecap:square;stroke-width:0.8;"/>
     </g>
     <g id="line2d_4">
      <g>
       <use style="stroke:#000000;stroke-width:0.8;" x="173.6" xlink:href="#m7f6591fda5" y="720.9"/>
      </g>
     </g>
     <g id="text_2">
      <!-- 20 -->
      <g transform="translate(164.05625 739.297656)scale(0.15 -0.15)">
       <defs>
        <path d="M 19.1875 8.296875 
L 53.609375 8.296875 
L 53.609375 0 
L 7.328125 0 
L 7.328125 8.296875 
Q 12.9375 14.109375 22.625 23.890625 
Q 32.328125 33.6875 34.8125 36.53125 
Q 39.546875 41.84375 41.421875 45.53125 
Q 43.3125 49.21875 43.3125 52.78125 
Q 43.3125 58.59375 39.234375 62.25 
Q 35.15625 65.921875 28.609375 65.921875 
Q 23.96875 65.921875 18.8125 64.3125 
Q 13.671875 62.703125 7.8125 59.421875 
L 7.8125 69.390625 
Q 13.765625 71.78125 18.9375 73 
Q 24.125 74.21875 28.421875 74.21875 
Q 39.75 74.21875 46.484375 68.546875 
Q 53.21875 62.890625 53.21875 53.421875 
Q 53.21875 48.921875 51.53125 44.890625 
Q 49.859375 40.875 45.40625 35.40625 
Q 44.1875 33.984375 37.640625 27.21875 
Q 31.109375 20.453125 19.1875 8.296875 
z
" id="DejaVuSans-50"/>
       </defs>
       <use xlink:href="#DejaVuSans-50"/>
       <use x="63.623047" xlink:href="#DejaVuSans-48"/>
      </g>
     </g>
    </g>
    <g id="xtick_3">
     <g id="line2d_5">
      <path clip-path="url(#p854ec31659)" d="M 239.2 720.9 
L 239.2 56.7 
" style="fill:none;stroke:#e6e6e6;stroke-linecap:square;stroke-width:0.8;"/>
     </g>
     <g id="line2d_6">
      <g>
       <use style="stroke:#000000;stroke-width:0.8;" x="239.2" xlink:href="#m7f6591fda5" y="720.9"/>
      </g>
     </g>
     <g id="text_3">
      <!-- 40 -->
      <g transform="translate(229.65625 739.297656)scale(0.15 -0.15)">
       <defs>
        <path d="M 37.796875 64.3125 
L 12.890625 25.390625 
L 37.796875 25.390625 
z
M 35.203125 72.90625 
L 47.609375 72.90625 
L 47.609375 25.390625 
L 58.015625 25.390625 
L 58.015625 17.1875 
L 47.609375 17.1875 
L 47.609375 0 
L 37.796875 0 
L 37.796875 17.1875 
L 4.890625 17.1875 
L 4.890625 26.703125 
z
" id="DejaVuSans-52"/>
       </defs>
       <use xlink:href="#DejaVuSans-52"/>
       <use x="63.623047" xlink:href="#DejaVuSans-48"/>
      </g>
     </g>
    </g>
    <g id="xtick_4">
     <g id="line2d_7">
      <path clip-path="url(#p854ec31659)" d="M 304.8 720.9 
L 304.8 56.7 
" style="fill:none;stroke:#e6e6e6;stroke-linecap:square;stroke-width:0.8;"/>
     </g>
     <g id="line2d_8">
      <g>
       <use style="stroke:#000000;stroke-width:0.8;" x="304.8" xlink:href="#m7f6591fda5" y="720.9"/>
      </g>
     </g>
     <g id="text_4">
      <!-- 60 -->
      <g transform="translate(295.25625 739.297656)scale(0.15 -0.15)">
       <defs>
        <path d="M 33.015625 40.375 
Q 26.375 40.375 22.484375 35.828125 
Q 18.609375 31.296875 18.609375 23.390625 
Q 18.609375 15.53125 22.484375 10.953125 
Q 26.375 6.390625 33.015625 6.390625 
Q 39.65625 6.390625 43.53125 10.953125 
Q 47.40625 15.53125 47.40625 23.390625 
Q 47.40625 31.296875 43.53125 35.828125 
Q 39.65625 40.375 33.015625 40.375 
z
M 52.59375 71.296875 
L 52.59375 62.3125 
Q 48.875 64.0625 45.09375 64.984375 
Q 41.3125 65.921875 37.59375 65.921875 
Q 27.828125 65.921875 22.671875 59.328125 
Q 17.53125 52.734375 16.796875 39.40625 
Q 19.671875 43.65625 24.015625 45.921875 
Q 28.375 48.1875 33.59375 48.1875 
Q 44.578125 48.1875 50.953125 41.515625 
Q 57.328125 34.859375 57.328125 23.390625 
Q 57.328125 12.15625 50.6875 5.359375 
Q 44.046875 -1.421875 33.015625 -1.421875 
Q 20.359375 -1.421875 13.671875 8.265625 
Q 6.984375 17.96875 6.984375 36.375 
Q 6.984375 53.65625 15.1875 63.9375 
Q 23.390625 74.21875 37.203125 74.21875 
Q 40.921875 74.21875 44.703125 73.484375 
Q 48.484375 72.75 52.59375 71.296875 
z
" id="DejaVuSans-54"/>
       </defs>
       <use xlink:href="#DejaVuSans-54"/>
       <use x="63.623047" xlink:href="#DejaVuSans-48"/>
      </g>
     </g>
    </g>
    <g id="xtick_5">
     <g id="line2d_9">
      <path clip-path="url(#p854ec31659)" d="M 370.4 720.9 
L 370.4 56.7 
" style="fill:none;stroke:#e6e6e6;stroke-linecap:square;stroke-width:0.8;"/>
     </g>
     <g id="line2d_10">
      <g>
       <use style="stroke:#000000;stroke-width:0.8;" x="370.4" xlink:href="#m7f6591fda5" y="720.9"/>
      </g>
     </g>
     <g id="text_5">
      <!-- 80 -->
      <g transform="translate(360.85625 739.297656)scale(0.15 -0.15)">
       <defs>
        <path d="M 31.78125 34.625 
Q 24.75 34.625 20.71875 30.859375 
Q 16.703125 27.09375 16.703125 20.515625 
Q 16.703125 13.921875 20.71875 10.15625 
Q 24.75 6.390625 31.78125 6.390625 
Q 38.8125 6.390625 42.859375 10.171875 
Q 46.921875 13.96875 46.921875 20.515625 
Q 46.921875 27.09375 42.890625 30.859375 
Q 38.875 34.625 31.78125 34.625 
z
M 21.921875 38.8125 
Q 15.578125 40.375 12.03125 44.71875 
Q 8.5 49.078125 8.5 55.328125 
Q 8.5 64.0625 14.71875 69.140625 
Q 20.953125 74.21875 31.78125 74.21875 
Q 42.671875 74.21875 48.875 69.140625 
Q 55.078125 64.0625 55.078125 55.328125 
Q 55.078125 49.078125 51.53125 44.71875 
Q 48 40.375 41.703125 38.8125 
Q 48.828125 37.15625 52.796875 32.3125 
Q 56.78125 27.484375 56.78125 20.515625 
Q 56.78125 9.90625 50.3125 4.234375 
Q 43.84375 -1.421875 31.78125 -1.421875 
Q 19.734375 -1.421875 13.25 4.234375 
Q 6.78125 9.90625 6.78125 20.515625 
Q 6.78125 27.484375 10.78125 32.3125 
Q 14.796875 37.15625 21.921875 38.8125 
z
M 18.3125 54.390625 
Q 18.3125 48.734375 21.84375 45.5625 
Q 25.390625 42.390625 31.78125 42.390625 
Q 38.140625 42.390625 41.71875 45.5625 
Q 45.3125 48.734375 45.3125 54.390625 
Q 45.3125 60.0625 41.71875 63.234375 
Q 38.140625 66.40625 31.78125 66.40625 
Q 25.390625 66.40625 21.84375 63.234375 
Q 18.3125 60.0625 18.3125 54.390625 
z
" id="DejaVuSans-56"/>
       </defs>
       <use xlink:href="#DejaVuSans-56"/>
       <use x="63.623047" xlink:href="#DejaVuSans-48"/>
      </g>
     </g>
    </g>
    <g id="xtick_6">
     <g id="line2d_11">
      <path clip-path="url(#p854ec31659)" d="M 436 720.9 
L 436 56.7 
" style="fill:none;stroke:#e6e6e6;stroke-linecap:square;stroke-width:0.8;"/>
     </g>
     <g id="line2d_12">
      <g>
       <use style="stroke:#000000;stroke-width:0.8;" x="436" xlink:href="#m7f6591fda5" y="720.9"/>
      </g>
     </g>
     <g id="text_6">
      <!-- 100 -->
      <g transform="translate(421.684375 739.297656)scale(0.15 -0.15)">
       <defs>
        <path d="M 12.40625 8.296875 
L 28.515625 8.296875 
L 28.515625 63.921875 
L 10.984375 60.40625 
L 10.984375 69.390625 
L 28.421875 72.90625 
L 38.28125 72.90625 
L 38.28125 8.296875 
L 54.390625 8.296875 
L 54.390625 0 
L 12.40625 0 
z
" id="DejaVuSans-49"/>
       </defs>
       <use xlink:href="#DejaVuSans-49"/>
       <use x="63.623047" xlink:href="#DejaVuSans-48"/>
       <use x="127.246094" xlink:href="#DejaVuSans-48"/>
      </g>
     </g>
    </g>
    <g id="xtick_7">
     <g id="line2d_13">
      <path clip-path="url(#p854ec31659)" d="M 501.6 720.9 
L 501.6 56.7 
" style="fill:none;stroke:#e6e6e6;stroke-linecap:square;stroke-width:0.8;"/>
     </g>
     <g id="line2d_14">
      <g>
       <use style="stroke:#000000;stroke-width:0.8;" x="501.6" xlink:href="#m7f6591fda5" y="720.9"/>
      </g>
     </g>
     <g id="text_7">
      <!-- 120 -->
      <g transform="translate(487.284375 739.297656)scale(0.15 -0.15)">
       <use xlink:href="#DejaVuSans-49"/>
       <use x="63.623047" xlink:href="#DejaVuSans-50"/>
       <use x="127.246094" xlink:href="#DejaVuSans-48"/>
      </g>
     </g>
    </g>
    <g id="xtick_8">
     <g id="line2d_15">
      <path clip-path="url(#p854ec31659)" d="M 567.2 720.9 
L 567.2 56.7 
" style="fill:none;stroke:#e6e6e6;stroke-linecap:square;stroke-width:0.8;"/>
     </g>
     <g id="line2d_16">
      <g>
       <use style="stroke:#000000;stroke-width:0.8;" x="567.2" xlink:href="#m7f6591fda5" y="720.9"/>
      </g>
     </g>
     <g id="text_8">
      <!-- 140 -->
      <g transform="translate(552.884375 739.297656)scale(0.15 -0.15)">
       <use xlink:href="#DejaVuSans-49"/>
       <use x="63.623047" xlink:href="#DejaVuSans-52"/>
       <use x="127.246094" xlink:href="#DejaVuSans-48"/>
      </g>
     </g>
    </g>
    <g id="xtick_9">
     <g id="line2d_17">
      <path clip-path="url(#p854ec31659)" d="M 632.8 720.9 
L 632.8 56.7 
" style="fill:none;stroke:#e6e6e6;stroke-linecap:square;stroke-width:0.8;"/>
     </g>
     <g id="line2d_18">
      <g>
       <use style="stroke:#000000;stroke-width:0.8;" x="632.8" xlink:href="#m7f6591fda5" y="720.9"/>
      </g>
     </g>
     <g id="text_9">
      <!-- 160 -->
      <g transform="translate(618.484375 739.297656)scale(0.15 -0.15)">
       <use xlink:href="#DejaVuSans-49"/>
       <use x="63.623047" xlink:href="#DejaVuSans-54"/>
       <use x="127.246094" xlink:href="#DejaVuSans-48"/>
      </g>
     </g>
    </g>
    <g id="xtick_10">
     <g id="line2d_19">
      <path clip-path="url(#p854ec31659)" d="M 698.4 720.9 
L 698.4 56.7 
" style="fill:none;stroke:#e6e6e6;stroke-linecap:square;stroke-width:0.8;"/>
     </g>
     <g id="line2d_20">
      <g>
       <use style="stroke:#000000;stroke-width:0.8;" x="698.4" xlink:href="#m7f6591fda5" y="720.9"/>
      </g>
     </g>
     <g id="text_10">
      <!-- 180 -->
      <g transform="translate(684.084375 739.297656)scale(0.15 -0.15)">
       <use xlink:href="#DejaVuSans-49"/>
       <use x="63.623047" xlink:href="#DejaVuSans-56"/>
       <use x="127.246094" xlink:href="#DejaVuSans-48"/>
      </g>
     </g>
    </g>
    <g id="text_11">
     <!-- $\theta(^{\circ})$ -->
     <g transform="translate(379.825 765.413281)scale(0.25 -0.25)">
      <defs>
       <path d="M 45.515625 34.671875 
L 14.453125 34.671875 
Q 12.359375 20.0625 14.5 13.875 
Q 17.1875 6.25 24.46875 6.25 
Q 31.78125 6.25 37.359375 13.921875 
Q 42.234375 20.65625 45.515625 34.671875 
z
M 47.015625 42.96875 
Q 48.34375 56.84375 46.625 61.71875 
Q 43.953125 69.4375 36.765625 69.4375 
Q 29.296875 69.4375 23.828125 61.8125 
Q 19.53125 55.671875 16.15625 42.96875 
z
M 38.1875 76.765625 
Q 49.90625 76.765625 54.59375 66.40625 
Q 59.28125 56.109375 55.71875 37.84375 
Q 52.203125 19.625 43.453125 9.28125 
Q 34.765625 -1.125 23.046875 -1.125 
Q 11.28125 -1.125 6.640625 9.28125 
Q 2 19.625 5.515625 37.84375 
Q 9.078125 56.109375 17.71875 66.40625 
Q 26.421875 76.765625 38.1875 76.765625 
z
" id="DejaVuSans-Oblique-952"/>
       <path d="M 31 75.875 
Q 24.46875 64.65625 21.28125 53.65625 
Q 18.109375 42.671875 18.109375 31.390625 
Q 18.109375 20.125 21.3125 9.0625 
Q 24.515625 -2 31 -13.1875 
L 23.1875 -13.1875 
Q 15.875 -1.703125 12.234375 9.375 
Q 8.59375 20.453125 8.59375 31.390625 
Q 8.59375 42.28125 12.203125 53.3125 
Q 15.828125 64.359375 23.1875 75.875 
z
" id="DejaVuSans-40"/>
       <path d="M 31.25 40.921875 
Q 27.34375 40.921875 24.65625 38.203125 
Q 21.96875 35.5 21.96875 31.59375 
Q 21.96875 27.734375 24.65625 25.078125 
Q 27.34375 22.421875 31.25 22.421875 
Q 35.15625 22.421875 37.84375 25.078125 
Q 40.53125 27.734375 40.53125 31.59375 
Q 40.53125 35.453125 37.8125 38.1875 
Q 35.109375 40.921875 31.25 40.921875 
z
M 31.25 47.21875 
Q 34.375 47.21875 37.25 46.015625 
Q 40.140625 44.828125 42.234375 42.578125 
Q 44.484375 40.390625 45.609375 37.59375 
Q 46.734375 34.8125 46.734375 31.59375 
Q 46.734375 25.15625 42.21875 20.6875 
Q 37.703125 16.21875 31.15625 16.21875 
Q 24.5625 16.21875 20.15625 20.609375 
Q 15.765625 25 15.765625 31.59375 
Q 15.765625 38.140625 20.25 42.671875 
Q 24.75 47.21875 31.25 47.21875 
z
" id="DejaVuSans-8728"/>
       <path d="M 8.015625 75.875 
L 15.828125 75.875 
Q 23.140625 64.359375 26.78125 53.3125 
Q 30.421875 42.28125 30.421875 31.390625 
Q 30.421875 20.453125 26.78125 9.375 
Q 23.140625 -1.703125 15.828125 -13.1875 
L 8.015625 -13.1875 
Q 14.5 -2 17.703125 9.0625 
Q 20.90625 20.125 20.90625 31.390625 
Q 20.90625 42.671875 17.703125 53.65625 
Q 14.5 64.65625 8.015625 75.875 
z
" id="DejaVuSans-41"/>
      </defs>
      <use transform="translate(0 0.234375)" xlink:href="#DejaVuSans-Oblique-952"/>
      <use transform="translate(61.181641 0.234375)" xlink:href="#DejaVuSans-40"/>
      <use transform="translate(101.152344 38.515625)scale(0.7)" xlink:href="#DejaVuSans-8728"/>
      <use transform="translate(147.705078 0.234375)" xlink:href="#DejaVuSans-41"/>
     </g>
    </g>
   </g>
   <g id="matplotlib.axis_2">
    <g id="ytick_1">
     <g id="line2d_21">
      <path clip-path="url(#p854ec31659)" d="M 108 663.265149 
L 698.4 663.265149 
" style="fill:none;stroke:#e6e6e6;stroke-linecap:square;stroke-width:0.8;"/>
     </g>
     <g id="line2d_22">
      <defs>
       <path d="M 0 0 
L -3.5 0 
" id="mef2b172b59" style="stroke:#000000;stroke-width:0.8;"/>
      </defs>
      <g>
       <use style="stroke:#000000;stroke-width:0.8;" x="108" xlink:href="#mef2b172b59" y="663.265149"/>
      </g>
     </g>
     <g id="text_12">
      <!-- 0.0 -->
      <g transform="translate(77.145313 668.963977)scale(0.15 -0.15)">
       <defs>
        <path d="M 10.6875 12.40625 
L 21 12.40625 
L 21 0 
L 10.6875 0 
z
" id="DejaVuSans-46"/>
       </defs>
       <use xlink:href="#DejaVuSans-48"/>
       <use x="63.623047" xlink:href="#DejaVuSans-46"/>
       <use x="95.410156" xlink:href="#DejaVuSans-48"/>
      </g>
     </g>
    </g>
    <g id="ytick_2">
     <g id="line2d_23">
      <path clip-path="url(#p854ec31659)" d="M 108 553.479557 
L 698.4 553.479557 
" style="fill:none;stroke:#e6e6e6;stroke-linecap:square;stroke-width:0.8;"/>
     </g>
     <g id="line2d_24">
      <g>
       <use style="stroke:#000000;stroke-width:0.8;" x="108" xlink:href="#mef2b172b59" y="553.479557"/>
      </g>
     </g>
     <g id="text_13">
      <!-- 0.2 -->
      <g transform="translate(77.145313 559.178385)scale(0.15 -0.15)">
       <use xlink:href="#DejaVuSans-48"/>
       <use x="63.623047" xlink:href="#DejaVuSans-46"/>
       <use x="95.410156" xlink:href="#DejaVuSans-50"/>
      </g>
     </g>
    </g>
    <g id="ytick_3">
     <g id="line2d_25">
      <path clip-path="url(#p854ec31659)" d="M 108 443.693966 
L 698.4 443.693966 
" style="fill:none;stroke:#e6e6e6;stroke-linecap:square;stroke-width:0.8;"/>
     </g>
     <g id="line2d_26">
      <g>
       <use style="stroke:#000000;stroke-width:0.8;" x="108" xlink:href="#mef2b172b59" y="443.693966"/>
      </g>
     </g>
     <g id="text_14">
      <!-- 0.4 -->
      <g transform="translate(77.145313 449.392794)scale(0.15 -0.15)">
       <use xlink:href="#DejaVuSans-48"/>
       <use x="63.623047" xlink:href="#DejaVuSans-46"/>
       <use x="95.410156" xlink:href="#DejaVuSans-52"/>
      </g>
     </g>
    </g>
    <g id="ytick_4">
     <g id="line2d_27">
      <path clip-path="url(#p854ec31659)" d="M 108 333.908374 
L 698.4 333.908374 
" style="fill:none;stroke:#e6e6e6;stroke-linecap:square;stroke-width:0.8;"/>
     </g>
     <g id="line2d_28">
      <g>
       <use style="stroke:#000000;stroke-width:0.8;" x="108" xlink:href="#mef2b172b59" y="333.908374"/>
      </g>
     </g>
     <g id="text_15">
      <!-- 0.6 -->
      <g transform="translate(77.145313 339.607202)scale(0.15 -0.15)">
       <use xlink:href="#DejaVuSans-48"/>
       <use x="63.623047" xlink:href="#DejaVuSans-46"/>
       <use x="95.410156" xlink:href="#DejaVuSans-54"/>
      </g>
     </g>
    </g>
    <g id="ytick_5">
     <g id="line2d_29">
      <path clip-path="url(#p854ec31659)" d="M 108 224.122782 
L 698.4 224.122782 
" style="fill:none;stroke:#e6e6e6;stroke-linecap:square;stroke-width:0.8;"/>
     </g>
     <g id="line2d_30">
      <g>
       <use style="stroke:#000000;stroke-width:0.8;" x="108" xlink:href="#mef2b172b59" y="224.122782"/>
      </g>
     </g>
     <g id="text_16">
      <!-- 0.8 -->
      <g transform="translate(77.145313 229.82161)scale(0.15 -0.15)">
       <use xlink:href="#DejaVuSans-48"/>
       <use x="63.623047" xlink:href="#DejaVuSans-46"/>
       <use x="95.410156" xlink:href="#DejaVuSans-56"/>
      </g>
     </g>
    </g>
    <g id="ytick_6">
     <g id="line2d_31">
      <path clip-path="url(#p854ec31659)" d="M 108 114.33719 
L 698.4 114.33719 
" style="fill:none;stroke:#e6e6e6;stroke-linecap:square;stroke-width:0.8;"/>
     </g>
     <g id="line2d_32">
      <g>
       <use style="stroke:#000000;stroke-width:0.8;" x="108" xlink:href="#mef2b172b59" y="114.33719"/>
      </g>
     </g>
     <g id="text_17">
      <!-- 1.0 -->
      <g transform="translate(77.145313 120.036018)scale(0.15 -0.15)">
       <use xlink:href="#DejaVuSans-49"/>
       <use x="63.623047" xlink:href="#DejaVuSans-46"/>
       <use x="95.410156" xlink:href="#DejaVuSans-48"/>
      </g>
     </g>
    </g>
    <g id="text_18">
     <!-- $|f(\theta)|$ -->
     <g transform="translate(67.145313 419.05)rotate(-90)scale(0.25 -0.25)">
      <defs>
       <path d="M 21 76.421875 
L 21 -23.578125 
L 12.703125 -23.578125 
L 12.703125 76.421875 
z
" id="DejaVuSans-124"/>
       <path d="M 47.796875 75.984375 
L 46.390625 68.5 
L 37.796875 68.5 
Q 32.90625 68.5 30.6875 66.578125 
Q 28.46875 64.65625 27.390625 59.515625 
L 26.421875 54.6875 
L 41.21875 54.6875 
L 39.890625 47.703125 
L 25.09375 47.703125 
L 15.828125 0 
L 6.78125 0 
L 16.109375 47.703125 
L 7.515625 47.703125 
L 8.796875 54.6875 
L 17.390625 54.6875 
L 18.109375 58.5 
Q 19.96875 68.171875 24.625 72.078125 
Q 29.296875 75.984375 39.3125 75.984375 
z
" id="DejaVuSans-Oblique-102"/>
      </defs>
      <use transform="translate(0 0.234375)" xlink:href="#DejaVuSans-124"/>
      <use transform="translate(33.691406 0.234375)" xlink:href="#DejaVuSans-Oblique-102"/>
      <use transform="translate(68.896484 0.234375)" xlink:href="#DejaVuSans-40"/>
      <use transform="translate(107.910156 0.234375)" xlink:href="#DejaVuSans-Oblique-952"/>
      <use transform="translate(169.091797 0.234375)" xlink:href="#DejaVuSans-41"/>
      <use transform="translate(208.105469 0.234375)" xlink:href="#DejaVuSans-124"/>
     </g>
    </g>
   </g>
   <g id="line2d_33">
    <path clip-path="url(#p854ec31659)" d="M 108.18793 114.33719 
L 112.122677 114.442629 
L 116.057424 114.740435 
L 119.992172 115.230254 
L 123.926919 115.911504 
L 127.861666 116.783377 
L 131.796413 117.844837 
L 135.73116 119.09463 
L 140.649594 120.919442 
L 145.568028 123.032842 
L 150.486462 125.430951 
L 155.404896 128.109388 
L 160.32333 131.063278 
L 165.241764 134.287274 
L 170.160197 137.775572 
L 175.078631 141.521927 
L 179.997065 145.519678 
L 185.899186 150.638859 
L 191.801307 156.096962 
L 197.703427 161.880368 
L 203.605548 167.974797 
L 209.507669 174.365377 
L 216.393476 182.174785 
L 223.279284 190.341064 
L 230.165091 198.838257 
L 238.034586 208.920492 
L 245.90408 219.360031 
L 254.757261 231.480924 
L 264.594129 245.347796 
L 275.414683 260.994975 
L 288.202611 279.880515 
L 306.89266 307.920118 
L 336.403264 352.187398 
L 350.174879 372.436828 
L 361.97912 389.427702 
L 372.799675 404.633452 
L 382.636543 418.10332 
L 392.47341 431.199824 
L 401.326592 442.64213 
L 410.179773 453.738247 
L 419.032954 464.472172 
L 427.886135 474.830761 
L 435.755629 483.714809 
L 443.625123 492.28839 
L 451.494617 500.54738 
L 459.364112 508.489048 
L 467.233606 516.111963 
L 475.1031 523.415884 
L 482.972595 530.401654 
L 490.842089 537.071094 
L 498.711583 543.426897 
L 506.581077 549.472522 
L 514.450572 555.212098 
L 522.320066 560.650317 
L 530.18956 565.792346 
L 538.059054 570.64373 
L 545.928549 575.210308 
L 553.798043 579.49813 
L 561.667537 583.513379 
L 569.537031 587.262295 
L 577.406526 590.751113 
L 585.27602 593.985992 
L 593.145514 596.972962 
L 601.015008 599.717869 
L 608.884503 602.226325 
L 616.753997 604.503663 
L 624.623491 606.554899 
L 632.492986 608.384692 
L 640.36248 609.997317 
L 648.231974 611.396632 
L 656.101468 612.586059 
L 663.970963 613.568555 
L 671.840457 614.346603 
L 679.709951 614.922191 
L 687.579445 615.296804 
L 695.44894 615.471414 
L 698.4 615.48544 
L 698.4 615.48544 
" style="fill:none;stroke:#c6dbef;stroke-linecap:square;stroke-width:2;"/>
   </g>
   <g id="line2d_34">
    <path clip-path="url(#p854ec31659)" d="M 108.18793 114.33719 
L 110.155304 114.516309 
L 112.122677 114.995977 
L 114.090051 115.77558 
L 116.057424 116.854117 
L 118.024798 118.230206 
L 119.992172 119.902084 
L 121.959545 121.867612 
L 123.926919 124.124279 
L 125.894292 126.669206 
L 127.861666 129.499149 
L 129.829039 132.610513 
L 132.7801 137.796491 
L 135.73116 143.591945 
L 138.68222 149.980449 
L 141.633281 156.943978 
L 144.584341 164.462983 
L 147.535401 172.516473 
L 151.470149 184.047068 
L 155.404896 196.431555 
L 159.339643 209.609924 
L 163.27439 223.519009 
L 168.192824 241.832361 
L 173.111258 261.050903 
L 179.013379 285.114193 
L 185.899186 314.261686 
L 194.752367 352.840082 
L 216.393476 447.654124 
L 223.279284 476.678737 
L 229.181404 500.713147 
L 235.083525 523.797383 
L 240.001959 542.205575 
L 244.920393 559.784081 
L 249.838827 576.471993 
L 253.773574 589.146711 
L 257.708321 601.197609 
L 261.643068 612.607603 
L 265.577815 623.363669 
L 269.512563 633.456745 
L 273.44731 642.881601 
L 277.382057 651.63669 
L 281.316804 659.723961 
L 282.300491 661.641935 
L 283.284178 663.010793 
L 286.235238 657.627819 
L 289.186298 652.610684 
L 292.137359 647.955118 
L 295.088419 643.655337 
L 298.039479 639.704755 
L 300.99054 636.096044 
L 303.9416 632.821189 
L 306.89266 629.871552 
L 309.843721 627.23792 
L 312.794781 624.910569 
L 315.745841 622.879319 
L 318.696902 621.133588 
L 321.647962 619.66245 
L 324.599022 618.454687 
L 327.550083 617.498844 
L 330.501143 616.783277 
L 333.452203 616.296206 
L 336.403264 616.025762 
L 339.354324 615.960029 
L 342.305385 616.087095 
L 345.256445 616.395088 
L 349.191192 617.066826 
L 353.125939 618.01166 
L 357.060686 619.202504 
L 360.995433 620.612921 
L 365.913867 622.645689 
L 370.832301 624.933288 
L 376.734422 627.950461 
L 383.620229 631.752459 
L 392.47341 636.922945 
L 417.06558 651.473508 
L 424.935074 655.826071 
L 431.820882 659.41567 
L 438.706689 662.768057 
L 439.690376 663.225404 
L 441.65775 662.403777 
L 448.543557 659.42684 
L 454.445678 657.096083 
L 460.347798 654.972868 
L 466.249919 653.057357 
L 472.15204 651.347007 
L 478.054161 649.836967 
L 484.939968 648.319288 
L 491.825776 647.051528 
L 498.711583 646.018033 
L 505.597391 645.201558 
L 513.466885 644.510713 
L 521.336379 644.051337 
L 530.18956 643.77608 
L 539.042741 643.718689 
L 548.879609 643.864728 
L 560.68385 644.266215 
L 575.439152 645.008272 
L 598.063948 646.404652 
L 630.525612 648.381292 
L 649.215661 649.28922 
L 665.938336 649.884971 
L 681.677325 650.231939 
L 697.416313 650.3584 
L 698.4 650.35884 
L 698.4 650.35884 
" style="fill:none;stroke:#6aaed6;stroke-linecap:square;stroke-width:2;"/>
   </g>
   <g id="line2d_35">
    <path clip-path="url(#p854ec31659)" d="M 108.18793 114.33719 
L 109.171617 114.545041 
L 110.155304 115.053426 
L 111.138991 115.861734 
L 112.122677 116.968995 
L 113.106364 118.373879 
L 114.090051 120.074702 
L 115.073738 122.069424 
L 116.057424 124.355657 
L 118.024798 129.791369 
L 119.992172 136.355881 
L 121.959545 144.017937 
L 123.926919 152.741184 
L 125.894292 162.484402 
L 127.861666 173.201771 
L 129.829039 184.843162 
L 132.7801 203.918395 
L 135.73116 224.752382 
L 138.68222 247.131784 
L 142.616968 278.982852 
L 147.535401 321.237481 
L 154.421209 382.924998 
L 163.27439 462.095362 
L 168.192824 503.98685 
L 172.127571 535.642024 
L 176.062318 565.225007 
L 179.013379 585.856785 
L 181.964439 605.030581 
L 184.915499 622.658066 
L 187.86656 638.673284 
L 190.81762 653.032544 
L 192.784994 661.67346 
L 193.76868 660.815869 
L 195.736054 653.294935 
L 197.703427 646.515375 
L 199.670801 640.468698 
L 201.638175 635.142634 
L 203.605548 630.521464 
L 205.572922 626.58625 
L 207.540295 623.315065 
L 209.507669 620.683242 
L 211.475042 618.663625 
L 213.442416 617.226835 
L 214.426103 616.717278 
L 215.40979 616.341541 
L 216.393476 616.095446 
L 217.377163 615.974728 
L 218.36085 615.975045 
L 219.344537 616.09198 
L 221.31191 616.657749 
L 223.279284 617.635627 
L 225.246657 618.988619 
L 227.214031 620.6794 
L 229.181404 622.670572 
L 231.148778 624.924908 
L 234.099838 628.719461 
L 237.050899 632.902017 
L 240.985646 638.881471 
L 253.773574 658.688413 
L 256.724634 662.829383 
L 257.708321 662.385222 
L 260.659382 658.660358 
L 263.610442 655.301493 
L 266.561502 652.343379 
L 269.512563 649.81065 
L 271.479936 648.366267 
L 273.44731 647.119949 
L 275.414683 646.072136 
L 277.382057 645.221643 
L 279.34943 644.565753 
L 281.316804 644.100328 
L 283.284178 643.819917 
L 285.251551 643.717868 
L 287.218925 643.786448 
L 289.186298 644.016961 
L 292.137359 644.645287 
L 295.088419 645.581209 
L 298.039479 646.786837 
L 300.99054 648.222391 
L 304.925287 650.423473 
L 309.843721 653.499495 
L 324.599022 663.192566 
L 325.582709 662.736211 
L 329.517456 660.455341 
L 333.452203 658.409741 
L 337.386951 656.639088 
L 341.321698 655.171637 
L 344.272758 654.280764 
L 347.223818 653.573685 
L 350.174879 653.050647 
L 353.125939 652.709018 
L 356.076999 652.543551 
L 360.011747 652.583545 
L 363.946494 652.899508 
L 367.881241 653.462789 
L 371.815988 654.240857 
L 376.734422 655.461774 
L 382.636543 657.196462 
L 391.489724 660.09431 
L 400.342905 663.009084 
L 401.326592 663.210612 
L 408.212399 661.172208 
L 414.11452 659.664726 
L 419.032954 658.613659 
L 423.951388 657.76712 
L 428.869821 657.133111 
L 433.788255 656.712003 
L 438.706689 656.497508 
L 443.625123 656.477758 
L 449.527244 656.687874 
L 455.429365 657.120333 
L 462.315172 657.854106 
L 470.184666 658.915887 
L 481.988908 660.757264 
L 497.727896 663.252494 
L 503.630017 662.421799 
L 513.466885 661.161595 
L 522.320066 660.237136 
L 531.173247 659.525603 
L 540.026428 659.023967 
L 549.863296 658.694195 
L 560.68385 658.570818 
L 572.488092 658.663906 
L 587.243394 659.013329 
L 610.851876 659.835564 
L 645.280914 661.004752 
L 666.922023 661.502374 
L 687.579445 661.746553 
L 698.4 661.779523 
L 698.4 661.779523 
" style="fill:none;stroke:#2070b4;stroke-linecap:square;stroke-width:2;"/>
   </g>
   <g id="line2d_36">
    <path clip-path="url(#p854ec31659)" d="M 108.18793 114.33719 
L 109.171617 115.148322 
L 110.155304 117.129638 
L 111.138991 120.272124 
L 112.122677 124.561493 
L 113.106364 129.978275 
L 114.090051 136.497926 
L 115.073738 144.090976 
L 116.057424 152.723198 
L 118.024798 172.945707 
L 119.992172 196.804776 
L 121.959545 223.879022 
L 123.926919 253.696058 
L 126.877979 302.434894 
L 130.812726 372.029258 
L 136.714847 477.28274 
L 139.665907 526.505528 
L 142.616968 571.46871 
L 144.584341 598.496685 
L 146.551715 622.852302 
L 148.519088 644.3422 
L 150.486462 662.837078 
L 153.437522 641.644112 
L 154.421209 635.808127 
L 155.404896 630.71225 
L 156.388583 626.341437 
L 157.372269 622.677175 
L 158.355956 619.697693 
L 159.339643 617.378187 
L 160.32333 615.691056 
L 161.307016 614.606157 
L 162.290703 614.091063 
L 163.27439 614.111342 
L 164.258077 614.630823 
L 165.241764 615.611892 
L 166.22545 617.015764 
L 167.209137 618.80278 
L 168.192824 620.932682 
L 170.160197 626.058832 
L 172.127571 632.070808 
L 175.078631 642.063292 
L 179.997065 658.937801 
L 180.980752 662.066389 
L 181.964439 661.477407 
L 183.931812 656.0149 
L 185.899186 651.34508 
L 187.86656 647.568337 
L 188.850246 646.035287 
L 189.833933 644.745116 
L 190.81762 643.69937 
L 191.801307 642.897326 
L 192.784994 642.336099 
L 193.76868 642.010746 
L 194.752367 641.91439 
L 195.736054 642.038364 
L 196.719741 642.372343 
L 197.703427 642.904509 
L 198.687114 643.621701 
L 199.670801 644.509586 
L 201.638175 646.735254 
L 203.605548 649.449849 
L 206.556608 654.132544 
L 211.475042 662.401346 
L 212.458729 662.552823 
L 214.426103 659.59339 
L 216.393476 656.969618 
L 218.36085 654.759594 
L 220.328223 653.02099 
L 222.295597 651.790324 
L 223.279284 651.371085 
L 224.262971 651.08298 
L 225.246657 650.924753 
L 226.230344 650.893961 
L 227.214031 650.987027 
L 229.181404 651.525195 
L 231.148778 652.490795 
L 233.116152 653.822305 
L 235.083525 655.448148 
L 238.034586 658.266125 
L 242.953019 663.238632 
L 245.90408 660.455062 
L 247.871453 658.834946 
L 249.838827 657.464757 
L 251.8062 656.383515 
L 253.773574 655.617409 
L 255.740948 655.179509 
L 257.708321 655.069968 
L 259.675695 655.276691 
L 261.643068 655.776411 
L 263.610442 656.536127 
L 265.577815 657.514816 
L 268.528876 659.289196 
L 274.430996 663.23494 
L 277.382057 661.350606 
L 280.333117 659.745864 
L 282.300491 658.888244 
L 284.267864 658.228794 
L 286.235238 657.782411 
L 288.202611 657.55543 
L 290.169985 657.545817 
L 292.137359 657.743671 
L 294.104732 658.131989 
L 297.055793 659.019627 
L 300.006853 660.185087 
L 304.925287 662.436572 
L 305.908974 662.894245 
L 306.89266 663.185502 
L 310.827407 661.530857 
L 313.778468 660.53242 
L 316.729528 659.81207 
L 319.680589 659.403831 
L 322.631649 659.314223 
L 325.582709 659.524111 
L 328.53377 659.992519 
L 332.468517 660.918187 
L 339.354324 662.904185 
L 340.338011 663.184601 
L 341.321698 663.07286 
L 345.256445 662.098084 
L 349.191192 661.377664 
L 352.142252 661.037164 
L 355.093313 660.873273 
L 359.02806 660.909868 
L 362.962807 661.186666 
L 368.864928 661.88647 
L 378.701796 663.189136 
L 379.685482 663.228518 
L 385.587603 662.668961 
L 392.47341 662.256116 
L 401.326592 661.989028 
L 410.179773 661.932833 
L 417.06558 662.104002 
L 422.967701 662.477798 
L 428.869821 663.079625 
L 430.837195 663.207897 
L 445.592497 661.382151 
L 450.510931 661.095241 
L 454.445678 661.087003 
L 458.380425 661.291534 
L 462.315172 661.695457 
L 467.233606 662.418411 
L 472.15204 663.26281 
L 479.037847 662.143532 
L 483.956281 661.577075 
L 487.891028 661.332773 
L 491.825776 661.289183 
L 496.744209 661.490729 
L 502.64633 661.993707 
L 514.450572 663.07269 
L 518.385319 663.259806 
L 524.287439 663.17619 
L 534.124307 663.153385 
L 541.010115 663.0893 
L 548.879609 663.14188 
L 555.765416 662.548067 
L 567.569658 661.461341 
L 572.488092 661.272653 
L 577.406526 661.341368 
L 582.32496 661.662104 
L 589.210767 662.397527 
L 597.080261 663.261365 
L 602.982382 662.88685 
L 607.900816 662.843976 
L 612.81925 663.043804 
L 616.753997 663.201676 
L 627.574552 662.409568 
L 632.492986 662.326406 
L 636.427733 662.466427 
L 641.346167 662.898364 
L 644.297227 663.262223 
L 658.068842 661.456086 
L 662.003589 661.250118 
L 665.938336 661.299434 
L 669.873083 661.619459 
L 673.80783 662.186867 
L 679.709951 663.168313 
L 688.563132 661.331091 
L 692.497879 660.756414 
L 696.432626 660.44858 
L 698.4 660.40911 
L 698.4 660.40911 
" style="fill:none;stroke:#08306b;stroke-linecap:square;stroke-width:2;"/>
   </g>
   <g id="patch_3">
    <path d="M 108 720.9 
L 108 56.7 
" style="fill:none;stroke:#000000;stroke-linecap:square;stroke-linejoin:miter;stroke-width:0.8;"/>
   </g>
   <g id="patch_4">
    <path d="M 698.4 720.9 
L 698.4 56.7 
" style="fill:none;stroke:#000000;stroke-linecap:square;stroke-linejoin:miter;stroke-width:0.8;"/>
   </g>
   <g id="patch_5">
    <path d="M 108 720.9 
L 698.4 720.9 
" style="fill:none;stroke:#000000;stroke-linecap:square;stroke-linejoin:miter;stroke-width:0.8;"/>
   </g>
   <g id="patch_6">
    <path d="M 108 56.7 
L 698.4 56.7 
" style="fill:none;stroke:#000000;stroke-linecap:square;stroke-linejoin:miter;stroke-width:0.8;"/>
   </g>
   <g id="text_19">
    <!-- Scattering amplitudes $n_{ref}=1.0001$ for different $ka$ -->
    <g transform="translate(147.9 50.7)scale(0.2 -0.2)">
     <defs>
      <path d="M 53.515625 70.515625 
L 53.515625 60.890625 
Q 47.90625 63.578125 42.921875 64.890625 
Q 37.9375 66.21875 33.296875 66.21875 
Q 25.25 66.21875 20.875 63.09375 
Q 16.5 59.96875 16.5 54.203125 
Q 16.5 49.359375 19.40625 46.890625 
Q 22.3125 44.4375 30.421875 42.921875 
L 36.375 41.703125 
Q 47.40625 39.59375 52.65625 34.296875 
Q 57.90625 29 57.90625 20.125 
Q 57.90625 9.515625 50.796875 4.046875 
Q 43.703125 -1.421875 29.984375 -1.421875 
Q 24.8125 -1.421875 18.96875 -0.25 
Q 13.140625 0.921875 6.890625 3.21875 
L 6.890625 13.375 
Q 12.890625 10.015625 18.65625 8.296875 
Q 24.421875 6.59375 29.984375 6.59375 
Q 38.421875 6.59375 43.015625 9.90625 
Q 47.609375 13.234375 47.609375 19.390625 
Q 47.609375 24.75 44.3125 27.78125 
Q 41.015625 30.8125 33.5 32.328125 
L 27.484375 33.5 
Q 16.453125 35.6875 11.515625 40.375 
Q 6.59375 45.0625 6.59375 53.421875 
Q 6.59375 63.09375 13.40625 68.65625 
Q 20.21875 74.21875 32.171875 74.21875 
Q 37.3125 74.21875 42.625 73.28125 
Q 47.953125 72.359375 53.515625 70.515625 
z
" id="DejaVuSans-83"/>
      <path d="M 48.78125 52.59375 
L 48.78125 44.1875 
Q 44.96875 46.296875 41.140625 47.34375 
Q 37.3125 48.390625 33.40625 48.390625 
Q 24.65625 48.390625 19.8125 42.84375 
Q 14.984375 37.3125 14.984375 27.296875 
Q 14.984375 17.28125 19.8125 11.734375 
Q 24.65625 6.203125 33.40625 6.203125 
Q 37.3125 6.203125 41.140625 7.25 
Q 44.96875 8.296875 48.78125 10.40625 
L 48.78125 2.09375 
Q 45.015625 0.34375 40.984375 -0.53125 
Q 36.96875 -1.421875 32.421875 -1.421875 
Q 20.0625 -1.421875 12.78125 6.34375 
Q 5.515625 14.109375 5.515625 27.296875 
Q 5.515625 40.671875 12.859375 48.328125 
Q 20.21875 56 33.015625 56 
Q 37.15625 56 41.109375 55.140625 
Q 45.0625 54.296875 48.78125 52.59375 
z
" id="DejaVuSans-99"/>
      <path d="M 34.28125 27.484375 
Q 23.390625 27.484375 19.1875 25 
Q 14.984375 22.515625 14.984375 16.5 
Q 14.984375 11.71875 18.140625 8.90625 
Q 21.296875 6.109375 26.703125 6.109375 
Q 34.1875 6.109375 38.703125 11.40625 
Q 43.21875 16.703125 43.21875 25.484375 
L 43.21875 27.484375 
z
M 52.203125 31.203125 
L 52.203125 0 
L 43.21875 0 
L 43.21875 8.296875 
Q 40.140625 3.328125 35.546875 0.953125 
Q 30.953125 -1.421875 24.3125 -1.421875 
Q 15.921875 -1.421875 10.953125 3.296875 
Q 6 8.015625 6 15.921875 
Q 6 25.140625 12.171875 29.828125 
Q 18.359375 34.515625 30.609375 34.515625 
L 43.21875 34.515625 
L 43.21875 35.40625 
Q 43.21875 41.609375 39.140625 45 
Q 35.0625 48.390625 27.6875 48.390625 
Q 23 48.390625 18.546875 47.265625 
Q 14.109375 46.140625 10.015625 43.890625 
L 10.015625 52.203125 
Q 14.9375 54.109375 19.578125 55.046875 
Q 24.21875 56 28.609375 56 
Q 40.484375 56 46.34375 49.84375 
Q 52.203125 43.703125 52.203125 31.203125 
z
" id="DejaVuSans-97"/>
      <path d="M 18.3125 70.21875 
L 18.3125 54.6875 
L 36.8125 54.6875 
L 36.8125 47.703125 
L 18.3125 47.703125 
L 18.3125 18.015625 
Q 18.3125 11.328125 20.140625 9.421875 
Q 21.96875 7.515625 27.59375 7.515625 
L 36.8125 7.515625 
L 36.8125 0 
L 27.59375 0 
Q 17.1875 0 13.234375 3.875 
Q 9.28125 7.765625 9.28125 18.015625 
L 9.28125 47.703125 
L 2.6875 47.703125 
L 2.6875 54.6875 
L 9.28125 54.6875 
L 9.28125 70.21875 
z
" id="DejaVuSans-116"/>
      <path d="M 56.203125 29.59375 
L 56.203125 25.203125 
L 14.890625 25.203125 
Q 15.484375 15.921875 20.484375 11.0625 
Q 25.484375 6.203125 34.421875 6.203125 
Q 39.59375 6.203125 44.453125 7.46875 
Q 49.3125 8.734375 54.109375 11.28125 
L 54.109375 2.78125 
Q 49.265625 0.734375 44.1875 -0.34375 
Q 39.109375 -1.421875 33.890625 -1.421875 
Q 20.796875 -1.421875 13.15625 6.1875 
Q 5.515625 13.8125 5.515625 26.8125 
Q 5.515625 40.234375 12.765625 48.109375 
Q 20.015625 56 32.328125 56 
Q 43.359375 56 49.78125 48.890625 
Q 56.203125 41.796875 56.203125 29.59375 
z
M 47.21875 32.234375 
Q 47.125 39.59375 43.09375 43.984375 
Q 39.0625 48.390625 32.421875 48.390625 
Q 24.90625 48.390625 20.390625 44.140625 
Q 15.875 39.890625 15.1875 32.171875 
z
" id="DejaVuSans-101"/>
      <path d="M 41.109375 46.296875 
Q 39.59375 47.171875 37.8125 47.578125 
Q 36.03125 48 33.890625 48 
Q 26.265625 48 22.1875 43.046875 
Q 18.109375 38.09375 18.109375 28.8125 
L 18.109375 0 
L 9.078125 0 
L 9.078125 54.6875 
L 18.109375 54.6875 
L 18.109375 46.1875 
Q 20.953125 51.171875 25.484375 53.578125 
Q 30.03125 56 36.53125 56 
Q 37.453125 56 38.578125 55.875 
Q 39.703125 55.765625 41.0625 55.515625 
z
" id="DejaVuSans-114"/>
      <path d="M 9.421875 54.6875 
L 18.40625 54.6875 
L 18.40625 0 
L 9.421875 0 
z
M 9.421875 75.984375 
L 18.40625 75.984375 
L 18.40625 64.59375 
L 9.421875 64.59375 
z
" id="DejaVuSans-105"/>
      <path d="M 54.890625 33.015625 
L 54.890625 0 
L 45.90625 0 
L 45.90625 32.71875 
Q 45.90625 40.484375 42.875 44.328125 
Q 39.84375 48.1875 33.796875 48.1875 
Q 26.515625 48.1875 22.3125 43.546875 
Q 18.109375 38.921875 18.109375 30.90625 
L 18.109375 0 
L 9.078125 0 
L 9.078125 54.6875 
L 18.109375 54.6875 
L 18.109375 46.1875 
Q 21.34375 51.125 25.703125 53.5625 
Q 30.078125 56 35.796875 56 
Q 45.21875 56 50.046875 50.171875 
Q 54.890625 44.34375 54.890625 33.015625 
z
" id="DejaVuSans-110"/>
      <path d="M 45.40625 27.984375 
Q 45.40625 37.75 41.375 43.109375 
Q 37.359375 48.484375 30.078125 48.484375 
Q 22.859375 48.484375 18.828125 43.109375 
Q 14.796875 37.75 14.796875 27.984375 
Q 14.796875 18.265625 18.828125 12.890625 
Q 22.859375 7.515625 30.078125 7.515625 
Q 37.359375 7.515625 41.375 12.890625 
Q 45.40625 18.265625 45.40625 27.984375 
z
M 54.390625 6.78125 
Q 54.390625 -7.171875 48.1875 -13.984375 
Q 42 -20.796875 29.203125 -20.796875 
Q 24.46875 -20.796875 20.265625 -20.09375 
Q 16.0625 -19.390625 12.109375 -17.921875 
L 12.109375 -9.1875 
Q 16.0625 -11.328125 19.921875 -12.34375 
Q 23.78125 -13.375 27.78125 -13.375 
Q 36.625 -13.375 41.015625 -8.765625 
Q 45.40625 -4.15625 45.40625 5.171875 
L 45.40625 9.625 
Q 42.625 4.78125 38.28125 2.390625 
Q 33.9375 0 27.875 0 
Q 17.828125 0 11.671875 7.65625 
Q 5.515625 15.328125 5.515625 27.984375 
Q 5.515625 40.671875 11.671875 48.328125 
Q 17.828125 56 27.875 56 
Q 33.9375 56 38.28125 53.609375 
Q 42.625 51.21875 45.40625 46.390625 
L 45.40625 54.6875 
L 54.390625 54.6875 
z
" id="DejaVuSans-103"/>
      <path id="DejaVuSans-32"/>
      <path d="M 52 44.1875 
Q 55.375 50.25 60.0625 53.125 
Q 64.75 56 71.09375 56 
Q 79.640625 56 84.28125 50.015625 
Q 88.921875 44.046875 88.921875 33.015625 
L 88.921875 0 
L 79.890625 0 
L 79.890625 32.71875 
Q 79.890625 40.578125 77.09375 44.375 
Q 74.3125 48.1875 68.609375 48.1875 
Q 61.625 48.1875 57.5625 43.546875 
Q 53.515625 38.921875 53.515625 30.90625 
L 53.515625 0 
L 44.484375 0 
L 44.484375 32.71875 
Q 44.484375 40.625 41.703125 44.40625 
Q 38.921875 48.1875 33.109375 48.1875 
Q 26.21875 48.1875 22.15625 43.53125 
Q 18.109375 38.875 18.109375 30.90625 
L 18.109375 0 
L 9.078125 0 
L 9.078125 54.6875 
L 18.109375 54.6875 
L 18.109375 46.1875 
Q 21.1875 51.21875 25.484375 53.609375 
Q 29.78125 56 35.6875 56 
Q 41.65625 56 45.828125 52.96875 
Q 50 49.953125 52 44.1875 
z
" id="DejaVuSans-109"/>
      <path d="M 18.109375 8.203125 
L 18.109375 -20.796875 
L 9.078125 -20.796875 
L 9.078125 54.6875 
L 18.109375 54.6875 
L 18.109375 46.390625 
Q 20.953125 51.265625 25.265625 53.625 
Q 29.59375 56 35.59375 56 
Q 45.5625 56 51.78125 48.09375 
Q 58.015625 40.1875 58.015625 27.296875 
Q 58.015625 14.40625 51.78125 6.484375 
Q 45.5625 -1.421875 35.59375 -1.421875 
Q 29.59375 -1.421875 25.265625 0.953125 
Q 20.953125 3.328125 18.109375 8.203125 
z
M 48.6875 27.296875 
Q 48.6875 37.203125 44.609375 42.84375 
Q 40.53125 48.484375 33.40625 48.484375 
Q 26.265625 48.484375 22.1875 42.84375 
Q 18.109375 37.203125 18.109375 27.296875 
Q 18.109375 17.390625 22.1875 11.75 
Q 26.265625 6.109375 33.40625 6.109375 
Q 40.53125 6.109375 44.609375 11.75 
Q 48.6875 17.390625 48.6875 27.296875 
z
" id="DejaVuSans-112"/>
      <path d="M 9.421875 75.984375 
L 18.40625 75.984375 
L 18.40625 0 
L 9.421875 0 
z
" id="DejaVuSans-108"/>
      <path d="M 8.5 21.578125 
L 8.5 54.6875 
L 17.484375 54.6875 
L 17.484375 21.921875 
Q 17.484375 14.15625 20.5 10.265625 
Q 23.53125 6.390625 29.59375 6.390625 
Q 36.859375 6.390625 41.078125 11.03125 
Q 45.3125 15.671875 45.3125 23.6875 
L 45.3125 54.6875 
L 54.296875 54.6875 
L 54.296875 0 
L 45.3125 0 
L 45.3125 8.40625 
Q 42.046875 3.421875 37.71875 1 
Q 33.40625 -1.421875 27.6875 -1.421875 
Q 18.265625 -1.421875 13.375 4.4375 
Q 8.5 10.296875 8.5 21.578125 
z
M 31.109375 56 
z
" id="DejaVuSans-117"/>
      <path d="M 45.40625 46.390625 
L 45.40625 75.984375 
L 54.390625 75.984375 
L 54.390625 0 
L 45.40625 0 
L 45.40625 8.203125 
Q 42.578125 3.328125 38.25 0.953125 
Q 33.9375 -1.421875 27.875 -1.421875 
Q 17.96875 -1.421875 11.734375 6.484375 
Q 5.515625 14.40625 5.515625 27.296875 
Q 5.515625 40.1875 11.734375 48.09375 
Q 17.96875 56 27.875 56 
Q 33.9375 56 38.25 53.625 
Q 42.578125 51.265625 45.40625 46.390625 
z
M 14.796875 27.296875 
Q 14.796875 17.390625 18.875 11.75 
Q 22.953125 6.109375 30.078125 6.109375 
Q 37.203125 6.109375 41.296875 11.75 
Q 45.40625 17.390625 45.40625 27.296875 
Q 45.40625 37.203125 41.296875 42.84375 
Q 37.203125 48.484375 30.078125 48.484375 
Q 22.953125 48.484375 18.875 42.84375 
Q 14.796875 37.203125 14.796875 27.296875 
z
" id="DejaVuSans-100"/>
      <path d="M 44.28125 53.078125 
L 44.28125 44.578125 
Q 40.484375 46.53125 36.375 47.5 
Q 32.28125 48.484375 27.875 48.484375 
Q 21.1875 48.484375 17.84375 46.4375 
Q 14.5 44.390625 14.5 40.28125 
Q 14.5 37.15625 16.890625 35.375 
Q 19.28125 33.59375 26.515625 31.984375 
L 29.59375 31.296875 
Q 39.15625 29.25 43.1875 25.515625 
Q 47.21875 21.78125 47.21875 15.09375 
Q 47.21875 7.46875 41.1875 3.015625 
Q 35.15625 -1.421875 24.609375 -1.421875 
Q 20.21875 -1.421875 15.453125 -0.5625 
Q 10.6875 0.296875 5.421875 2 
L 5.421875 11.28125 
Q 10.40625 8.6875 15.234375 7.390625 
Q 20.0625 6.109375 24.8125 6.109375 
Q 31.15625 6.109375 34.5625 8.28125 
Q 37.984375 10.453125 37.984375 14.40625 
Q 37.984375 18.0625 35.515625 20.015625 
Q 33.0625 21.96875 24.703125 23.78125 
L 21.578125 24.515625 
Q 13.234375 26.265625 9.515625 29.90625 
Q 5.8125 33.546875 5.8125 39.890625 
Q 5.8125 47.609375 11.28125 51.796875 
Q 16.75 56 26.8125 56 
Q 31.78125 56 36.171875 55.265625 
Q 40.578125 54.546875 44.28125 53.078125 
z
" id="DejaVuSans-115"/>
      <path d="M 55.71875 33.015625 
L 49.3125 0 
L 40.28125 0 
L 46.6875 32.671875 
Q 47.125 34.96875 47.359375 36.71875 
Q 47.609375 38.484375 47.609375 39.5 
Q 47.609375 43.609375 45.015625 45.890625 
Q 42.4375 48.1875 37.796875 48.1875 
Q 30.5625 48.1875 25.34375 43.375 
Q 20.125 38.578125 18.5 30.328125 
L 12.5 0 
L 3.515625 0 
L 14.109375 54.6875 
L 23.09375 54.6875 
L 21.296875 46.09375 
Q 25.046875 50.828125 30.3125 53.40625 
Q 35.59375 56 41.40625 56 
Q 48.640625 56 52.609375 52.09375 
Q 56.59375 48.1875 56.59375 41.109375 
Q 56.59375 39.359375 56.375 37.359375 
Q 56.15625 35.359375 55.71875 33.015625 
z
" id="DejaVuSans-Oblique-110"/>
      <path d="M 44.578125 46.390625 
Q 43.21875 47.125 41.453125 47.515625 
Q 39.703125 47.90625 37.703125 47.90625 
Q 30.515625 47.90625 25.140625 42.453125 
Q 19.78125 37.015625 18.015625 27.875 
L 12.5 0 
L 3.515625 0 
L 14.203125 54.6875 
L 23.1875 54.6875 
L 21.484375 46.1875 
Q 25.046875 50.921875 30 53.453125 
Q 34.96875 56 40.578125 56 
Q 42.046875 56 43.453125 55.828125 
Q 44.875 55.671875 46.296875 55.28125 
z
" id="DejaVuSans-Oblique-114"/>
      <path d="M 48.09375 32.234375 
Q 48.25 33.015625 48.3125 33.84375 
Q 48.390625 34.671875 48.390625 35.5 
Q 48.390625 41.453125 44.890625 44.921875 
Q 41.40625 48.390625 35.40625 48.390625 
Q 28.71875 48.390625 23.578125 44.15625 
Q 18.453125 39.9375 15.828125 32.171875 
z
M 55.90625 25.203125 
L 14.109375 25.203125 
Q 13.8125 23.34375 13.71875 22.265625 
Q 13.625 21.1875 13.625 20.40625 
Q 13.625 13.625 17.796875 9.90625 
Q 21.96875 6.203125 29.59375 6.203125 
Q 35.453125 6.203125 40.671875 7.515625 
Q 45.90625 8.84375 50.390625 11.375 
L 48.6875 2.484375 
Q 43.84375 0.53125 38.6875 -0.4375 
Q 33.546875 -1.421875 28.21875 -1.421875 
Q 16.84375 -1.421875 10.71875 4.015625 
Q 4.59375 9.46875 4.59375 19.484375 
Q 4.59375 28.03125 7.640625 35.375 
Q 10.6875 42.71875 16.609375 48.484375 
Q 20.40625 52.09375 25.65625 54.046875 
Q 30.90625 56 36.8125 56 
Q 46.09375 56 51.578125 50.4375 
Q 57.078125 44.875 57.078125 35.5 
Q 57.078125 33.25 56.78125 30.6875 
Q 56.5 28.125 55.90625 25.203125 
z
" id="DejaVuSans-Oblique-101"/>
      <path d="M 10.59375 45.40625 
L 73.1875 45.40625 
L 73.1875 37.203125 
L 10.59375 37.203125 
z
M 10.59375 25.484375 
L 73.1875 25.484375 
L 73.1875 17.1875 
L 10.59375 17.1875 
z
" id="DejaVuSans-61"/>
      <path d="M 37.109375 75.984375 
L 37.109375 68.5 
L 28.515625 68.5 
Q 23.6875 68.5 21.796875 66.546875 
Q 19.921875 64.59375 19.921875 59.515625 
L 19.921875 54.6875 
L 34.71875 54.6875 
L 34.71875 47.703125 
L 19.921875 47.703125 
L 19.921875 0 
L 10.890625 0 
L 10.890625 47.703125 
L 2.296875 47.703125 
L 2.296875 54.6875 
L 10.890625 54.6875 
L 10.890625 58.5 
Q 10.890625 67.625 15.140625 71.796875 
Q 19.390625 75.984375 28.609375 75.984375 
z
" id="DejaVuSans-102"/>
      <path d="M 30.609375 48.390625 
Q 23.390625 48.390625 19.1875 42.75 
Q 14.984375 37.109375 14.984375 27.296875 
Q 14.984375 17.484375 19.15625 11.84375 
Q 23.34375 6.203125 30.609375 6.203125 
Q 37.796875 6.203125 41.984375 11.859375 
Q 46.1875 17.53125 46.1875 27.296875 
Q 46.1875 37.015625 41.984375 42.703125 
Q 37.796875 48.390625 30.609375 48.390625 
z
M 30.609375 56 
Q 42.328125 56 49.015625 48.375 
Q 55.71875 40.765625 55.71875 27.296875 
Q 55.71875 13.875 49.015625 6.21875 
Q 42.328125 -1.421875 30.609375 -1.421875 
Q 18.84375 -1.421875 12.171875 6.21875 
Q 5.515625 13.875 5.515625 27.296875 
Q 5.515625 40.765625 12.171875 48.375 
Q 18.84375 56 30.609375 56 
z
" id="DejaVuSans-111"/>
      <path d="M 18.3125 75.984375 
L 27.296875 75.984375 
L 18.703125 31.6875 
L 49.515625 54.6875 
L 61.1875 54.6875 
L 26.8125 28.515625 
L 51.90625 0 
L 41.015625 0 
L 17.671875 26.703125 
L 12.5 0 
L 3.515625 0 
z
" id="DejaVuSans-Oblique-107"/>
      <path d="M 53.71875 31.203125 
L 47.609375 0 
L 38.625 0 
L 40.28125 8.296875 
Q 36.328125 3.421875 31.265625 1 
Q 26.21875 -1.421875 20.015625 -1.421875 
Q 13.03125 -1.421875 8.5625 2.84375 
Q 4.109375 7.125 4.109375 13.8125 
Q 4.109375 23.390625 11.75 28.953125 
Q 19.390625 34.515625 32.8125 34.515625 
L 45.3125 34.515625 
L 45.796875 36.921875 
Q 45.90625 37.3125 45.953125 37.765625 
Q 46 38.234375 46 39.203125 
Q 46 43.5625 42.453125 45.96875 
Q 38.921875 48.390625 32.515625 48.390625 
Q 28.125 48.390625 23.5 47.265625 
Q 18.890625 46.140625 14.015625 43.890625 
L 15.578125 52.203125 
Q 20.65625 54.109375 25.515625 55.046875 
Q 30.375 56 34.90625 56 
Q 44.578125 56 49.625 51.796875 
Q 54.6875 47.609375 54.6875 39.59375 
Q 54.6875 37.984375 54.4375 35.8125 
Q 54.203125 33.640625 53.71875 31.203125 
z
M 44 27.484375 
L 35.015625 27.484375 
Q 23.96875 27.484375 18.671875 24.53125 
Q 13.375 21.578125 13.375 15.375 
Q 13.375 11.078125 16.078125 8.640625 
Q 18.796875 6.203125 23.578125 6.203125 
Q 30.90625 6.203125 36.375 11.453125 
Q 41.84375 16.703125 43.609375 25.484375 
z
" id="DejaVuSans-Oblique-97"/>
     </defs>
     <use transform="translate(0 0.015625)" xlink:href="#DejaVuSans-83"/>
     <use transform="translate(63.476562 0.015625)" xlink:href="#DejaVuSans-99"/>
     <use transform="translate(118.457031 0.015625)" xlink:href="#DejaVuSans-97"/>
     <use transform="translate(179.736328 0.015625)" xlink:href="#DejaVuSans-116"/>
     <use transform="translate(218.945312 0.015625)" xlink:href="#DejaVuSans-116"/>
     <use transform="translate(258.154297 0.015625)" xlink:href="#DejaVuSans-101"/>
     <use transform="translate(319.677734 0.015625)" xlink:href="#DejaVuSans-114"/>
     <use transform="translate(360.791016 0.015625)" xlink:href="#DejaVuSans-105"/>
     <use transform="translate(388.574219 0.015625)" xlink:href="#DejaVuSans-110"/>
     <use transform="translate(451.953125 0.015625)" xlink:href="#DejaVuSans-103"/>
     <use transform="translate(515.429688 0.015625)" xlink:href="#DejaVuSans-32"/>
     <use transform="translate(547.216797 0.015625)" xlink:href="#DejaVuSans-97"/>
     <use transform="translate(608.496094 0.015625)" xlink:href="#DejaVuSans-109"/>
     <use transform="translate(705.908203 0.015625)" xlink:href="#DejaVuSans-112"/>
     <use transform="translate(769.384766 0.015625)" xlink:href="#DejaVuSans-108"/>
     <use transform="translate(797.167969 0.015625)" xlink:href="#DejaVuSans-105"/>
     <use transform="translate(824.951172 0.015625)" xlink:href="#DejaVuSans-116"/>
     <use transform="translate(864.160156 0.015625)" xlink:href="#DejaVuSans-117"/>
     <use transform="translate(927.539062 0.015625)" xlink:href="#DejaVuSans-100"/>
     <use transform="translate(991.015625 0.015625)" xlink:href="#DejaVuSans-101"/>
     <use transform="translate(1052.539062 0.015625)" xlink:href="#DejaVuSans-115"/>
     <use transform="translate(1104.638672 0.015625)" xlink:href="#DejaVuSans-32"/>
     <use transform="translate(1136.425781 0.015625)" xlink:href="#DejaVuSans-Oblique-110"/>
     <use transform="translate(1199.804688 -16.390625)scale(0.7)" xlink:href="#DejaVuSans-Oblique-114"/>
     <use transform="translate(1228.583984 -16.390625)scale(0.7)" xlink:href="#DejaVuSans-Oblique-101"/>
     <use transform="translate(1271.650391 -16.390625)scale(0.7)" xlink:href="#DejaVuSans-Oblique-102"/>
     <use transform="translate(1318.510742 0.015625)" xlink:href="#DejaVuSans-61"/>
     <use transform="translate(1421.782227 0.015625)" xlink:href="#DejaVuSans-49"/>
     <use transform="translate(1485.405273 0.015625)" xlink:href="#DejaVuSans-46"/>
     <use transform="translate(1517.192383 0.015625)" xlink:href="#DejaVuSans-48"/>
     <use transform="translate(1580.81543 0.015625)" xlink:href="#DejaVuSans-48"/>
     <use transform="translate(1644.438477 0.015625)" xlink:href="#DejaVuSans-48"/>
     <use transform="translate(1708.061523 0.015625)" xlink:href="#DejaVuSans-49"/>
     <use transform="translate(1771.68457 0.015625)" xlink:href="#DejaVuSans-32"/>
     <use transform="translate(1803.47168 0.015625)" xlink:href="#DejaVuSans-102"/>
     <use transform="translate(1838.676758 0.015625)" xlink:href="#DejaVuSans-111"/>
     <use transform="translate(1899.858398 0.015625)" xlink:href="#DejaVuSans-114"/>
     <use transform="translate(1940.97168 0.015625)" xlink:href="#DejaVuSans-32"/>
     <use transform="translate(1972.758789 0.015625)" xlink:href="#DejaVuSans-100"/>
     <use transform="translate(2036.235352 0.015625)" xlink:href="#DejaVuSans-105"/>
     <use transform="translate(2064.018555 0.015625)" xlink:href="#DejaVuSans-102"/>
     <use transform="translate(2099.223633 0.015625)" xlink:href="#DejaVuSans-102"/>
     <use transform="translate(2134.428711 0.015625)" xlink:href="#DejaVuSans-101"/>
     <use transform="translate(2195.952148 0.015625)" xlink:href="#DejaVuSans-114"/>
     <use transform="translate(2237.06543 0.015625)" xlink:href="#DejaVuSans-101"/>
     <use transform="translate(2298.588867 0.015625)" xlink:href="#DejaVuSans-110"/>
     <use transform="translate(2361.967773 0.015625)" xlink:href="#DejaVuSans-116"/>
     <use transform="translate(2401.176758 0.015625)" xlink:href="#DejaVuSans-32"/>
     <use transform="translate(2432.963867 0.015625)" xlink:href="#DejaVuSans-Oblique-107"/>
     <use transform="translate(2490.874023 0.015625)" xlink:href="#DejaVuSans-Oblique-97"/>
    </g>
   </g>
   <g id="legend_1">
    <g id="patch_7">
     <path d="M 527.4 190.125 
L 684.4 190.125 
Q 688.4 190.125 688.4 186.125 
L 688.4 70.7 
Q 688.4 66.7 684.4 66.7 
L 527.4 66.7 
Q 523.4 66.7 523.4 70.7 
L 523.4 186.125 
Q 523.4 190.125 527.4 190.125 
z
" style="fill:#ffffff;opacity:0.8;stroke:#cccccc;stroke-linejoin:miter;"/>
    </g>
    <g id="line2d_37">
     <path d="M 531.4 82.896875 
L 571.4 82.896875 
" style="fill:none;stroke:#c6dbef;stroke-linecap:square;stroke-width:2;"/>
    </g>
    <g id="line2d_38"/>
    <g id="text_20">
     <!-- $ka=2.0$ -->
     <g transform="translate(587.4 89.896875)scale(0.2 -0.2)">
      <use transform="translate(0 0.015625)" xlink:href="#DejaVuSans-Oblique-107"/>
      <use transform="translate(57.910156 0.015625)" xlink:href="#DejaVuSans-Oblique-97"/>
      <use transform="translate(138.671875 0.015625)" xlink:href="#DejaVuSans-61"/>
      <use transform="translate(241.943359 0.015625)" xlink:href="#DejaVuSans-50"/>
      <use transform="translate(305.566406 0.015625)" xlink:href="#DejaVuSans-46"/>
      <use transform="translate(337.353516 0.015625)" xlink:href="#DejaVuSans-48"/>
     </g>
    </g>
    <g id="line2d_39">
     <path d="M 531.4 112.253125 
L 571.4 112.253125 
" style="fill:none;stroke:#6aaed6;stroke-linecap:square;stroke-width:2;"/>
    </g>
    <g id="line2d_40"/>
    <g id="text_21">
     <!-- $ka=5.0$ -->
     <g transform="translate(587.4 119.253125)scale(0.2 -0.2)">
      <defs>
       <path d="M 10.796875 72.90625 
L 49.515625 72.90625 
L 49.515625 64.59375 
L 19.828125 64.59375 
L 19.828125 46.734375 
Q 21.96875 47.46875 24.109375 47.828125 
Q 26.265625 48.1875 28.421875 48.1875 
Q 40.625 48.1875 47.75 41.5 
Q 54.890625 34.8125 54.890625 23.390625 
Q 54.890625 11.625 47.5625 5.09375 
Q 40.234375 -1.421875 26.90625 -1.421875 
Q 22.3125 -1.421875 17.546875 -0.640625 
Q 12.796875 0.140625 7.71875 1.703125 
L 7.71875 11.625 
Q 12.109375 9.234375 16.796875 8.0625 
Q 21.484375 6.890625 26.703125 6.890625 
Q 35.15625 6.890625 40.078125 11.328125 
Q 45.015625 15.765625 45.015625 23.390625 
Q 45.015625 31 40.078125 35.4375 
Q 35.15625 39.890625 26.703125 39.890625 
Q 22.75 39.890625 18.8125 39.015625 
Q 14.890625 38.140625 10.796875 36.28125 
z
" id="DejaVuSans-53"/>
      </defs>
      <use transform="translate(0 0.015625)" xlink:href="#DejaVuSans-Oblique-107"/>
      <use transform="translate(57.910156 0.015625)" xlink:href="#DejaVuSans-Oblique-97"/>
      <use transform="translate(138.671875 0.015625)" xlink:href="#DejaVuSans-61"/>
      <use transform="translate(241.943359 0.015625)" xlink:href="#DejaVuSans-53"/>
      <use transform="translate(305.566406 0.015625)" xlink:href="#DejaVuSans-46"/>
      <use transform="translate(337.353516 0.015625)" xlink:href="#DejaVuSans-48"/>
     </g>
    </g>
    <g id="line2d_41">
     <path d="M 531.4 141.609375 
L 571.4 141.609375 
" style="fill:none;stroke:#2070b4;stroke-linecap:square;stroke-width:2;"/>
    </g>
    <g id="line2d_42"/>
    <g id="text_22">
     <!-- $ka=10.0$ -->
     <g transform="translate(587.4 148.609375)scale(0.2 -0.2)">
      <use transform="translate(0 0.015625)" xlink:href="#DejaVuSans-Oblique-107"/>
      <use transform="translate(57.910156 0.015625)" xlink:href="#DejaVuSans-Oblique-97"/>
      <use transform="translate(138.671875 0.015625)" xlink:href="#DejaVuSans-61"/>
      <use transform="translate(241.943359 0.015625)" xlink:href="#DejaVuSans-49"/>
      <use transform="translate(305.566406 0.015625)" xlink:href="#DejaVuSans-48"/>
      <use transform="translate(369.189453 0.015625)" xlink:href="#DejaVuSans-46"/>
      <use transform="translate(400.976562 0.015625)" xlink:href="#DejaVuSans-48"/>
     </g>
    </g>
    <g id="line2d_43">
     <path d="M 531.4 170.965625 
L 571.4 170.965625 
" style="fill:none;stroke:#08306b;stroke-linecap:square;stroke-width:2;"/>
    </g>
    <g id="line2d_44"/>
    <g id="text_23">
     <!-- $ka=20.0$ -->
     <g transform="translate(587.4 177.965625)scale(0.2 -0.2)">
      <use transform="translate(0 0.015625)" xlink:href="#DejaVuSans-Oblique-107"/>
      <use transform="translate(57.910156 0.015625)" xlink:href="#DejaVuSans-Oblique-97"/>
      <use transform="translate(138.671875 0.015625)" xlink:href="#DejaVuSans-61"/>
      <use transform="translate(241.943359 0.015625)" xlink:href="#DejaVuSans-50"/>
      <use transform="translate(305.566406 0.015625)" xlink:href="#DejaVuSans-48"/>
      <use transform="translate(369.189453 0.015625)" xlink:href="#DejaVuSans-46"/>
      <use transform="translate(400.976562 0.015625)" xlink:href="#DejaVuSans-48"/>
     </g>
    </g>
   </g>
  </g>
 </g>
 <defs>
  <clipPath id="p854ec31659">
   <rect height="664.2" width="590.4" x="108" y="56.7"/>
  </clipPath>
 </defs>
</svg>
